<?xml version="1.0" encoding="UTF-8"?><svg xmlns="http://www.w3.org/2000/svg" data-name="ARTWORK" viewBox="0 0 1000 1000"><path fill="#f5834a" d="M531.996 179.111c-109.809-14.492-221.842-12.015-330.903 7.317-58.196 10.316-121.172 29.319-152.562 79.397C26 301.77 24.515 346.638 25.093 389.057c1.586 116.375 13.634 232.745 38.679 346.404 7.606 34.515 16.866 69.765 37.98 98.108 42.162 56.597 120.047 71.811 190.595 73.772 92.017 2.558 183.804-10.054 274.376-26.5 53.407-9.698 109.809-22.408 148.35-60.63 27.113-26.889 42.343-64.026 48.437-101.723 6.094-37.696 3.687-76.236-.326-114.21a1369 1369 0 0 0-57.842-274.181c-10.609-33.062-23.03-66.659-46.414-92.326-26.092-28.638-63.717-44.684-101.842-51.568s-77.203-5.393-115.915-3.879"/><path fill="#ff8345" d="M533.372 174.12c-93.076-13.827-187.648-15.007-281.093-3.931-39.925 4.733-80.575 10.285-118.718 23.51-34.365 11.915-66.699 30.394-88.564 60.137-24.777 33.705-29.566 77.034-30.022 117.645-.519 46.217 1.734 92.584 5.381 138.645 3.754 47.413 9.406 94.689 17.044 141.633a1585 1585 0 0 0 12.892 69.489c4.373 20.936 8.855 41.962 15.533 62.307 6.512 19.839 15.157 39.274 27.786 56.014 11.081 14.689 24.459 27.133 39.773 37.339 29.804 19.864 65.319 30.259 100.445 35.561 41.401 6.249 83.551 6.329 125.296 4.47 47.877-2.132 95.546-7.662 142.91-14.848 23.305-3.536 46.547-7.494 69.735-11.73 19.033-3.477 38.032-7.303 56.663-12.566 37.448-10.578 74.382-27.607 100.575-57.252 61.005-69.042 51.526-168.353 40.254-252.864-6.185-46.371-14.595-92.413-25.419-137.929-10.37-43.606-22.129-87.492-37.929-129.482-7.273-19.327-15.897-38.411-28.042-55.21-12.165-16.825-27.308-30.85-44.983-41.761-36.728-22.671-80.235-30.575-122.787-32.184-23.031-.871-45.931.321-68.932 1.22-5.393.211-9.99 4.441-9.99 9.99 0 5.249 4.574 10.202 9.99 9.99 43.827-1.714 89.195-3.388 131.961 7.958 36.186 9.6 69.578 28.692 90.568 60.176 10.713 16.069 18.199 33.266 24.595 51.131 7.293 20.37 13.525 41.155 19.474 61.951a1371 1371 0 0 1 30.867 132.501c7.973 44.005 14.336 88.595 17.096 133.255 2.597 42.032.443 84.693-15.516 124.139-2.997 7.407-7.819 16.719-12.545 24.317-5.12 8.233-9.989 14.682-16.567 21.686-12.694 13.517-26.782 23.274-43.588 31.72-32.17 16.167-70.185 23.723-106.392 30.274-90.312 16.339-182.189 28.939-274.189 25.518-34.794-1.294-67.482-5.308-100.892-16.867-30.45-10.536-60.107-29.167-78.439-55.736-23.042-33.395-30.749-74.879-38.78-114.17-9.158-44.8-16.362-90-21.637-135.42-5.329-45.879-8.688-91.946-10.609-138.089-.903-21.702-1.622-43.453-1.513-65.176.1-19.841 1.07-39.416 5.293-58.528 4.096-18.539 11.082-35.853 22.602-51.071 9.2-12.153 22.272-23.17 35.715-31.448 29.128-17.938 62.535-26.953 96.267-33.749 89.135-17.957 180.558-22.717 271.232-17.91a1089 1089 0 0 1 65.824 5.512c5.74.655 7.147-9.309 1.376-10.167Z"/><path d="M309.191 194.29c-18.662-5.654-37.229-11.942-56.553-14.847-18.194-2.736-36.121-3.094-54.196.73-16.936 3.583-32.767 11.035-45.891 22.377-11.606 10.03-20.52 23.166-26.804 37.086-14.245 31.557-18.233 67.024-21.21 101.175-3.297 37.826-3.371 75.895-.911 113.773 2.533 38.998 7.902 77.792 15.067 116.198 7.023 37.644 15.382 75.231 27.286 111.66 6.025 18.437 12.577 36.691 18.852 55.032 5.412 15.819 10.484 32.062 17.848 47.107 7.109 14.524 17.01 27.513 30 37.252 12.498 9.371 27.068 15.629 42.097 19.658 15.489 4.152 33.056 5.889 48.061 7.342 19.947 1.931 39.969 3.41 59.958 4.84 40.129 2.872 80.252 5.603 120.412 7.998 40.132 2.394 80.258 4.946 120.412 6.932 17.41.861 35.058 2.513 52.494 1.628 7.345-.373 14.795-1.242 21.924-3.097a60 60 0 0 0 4.68-1.405c1.249-.437 2.409-.983 3.656-1.459-2.161.826.528-.165.809-.28 3.56-1.461 7.018-3.072 10.178-5.292 6.344-4.458 11.698-10.162 15.002-17.24 4.003-8.576 5.19-17.985 5.072-27.381-.227-17.974-2.7-36.1-5.633-53.806-5.746-34.694-15.034-68.687-25.06-102.354-10.068-33.809-20.919-67.411-29.592-101.619s-14.917-67.074-16.053-101.831c-1.039-31.793 3.192-63.696-.313-95.419-1.859-16.824-5.638-33.117-13.043-48.416-6.806-14.06-16.947-26.763-28.992-36.694-23.51-19.382-52.61-29.031-81.771-36.298-14.72-3.668-29.521-6.992-44.232-10.7-18.4-4.638-37.12-8.608-55.911-11.285-9.46-1.348-18.955-2.45-28.499-2.976-9.361-.516-18.526.16-27.86.591-3.995.184-7.403 3.27-7.403 7.403 0 3.867 3.39 7.588 7.403 7.403 9.212-.425 18.713.699 27.86 1.7 8.976.982 17.882 2.546 26.722 4.37 18.175 3.752 35.997 8.805 53.984 13.332 27.785 6.993 56.392 12.058 83.069 22.794q1.123.45 2.24.917c-2.021-.85.907.408 1.069.48q2.203.976 4.377 2.015c3.176 1.52 6.302 3.146 9.361 4.89s6.041 3.601 8.939 5.59c1.321.907 2.612 1.851 3.906 2.796 2.485 1.816-.872-.716.57.437a107 107 0 0 1 10.118 9.131 103 103 0 0 1 5.015 5.524c.223.264 2.603 3.203 1.55 1.848 4.803 6.178 8.611 12.975 11.916 20.047.094.201.79 1.815.195.405.405.961.783 1.934 1.154 2.908a115 115 0 0 1 1.738 4.906 127 127 0 0 1 3.073 11.027 151 151 0 0 1 2.157 11.3q.16 1.039.305 2.08c-.287-2.077.158 1.358.166 1.427q.366 3.152.633 6.314c1.327 15.662 1.006 31.399.541 47.092-.455 15.331-1.019 30.662-.341 45.996.78 17.659 2.881 35.261 5.818 52.686 5.674 33.662 14.839 66.607 24.684 99.253 19.559 64.858 42.724 130.39 46.105 197.823.436 8.688.517 15.67-1.996 23.459-.394 1.221-.768 1.943-1.719 3.579-.368.632-.781 1.233-1.164 1.854-.269.436-1.479 1.914-.225.393a35 35 0 0 1-2.863 3.088 45 45 0 0 1-1.88 1.659c1.715-1.46-.595.393-1.001.662a41 41 0 0 1-4.006 2.33c-.506.258-1.025.49-1.533.744-2.45 1.223 1.863-.499-.774.323-3.109.969-6.199 1.892-9.405 2.51-.894.172-1.792.316-2.69.467-2.013.339-.38.06.029.011-1.835.222-3.679.408-5.523.539-3.417.242-6.85.322-10.276.301-17.363-.106-34.796-2.117-52.115-3.27-19.502-1.298-39.01-2.417-58.525-3.517-78.011-4.399-155.997-8.782-234.098-11.198-15.545-.481-30.968-1.165-46.39-3.108-14.438-1.818-29.424-5.808-41.688-13.843-13.161-8.624-22.059-21.549-28.646-35.622-6.843-14.618-10.662-29.982-14.841-45.483-4.919-18.245-8.759-36.905-12.728-55.385a3192 3192 0 0 0-12.184-54.301c-8.464-36.315-15.675-73.626-20.622-110.172-4.884-36.081-7.965-73.552-8.298-110.385-.325-35.906 1.52-72.368 7.402-107.703 2.459-14.769 5.874-29.478 11.418-43.418.927-2.33 2.285-5.355 3.876-8.506a112 112 0 0 1 5.786-10.148c1.797-2.791 3.505-5.194 5.069-7.103a88 88 0 0 1 8.352-8.879c10.975-10.136 24.561-16.251 38.987-19.865 16.231-4.067 33.361-4.575 50.161-3.29 18.145 1.388 36.026 4.251 53.884 7.718 4.748.922 6.739-5.881 2.016-7.312Z"/><path d="M263.488 279.744c-8.203-4.774-18.586-5.73-27.438-3.414s-16.214 7.664-21.446 14.247c-9.733 12.246-7.367 36.04 5.797 47.711 22.909 20.309 71.385 17.246 77.571-15.602 3.276-17.393-10.534-37.023-29.939-43.525s-41.999.341-52.02 15.131"/><path d="M265.827 275.743c-5.033-3.559-11.1-5.909-17.188-6.823-3.465-.52-6.767-.76-10.248-.33-3.325.411-6.574 1.022-9.735 2.155-6.404 2.295-12.114 5.711-17.023 10.443-4.33 4.174-7.422 8.904-9.564 14.497-1.849 4.827-2.586 10.224-2.581 15.372.005 5.412.891 10.945 2.75 16.036 2.123 5.812 5.031 11.013 9.166 15.641 3.101 3.471 7.021 6.381 10.995 8.777 15.279 9.213 35.054 11.745 52.19 6.831 8.377-2.402 16.597-6.797 22.497-13.315 6.759-7.468 10.85-17.283 10.862-27.417.015-11.875-5.436-23.12-13.27-31.807s-18.876-14.996-30.369-17.073c-3.931-.71-7.73-.681-11.67-.105l2.24-.301c-3.709-.108-7.482.376-11.128.995-3.673.623-6.984 1.881-10.386 3.392-5.658 2.514-11.082 6.252-15.494 10.59-2.886 2.838-4.883 5.949-5.573 9.969-.266 1.551.05 3.055 1.38 4.049 1.224.915 2.923 1.109 4.278.301.954-.569 2.018-1.004 2.909-1.664l1.066-.823q.677-.535-.315.239c.227-.103.441-.328.643-.473.218-.156.441-.304.658-.461 3.818-2.756-1.996 1.659 1.675-1.339.43-.351.891-.691 1.301-1.065-1.395 1.269.128-.068.549-.361a40 40 0 0 1 3.161-1.979 23 23 0 0 1 1.682-.87c.263-.121.53-.236.794-.354.74-.333-1.493.603-.462.198 1.18-.464 2.37-.894 3.583-1.267a50 50 0 0 1 7.648-1.679l-2.091.281c1.898-.255 3.791-.54 5.688-.803l-2.148.289c3.532-.464 7.031-.491 10.582-.313l-2.24-.301c5.292 1.3 10.637 2.114 15.706 4.215l-2.204-.93a48 48 0 0 1 10.37 6.038l-1.886-1.457a49.3 49.3 0 0 1 8.792 8.781l-1.47-1.903c2.226 2.914 4.101 6.064 5.538 9.44l-.952-2.256c1.182 2.843 2.031 5.797 2.47 8.846l-.339-2.52c.355 2.655.387 5.323.05 7.981l.34-2.528a33.3 33.3 0 0 1-2.215 8.119l.962-2.279a31.8 31.8 0 0 1-3.983 6.876l1.497-1.937a33.4 33.4 0 0 1-5.838 5.843l1.943-1.501c-2.701 2.084-5.674 3.762-8.814 5.088l2.303-.972c-4.022 1.67-8.254 2.746-12.565 3.335l2.576-.346c-5.592.737-11.213.611-16.796-.136l2.589.348c-5.205-.72-10.307-2.073-15.152-4.116l2.298.97c-3.779-1.616-7.367-3.642-10.635-6.14l1.929 1.49c-2.233-1.728-4.251-3.658-6-5.88l1.48 1.916c-1.937-2.512-3.504-5.262-4.745-8.179l.947 2.245c-1.527-3.673-2.486-7.53-3.027-11.466l.331 2.462c-.457-3.528-.495-7.088-.033-10.617l-.321 2.385c.382-2.734 1.057-5.408 2.108-7.964l-.882 2.09a26.5 26.5 0 0 1 3.461-5.902l-1.339 1.733c2.461-3.129 5.323-5.85 8.449-8.308l-1.653 1.277a41 41 0 0 1 8.824-5.21l-1.804.761a39 39 0 0 1 8.91-2.535l-1.859.25a35 35 0 0 0 2.85-.43c.545-.109 2.044-.107.012-.036.821-.029 1.648-.186 2.471-.24a37.6 37.6 0 0 1 5.338.024c.407.031.811.074 1.217.113 1.266.122-1.028-.191.146.019.954.171 1.903.333 2.842.574a32 32 0 0 1 4.265 1.421q-.745-.312.006.02c2.203.998 5.089.706 6.34-1.663 1.258-2.382.457-4.842-1.663-6.34Z"/><g fill="#70e8a0"><path d="M280.794 412.247c-8.203-4.774-18.586-5.73-27.438-3.414s-16.214 7.664-21.446 14.247c-9.733 12.246-7.367 36.04 5.797 47.711 22.909 20.309 71.385 17.246 77.571-15.602 3.276-17.393-10.534-37.023-29.939-43.525s-41.999.341-52.02 15.131"/><path d="M283.133 408.246c-5.033-3.559-11.1-5.909-17.188-6.823-3.465-.52-6.767-.76-10.248-.33-3.325.411-6.574 1.022-9.735 2.155-6.404 2.295-12.114 5.711-17.023 10.443-4.33 4.174-7.422 8.904-9.564 14.497-1.849 4.827-2.586 10.224-2.581 15.372.005 5.412.891 10.945 2.75 16.036 2.123 5.812 5.031 11.013 9.166 15.641 3.101 3.471 7.021 6.381 10.995 8.777 15.279 9.213 35.054 11.745 52.19 6.831 8.377-2.402 16.597-6.797 22.497-13.315 6.759-7.468 10.85-17.283 10.862-27.417.015-11.875-5.436-23.12-13.27-31.807s-18.876-14.996-30.369-17.073c-3.931-.71-7.73-.681-11.67-.105l2.24-.301c-3.709-.108-7.482.376-11.128.995-3.673.623-6.984 1.881-10.386 3.392-5.658 2.514-11.082 6.252-15.494 10.59-2.886 2.838-4.883 5.949-5.573 9.969-.266 1.551.05 3.055 1.38 4.049 1.224.915 2.923 1.109 4.278.301.954-.569 2.018-1.004 2.909-1.664l1.066-.823q.677-.534-.315.239c.227-.103.441-.328.643-.473.218-.156.441-.304.658-.461 3.818-2.756-1.996 1.659 1.675-1.339.43-.351.891-.691 1.301-1.065-1.395 1.269.128-.068.549-.361a40 40 0 0 1 3.161-1.979 23 23 0 0 1 1.682-.87c.263-.121.53-.236.794-.354.74-.333-1.493.603-.462.198 1.18-.464 2.37-.894 3.583-1.267a50 50 0 0 1 7.648-1.679l-2.091.281c1.898-.255 3.791-.54 5.688-.803l-2.148.289c3.532-.464 7.031-.491 10.582-.313l-2.24-.301c5.292 1.3 10.637 2.114 15.706 4.215l-2.204-.93a48 48 0 0 1 10.37 6.038l-1.886-1.457a49.3 49.3 0 0 1 8.792 8.781l-1.47-1.903c2.226 2.914 4.101 6.064 5.538 9.44l-.952-2.256c1.182 2.843 2.031 5.797 2.47 8.846l-.339-2.52c.355 2.655.387 5.323.05 7.981l.34-2.528a33.3 33.3 0 0 1-2.215 8.119l.962-2.279a31.8 31.8 0 0 1-3.983 6.876l1.497-1.937a33.4 33.4 0 0 1-5.838 5.843l1.943-1.501c-2.701 2.084-5.674 3.762-8.814 5.088l2.303-.972c-4.022 1.67-8.254 2.746-12.565 3.335l2.576-.346c-5.592.737-11.213.611-16.796-.136l2.589.348c-5.205-.72-10.307-2.073-15.152-4.116l2.298.97c-3.779-1.616-7.367-3.642-10.635-6.14l1.929 1.49c-2.233-1.728-4.251-3.658-6-5.88l1.48 1.916c-1.937-2.512-3.504-5.262-4.745-8.179l.947 2.245c-1.527-3.673-2.486-7.53-3.027-11.466l.331 2.462c-.457-3.528-.495-7.088-.033-10.617l-.321 2.385c.382-2.734 1.057-5.408 2.108-7.964l-.882 2.09a26.5 26.5 0 0 1 3.461-5.902l-1.339 1.733c2.461-3.129 5.323-5.85 8.449-8.308l-1.653 1.277a41 41 0 0 1 8.824-5.21l-1.804.761a39 39 0 0 1 8.91-2.535l-1.859.25a35 35 0 0 0 2.85-.43c.545-.109 2.044-.107.012-.036.821-.029 1.648-.186 2.471-.24a37.6 37.6 0 0 1 5.338.024c.407.031.811.074 1.217.113 1.266.122-1.028-.191.146.019.954.171 1.903.333 2.842.574a32 32 0 0 1 4.265 1.421q-.745-.312.006.02c2.203.998 5.089.706 6.34-1.663 1.258-2.382.457-4.842-1.663-6.34Z"/></g><g fill="#edc851"><path d="M300.108 544.748c-8.203-4.774-18.586-5.73-27.438-3.414s-16.214 7.664-21.446 14.247c-9.733 12.246-7.367 36.04 5.797 47.711 22.909 20.309 71.385 17.246 77.571-15.602 3.276-17.393-10.534-37.023-29.939-43.525s-41.999.341-52.02 15.131"/><path d="M302.447 540.747c-5.033-3.559-11.1-5.909-17.188-6.823-3.465-.52-6.767-.76-10.248-.33-3.325.411-6.574 1.022-9.735 2.155-6.404 2.295-12.114 5.711-17.023 10.443-4.33 4.174-7.422 8.904-9.564 14.497-1.849 4.827-2.586 10.224-2.581 15.372.005 5.412.891 10.945 2.75 16.036 2.123 5.812 5.031 11.013 9.166 15.641 3.101 3.471 7.021 6.381 10.995 8.777 15.279 9.213 35.054 11.745 52.19 6.831 8.377-2.402 16.597-6.797 22.497-13.315 6.759-7.468 10.85-17.283 10.862-27.417.015-11.875-5.436-23.12-13.27-31.807-7.81-8.661-18.876-14.996-30.369-17.073-3.931-.71-7.73-.681-11.67-.105l2.24-.301c-3.709-.108-7.482.376-11.128.995-3.673.623-6.984 1.881-10.386 3.392-5.658 2.514-11.082 6.252-15.494 10.59-2.886 2.838-4.883 5.949-5.573 9.969-.266 1.551.05 3.055 1.38 4.049 1.224.915 2.923 1.109 4.278.301.954-.569 2.018-1.004 2.909-1.664l1.066-.823q.677-.534-.315.239c.227-.103.441-.328.643-.473.218-.156.441-.304.658-.461 3.818-2.756-1.996 1.659 1.675-1.339.43-.351.891-.691 1.301-1.065-1.395 1.269.128-.068.549-.361a40 40 0 0 1 3.161-1.979 23 23 0 0 1 1.682-.87c.263-.121.53-.236.794-.354.74-.333-1.493.603-.462.198 1.18-.464 2.37-.894 3.583-1.267a50 50 0 0 1 7.648-1.679l-2.091.281c1.898-.255 3.791-.54 5.688-.803l-2.148.289c3.532-.464 7.031-.491 10.582-.313l-2.24-.301c5.292 1.3 10.637 2.114 15.706 4.215l-2.204-.93a48 48 0 0 1 10.37 6.038l-1.886-1.457a49.3 49.3 0 0 1 8.792 8.781l-1.47-1.903c2.226 2.914 4.101 6.064 5.538 9.44l-.952-2.256c1.182 2.843 2.031 5.797 2.47 8.846l-.339-2.52c.355 2.655.387 5.323.05 7.981l.34-2.528a33.3 33.3 0 0 1-2.215 8.119l.962-2.279a31.8 31.8 0 0 1-3.983 6.876l1.497-1.937a33.4 33.4 0 0 1-5.838 5.843l1.943-1.501c-2.701 2.084-5.674 3.762-8.814 5.088l2.303-.972c-4.022 1.67-8.254 2.746-12.565 3.335l2.576-.346c-5.592.737-11.213.611-16.796-.136l2.589.348c-5.205-.72-10.307-2.073-15.152-4.116l2.298.97c-3.779-1.616-7.367-3.642-10.635-6.14l1.929 1.49c-2.233-1.728-4.251-3.658-6-5.88l1.48 1.916c-1.937-2.512-3.504-5.262-4.745-8.179l.947 2.245c-1.527-3.673-2.486-7.53-3.027-11.466l.331 2.462c-.457-3.528-.495-7.088-.033-10.617l-.321 2.385c.382-2.734 1.057-5.408 2.108-7.964l-.882 2.09a26.5 26.5 0 0 1 3.461-5.902l-1.339 1.733c2.461-3.129 5.323-5.85 8.449-8.308l-1.653 1.277a41 41 0 0 1 8.824-5.21l-1.804.761a39 39 0 0 1 8.91-2.535l-1.859.25a35 35 0 0 0 2.85-.43c.545-.109 2.044-.107.012-.036.821-.029 1.648-.186 2.471-.24a37.6 37.6 0 0 1 5.338.024c.407.031.811.074 1.217.113 1.266.122-1.028-.191.146.019.954.171 1.903.333 2.842.574a32 32 0 0 1 4.265 1.421q-.745-.312.006.02c2.203.998 5.089.706 6.34-1.663 1.258-2.382.457-4.842-1.663-6.34Z"/></g><path d="M347.351 673.248c-5.033-3.559-11.1-5.909-17.188-6.823-3.465-.52-6.767-.76-10.248-.33-3.325.411-6.574 1.022-9.735 2.155-6.404 2.295-12.114 5.711-17.023 10.443-4.33 4.174-7.422 8.904-9.564 14.497-1.849 4.827-2.586 10.224-2.581 15.372.005 5.412.891 10.945 2.75 16.036 2.123 5.812 5.031 11.013 9.166 15.641 3.101 3.471 7.021 6.381 10.995 8.777 15.279 9.213 35.054 11.745 52.19 6.831 8.377-2.402 16.597-6.797 22.497-13.315 6.759-7.468 10.85-17.283 10.862-27.417.015-11.875-5.436-23.12-13.27-31.807-7.81-8.661-18.876-14.996-30.369-17.073-3.931-.71-7.73-.681-11.67-.105l2.24-.301c-3.709-.108-7.482.376-11.128.995-3.673.623-6.984 1.881-10.386 3.392-5.658 2.514-11.082 6.252-15.494 10.59-2.886 2.838-4.883 5.949-5.573 9.969-.266 1.551.05 3.055 1.38 4.049 1.224.915 2.923 1.109 4.278.301.954-.569 2.018-1.004 2.909-1.664l1.066-.823q.677-.534-.315.239c.227-.103.441-.328.643-.473.218-.156.441-.304.658-.461 3.818-2.756-1.996 1.659 1.675-1.339.43-.351.891-.691 1.301-1.065-1.395 1.269.128-.068.549-.361a40 40 0 0 1 3.161-1.979 23 23 0 0 1 1.682-.87c.263-.121.53-.236.794-.354.74-.333-1.493.603-.462.198 1.18-.464 2.37-.894 3.583-1.267a50 50 0 0 1 7.648-1.679l-2.091.281c1.898-.255 3.791-.54 5.688-.803l-2.148.289c3.532-.464 7.031-.491 10.582-.313l-2.24-.301c5.292 1.3 10.637 2.114 15.706 4.215l-2.204-.93a48 48 0 0 1 10.37 6.038l-1.886-1.457a49.3 49.3 0 0 1 8.792 8.781l-1.47-1.903c2.226 2.914 4.101 6.064 5.538 9.44l-.952-2.256c1.182 2.843 2.031 5.797 2.47 8.846l-.339-2.52c.355 2.655.387 5.323.05 7.981l.34-2.528a33.3 33.3 0 0 1-2.215 8.119l.962-2.279a31.8 31.8 0 0 1-3.983 6.876l1.497-1.937a33.4 33.4 0 0 1-5.838 5.843l1.943-1.501c-2.701 2.084-5.674 3.762-8.814 5.088l2.303-.972c-4.022 1.67-8.254 2.746-12.565 3.335l2.576-.346c-5.592.737-11.213.611-16.796-.136l2.589.348c-5.205-.72-10.307-2.073-15.152-4.116l2.298.97c-3.779-1.616-7.367-3.642-10.635-6.14l1.929 1.49c-2.233-1.728-4.251-3.658-6-5.88l1.48 1.916c-1.937-2.512-3.504-5.262-4.745-8.179l.947 2.245c-1.527-3.673-2.486-7.53-3.027-11.466l.331 2.462c-.457-3.528-.495-7.088-.033-10.617l-.321 2.385c.382-2.734 1.057-5.408 2.108-7.964l-.882 2.09a26.5 26.5 0 0 1 3.461-5.902l-1.339 1.733c2.461-3.129 5.323-5.85 8.449-8.308l-1.653 1.277a41 41 0 0 1 8.824-5.21l-1.804.761a39 39 0 0 1 8.91-2.535l-1.859.25a35 35 0 0 0 2.85-.43c.545-.109 2.044-.107.012-.036.821-.029 1.648-.186 2.471-.24a37.6 37.6 0 0 1 5.338.024c.407.031.811.074 1.217.113 1.266.122-1.028-.191.146.019.954.171 1.903.333 2.842.574a32 32 0 0 1 4.265 1.421q-.746-.312.006.02c2.203.998 5.089.706 6.34-1.663 1.258-2.382.457-4.842-1.663-6.34Z"/><path fill="#edc851" d="M395.379 601c1.749 5.428 5.787 9.834 10.958 12.224 5.568 2.574 11.928 2.986 17.898 1.747 6.599-1.37 12.486-5.316 17.393-9.788 4.972-4.532 9.461-9.943 13.361-15.418 2.4-3.369 4.069-7.739 2.958-11.889-1.177-4.398-5.455-7.667-10.036-7.412-7.869.437-12.87 7.498-16.664 13.557-4.048 6.464-6.688 13.677-5.145 21.345.692 3.437 2.402 6.685 4.753 9.273 2.847 3.133 6.86 4.769 11.018 5.099 4.833.383 9.461-1.422 13.807-3.29 4.034-1.734 8.033-3.551 12.044-5.338a4674 4674 0 0 0 24.294-10.904c2.243-1.014 3.423-4.347 2.69-6.611-.764-2.362-3.015-4.446-5.645-4.298-4.27.241-7.771 2.251-10.18 5.777-1.863 2.726-2.7 6.363-2.588 9.635.134 3.916 1.421 7.469 3.873 10.513 2.597 3.224 6.607 5.304 10.485 6.539 3.854 1.227 8 1.608 12.021 1.821 4.46.236 8.93.341 13.393.502l28.82 1.042c10.754.389 21.544 1.106 32.298.425 2.349-.149 4.288-1.673 4.61-4.07.278-2.067-1.05-4.821-3.363-5.151-8.997-1.283-18.017-1.629-27.086-2.017l-26.584-1.138c-8.237-.353-16.558-.391-24.767-1.165-.447-.042-.892-.093-1.339-.142-1.1-.12 1.084.177-.004-.001a42 42 0 0 1-2.613-.493 27 27 0 0 1-2.345-.645 23 23 0 0 1-1.047-.369c-.169-.064-.341-.15-.514-.202.515.153.974.432.199.053q-.984-.48-1.9-1.077c-.203-.133-.397-.282-.6-.414-.511-.332.432.334.437.341-.217-.318-.683-.588-.963-.862-.242-.235-.481-.604-.752-.798.392.28.779 1.094.261.304a10 10 0 0 1-.413-.691c-.086-.158-.16-.321-.244-.48-.359-.673.242.53.261.632-.122-.647-.402-1.312-.558-1.959-.278-1.153.076 1.189.032.318-.018-.364-.051-.725-.053-1.09-.002-.318.02-.633.032-.95.045-1.188-.24 1.187-.063.335a19 19 0 0 1 .495-1.912c.358-1.133-.639 1.213-.083.209q.213-.383.431-.763c.073-.129.23-.278.276-.409-.03.086-.98 1.103-.457.604.2-.191.396-.402.589-.601.738-.764-1.188.678-.231.193.164-.083.553-.421.739-.394.215.032-1.452.392-.829.37.15-.005.465-.119.596-.166.191-.069.813-.124-.276.018-1.15.15-.225.045.004.035l-2.955-10.91a6033 6033 0 0 1-33.072 14.339l-2.269.974c-1.405.606 1.239-.491-.196.079-.421.167-.84.337-1.263.498-1.406.534-2.84 1.004-4.31 1.324l-.435.09q-1.032.175.326-.013c-.183.084-.704.069-.867.08q-.646.043-1.294.022a9 9 0 0 1-.642-.039q-.716-.065.574.082c-.098.104-1.117-.277-1.257-.307-.583-.124-.553-.52.341.195-.388-.31-.993-.538-1.434-.799-1.034-.61 1.072 1.018.225.172-.153-.153-.319-.291-.473-.444-.194-.194-.429-.581-.658-.72l.565.742a12 12 0 0 1-.377-.536c-.307-.463-.552-.951-.822-1.435-.606-1.086.493 1.441.094.257-.072-.213-.154-.422-.225-.636a16 16 0 0 1-.44-1.639c-.07-.328-.09-.686-.18-1.008l.139.982a17 17 0 0 1-.056-.68 18 18 0 0 1-.017-1.701q.012-.423.044-.844c.091-1.138.154.293-.071.392.158-.07.365-1.804.447-2.117.219-.834.488-1.656.793-2.462.043-.115.644-1.358.179-.465-.474.909.181-.359.225-.452q.471-.985.994-1.944c.769-1.414 1.611-2.788 2.476-4.145q.588-.922 1.19-1.837c.172-.262.342-.524.522-.781.426-.609.624-.295-.214.251.418-.273.838-.979 1.194-1.343.456-.466 1.25-.935 1.606-1.457-.529.775-.861.611-.357.303.293-.179.572-.378.872-.548.236-.134.505-.235.734-.38.626-.397-1.456.433-.392.195 1.594-.356-1.405.067.147-.061 1.042-.086-1.304-.283-.617-.084q.67.184-.76-.364.258.121.495.279c-.512-.117-1.031-.831-.497-.337.843.78-.712-1.09-.106-.036-.604-1.051-.373-.888-.26-.415l-.12-.867q.02.354-.006.707c-.322-.374.293-1.254.042-.465-.033.104-.229 1.089-.329 1.098.172-.015.552-1.163.036-.113q-.313.635-.678 1.241c-.684 1.139-1.497 2.189-2.296 3.247q-.61.805-1.222 1.607c-.612.805.056-.064.15-.192-.323.435-.667.856-1.003 1.281-1.762 2.227-3.588 4.406-5.549 6.461a57 57 0 0 1-2.865 2.807q-.736.67-1.5 1.31c-.203.17-.411.334-.614.504q-.707.56.178-.127-.316.24-.636.474a42 42 0 0 1-3.298 2.194 32 32 0 0 1-3.17 1.652q-.89.391.32-.13c-.52.05-1.135.425-1.64.583q-.835.261-1.687.461c-.551.129-1.373.114-1.88.361l.732-.096a23 23 0 0 1-1.6.149 25 25 0 0 1-3.836-.06c-.096-.009-.509-.103-.632-.067q1.194.168.377.045-.313-.05-.625-.109a23 23 0 0 1-1.689-.384c-.6-.161-1.201-.326-1.793-.514a21 21 0 0 1-.728-.245c-1.025-.368-.171.117-.017.024-.188.114-1.389-.665-1.642-.805-.528-.293-1.018-.629-1.526-.953-.825-.524.507.486.052.057-.253-.239-.539-.447-.796-.684-.441-.406-.836-.847-1.241-1.288-.487-.53.005.024.083.132a16 16 0 0 1-.683-1.007 16 16 0 0 1-.867-1.631c-.818-1.761-3.243-2.293-4.885-1.601-1.718.725-2.867 2.747-2.265 4.615Z"/><path fill="#70e8a0" d="M383.239 474c15.5-.495 28.564-11.357 34.1-25.483 1.544-3.94 2.409-8.309 2.382-12.543-.015-2.403-1.745-4.926-4.171-5.479-2.393-.545-5.204.333-6.416 2.611-2.989 5.618-6.03 11.365-7.79 17.508-1.792 6.254-2.596 13.601-.457 19.881 2.095 6.147 6.991 10.975 13.484 12.238 6.008 1.168 12.124.082 17.395-3.037 5.685-3.364 9.932-8.437 13.975-13.547l-9.978-5.809c-1.607 5.384-2.82 10.76-1.933 16.388.743 4.714 3.742 9.23 7.803 11.728 4.562 2.807 10.108 2.356 14.687-.102 1.907-1.024 3.618-2.434 5.281-3.803.72-.593 1.428-1.201 2.143-1.8q.569-.478 1.148-.945c.143-.115.295-.224.433-.345-1.183 1.036-.28.225.005.023a21 21 0 0 1 2.303-1.428c.429-.228 1.028-.401 1.416-.685-.02.015-1.053.397-.46.205.309-.1.611-.229.92-.332a25 25 0 0 1 2.835-.763c.451-.094.903-.17 1.356-.248 1.022-.176-.197.056-.332.041.29.032.692-.075.992-.101 2.122-.186 4.159-.074 6.273.139.398.04 1.007-.063-.341-.053.249-.002.571.081.807.117q.707.107 1.413.228 1.612.278 3.215.608c9.698 1.989 19.377 4.083 29.066 6.115l17.031 3.573c2.756.578 5.506 1.208 8.271 1.738 2.019.387 4.128.516 6.174.745 1.985.222 3.906-.215 5.854-.571 2.771-.506 4.826-3.417 5.173-6.004.377-2.807-.924-5.758-3.448-7.196-1.422-.81-2.84-1.672-4.43-2.119-1.27-.356-2.587-.595-3.873-.887-2.961-.672-6.094-.891-9.11-1.283l-14.507-1.888-29.013-3.777c-.573-.075-1.146-.166-1.721-.224 2.361.237-.475-.068-.796-.106-.266-.031-.534-.054-.8-.082-1.01-.106-2.021-.21-3.033-.297a76 76 0 0 0-5.932-.305c-4.338-.034-8.827.121-13.034 1.26-4.487 1.214-8.148 3.568-11.709 6.469-.676.551-1.344 1.111-2.019 1.663-.333.272-.692.527-1.013.814 1.239-1.107-.101.058-.439.292-.675.468-1.373.904-2.106 1.276-1.141.58.934-.255-.017.027-.43.128-.855.255-1.29.367-.922.238.434-.078.549-.059-.205-.035-.471.031-.681.033-.018 0-.638-.064-.695-.025.215-.148 1.452.285.333.015-.169-.041-.334-.096-.502-.138-1.087-.27.802.461.278.137-.42-.259-.886-.582-1.322-.809.02.01.896.803.512.364-.189-.216-.431-.402-.628-.612-.121-.128-.23-.27-.352-.396-.478-.495.685 1.078.162.196-.245-.413-.513-.809-.735-1.236-.016-.031-.239-.606-.314-.651.27.161.483 1.269.134.227a13 13 0 0 1-.379-1.388c-.035-.162-.041-.374-.102-.527q.151 1.25.079.525a18.4 18.4 0 0 1-.005-3.226q.026-.347.067-.69l-.09.657c-.172-.247.278-1.552.338-1.83q.198-.915.438-1.82c.357-1.359.771-2.703 1.188-4.045.751-2.422-.475-5.544-2.744-6.742-2.177-1.15-5.543-1.159-7.235.933-1.554 1.923-3.115 3.845-4.789 5.667a49 49 0 0 1-2.593 2.634q-.596.558-1.215 1.091c-.206.177-.418.346-.624.523-1.07.915 1.086-.763-.06.049-.939.666-1.893 1.3-2.905 1.851-.513.279-1.084.488-1.585.786.079-.047 1.434-.548.502-.226-.326.113-.647.231-.977.333q-.66.204-1.336.358c-.29.066-2.052.371-.895.193 1.147-.176-.605.026-.911.037q-.86.03-1.719-.025c-.225-.014-.457-.053-.681-.058 1.576.032 1.085.168.619.079a20 20 0 0 1-1.478-.33c-.436-.119-.986-.42-1.424-.464.097.01 1.4.683.555.224-.289-.157-.587-.296-.872-.463-.189-.11-.369-.238-.558-.347-.429-.248-.477-.63.441.377-.291-.32-.677-.574-.983-.885-.196-.2-.373-.415-.562-.62-.499-.54.673 1.051.268.325-.17-.305-.382-.59-.552-.897-.102-.184-.744-1.21-.244-.409s-.09-.273-.15-.454q-.134-.403-.247-.812c-.153-.549-.254-1.106-.376-1.661-.255-1.156-.003.3.029.351-.138-.221-.083-.802-.103-1.07a28 28 0 0 1-.081-2.232c.003-1.158-.086-2.64.241-3.758-.377 1.291-.1.677-.027.292.069-.363.125-.729.196-1.092q.212-1.093.485-2.172c.731-2.907 1.733-5.762 2.851-8.541.113-.281.23-.56.343-.84q.248-.597-.15.353l.271-.629q.455-1.047.928-2.085a273 273 0 0 1 2.017-4.316l-10.588-2.868c.085 1.632.108 3.264-.022 4.895-.028.346-.065.691-.1 1.036-.099.978.2-1.246-.024.12a33 33 0 0 1-.486 2.396c-.369 1.528-.863 3.008-1.418 4.477-.309.818.372-.815-.108.261q-.25.562-.52 1.114a36 36 0 0 1-2.346 4.106 38 38 0 0 1-.997 1.435c-.062.085-.519.708-.171.241.342-.46-.406.503-.524.644a37 37 0 0 1-4.159 4.269q-.394.344-.798.676-.27.22-.542.437c.301-.244.294-.222-.009.002-.233.172-.462.342-.693.52l-.408.315q.456-.357.112-.103c-.295.186-.573.407-.862.603q-1.084.736-2.22 1.386c-1.639.937-2.803 1.476-4.214 1.988a31 31 0 0 1-5.395 1.414c-3.293.561-2.501 5.898.784 5.793Z"/><path d="M391.284 339.99c10.207 10.258 26.876 12.402 39.1 4.496 5.967-3.859 10.872-9.609 13.197-16.376 1.076-3.13 1.41-7.071.197-10.211-1.71-4.424-5.82-7.815-10.79-7.41-4.39.358-8.377 2.785-11.339 5.976-2.629 2.831-5.018 6.048-7.025 9.349s-3.757 7.045-4.394 10.889c-.776 4.687-.298 9.069 1.742 13.386 3.043 6.437 9.74 10.363 16.008 13.096 7.466 3.255 15.088 6.196 22.869 8.612a229 229 0 0 0 22.849 5.819c8.069 1.617 16.385 3.216 24.638 3.183 1.939-.008 3.882-.118 5.818-.216 2.769-.139 5.062-2.001 5.438-4.801.341-2.54-1.254-5.546-3.966-6.075-3.472-.678-6.937-1.371-10.412-2.034-1.197-.228-2.399-.388-3.609-.544-.461-.06-.931-.1-1.39-.18 1.904.333.306.039-.075-.015a228 228 0 0 1-26.085-5.255 248 248 0 0 1-20.07-6.216 226 226 0 0 1-9.592-3.663c-.398-.162-.796-.36-1.203-.496 1.846.613.627.265.195.076a64 64 0 0 1-1.707-.776 39 39 0 0 1-3.959-2.132 36 36 0 0 1-1.536-1.027c-1.105-.769 1.159 1.001.149.119-.273-.239-.554-.467-.822-.713a18 18 0 0 1-1.262-1.279l-.235-.27q-.635-.774.34.461c-.158-.359-.492-.702-.699-1.041a14 14 0 0 1-.445-.783l-.164-.324q-.415-.896.186.484c.108-.265-.503-1.545-.59-1.927l-.082-.388q-.179-1.04.051.528c.082-.289-.071-.865-.078-1.174a15 15 0 0 1 .04-1.569q.102-1.042-.096.51c.259-.634.27-1.485.448-2.158q.29-1.088.685-2.143l.148-.387q.383-.95-.154.351c-.026-.075.352-.766.352-.766.427-.9.898-1.778 1.399-2.639a49 49 0 0 1 2.34-3.62q.372-.525.754-1.043c.198-.268 1.018-1.491.054-.095.456-.661 1.009-1.29 1.533-1.899.268-.312 2.675-3.251 3.088-3.083l-.606.474q.313-.225.639-.431c.211-.132.442-.242.65-.377 1.039-.676-1.274.303-.095.031q.333-.108.675-.18-1.504.156-.547.093c1.03.113-.527-.116-.533-.123l.34.078q.869.284-.373-.192l.274.152q.746.492-.429-.362l.216.203q.588.648-.326-.476c.033.121.254.418.309.502.582.887-.337-1.294-.123-.237.051.254.102.671.209.902q-.163-1.381-.103-.706.023.24.029.482.017.49-.01.979l-.022.329q-.091.904.081-.491c-.208.458-.216 1.129-.352 1.617q-.13.468-.293.927c-.065.183-.257 1.152-.106.323.148-.818-.073.157-.164.353q-.31.665-.656 1.312a27 27 0 0 1-.919 1.583c-.311.498-.749 1.483-1.24 1.81.623-.414.502-.618.164-.218-.237.28-.467.566-.709.842a29 29 0 0 1-1.514 1.596 35 35 0 0 1-1.915 1.703c-.725.61.121-.055.192-.143-.271.335-.841.609-1.198.849q-.914.613-1.874 1.15c-.659.369-1.541 1.008-2.289 1.145.938-.172.565-.223.207-.091-.459.169-.914.346-1.379.5a34 34 0 0 1-2.107.629c-.824.216-1.795.538-2.651.544.151-.001 1.083-.108.143-.026-.517.045-1.031.094-1.55.119a27 27 0 0 1-3.483-.055c-.216-.017-1.866-.242-.701-.056a30 30 0 0 1-4.533-1.066 26 26 0 0 1-1.816-.66q.559.241.135.055c-.761-.364-1.521-.717-2.258-1.129a27 27 0 0 1-2.918-1.893c.567.427-.59-.501-.695-.591-1.574-1.353-4.091-1.662-5.617 0-1.459 1.589-1.566 4.043 0 5.617Zm30.877 351.55c1.209.963 2.315 1.653 3.728 2.269q1.947.85 3.898 1.688c2.755 1.183 5.641 2.084 8.475 3.061 5.422 1.869 10.853 3.644 16.356 5.26 10.99 3.227 22.019 6.176 33.171 8.789 22.107 5.181 44.388 9.742 66.82 13.279a1046 1046 0 0 0 19.13 2.835c3.615.501 7.243 1.124 10.881 1.419 3.211.261 6.39.602 9.599.201 2.829-.353 5.15-1.885 5.556-4.905.395-2.941-1.38-5.196-4.052-6.207-2.727-1.032-5.532-1.446-8.391-1.961-3.2-.576-6.44-.923-9.663-1.353-.246-.033-1.303-.177-.312-.041l-.312-.043-2.156-.295a1076 1076 0 0 1-12.686-1.829 1392 1392 0 0 1-33.672-5.469c-22.408-3.935-44.634-8.779-66.847-13.675-6.15-1.355-12.288-2.737-18.453-4.019-3.161-.658-6.312-1.371-9.476-2.017-1.586-.324-3.206-.513-4.807-.758-1.733-.266-3.331-.519-5.085-.338-.971.1-1.815.522-2.2 1.48-.328.814-.255 2.03.498 2.63Z"/><g fill="#70e8a0"><path d="M897.152 332.063c-64.165 43.465-128.414 86.982-195.838 125.198-17.156 9.724-34.675 19.216-49.396 32.339-19.11 17.037-16.439 38.269-38.923 72.676 30.772-4.594 63.2-4.857 92.733-14.647 14.531-4.817 27.385-13.56 40.026-22.195L904.996 416.65c14.631-9.995 29.853-20.646 37.889-36.438s5.917-38.266-9.288-47.364c-14.617-8.746-33.693-1.665-47.376 8.481s-25.659 23.49-41.834 28.83"/><path d="M894.722 327.906c-22.668 14.972-45.33 29.954-68.155 44.685s-45.629 29.103-68.794 43.088a2474 2474 0 0 1-69.477 40.438c-11.003 6.164-21.946 12.525-32.029 20.132-4.647 3.506-9.368 7.107-13.37 11.358a63 63 0 0 0-8.107 10.738c-4.504 7.509-7.463 15.874-10.637 23.999a388 388 0 0 1-2.615 6.549c-.204.497-.428.988-.618 1.49.865-2.273.124-.297-.116.261a201 201 0 0 1-1.573 3.556 173 173 0 0 1-7.958 15.454 168 168 0 0 1-5.292 8.523c-1.793 2.698-1.243 6.593.635 9.024 2.155 2.789 5.193 3.408 8.54 2.912q.894-.13 1.79-.256c2.067-.295-1.842.235.229-.032a484 484 0 0 1 10.821-1.288c4.64-.505 9.285-.961 13.93-1.417 10.053-.986 20.092-2.017 30.094-3.435 18.926-2.683 37.66-6.948 54.585-16.127 8.129-4.408 15.784-9.619 23.416-14.822l25.287-17.24 50.845-34.664c16.857-11.493 33.723-22.973 50.586-34.458l25.566-17.413c7.375-5.023 14.831-9.95 21.907-15.393 13.561-10.432 26.689-23.527 30.629-40.798 3.403-14.918.738-32.858-11.307-43.393-7.109-6.218-16.226-9.441-25.675-9.21s-18.351 3.36-26.407 8.211a66 66 0 0 0-4.885 3.219l-1.586 1.225q1.332-1.023.309-.284c-.739.506-1.466 1.125-2.175 1.697a81 81 0 0 0-2.567 2.168c-3.062 2.69-6.068 5.492-8.92 8.404-2.969 3.031-6.446 5.716-9.753 8.378-.415.334-.835.662-1.25.996-.174.14-.916.715-.018.021q-1.263.975-2.555 1.909a85 85 0 0 1-5.259 3.535 83 83 0 0 1-5.02 2.853c-.931.487-1.883.925-2.829 1.38-1.556.749 1.039-.41-.57.252-.405.167-2.832 1.025-1.49.574-2.799.941-4.928 3.939-3.951 6.959.901 2.784 3.956 4.961 6.959 3.951 4.15-1.395 8.218-2.932 12.049-5.08 3.536-1.983 6.891-4.273 10.138-6.696 3.576-2.668 7.05-5.468 10.506-8.289.273-.223.547-.474.834-.681-1.178.853.301-.136.456-.246q1.301-.925 2.609-1.841a208 208 0 0 1 4.829-3.29c3.369-2.219 6.836-4.302 10.438-6.117a77 77 0 0 1 2.895-1.379c-.049.022.97-.386.975-.441l-.992.432q.489-.2.981-.394c1.968-.771 3.969-1.41 5.999-1.994 1.835-.528 3.656-1.069 5.53-1.451.837-.17 1.681-.287 2.521-.437-2.692.479-.935.134-.309.077q1.002-.091 2.007-.128a33 33 0 0 1 3.978.085c.775.063 2.095.551-.362-.089 1.844.481 3.693.718 5.506 1.369.717.258 1.399.871-.466-.24.423.252.929.419 1.37.64q1.106.555 2.157 1.209c.734.457 2.846 2.363.64.333.612.563 1.273 1.064 1.872 1.644a26 26 0 0 1 1.692 1.8c.174.203.339.438.525.632-1.788-1.872-.816-1.078-.381-.465a29.4 29.4 0 0 1 2.506 4.256c.18.373.334.761.519 1.132-1.132-2.265-.621-1.524-.409-.941.288.788.579 1.572.826 2.374a37 37 0 0 1 1.152 4.958c.379 2.329-.212-2.138.022.22q.127 1.292.175 2.589a44 44 0 0 1-.108 5.006c-.063.802-.6 3.649 0 .494-.136.716-.225 1.442-.365 2.158a44 44 0 0 1-1.302 5.072c-.267.828-.577 1.636-.874 2.453-.467 1.287.381-.863.391-.891-.135.401-.349.797-.528 1.18a51 51 0 0 1-2.897 5.304c-.987 1.592-2.426 3.106-3.276 4.756 1.002-1.946.559-.72.069-.116a74 74 0 0 1-3.1 3.576c-2.699 2.924-5.617 5.639-8.656 8.206-1.406 1.188-3.073 2.237-4.37 3.535 1.653-1.656.565-.438.057-.053q-.642.487-1.289.968-1.294.963-2.601 1.906c-3.394 2.451-6.849 4.817-10.302 7.183l-24.708 16.929-49.687 34.044c-16.471 11.286-32.952 22.557-49.429 33.836l-24.443 16.731c-7.803 5.341-15.539 10.806-23.533 15.861-3.651 2.308-7.368 4.516-11.188 6.532a116 116 0 0 1-5.788 2.857c-.533.244-1.071.477-1.606.719-1.859.841 1.747-.685-.15.066-1.092.432-2.182.868-3.286 1.269-8.659 3.149-17.721 5.263-26.77 6.932a298 298 0 0 1-13.185 2.106c-.448.062-2.521.418-.187.028-.599.1-1.21.159-1.812.236q-1.512.193-3.025.378c-2.424.295-4.848.588-7.274.867-9.29 1.068-18.597 1.988-27.878 3.133a609 609 0 0 0-14.747 2.017l9.175 11.935c6.561-10.292 11.95-21.096 16.527-32.403 1.694-4.185 3.264-8.419 4.872-12.638a254 254 0 0 1 2.291-5.837c.228-.556 1.022-2.335-.062.126.202-.458.394-.921.596-1.379a95 95 0 0 1 1.234-2.697c1.648-3.456 3.53-6.806 5.775-9.911.171-.236 1.316-1.747.391-.547-.896 1.161.115-.131.324-.386q1.03-1.256 2.138-2.442c1.649-1.768 3.435-3.392 5.262-4.974a139 139 0 0 1 3.391-2.844c.61-.496 1.227-.983 1.843-1.472.277-.22 1.079-.938-.149.109.298-.254.627-.48.939-.716a185 185 0 0 1 7.685-5.498c5.226-3.549 10.606-6.863 16.042-10.077 22.73-13.435 45.73-26.37 68.039-40.514 22.787-14.448 45.277-29.361 67.6-44.514 22.247-15.101 44.367-30.386 66.454-45.721l8.379-5.819c2.133-1.481 3.113-4.219 1.727-6.587-1.26-2.153-4.408-3.167-6.587-1.727Z"/></g><path d="M872.492 349.498a160.9 160.9 0 0 0 26.042 51.024c3.072 4.029 6.574 8.084 11.353 9.766 7.885 2.775 16.378-1.729 23.115-6.677a137.2 137.2 0 0 0 30.131-30.449c5.3-7.375 9.946-15.504 11.423-24.465s-.681-18.909-7.309-25.118c-6.995-6.553-17.435-7.826-26.998-7.177-24.026 1.631-47.156 13.742-62.182 32.559"/><path d="M870.055 350.17c.508 2.607.901 5.212 1.305 7.838-.109-.708.11.768.187 1.085.068.283.157.563.234.844q.262.95.535 1.896.576 1.995 1.205 3.973c1.69 5.323 3.763 10.448 6.18 15.481 4.67 9.724 10.219 19.404 17.241 27.639 3.673 4.307 8.637 7.905 14.33 8.812 6.596 1.051 12.892-.727 18.744-3.754 5.041-2.608 9.584-6.192 13.996-9.728 4.121-3.303 7.999-6.933 11.669-10.728 3.968-4.103 7.618-8.466 11.098-12.986 3.221-4.183 6.272-8.525 8.791-13.171 5.467-10.082 8.333-21.379 5.892-32.769-1.165-5.434-3.76-10.471-7.387-14.662-3.681-4.253-8.76-7.119-14.032-8.909-9.967-3.385-21.148-2.521-31.323-.664-9.817 1.792-19.373 5.33-28.131 10.095a90.6 90.6 0 0 0-11.824 7.704c-4.141 3.176-8.179 6.523-11.653 10.434-1.898 2.136-3.66 4.38-5.387 6.655-1.029 1.356-1.246 4.095-.74 5.658.501 1.548 1.338 2.815 2.631 3.814 2.689 2.077 7.268 2.224 9.641-.574s4.933-5.4 7.566-7.943a87 87 0 0 1 5.88-5.187c.209-.168 1.603-1.256.466-.381s.268-.2.482-.36c5.767-4.314 12.051-7.9 18.675-10.722l-1.799.759c7.122-2.997 14.592-5.077 22.248-6.135l-1.993.268c5.456-.728 10.989-1.006 16.463-.307l-1.986-.267c3.081.422 6.093 1.158 8.965 2.361l-1.782-.752a26.7 26.7 0 0 1 3.868 2.049q.48.312.945.646c1.199.863-.409-.374-.442-.351.118-.083 1.535 1.368 1.708 1.541.488.489.931 1.011 1.386 1.529.586.667-1.059-1.478-.361-.474.213.307.433.608.639.92a26 26 0 0 1 2.11 3.953l-.75-1.776c.973 2.339 1.619 4.772 1.985 7.278l-.265-1.975a34.2 34.2 0 0 1-.013 9.122l.265-1.972c-.536 3.67-1.606 7.216-3.031 10.635l.746-1.769c-1.959 4.595-4.515 8.896-7.354 12.999q-.988 1.426-2.015 2.824-.579.788-1.168 1.568c-.174.23-.342.47-.526.691.384-.461.924-1.187.222-.291a138 138 0 0 1-15.179 16.408 172 172 0 0 1-5.561 4.858 138 138 0 0 1-3.362 2.742c-.144.114-1.301.997-.292.234l-.128.095a93 93 0 0 1-.862.65c-2.213 1.645-4.52 3.177-6.969 4.449-.515.267-1.542.538-1.952.941.631-.619 1.247-.497.505-.217-.4.151-.797.303-1.201.441a23.3 23.3 0 0 1-4.051.987l1.866-.251a19 19 0 0 1-4.897.012l1.843.248a17 17 0 0 1-1.63-.327c-.436-.114-1.128-.514-1.56-.499.772-.026 1.256.581.541.221-.235-.118-.473-.231-.705-.356a19 19 0 0 1-1.683-1.026c-.209-.143-.425-.34-.643-.459.113.062 1.247 1.04.418.311-.402-.353-.812-.695-1.204-1.06a37 37 0 0 1-2.387-2.462 69 69 0 0 1-2.076-2.459q-.545-.674-1.082-1.354l-.541-.689c-.489-.616.773 1.015.055.072-.712-.935-1.406-1.884-2.107-2.827l-.979-1.267.442.565c-.029-.154-.407-.55-.525-.709q-.653-.888-1.294-1.786c-5.619-7.864-10.399-16.286-14.9-24.829-1.286-2.44-2.38-4.98-3.657-7.42-1.24-2.369-2.673-4.562-3.706-7.043-.525-1.259-1.674-2.16-3.109-1.765-1.401.385-2.027 1.765-1.765 3.109ZM644.05 485.287c-.974 6.483-1.232 13.006-.492 19.528.793 6.993 2.562 13.545 5.313 20.02 4.739 11.155 12.334 21.203 21.825 28.755 5.687 4.525 11.994 8.768 18.939 11.08 2.904.967 6.116-.885 7.242-3.554 1.109-2.628.243-6.321-2.512-7.666-4.988-2.435-9.924-4.694-14.511-7.87a69 69 0 0 1-1.601-1.142c-.257-.189-.764-.445-.945-.706.633.912.605.473.115.086a74 74 0 0 1-3.175-2.659 71 71 0 0 1-8.519-8.988c-.226-.285-.874-.912.033.049-.221-.234-.4-.53-.592-.789a68.8 68.8 0 0 1-7.717-13.348c-.116-.265-.552-1.145-.058-.127-.156-.322-.273-.67-.404-1.002a72 72 0 0 1-.907-2.428 92 92 0 0 1-2.587-8.678 71 71 0 0 1-1.218-6.105c-.03-.193-.2-1.43-.078-.493a71 71 0 0 1-.467-12.922c.106-1.942-1.57-3.597-3.392-3.842-1.733-.233-4.003.876-4.292 2.802Zm-29.547 58.582c.4 8.521 4.621 16.791 11.287 22.115l-27.026 3.711a56.36 56.36 0 0 0 16.002-21.426"/><path d="M612.066 543.197c-.716 4.714-.562 9.681 1.098 14.205 1.708 4.654 5.016 9.236 8.828 12.379l3.797-9.168c-9.501 1.221-19 2.423-28.476 3.823l5.306 9.115c3.799-3.217 7.12-6.85 9.794-11.058 1.214-1.911 2.455-3.875 3.41-5.93.571-1.229 1.071-2.489 1.594-3.739-.239.571.029-.047.14-.293q.171-.38.336-.761.51-1.177.992-2.365c.799-1.966-.713-4.298-2.474-5.041-1.785-.753-4.461-.194-5.336 1.748-.923 2.049-2.002 3.911-3.275 5.762-.629.915-1.238 1.844-1.887 2.745q-.244.339-.492.673.511-.66-.007-.016c-.361.413-.706.841-1.068 1.254-2.91 3.315-6.013 6.526-9.44 9.31-1.669 1.356-1.894 4.141-1.128 5.957.756 1.791 2.874 3.62 4.984 3.352 9.503-1.206 18.975-2.601 28.454-3.986 3.829-.559 5.36-6.597 2.37-8.976-1.642-1.307-3.224-2.693-4.628-4.256-.349-.389-.679-.792-1.015-1.192q-.519-.654.063.086a33 33 0 0 1-.464-.639c-.57-.806-1.061-1.657-1.597-2.484-2.264-3.496-3.977-6.633-5.006-10.503-.599-2.252-4.486-2.561-4.875 0Zm42.573-31.142c16.979-8.322 33.888-16.803 50.737-25.384 16.763-8.537 33.153-17.819 49.503-27.119s32.727-18.881 48.914-28.621q24.178-14.55 47.993-29.685c23.815-15.135 31.679-20.279 47.37-30.642 1.104-.729 2.229-1.433 3.276-2.242 1.15-.889 1.981-2.331 2.851-3.506.974-1.316.59-3.428-.325-4.612a4.18 4.18 0 0 0-4.365-1.488c-1.277.334-2.653.571-3.827 1.195-1.097.583-2.11 1.438-3.133 2.142a2343 2343 0 0 1-17.452 11.891 1471 1471 0 0 1-23.555 15.553q-23.694 15.332-47.757 30.08c-24.063 14.748-32.199 19.466-48.475 28.902a2296 2296 0 0 1-24.498 14.004c-8.192 4.617-16.487 9.063-24.635 13.756-16.295 9.387-32.718 18.52-49.321 27.354a2219 2219 0 0 1-6.281 3.329c-1.408.744-1.837 2.702-1.058 4.035.853 1.459 2.6 1.761 4.035 1.058Zm12.795 31.716c17.469-6.692 34.097-15.408 50.64-24.103a1476 1476 0 0 0 48.733-26.799c16.138-9.275 32.146-18.777 47.957-28.6s31.298-19.856 46.659-30.222c15.416-10.403 30.784-20.878 45.785-31.874q2.79-2.046 5.57-4.103c2.22-1.643 3.566-4.663 1.9-7.246-1.402-2.174-4.886-3.691-7.246-1.9-14.777 11.212-29.622 22.39-44.8 33.055s-30.55 21.039-46.116 31.122c-15.623 10.121-31.42 19.993-47.449 29.46a1476 1476 0 0 1-48.405 27.372c-16.295 8.813-32.898 17.054-49.087 26.052-2.01 1.117-3.972 2.324-5.952 3.496-2.205 1.306-.751 5.271 1.809 4.29Z"/><path fill="#edc851" d="m906.477 353.684 9.71 18.926 4.742 9.243c.828 1.614 1.638 3.235 2.534 4.812.971 1.709 2.12 3.106 3.424 4.569 2.011 2.255 5.458-.156 4.828-2.811-.461-1.945-1.03-3.667-1.893-5.475-.746-1.564-1.57-3.085-2.381-4.615l-4.979-9.391-9.957-18.781c-.883-1.665-3.197-2.176-4.776-1.252-1.703.996-2.116 3.093-1.252 4.776Zm17.868-18.962 9.086 21.182 4.494 10.477c1.584 3.692 2.961 7.579 5.728 10.585 2.142 2.326 6.711.598 6.473-2.681-.315-4.321-2.33-8.199-4.034-12.108l-4.651-10.67-9.302-21.341c-.947-2.173-4.293-2.833-6.176-1.619-2.263 1.459-2.619 3.845-1.619 6.176Zm27.533 5.075c.518.273 1.024.567 1.512.891.218.145.551.492.797.562-.069-.02-.763-.615-.35-.268.124.104.251.205.375.311a18 18 0 0 1 2.489 2.606l-.636-.823a18.6 18.6 0 0 1 2.363 4.028l-.416-.986c.591 1.423 1.148 2.924 1.534 4.416.481 1.86 2.376 3.008 4.226 2.759 1.834-.246 3.395-1.856 3.34-3.783-.05-1.764-.271-3.504-.945-5.139s-1.429-3.195-2.479-4.628c-2.066-2.821-4.643-5.243-7.8-6.805-1.86-.92-4.385-.561-5.435 1.425-.969 1.834-.538 4.401 1.425 5.435ZM446.02 167.855a243 243 0 0 1 41.105-31.436c15.046-9.14 30.36-16.665 46.247-22.361 16.358-5.864 33.299-9.93 50.495-12.394l1.483-.208c1.189-.166-1.711.209.211-.025.989-.12 1.977-.247 2.967-.361a237 237 0 0 1 7.14-.715c4.039-.343 8.089-.598 12.141-.706a162.5 162.5 0 0 1 24.238 1.162l.502.063q1.241.162-.475-.068c.375-.042.873.122 1.25.176a152 152 0 0 1 5.731.942 145 145 0 0 1 10.81 2.416 131 131 0 0 1 10.019 3.08q2.566.904 5.088 1.923l1.138.467c1.033.423-1.811-.796-.275-.111.892.398 1.786.79 2.671 1.203a101 101 0 0 1 9.382 4.977 92 92 0 0 1 6.355 4.19q.383.278.763.558c.515.381 1.908 1.846.26.181 1.082 1.093 2.445 1.976 3.602 2.999a75 75 0 0 1 4.055 3.859 72 72 0 0 1 3.14 3.436c.505.59.99 1.195 1.484 1.794 1.09 1.322-1.148-1.554-.131-.178.277.374.558.746.831 1.123a66 66 0 0 1 6.424 10.949c.202.435.393.874.59 1.312.727 1.612-.725-1.859-.091-.205.666 1.739 1.317 3.477 1.857 5.26a61 61 0 0 1 1.316 5.146q.326 1.557.575 3.128c.055.348.096.701.156 1.048-.468-2.683-.046-.21.012.381a70 70 0 0 1 .199 11.367q-.094 1.456-.249 2.908c-.038.352-.082.703-.121 1.055-.209 1.915.336-2.054.015-.155-.326 1.926-.666 3.843-1.116 5.745a74 74 0 0 1-2.439 8.178c-.285.789-1.128 2.154-1.155 2.992l.446-1.051a78 78 0 0 1-.868 1.954 75 75 0 0 1-4.302 8.008q-1.407 2.276-2.976 4.445c-.199.276-.909.963-.955 1.29l.685-.883q-.329.421-.664.838-1.005 1.249-2.066 2.452a69 69 0 0 1-8.27 7.951c-.47.381-1.264 1.327.185-.118-.385.384-.926.7-1.365 1.021a73 73 0 0 1-7.635 4.878 76 76 0 0 1-5.555 2.801c-.343.156-.69.305-1.033.461-1.82.825 1.832-.71-.032.01-1.057.408-2.108.825-3.175 1.204a83 83 0 0 1-12.032 3.273q-1.396.27-2.8.494c-.431.069-1.313.041-1.689.252.965-.543 1.585-.193.6-.089-2.27.238-4.533.451-6.815.543a88.4 88.4 0 0 1-13.676-.505l-.567-.067q-1.436-.181.603.086c-.524-.401-2.159-.33-2.819-.445q-3.092-.54-6.138-1.301c-3.046-.761-4.037-1.089-6.022-1.744a85 85 0 0 1-3.997-1.434c-2.008-.786 1.464.729-.094-.039-.794-.391-1.592-.762-2.365-1.195a25 25 0 0 1-1.357-.816c-.287-.186-1.372-1.228-.399-.22 1.025 1.062-.126-.123-.316-.294-.377-.339-.709-.718-1.075-1.066-1.002-.952.396.386.422.603-.028-.237-.815-1.53-1.001-1.694.969.848.529 1.631.341.69l-.134-.486q-.29-1.424.062.868c.057-.398-.025-.973-.039-1.382-.03-.862.569-.639-.159.983.159-.353.234-.902.33-1.283.383-1.526-.904 1.492-.285.649.213-.291.354-.672.545-.982 1.193-1.933-1.016.975.009-.091.558-.58 1.09-1.171 1.691-1.71.214-.192 1.503-1.094.263-.27-1.284.853.136-.085.333-.223 1.558-1.085 3.218-2.024 4.926-2.848.434-.21 1.016-.373 1.408-.648-1.723 1.208-1.026.422-.202.102.881-.341 1.773-.65 2.665-.96a281 281 0 0 1 7.046-2.341c9.466-3.004 19.108-5.489 28.887-7.237 2.217-.396 4.44-.744 6.667-1.073 2.279-.336-1.905.223.381-.053.558-.067 1.115-.139 1.672-.205q2.006-.236 4.016-.425c4.785-.45 9.59-.695 14.396-.705a138 138 0 0 1 14.664.739c1.105.116 2.214.228 3.313.392-2.278-.339-.021.011.373.071q.991.152 1.979.32 3.632.617 7.22 1.455c4.022.941 7.989 2.1 11.87 3.514a105 105 0 0 1 3.728 1.441c.903.37.872.883-.306-.133.589.508 1.719.756 2.44 1.089q1.578.73 3.13 1.511a103 103 0 0 1 9.958 5.733 99 99 0 0 1 4.818 3.352c.285.211.568.427.853.639 1.526 1.131-1.499-1.211-.024-.016.827.67 1.657 1.334 2.469 2.021a99 99 0 0 1 8.436 8.012 88 88 0 0 1 3.468 3.946c.334.404.658.815.99 1.22 1.182 1.442-1.122-1.523-.011-.023.623.841 1.247 1.68 1.847 2.538a78.6 78.6 0 0 1 5.75 9.594q.644 1.274 1.239 2.573c.144.315.281.633.426.947.773 1.679-.683-1.745-.005-.022.7 1.779 1.37 3.565 1.948 5.388a69 69 0 0 1 2.272 9.427c.114.683.031 2.421.043.1-.009 1.698.355 3.45.415 5.157a59 59 0 0 1-.072 5.663q-.074 1.23-.197 2.456c-.043.431-.224 1.044-.165 1.47-.019-.138.297-1.961.078-.604-.315 1.957-.672 3.899-1.141 5.826a61 61 0 0 1-2.185 7.099q-.26.697-.535 1.387c-.692 1.737-.199-.004.015-.007-.259.004-2.092 4.409-2.358 4.911a69 69 0 0 1-2.733 4.697c-.211.332-2.974 4.52-3.086 4.447-.011-.007 1.203-1.508.299-.388-.308.381-.612.765-.925 1.142a63 63 0 0 1-5.5 5.852 60 60 0 0 1-3.466 3.006q-.957.756.411-.307c-.519.068-1.524 1.125-1.939 1.414q-.981.685-1.992 1.327a53 53 0 0 1-4.983 2.806c-.593.293-1.716.543-2.156 1.003.605-.632 1.327-.533.507-.216-.444.171-.884.35-1.33.515a48 48 0 0 1-5.002 1.552 47 47 0 0 1-3.751.781l-.475.076q-1.247.183.589-.072c-.698-.096-1.706.184-2.416.234-.977.069-1.959.111-2.939.113a28 28 0 0 1-2.391-.095l-.483-.045q-1.25-.144.566.085c-.193-.178-1.182-.205-1.455-.261-.449-.092-5.247-1.095-5.24-1.56l.893.385a30 30 0 0 1-1.789-.843 28 28 0 0 1-2.124-1.203c-.408-.255-.798-.537-1.202-.797-1.41-.905 1.27 1.138.029.038-.691-.613-1.382-1.212-2.013-1.889-.205-.22-.394-.452-.598-.672-1.081-1.165.927 1.47.11.127a62 62 0 0 1-1.092-1.861c-.754-1.343.516 1.717.109.24-.093-.339-.213-.67-.299-1.012-.082-.326-.094-.727-.216-1.035q.236 1.964.134.737a9 9 0 0 1-.014-.648c0-.305.133-.816.05-1.095l-.155 1.118q.075-.454.183-.901.107-.447.244-.887l.14-.422q.424-1.128-.27.594c.407-.406.727-1.308 1.046-1.83.785-1.285-1.224 1.277-.154.225.295-.29.566-.602.87-.885.634-.59 1.278-.565-.243.117.299-.134.588-.416.868-.596.666-.429 1.365-.775 2.065-1.142 1.086-.57-.448.224-.591.233.368-.023.903-.342 1.258-.461.867-.29 1.75-.532 2.641-.733.673-.152 1.691-.123 2.3-.43l-1.061.141q.473-.058.947-.103a38 38 0 0 1 1.431-.111 44 44 0 0 1 5.266.009c.785.047 1.565.131 2.348.201 1.684.15-1.818-.295-.167-.029l1.02.164q3.424.568 6.809 1.333a126 126 0 0 1 11.968 3.329 128 128 0 0 1 8.397 3.12c1.821.739-1.46-.647.339.144.529.233 1.06.463 1.587.7a129 129 0 0 1 11.331 5.773 130 130 0 0 1 13.052 8.553c.462.344.937.682 1.384 1.045-1.234-1.003-.408-.317-.143-.105 1.805 1.448 3.594 2.909 5.332 4.437a127 127 0 0 1 8.721 8.437 166 166 0 0 1 3.882 4.28 123 123 0 0 1 2.977 3.533c.179.221 1.384 1.755.289.322 1.213 1.587 2.38 2.821 4.388 3.374 1.758.484 4.098.265 5.658-.74 3.005-1.937 5.129-6.782 2.634-10.046-5.809-7.6-12.014-14.626-19.291-20.864-7.064-6.056-14.702-11.483-22.834-16.01s-16.77-8.247-25.638-11.047c-8.365-2.641-17.379-4.894-26.191-5.02-8.345-.12-17.546 1.776-23.696 7.814-6.717 6.596-8.006 17.371-2.918 25.314 9.89 15.438 31.187 17.304 47.053 11.476 31.918-11.724 50.28-48.282 43.696-81.072-6.947-34.594-37.41-60.616-70.221-70.187-20.724-6.045-42.56-6.086-63.768-2.987-10.388 1.518-20.638 3.907-30.696 6.9-9.607 2.859-19.601 5.722-27.34 12.383-3.485 2.999-6.405 7.295-7.194 11.882-1.081 6.289.783 12.202 5.075 16.909 3.494 3.833 8.316 6.112 13.048 7.981 4.044 1.597 8.244 2.832 12.488 3.764 18.272 4.013 38.057 2.982 55.467-4.097s31.928-19.024 41.219-35.411c9.041-15.947 12.672-34.61 9.652-52.712-2.624-15.731-11.255-30.421-22.939-41.156-11.801-10.844-26.397-18.177-41.658-22.798-32.859-9.95-68.707-7.515-101.559 1.136-36.263 9.55-70.236 27.129-98.694 51.56-6.808 5.845-13.241 12.107-19.325 18.702-3.045 3.3 1.665 8.041 4.937 4.937Z"/></svg>