<?xml version="1.0" encoding="UTF-8"?><svg xmlns="http://www.w3.org/2000/svg" data-name="ARTWORK" viewBox="0 0 1000 1000"><g fill="#edc851"><path d="M799.834 38.387c-43.333-8.654-91.739 2.327-131.147 22.594-89.51 46.032-129.795 201.727-52.711 280.146 22.484 22.873 51.016 37.711 80.473 47.329 51.222 16.726 107.592 18.163 157.506-2.744s92.363-65.634 107.407-121.583c19.6-72.896-11.501-156.231-68.344-200.147s-134.589-49.74-199.595-22.43c-56.941 23.922-105.359 74.77-111.457 143.583"/><path d="M801.258 33.222a154 154 0 0 0-10.615-2.111c-.84-.136-1.682-.253-2.522-.386-.734-.116-1.444-.225-2.19-.336-.1-.015-1.149-.179-.329-.049-1.779-.282-3.553-.582-5.337-.83-2.069-.288-4.14-.56-6.216-.791-.429-.048-.867-.068-1.292-.139l-.323-.033q1.365.088-.35-.1c-1.173-.158-2.356-.162-3.535-.284a179 179 0 0 0-8.119-.654c-.701-.041-2.323.177-2.928-.148l1.002.116-2.304-.31c-.428-.01-.873.073-1.302.093-.867.041-1.737.043-2.605.071q-2.933.096-5.862.279-5.376.338-10.725.959a334 334 0 0 0-9.817 1.311c-.548.082-1.749-.081-.271.033q2.439-.39-2.04.253l-.644.142c-3.667.75-7.331 1.508-10.97 2.387a234.3 234.3 0 0 0-43.516 15.191c-9.35 4.335-18.241 9.401-26.505 15.575-8.534 6.375-16.548 13.307-23.681 21.23-7.341 8.154-14.03 16.975-19.965 26.201-11.667 18.135-20.542 38.267-26.563 58.957-6.088 20.919-9.33 42.98-9.052 64.779.271 21.243 3.737 42.827 11.406 62.691 8.143 21.089 20.297 40.22 36.726 55.849 21.856 20.793 48.72 35.266 77.051 45.162 29.12 10.171 60.326 15.553 91.197 14.892 31.111-.666 61.927-7.575 89.951-21.189 22.997-11.172 43.968-27.246 60.951-46.341 18.084-20.334 32.04-44.08 40.42-70.002 8.044-24.881 10.462-51.725 7.592-77.687-2.972-26.893-10.738-52.828-23.131-76.9-11.573-22.48-27.383-43.293-46.58-59.805-21.191-18.227-46.181-31.656-72.991-39.541-26.069-7.666-53.909-10.144-80.933-7.409-27.619 2.795-54.382 10.349-79.219 22.805-21.719 10.892-41.829 25.76-58.286 43.659-8.595 9.348-16.487 19.602-22.896 30.578-6.463 11.069-11.967 22.923-15.071 35.382-.357 1.432-.729 2.871-1.013 4.32l-.372 2.769.181-1.668c.086.157-.297 1.122-.351 1.348q-.258 1.088-.499 2.18a160 160 0 0 0-1.882 9.992c-.176 1.151-.121 4.293-.293 2.146l.099-.729a24 24 0 0 0-.27 1.849 33 33 0 0 0-.233 2.129 159 159 0 0 0-.359 9.1q-.012 1.155-.008 2.31c.002.686.059 1.27.153 1.967.459 3.416.071-1.494-.123.649-.381 4.213 3.981 8.247 8.065 8.065 4.695-.21 7.656-3.551 8.065-8.065q.051-.582.107-1.165l-1.101 4.07c1.767-3.9 2.345-8.342 3.494-12.468 1.037-3.724 1.892-7.492 2.949-11.215.51-1.796 1.055-3.581 1.625-5.359.047-.145.383-1.331.41-1.332-.553.023-1.725 4.516.532-1.296.336-.866.665-1.735 1.009-2.598q.258-.646.52-1.291c.169-.413.848-2.031.09-.239s-.081.196.096-.213q.27-.624.547-1.247c1.099-2.477 2.256-4.917 3.255-7.439l-1.147 2.717c.609-1.405 1.194-2.82 1.787-4.231l-1.149 2.724c5.745-13.556 13.353-26.314 22.332-37.975l-1.826 2.364c9.57-12.35 20.748-23.366 33.094-32.931l-2.366 1.828c13.67-10.53 28.676-19.238 44.557-25.979l-2.795 1.18a214.5 214.5 0 0 1 54.336-14.845l-3.114.418c18.397-2.452 37.059-2.517 55.46-.067l-3.117-.419c16.998 2.314 33.656 6.766 49.477 13.412l-2.805-1.184c14.552 6.167 28.27 14.142 40.789 23.794l-2.383-1.841c11.96 9.284 22.609 20.141 31.885 32.097l-1.846-2.389c10.594 13.736 19.329 28.829 26.115 44.788l-1.194-2.829c7.035 16.672 11.909 34.209 14.366 52.14l-.424-3.158c2.203 16.433 2.349 33.101.172 49.544l.426-3.167c-2.06 15.183-6.143 29.998-12.093 44.116l1.204-2.854c-6.125 14.402-14.114 27.934-23.659 40.331l1.873-2.424a193 193 0 0 1-34.167 34.191l2.429-1.877c-12.709 9.814-26.604 18.029-41.392 24.295l2.874-1.213c-16.179 6.796-33.213 11.318-50.592 13.699l3.206-.431c-20.306 2.716-40.893 2.505-61.189-.193l3.215.432a261.5 261.5 0 0 1-65.737-17.89l2.898 1.223c-15.838-6.684-30.926-15.081-44.558-25.583l2.46 1.901c-9.726-7.656-18.7-16.207-26.308-25.99l1.915 2.479c-7.276-9.423-13.247-19.771-17.902-30.724l1.243 2.946c-5.523-13.108-9.123-26.939-11.045-41.022l.444 3.306c-2.341-17.484-2.108-35.251.222-52.723l-.447 3.33c2.608-19.237 7.779-38.09 15.295-55.987l-1.265 2.998c6.801-16.099 15.495-31.394 26.157-45.254l-1.965 2.544c8.958-11.586 19.291-22.288 30.881-31.262l-2.482 1.917c12.866-9.9 27.46-17.085 42.367-23.377l-2.723 1.149c13.181-5.522 26.834-9.784 40.71-13.146q5.09-1.234 10.234-2.21a196 196 0 0 1 8.659-1.44c1.899-.272.067.196-.057.005.312.48 3.878-.584 4.202-.649.836-.169 1.689-.28 2.532-.412q1.106-.172 2.214-.329c.252-.036 1.608-.216.555-.079-1.136.147.687-.084.906-.11 1.725-.211 3.452-.431 5.187-.497.899-.034 1.515-.157 2.535-.246-.301.026-1.341.084.052.037.968-.032 1.936-.097 2.905-.133 7.608-.283 15.481.262 22.426 1.377 2.853.458 5.763-.737 6.589-3.741.746-2.714-.913-5.924-3.741-6.589Z"/></g><g fill="#8170f9"><path d="M500.698 207.462c-83.744-16.725-177.292 4.497-253.45 43.663C74.266 340.085-3.588 640.974 145.381 792.523c43.451 44.204 98.591 72.878 155.519 91.467 98.99 32.323 207.928 35.101 304.389-5.303s178.497-126.841 207.57-234.967c37.878-140.876-22.226-301.926-132.079-386.797-109.853-84.87-260.1-96.126-385.73-43.347-110.042 46.23-203.612 144.498-215.398 277.482"/><path d="M502.122 202.297c-27.406-5.942-55.269-7.931-83.234-8.321-14.443-.201-29.157 1.769-43.451 3.771-14.424 2.02-27.628 4.643-41.907 8.316a457.5 457.5 0 0 0-81.163 29.304c-18.013 8.5-35.128 18.408-51.021 30.446-31.879 24.147-58.395 54.089-80.015 87.683-22.035 34.237-38.798 72.067-50.176 111.134-11.501 39.488-17.596 80.929-17.119 122.081.465 40.093 7.068 80.595 21.497 118.093 14.968 38.899 37.698 74.133 67.917 102.948 40.732 38.84 91.01 65.946 143.865 84.423 55.396 19.365 114.499 29.663 173.239 28.422 58.058-1.227 115.847-13.969 168.176-39.373 43.678-21.205 83.286-51.522 115.548-87.777 33.639-37.803 59.687-82.144 75.285-130.339 15.289-47.239 19.755-97.886 14.324-147.175-5.5-49.913-20.174-98.386-43.147-143.046-21.965-42.701-51.811-82.006-88.26-113.378-39.472-33.974-86.271-58.944-136.201-73.632-49.526-14.57-102.166-19.134-153.499-13.944-51.337 5.19-101.434 19.425-147.589 42.566-41.216 20.665-79.207 48.693-110.444 82.658-32.059 34.859-58.32 76.675-71.422 122.43-3.222 11.253-5.989 22.682-8.092 34.203-1.08 5.919-1.872 12.051-2.504 18.904-.563 6.113-.592 12.277-1.143 18.367-.393 4.344 3.988 8.065 8.065 8.065 4.689 0 7.671-3.709 8.065-8.065 1.041-11.507 4.398-23.407 7.053-34.718 2.941-12.528 5.876-22.143 10.198-33.556a310 310 0 0 1 3.137-7.948l.611-1.477c-.725 1.746-.03.075.102-.236.941-2.201 1.844-4.415 2.753-6.629l.806-1.955c-.18.436-.804 1.867.081-.192a306 306 0 0 1 5.203-11.492 315 315 0 0 1 16.512-30.182 350 350 0 0 1 19.046-27.703c1.095-1.438-1.047 1.336.066-.086q.635-.813 1.274-1.623a340 340 0 0 1 8.175-9.956 344 344 0 0 1 10.986-12.267 358 358 0 0 1 24.363-23.569 367 367 0 0 1 17.391-14.384c-1.68 1.306-.259.201.07-.049a442 442 0 0 1 6.982-5.208c18.023-13.122 37.199-24.652 57.204-34.488a393 393 0 0 1 14.715-6.86c1.235-.545 2.475-1.08 3.714-1.616 2.062-.893.414-.181 0-.007q1.065-.447 2.132-.888a410 410 0 0 1 45.177-15.644 411 411 0 0 1 36.369-8.502 429 429 0 0 1 18.689-3.039c1.947-.274-1.654.212.296-.041q.853-.112 1.706-.219 2.275-.288 4.553-.549 5.124-.588 10.26-1.048c24.674-2.207 49.556-2.17 74.217.203a400 400 0 0 1 13.607 1.548c-2.157-.284 2.566.371 3.098.45a386 386 0 0 1 18.545 3.208 377 377 0 0 1 35.966 8.983 364 364 0 0 1 34.968 12.554c-1.708-.715.084.037.362.157q1.053.453 2.105.911a356 356 0 0 1 13.036 6.005 357 357 0 0 1 16.874 8.75 351 351 0 0 1 39.57 25.489q1.648 1.229 3.283 2.472c1.927 1.463.72.553.307.231q1.236.962 2.463 1.937a326 326 0 0 1 12.845 10.753 344 344 0 0 1 24.883 24.311 357 357 0 0 1 11.245 12.744 363 363 0 0 1 5.413 6.59c.891 1.111 1.771 2.23 2.653 3.347.236.299 1.371 1.764.121.144q.816 1.06 1.623 2.125c14.225 18.763 26.672 38.862 37.259 59.89a397 397 0 0 1 7.476 15.698 379 379 0 0 1 3.486 7.98c-.819-1.941.623 1.527.898 2.2a399 399 0 0 1 13.342 38.087 394 394 0 0 1 8.594 35.008 385 385 0 0 1 3.62 21.549c.331 2.361.073.574.012.09.091.722.186 1.444.275 2.167q.571 4.606 1.03 9.225c2.351 23.705 2.439 47.646.043 71.351a414 414 0 0 1-.989 8.674c-.054.443-.314 2.346-.003.079q-.149 1.082-.303 2.162a329 329 0 0 1-4.045 22.583 328 328 0 0 1-9.555 34.847 336 336 0 0 1-8.645 23.048c-.739 1.774.663-1.536-.099.227a379 379 0 0 1-3.848 8.644 349 349 0 0 1-17.05 32.322 357 357 0 0 1-22.142 32.839 382 382 0 0 1-1.331 1.745c1.24-1.618.089-.116-.142.178a411 411 0 0 1-6.177 7.687 365 365 0 0 1-11.462 13.219 370.6 370.6 0 0 1-45.323 42.126q-.85.668-1.705 1.329c.383-.296 1.707-1.299-.14.097-1.292.976-2.583 1.952-3.884 2.915-18.778 13.903-38.883 26.021-59.999 36.027a341 341 0 0 1-11.098 5.02c-.31.134-2.358 1.006-.994.43 1.503-.636-1.684.696-1.971.813a372 372 0 0 1-20.277 7.63 381 381 0 0 1-40.802 11.503 396 396 0 0 1-21.065 4.102c-3.42.571-6.847 1.09-10.28 1.579-2.142.305 1.486-.19-.659.093q-.966.128-1.934.249-3.224.406-6.455.761a426 426 0 0 1-42.189 2.508 452 452 0 0 1-42.346-1.569c-15.05-1.261-26.211-2.735-40.88-5.348-27.638-4.923-54.861-12.206-81.308-21.616a487 487 0 0 1-23.349-8.985c-.233-.097-2.552-1.075-1.371-.572s-1.133-.489-1.364-.589a446 446 0 0 1-9.508-4.233c-12.081-5.551-23.907-11.663-35.379-18.384s-22.681-14.114-33.362-22.126c-.269-.202-3.841-2.948-2.45-1.86a319 319 0 0 1-11.982-9.838 308 308 0 0 1-15.136-13.956c-7.31-7.211-14.216-14.819-20.627-22.842-.642-.803-1.269-1.618-1.911-2.422-1.062-1.33 1.311 1.758.303.389-.347-.472-.709-.933-1.062-1.401a259 259 0 0 1-12.395-18.023 268 268 0 0 1-13.733-24.72c-2.102-4.3-4.044-8.665-5.963-13.048-.686-1.568.85 2.137.231.542-.157-.405-.333-.804-.498-1.206q-.66-1.61-1.301-3.228a294 294 0 0 1-2.785-7.323c-6.507-17.835-11.263-36.293-14.416-55.009a335 335 0 0 1-1.1-6.98c-.17-1.16-.397-2.335-.496-3.503.264 3.116-.039-.371-.179-1.523a351 351 0 0 1-1.468-14.574 368 368 0 0 1-1.156-28.997 394 394 0 0 1 1.071-29.21q.547-7.435 1.367-14.845c.266-2.399.56-4.795.861-7.19.056-.447.095-.904.175-1.347-.548 3.031-.182 1.327-.083.637.214-1.495.423-2.991.647-4.485a424 424 0 0 1 12.805-57.58 428 428 0 0 1 14.798-41.844c.23-.556.466-1.11.694-1.667-1.113 2.722-.465 1.094-.212.503.475-1.105.947-2.211 1.428-3.313a408 408 0 0 1 3.126-6.989c8.111-17.702 17.461-34.843 28.064-51.177 5.18-7.98 10.738-15.66 16.416-23.289 1.026-1.378-1.433 1.824-.371.475.359-.455.712-.915 1.07-1.371a353 353 0 0 1 6.821-8.421 346 346 0 0 1 28.778-30.429 297 297 0 0 1 10.051-8.985 289 289 0 0 1 9.066-7.425c.13-.102 2.313-1.748.734-.576-1.51 1.12 1.42-1.069 1.746-1.313a272 272 0 0 1 8.434-6.074 262 262 0 0 1 11.423-7.468c8.892-5.487 18.145-10.33 27.538-14.898 6.186-3.008 12.445-5.87 18.733-8.656 6.1-2.703 10.834-4.666 17.664-7.314a457 457 0 0 1 39.195-13.204c26.355-7.558 53.156-12.703 80.361-15.647 26.021-2.816 52.073-2.443 77.871 2.155 6.691 1.193 9.657-8.854 2.848-10.33Z"/></g><path fill="#70e8a0" d="M303.316 209.249c-21.049 12.394-39.218 29.883-52.556 50.346-13.752 21.098-23.466 44.833-30.506 68.944-7.294 24.98-11.773 50.622-15.193 76.387-4.016 30.255-6.579 60.722-7.139 91.244-1.118 60.961 6.51 123.676 27.212 181.233 18.347 51.011 46.779 97.888 85.358 136.159 36.484 36.193 81.452 64.285 131.499 77.04 27.549 7.021 57.177 9.781 85.172 3.802 25.936-5.539 47.638-22.454 63.107-43.502 36.63-49.845 31.843-116.144 25.465-174.281-6.836-62.304-19.275-123.974-37.322-184.002a1027.7 1027.7 0 0 0-69.696-172.952c-14.391-28.058-29.866-55.778-48.927-80.973-16.873-22.302-38.86-43.754-66.576-51.359-6.156-1.689-12.868-2.785-19.27-2.466-6.839.341-12.664 2.908-18.929 5.27-2.918 1.1-4.916 3.901-4.035 7.107.769 2.8 4.172 5.142 7.107 4.035 5.592-2.108 12.036-1.815 17.907-1.74 5.94.075 11.709 1.31 17.32 3.224 12.007 4.094 22.867 11.595 32.262 19.994 21.606 19.313 37.392 44.84 51.703 69.766 30.067 52.369 54.691 108.076 74.403 165.121s34.415 115.805 43.795 175.418c4.677 29.724 8.277 59.768 9.791 89.83 1.511 30.007.264 60.756-10.173 89.24-8.021 21.891-22.377 42.644-41.843 55.817-10.438 7.064-21.946 11.613-34.394 13.619-7.566 1.219-15.524.709-23.139.245a198 198 0 0 1-18.746-2.017c-12.01-1.887-23.93-4.479-35.575-7.978a251 251 0 0 1-17.232-5.869c-6-2.287-9.695-3.863-15.479-6.569-11.028-5.16-21.738-11.063-32.048-17.536-10.533-6.613-20.311-13.667-29.151-20.924-38.533-31.634-68.224-70.388-89.455-115.478-24.459-51.944-36.825-110.13-40.499-167.307-1.902-29.593-1.896-59.349-.27-88.954 1.485-27.032 3.989-54.119 8.545-80.767 7.945-46.472 22.5-95.188 54.987-130.731 7.779-8.511 16.485-15.937 26.166-22.202 3.881-2.511.39-8.612-3.645-6.236Z"/><path d="M321.191 213.1c-3.628 48.473-4.082 97.222-.146 145.686 3.957 48.715 11.341 97.228 22.625 144.79a1010 1010 0 0 0 43.783 139.006c18.071 45.583 39.617 89.786 64.277 132.167 12.545 21.559 25.936 42.26 41.058 62.096 14.556 19.093 29.318 38.074 44.658 56.546 3.93 4.732 8.008 9.167 12.458 13.411 3.826 3.649 10.67-1.116 7.562-5.835-6.607-10.033-14.249-19.302-21.441-28.919s-14.053-19.498-20.655-29.571c-13.184-20.117-25.549-40.854-38.064-61.398-25.115-41.23-46.957-84.274-66.059-128.597-18.807-43.638-34.57-89.373-46.972-135.525-12.485-46.46-22.058-93.853-27.952-141.607-5.904-47.826-8.983-96.269-7.97-144.462.125-5.931.308-11.86.541-17.787.196-4.993-7.337-4.895-7.703 0Z"/><path d="M105.883 702.446c20.129-13.42 40.712-26.069 61.476-38.48 20.771-12.415 41.358-25.109 62.312-37.221a2476 2476 0 0 1 127.3-68.695c43.275-21.747 86.903-42.781 131.121-62.551 43.654-19.518 87.709-37.706 132.46-54.791 22.611-8.632 45.35-16.933 68.205-24.896s45.942-15.267 68.841-23.119c5.98-2.05 11.689-4.647 17.367-7.408 3.302-1.606 4.442-6.16 3.053-9.319-1.614-3.672-5.006-4.876-8.804-4.321-12.156 1.777-23.762 5.326-35.435 9.098a2467 2467 0 0 0-102.572 35.664 2387 2387 0 0 0-135.589 55.328 2212 2212 0 0 0-130.63 63.217c-42.826 22.494-84.781 46.748-126.05 71.975a2470 2470 0 0 0-61.409 38.789c-20.318 13.256-39.896 27.526-59.878 41.269a2516 2516 0 0 0-14.806 10.263c-3.139 2.192-.214 7.364 3.038 5.197Zm27.994-380.558c-1.244 2.599-1.385 5.245.137 7.759 1.586 2.619 4.118 4.47 6.834 5.799 6.216 3.042 13.021 3.603 19.811 4.258 14.794 1.428 29.59 2.222 44.453 2.096 29.874-.255 59.7-3.035 89.078-8.478 28.993-5.372 57.536-13.287 85.042-23.928 27.473-10.628 53.969-23.814 78.663-39.9 24.647-16.055 47.59-34.874 67.8-56.263 2.774-2.936 5.267-5.933 7.551-9.27 1.863-2.723.734-6.656-1.705-8.54-2.7-2.086-6.188-1.69-8.692.518-5.403 4.763-10.063 10.306-15.136 15.425a356 356 0 0 1-15.157 14.419 365 365 0 0 1-19.192 16.059c.036-.028-1.505 1.168-.715.557.661-.511-.333.255-.484.371l-1.184.904q-1.186.902-2.379 1.793a378 378 0 0 1-8.435 6.127c-23.178 16.356-48.164 30.102-74.218 41.301q-1.102.474-2.206.941c1.015-.43-.865.36-1.231.512q-2.635 1.095-5.284 2.155a452 452 0 0 1-9.814 3.797 462 462 0 0 1-20.49 7.106 482 482 0 0 1-41.404 11.258c-28.457 6.404-55.381 10.1-84.335 11.788-14.321.835-28.683 1.029-43.027 1.009a531 531 0 0 1-21.711-.474c-5.732-.243-11.721-.151-16.647-3.569-1.789-1.241-3.336-3.106-3.832-5.257-.211-.917-1.664-1.163-2.09-.273Zm254.592 574.265c13.284-20.07 29.058-38.298 47.167-54.65a300 300 0 0 1 13.997-11.88 277 277 0 0 1 13.998-10.426c9.948-6.951 20.285-13.357 30.982-19.091a294 294 0 0 1 22.529-10.872l1.022-.438c1.028-.441-.28.112.349-.148a347 347 0 0 1 8.513-3.404 286 286 0 0 1 37.736-11.478 291 291 0 0 1 25.134-4.637c.153-.021 1.449-.198.721-.101s.568-.073.721-.093q1.407-.181 2.817-.349 5.17-.615 10.356-1.049a299 299 0 0 1 41.307-.58 297 297 0 0 1 20.75 1.872c.271.034 2.704.357 1.364.173q1.25.17 2.499.352a296 296 0 0 1 15.54 2.681 291 291 0 0 1 40.122 11.05c3.171 1.124 6.327 2.287 9.498 3.412 3.191 1.133 6.795-1.028 8.023-3.938 1.177-2.789.336-7.171-2.783-8.492-13.309-5.638-27.316-9.726-41.4-12.927s-28.484-5.38-42.908-6.586c-28.345-2.37-57.025-.639-84.91 4.959-25.911 5.201-51.05 14.024-74.635 25.939-22.455 11.344-43.343 25.603-62.243 42.2a298.8 298.8 0 0 0-49.536 55.985 292 292 0 0 0-5.048 7.656c-1.399 2.193-.455 5.311 1.727 6.587 2.355 1.377 5.148.447 6.587-1.727Z"/><path fill="#edc851" d="M81.25 492.732c20.814.413 41.681.163 62.458-1.177 20.952-1.351 41.763-4.126 62.432-7.796 41.006-7.282 81.117-18.575 120.108-33.183 38.466-14.411 75.767-31.884 111.602-51.951 34.662-19.41 67.968-41.205 99.871-64.867a1090 1090 0 0 0 47.758-37.54c15.304-12.732 30.579-25.806 44.643-39.911 3.446-3.456 6.798-6.955 10.031-10.612 5.126-5.797-2.482-13.015-8.341-8.341-15.484 12.352-29.991 25.981-44.989 38.922-14.659 12.649-29.636 24.94-44.97 36.763-31.21 24.065-63.838 46.33-97.802 66.329-34.48 20.303-70.364 38.341-107.492 53.288a759.6 759.6 0 0 1-118.084 36.664c-20.027 4.47-40.202 7.727-60.502 10.651s-40.931 5.11-61.459 5.607c-5.087.123-10.175.177-15.263.175-4.497-.002-4.493 6.892 0 6.981ZM236.715 862.76c25.704-34.764 54.263-67.327 85.613-97.108 31.255-29.692 65.408-55.956 101.733-79.139s74.663-42.842 114.677-58.506c40.263-15.761 82.08-27.585 124.674-35.04 48.395-8.471 97.917-9.864 147.334-9.587 6.886.039 13.772.098 20.657.157 9.915.085 9.928-15.368 0-15.407-52.341-.205-104.606.174-156.452 8.174-43.037 6.641-85.368 17.766-126.186 32.924-41.27 15.326-81.07 34.62-118.599 57.637-37.438 22.962-72.546 49.907-104.65 79.867-31.894 29.764-61.223 63.029-85.309 99.464a630 630 0 0 0-8.689 13.526c-2.098 3.357 2.948 6.078 5.197 3.038"/><g fill="#70e8a0"><path d="M182.623 732.996c-28.904-5.773-61.192 1.552-87.478 15.07C35.44 778.77 8.569 882.622 59.986 934.929c14.997 15.257 34.029 25.154 53.677 31.57 34.166 11.156 71.766 12.115 105.06-1.83s61.608-43.779 71.642-81.099c13.074-48.623-7.671-104.21-45.587-133.503s-89.773-33.178-133.134-14.961c-37.981 15.956-70.276 49.873-74.344 95.773"/><path d="M184.047 727.831a103 103 0 0 0-4.961-1.135q-1.248-.252-2.503-.472c-.418-.074-.838-.137-1.256-.213a5.5 5.5 0 0 0-1.194-.208q-1.537-.21-.062-.002c-.384.183-2.021-.423-2.482-.512q-1.243-.241-2.492-.453c-2.123-.36-4.344-.892-6.478-.933l1.889.254a157 157 0 0 0-10.556-1.349l4.268 1.155c-1.788-.832-3.133-1.331-5.137-1.306-.579.007-1.158.03-1.738.031q-1.738.001-3.476.051-3.259.092-6.508.341c-5.138.393-10.232 1.012-15.279 2.045-9.519 1.947-19.013 4.702-27.935 8.56l2.804-1.183c-7.237 3.009-14.397 6.169-20.995 10.432-5.728 3.701-11.163 7.968-16.159 12.609-5.14 4.775-9.55 10.289-13.765 15.879a131 131 0 0 0-10.079 15.587c-6.576 11.91-11.679 24.817-14.977 38.017s-5.046 27.079-4.66 40.723c.376 13.309 2.531 26.841 7.128 39.367 4.926 13.424 12.054 25.685 21.775 36.221 6.232 6.754 13.505 12.616 21.082 17.787 7.122 4.86 14.759 8.942 22.671 12.357 8.866 3.827 17.902 7.121 27.246 9.583 9.792 2.58 19.814 4.266 29.889 5.253 19.034 1.866 38.671.33 57.089-4.895 16.22-4.602 31.694-12.135 45.078-22.407 6.784-5.206 13.195-10.763 18.959-17.095s11.044-13.237 15.573-20.517c8.654-13.911 14.86-29.725 17.461-45.921 1.366-8.503 2.112-17.068 1.86-25.683s-1.335-17.189-3.066-25.591c-3.25-15.78-9.323-31.2-17.533-45.055-7.986-13.478-18.236-25.981-30.446-35.845-6.966-5.628-14.322-10.699-22.268-14.845a142.3 142.3 0 0 0-24.761-10.1c-16.149-4.857-33.435-6.786-50.261-5.75-8.929.55-17.88 1.827-26.593 3.862-8.767 2.048-17.183 5.024-25.464 8.529-14.037 5.941-26.949 14.219-38.412 24.258-5.43 4.756-10.453 9.98-14.95 15.627-5.105 6.41-9.738 13.053-13.424 20.385a132 132 0 0 0-5.279 12.007c-.656 1.711-1.078 3.479-1.489 5.263-.556 2.417-1.462 5.4-1.321 7.833l.368-2.736c-.486 1.671-.782 3.405-1.086 5.118-.426 2.405-1.013 5.043-1.052 7.458l.346-2.576c-.489 2.588-.53 5.054-.472 7.66q.03 1.34.092 2.678c.021.45.041.9.072 1.35.133 1.932.52 3.085 1.276 4.845l-1.101-4.07-.072.777c-.176 1.948 1.026 4.367 2.362 5.703 1.399 1.399 3.694 2.452 5.703 2.362 2.086-.093 4.249-.779 5.703-2.362 1.52-1.656 2.16-3.465 2.362-5.703l.072-.777-1.101 4.07c1.259-1.829 1.647-4.545 2.314-6.67.495-1.574 1.048-3.124 1.478-4.712.882-3.258 2.011-6.441 2.952-9.68l-1.037 2.458c.649-.892.982-2.11 1.408-3.126l-1.054 2.498c1.562-3.689 3.488-7.209 4.963-10.932l-1.147 2.717c.504-1.119.963-2.258 1.439-3.389l-1.149 2.722c3.89-9.14 9.06-17.752 15.119-25.618l-1.826 2.364c6.385-8.237 13.841-15.584 22.077-21.963l-2.366 1.828c9.119-7.023 19.129-12.83 29.722-17.325l-2.795 1.18a143 143 0 0 1 36.244-9.898l-3.114.418c12.271-1.634 24.719-1.676 36.993-.04l-3.117-.419c11.337 1.545 22.45 4.515 33.001 8.951l-2.805-1.184a123.4 123.4 0 0 1 27.201 15.88l-2.383-1.841c7.975 6.196 15.076 13.44 21.261 21.417l-1.846-2.389c7.063 9.165 12.886 19.234 17.409 29.881l-1.194-2.829c4.688 11.122 7.936 22.821 9.57 34.782l-.424-3.158c1.466 10.961 1.559 22.079.103 33.047l.426-3.167a116 116 0 0 1-8.076 29.423l1.204-2.854c-4.089 9.605-9.421 18.628-15.79 26.896l1.873-2.424a128.7 128.7 0 0 1-22.796 22.8l2.429-1.877c-8.479 6.544-17.748 12.021-27.614 16.198l2.874-1.213c-10.793 4.53-22.156 7.543-33.748 9.128l3.206-.431c-13.545 1.808-27.277 1.663-40.814-.14l3.215.432a174.4 174.4 0 0 1-43.844-11.945l2.898 1.223c-10.564-4.462-20.623-10.066-29.717-17.073l2.46 1.901c-6.474-5.131-12.456-10.822-17.526-17.358l1.915 2.479c-4.846-6.291-8.82-13.198-11.916-20.508l1.243 2.946c-3.673-8.748-6.064-17.977-7.335-27.372l.444 3.306c-1.547-11.662-1.378-23.515.178-35.168l-.447 3.33a147.8 147.8 0 0 1 10.21-37.343l-1.265 2.998c4.539-10.737 10.34-20.938 17.453-30.182l-1.965 2.544c6.083-7.864 13.115-15.177 20.979-21.277l-2.479 1.915c8.97-6.915 19.265-11.94 29.653-16.345l-2.699 1.139a162 162 0 0 1 10.487-4.003 154 154 0 0 1 5.24-1.687c2.542-.768 5.123-1.318 7.509-2.517l-2.447 1.032c5.96-1.808 12.046-3.301 18.207-4.242l-2.304.31c1.958-.144 3.879-.371 5.571-1.456l-2.02.852a123 123 0 0 1 8.308-1.556l-1.889.254c.901-.001 1.912-.263 2.752-.249-2.072-.034-.68.032-.163-.015a117 117 0 0 1 2.366-.189c1.629-.113 3.289-.259 4.923-.232 1.554.026 3.119.153 4.669.289q1.266.111 2.528.254c.42.048.839.101 1.258.151 1.167.14-1.032-.147.247.036 1.488.212 2.775.252 4.127-.54 1.111-.65 2.171-1.924 2.462-3.201.634-2.784-.836-5.851-3.741-6.589Z"/></g><path d="M84.936 770.698c-3.891 3.363-4.627 8.672-3.686 13.493s3.997 9.055 8.067 11.755c9.008 5.977 21.344 2.932 28.563-4.384 1.932-1.957 3.485-4.402 4.649-6.888.668-1.427 1.265-2.831 1.519-4.391.266-1.642-.016-3.246-.309-4.873-.409-2.276-3.646-2.949-5.13-1.354-1.418 1.524-2.814 2.918-3.89 4.727a32 32 0 0 1-1.443 2.249c-.14.196-.288.435-.452.617.022-.024.575-.694.201-.273-.376.424-.727.865-1.114 1.279-.6.643-1.201 1.293-1.831 1.907q-.472.46-.972.893c-.19.165-.388.32-.578.484-.538.462 1.023-.704.005-.019-.735.495-1.471.976-2.256 1.388-.183.096-1.446.672-.756.383.64-.268.033-.019-.085.023-.301.105-.599.214-.903.31q-.638.202-1.288.359c-.29.07-1.286.114-1.499.296.028-.024 1.027-.097.435-.064-.253.014-.506.048-.76.064q-.76.048-1.521.033c-.443-.009-.882-.044-1.324-.075-.689-.049-.08-.242.253.041-.084-.071-.444-.079-.557-.101-.993-.195-1.928-.503-2.898-.775-.568-.159.36.111.343.163a14 14 0 0 1-1.83-.964c-.213-.133-.415-.287-.63-.416-.486-.291.286.213.315.259-.2-.319-.72-.62-.995-.895-.188-.187-.661-.909-.895-.99.031.011.532.754.247.313-.121-.188-.257-.367-.379-.555a14 14 0 0 1-.598-1.01c-.106-.197-.201-.398-.303-.597-.316-.619.121.022.073.203.061-.231-.413-1.19-.48-1.431-.117-.418-.144-.898-.298-1.299-.19-.495.042.401.04.397-.086-.201-.059-.6-.072-.828a31 31 0 0 1-.04-1.483c-.003-.435.033-.865.055-1.299-.05.967.022-.08.119-.472.051-.206.135-.419.177-.627l.146-1.088q-.102.741-.01.285c.216-.362.261-.968.407-1.377.516-1.438-.344-3.205-1.604-3.942-1.403-.82-3.048-.475-4.23.546Zm45.282 59.156c-1.398 3.653-1.496 7.749-.592 11.535.892 3.738 3.009 7.717 6.052 10.142 6.772 5.396 16.673 6.284 23.593.67 2.607-2.115-.203-6.962-3.338-5.734-.728.286-1.474.556-2.224.78q-.49.146-.989.259c-.176.04-1.61.26-.64.149-1.457.168-2.965.257-4.43.151-.165-.012-1.269-.185-.266-.005-.394-.071-.787-.136-1.177-.224a20 20 0 0 1-2.131-.635c-.779-.27.546.283-.417-.188a15 15 0 0 1-2.477-1.515q.53.408.185.123c-.536-.499-1.114-.936-1.625-1.464-.233-.241-.447-.499-.675-.744q-.432-.531.01.035a16.5 16.5 0 0 1-1.422-2.282c-.076-.147-.616-1.427-.301-.601a20 20 0 0 1-.343-.953c-.246-.751-.406-1.511-.574-2.281-.173-.792.016.541-.05-.348-.025-.337-.054-.671-.066-1.008-.027-.78-.001-1.567.093-2.342-.09.738.076-.333.087-.39.091-.441.206-.873.332-1.305.519-1.778-.629-3.734-2.396-4.22-1.933-.531-3.555.659-4.22 2.396Zm45.091.154c2.55 0 4.993-2.242 4.875-4.875s-2.142-4.875-4.875-4.875c-2.55 0-4.993 2.242-4.875 4.875s2.142 4.875 4.875 4.875m16.828 26.133 1.033-1.61.291-.69q.18-.576.052-1.152-.001-.391-.197-.729a2.2 2.2 0 0 0-.597-.93l-.585-.452-.69-.291a2.2 2.2 0 0 0-1.152-.052 2.15 2.15 0 0 0-1.074.343l-1.61 1.033q-.745.441-1.188 1.188a3.3 3.3 0 0 0-.452 1.671l.118.88q.236.841.851 1.461.45.484 1.065.684.592.31 1.275.285a3.3 3.3 0 0 0 1.671-.452q.746-.441 1.188-1.188Zm25.082-27.409c2.613 0 5.116-2.298 4.995-4.995s-2.195-4.995-4.995-4.995c-2.613 0-5.116 2.298-4.995 4.995s2.195 4.995 4.995 4.995M64.494 834.51c-2.628 3.293-5.234 6.989-6.13 11.188-.459 2.15-.569 4.5.178 6.602.87 2.446 2.49 4.388 4.622 5.845 3.66 2.5 8.622 3.631 12.942 4.306 5.025.785 9.981.858 14.926-.488 3.853-1.049 3.089-6.987-.944-6.975-3.912.012-7.855-.023-11.748-.449-1.214-.133-3.356-.527-5.048-.951a44 44 0 0 1-2.886-.827c-.452-.146-.898-.308-1.347-.465-.75-.263.251.177-.517-.222-.353-.183-.704-.359-1.045-.567-.09-.055-.934-.719-.465-.304a6.3 6.3 0 0 1-.822-.843c.421.548-.221-.462-.289-.594q-.185-.38.049.119a16 16 0 0 1-.215-.669c-.05-.182-.201-1.175-.121-.36a9.3 9.3 0 0 1 .031-2.17c-.096.685.1-.375.131-.507q.155-.664.364-1.314c.274-.862.43-1.26.762-1.964.742-1.573 1.626-3.071 2.577-4.527.861-1.317.388-3.211-.822-4.115-1.155-.863-3.184-1.009-4.188.249Zm33.979 79.693c2.015 0 3.945-1.772 3.852-3.852s-1.692-3.852-3.852-3.852c-2.015 0-3.945 1.772-3.852 3.852s1.692 3.852 3.852 3.852m47.499-19.318c2.141 0 4.191-1.882 4.092-4.092s-1.798-4.092-4.092-4.092c-2.141 0-4.191 1.882-4.092 4.092s1.798 4.092 4.092 4.092m-5.588 40.574h1.452c.483 0 .889-.006 1.405-.148.489-.135.827-.313 1.216-.552l.544-.335c1.091-.671 1.788-1.823 1.788-3.118s-.698-2.447-1.788-3.118l-.524-.322c-.396-.244-.732-.425-1.236-.564-.52-.143-.921-.148-1.405-.148h-1.452a3.1 3.1 0 0 0-1.6.358q-.772.251-1.336.859a3.1 3.1 0 0 0-.859 1.336 3.13 3.13 0 0 0-.358 1.6l.148 1.104a4.14 4.14 0 0 0 1.068 1.832l.84.649a4.1 4.1 0 0 0 2.096.567Zm40.565-15.402c2.05 2.485 5.041 4.255 8.137 5.089 1.505.405 3.202.7 4.764.543 1.962-.197 3.653-.654 5.455-1.437.704-.306 1.412-1.326 1.577-2.05.175-.767.134-1.505-.173-2.234-.655-1.552-2.385-2.448-4.047-1.986q-.435.123-.877.215c-.153.031-.349.031-.495.09.097-.04.847-.088.35-.047-.598.049-1.19.083-1.79.059s-1.202-.053-1.801-.109c-.732-.069.724.128.296.037-.163-.035-.33-.057-.494-.091q-.443-.09-.878-.212c-.435-.122-.578-.17-.862-.27q-.188-.068-.377-.139c-.598-.219.654.303.243.105a16 16 0 0 1-1.589-.851c-.243-.153-.487-.391-.745-.507.096.043.666.54.281.216q-.193-.16-.381-.324a12 12 0 0 1-1.317-1.374c-1.247-1.512-4.003-1.388-5.277 0-1.475 1.607-1.331 3.664 0 5.277m4.139-148.963c2.424 0 4.746-2.131 4.634-4.634s-2.036-4.634-4.634-4.634c-2.424 0-4.746 2.131-4.634 4.634s2.036 4.634 4.634 4.634"/><path d="M85.469 736.38c.873-.472 1.767-.912 2.631-1.399.63-.356.254-.178.086-.095.216-.107.459-.187.684-.278q.858-.347 1.721-.685a187 187 0 0 1 5.975-2.226c4.054-1.432 8.214-2.528 12.28-3.892 8.522-2.858 17.345-4.455 26.105-6.341a199 199 0 0 1 15.135-2.647l-2.287.307c15.257-2.035 30.926-2.288 46.199-.251l-2.604-.35c10.536 1.436 20.89 4.086 30.705 8.199l-2.457-1.037c9.615 4.07 18.522 9.55 26.774 15.925l-2.172-1.678c8.59 6.679 16.251 14.467 22.919 23.061l-1.704-2.206c8.158 10.573 14.69 22.255 19.89 34.541l-1.115-2.641c5.692 13.535 9.847 27.851 12.787 42.225.899 4.393 1.66 8.812 2.265 13.255l-.389-2.896c.967 7.204 1.354 14.375 1.396 21.637.039 6.707.152 13.47-.729 20.138l.319-2.373c-.19 1.386-.434 2.766-.567 4.159l.31-2.304c-.24 1.144-.329 2.317-.485 3.476l.303-2.253c-.211 1.512-.549 3.03-.635 4.552l.286-2.128c-.398 1.175-.699 2.382-1.106 3.556a48 48 0 0 1-.66 1.785c-.105.267-.244.533-.327.807l.513-1.218q-1.362 3.228-.23.546a97 97 0 0 0-1.238 3.06c-.426 1.11.752-1.704.252-.589-.12.267-.236.535-.358.801-.702 1.525-1.588 2.961-2.149 4.549l1.548-2.656-.186.223c-2.011 2.417-2.544 6.175 0 8.511 2.222 2.04 6.361 2.584 8.511 0q-1.822 1.34.44-.378.164-.143.325-.287.378-.334.745-.682a40 40 0 0 0 3.148-3.318c.462-.546 2.317-2.932 1.1-1.404-1.226 1.538.678-.873 1.076-1.469q.246-.367.485-.741.519-.81 1.003-1.64c.986-1.687 1.792-3.39 2.546-5.201l-.807 1.912c1.141-1.494 1.931-3.517 2.615-5.208l-.874 2.07c1.454-2.749 2.523-5.86 3.489-8.825a47 47 0 0 0 1.73-7.202c.55-3.427 1.14-6.961 1.277-10.442.103-2.624.023-5.268-.087-7.89-.49-11.744-2.311-23.492-4.868-34.955-4.818-21.595-12.195-43.055-24.053-61.837-13.416-21.248-32.035-39.589-54.789-50.597-23.612-11.423-50.44-14.935-76.373-11.791-13.164 1.596-26.315 4.135-38.76 8.794-6.207 2.324-12.516 4.779-18.406 7.835l-.351.169q1.867-.753-.713.318c-.341.177-.671.391-1.012.573q-.855.455-1.706.917a195 195 0 0 0-11.875 7.013c-2.43 1.555-4.837 3.091-7.329 4.545-1.767 1.032-2.393 3.421-1.36 5.188 1.064 1.819 3.38 2.338 5.188 1.36Zm606.526-602.748c1.698 6.894 3.565 13.795 5.743 20.554a149 149 0 0 0 3.521 9.783c.456 1.136.931 2.264 1.408 3.391.17.401.338.803.513 1.203l.173.399q-.686-1.646.343.802c.726 1.572 1.533 3.114 2.346 4.642 6.655 12.499 15.622 23.462 26.932 32.003 10.762 8.127 23.888 13.487 37.422 14.195 13.091.685 28.34-4.322 34.203-17.027 3.756-8.139 3.781-17.213 2.978-25.982-.833-9.107-2.615-18.097-5.556-26.761-1.246-3.671-5.163-6.472-9.135-5.187-3.724 1.205-6.425 5.163-5.187 9.135 7.064 22.661 27.075 41.016 50.483 45.548 6.851 1.326 14.329 2.002 21.116-.036 6.517-1.957 12.061-6.407 15.303-12.404 5.919-10.949 5.005-23.912 2.704-35.702-1.522-7.799-3.979-15.202-7.086-22.505a122 122 0 0 0-4.767-9.96c-.921-1.714-1.859-3.337-3.036-4.888-.526-.693-1.06-1.38-1.592-2.069l.505.653q-.269-.356-.541-.71c-.865-1.129-1.736-2.253-2.627-3.362s-3.004-1.877-4.383-1.816c-1.4.063-2.642.47-3.756 1.331-2.559 1.977-2.954 5.17-1.597 7.997.449.935.872 1.882 1.316 2.82q.442.999-.145-.377l.33.798c.164.4.322.803.484 1.204.95 2.353 2.128 4.58 3.196 6.879a118 118 0 0 1 1.623 3.65q-.675-1.605-.226-.525c.165.41.334.817.497 1.228a118 118 0 0 1 2.21 6.013c2.619 7.767 4.693 15.824 5.798 23.953l-.275-2.045c.588 4.512.709 9.086.113 13.604l.274-2.042c-.384 2.729-1.034 5.403-2.09 7.953l.774-1.834c-.748 1.743-1.674 3.382-2.832 4.886l1.2-1.553a19 19 0 0 1-3.089 3.084l1.552-1.199a18.6 18.6 0 0 1-3.962 2.296l1.831-.773c-1.707.684-3.467 1.121-5.286 1.382l2.037-.274c-3.5.445-7.034.262-10.523-.197l2.035.273c-4.995-.69-9.856-2.05-14.505-3.998l1.826.771a63 63 0 0 1-10.131-5.438q-1.2-.796-2.363-1.647c-.467-.342-1.901-1.519.098.102-.373-.303-.755-.594-1.128-.898a62 62 0 0 1-7.968-7.796 61 61 0 0 1-.919-1.106c-.364-.449-1.411-1.949.064.109-.559-.78-1.144-1.538-1.688-2.329a58 58 0 0 1-5.534-10.051l.751 1.779a59 59 0 0 1-1.751-4.726l-14.322 3.948a109 109 0 0 1 5.075 21.018l-.262-1.948c.829 6.182 1.381 12.585.605 18.801l.259-1.925c-.211 1.535-.504 3.056-.944 4.543-.183.617-.612 1.35-.683 1.979q.657-1.515.316-.758-.129.288-.268.57a20 20 0 0 1-1.567 2.652c-.171.243-.839 1.122-.059.103s.102-.155-.094.069q-.62.709-1.303 1.357c-.411.391-1.093.777-1.416 1.233.18-.254 1.465-1.093.493-.4q-.349.249-.707.486-.792.522-1.622.98-.835.463-1.702.865c-.27.125-1.292.563-.108.062s.153-.072-.125.033c-2.448.927-5.001 1.528-7.59 1.897l1.885-.253c-4.294.572-8.586.412-12.873-.153l1.865.251a60 60 0 0 1-9.824-2.218 69 69 0 0 1-4.736-1.714c-1.097-.438 1.381.604.011.003a68 68 0 0 1-3.523-1.67 73 73 0 0 1-8.71-5.249 78 78 0 0 1-1.908-1.381l-.471-.354c-.869-.653.301.225.387.3-.346-.3-.723-.571-1.079-.86a82 82 0 0 1-3.874-3.354 83 83 0 0 1-8.732-9.403q-.2-.255-.403-.51c-.434-.539.303.394.31.405-.266-.423-.617-.811-.915-1.213a101 101 0 0 1-3.347-4.797c-4.099-6.251-7.633-12.963-10.719-19.767q-.67-1.479-1.31-2.971-.129-.298-.255-.597c.176.428.248.593.031.066q-.292-.708-.58-1.418a189 189 0 0 1-2.275-5.924c-1.494-4.092-2.656-8.31-3.789-12.513-.647-2.401-3.414-4.109-5.849-3.321-2.506.811-3.959 3.26-3.321 5.849Z"/><path d="M782.954 123.997c1.585 4.722 3.196 9.428 4.698 14.177 1.508 4.766 3.122 9.427 5.002 14.059 3.921 9.659 8.08 19.164 12.767 28.477 4.483 8.906 9.262 17.661 14.391 26.212 4.883 8.139 10.125 16.057 14.927 24.245 2.688 4.584 5.25 9.245 7.554 14.034a140 140 0 0 1 1.673 3.606c.064.144.845 1.787.796 1.821.02-.014-.568-1.377-.172-.405l.418 1.02a110 110 0 0 1 2.78 7.687l8.462-8.462a462 462 0 0 1-43.088-10.635c-2.78-.831-5.873.36-7.596 2.59-1.678 2.171-2.172 5.626-.565 8.026a89 89 0 0 1 7.894 14.561l-.758-1.797c2.725 6.459 4.849 13.323 5.815 20.28l-.282-2.098c.236 1.856.327 3.706.119 5.57l.285-2.121a13.6 13.6 0 0 1-.884 3.352l.81-1.919a11.3 11.3 0 0 1-1.327 2.219l1.262-1.634a11 11 0 0 1-1.536 1.542l1.641-1.268a11 11 0 0 1-2.337 1.379l1.947-.821c-1.061.431-2.15.705-3.282.868l2.18-.293c-1.76.216-3.515.157-5.271-.07l2.202.296c-2.848-.407-5.604-1.233-8.26-2.332l2.011.848c-8.789-3.729-17.162-8.848-24.717-14.663l1.742 1.346c-8.346-6.471-15.871-14.136-22.338-22.483l1.298 1.68c-2.187-2.844-4.555-5.512-6.803-8.306-1.068-1.327-3.584-2.242-5.234-2.168-1.671.075-3.155.561-4.485 1.589-1.223.945-2.3 2.295-2.653 3.845-.467 2.051-.122 3.799.746 5.704.979 2.149 1.935 4.406 3.205 6.401 1.309 2.056 2.793 4.021 4.276 5.954 3.325 4.335 6.827 8.403 10.779 12.181 7.293 6.972 15.529 13.205 24.351 18.116 4.586 2.553 9.502 4.868 14.456 6.592 4.405 1.533 9.399 2.489 14.061 1.963 3.156-.357 6.022-.995 8.82-2.589 2.639-1.503 4.914-3.786 6.456-6.398 3.392-5.744 2.904-12.575 1.522-18.829-2.668-12.075-7.992-23.779-15.231-33.794l-8.161 10.615a471 471 0 0 0 43.272 9.966c2.478.448 4.84.084 6.693-1.769 1.659-1.659 2.542-4.405 1.769-6.693-6.281-18.602-17.322-34.907-27.938-51.239-5.393-8.296-10.575-16.704-15.401-25.345-4.917-8.802-9.607-17.752-14.248-26.703-2.591-4.997-5.138-9.98-7.91-14.878-2.802-4.952-5.423-9.977-7.985-15.057-1.28-2.538-5.534-.775-4.62 1.948Zm-77.746-11.159c2.762-.074 5.011-2.041 7.189-3.534 1.958-1.342 3.995-2.565 5.982-3.863 3.977-2.599 8.188-4.817 12.557-6.681l-1.767.746c1.706-.718 3.425-1.401 5.127-2.129l-1.817.767a81.7 81.7 0 0 1 20.826-5.694l-2.162.291c3.25-.421 6.52-.542 9.767-.979l-2.196.295c3.775-.488 7.709-.512 10.626-3.362 2.773-2.709 2.641-7.293 0-10.026-2.738-2.833-6.934-3.108-10.626-3.134-2.839-.02-5.763.559-8.552 1.023a80 80 0 0 0-13.183 3.377c-4.771 1.665-9.526 3.634-13.853 6.259-4.195 2.545-8.175 5.485-11.899 8.679-1.938 1.662-3.633 3.492-5.262 5.455-1.918 2.313-4.82 5.362-4.669 8.6.096 2.069 1.714 3.971 3.912 3.912Zm121.661-57.141c-4.488-1.646-9.438-2.365-14.21-2.082-2.52.149-5.234.411-7.649 1.198-1.382.45-2.834.975-3.999 1.844-1.177.878-2.331 1.781-3.417 2.77-1.55 1.41-1.91 4.215-.772 5.98 1.198 1.859 3.388 2.843 5.573 2.268 2-.527 4.005-.812 5.978-1.445 1.915-.614 3.796-1.202 5.786-1.538 1.488-.251-.827.044.359-.056.552-.047 1.103-.106 1.656-.138a31 31 0 0 1 4.541.066c.289.025 1.557.141.273.005 1.096.117 2.19.38 3.257.645 2.501.622 5.469-.803 6.071-3.447.635-2.788-.847-5.118-3.447-6.071Z"/></svg>