<?xml version="1.0" encoding="UTF-8"?><svg xmlns="http://www.w3.org/2000/svg" data-name="ARTWORK" viewBox="0 0 1000 1000"><g fill="#8170f9"><path d="m632.831 146.189-371.529 53.442c-49.444 7.112-102.078 15.673-139.041 49.274-24.838 22.579-39.611 54.029-51.499 85.421-40.429 106.761-54.469 223.405-40.529 336.711 5.699 46.323 18.601 96.274 56.269 123.831 31.714 23.201 73.705 25.156 112.988 26.12 200.081 4.914 402.999 6.717 596.89-42.909 48.201-12.337 98.538-29.771 129.33-68.852 27.989-35.523 34.958-82.768 40.166-127.691 8.814-76.033 15.308-153.719-.727-228.563S907.35 205.455 840.124 168.856c-71.349-38.844-158.132-31.758-238.461-19.641"/><path d="M632.831 140.533c-52.348 6.964-104.708 13.748-157.114 20.267-52.633 6.548-105.144 14.306-157.691 21.524-24.676 3.389-49.383 6.611-74.015 10.308-21.245 3.189-42.51 6.979-63.035 13.447-19.869 6.261-39.173 14.98-55.792 27.668-18.11 13.826-32.281 31.679-43.328 51.529-11.039 19.835-19.299 41.225-26.846 62.59a704 704 0 0 0-20.813 70.464c-11.422 47.677-17.846 96.694-19.337 145.692-1.418 46.602.7 94.567 10.167 140.328 8.176 39.521 25.184 79.176 59.901 102.25 38.036 25.28 86.858 24.336 130.696 25.384 50.592 1.21 101.195 2.137 151.804 1.999 101.59-.278 203.318-4.938 303.887-19.956 48.705-7.273 97.42-16.677 144.823-30.135 39.826-11.307 80.734-27.552 109.668-58.331 30.66-32.614 41.856-76.673 47.812-119.84 6.786-49.192 11.918-99.086 12.145-148.778.405-88.663-19.136-180.278-79.227-248.4-28.238-32.012-64.715-55.336-105.601-67.6-43.661-13.096-90.217-14.037-135.334-10.36-22.401 1.826-44.316 6.014-66.495 9.349-5.146.774-7.984 7.259-6.724 11.843 1.513 5.507 6.681 7.5 11.843 6.724 21.569-3.243 43.663-4.818 65.406-6.449 22.135-1.66 44.4-2.157 66.555-.584 41.336 2.935 82.06 14.207 116.471 37.846 65.704 45.136 99.006 125.678 108.041 202.482 5.771 49.062 3.535 98.673-1.125 147.725-2.159 22.726-4.452 45.523-7.86 68.102-3.115 20.643-7.414 41.283-15.06 60.77-7.124 18.158-17.914 34.64-32.136 48.004-14.002 13.157-30.842 22.932-48.303 30.756-18.084 8.103-37.236 13.851-56.358 18.924-23.432 6.216-47.107 11.565-70.883 16.287-96.259 19.12-194.375 26.877-292.371 29.358-49.113 1.244-98.25 1.155-147.371.462-24.538-.346-49.073-.847-73.607-1.415-21.66-.501-43.562-.454-65.059-3.474-20.387-2.864-40.527-8.639-57.492-20.648-14.577-10.318-25.199-25.297-32.88-41.219-17.345-35.953-21.026-78.195-23.419-117.442-5.771-94.681 7.803-190.23 39.617-279.593 13.868-38.953 31.39-79.81 67.062-103.581 33.738-22.482 75.149-29.305 114.484-35.175 50.253-7.5 100.497-15.061 150.742-22.615 50.708-7.624 101.259-16.133 151.931-23.972l73.724-11.405c6.23-.964 4.824-11.952-1.504-11.11Z"/></g><path fill="#f5834a" d="M348.073 814.096c-18.9-37.85-8.075-88.143 24.725-114.864 7.881 35.956 8.129 73.565.722 109.622l54.751-49.651c5.955-5.401 12.609-11.102 20.641-11.458 16.075-.713 24.616 21.708 17.179 35.977-7.436 14.269-23.62 21.317-38.756 26.776s-31.49 11.143-40.806 24.262c40.942-.812 81.498 22.258 101.725 57.864-35.43 12.009-78.022-2.182-99.169-33.041 15.244 25.046 20.913 55.763 15.615 84.601-.985 5.362-3.592 11.787-9.032 12.136-5.544.356-8.918-5.876-10.656-11.153a234.4 234.4 0 0 1-11.305-87.16c-8.335 19.618-16.788 39.444-29.487 56.563-12.7 17.119-30.253 31.535-51.041 36.251 5.584-39.338 27.391-76.122 59.223-99.899-22.37 17.11-50.696 32.78-77.449 23.98-7.285-2.396-14.228-6.821-17.936-13.534s-3.416-15.921 2.003-21.348c5.678-5.686 14.697-5.806 22.729-5.556l67.548 2.103c-39.837-5.536-75.763-33.599-90.779-70.912 36.869 1.466 72.689 20.201 94.921 49.649"/><path fill="#ff8345" d="M352.125 811.727q-.301-.66-.593-1.323c-.095-.218-.205-.441-.288-.665.37.996.152.363.063.145a96 96 0 0 1-1.174-3.01 87 87 0 0 1-1.904-5.796 90 90 0 0 1-2.564-11.763c-.036-.238-.068-.476-.104-.713-.123-.814.179 1.458.031.233-.057-.473-.117-.947-.171-1.42a52 52 0 0 1-.245-3.03c-.111-2.033-.356-4.055-.429-6.094a98 98 0 0 1 .608-14.934c.056-.478.135-.956.177-1.434-.178 2.003.011-.029.087-.531q.463-3.03 1.11-6.026a101 101 0 0 1 3.25-11.638 113 113 0 0 1 2.178-5.737c.307-.753-.55 1.278-.225.533l.286-.66q.288-.66.586-1.314.632-1.392 1.308-2.764a100 100 0 0 1 6.079-10.599c1.25-1.908 2.602-3.731 3.951-5.568-.04.055-1.05 1.334-.384.502l.558-.702a87 87 0 0 1 3.374-3.963 87 87 0 0 1 9.942-9.39l-11.423-3.016q.912 4.324 1.682 8.677a260 260 0 0 1 1.177 7.273c.057.39.431 2.021.02.092.163.764.205 1.568.32 2.341.188 1.256-.024-.221-.045-.398.09.73.189 1.459.279 2.188q.27 2.19.502 4.384.466 4.39.785 8.792c.84 11.584.917 23.222.235 34.816a268 268 0 0 1-1.912 19.794l.27-2.009a278 278 0 0 1-3.421 19.809c-.681 3.24.418 7.043 3.537 8.691 3.151 1.665 6.684 1.166 9.326-1.203 16.053-14.396 32.135-28.762 48.138-43.214 4.158-3.755 8.223-7.669 12.636-11.128l-1.631 1.26c2.423-1.871 4.974-3.553 7.784-4.788l-1.93.814c1.762-.74 3.567-1.273 5.461-1.548l-2.151.289c1.522-.186 3.027-.206 4.548-.011l-2.153-.289c1.384.203 2.712.57 4.003 1.105l-1.937-.817a18 18 0 0 1 3.759 2.223l-1.643-1.269a21.4 21.4 0 0 1 3.538 3.565l-1.271-1.645c1.369 1.78 2.471 3.726 3.349 5.791l-.821-1.945a30.6 30.6 0 0 1 2.031 7.575l-.291-2.169c.319 2.531.333 5.075.007 7.606l.292-2.173a26 26 0 0 1-1.723 6.388l.826-1.956c-1.087 2.515-2.576 4.847-4.244 7.014l1.283-1.661c-2.245 2.858-4.857 5.368-7.718 7.603l1.666-1.287c-5.221 4.017-11.1 7.016-17.149 9.573l1.993-.841c-15.064 6.316-31.725 9.936-44.919 20.035-4.565 3.495-8.357 7.271-11.752 11.929-1.799 2.467-1.464 6.365 0 8.867 1.551 2.65 4.498 4.383 7.585 4.351 5.416-.057 10.837.277 16.207.981l-2.354-.316c10.234 1.377 20.231 4.153 29.744 8.161l-2.126-.897a121 121 0 0 1 26.347 15.377l-1.81-1.398c7.759 5.997 14.761 12.922 20.777 20.668l-1.405-1.818a111 111 0 0 1 8.569 12.868l5.383-13.231a82 82 0 0 1-14.876 3.461l2.4-.323c-7.707 1.021-15.51.972-23.213-.054l2.409.324a93.5 93.5 0 0 1-23.508-6.446l2.173.917c-7.162-3.044-13.92-6.964-20.081-11.721l1.848 1.427c-5.555-4.326-10.568-9.301-14.874-14.875l1.432 1.854a86 86 0 0 1-2.571-3.545c-1.367-1.99-3.089-3.554-5.477-4.212-2.194-.604-5.115-.331-7.062.924-4.123 2.658-5.94 8.149-3.288 12.539a121 121 0 0 1 7.761 15.177l-.926-2.195a124.2 124.2 0 0 1 8.617 31.559l-.33-2.455c1.416 10.71 1.444 21.563.016 32.273l.332-2.467c-.518 3.78-1.048 7.624-2.521 11.17l.937-2.221c-.534 1.226-1.166 2.384-1.977 3.45l1.455-1.883a10.6 10.6 0 0 1-1.757 1.745l1.884-1.455a8.5 8.5 0 0 1-1.57.893l2.224-.938a8 8 0 0 1-1.483.412l2.475-.333a8 8 0 0 1-1.954.027l2.476.333a8 8 0 0 1-1.812-.503l2.226.939a9.5 9.5 0 0 1-1.626-.957l1.886 1.457a13 13 0 0 1-2.104-2.105l1.458 1.887c-1.16-1.512-2.054-3.182-2.807-4.928l.94 2.228c-1.355-3.245-2.305-6.68-3.291-10.05a233 233 0 0 1-3.048-11.503 237 237 0 0 1-4.292-23.157l.333 2.479a236.3 236.3 0 0 1-1.657-45.078c.12-2.025-.806-4.103-2.003-5.651s-2.892-2.897-4.845-3.342a11.1 11.1 0 0 0-4.959 0c-1.951.444-4.762 2.375-5.574 4.286-6.76 15.91-13.565 31.911-22.734 46.618a146 146 0 0 1-8.221 11.883l1.458-1.888c-5.656 7.292-12.108 13.955-19.404 19.618l1.888-1.458c-5.648 4.345-11.761 8.049-18.319 10.852l2.228-.94a72.4 72.4 0 0 1-11.849 3.846l11.47 11.47c1.827-12.762 5.335-25.234 10.333-37.114l-.939 2.225a156.3 156.3 0 0 1 20.037-34.324l-1.455 1.884c7.805-10.087 16.829-19.191 26.908-27.012l-1.882 1.454q.957-.738 1.923-1.462l-9.386-16.057c-10.361 7.914-21.377 15.141-33.411 20.253l2.219-.936c-6.491 2.724-13.249 4.789-20.235 5.743l2.468-.332c-4.868.631-9.773.701-14.646.083l2.467.332c-4.294-.581-8.51-1.663-12.508-3.344l2.217.935c-2.815-1.216-5.474-2.723-7.905-4.598l1.878 1.451c-1.755-1.391-3.344-2.948-4.728-4.71l1.45 1.877c-1.166-1.534-2.149-3.165-2.9-4.94l.935 2.215a21.8 21.8 0 0 1-1.338-4.966l.331 2.465a21 21 0 0 1 .002-5.476l-.331 2.465c.22-1.434.588-2.816 1.13-4.162l-.935 2.215a16.4 16.4 0 0 1 1.96-3.404l-1.449 1.876a16.3 16.3 0 0 1 2.606-2.612l-1.876 1.449a18.5 18.5 0 0 1 3.828-2.239l-2.214.934c2.11-.878 4.315-1.402 6.573-1.726l-2.463.331c4.133-.544 8.294-.427 12.449-.3l16.119.493 31.727.97 18.166.555c4.589.14 8.469-3.618 9.058-7.997.264-1.966.013-4.163-1.094-5.881-1.204-1.867-3.203-3.915-5.512-4.238-9.609-1.347-18.988-3.984-27.929-7.744l2.199.928a120 120 0 0 1-26.334-15.417l1.86 1.437a120.4 120.4 0 0 1-21.337-21.291l1.434 1.856c-5.844-7.581-10.745-15.851-14.497-24.66l.923 2.187q-.368-.871-.722-1.747l-8.827 11.587q5.61.231 11.175.966l-2.432-.327a127.8 127.8 0 0 1 32.368 8.848l-2.171-.916a130.3 130.3 0 0 1 28.656 16.725l-1.827-1.411c8.234 6.384 15.702 13.75 22.081 21.994l-1.402-1.815q.367.477.73.956c1.469 1.939 2.915 3.448 5.358 4.12 2.146.591 5.004.324 6.908-.904 1.914-1.234 3.599-3.072 4.12-5.358.499-2.189.518-5.032-.904-6.908-.784-1.035-1.582-2.061-2.377-3.088l1.402 1.815c-9.532-12.467-21.093-23.089-34.295-31.594-12.568-8.097-26.673-14.177-41.199-17.719a135 135 0 0 0-26.193-3.691c-2.862-.12-5.497 1.418-7.188 3.607-1.616 2.092-2.698 5.357-1.638 7.98 6.462 16.002 15.979 30.493 28.326 42.597s26.975 21.439 43.001 27.861a111.4 111.4 0 0 0 25.827 6.913l2.452-18.115-52.196-1.655-13.305-.422c-3.48-.11-6.966-.246-10.443.01-3.905.288-7.912.814-11.556 2.315-2.085.859-4.084 1.705-5.895 3.058-2.533 1.894-4.315 3.652-6.189 6.193-4.823 6.542-5.597 16.235-3.04 23.802 2.797 8.277 8.918 14.891 16.475 19.15 14.402 8.118 32.017 8.431 47.644 4.078 15.145-4.219 29.084-12.33 41.726-21.513a241 241 0 0 0 4.576-3.412c2.01-1.534 3.573-3.015 4.273-5.557.613-2.226.336-5.189-.937-7.165-1.28-1.985-3.186-3.733-5.557-4.273-2.278-.519-5.206-.53-7.165.937-6.82 5.107-13.305 10.598-19.256 16.703-5.89 6.043-11.252 12.601-16.17 19.454-9.498 13.237-16.869 28.022-22.004 43.476a149 149 0 0 0-6.092 25.815 9.4 9.4 0 0 0 0 4.957 9.3 9.3 0 0 0 2.398 4.114c2.428 2.428 5.789 3.152 9.072 2.398 16.623-3.82 31.574-13.363 43.597-25.269 12.67-12.546 22.202-27.932 30.014-43.858 4.498-9.171 8.498-18.573 12.492-27.971l-17.38-4.707c-.971 16.399-.091 32.744 2.188 49.001a235 235 0 0 0 4.436 23.13c1.897 7.758 3.916 15.73 7.226 23.023 1.396 3.076 3.446 6.136 6.091 8.253 2.097 1.679 4.244 3.129 6.929 3.737 2.711.613 5.437.646 8.143-.05 8.152-2.096 12.705-10.425 14.202-18.125 2.943-15.139 2.864-30.54.454-45.734-2.584-16.287-8.486-32.196-17.052-46.285l-15.827 9.251c9.182 13.29 21.695 24.138 36.238 31.211 14.494 7.049 30.581 10.902 46.74 10.468 8.956-.241 18.004-1.709 26.499-4.579 2.721-.919 4.714-2.554 5.837-5.215 1.115-2.642.989-5.496-.454-8.016-8.687-15.177-20.745-28.012-34.827-38.295-13.525-9.876-29.322-17.073-45.654-20.787-9.487-2.158-19.291-3.267-29.021-3.02l7.585 13.218q.563-.797 1.158-1.571l-1.371 1.775c2.307-2.941 4.987-5.529 7.935-7.822l-1.758 1.358c5.419-4.151 11.534-7.229 17.8-9.882l-2.039.86c13.207-5.549 27.303-9.356 39.377-17.306s22.234-20.223 21.741-35.466c-.418-12.93-7.594-26.897-20.794-30.626-8.081-2.283-16.688.186-23.472 4.788-7.179 4.871-13.39 11.203-19.783 17.025-13.342 12.151-26.613 24.379-39.913 36.576l-4.917 4.509 12.863 7.488c.897-4.517 1.742-9.062 2.313-13.633l-.272 2.027c1.989-13.296 3.145-26.688 3.207-40.135s-.963-26.767-2.828-40.041a268 268 0 0 0-3.972-21.702c-.518-2.292-2.559-4.164-4.773-4.773-2.521-.694-4.726.16-6.649 1.758-13.572 11.274-23.391 26.485-29.199 43.064-5.758 16.435-7.493 34.653-4.34 51.801 1.745 9.487 5.017 18.71 9.594 27.201 1.166 2.164 4.342 3.024 6.421 1.684 2.313-1.491 2.777-4.024 1.684-6.421Z"/><path fill="#70e8a0" d="M575.159 113.718a346 346 0 0 0-11.141-27.29c-3.929-8.569-8.318-16.918-12.615-25.304a331 331 0 0 0-7.726-14.203l.779 1.847c-1.325-3.279-3.465-6.193-5.417-9.137-2.309-3.481-7.169-5.301-10.941-2.869s-4.954 6.974-2.869 10.941c13.452 25.601 27.439 50.915 41.388 76.249l11.782 21.398c1.528 2.776 4.696 4.488 7.825 4.488a9 9 0 0 0 4.574-1.237 9.1 9.1 0 0 0 3.251-3.251l31.933-41.656-1.457 1.886c6.353-8.088 12.474-16.367 18.698-24.554l17.537-23.07-16.182-9.459-40.989 70.406-11.567 19.869c-2.878 4.943-.431 12.699 5.649 13.886l74.961 14.63 21.067 4.112 2.533-18.719a617 617 0 0 1-59.76-3.426 622 622 0 0 1-17.056-2.056l2.55.343A625 625 0 0 1 593.372 143c-3.121-.57-5.826-.253-8.38 1.721-2.311 1.786-3.894 4.536-3.788 7.549.925 26.482 4.257 52.932 9.823 78.838 1.526 7.1 3.23 14.16 5.102 21.177l18.338-5.056a413 413 0 0 1-13.98-56.163 416 416 0 0 1-2.515-16.251l.336 2.497a418 418 0 0 1-2.659-26.087c-.28-3.982-2.692-8.067-6.866-9.018a11.16 11.16 0 0 0-4.972 0c-2.489.567-4.141 2.366-5.589 4.298q-1.269 1.694-2.562 3.369l1.461-1.891c-11.182 14.451-23.766 27.834-37.583 39.794a283 283 0 0 1-11.958 9.786l1.88-1.452a280 280 0 0 1-32.006 21.381l11.301 14.646 60.687-59.358 17.135-16.76c2.715-2.656 3.397-6.875 1.95-10.303s-4.829-5.775-8.619-5.798a279 279 0 0 1-35.046-2.435l2.516.338c-17.576-2.369-34.919-6.395-51.724-12.066a278 278 0 0 1-14.291-5.269l-5.068 18.385q37.157 6.06 74.326 12.047c7.057 1.137 14.115 2.268 21.171 3.412 2.602.422 4.967.422 7.326-.958 1.972-1.154 3.853-3.415 4.369-5.682.554-2.434.434-5.165-.958-7.326-1.258-1.952-3.289-3.981-5.682-4.369-24.773-4.017-49.535-8.104-74.312-12.097l-21.171-3.412c-2.611-.421-4.978-.425-7.346.961-1.977 1.157-3.863 3.425-4.381 5.697-.556 2.44-.436 5.18.961 7.346l1.491 1.929a9.5 9.5 0 0 0 4.207 2.452c25.795 10.253 53.037 16.459 80.678 18.872a277 277 0 0 0 22.934 1.039l-6.669-16.101-60.569 59.476-17.102 16.793c-3.324 3.264-3.518 8.634-.729 12.244 2.822 3.653 7.962 4.742 12.03 2.402 13.421-7.719 26.124-16.584 38.161-26.315a284 284 0 0 0 32.257-30.517c6.022-6.669 11.676-13.647 17.086-20.819l-17.427-4.72c1.796 26.828 6.068 53.545 12.901 79.553a414 414 0 0 0 6.283 21.506c.752 2.34 2.217 4.423 4.37 5.683 2.038 1.193 5.042 1.698 7.327.959 4.947-1.601 8-6.543 6.641-11.697a444 444 0 0 1-10.651-53.631l.343 2.549a455 455 0 0 1-3.729-43.878l-12.169 9.27c27.882 5.05 56.116 8.301 84.423 9.586a619 619 0 0 0 23.549.615c4.752.035 8.74-3.654 9.36-8.263.587-4.366-2.157-9.552-6.826-10.456l-74.993-14.514-21.076-4.079 5.649 13.886 40.878-70.47 11.536-19.887c2.461-4.242 1.122-10.452-3.362-12.821-2.175-1.149-4.809-1.725-7.22-.945l-2.238.945a9.4 9.4 0 0 0-3.362 3.362c-17.243 22.757-34.482 45.517-51.632 68.345l-14.546 19.36h15.649c-14.19-25.185-28.269-50.435-42.745-75.456-4.076-7.046-8.132-14.105-12.265-21.116l-13.81 8.072a347 347 0 0 1 2.682 3.694c1.157 1.617 2.223 3.495 3.625 4.892l-1.209-1.565c5.609 7.471 11.105 15.117 15.722 23.245a326 326 0 0 1 15.902 31.949l.359.835c0 .001.555 1.302.255.595-.282-.663.098.233.163.39l.439 1.053q.786 1.898 1.549 3.804c.544 1.359 1.178 2.469 2.489 3.236 1.161.679 2.872.967 4.173.546 2.619-.847 4.807-3.807 3.782-6.662Z"/><path d="M602.506 223.511c-30.106-1.526-60.175-3.62-90.322-4.145-30.118-.524-60.184-.006-90.281 1.193-59.786 2.382-119.405 7.697-178.739 15.386-30.497 3.952-60.889 8.739-91.169 14.105-13.956 2.473-27.959 4.885-41.806 7.918-12.059 2.642-24.025 6.182-35.027 11.884-11.477 5.948-21.498 14.824-28.068 26.023-6.721 11.455-9.864 24.557-11.735 37.581-4.283 29.804-6.628 59.996-8.263 90.049a1254 1254 0 0 0-1.649 90.815c.274 15.194.411 30.533 1.853 45.668 1.474 15.48 3.452 30.901 5.65 46.295 1.028 7.201 2.809 14.202 4.703 21.217s11.946 5.272 12.292-1.664c.374-7.501.724-14.957.449-22.466s-.481-15-.619-22.502c-.27-14.673-.684-29.316-1.21-43.983a1254 1254 0 0 1 7.52-189.078c.191-1.643.383-3.286.585-4.928.075-.611.155-1.221.229-1.833q.255-1.957-.04.245.093-.69.192-1.378c.888-6.259 2.01-12.503 3.734-18.591.791-2.793 1.774-5.49 2.778-8.21.629-1.705-1.15 2.418.109-.223.26-.545.508-1.095.773-1.637a59 59 0 0 1 2.606-4.762c.792-1.296 1.706-2.503 2.525-3.778-1.146 1.783-.486.588-.13.168.543-.641 1.075-1.287 1.636-1.912 1.854-2.064 3.881-3.92 5.989-5.718 2.135-1.821-1.982 1.346.32-.257.451-.314.892-.644 1.344-.958a66 66 0 0 1 3.47-2.248 79 79 0 0 1 7.741-4.089c.626-.289 1.266-.646 1.921-.86-2.365.771-.905.372-.358.161 1.322-.509 2.638-1.03 3.973-1.508 2.96-1.06 5.965-1.997 8.992-2.848 12.078-3.393 24.507-5.497 36.829-7.777a2180 2180 0 0 1 87.516-14.352c7.403-1.06 14.803-2.133 22.211-3.159a2719 2719 0 0 1 6.246-.857l2.172-.29q5.973-.795 11.952-1.557a2193 2193 0 0 1 43.526-5.106c29.41-3.153 58.894-5.719 88.393-7.882 29.512-2.164 59.059-3.472 88.611-4.905 29.538-1.433 59.119-2.573 88.684-3.273 7.295-.173 14.596-.059 21.892.013 6.46.064 6.39-9.664 0-9.988ZM73.621 697.096c12.211 19.791 27.579 38.138 44.72 53.841 17.429 15.968 36.524 30.45 57.916 40.711 22.594 10.838 46.315 19.157 70.79 24.545 28.441 6.261 57.606 9.342 86.698 10.112 59.003 1.563 117.838-7.002 176.032-15.7 14.75-2.205 29.494-4.447 44.254-6.581 6.747-.976 15.113-2.155 20.849-2.926s14.107-1.838 20.871-2.643c14.245-1.695 28.515-3.032 42.805-4.281 13.36-1.168 26.858-2.63 39.911-5.798 13.174-3.197 25.608-8.368 36.373-16.684 10.059-7.771 18.178-17.656 24.37-28.75 13.272-23.781 18.34-50.962 20.868-77.783.322-3.421.587-6.844.814-10.272.244-3.692-.362-7.254-.827-10.915-.378-2.972-1.999-5.527-5.217-5.91-2.986-.355-5.72 1.381-6.602 4.31-1.061 3.524-2.223 6.925-2.674 10.587-.448 3.633-.811 7.279-1.226 10.916-.746 6.538-1.653 13.053-2.841 19.527-2.288 12.469-5.6 24.869-11.068 35.893-5.306 10.698-10.948 18.484-19.53 26.321a101 101 0 0 1-3.184 2.778c-.418.351-3.014 2.37-1.427 1.192a77 77 0 0 1-8.064 5.265c-2.446 1.382-4.969 2.595-7.531 3.742-.678.304-1.371.585-2.037.916-1.719.856 1.622-.609-.167.086-1.559.606-3.114 1.215-4.694 1.764-5.662 1.967-11.494 3.431-17.375 4.569-2.98.577-5.974 1.054-8.975 1.503-.444.066-2.425.315-.12.024q-1.134.144-2.268.284c-1.704.207-3.41.396-5.118.576-13.194 1.385-26.425 2.372-39.614 3.828-29.172 3.221-58.207 7.573-87.21 12.036-56.428 8.683-110.377 17.455-168.051 18.605-13.986.279-27.985.193-41.957-.51a466 466 0 0 1-20.544-1.482 444 444 0 0 1-10.23-1.09c-3.778-.448-5.038-.615-8.491-1.122-24.723-3.637-49.262-9.51-72.719-18.176-5.499-2.031-10.502-4.039-14.827-5.945-3.211-1.415-4.083-1.733-7.334-3.178a299 299 0 0 1-8.209-3.799c-10.32-4.97-20.572-10.152-30.392-16.06-19.356-11.645-37.106-26.12-51.534-43.55-3.638-4.395-7.066-8.951-10.328-13.631-2.051-2.943-6.823-.288-4.884 2.855Zm554.677-455.007c3.505 1.874 6.89 3.813 10.165 6.068a299 299 0 0 1 12.036 8.734c.191.146 1.483 1.138.713.546-.683-.525-.103-.079.029.024l.658.513c1.882 1.467 3.827 2.847 5.739 4.273q1.191.888 2.373 1.788l1.18.903c.596.455-.573-.446-.545-.422.261.231.555.431.83.646a295 295 0 0 1 4.608 3.671c12.235 9.949 24.101 20.385 34.967 31.828 3.056 3.218 6.251 6.299 9.281 9.543 3.334 3.57 7.01 6.615 10.961 9.477 1.874 1.357 5.115.8 6.635-.856 1.784-1.943 1.881-4.302.856-6.635-1.814-4.133-4.077-7.899-6.952-11.397a292 292 0 0 0-7.721-9.006c-5.287-5.923-11.243-11.342-17.181-16.603-6.338-5.615-12.891-10.947-19.806-15.838-6.467-4.574-13.082-9.092-20.064-12.846q-5.97-3.21-12.081-6.143c-6.111-2.933-8.098-3.994-12.127-6.063-2.098-1.078-4.994-.616-6.174 1.619-1.107 2.095-.604 4.986 1.619 6.174Z"/><path d="M809.761 275.571c-35.449 14.099-71.52 29.622-100.459 55.094-6.918 6.089-13.36 12.733-19.091 19.954a216 216 0 0 0-3.175 4.092c2.794-3.698-1.409 1.894-2.08 2.876a131.7 131.7 0 0 0-10.773 18.917c-9.792 21.056-14.497 43.527-17.216 66.472-1.283 10.825-2.138 21.698-2.936 32.568-.774 10.545-1.405 21.118-1.234 31.696.184 11.406 1.168 22.984 4.341 33.975 2.946 10.204 7.826 19.956 13.788 28.727 11.326 16.662 26.531 29.895 43.013 41.263 17.146 11.827 34.338 23.569 52.007 34.613 19.559 12.226 40.818 22.831 62.733 30.088 11.483 3.803 23.332 6.732 35.351 8.19 5.467.663 10.966 1.06 16.473 1.15 6.224.102 12.312-.442 18.474-1.296 5.415-.75 10.606-2.572 15.768-4.341 3.74-1.282 6.187-4.627 5.646-8.649-.493-3.668-3.812-7.065-7.742-6.835-3.583.21-7.077.232-10.654-.034-3.322-.246-6.679-.035-10.012-.145-6.959-.228-13.896-.618-20.802-1.538l2.977.4c-18.022-2.485-35.325-7.26-52.25-13.884-1.982-.776-4.001-1.877-6.046-2.452.217.061 2.544 1.088.736.306l-1.333-.576a297 297 0 0 1-3.651-1.617 340 340 0 0 1-12.131-5.766c-8.133-4.057-16.105-8.435-24.122-12.713-14.88-7.942-29.715-16.1-44.228-24.697-3.383-2.004-6.621-4.201-9.831-6.471a240 240 0 0 1-6.481-4.748c-.108-.082-1.705-1.344-.572-.436 1.076.862-.593-.472-.801-.637-5.96-4.726-11.646-9.82-16.795-15.426-1.36-1.48-2.654-3.012-3.955-4.543s.85 1.209.112.14c-.34-.492-.707-.967-1.054-1.454a97 97 0 0 1-1.865-2.717 93 93 0 0 1-3.153-5.118 90 90 0 0 1-2.288-4.267l-.271-.545q-.662-1.403.215.636c-.376-.29-1.569-4.379-.467-1.113-.207-.612-.491-1.215-.722-1.819a83 83 0 0 1-1.145-3.174 90 90 0 0 1-1.999-6.785 130 130 0 0 1-2.798-14.258l.404 3.004c-.367-2.796-.784-5.585-1.16-8.38l.406 3.025c-1.884-14.571-1.433-29.305-.439-43.926 1.006-14.781 2.207-29.585 4.178-44.271l-.412 3.068c2.179-15.996 5.237-31.927 10.877-47.1.628-1.69 1.537-3.389 2.015-5.122-.693 2.512-.655 1.533-.33.792q.276-.632.555-1.264a131 131 0 0 1 6.601-12.883 172 172 0 0 1 11.47-17.151c1.52-2.003-1.443 1.828.127-.158q.824-1.042 1.665-2.07a160 160 0 0 1 3.434-4.05 167 167 0 0 1 6.841-7.339c4.859-4.913 10.003-9.566 15.311-13.989q1.83-1.525 3.693-3.01c.699-.558 1.405-1.108 2.108-1.661.938-.739-1.321 1.007-.364.281.481-.365.96-.734 1.443-1.098q4.232-3.194 8.586-6.218c5.747-3.996 11.64-7.779 17.631-11.398 13.598-8.214 27.696-15.482 41.987-22.402 2.371-1.148 3.186-4.424 2.191-6.687-.976-2.219-3.803-4.101-6.318-3.101Zm68.351-8.49c2.939-.387 6.363-.932 9.283-.279 3.113.697 6.115 1.837 9.147 2.807 5.835 1.866 11.289 4.72 16.458 8.298a79 79 0 0 1 1.712 1.221q.485.359.966.721c.833.62-.696-.587.086.072 1.287 1.086 2.595 2.138 3.843 3.271 2.364 2.148 4.734 4.317 6.95 6.623a84 84 0 0 1 4.583 5.186c.253.311.499.628.752.939.633.779-.892-1.208.007.018 1.994 2.718 3.913 5.504 5.696 8.365a110 110 0 0 1 5.173 9.299q1.077 2.172 2.068 4.386c.176.394.347.79.523 1.185.662 1.484-.087-.092-.13-.328.154.86.772 1.88 1.092 2.692 2.579 6.554 4.663 13.294 6.414 20.113 3.531 13.747 5.962 27.868 7.968 41.911.126.885.247 1.772.371 2.657.159 1.137-.135-1.011-.131-.979.051.443.117.886.174 1.328q.366 2.823.694 5.652.639 5.49 1.138 10.995a441 441 0 0 1 1.42 21.393 479 479 0 0 1-.122 43.223 452 452 0 0 1-2.74 32.394c-.215 1.775-.462 3.546-.676 5.321.026-.215.344-2.496.093-.707l-.185 1.328q-.186 1.328-.381 2.655c-2.114 14.413-5.268 28.544-8.305 42.776-3.002 14.068-6.379 28.142-10.262 41.993-1.953 6.967-3.56 14.006-5.394 21.005-1.781 6.794-3.457 13.821-6.092 20.336a419 419 0 0 1-4.169 9.931c-1.021 2.35 2.19 4.413 3.533 2.065 3.653-6.386 7.143-12.828 10.977-19.107a428 428 0 0 0 11.11-19.257c3.705-6.845 6.535-14.209 9.426-21.427 2.755-6.881 5.261-13.804 7.437-20.89 8.859-28.855 13.359-59.317 15.484-89.38 2.116-29.935.989-59.894-3.006-89.627-3.93-29.251-9.895-59.756-25.069-85.493-3.78-6.412-8.189-12.505-13.358-17.872a83 83 0 0 0-7.532-6.915 138 138 0 0 0-2.938-2.298q-.474-.366-.952-.726c.671.501 1.89 1.181-.954-.727-1.398-.938-2.895-1.781-4.361-2.61-5.943-3.359-12.371-6.067-18.989-7.765-3.322-.852-6.71-1.426-10.12-1.788-3.256-.345-6.477.238-9.708.561s-6.423.256-9.644.725c-2.655.386-2.053 5.082.64 4.728Z"/><path d="M896.371 318.952q-.902.452-1.794.924c-.236.125-.476.248-.709.38.539-.306.034.008-.097.067-.818.372-1.676.694-2.503 1.043.475-.2 1.208-.652-.743.312-.356.176-.706.375-1.055.564a87 87 0 0 0-6.447 3.846 81 81 0 0 0-12.539 10.135c-7.51 7.419-13.784 15.902-19.072 25.021-11.192 19.303-18.602 40.734-23.71 62.384-2.985 12.654-5.088 25.567-6.017 38.54-.936 13.083-.292 26.148 1.792 39.096 1.833 11.387 5.144 22.305 9.8 32.846a117 117 0 0 0 6.849 13.177c2.829 4.688 6.238 9.024 9.826 13.155 3.174 3.654 6.59 7.1 10.232 10.289a88 88 0 0 0 2.657 2.248l1.517 1.172q-1.749-1.322-.16-.103.677.526 1.362 1.041.762.57 1.534 1.125a95 95 0 0 0 6.031 3.995c8.454 5.142 17.842 9.234 27.629 10.902q.857.146 1.718.274l.768.11c.221.031 2.053.266 1.302.17-.737-.094 1.043.122 1.265.14.25.02.501.032.752.047q.945.053 1.89.084c1.658.057 3.119-1.325 3.309-2.922.21-1.768-.806-3.073-2.414-3.697q-.544-.21-1.084-.427c.004.002-1.177-.479-.524-.209-.256-.106-1.912-.773-1.04-.418-.559-.228-1.112-.461-1.673-.683q-.54-.215-1.076-.435c-.781-.32-.191-.082-.032-.013a85 85 0 0 1-2.398-1.081 149 149 0 0 1-8.091-4.102c-2.559-1.403-5.029-2.985-7.419-4.659q-.942-.66-1.866-1.343c-.309-.228-.614-.461-.922-.691-1.119-.835 1.179.939.1.078a107 107 0 0 1-3.503-2.898 118 118 0 0 1-14.152-14.671c-.429-.532-2.18-2.845-.41-.491a141 141 0 0 1-2.744-3.742c-1.79-2.554-3.403-5.204-5.034-7.859-3.633-5.914-6.967-11.894-9.67-18.299l.893 2.117c-4.324-10.342-7.068-21.249-8.587-32.345l.317 2.363c-2.151-16.106-1.714-32.512.411-48.597l-.312 2.324c2.537-18.876 7.347-37.451 13.522-55.453a215 215 0 0 1 5.089-13.388l-.801 1.899c3.788-8.973 8.307-17.501 13.564-25.695 1.258-1.961 2.509-3.92 3.853-5.825a114 114 0 0 1 2.102-2.883c.158-.21.325-.416.478-.63-.065.09-1.016 1.298-.323.42q.618-.784 1.246-1.56a102 102 0 0 1 4.705-5.389c.273-.292 1.914-1.995 1.799-2.105.153.146-.866 1.01-.201.343.232-.233.443-.491.666-.733a90 90 0 0 1 2.454-2.574 87 87 0 0 1 5.784-5.339c2.34-1.97 3.56-3.1 5.914-4.513 1.838-1.103 2.516-3.567 1.425-5.433-1.14-1.949-3.511-2.392-5.433-1.425Z"/><path d="M851.878 528.01c-21.857-45.813-21.906-101.468-.129-147.32 3.795-7.991 9.481-16.583 18.267-17.607 11.5-1.34 19.643 10.789 23.946 21.538 18.983 47.424 19.619 101.926 1.75 149.781-2.442 6.539-5.565 13.375-11.54 16.984s-15.473 1.978-17.576-4.678"/><path d="M853.384 527.129c-9.254-21.656-13.266-44.568-13.442-67.889a177 177 0 0 1 1.414-23.709c.022-.175.216-1.587.046-.369q.086-.628.177-1.256.635-4.396 1.494-8.753c1.119-5.673 2.855-11.226 4.763-16.68.982-2.807 2.053-5.582 3.074-8.374a171 171 0 0 1 2.3-5.938l.324-.785q.42-1.003-.187.438l.332-.777c2.389-5.548 4.962-11.109 8.387-16.105.342-.498 1.994-2.505.402-.621.469-.555.917-1.124 1.407-1.663.887-.975 1.888-1.78 2.836-2.685-1.531 1.461-.867.658-.355.303q.426-.295.867-.567c.587-.361 1.231-.618 1.817-.971-1.565.943-1.356.532-.797.339.435-.15.865-.307 1.309-.432a16 16 0 0 1 2.062-.421l-1.954.263a16 16 0 0 1 3.992.016l-1.964-.264c1.169.179 2.279.496 3.375.936l-1.782-.752c.836.355 1.643.763 2.417 1.238.418.256.813.54 1.22.813.863.58-.766-.587-.749-.59.112-.025.559.459.639.528 1.528 1.306 2.871 2.805 4.101 4.391l-1.217-1.576c2.684 3.535 4.728 7.493 6.47 11.564l-.816-1.934c6.526 15.486 10.529 32.259 12.768 48.878l-.31-2.306c2.002 15.103 2.328 30.389 1.238 45.581-.311 4.331-.759 8.65-1.332 12.953l.325-2.415c-2.208 16.322-6.112 32.804-12.497 48.025l.916-2.17c-1.255 2.944-2.709 5.796-4.636 8.361l1.421-1.839c-1.154 1.49-2.442 2.828-3.931 3.986l1.839-1.421c-.994.741-2.028 1.383-3.168 1.875l2.17-.916c-1.399.565-2.901.936-4.395 1.142l2.384-.32c-1.974.231-3.92.231-5.897.116l2.127.286c-.729-.209-1.448-.383-2.153-.67l1.82.768c-.385-.17-.747-.403-1.131-.568q-.738-.447.891.769l-1.47-1.136c-.84-.621 1.269 1.11.675.545a57 57 0 0 1-.899-.868c-.606-.599.492.658.522.694-.489-.559-.851-1.228-1.38-1.757l1.656 2.841-.095-.282c-1.069-3.187-4.485-5.608-7.92-4.497-3.17 1.026-5.644 4.501-4.497 7.92q-.348-2.603.08.591l.054.286c.06.276.129.55.215.82a19 19 0 0 0 1.233 2.936q.192.365.415.712 1.913 2.46.729.953-1.192-1.518.744.974c.358.432.732.845 1.152 1.218 1.258 1.12 2.672 2.196 4.173 2.981 1.022.535 2.154.994 3.21 1.397 1.296.495 2.483.617 3.92.793l-2.351-.316c1.949.29 3.746.535 5.692.333 2.863-.297 4.894-.912 7.497-2.054 3.143-1.379 6.032-3.78 8.233-6.401 4.969-5.919 7.745-12.929 10.296-20.146 4.709-13.326 7.975-27.128 9.878-41.129 2.001-14.722 2.666-29.441 1.535-44.268-1.121-14.7-3.603-29.345-7.629-43.532a203 203 0 0 0-6.837-20.058c-1.322-3.3-2.655-6.629-4.395-9.736-1.681-3-3.671-5.797-5.856-8.451-3.962-4.811-9.56-9.04-15.804-10.197-3.737-.692-7.593-.71-11.245.481s-6.841 3.185-9.675 5.782c-4.736 4.34-7.918 10.12-10.462 15.934-2.892 6.61-5.538 13.375-7.545 20.311-1.88 6.498-3.014 13.304-3.927 19.997l-.188 1.399q.116-1.05-.01-.139c-.082.416-.14.838-.208 1.257q-.204 1.258-.388 2.519a222 222 0 0 0-.797 5.974q-.603 5.042-.912 10.11a177 177 0 0 0 .636 29.224c.035.321.287 2.227.157 1.267.483 3.575 1.012 7.139 1.681 10.685a173 173 0 0 0 12.237 38.856 166 166 0 0 0 4.445 9.107c1.071 2.036 3.871.245 3.013-1.761Z"/><path fill="#70e8a0" d="M564.46 251.75c-5.393 21.732-10.979 43.421-15.789 65.29s-9.433 43.79-13.555 65.811-8.002 43.872-11.697 65.861c-3.715 22.11-6.955 44.306-10.091 66.505-3.199 22.643-5.907 45.365-7.013 68.211-.135 2.78-.197 5.485-.041 8.265.147 2.619 1.88 4.784 4.539 5.141 2.596.349 4.977-1.234 5.744-3.75 1.602-5.261 2.462-10.72 3.541-16.11 1.106-5.522 1.971-11.086 2.908-16.638 1.843-10.92 3.297-21.911 4.971-32.859 3.388-22.165 6.501-44.373 9.906-66.537 3.391-22.074 6.85-44.133 10.582-66.153s7.477-44.058 11.34-66.064c1.942-11.066 4.067-22.104 5.822-33.2s3.706-22.177 5.766-33.237q.764-4.1 1.538-8.2c.439-2.329-.648-4.738-3.068-5.403-2.249-.618-4.83.756-5.403 3.068Z"/><path fill="#70e8a0" d="M507.187 600.701c2.921 2.246 5.815 4.533 8.766 6.74 2.932 2.192 6.026 4.195 9.034 6.282l18.079 12.544c12.046 8.358 24.207 16.539 36.37 24.726 24.174 16.272 48.272 32.666 72.579 48.74 6.801 4.498 13.558 9.07 20.469 13.396 3.514 2.2 6.974 4.557 10.615 6.541l5.256 2.864c2.195 1.196 4.468 1.83 6.848 2.532 1.915.564 4.349-.356 5.3-2.157 1.046-1.98.647-4.003-.734-5.688-1.129-1.378-2.183-2.924-3.578-4.037q-2.118-1.69-4.238-3.378c-3.188-2.541-6.519-4.858-9.852-7.203-5.998-4.219-12.087-8.289-18.188-12.358-12.187-8.127-24.427-16.168-36.681-24.195-24.356-15.954-48.569-32.158-73.149-47.766l-20.639-13.105-10.53-6.686c-3.501-2.223-7.203-4.162-10.809-6.209-2.218-1.259-5.428-.598-6.668 1.749-1.364 2.582-.418 5.002 1.749 6.668Zm-370.968 43.824a82458 82458 0 0 0 143.597-19.219c47.419-6.396 94.743-13.533 142.098-20.384 13.139-1.901 26.251-4.005 39.373-6.019 6.677-1.025 13.349-2.028 19.992-3.254l9.939-1.834c1.646-.304 3.337-.54 4.959-.955 1.926-.493 3.197-1.612 4.732-2.796 2.699-2.08 2.352-5.785-.92-7.039-1.481-.567-2.995-1.356-4.608-1.393-1.41-.032-2.9.259-4.301.41-3.108.333-6.213.69-9.32 1.035-6.333.703-12.638 1.527-18.947 2.42l-35.901 5.083c-23.67 3.351-47.293 7.06-70.933 10.614-47.253 7.106-94.458 14.448-141.627 22.092l-79.27 12.846c-4.699.762-3.645 9.028 1.136 8.392Zm698.625-356.311c-13.773 14.366-25.743 30.411-35.663 47.661-9.93 17.267-17.88 35.71-23.761 54.737-5.933 19.193-9.638 38.985-11.17 59.014-1.523 19.911-.741 39.922 2.174 59.674 1.435 9.723 3.345 19.444 5.996 28.913 2.673 9.551 6.724 18.828 10.65 27.916a240 240 0 0 0 3.012 6.685c1.056 2.256 5.005.638 4.069-1.716-3.622-9.11-6.523-18.418-8.826-27.947-2.282-9.442-4.559-18.897-6.165-28.482a277 277 0 0 1-1.109-7.257c-.011-.075-.105-.77-.029-.199l-.109-.831q-.108-.83-.211-1.663a262 262 0 0 1-1.613-18.376 275 275 0 0 1 .051-29.381 271 271 0 0 1 1.793-19.672l.108-.834c.129-1.007-.055.376.072-.541.336-2.429.699-4.853 1.097-7.272 1.582-9.61 3.582-19.154 6.11-28.561a270 270 0 0 1 9.154-27.92 253 253 0 0 1 11.854-25.954c9.036-17.191 19.962-33.338 32.588-47.824a248 248 0 0 1 4.78-5.32c2.989-3.233-1.782-8.051-4.85-4.85Zm1.624 332.955c1.394 0 1.396-2.166 0-2.166s-1.396 2.166 0 2.166"/><path fill="#ff8345" d="m174.115 427.364-1.481-2.961a4.8 4.8 0 0 0-1.627-1.773 4.76 4.76 0 0 0-2.149-1.131 4.8 4.8 0 0 0-2.519-.113 4.7 4.7 0 0 0-2.349.75l-1.279.988a6.3 6.3 0 0 0-1.625 2.788l-.226 1.68a6.3 6.3 0 0 0 .863 3.189l1.481 2.961a4.8 4.8 0 0 0 1.627 1.773q.915.837 2.149 1.131 1.26.395 2.519.113a4.7 4.7 0 0 0 2.349-.75l1.279-.988a6.3 6.3 0 0 0 1.625-2.788l.226-1.68a6.3 6.3 0 0 0-.863-3.189m21.197-73.835c3.084 0 6.039-2.712 5.897-5.897s-2.591-5.897-5.897-5.897c-3.084 0-6.039 2.712-5.897 5.897s2.591 5.897 5.897 5.897m50.149 31.426c15.934-11.177 31.941-22.254 47.679-33.706 4.656-3.388 9.118-7.073 13.653-10.621 1.905-1.49 1.71-4.679.381-6.399-1.427-1.846-4.224-2.569-6.287-1.255-8.126 5.175-16.228 10.359-24.086 15.938s-15.717 11.209-23.575 16.813l-13.413 9.566c-2.377 1.695-3.748 4.957-2.008 7.656 1.531 2.375 5.093 3.805 7.656 2.008m13.378 60.26a417 417 0 0 1 18.773-15.608c.534-.418 1.059-.879 1.621-1.262-.154.105-1.027.79-.151.117l.724-.556a413 413 0 0 1 30.121-21.008c5.215-3.303 10.265-6.841 15.431-10.221 2.341-1.531 3.543-4.812 1.921-7.327-1.657-2.57-4.64-3.262-7.327-1.921-4.897 2.444-9.845 4.865-14.48 7.78s-9.215 5.922-13.732 9.02a433 433 0 0 0-27.214 20.307 418 418 0 0 0-14.282 12.084c-2.388 2.113-2.318 6.467 0 8.595 2.551 2.342 6.043 2.25 8.595 0"/></svg>