<?xml version="1.0" encoding="UTF-8"?><svg xmlns="http://www.w3.org/2000/svg" data-name="ARTWORK" viewBox="0 0 1000 1000"><path fill="#f15c5b" d="M83.308 447.924c-10.563-75.547 24.976-153.032 81.568-204.182s131.744-78.218 207.35-88.347c71.693-9.605 147.302-4.364 211.826 28.328 59.308 30.049 105.226 80.933 145.902 133.525 56.668 73.268 107.544 156.433 114.311 248.811 5.715 78.018-21.578 156.69-68.729 219.11S662.395 894.35 590.544 925.284c-66.059 28.44-139.428 44.134-210.35 32.187-61.187-10.307-117.462-40.574-167.416-77.38-47.494-34.993-90.644-76.618-123.017-125.936-56.646-86.294-77.606-195.266-57.016-296.417 20.591-101.151 76.635-180.693 162.508-237.976"/><path fill="#f45b5b" d="M87.341 447.924c-5.481-42.201 4.971-85.511 24.16-123.16 19.735-38.72 49.225-71.259 84.69-96.199 36.825-25.897 78.752-43.26 122.257-54.286 44.758-11.343 91.465-16.431 137.604-13.964 46.509 2.487 92.018 13.795 132.776 36.69 38.81 21.801 71.427 52.711 100.464 86.13 29.849 34.353 57.388 71.265 81.341 109.968s44.062 80.044 54.98 124.406c10.76 43.721 11.344 89.282 1.383 133.175-10.125 44.613-29.806 86.491-56.656 123.496-51.539 71.034-129.323 122.534-211.591 152.149-45.9 16.523-94.494 26.317-143.426 24.083-46.722-2.133-91.623-16.786-132.724-38.656-40.861-21.743-78.833-49.548-112.822-80.914-33.301-30.73-62.635-65.706-84.793-105.337-43.425-77.67-59.269-171.073-43.145-258.237 7.421-40.117 20.48-77.619 40.178-112.601 19.449-34.54 43.269-64.022 72.724-90.821 14.276-12.989 28.921-25.701 44.976-36.443 3.967-2.654 5.691-7.804 3.175-12.107-2.303-3.938-8.117-5.844-12.107-3.175-17.918 11.988-35.708 24.095-51.815 38.511-15.08 13.496-29.119 28.16-41.83 43.911-26.192 32.455-46.437 68.814-60.368 108.132-15.101 42.619-22.622 88.078-22.548 133.273.077 46.826 8.173 93.873 23.912 137.979 16.116 45.164 40.001 86.654 70.425 123.678 30.573 37.206 67.086 69.233 106.203 97.177 39.679 28.346 83.288 52.287 130.36 65.75 49.169 14.064 100.658 14.596 150.756 5.35 48.6-8.97 95.651-26.911 139.223-50.051 40.592-21.557 78.584-48.641 111.253-81.035 33.345-33.064 61.151-71.956 80.129-114.979 19.492-44.187 30.487-92.236 29.204-140.677-1.275-48.127-14.83-94.724-35.056-138.157-20.089-43.137-46.764-82.891-75.599-120.616-28.457-37.229-58.715-73.65-94.821-103.767-18.072-15.074-37.454-28.658-58.371-39.499-21.756-11.276-45.17-19.312-68.984-24.942-47.602-11.254-97.326-12.026-145.708-5.916-46.729 5.901-92.557 17.734-135.317 37.708-41.357 19.318-79.428 46.621-108.298 82.211-27.762 34.224-48.356 75.429-54.335 119.362a230.4 230.4 0 0 0 .217 63.471c.636 4.45 8.508 3.442 7.922-1.072Z"/><g fill="#8170f9"><path d="M104.313 72.168c14.109 19.841 19.911 45.401 15.751 69.389s-18.228 46.102-38.193 60.035c-17.301 12.073-38.658 18.199-53.973 32.709 36.291-11.429 76.182-11.11 112.286.896s68.241 35.64 90.461 66.526c-16.003-25.995-29.049-56.666-22.193-86.412 4.762-20.661 18.766-38.25 35.46-51.32s36.085-22.167 55.29-31.151c-35.378 19.654-79.471 22.856-117.317 8.519-37.846-14.336-68.751-45.948-82.229-84.108l12.128 18.281"/><path d="M101.506 73.808c3.82 5.659 7.079 11.824 9.449 18.091a79 79 0 0 1 3.089 10.11 94 94 0 0 1 1.367 7.097q.104.67.197 1.344c-.108-.787.108.899.125 1.051a93.2 93.2 0 0 1-.057 21.785c-.038.314-.145 1.359-.008.11-.098.888-.26 1.775-.41 2.656a88 88 0 0 1-1.045 5.197c-.734 3.155-1.684 6.24-2.681 9.318a93 93 0 0 1-2.319 6.347l-.16.391q-.4.96.152-.356c-.016.44-.495 1.137-.677 1.541a94 94 0 0 1-4.429 8.618 110 110 0 0 1-6.628 10.038q-.316.422-.635.844c-.908 1.21.975-1.216.027-.039a116 116 0 0 1-3.242 3.885 93 93 0 0 1-6.782 6.932 91 91 0 0 1-3.494 3.055c-.65.539-1.31 1.065-1.971 1.59-.916.727.293-.26.401-.31-.469.216-.932.702-1.352 1.009-5.458 3.995-11.37 7.316-17.368 10.421-14.041 7.269-28.625 13.668-40.351 24.568-2.287 2.126-2.856 6.252-1.148 8.9 1.733 2.688 5.098 4.356 8.294 3.375a183 183 0 0 1 28.926-6.354l-2.001.269c16.666-2.233 33.568-2.305 50.238-.084l-2.032-.273c10.444 1.42 20.763 3.709 30.808 6.911a178 178 0 0 1 13.533 4.927c.468.192.933.394 1.403.582-2.241-.898-.392-.161.151.075a181 181 0 0 1 9.617 4.519 184.4 184.4 0 0 1 27.766 17.312c.271.204 2.018 1.544.937.708-1.124-.868.542.428.751.593q.596.47 1.188.946 1.438 1.155 2.852 2.338a185 185 0 0 1 10.306 9.3 182 182 0 0 1 15.695 17.376q.27.34.537.682c.769.98.045.043-.296-.391.403.511.792 1.034 1.183 1.553a187 187 0 0 1 2.441 3.321c1.226 1.706 2.608 3.038 4.701 3.615 1.883.518 4.39.284 6.061-.793 3.52-2.27 5.121-7.007 2.822-10.761-4.245-6.932-8.208-14.043-11.674-21.399a185 185 0 0 1-2.486-5.526c-.186-.431-.528-1.388.232.553-.088-.225-.186-.447-.278-.67a157 157 0 0 1-1.682-4.265 128 128 0 0 1-3.709-11.383 106 106 0 0 1-2.764-13.416l.284 2.116c-.969-7.284-1.079-14.643-.105-21.933l-.285 2.124a74.2 74.2 0 0 1 5.063-18.37l-.808 1.916c2.645-6.217 6.063-12.073 10.07-17.509q.388-.522.778-1.041c.974-1.307-1.216 1.531-.199.257.542-.679 1.081-1.358 1.635-2.026a106 106 0 0 1 3.426-3.934 115 115 0 0 1 7.078-7.081 122 122 0 0 1 5.59-4.831q.504-.411 1.013-.816c.421-.336 2.139-1.517.155-.138 3.074-2.137 6.018-4.445 9.146-6.512 6.389-4.222 13.052-8.015 19.837-11.559 7.678-4.01 15.515-7.703 23.363-11.364l-1.956.825 2.251-.914-6.408-15.199a147 147 0 0 1-4.965 2.304l2.055-.867c-3.401 1.109-6.631 3.017-9.933 4.413l2.077-.877c-11.469 4.803-23.535 8.042-35.853 9.715l2.35-.316a145 145 0 0 1-38.065.022l2.388.321a140.3 140.3 0 0 1-35.673-9.743l2.168.915c-10.874-4.626-21.1-10.653-30.47-17.849l1.828 1.412a145.3 145.3 0 0 1-25.882-25.812l1.405 1.818c-7.629-9.875-14.101-20.656-18.978-32.149l.873 2.069a142 142 0 0 1-2.392-6.069L92.24 61.577c4.119 6.058 8.687 11.826 12.735 17.927 2.277 3.432 7.069 5.227 10.789 2.829 3.423-2.207 5.268-7.113 2.829-10.789-4.033-6.079-7.557-12.508-11.522-18.636-2.338-3.613-6.69-5.216-10.724-3.514-3.721 1.57-6.365 6.06-4.973 10.132 2.655 7.76 5.936 15.35 9.822 22.573s8.474 13.91 13.503 20.378c9.689 12.461 21.462 23.215 34.518 32.067 13.503 9.155 28.728 16.065 44.553 20.046 16.972 4.27 34.824 5.587 52.226 3.703 9.075-.982 18.067-2.604 26.837-5.154a140 140 0 0 0 11.825-4.019c4.477-1.75 9.033-3.584 13.284-5.848 1.859-.99 3.667-2.144 5.457-3.26 3.688-2.3 5.465-7.527 2.983-11.377-2.519-3.907-7.266-5.175-11.377-2.983-6.765 3.607-13.844 6.642-20.686 10.108-6.69 3.389-13.288 6.972-19.663 10.926-12.438 7.712-24.236 16.869-33.709 28.09-9.224 10.927-16.626 23.564-20.012 37.558-3.709 15.324-2.648 31.357 1.469 46.483 4.522 16.618 12.445 32.261 21.45 46.867l13.583-7.94c-17.169-23.729-39.573-43.516-65.472-57.265-28.083-14.909-59.76-22.559-91.559-22.125-18.43.251-36.904 3.236-54.46 8.856l7.146 12.276a72 72 0 0 1 3.955-3.507c.454-.373 2.444-1.69.585-.496.855-.549 1.643-1.235 2.473-1.825 2.809-1.998 5.731-3.833 8.71-5.566 6.079-3.537 12.389-6.65 18.619-9.905 12.478-6.518 24.296-14.044 33.875-24.498s16.723-22.727 21.12-36.19c4.483-13.724 5.085-28.577 2.922-42.784-2.402-15.769-8.734-31.369-18.229-44.196-1.043-1.409-2.816-2.121-4.447-1.166-1.442.843-2.153 2.986-1.166 4.447Z"/></g><g fill="#8170f9"><path d="M456.894 470.788c2.67 30.805 5.343 61.635 9.997 92.204 1.928 12.662 4.368 25.711 11.624 36.265 15.882 23.1 48.349 26.437 76.351 25.126s58.727-4.322 81.491 12.038c4.149 17.356-11.196 32.514-18.828 48.645-9.114 19.267-7.133 42.308.537 62.194s20.518 37.276 33.215 54.396c10.835 14.609 23.526 30.383 41.509 33.109 13.823 2.096 27.891-4.44 37.846-14.256s16.411-22.586 21.994-35.404c29.84-68.503 39.281-143.863 48.404-218.024 2.538-20.632 4.424-43.757-8.507-60.032-13.706-17.249-38.446-19.883-60.44-21.161l-246.531-14.326c-7.779-.452-16.032-.803-22.861 2.948s-11.111 13.236-6.632 19.611"/><path d="M452.861 470.788c.446 11.94 1.003 23.875 1.453 35.814.44 11.672 1.881 23.411 3.121 35.024 1.223 11.448 2.414 22.985 4.52 34.31 1.882 10.119 5.134 20.36 11.326 28.718 10.837 14.63 27.5 22.471 45.114 25.625 8.965 1.605 18.075 2.309 27.176 2.342 9.227.034 18.436-.68 27.653-1.001 5.563-.194 11.134-.282 16.699-.106 2.75.087 5.497.239 8.238.479 1.358.119 2.711.275 4.065.423 2.02.22-1.876-.292.127.012.572.087 1.144.169 1.716.26 5.262.844 10.467 2.11 15.467 3.966.532.197 1.057.411 1.587.612q1.251.512-.396-.178.52.225 1.038.458a63 63 0 0 1 3.574 1.753 61 61 0 0 1 6.846 4.258l-3.799-4.94c.101.45.198.899.28 1.352.292 1.619-.332-.028-.027-.32-.202.193.124 1.763.131 2.127q.026 1.317-.078 2.631c-.012.151-.163.849-.102 1.044q.285-2.004.072-.646l-.093.517a35 35 0 0 1-1.214 4.613 52 52 0 0 1-.931 2.535c-.573 1.465.218-.443.202-.475.096.191-.56 1.236-.687 1.505-3.116 6.586-7.275 12.607-11.027 18.833-4.162 6.905-7.687 14.226-9.636 22.081-2.009 8.098-2.694 16.611-2.135 24.93 2.305 34.265 22.772 62.773 42.751 89.29 8.908 11.823 18.932 24.384 32.791 30.599 3.657 1.64 7.334 3.023 11.306 3.634 4.893.752 9.45.774 14.348.09 4.226-.59 8.2-1.814 12.117-3.494-1.742.747-.691.294-.31.137.921-.379 1.844-.768 2.755-1.174a49 49 0 0 0 2.407-1.152 52 52 0 0 0 5.132-3.015c14.048-9.364 23.307-23.735 30.316-38.794 7.263-15.605 13.346-31.808 18.592-48.194 10.335-32.277 17.164-65.546 22.566-98.968 2.774-17.162 5.141-34.387 7.376-51.627a4767 4767 0 0 0 3.194-25.28c.927-7.46 1.88-14.923 2.242-22.437.721-14.989-.927-31.296-9.738-43.943-8.65-12.416-22.027-19.653-36.486-23.248-14.82-3.684-30.296-4.171-45.465-5.166a11531 11531 0 0 0-55.107-3.481c-36.737-2.232-73.474-4.477-110.214-6.671l-55.107-3.29c-16.831-1.005-38.623-4.718-49.157 12.112q-.258.412-.492.837l-.228.428q-1.417 3.435-.644 1.482l.236-.602q-.573 1.237-1.073 2.507c-.113.297-.227.592-.327.893-.626 1.883-.91 3.947-1.03 5.911-.246 4.055 1.027 8.091 3.258 11.43 2.323 3.477 7.168 5.313 10.954 2.872 3.465-2.234 5.361-7.23 2.872-10.954-.936-1.401.513 1.828-.024.268-.148-.429-.263-.868-.407-1.297-.523-1.555.029 2.041.025.407 0-.45.001-.906-.005-1.356-.023-1.685-.499 2.049-.064.416.12-.45.209-.903.347-1.348.312-1.005.936-1.184-.191.285.37-.482.545-1.185.856-1.712.214-.363.704-.8.821-1.204l-.79 1.001q.303-.38.625-.742c.65-.73 1.468-1.297 2.117-2.01-1.494 1.64-1.025.776-.246.293.409-.253.835-.466 1.255-.698 1.864-1.032-1.928.692.048-.044.568-.212 1.127-.441 1.705-.631a28 28 0 0 1 3.524-.895l.6-.107q1.519-.235-.628.072c.01.029 1.71-.161 1.839-.17 2.689-.192 5.389-.144 8.081-.028 5.625.243 11.246.62 16.868.938l71.059 4.016c47.367 2.677 94.736 5.391 142.118 7.789 10.453.529 20.942.851 31.37 1.776 2.167.192 4.326.434 6.486.689 1.93.227-1.969-.292-.046-.008.538.079 1.076.155 1.613.237q1.874.287 3.737.632c4.184.778 8.332 1.794 12.359 3.177q1.48.508 2.933 1.083l.481.193q1.21.5-.504-.214c.064.171 1.222.55 1.411.638a50 50 0 0 1 5.391 2.944 46 46 0 0 1 2.531 1.716l.411.302q1.025.776-.419-.324c-.019.06 1.088.9 1.18.98a41.4 41.4 0 0 1 4.725 4.78c.336.401 1.547 1.408.1.081.38.348.692.942.984 1.366a41 41 0 0 1 1.779 2.816 43 43 0 0 1 1.54 2.922c.198.413.378.833.574 1.247q.365.828-.273-.657.207.508.402 1.021a52 52 0 0 1 1.943 6.317 60 60 0 0 1 .692 3.265 66 66 0 0 1 .448 2.766q-.238-1.804-.07-.455c.946 9.426.487 18.811-.516 28.216-1.122 10.524-2.517 21.026-3.841 31.526a2518 2518 0 0 1-2.063 15.977l-.266 1.997c-.297 2.239.229-1.687-.074.552q-.27 1.997-.543 3.994-.594 4.326-1.21 8.648c-1.55 10.855-3.219 21.693-5.074 32.5-3.694 21.522-8.213 42.929-13.944 64.004-2.857 10.504-6.024 20.924-9.563 31.219a439 439 0 0 1-5.473 15.037 422 422 0 0 1-2.95 7.448c-.504 1.237-.993 2.483-1.531 3.705.777-1.763-.123.289-.231.542a339 339 0 0 1-.926 2.15c-4.037 9.301-8.447 18.537-14.378 26.802-.363.506-.738 1.004-1.107 1.507-1.246 1.696 1.085-1.284-.264.33-.799.956-1.583 1.922-2.413 2.853a62 62 0 0 1-5.625 5.578c-.45.39-.915.761-1.367 1.147-1.542 1.317 1.408-.987-.241.195-.97.696-1.936 1.392-2.939 2.04a51 51 0 0 1-6.242 3.455l-.539.247q-1.236.542.31-.12c-.413.303-1.179.44-1.662.602-1.114.376-2.236.724-3.375 1.018s-2.286.5-3.435.736c-1.987.408 1.91-.146-.104.027-.774.066-1.544.146-2.321.183a37 37 0 0 1-3.499 0c-.586-.029-1.168-.091-1.754-.13-2.04-.133 1.926.387-.082-.009-2.133-.42-4.233-.903-6.295-1.602-.507-.172-1.005-.369-1.509-.547-1.799-.634 1.793.856.07.039-.967-.458-1.931-.912-2.873-1.422-2.062-1.116-3.983-2.42-5.897-3.77-1.577-1.112 1.497 1.236 0 .01-.424-.347-.852-.688-1.272-1.041a72 72 0 0 1-2.484-2.188 88 88 0 0 1-4.739-4.735 123 123 0 0 1-4.465-5.088 168 168 0 0 1-3.191-3.956q-.348-.442-.693-.888 1.145 1.484.308.395a893 893 0 0 1-8.779-11.808c-6.305-8.607-12.457-17.352-17.823-26.583-2.723-4.685-5.241-9.493-7.453-14.441-.263-.59-.56-1.182-.783-1.788.762 2.067.004-.006-.14-.363q-.6-1.483-1.159-2.981a104 104 0 0 1-2.532-7.705 98 98 0 0 1-1.789-7.297 94 94 0 0 1-.681-3.693c-.097-.592-.276-1.254-.284-1.854.033 2.465-.022-.282-.082-.826-.544-4.934-.677-9.914-.302-14.866.09-1.195.099-2.506.373-3.675-.536 2.295-.028.309.052-.179q.15-.909.323-1.815a64 64 0 0 1 1.986-7.727q.477-1.463 1.027-2.901c.148-.388.808-2.379.081-.274.199-.576.505-1.144.763-1.696 1.043-2.225 2.213-4.389 3.437-6.519 4.93-8.581 10.562-16.649 14.216-25.907 1.756-4.45 2.806-9.265 2.879-14.058.041-2.676-.25-5.471-.881-8.068-1.006-4.136-4.86-6.301-8.289-8.317-8.476-4.984-18.057-8.046-27.742-9.553-19.554-3.042-39.056-.985-58.692-.356-4.185.134-8.375.147-12.559 0a150 150 0 0 1-6.31-.352 138 138 0 0 1-3.141-.279c-.463-.047-3.4-.687-3.643-.421l1.044.14a117 117 0 0 1-2.58-.39 103 103 0 0 1-2.812-.498 94 94 0 0 1-6.269-1.414 81 81 0 0 1-5.816-1.758 72 72 0 0 1-2.819-1.037c-.14-.055-1.363-.439-1.384-.56q1.593.675.457.182-.453-.2-.903-.409c-3.575-1.653-6.917-3.663-10.108-5.966-1.394-1.006 1.299 1.091-.017-.02-.373-.315-.756-.62-1.126-.939a49 49 0 0 1-2.172-1.982c-1.468-1.425-3.246-3.03-4.309-4.793 1.021 1.693.206.241-.049-.115a47 47 0 0 1-2.603-4.065 53 53 0 0 1-1.714-3.261c-.267-.553-.516-1.114-.773-1.671q-.501-1.152.018.054a64 64 0 0 1-.454-1.146c-1.861-4.826-3.216-9.848-4.301-14.901-4.911-22.866-6.616-44.764-9.936-67.646-1.622-11.183-3.146-22.381-4.67-33.578-.266-1.958-2.674-3.152-4.425-2.889-1.905.286-3.573 1.921-3.497 3.961Z"/></g><g fill="#70e8a0"><path d="M269.843 586.286c34.27 67.405 90.601 123.366 158.229 157.192 22.067 11.037 45.695 19.866 70.314 21.493 24.62 1.627 50.447-4.581 69.128-20.699 9.56-8.248 20.272-19.797 32.304-15.967 4.75 1.512 8.4 5.252 11.842 8.858l76.01 79.638c3.66 3.835 7.544 8.174 7.736 13.472.248 6.821-5.618 12.14-11.105 16.198-47.334 35.011-105.077 54.716-163.663 60.55s-107.268 9.342-163.935-6.634c-51.511-14.522-112.975-47.82-151.447-85.025-19.444-18.804-35.27-40.962-50.903-63.035-13.412-18.937-27.45-40.985-22.465-63.648 3.388-15.399 15.335-27.808 29.107-35.485 13.773-7.677 29.371-11.307 44.736-14.849"/><path d="M266.36 588.321c16.853 36.409 40.549 70.107 69.14 98.276 29.058 28.629 62.972 52.481 100.229 69.202 21.481 9.641 44.351 16.851 68.078 17.327 20.741.416 42.402-4.486 59.877-15.965 4.536-2.98 8.708-6.438 12.765-10.031 3.847-3.407 6.838-6.168 10.743-8.595.947-.589 1.925-1.106 2.909-1.629.187-.099 1.429-.59.28-.161.493-.184.999-.349 1.506-.492.468-.133 3.204-.426 1.639-.391.506-.011 1.042-.002 1.55-.032 1.915-.11-.97-.408.926.108.535.145 1.061.274 1.587.457.228.079 1.342.746.382.203.507.287.993.589 1.49.894.13.08 1.273.947.375.234 1.959 1.554 3.656 3.461 5.337 5.303 17.015 18.642 34.509 36.844 51.87 55.165 8.492 8.961 17.234 17.717 25.558 26.834a75 75 0 0 1 1.491 1.693c.178.207.996 1.417.192.241.658.962 1.317 1.954 1.789 3.025-.209-.474-.393-1.378-.048.195.253 1.156-.231.632.052.091-.054.103-.214 2.184.152.008-.038.223-.585 2.37-.231 1.228.332-1.07-.255.486-.401.746-.275.488-.579.954-.892 1.417-.804 1.192.867-.944-.128.129-.395.426-.781.86-1.191 1.274a39 39 0 0 1-2.599 2.38c-.172.145-1.593 1.296-.763.642.806-.636-1.052.776-1.212.894-17.688 13.013-36.919 23.909-57.022 32.723a260 260 0 0 1-3.56 1.535c.387-.163 1.306-.54-.454.183q-.897.37-1.794.736a330 330 0 0 1-7.676 3.008 335 335 0 0 1-15.577 5.443 349 349 0 0 1-31.412 8.513 363 363 0 0 1-29.657 5.299c1.627-.22-1.369.172-1.372.172-11.484 1.447-23.041 2.44-34.573 3.427-22.471 1.922-45.045 3.184-67.599 2.238a336 336 0 0 1-16.25-1.073c-5.705-.519-10.896-1.139-15.38-1.813a301 301 0 0 1-34.144-7.185c-9.72-2.64-19.296-5.787-28.724-9.329a371 371 0 0 1-11.842-4.683c-.188-.078-2.341-.984-1.423-.594.954.406-.805-.347-1-.431q-.852-.367-1.702-.736a408 408 0 0 1-11.067-5.015c-19.257-9.069-37.876-19.558-55.514-31.479a358 358 0 0 1-15.365-10.982q-.903-.683-1.802-1.374c.318.245 1.25.979-.216-.171a359 359 0 0 1-5.922-4.744c-7.829-6.414-15.317-13.235-22.322-20.543-16.183-16.886-28.576-34.22-42.107-53.26-6.472-9.107-12.872-18.37-17.648-28.506q-.42-.896-.826-1.798c-.788-1.743-.382-.88-.221-.488a73 73 0 0 1-1.385-3.649 66 66 0 0 1-2.338-8.323c-.113-.545-.616-3.716-.432-2.212-.153-1.251-.25-2.513-.301-3.773s-.054-2.529-.002-3.793c.027-.636.077-1.268.118-1.903.19-2.933-.369 1.568.155-1.352a46 46 0 0 1 1.76-6.85c.185-.536.39-1.064.588-1.596-.132.356-.706 1.505.063-.14.541-1.156 1.11-2.295 1.734-3.409s1.291-2.206 1.998-3.271c.31-.467 1.975-2.782 1.073-1.605 1.482-1.934 3.151-3.744 4.88-5.457a68 68 0 0 1 5.178-4.608c1.148-.925-.971.705.22-.165a73 73 0 0 1 4.655-3.176 81 81 0 0 1 6.96-3.876c2.59-1.289 4.505-2.124 6.563-2.921 5.006-1.94 10.136-3.542 15.311-4.966 5.447-1.499 11.162-4.048 16.342-5.243 4.056-.935 6.451-5.587 5.382-9.478-1.143-4.161-5.41-6.32-9.478-5.382-5.458 1.259-11.762 1.488-17.479 3.018-5.665 1.517-11.278 3.253-16.731 5.42-10.755 4.273-20.778 9.839-29.231 17.843-7.815 7.399-14.091 16.89-16.886 27.35-3.1 11.6-1.881 24.051 2.104 35.275 4.016 11.311 10.114 21.657 16.846 31.538 6.701 9.834 13.666 19.518 20.771 29.064 13.815 18.561 28.641 36.281 46.198 51.436 33.188 28.647 72.325 50.658 113.001 66.73 20.422 8.069 41.549 14.226 63.212 17.899 23.218 3.937 46.717 5.229 70.241 4.603 23.595-.627 47.257-2.66 70.7-5.364 22.726-2.621 45.218-7.061 67.09-13.803s43.242-15.656 63.298-26.751a292 292 0 0 0 28.268-17.796c9.729-6.943 21.237-15.688 19.419-29.22-.888-6.608-4.584-11.853-9.014-16.657-4.208-4.565-8.571-8.996-12.857-13.487-9.048-9.48-18.131-18.927-27.213-28.375l-26.857-27.937c-4.309-4.482-8.708-8.956-13.248-13.205-4.197-3.928-9.112-7.541-14.872-8.667-11.945-2.335-22.081 4.363-30.748 11.777-1.795 1.536-3.545 3.124-5.307 4.697-1.507 1.346-4.225 3.704-5.145 4.404-4.036 3.07-8.438 5.698-12.989 7.925-4.083 1.999-8.627 3.686-13.627 5.092a99 99 0 0 1-7.475 1.788c-2.706.538-4.79.869-6.852 1.099-10.481 1.17-21.384.822-31.552-.913-22.687-3.87-44.027-13.078-64.183-23.928-17.979-9.678-35.19-20.956-51.338-33.451-31.317-24.233-60.021-54.757-82.085-88.304-5.542-8.427-10.893-16.959-15.818-25.766-2.575-4.604-9.11-.562-6.965 4.071Z"/></g><path d="M560.265 400.703a334 334 0 0 0-3.858-3.377c-.573-.494-1.164-1.165-1.814-1.55-.024-.014-.615-.418-.213-.09.556.455-.677-.811-.625-.759-.554-.554-1.303-.948-1.943-1.396-2.879-2.021-5.724-4.086-8.635-6.062-6.013-4.084-12.124-8.087-18.489-11.594-13.507-7.442-27.526-13.983-41.946-19.453-13.971-5.299-28.355-9.579-43.032-12.413-14.843-2.866-29.879-4.364-44.993-3.502-14.614.833-29.267 3.455-42.98 8.659-14.544 5.519-27.798 13.397-39.481 23.689-12.558 11.062-22.866 24.828-30.778 39.533-8.727 16.218-14.723 33.897-17.782 52.05-3.083 18.29-3.682 36.854-1.894 55.311 1.819 18.773 5.642 37.306 11.325 55.287 5.663 17.919 13.031 35.367 21.784 51.994 8.633 16.399 18.772 31.866 30.144 46.49 12.5 16.077 26.72 30.898 42.814 43.414 13.13 10.211 27.12 18.96 42.406 25.57 14.082 6.089 28.647 10.742 43.774 13.395 14.851 2.605 29.967 3.716 45.029 2.826 14.77-.873 29.545-3.399 43.641-7.932 13.913-4.475 27.371-10.755 39.488-18.948 12.94-8.75 24.077-19.38 33.599-31.738 10.379-13.468 18.413-28.909 23.545-45.119a126 126 0 0 0 3.805-15.242c.227-1.238.443-2.48.624-3.725-.027.183.426-3.049.221-1.611s.244-1.786.221-1.605q.12-.932.208-1.866c.259-2.711.299-5.427.493-8.138.261-3.651-3.398-7.143-6.983-6.983-4.007.179-6.703 3.071-6.983 6.983.028-.398.241-1.635-.022.321l-.205 1.563c.167-1.263-.019.102-.094.6a116 116 0 0 1-.677 4.011c-.499 2.675-.969 5.351-1.572 8.006a127 127 0 0 1-4.431 15.071 132 132 0 0 1-2.045 5.287c-.12.291-.237.584-.362.873.259-.598.398-.926.048-.137a166 166 0 0 1-2.878 6.185 147 147 0 0 1-5.381 9.922 142 142 0 0 1-6.108 9.423c-1.042 1.476-2.16 2.895-3.21 4.363-.079.11 1.195-1.525.643-.833q-.2.253-.396.507a131 131 0 0 1-2.556 3.152 136 136 0 0 1-14.809 15.146 175 175 0 0 1-3.956 3.339q-1.035.852-2.086 1.686c-.32.253-.633.536-.972.763-.158.106 1.693-1.29.956-.739-.219.164-.436.333-.654.498a139 139 0 0 1-8.393 5.873 143.5 143.5 0 0 1-20.292 10.893l-1.123.487c-1.241.541 1.007-.424.997-.419-.237.124-.505.211-.753.313q-2.357.972-4.745 1.865a155 155 0 0 1-9.681 3.257 163 163 0 0 1-22.848 5.087q-.613.092-1.226.179l-.614.086c-1.244.177 1.112-.127 1.178-.158-.63.3-1.764.223-2.461.304q-1.336.155-2.674.289a175 175 0 0 1-10.348.728 181 181 0 0 1-21.291-.391 187 187 0 0 1-8.988-.91c-.433-.054-2.259-.297-.441-.053 1.786.239.181.021-.231-.037q-.625-.09-1.25-.183-1.354-.202-2.705-.426a187 187 0 0 1-5.397-.971 196 196 0 0 1-20.717-5.233 188 188 0 0 1-16.178-5.857q-.294-.124-.589-.246c-1.023-.422 2.068.885 1.053.443-.846-.368-1.694-.731-2.537-1.106a183 183 0 0 1-19.124-9.884 179 179 0 0 1-9.089-5.779 200 200 0 0 1-6.056-4.28c-1.036-.761-2.057-1.541-3.085-2.312-.821-.615.741.577.713.555-.231-.186-.468-.364-.702-.547q-.817-.639-1.629-1.287c-7.808-6.232-15.172-13.014-22.101-20.209a260 260 0 0 1-9.984-10.985 277 277 0 0 1-8.268-10.101c-.182-.233-.36-.471-.546-.702.287.354 1.114 1.452.373.48-5.29-6.939-10.296-14.084-14.969-21.454s-9.025-14.932-13.055-22.666a311 311 0 0 1-9.944-20.958c-.209-.487-.414-.976-.624-1.463-.043-.101.815 1.951.427 1.006l-.408-.98c-6.845-16.538-12.254-33.694-15.858-51.232a251 251 0 0 1-2.362-13.279c-.155-1.033-.379-2.09-.449-3.133-.009-.137.29 2.217.159 1.175l-.102-.784q-.117-.914-.226-1.829-.391-3.262-.689-6.534c-.797-8.75-1.089-17.549-.803-26.332a194 194 0 0 1 1.21-16.257q.09-.77.188-1.537l.099-.768c.149-1.194-.301 2.137-.126.946.312-2.126.63-4.249 1.002-6.366 1.504-8.544 3.64-16.979 6.443-25.191a160 160 0 0 1 3.463-9.209c.141-.343.857-2.044.231-.564-.631 1.491.19-.43.352-.798a155 155 0 0 1 5.759-11.755 153 153 0 0 1 6.806-11.334 142 142 0 0 1 5.047-7.138l.421-.554c.579-.772-.852 1.052-.74.955.381-.328.682-.871.997-1.266 4.635-5.815 9.766-11.238 15.371-16.128a117 117 0 0 1 4.238-3.525c.165-.131.333-.258.496-.391.747-.607-1.186.933-1.027.79.309-.276.67-.512 1.001-.761a115 115 0 0 1 11.01-7.32 115 115 0 0 1 12.307-6.233l.556-.239c.978-.434-2.054.845-1.06.448 1.624-.649 3.241-1.306 4.884-1.906 6.382-2.332 12.957-4.124 19.626-5.418q2.49-.483 4.998-.875c.804-.126 1.611-.235 2.416-.357.597-.09-2.471.316-.785.107q.71-.09 1.419-.174a155 155 0 0 1 10.433-.869c7.016-.349 14.036-.18 21.047.17 3.521.175 7.036.448 10.542.809 1.765.182 3.527.392 5.287.613 1.956.245-1.777-.251-.349-.05l1.278.179q1.386.199 2.769.414a247 247 0 0 1 21.476 4.355c14.286 3.546 28.285 8.269 41.906 13.836q1.208.493 2.411.997.3.127.601.252c.679.283-.611-.263-.609-.257.051.174 1.209.516 1.406.6q2.501 1.075 4.985 2.19a339 339 0 0 1 9.984 4.678c.771.377 1.538.762 2.308 1.143.192.095.374.209.567.301-.066-.031 2.346 1.027 1.141.474-.807-.37.584.283.823.395a341 341 0 0 1 14.359 7.182c2.911 1.542 5.835 3.086 8.674 4.759.532.314 1.011.636 1.583.878 1.109.47.474.13.24.033.187.077.364.182.547.268.732.344 1.452.717 2.176 1.079q2.238 1.121 4.459 2.275c3.242 1.683 7.081-2.632 4.085-5.294Z"/><path d="M629.036 629.698c-19.245-2.393-38.478-4.885-57.716-7.337-19.093-2.434-38.303-4.011-57.467-5.778l-16.17-1.491c-5.147-.475-10.322-.831-15.448-1.499l2.107.283c-3.024-.413-6.009-1.026-8.847-2.174l1.904.804c-1.619-.689-3.132-1.539-4.534-2.605l1.619 1.251a20.8 20.8 0 0 1-3.493-3.534l1.254 1.624c-1.373-1.818-2.453-3.805-3.343-5.899l.812 1.924c-1.679-4.075-2.66-8.377-3.451-12.7-1.016-5.555-1.846-11.146-2.601-16.742l.288 2.141c-2.746-20.511-4.309-41.162-7.337-61.638-.835-5.647-1.929-11.254-2.703-16.91l.287 2.132c-.67-5.049-.998-10.14-.366-15.211l-.286 2.131c.379-2.762 1.042-5.431 2.104-8.011l-.808 1.914a28.6 28.6 0 0 1 3.651-6.273l-1.252 1.621a35.6 35.6 0 0 1 4.55-4.733c.391-.337.769-.688 1.161-1.026.154-.133.404-.271.523-.433-.194.267-1.499 1.107-.496.414a17.7 17.7 0 0 1 2.883-1.606c2.496-1.11 3.798-4.839 2.988-7.342-.854-2.64-3.342-4.911-6.269-4.773-5.364.254-10.562 2.03-14.509 5.776-3.667 3.481-6.149 7.899-8.01 12.539-4.051 10.102-2.617 21.472-.899 31.898.964 5.851 1.936 11.693 2.73 17.57l-.287-2.135c2.368 17.665 3.783 35.441 6.108 53.111 1.113 8.458 2.132 17.048 4.144 25.351 1.755 7.24 4.939 14.987 10.892 19.794 3.743 3.022 7.93 5.136 12.638 6.224 4.285.99 8.718 1.322 13.092 1.681l26.619 2.188c17.89 1.47 35.803 3.183 53.735 4.024 17.829.836 35.659 1.654 53.487 2.509 2.239.107 4.478.223 6.717.335 2.457.123 4.805-2.247 4.695-4.695-.126-2.804-2.074-4.369-4.695-4.695Z"/><path d="M477.415 469.117c46.695 5.171 93.512 8.823 140.347 12.517 22.97 1.812 45.956 3.404 68.932 5.141 18.982 1.435 38.067 1.605 57.018 3.309 8.896.8 17.685 2.101 26.421 5.076 3.566 1.214 6.188 2.368 9.814 4.747 1.791 1.175 1.799 1.215 3.764 3.032 1.873 1.733 3.684 3.583 5.282 5.576 2.057 2.567 4.67 7.248 5.565 9.662a51 51 0 0 1 1.737 5.746 56 56 0 0 1 .897 4.55c.24 1.525-.111-1.025.074.519 1.103 9.194.474 18.54.048 27.757-.981 21.206-.525 42.361-2.477 63.534-1.972 21.394-5.494 42.628-10.465 63.529-9.946 41.826-25.614 82.423-48.871 118.706-11.366 17.732-24.514 34.432-39.89 48.872-15.965 14.994-34.232 27.283-53.653 37.35-40.319 20.9-85.922 32.326-131.026 36.226-47.099 4.073-94.725.009-140.398-12.211-43.409-11.614-84.524-30.499-121.507-56.03-35.229-24.32-65.916-54.583-92.822-88.145-26.202-32.684-46.966-69.95-59.899-109.926-11.533-35.652-17.083-71.862-18.167-108.944-1.043-35.678 2.281-69.968 10.348-104.325 7.956-33.888 19.856-65.553 36.52-95.756 16.67-30.215 36.835-56.733 61.822-80.519 24.94-23.741 53.303-43.012 85.022-57.659 35.309-16.304 75.548-25.949 115.139-29.195 47.208-3.871 93.835 1.098 139.083 15.164 22.182 6.896 43.699 15.579 64.521 25.871a543 543 0 0 1 31.694 17.026c9.212 5.341 19.027 10.604 27.17 17.466 8.311 7.003 12.463 14.079 14.183 24.783 1.409 8.767-.455 16.481-5.468 24.46-10.896 17.343-28.653 32.271-44.547 45.851-8.209 7.014-16.561 13.857-24.862 20.76-7.872 6.546-15.177 13.672-22.711 20.582-7.84 7.19 3.848 18.83 11.663 11.663 7.873-7.22 16.894-13.741 25.229-20.632 8.987-7.429 18.014-14.811 26.848-22.423s17.445-15.384 25.505-23.759c7.526-7.821 15.174-16.316 20.432-25.869 11.27-20.478 7.653-47.305-8.626-64.087-8.073-8.323-18.259-14.414-28.122-20.352-10.682-6.431-21.564-12.531-32.653-18.232-43.773-22.503-90.447-38.536-139.346-44.891-47.68-6.197-97.327-2.702-143.878 9.247-36.302 9.318-71.226 24.635-102.387 45.493-29.825 19.963-56.307 44.699-78.306 73.047-22.3 28.735-40.122 60.412-53.413 94.262-13.388 34.1-21.727 69.984-25.602 106.388-3.955 37.161-2.744 74.684 3.018 111.59 6.5 41.632 19.545 81.627 39.544 118.763 21.398 39.733 48.57 75.668 81.375 106.689 32.467 30.702 69.648 56.738 110.238 75.526 45.411 21.019 94.412 33.46 144.282 37.302 49.068 3.781 99.116-1.062 146.421-14.728 44.932-12.981 88.415-34.46 122.243-67.237 32.133-31.134 55.25-71.082 71.742-112.36 16.846-42.162 26.522-87.07 30.234-132.269 1.775-21.615 1.285-43.258 2.169-64.905.396-9.701.522-19.356-1.104-28.964-1.67-9.868-5.973-18.803-12.253-26.548-13.131-16.196-32.993-20.967-52.815-23.122-19.306-2.099-38.855-1.887-58.231-3.121-48.496-3.087-97.037-5.934-145.591-7.875-22.423-.897-44.828-1.77-67.255-2.485-5.768-.184-5.49 8.181 0 8.789Z"/><path d="m117.397 707.185 165.765-110.718c-23.183-47.197-29.209-102.597-16.715-153.674a1649 1649 0 0 0-132.01-102.604c-35.4 47.984-41.291 110.895-45.943 170.342-2.235 28.563-4.469 57.32-1.442 85.811 3.786 35.629 15.682 69.826 27.492 103.653"/><path d="M119.676 711.084c21.805-13.912 43.741-27.643 65.389-41.798l64.984-42.489c12.253-8.011 24.385-16.262 36.825-23.98 3.642-2.259 4.305-6.345 2.638-10.061-.527-1.174-1.039-2.354-1.554-3.533-.858-1.965.562 1.408-.224-.567-.402-1.01-.849-1.99-1.292-2.98-.437-.975-.859-1.957-1.288-2.935-.861-1.962.582 1.432-.235-.548-.326-.79-.653-1.58-.972-2.372a225 225 0 0 1-5.257-14.452 228.5 228.5 0 0 1-7.404-29.182 234 234 0 0 1-1.176-6.954c-.194-1.267-.389-2.536-.552-3.808.244 1.915-.024-.228-.06-.517q-.159-1.272-.304-2.546a231 231 0 0 1-1.199-14.695 229 229 0 0 1 .539-30.743q.353-4.152.86-8.288c.078-.635.145-1.275.242-1.908-.29 1.9.038-.253.074-.504q.317-2.22.679-4.435a224 224 0 0 1 3.456-16.955c.616-2.527.1-5.676-1.973-7.464a1679 1679 0 0 0-103.363-82.28c-9.972-7.317-20.135-14.371-30.101-21.692-1.483-1.089-4.36-1.344-6.061-.793-2.084.675-3.376 1.897-4.701 3.615-13.886 18.001-23.239 39.169-29.85 60.825-6.751 22.113-10.496 44.992-13.053 67.931-2.677 24.017-4.874 48.128-6.474 72.241-.885 13.33-1.419 26.697-1.059 40.057.37 13.761 1.928 27.46 4.441 40.993 4.744 25.541 12.923 50.275 21.431 74.766 1.07 3.08 2.147 6.156 3.222 9.234 1.47 4.212 5.917 7.458 10.515 5.97 4.165-1.348 7.548-5.995 5.97-10.515-8.475-24.273-16.946-48.646-22.489-73.79a289 289 0 0 1-3.522-18.816q-.183-1.205-.354-2.412c-.048-.34-.126-.693-.145-1.035.016.289.239 1.858.03.214a263 263 0 0 1-.577-4.847c-.35-3.221-.623-6.449-.856-9.68-.96-13.326-.987-26.682-.478-40.03.499-13.085 1.458-26.148 2.407-39.207.817-11.245 1.648-22.494 2.822-33.708q.432-4.114.939-8.219.262-2.13.538-4.257c.06-.461.372-1.386.24-1.823.047.156-.259 1.894-.042.313l.166-1.212a588 588 0 0 1 2.556-16.6c1.855-11.055 4.145-22.045 7.082-32.866a258 258 0 0 1 4.813-15.771 227 227 0 0 1 4.261-11.463q.334-.828.676-1.654c.148-.359.342-.732.458-1.099-.165.519-.532 1.243-.125.308 4.373-10.044 9.555-19.632 15.384-28.904a171 171 0 0 1 4.657-7.007l-10.762 2.822c18.039 11.993 35.414 25.125 52.668 38.212a1732 1732 0 0 1 10.838 8.291q.643.497-.178-.138l1.107.857q6.363 4.93 12.678 9.92a1642 1642 0 0 1 25.603 20.654 1664 1664 0 0 1 27.84 23.441l-1.973-7.464c-9.99 41.206-8.586 85.109 4.011 125.6 3.612 11.61 8.04 23.083 13.751 33.825l2.638-10.061c-10.523 7.549-21.368 14.676-32.066 21.974l-32.107 21.903c-21.413 14.608-42.809 29.228-64.059 44.073l-36.1 25.22c-1.996 1.395-2.921 3.952-1.62 6.177 1.197 2.046 4.113 2.937 6.177 1.62Z"/><path fill="#70e8a0" d="M266.239 350.82c16.067-9.818 33.072-18.528 50.343-25.694 17.539-7.278 35.668-13.251 54.048-18.013a387 387 0 0 1 41.964-8.428c2.716-.391 3.54-.501 6.286-.841q3.538-.438 7.084-.812c18.911-1.99 37.975-2.557 56.975-1.835 9.5.361 18.987 1.08 28.432 2.163 4.713.54 9.428 1.103 14.133 1.708l.94.122c.122.016.917.121.166.021q.828.111 1.654.227 1.772.248 3.54.512c2.584.387 5.158.837 7.752 1.145 2.322.276 4.334.536 6.462.833 1.994.279 4.008-.486 4.591-2.607.545-1.982-.667-4.015-2.607-4.591-18.645-5.535-38.092-7.933-57.466-9.107-19.24-1.166-38.527-.755-57.711 1.11-19.355 1.882-38.582 5.148-57.451 9.854s-37.319 10.974-55.244 18.631c-17.62 7.526-34.668 16.398-50.913 26.559a374 374 0 0 0-6.015 3.845c-3.225 2.103-.292 7.233 3.038 5.198Zm288.977-108.028 10.94 59.497c1.024 5.568 1.946 11.166 3.145 16.699.324 1.494 2.066 2.365 3.48 1.976 1.604-.441 2.223-1.967 1.976-3.48-1.62-9.934-3.796-19.8-5.726-29.678l-5.797-29.659-3.258-16.668c-.256-1.309-1.821-2.058-3.036-1.724-1.378.379-1.966 1.72-1.724 3.036Zm35.296 7.238a292 292 0 0 0 2.535 30.967 289 289 0 0 0 2.468 15.229c.951 5.006 2.09 10.112 3.69 14.951 1.176 3.557 6.266 2.104 5.572-1.536-.96-5.04-2.173-10.054-3.259-15.07a284 284 0 0 1-2.771-14.65c-1.605-9.898-2.644-19.88-3.179-29.892-.172-3.229-5.148-3.273-5.056 0Zm39.103 38.936c2.519 0 4.932-2.215 4.816-4.816s-2.116-4.816-4.816-4.816c-2.519 0-4.932 2.215-4.816 4.816s2.116 4.816 4.816 4.816m49.734 327.482c18.915-10.342 38.315-19.642 57.996-28.425 2.686-1.199 5.431-2.298 8.053-3.631 2.766-1.406 5.291-3.127 7.891-4.817 3.153-2.05 1.11-6.648-2.505-5.941-2.638.516-5.339.914-7.89 1.769-2.571.861-5.055 1.895-7.554 2.945a516 516 0 0 0-15.622 6.86 704 704 0 0 0-45.291 22.821c-2.238 1.229-3.15 4.498-1.749 6.671 1.465 2.272 4.275 3.06 6.671 1.749Zm21.044 43.463 24.303-7.766 12.034-3.845c2.04-.652 4.123-1.231 6.131-1.975 2.022-.749 4.006-1.626 6.003-2.436 1.948-.79 3.542-2.721 2.817-4.961-.688-2.127-2.765-3.356-4.961-2.817-2.081.511-4.185.968-6.252 1.535s-4.091 1.328-6.125 1.997l-12.006 3.944-24.248 7.966c-2.15.706-3.772 3.029-3.027 5.331.699 2.16 3.019 3.766 5.331 3.027m10.57 67.9c3.527 0 6.905-3.101 6.742-6.742s-2.962-6.742-6.742-6.742c-3.527 0-6.905 3.101-6.742 6.742s2.962 6.742 6.742 6.742"/><path fill="#8170f9" d="M125.236 360.625a319 319 0 0 0-10.324 26.252c-3.014 8.808-5.406 17.811-7.451 26.891-4.145 18.403-6.69 37.19-7.651 56.028-.95 18.618-.27 37.27 2.007 55.772 2.309 18.761 6.109 37.317 11.559 55.421 5.404 17.956 12.229 35.643 21.108 52.175a316 316 0 0 0 3.344 6.06c.928 1.64 3.166 2.195 4.777 1.253 1.714-1.003 2.102-3.086 1.253-4.777-8.284-16.488-15.321-33.071-20.978-50.634s-9.799-35.635-12.407-53.912a314 314 0 0 1-1.551-12.928q-.686-6.894-1.085-13.81c-.531-9.219-.728-18.464-.537-27.697.381-18.421 2.265-36.509 5.747-54.484 1.741-8.989 3.893-17.885 6.372-26.698 2.5-8.887 5.094-17.71 8.235-26.398a313 313 0 0 1 2.424-6.472c1.073-2.773-3.622-4.784-4.841-2.041Zm67.223 368.265c6.535 8.777 13.417 17.267 20.486 25.618 6.972 8.236 14.162 16.388 21.84 23.976 15.564 15.381 32.219 29.782 49.843 42.761 17.387 12.805 35.844 24.259 54.869 34.458 19.289 10.341 39.353 19.647 60.022 26.882 20.47 7.164 41.609 13.33 63.219 15.717q3.86.425 7.725.783c1.602.149 1.808-2.28.368-2.72-5.168-1.577-10.274-3.321-15.408-4.999s-10.381-3.006-15.528-4.635c-10.163-3.218-20.312-6.553-30.319-10.23-5.079-1.866-10.093-3.889-15.137-5.844a464 464 0 0 1-11.98-4.835c-.199-.083-1.083-.458-.28-.118q-1.008-.427-2.015-.859a470 470 0 0 1-29.131-13.704 472.5 472.5 0 0 1-55.126-33.202C278.133 805.51 262.002 793 245.81 778.29c-15.901-14.444-31.145-29.478-45.018-45.9a461 461 0 0 1-5.024-6.055c-1.495-1.833-4.741.63-3.309 2.553Zm305.479 171.188c9.711.593 19.431 1.366 29.154 1.715 1.095.039 1.068-1.598 0-1.685-9.697-.793-19.441-1.166-29.154-1.715-1.085-.061-1.079 1.62 0 1.685"/><path d="M482.676 473.142c1.43 7.882 2.835 15.768 4.289 23.645 1.419 7.686 3.262 15.317 4.896 22.96 3.306 15.462 6.432 30.977 9.997 46.382l3.038 13.128c1.015 4.386 1.949 8.762 3.356 13.04.456 1.388 1.751 2.336 3.236 2.113 1.304-.196 2.736-1.422 2.558-2.897-.972-8.025-3.001-15.928-4.687-23.831-1.668-7.813-3.461-15.594-5.26-23.377l-10.674-46.195c-2.019-8.738-4.511-17.385-6.803-26.056-.683-2.582-4.411-1.467-3.947 1.088Z"/><path d="M485.707 600.561c8.99-1.512 18.124-2.369 27.244-2.23 9.048.138 18.154.608 27.161 1.484 18.324 1.782 36.411 5.483 54.293 9.783a994 994 0 0 1 15.037 3.753c2.494.641 4.979 1.33 7.481 1.942 2.58.632 5.368 1.275 8.023 1.271 2.243-.003 3.147-3.139 1.155-4.263-2.075-1.17-4.392-1.803-6.654-2.533-2.214-.715-4.518-1.203-6.772-1.776a1080 1080 0 0 0-13.628-3.382c-9.107-2.192-18.252-4.232-27.456-5.972-9.321-1.762-18.707-3.213-28.142-4.212-9.191-.973-18.402-1.554-27.641-1.111-10.436.5-20.886 1.464-31.157 3.415-1.055.2-1.655 1.469-1.387 2.444.308 1.122 1.382 1.566 2.444 1.387Zm-126.04-257.137c14.835-6.197 30.337-10.741 46.154-13.615s31.756-3.914 47.778-3.302 31.833 2.72 47.415 6.301 30.767 8.656 45.241 15.296c14.603 6.7 28.515 14.92 41.356 24.581 1.61 1.211 3.175 2.397 4.816 3.576 2.709 1.945 6.086-2.432 3.574-4.633-6.184-5.418-13.185-10.066-20.138-14.434a226 226 0 0 0-21.309-11.829 241 241 0 0 0-46.118-16.884c-15.928-4.047-32.216-6.451-48.639-7.061-16.255-.603-32.62.443-48.694 2.92s-31.885 6.646-47.046 12.533a224 224 0 0 0-5.574 2.254c-1.108.465-1.904 1.473-1.556 2.74.288 1.047 1.623 2.022 2.74 1.556Zm155.51 437.794c15.477 1.199 31.083 1.204 46.509-.651 15.563-1.872 30.814-5.571 45.218-11.82 13.366-5.799 25.662-13.852 35.867-24.29 9.853-10.079 17.738-22.04 22.851-35.184 4.931-12.675 6.807-26.922 4.665-40.385-.26-1.635-.916-3.245-1.479-4.797-.741-2.043-4.133-1.908-4.02.544.076 1.652-.02 3.334.143 4.978.158 1.597.262 3.198.339 4.801a74 74 0 0 1-.196 9.95c-.534 6.177-1.985 12.582-4.064 18.638-4.203 12.243-11.08 23.818-19.779 33.475-9.338 10.365-20.255 18.345-32.783 24.522-13.34 6.577-27.838 10.636-42.502 12.928-14.864 2.323-30.024 2.727-45.032 1.979a289 289 0 0 1-5.735-.345c-1.526-.106-2.829 1.376-2.829 2.829 0 1.629 1.3 2.711 2.829 2.829Z"/><path fill="#8170f9" d="M487.131 98.873c19.123-15.466 41.118-27.612 63.809-36.221a268 268 0 0 1 35.935-10.801 274 274 0 0 1 22.688-4.131c.164-.023 1.374-.185.63-.087s.462-.059.627-.08q1.299-.166 2.599-.321c3.085-.365 6.173-.711 9.267-.997a273.5 273.5 0 0 1 37.273-.893c6.311.281 12.611.782 18.887 1.505 1.448.167 2.894.352 4.34.536-1.693-.216.716.102 1.044.149q1.295.185 2.589.384 4.6.704 9.17 1.571a255 255 0 0 1 36.225 9.653 249 249 0 0 1 12.801 4.85l1.078.446c1.014.413-1.2-.516-.196-.085.802.344 1.605.687 2.404 1.037 5.827 2.551 11.582 5.283 17.204 8.26 6.021 3.187 11.897 6.671 17.465 10.603q1.041.735 2.067 1.49c.386.284 2.286 1.746.965.708a116 116 0 0 1 3.929 3.211 95 95 0 0 1 7.329 6.979 86 86 0 0 1 3.36 3.789c.542.65 1.07 1.31 1.595 1.974-.984-1.246.326.462.659.927a69 69 0 0 1 5.17 8.438c.758 1.463 1.514 2.957 2.122 4.49-.647-1.633.172.494.36.996q.488 1.305.919 2.629c1.025 3.145 1.691 6.327 2.296 9.572.214 1.145-.15-1.443-.032-.286.031.304.072.607.104.911q.128 1.214.2 2.432a52 52 0 0 1-.076 7.291c-.033.404-.079.806-.115 1.209-.15 1.698-.014-.298.055-.308-.109.016-.922 4.654-1.03 5.067a45 45 0 0 1-1.36 4.3c-.083.223-.238.842-.411 1.062.816-1.036.429-.966.142-.341a59 59 0 0 1-1.099 2.296 50 50 0 0 1-3.97 6.493c-.049.068-1.132 1.555-.388.548.686-.929-.791.959-.972 1.172a58 58 0 0 1-1.5 1.701 60 60 0 0 1-3.415 3.427 64 64 0 0 1-3.247 2.806c-1.563 1.263.737-.514-.421.333a87 87 0 0 1-2.342 1.672 74 74 0 0 1-7.935 4.711 77 77 0 0 1-3.9 1.864c-1.853.824 1.145-.443-.733.311q-1.259.505-2.532.967c-7.068 2.57-14.434 4.245-21.862 5.374-.508.077-3.093.422-1.371.207-.936.117-1.872.236-2.81.343a218 218 0 0 1-5.642.568c-3.77.332-7.548.578-11.327.783-3.256.177-6.534.448-9.796.383a46 46 0 0 1-3.778-.234c-.298-.031-.669-.123-.958-.108.133-.007 2.042.323.69.085-.637-.112-1.276-.212-1.911-.338a42 42 0 0 1-3.739-.921 36 36 0 0 1-1.796-.584c-.292-.104-.58-.22-.873-.323-1.031-.364.406.123.641.284-.941-.646-2.138-1.015-3.124-1.625-.461-.285-.905-.697-1.387-.938.091.045 1.537 1.327.67.492-.19-.183-.396-.35-.587-.533-.332-.318-.675-.895-1.054-1.13 1.219.756.956 1.407.575.717a10 10 0 0 0-.394-.629c-.101-.152-.225-.559-.345-.651.105.08.645 1.994.384.896-.095-.402-.485-2.319-.284-.742.196 1.534.041-.063.05-.474.044-1.991-.421 1.342-.041.078.089-.295.177-.638.241-.942.261-1.25.102.621-.241.446-.021-.011.527-.986.485-.913l.272-.438q.591-.84-.016-.023c-.854.525-.093.149.216-.178q.27-.286.554-.558c-.027.026.721-.722.791-.703-.106-.029-1.35.944-.34.275a31 31 0 0 1 4.07-2.307c1.832-.854-1.233.449.642-.272a56 56 0 0 1 1.794-.652q2.058-.707 4.144-1.325a106 106 0 0 1 11.637-2.755 105 105 0 0 1 3.005-.493c.172-.026 1.866-.255.442-.071-1.437.186.923-.11 1.2-.142a113 113 0 0 1 6.31-.545q4.049-.235 8.105-.185c4.056.05 5.409.159 8.106.375q1.898.153 3.791.365c.673.075 1.345.157 2.018.238.25.03.505.082.756.097-2.356-.139-.646-.083-.112-.003 5.375.799 10.698 1.95 15.927 3.429a131 131 0 0 1 13.28 4.54l.946.385c1.08.439.458.232-.236-.104 4.925 2.387 9.869 4.58 14.611 7.341a131 131 0 0 1 12.754 8.46c.214.161 1.448 1.012.428.318-.946-.644.531.419.818.647q.798.635 1.585 1.282 1.671 1.375 3.295 2.806a124 124 0 0 1 5.923 5.575c3.822 3.842 7.286 7.976 10.693 12.184.641.792-.862-1.157-.258-.333.2.273.409.54.612.811q.533.711 1.053 1.431a114 114 0 0 1 2.462 3.541 117 117 0 0 1 4.255 6.91c1.299 2.276 2.61 4.545 3.816 6.873.62 1.198 1.337 2.341 2.014 3.511q.443.765.872 1.537c.125.225 1.151 2.237.74 1.076 1.03 2.91 3.904 4.854 7.035 3.994 2.819-.775 5.029-4.109 3.994-7.035l.006.555-.209-1.559c-.058-.334-.141-.668-.213-1a112 112 0 0 0-.942-3.956c-.18-.697-1.454-4.417-.753-2.411-1.088-3.114-2.461-6.191-3.95-9.132-2.553-5.041-5.572-9.866-8.884-14.441-7.329-10.125-16.213-18.755-26.117-26.337-18.793-14.387-41.452-23.671-64.886-26.82-12.204-1.64-24.387-1.431-36.546.507a107 107 0 0 0-16.567 4.01c-7.143 2.353-14.26 5.664-18.494 12.185-3.812 5.87-3.896 14.048.088 19.841 3.696 5.374 9.514 8.542 15.609 10.481 5.522 1.756 11.569 2.495 17.354 2.264 8.023-.32 16.064-.789 24.043-1.701 15.591-1.782 31.141-5.213 44.834-13.191 12.512-7.29 22.931-17.939 28.497-31.407 5.579-13.501 4.909-29.218-.112-42.787-5.266-14.232-14.554-26.38-26.235-35.989-11.303-9.298-24.039-16.514-37.314-22.593-12.23-5.602-24.961-10.175-37.935-13.718-25.66-7.007-52.488-10.099-79.068-9.35a275 275 0 0 0-29.075 2.374c-3.094.413-1.837.245-1.157.154-.758.101-1.49.205-2.238.318a284 284 0 0 0-7.467 1.228 272 272 0 0 0-38.087 9.681c-25.104 8.361-48.557 20.409-70.237 35.534a259 259 0 0 0-15.697 11.887c-1.688 1.38-1.432 4.272 0 5.704 1.675 1.675 4.005 1.374 5.704 0Zm345.907 289.701c3.665-2.031 7.082-4.492 10.571-6.813s6.996-4.638 10.504-6.942c7.091-4.656 14.13-9.385 21.195-14.079a2119 2119 0 0 1 42.542-27.542c3.556-2.243 7.133-4.454 10.669-6.728q2.654-1.706 5.312-3.405c2.915-1.862 6.221-3.626 7.304-7.173 1.447-4.738-2.189-9.201-7.009-9.201-3.126 0-5.783 2.032-8.3 3.641-3.546 2.266-7.083 4.542-10.581 6.881a2129 2129 0 0 0-41.861 28.722c-13.868 9.76-27.474 19.829-40.928 30.152-1.905 1.462-3.778 2.918-5.545 4.544-1.855 1.707-1.869 4.731-.395 6.639 1.548 2.004 4.295 2.537 6.523 1.302Zm33.629 74.792c25.701 2.174 51.511 2.94 77.28 3.875l10.969.398c1.827.066 3.657.168 5.484.199 2.351.04 4.62-.212 6.938-.593 1.516-.249 2.927-1.482 3.815-2.632.957-1.239 1.649-2.841 1.577-4.45-.138-3.08-2.158-6.427-5.392-7.082-3.816-.773-7.554-.774-11.425-.775h-9.473l-19.445-.002c-12.802 0-25.591.157-38.391.379-7.323.127-14.622.336-21.938.688-2.607.126-5.121 2.208-4.996 4.996.13 2.896 2.199 4.76 4.996 4.996Zm1.027 88.691c13.744 6.433 27.31 13.255 40.885 20.034a1038 1038 0 0 1 40.387 21.29 917 917 0 0 1 16.545 9.418c2.396 1.398 4.704 2.808 7.424 3.52 3.209.841 7.162-.525 8.769-3.569s1.314-6.918-1.214-9.41c-3.125-3.08-7.356-4.885-11.194-6.922a919 919 0 0 0-30.815-15.622c-14.075-6.804-28.393-13.299-42.968-18.956a911 911 0 0 0-23.97-8.916c-2.343-.835-4.993.757-5.894 2.893-.891 2.111-.214 5.182 2.044 6.239Zm-7.538 111.949c1.257 2.231 3.113 3.919 5.079 5.526a121 121 0 0 1 5.012 4.334 123 123 0 0 1 9.167 9.312 126 126 0 0 1 4.147 4.934c.331.415.703.825.997 1.267-.039-.058-1.165-1.527-.443-.568l.363.48q1.027 1.363 2.016 2.753c2.523 3.549 4.86 7.23 6.996 11.025 2.405 4.272 4.6 8.645 6.518 13.158l-.81-1.92q.389.926.767 1.856c.31.761.579 1.574.963 2.299.729 1.38 1.944 2.198 3.152 3.083 3.828 2.803 10.776.032 11.536-4.693.128-.798.303-1.653.339-2.46.076-1.7-.537-2.754-1.18-4.255q-.316-.739-.641-1.473a121 121 0 0 0-4.739-9.534c-2.272-4.111-4.817-8.065-7.57-11.87-5.768-7.974-12.281-15.381-19.67-21.892a126 126 0 0 0-6.056-5.002c-2.741-2.129-5.643-4.559-9.145-5.2-2.442-.447-4.749.115-6.327 2.157a6.07 6.07 0 0 0-.471 6.686Z"/></svg>