<?xml version="1.0" encoding="UTF-8"?><svg xmlns="http://www.w3.org/2000/svg" data-name="ARTWORK" viewBox="0 0 1000 1000"><g fill="#edc851"><path d="M442.588 91.994c-123.712 12.528-248.552 64.795-331.857 159.338-149.194 169.321-90.44 429.885 74.547 565.634 178.486 146.856 466.206 146.521 643.975-1.407 77.197-64.238 130.655-155.824 143.002-255.975 21.452-174.006-85.494-332.319-226.745-424.475-27.897-18.201-57.972-33.11-89.744-43.224C548.572 57.76 436.677 66.197 361.66 129.216"/><path d="M442.588 88.082c-12.8.543-25.564 1.312-38.225 3.257a585 585 0 0 0-37.978 7.124c-25.434 5.647-50.464 13.224-74.819 22.472-48.457 18.4-94.451 43.497-134.871 76.059-37.979 30.595-71.159 67.629-94.97 110.326-21.632 38.79-35.367 81.528-41.24 125.504-5.821 43.583-3.81 87.903 4.708 131.002 8.636 43.69 24.178 86.047 45.228 125.271 21.215 39.531 48.467 76.072 80.383 107.606 32.493 32.104 70.157 58.989 110.713 79.95 41.211 21.299 85.439 36.804 130.814 46.377 45.712 9.643 92.685 13.528 139.354 11.347 46.363-2.166 92.585-9.927 136.928-23.692s86.731-33.308 125.366-58.815c41.619-27.477 78.351-61.591 108.434-101.382 30.647-40.538 53.861-86.906 67.334-135.939 13.315-48.463 16.811-99.37 10.166-149.18-6.426-48.168-21.993-94.658-44.493-137.676-22.639-43.284-52.239-82.94-86.2-117.985-34.82-35.931-74.749-68.189-118.109-93.265-49.409-28.574-104.968-45.346-161.695-50.889-51.251-5.008-104.335.287-152.045 20.392-22.376 9.429-42.82 21.965-61.455 37.525-3.37 2.814-2.907 8.583 0 11.49 3.336 3.336 8.111 2.821 11.49 0 36.649-30.602 83.465-47.618 130.602-52.71 52.128-5.631 105.016 1.642 154.828 17.436 50.16 15.905 95.458 44.263 136.052 77.344 36.751 29.95 70.064 64.478 97.656 103.076 27.246 38.115 49.217 80.119 63.152 124.917 14 45.007 19.648 92.229 15.86 139.248-3.932 48.798-18.275 96.703-40.807 140.109-22.866 44.048-53.883 83.529-90.956 116.497-33.58 29.861-72.046 54.083-112.922 72.652-40.82 18.544-84.373 31.161-128.594 38.359-44.275 7.207-89.553 8.529-134.224 4.644-44.753-3.891-89.08-13.527-131.34-28.783-41.827-15.099-81.591-36.025-117.485-62.303-34.95-25.587-65.975-56.8-91.531-91.765-25.356-34.692-45.91-73.042-60.337-113.53-14.305-40.145-22.866-82.359-24.259-124.986-1.375-42.086 4.187-84.206 17.427-124.22 13.693-41.383 35.745-79.922 64.347-112.808 32.89-37.815 72.835-69.187 116.392-93.833 44.125-24.967 91.861-42.718 141.092-54.572a586 586 0 0 1 35.062-7.314c12.083-2.138 24.087-4.679 36.21-6.654 4.36-.71 3.326-7.869-1.04-7.684Z"/></g><g fill="#70e8a0"><path d="M414.694 505.584c-37.127 3.231-71.587 28.051-86.417 62.241-11.9 27.435-11.446 58.421-10.79 88.319l1.659 75.594c1.05 47.841 2.958 98.562 29.366 138.468 8.531 12.891 19.895 24.525 34.332 30.049 9.402 3.597 19.678 4.437 29.726 3.819 40.618-2.499 79.08-31.014 90.945-69.941 5.674-18.616 5.49-38.466 4.604-57.908A870.4 870.4 0 0 0 487.46 623.37c-6.204-27.341-14.301-55.463-33.031-76.325s-50.984-32.1-75.683-18.835"/><path d="M414.694 500.949c-30.38.534-59.88 15.919-78.948 39.412-10.694 13.175-18.119 28.305-22.312 44.756-4.541 17.815-5.248 36.499-5.184 54.802.066 19.2.642 38.405 1.01 57.601.355 18.539.529 37.093 1.21 55.624 1.255 34.164 4.74 68.725 18.419 100.399 6.533 15.126 15.682 29.924 27.917 41.106 6.807 6.221 14.377 11.071 22.938 14.474 8.912 3.542 18.864 4.73 28.404 4.585 30.774-.468 61.175-14.571 81.781-37.381 10.497-11.62 18.569-25.322 23.043-40.365 5.449-18.324 5.673-37.799 4.913-56.745-1.572-39.207-5.92-78.324-12.73-116.964-3.208-18.204-6.848-36.392-11.432-54.304-4.193-16.383-9.597-32.718-17.93-47.503-8.165-14.487-19.312-27.248-33.607-35.921-13.257-8.043-29.494-12.982-45.092-11.488-3.878.371-7.961.855-11.683 2.09-2.159.717-4.301 1.849-6.279 2.986a46 46 0 0 0-3.132 1.968l-.474.329q-2.92 2.308-.942.679c-3.818 2.02-5.301 7.647-2.958 11.281 2.504 3.883 7.197 5.119 11.281 2.958-2.056 1.088.449.026.995-.131a47 47 0 0 1 2.467-.638c1.659-.381 3.354-.581 5.003-.993s3.282-.77 4.951-1.065c.625-.11 1.836-.174-.906.103.373-.038.745-.092 1.118-.131q1.4-.15 2.807-.223c3.443-.183 6.768.289 10.187.386-3.139-.089-.262-.015.537.126q1.274.226 2.539.502 2.544.558 5.038 1.311a72 72 0 0 1 4.961 1.699c.364.14.725.288 1.089.428 1.52.585-.549-.207-.692-.301.778.508 1.828.81 2.673 1.214a77 77 0 0 1 9.224 5.221c1.479.976 2.881 2.047 4.325 3.072-2.294-1.629-.215-.147.343.314q1.245 1.028 2.445 2.107c2.686 2.415 5.176 5.029 7.502 7.791.632.75 1.243 1.516 1.86 2.278.499.617 1.019.664-.317-.414.27.218.596.793.781 1.043a103 103 0 0 1 3.519 5.08 117 117 0 0 1 5.868 10.132 135 135 0 0 1 3.654 7.669c.176.4.347.802.523 1.202q.43 1.004-.337-.804.19.454.376.91c1.5 3.659 2.865 7.373 4.124 11.121 5.324 15.861 8.876 32.306 12.245 48.673a870 870 0 0 1 9.555 55.441c.142 1.023.314 2.048.423 3.076-.256-2.418.082.625.167 1.271a866 866 0 0 1 2.555 21.58 879 879 0 0 1 2.519 27.828c1.35 18.155 2.724 36.574 1.548 54.774a152 152 0 0 1-.54 6.329c-.054.505-.448 4.207-.154 1.52-.135 1.232-.358 2.462-.564 3.684-.745 4.413-1.743 8.786-3.043 13.069a88 88 0 0 1-2.47 7.042c-.141.354-.297.705-.431 1.061.999-2.661.305-.728.063-.183-1.39 3.134-2.961 6.188-4.691 9.148s-3.622 5.822-5.657 8.58q-.34.459-.684.916c-.953 1.277.329-.467.447-.574-.598.544-1.096 1.378-1.614 2.005a101 101 0 0 1-3.576 4.098 104 104 0 0 1-7.362 7.234 106 106 0 0 1-3.723 3.161c-.534.433-2.911 2.136-.558.465-.781.555-1.534 1.153-2.311 1.713a107.4 107.4 0 0 1-17.884 10.43c-.698.321-1.402.627-2.103.941-1.829.817 1.656-.669.412-.173-.446.178-.889.363-1.335.54a105 105 0 0 1-4.864 1.789 103 103 0 0 1-9.958 2.836 99 99 0 0 1-7.342 1.407c-.365.056-.775.082-1.138.167 2.722-.636.967-.13.236-.044a96 96 0 0 1-11.798.652 81 81 0 0 1-6.634-.315c-.489-.044-.978-.1-1.467-.147-1.012-.097-.815.352.321.061-.933.239-2.699-.433-3.624-.618a59 59 0 0 1-6.398-1.65 54 54 0 0 1-2.777-.973c-.16-.061-1.01-.291-1.18-.467q1.919.82.51.201l-.575-.263c-3.431-1.597-6.694-3.546-9.759-5.765-.164-.119-.876-.525-1.017-.75l.904.703q-.375-.293-.743-.591a71 71 0 0 1-2.186-1.832c-1.438-1.254-2.828-2.565-4.17-3.921s-2.647-2.771-3.902-4.218a91 91 0 0 1-2.454-2.95q-.399-.5-.792-1.004l.691.889c-1.327-1.13-2.372-3.23-3.347-4.666a128 128 0 0 1-3.203-4.967 136 136 0 0 1-5.74-10.351 146 146 0 0 1-2.525-5.322c-.351-.78-.811-1.575-1.052-2.395.632 2.15.303.722.058.128q-.31-.756-.614-1.515c-2.918-7.311-5.28-14.838-7.195-22.471-1.937-7.721-3.419-15.553-4.571-23.428-.081-.551-.705-4.282-.22-1.494-.152-.876-.231-1.773-.34-2.656q-.39-3.162-.72-6.331c-.419-4.014-.77-8.035-1.067-12.06-1.216-16.465-1.543-32.98-1.951-49.48l-1.418-57.292c-.439-17.757-1.183-35.578.098-53.317q.206-2.866.49-5.724.16-1.604.348-3.205c.069-.592.145-1.184.216-1.776.234-1.933-.256 1.622.067-.477.652-4.228 1.335-8.453 2.249-12.635s2.022-8.295 3.364-12.347a110 110 0 0 1 2.063-5.699c.175-.444.36-.883.533-1.327.518-1.33-.826 1.842-.016.038.402-.895.797-1.793 1.216-2.681a99 99 0 0 1 5.014-9.302c1.788-2.933 3.653-6.134 5.946-8.707-1.141 1.281.144-.178.576-.713a106 106 0 0 1 5.409-6.201 125 125 0 0 1 7.565-7.38 108 108 0 0 1 3.79-3.236c.255-.208 2.432-1.917 1.066-.869A110 110 0 0 1 378 523.772a107 107 0 0 1 10.421-5.361c-1.453.655 1.058-.444 1.08-.454.794-.362 1.574-.751 2.377-1.098 1.028-.445-1.347.53.408-.169.365-.145.729-.295 1.094-.44q1.37-.541 2.753-1.044a110 110 0 0 1 19.796-5.155c2.243-.366 3.629-3.026 3.319-5.085-.334-2.221-2.202-4.059-4.551-4.018Z"/></g><g fill="#70e8a0"><path d="M250.797 502.807c-49.98-9.691-103.457-.043-146.905 26.506-29.455 17.998-37.63 59.637-34.528 91.531 2.641 27.152 21.634 45.715 47.733 52.63 31.139 8.25 67.488 4.622 93.191-17.527 36.591-31.532 63.323-77.509 61.756-125.787-.372-11.453-5.264-25.738-16.709-26.319"/><path d="M251.709 499.499a201 201 0 0 0-8.41-2.136c-1.3-.3-2.622-.544-3.901-.918-.673-.197-1.339-.42-2.01-.624q-.402-.123-.805-.243l-.805-.24q-.73-.25-.142.005l.261.124a5.46 5.46 0 0 0-2.764-.748c1.27.175.475.064.201.018-.692-.116-1.388-.216-2.082-.318q-2.868-.421-5.744-.782a208 208 0 0 0-8.495-.896c-5.643-.478-11.339-.82-17.002-.681s-11.302.506-16.926 1.101c-11.964 1.266-23.797 3.338-35.341 6.75-11.558 3.416-22.841 7.847-33.685 13.101-9.701 4.7-19.382 10.126-27.163 17.689-6.853 6.661-12.402 14.823-16.413 23.48-8.274 17.859-11.709 37.767-11.217 57.393.242 9.664 1.277 19.516 4.929 28.541 3.854 9.524 9.474 18.155 17.168 25.049 16.078 14.407 37.333 20.265 58.476 21.757 21.836 1.541 44.634-2.932 63.527-14.229 9.755-5.833 18.284-13.654 26.185-21.766 7.934-8.146 15.181-16.991 21.686-26.316 12.516-17.941 22.108-38.404 26.775-59.827 2.397-11.003 3.649-22.361 3.361-33.627-.267-10.465-2.907-21.985-10.48-29.686-1.122-1.141-2.429-2.128-3.719-3.056-2.008-1.444-4.058-1.937-6.483-2.229a13 13 0 0 0-2.676-.068c-1.811.155-4.477.34-6.013 1.509l3.645-.986-.311-.019c-3.778-.234-7.389 3.489-7.222 7.222.184 4.113 3.175 6.971 7.222 7.222l.311.019-5.107-2.115c1.12 1.212 2.755 1.813 4.057 2.809l-1.706-1.318c.561.45 1.045.951 1.547 1.462 1.04 1.057 2.323 1.718 3.492 2.586l-1.876-1.45a17.8 17.8 0 0 1 3.08 3.082l-1.45-1.877c1.328 1.733 2.375 3.638 3.235 5.642l-.936-2.217c1.354 3.246 2.202 6.665 2.69 10.144l-.332-2.471c1.123 8.439.435 17.301-.677 25.706l.333-2.478c-1.712 12.649-5.248 24.983-10.198 36.739l.947-2.244c-5.877 13.86-13.673 26.838-22.856 38.755l1.483-1.919a198 198 0 0 1-14.735 16.959c-5.177 5.316-10.614 10.508-16.486 15.056l1.937-1.496c-5.864 4.496-12.285 8.187-19.089 11.063l2.297-.969c-7.933 3.314-16.281 5.493-24.795 6.66l2.569-.345c-10.297 1.373-20.76 1.297-31.054-.064l2.569.345c-8.722-1.181-17.427-3.148-25.56-6.567l2.3.971c-5.362-2.284-10.438-5.176-15.061-8.731l1.944 1.502c-3.94-3.063-7.494-6.575-10.557-10.518l1.499 1.94a56.7 56.7 0 0 1-7.217-12.367l.964 2.285c-2.034-4.865-3.376-9.968-4.083-15.191l.341 2.538c-1.423-10.971-1.145-22.276.32-33.224l-.339 2.526c1.312-9.607 3.669-19.083 7.411-28.041l-.954 2.26c2.643-6.26 5.96-12.222 10.098-17.62l-1.475 1.91c3.237-4.181 6.937-7.968 11.106-11.224l-1.905 1.472c4.919-3.797 10.455-6.823 15.932-9.729 6.011-3.189 12.093-6.189 18.363-8.84l-2.183.921c14.334-6.024 29.436-10.548 44.682-13.594a212 212 0 0 1 12.95-2.168l-2.053.276c4.594-.617 9.231-.9 13.817-1.545l-1.941.261a210 210 0 0 1 24.008-1.141c1.978.021 3.954.127 5.93.163a3.7 3.7 0 0 0 1.667-.175q-1.127.103-.187.031c.493-.026.986-.067 1.479-.098.982-.061 1.971-.146 2.954-.139 3.978.025 8.013.523 11.963.967 1.672.188 3.188-1.449 3.369-2.974.199-1.674-.779-3.3-2.457-3.764Z"/></g><path fill="#f15c5b" d="M545.36 438.042a631 631 0 0 1-24.072-172.659c.008-26.787 1.884-54.252 12.759-78.732s32.323-45.679 58.791-49.8c34.61-5.389 68.128 19.916 83.729 51.278s17.311 67.562 18.726 102.561l3.962 98.024c.645 15.952 1.058 32.894-6.963 46.698-13.537 23.296-44.601 28.169-71.511 29.526-13.109.661-26.578 1.034-38.993-3.228-12.414-4.262-23.72-14.161-25.94-27.098"/><path fill="#f45b5b" d="M548.668 437.13c-4.15-17.655-7.674-35.47-10.413-53.4-.627-4.104-1.283-8.364-1.979-13.154a549 549 0 0 1-.85-6.061c.117.874-.154-1.174-.136-1.037l-.202-1.56q-.24-1.872-.47-3.745c-1.083-8.848-2.029-17.727-2.683-26.617-1.33-18.06-2.548-36.055-2.664-54.176-.056-8.638.017-17.29.312-25.923.146-4.255.368-8.508.697-12.752a238 238 0 0 1 .852-8.854q.102-.882.212-1.764c.05-.4.243-2.47.016-.184.824-8.316 2.857-16.751 5.284-24.731 1.176-3.866 2.356-7.997 4.161-11.623-.98 1.968-.07.182.101-.207q.267-.605.54-1.206.506-1.11 1.039-2.208a99 99 0 0 1 8.104-13.733q.71-1.006 1.444-1.993c.305-.41 1.42-1.791-.101.106.205-.256.404-.517.607-.774a94 94 0 0 1 3.479-4.134 88 88 0 0 1 7.63-7.572q.914-.802 1.853-1.576c.453-.374 2.786-2.002.596-.514 1.465-.995 2.848-2.11 4.326-3.091a72 72 0 0 1 8.989-5.09c.793-.375 1.624-.688 2.406-1.083-.108.054-1.949.782-.666.291.448-.171.892-.353 1.341-.521a64 64 0 0 1 5.016-1.656 62 62 0 0 1 7.076-1.577c.576-.093 2.345-.261-.292.018.485-.051.968-.119 1.453-.17a62 62 0 0 1 10.583-.191q1.192.08 2.38.205c.317.033.632.073.949.107 1.78.189-2.114-.324-.347-.045 1.729.273 3.444.593 5.145 1.005 3.259.79 6.458 1.82 9.574 3.057.55.218 2.093.994-.272-.133.361.172.737.318 1.103.481q1.213.54 2.406 1.12 2.4 1.168 4.72 2.49a88 88 0 0 1 8.625 5.613c.392.288.775.629 1.187.888-.094-.059-1.744-1.376-.623-.481.644.514 1.289 1.026 1.923 1.552a98 98 0 0 1 4.284 3.768c2.615 2.438 5.1 5.017 7.444 7.717a129 129 0 0 1 3.188 3.854c1.171 1.462-1.329-1.779-.216-.278.198.267.4.531.598.798q.892 1.2 1.747 2.426c2.034 2.924 3.959 5.917 5.708 9.02 1.876 3.329 3.549 6.769 5.076 10.271.093.214.879 1.984.208.472s.1.258.189.477q.541 1.335 1.055 2.68a143 143 0 0 1 2.124 5.961c2.607 7.845 4.555 15.899 6.032 24.029.727 4 1.325 8.021 1.873 12.05l-.344-2.56c2.93 21.91 3.378 44.081 4.27 66.141l2.906 71.885c.489 12.095 1.433 24.344-.18 36.393l.344-2.56c-.437 3.094-1.038 6.164-1.913 9.167a51 51 0 0 1-1.399 4.153c-.127.328-.303.679-.407 1.019.692-2.28.609-1.409.316-.788a57 57 0 0 1-1.217 2.474 44 44 0 0 1-2.994 4.85c-.171.241-.35.476-.52.717-1.016 1.432 1.553-1.895.428-.554-1.592 1.896-3.246 3.704-5.092 5.359q-.645.578-1.311 1.133c-.62.517-2.346 1.702.255-.155-1.062.759-2.102 1.54-3.197 2.253a61 61 0 0 1-6.504 3.67c-1.069.522-2.177.96-3.245 1.48.005-.003 2.427-.986 1.057-.454-.28.109-.557.224-.837.333q-.948.37-1.904.717a92 92 0 0 1-7.426 2.328c-5.799 1.563-11.709 2.673-17.658 3.484l2.533-.34c-6.543.873-13.122 1.382-19.712 1.738-8.384.453-16.808.674-25.154-.409l2.448.329c-4.683-.645-9.361-1.672-13.797-3.326-.452-.169-.899-.35-1.348-.527q-.965-.396 1.032.433a47 47 0 0 1-3.494-1.716c-1.71-.932-3.314-2.015-4.946-3.071a57 57 0 0 1-2.369-1.626c-1.415-1.019 1.533 1.273.184.134q-.552-.466-1.101-.935a11 11 0 0 0-1.182-.956q-1.708-1.271.122-.011c-.087-.264-.769-.846-.956-1.061-.273-.315-.564-.851-.909-1.093q1.136 1.49.383.483l-.277-.385a32 32 0 0 1-3.242-5.727q.653 1.572.331.75c-.153-.448-.33-.888-.478-1.339-.32-.974-.619-1.979-.802-2.988-.701-3.882-5.63-6.427-9.254-5.254-4.165 1.348-6.006 5.095-5.254 9.254-.544-3.01.254 1.6.424 2.354q.234 1.04.548 2.058c.586 1.911 1.372 3.784 2.218 5.59a31 31 0 0 0 2.198 3.904c1.064 1.617 2.222 3.591 3.667 4.859l-.69-.882q.698.93 1.424 1.838.376.47.765.93.702.826 1.448 1.613c1.434 1.513 3 3.043 4.746 4.188-2.96-1.94 1.197.896 1.975 1.423q.908.615 1.844 1.183 1.972 1.2 4.055 2.197c14.842 7.103 31.459 7.18 47.566 6.475 24.528-1.073 51.986-4.527 70.558-22.287 4.708-4.502 8.742-10.011 11.406-15.964 3.461-7.736 5.202-15.627 5.989-24.056.663-7.102.499-14.251.227-21.369-.312-8.167-.658-16.332-.988-24.498l-2.008-49.666c-.634-15.694-1.118-31.403-2.047-47.083-1.798-30.359-5.948-61.503-20.648-88.623-12.575-23.199-34.478-42.888-60.146-50.122-12.874-3.628-26.685-3.983-39.6-.354s-24.516 10.875-34.128 20.075c-9.325 8.925-16.974 19.888-22.248 31.662-6.576 14.68-10.148 30.104-12.07 46.027-1.822 15.09-2.038 30.328-1.655 45.506a631 631 0 0 0 3.64 53.567q.155 1.414.315 2.827c.091.795.305 3.479.215 1.57.029.616.169 1.272.251 1.883a704 704 0 0 0 1.866 13.101 629 629 0 0 0 4.067 23.573c3.014 15.684 6.894 31.184 11.303 46.534 2.151 7.489 4.501 14.916 6.973 22.307 1.395 4.172 7.633 2.502 6.616-1.824Z"/><path fill="#f15c5b" d="M860.04 361.298c-24.56-5.735-51.051-5.231-74.263 4.63s-42.674 29.755-48.996 54.17c-3.269 12.624-3.028 25.856-2.766 38.894.192 9.54.686 19.915 6.881 27.172 7.358 8.62 20.12 9.814 31.444 9.342 31.508-1.312 62.646-10.722 89.608-27.078 6.247-3.79 12.373-8.037 16.891-13.779 4.897-6.224 7.625-13.836 10.274-21.3 4.011-11.304 8.075-23.389 5.31-35.061-1.152-4.865-3.463-9.408-6.392-13.46-9.613-13.302-26.317-21.141-42.692-20.034"/><path fill="#f45b5b" d="M860.984 357.874c-8.676-2.274-17.639-3.874-26.549-4.893-9.145-1.047-18.193-.726-27.303.513-16.316 2.218-32.094 8.073-45.36 17.922-6.298 4.676-12.237 9.906-17.105 16.085-5.279 6.7-9.487 13.765-12.744 21.651-6.959 16.847-6.817 35.871-6.255 53.799.275 8.763 1.342 18.252 6.365 25.718 5.131 7.626 13.111 12.381 22.045 14.229 8.214 1.699 16.564 1.561 24.88.925a205 205 0 0 0 27.669-4.011c17.569-3.8 34.655-10.136 50.539-18.544 8.057-4.265 16.096-8.992 22.917-15.091 7.411-6.626 11.827-15.218 15.344-24.362 3.23-8.398 6.513-17.097 7.901-26.021.453-2.912.846-5.855.894-8.806.047-2.878-.285-5.716-.724-8.558-.744-4.82-2.629-9.524-4.994-13.768-4.371-7.845-10.85-14.382-18.293-19.336-3.675-2.446-7.66-4.305-11.765-5.908-4.175-1.63-8.377-2.455-12.852-2.811-2.123-.169-4.29-.259-6.4.025-2.593.348-6.362 1.672-8.115 3.501l4.639-1.921-.381.024c-3.418.217-6.726 2.862-6.56 6.56.151 3.368 2.892 6.792 6.56 6.56l.381-.024-4.639-1.921c1.186.986 2.089 1.529 3.553 2.025.461.157.926.301 1.386.463 1.606.566 2.844 1.013 4.652 1.093l-2.192-.295c.972.201 1.969.291 2.952.423l-2.215-.298c2.691.383 5.334.989 7.928 1.801 2.62.821 5.23 1.518 7.775 2.572l-2.14-.903A51.7 51.7 0 0 1 874.271 383l-1.81-1.398a49 49 0 0 1 8.338 8.32l-1.396-1.807c2.234 2.901 4.135 6.029 5.581 9.396l-.899-2.13a34.8 34.8 0 0 1 2.335 8.469l-.318-2.367c.474 3.675.372 7.359-.109 11.028l.318-2.364c-.754 5.375-2.261 10.596-3.982 15.733-1.627 4.855-3.307 9.719-5.277 14.447l.893-2.115c-1.736 4.109-3.778 8.072-6.478 11.638l1.382-1.789c-2.463 3.176-5.389 5.911-8.562 8.367l1.786-1.38c-4.961 3.787-10.384 6.978-15.85 9.973a190 190 0 0 1-17.104 8.267l2.098-.885a191 191 0 0 1-48.47 13.238l2.319-.312c-9.642 1.281-19.691 2.297-29.39 1.061l2.31.31c-3.387-.457-6.715-1.231-9.879-2.541l2.072.875c-1.964-.841-3.814-1.876-5.526-3.156l1.754 1.355a23.8 23.8 0 0 1-4.143-4.082l1.35 1.748a25.4 25.4 0 0 1-3.078-5.297l.866 2.052c-1.31-3.136-2.059-6.44-2.522-9.798l.304 2.263c-.844-6.439-.842-13.006-.937-19.489-.107-7.235.034-14.483.982-21.665l-.293 2.18c.901-6.565 2.537-12.956 5.093-19.074l-.812 1.923c2.606-6.151 6.021-11.911 10.086-17.209l-1.235 1.599c4.275-5.521 9.039-10.595 14.436-15.036q.432-.355.869-.706c.264-.212 1.463-1.147.425-.346s.173-.129.444-.332q.6-.45 1.208-.89a91 91 0 0 1 4.179-2.852c2.94-1.889 5.99-3.561 9.105-5.138 1.687-.854 3.403-1.631 5.126-2.409.684-.309-.603.25-.588.244.276-.107.549-.229.824-.341q.619-.252 1.24-.497a99 99 0 0 1 3.123-1.168 105 105 0 0 1 11.908-3.45q2.91-.662 5.852-1.167 1.524-.263 3.055-.483l.656-.092c.831-.119-1.027.123-.188.028.517-.059 1.033-.128 1.551-.187 4.133-.469 8.308-.786 12.463-.98 4.643-.217 9.385-.309 14.02.102 4.459.395 8.69 1.107 13.317 2.043 1.878.38 3.835-.541 4.368-2.48.505-1.837-.618-3.88-2.48-4.368Z"/><g fill="#8170f9"><path d="M914.66 565.008c-72.373-24.71-149.244-36.179-225.678-33.673-28.627.939-58.028 4.059-83.387 17.374s-46.022 38.84-46.199 67.481c-.135 21.885 11.647 42.636 27.919 57.272s36.683 23.858 57.365 31.013c55.205 19.1 114.207 24.91 172.622 25.212 34.696.179 72.95-3.013 97.406-27.625 21.486-21.622 26.688-54.663 25.37-85.116-1.022-23.59-11.297-52.844-34.878-54.061"/><path d="M915.876 560.597c-17.345-6.031-34.535-12.506-52.201-17.567-17.629-5.05-35.455-9.119-53.505-12.356a640 640 0 0 0-26.922-4.233 667 667 0 0 0-8.085-1.065c-1.716-.212-.029.002.269.042-1.174-.156-2.318-.314-3.489-.433a633 633 0 0 0-17.557-1.559 633 633 0 0 0-54.62-1.728c-34.786.405-71.721 2.771-102.516 20.645-26.879 15.601-48.785 44.634-47.356 76.88.739 16.664 7.167 32.796 17.197 46.034 10.561 13.938 24.218 24.858 39.555 33.186 15.488 8.409 32.279 14.473 49.108 19.584 17.421 5.291 35.203 9.353 53.147 12.412 36.358 6.197 73.284 8.564 110.138 8.657 29.969.076 62.805-2.21 88.57-19.166 13.335-8.776 24.019-21.076 30.677-35.602 6.786-14.807 9.931-30.742 10.911-46.948.864-14.284.377-29.029-3.396-42.904-3.538-13.012-10.098-26.511-21.725-34.072a28.4 28.4 0 0 0-4.195-2.254l-2.038-.86q2.853 1.233-.8-.322a20 20 0 0 0-1.659-.505c-1.838-.475-3.734-.73-5.616-.942a30 30 0 0 0-2.24-.173c-.303-.011-.617-.026-.921-.017l-2.037.274q1.895-.225.629-.241c-3.936-.235-7.697 3.628-7.523 7.523.192 4.277 3.307 7.271 7.523 7.523 1.561.093-1.252-.441-.404.021.291.159.792.176 1.115.259q.877.224 1.737.506c.371.122 2.53.965 1.107.372-1.379-.575-.027.007.211.122.389.188.767.4 1.153.594a32 32 0 0 1 3.196 1.818c.545.357 1.054.769 1.597 1.126-2.355-1.546-.384-.266.236.294a49 49 0 0 1 2.836 2.771q.691.734 1.342 1.505c.194.23.378.47.576.697.6.688-1.39-1.927-.285-.367 1.68 2.373 3.195 4.82 4.491 7.426q.484.975.934 1.967c.134.296.259.596.396.891.508 1.099-.885-2.224-.246-.573.567 1.463 1.124 2.926 1.617 4.417a85 85 0 0 1 2.409 8.972q.468 2.215.829 4.449c.106.658.18 1.323.299 1.978-.56-3.087-.047-.29.042.523.352 3.227.512 6.463.588 9.707.17 7.224-.041 14.461-.744 21.654a150 150 0 0 1-.425 3.848c-.03.241-.247 2.221-.063.525s-.046.276-.082.519q-.087.587-.179 1.173-.23 1.463-.492 2.921a123 123 0 0 1-2.388 10.631 112 112 0 0 1-3.347 10.25c-.274.722-.566 1.437-.849 2.155-.736 1.869.721-1.629.173-.406-.197.439-.386.881-.584 1.32a87 87 0 0 1-2.275 4.657 79 79 0 0 1-5.725 9.293c-.44.613-1.005 1.197-1.372 1.852 1.114-1.986.719-.933.233-.332q-.365.45-.735.894a72 72 0 0 1-9.401 9.347c-.364.302-.735.595-1.102.895-1.387 1.135 1.688-1.229.125-.098-2.744 1.985-5.539 3.86-8.49 5.527a86 86 0 0 1-6.52 3.324q-.642.294-1.287.579c-1.966.867 1.052-.417.179-.065-3.263 1.311-6.56 2.505-9.928 3.519-6.872 2.07-13.9 3.451-20.991 4.513-.573.086-1.829.219.76-.097-.39.047-.778.102-1.168.151q-1.463.184-2.927.346-2.642.292-5.291.518c-3.731.319-7.47.545-11.212.701-16.212.675-32.506.27-48.71-.433-17.536-.761-35.052-2.14-52.467-4.354q-.888-.113-1.774-.229l-.52-.066c1.586.206-.753-.104-.873-.12l-1.417-.197a508 508 0 0 1-19.757-3.175 451 451 0 0 1-25.838-5.461c-16.715-4.057-33.294-9.041-49.266-15.45-.816-.327-1.629-.662-2.442-.996-1.56-.639.214.107.444.192-.513-.19-1.012-.432-1.514-.65a198 198 0 0 1-5.7-2.577c-3.663-1.728-7.271-3.574-10.8-5.563s-6.952-4.105-10.28-6.389c-1.528-1.049-3.485-2.101-4.769-3.445.158.165 1.692 1.336.374.287q-.513-.407-1.023-.816a113 113 0 0 1-2.766-2.307 97 97 0 0 1-8.219-7.96 93 93 0 0 1-3.599-4.172q-.385-.476-.766-.956c-1.019-1.273.258.301.366.476-.528-.859-1.225-1.645-1.807-2.47a85 85 0 0 1-6.027-9.895c-.792-1.53-1.505-3.091-2.221-4.657-.57-1.247.887 2.261.14.326-.145-.376-.299-.749-.444-1.125a73 73 0 0 1-1.028-2.84 68 68 0 0 1-2.714-10.796c-.078-.476-.083-1.032-.228-1.488.055.173.278 2.405.115.746-.089-.901-.181-1.801-.242-2.705a61 61 0 0 1 .223-10.748c.041-.372.095-.744.133-1.116-.275 2.698-.211 1.487-.104.876.178-1.012.342-2.023.551-3.029a66 66 0 0 1 2.889-9.916c.261-.691.608-1.377.824-2.082-.885 2.883.07-.097.395-.79a75 75 0 0 1 2.31-4.505 81 81 0 0 1 5.854-9.03c.227-.304.463-.603.688-.909-1.486 2.025-.804 1.03-.444.592.545-.662 1.08-1.331 1.635-1.986a91 91 0 0 1 3.646-4.044 94 94 0 0 1 9.8-8.883c1.258-1.002-.435.378-.576.445.402-.189.791-.595 1.153-.861a97 97 0 0 1 4.487-3.111 99 99 0 0 1 9.378-5.396 118 118 0 0 1 5.135-2.441c.508-.227 1.02-.445 1.529-.669 1.321-.581-2.221.882-.143.068 1.035-.406 2.064-.824 3.103-1.216a139 139 0 0 1 11.725-3.821c7.859-2.191 15.879-3.791 23.954-4.943.178-.025 2.392-.309.734-.105s.561-.068.738-.09q1.34-.168 2.682-.321a281 281 0 0 1 6.722-.684c4.036-.363 8.08-.644 12.126-.866 35.144-1.929 70.291-.232 105.285 3.206a641 641 0 0 1 19.596 2.233l1.422.186c1.613.211.244.03-.069-.01 1.311.169 2.62.359 3.928.545a619 619 0 0 1 25.963 4.227c.59.109 1.178.232 1.767.34.762.139 3.583.603 1.782.288q1.42.249 2.841.502 3.549.636 7.09 1.311 6.37 1.215 12.715 2.559c8.687 1.841 17.366 3.716 25.994 5.826 8.402 2.056 16.684 4.314 24.889 7.054 2.343.782 4.997-.904 5.626-3.195.692-2.518-.853-4.812-3.195-5.626Z"/></g><g fill="#8170f9"><path d="M708.631 784.071c-28.645-18.755-62.235-29.881-96.412-31.933-17.968-1.079-39.47 2.458-47.199 18.716-3.845 8.09-3.221 17.514-2.238 26.417 3.275 29.663 9.916 59.7 26.016 84.827 16.101 25.127 43.065 44.736 72.89 45.78 24.342.852 48.379-10.982 64.124-29.565s23.424-43.339 23.037-67.692c-.176-11.054-2.052-22.404-7.882-31.797-8.776-14.14-24.891-21.645-40.105-28.389"/><path d="M710.727 780.485c-9.349-7.098-19.235-13.336-29.818-18.421a197 197 0 0 0-7.747-3.518 293 293 0 0 0-5.078-2.127q-1.02-.415-2.046-.819c-.553-.218-1.47-.825-2.054-.796l.909.391a13.3 13.3 0 0 0-2.143-.863l-.824-.311q-1.029-.394-2.06-.78a202 202 0 0 0-4.141-1.491 106 106 0 0 0-8.402-2.545c-6.952-1.795-14.01-3.252-21.126-4.205l2.256.303c-8.757-1.212-17.612-2.27-26.469-1.908-7.683.314-15.642 1.404-22.821 4.278-3.783 1.515-7.376 3.221-10.624 5.702-3.758 2.872-6.9 6.001-9.487 10.009-5.449 8.442-6.37 18.891-5.624 28.672s2.172 19.6 3.897 29.265c1.616 9.052 3.689 18.03 6.414 26.815 5.599 18.049 13.874 35.14 25.737 49.904 10.395 12.937 23.934 24.017 39.154 30.762 4.162 1.844 8.394 3.519 12.774 4.774 4.48 1.283 9.028 2.062 13.646 2.652 8.763 1.121 17.666.516 26.306-1.257 17.497-3.59 33.957-12.994 46.465-25.671 12.931-13.106 21.887-30.031 26.377-47.828a120.4 120.4 0 0 0 3.618-27.548c.14-9.568-.758-19.538-3.958-28.608-3.221-9.129-8.528-17.263-15.834-23.652-6.65-5.816-14.211-10.342-22.125-14.204-4.644-2.266-9.439-4.529-14.68-4.873l4.04 1.093-.354-.157c-2.034-.902-3.934-1.422-6.168-.807-1.857.511-3.869 1.947-4.784 3.679-.981 1.858-1.473 4.108-.807 6.168.6 1.855 1.816 3.958 3.679 4.784l.354.157-1.62-1.252c1.311 1.274 2.967 2.234 4.477 3.26a24.7 24.7 0 0 0 3.562 2.013 178 178 0 0 1 7.23 3.547c4.705 2.455 9.267 5.195 13.48 8.431l-1.823-1.408c3.516 2.733 6.738 5.805 9.491 9.311l-1.407-1.821a45.5 45.5 0 0 1 5.783 9.862l-.906-2.147c2.059 4.909 3.309 10.084 4.024 15.351l-.321-2.385c1.156 8.893.948 17.971-.223 26.851l.32-2.38c-1.261 9.291-3.682 18.393-7.305 27.044l.9-2.133c-3.216 7.59-7.338 14.76-12.38 21.286l1.393-1.803a87 87 0 0 1-15.259 15.222l1.802-1.392a86.7 86.7 0 0 1-18.811 11.032l2.126-.897c-6.452 2.718-13.21 4.622-20.147 5.583l2.365-.318a73.8 73.8 0 0 1-19.443.011l2.363.318c-6.88-.949-13.578-2.846-19.981-5.529l2.123.896c-7.388-3.134-14.295-7.268-20.655-12.154l1.798 1.389c-7.326-5.672-13.868-12.294-19.534-19.621l1.388 1.796c-6.723-8.757-12.091-18.475-16.394-28.628l.894 2.119c-5.765-13.708-9.558-28.158-12.151-42.78a310 310 0 0 1-1.951-12.574l.316 2.355c-1.147-8.566-2.534-17.435-1.416-26.072l-.316 2.353c.38-2.698 1.032-5.324 2.06-7.85l-.892 2.114a28 28 0 0 1 3.588-6.143l-1.384 1.791a29.4 29.4 0 0 1 4.92-4.88l-1.791 1.384c2.559-1.968 5.38-3.514 8.345-4.779l-2.11.89c4.596-1.92 9.454-3.076 14.379-3.754l-2.318.311c11.699-1.556 23.574-.324 35.207 1.23l-2.226-.299c3.342.454 6.673.986 9.988 1.605 3.852.72 7.674 1.785 11.561 2.251l-2.096-.282a180 180 0 0 1 23.889 6.485c3.851 1.334 7.646 2.808 11.417 4.356.778.319-.99-.425-.212-.09l.608.26c.473.203.942.413 1.411.622.792.354 1.592.68 2.401.99.115.044.794.335.125.051a196 196 0 0 1 6.173 2.755 200 200 0 0 1 12.523 6.399c1.899 1.055 4.619.522 5.682-1.49 1.157-2.19.365-4.274-1.49-5.682Z"/></g><path d="M443.356 265.932c-47.382 2.741-102.803-2.784-136.402-40.403-22.997-25.748-19.262-69.288 4.908-93.938s64.027-30.293 96.144-17.631c5.903 2.327 11.61 5.213 16.76 8.919 15.841 11.4 25.388 29.919 29.784 48.935s4.282 75.753 4.034 95.268"/><path d="M443.356 260.997c-11.388.523-22.811.656-34.175-.346a256 256 0 0 1-8.872-.935q-.924-.115-1.848-.235c-1.345-.172 1.457.204.123.017l-1.096-.153q-2.192-.312-4.378-.667a198 198 0 0 1-16.973-3.507c-6.287-1.598-12.483-3.543-18.537-5.875l1.834.774c-2.847-1.213-5.767-2.245-8.621-3.444l1.867.788c-9.351-3.959-18.233-8.969-26.288-15.166l1.688 1.304c-6.232-4.829-12.105-10.339-16.947-16.578l1.368 1.77c-3.258-4.251-6.004-8.819-8.111-13.746l.886 2.099c-2.294-5.45-3.809-11.181-4.604-17.038l.314 2.336c-.851-6.502-.811-13.081.045-19.58l-.314 2.336a77.6 77.6 0 0 1 5.25-19.366l-.886 2.099c2.428-5.751 5.55-11.179 9.366-16.122l-1.374 1.778c3.664-4.698 7.937-8.865 12.642-12.515l-1.778 1.374c5.48-4.209 11.489-7.655 17.85-10.348l-2.099.886c7.431-3.109 15.252-5.158 23.23-6.238l-2.333.313a98.2 98.2 0 0 1 25.73.031l-2.319-.312a95.7 95.7 0 0 1 24.222 6.622l-2.071-.874c5.731 2.448 11.205 5.451 16.147 9.264l-1.746-1.349c4.415 3.452 8.332 7.463 11.769 11.885l-1.344-1.739c4.401 5.726 7.949 12.039 10.772 18.68l-.862-2.042c3.271 7.782 5.62 15.93 6.749 24.297l-.303-2.258c.317 2.382.595 4.767.917 7.148l-.302-2.245c1.373 10.222 2.15 20.525 2.802 30.814.354 5.583.809 11.158 1.206 16.739a1256 1256 0 0 1 .798 11.987c.05.812.097 1.616.205 2.423.269 2.005-.11-.026-.061-.18-.037.115.015.321.016.442.004.341.033.684.05 1.024q.185 3.86.35 7.723c.123 2.894.514 6.913 2.35 9.249l-1.234-2.979c-.01 1.27.315 2.598.52 3.857.225 1.379.307 2.567 1.301 3.683l-.97-2.341-.007.522c-.054 4.261 6.566 4.264 6.62 0l.007-.522-.97 2.341c.999-1.066 1.105-2.332 1.353-3.683.232-1.264.561-2.573.571-3.857l-1.234 2.979c1.338-1.645 1.559-3.596 1.991-5.606.407-1.894.437-3.828.529-5.756.169-3.564.326-7.125.509-10.687.408-7.945.845-15.908.962-23.863.116-7.875.005-15.77-.251-23.641-.229-7.055-.69-14.032-1.803-21.01-1.379-8.649-4.298-17.016-7.832-25.003-4.138-9.352-9.918-18.14-17.145-25.4-8.319-8.357-18.517-14.078-29.467-18.242-9.064-3.447-18.649-5.353-28.302-6.139-19.121-1.558-38.905 2.399-55.734 11.677-8.279 4.564-16.055 10.596-22.239 17.766-6.455 7.483-11.281 15.867-14.78 25.093-6.383 16.83-7.2 36.508-1.468 53.638 3.083 9.214 7.841 17.661 14.473 24.787 6.562 7.051 14.185 13.206 22.326 18.342 7.98 5.034 16.619 9.017 25.481 12.229 8.44 3.059 17.292 5.011 26.148 6.412 18.332 2.902 36.918 3.22 55.438 2.601 4.304-.144 8.605-.372 12.901-.668 2.57-.177 5.06-2.143 4.935-4.935-.115-2.572-2.173-5.062-4.935-4.935Zm-10.768 53.383c-86.77-20.428-176.309-29.058-265.383-25.577-16.412.641-33.159 1.769-48.348 8.019-25.125 10.34-43.628 35.142-46.565 62.153-2.938 27.01 9.723 55.126 31.786 70.982 19.024 13.671 43.036 18.034 66.258 21.119 69.426 9.222 139.663 10.266 209.699 10.166 42.875-.061 77.867-27.339 88.965-68.526 11.633-43.176-14.306-72.34-55.568-82.639"/><path d="M433.612 310.666c-9.401-2.492-18.868-4.698-28.295-7.082-4.575-1.157-9.088-2.615-13.631-3.898-4.691-1.324-9.375-2.404-14.152-3.386a983 983 0 0 0-42.574-7.777c-2.266-.363-4.531-.745-6.799-1.094-.981-.151-1.97-.26-2.955-.387 1.536.199.207.025-.087-.016-1.878-.261-3.757-.509-5.636-.759-38.271-5.093-76.794-7.945-115.402-8.349-18.765-.197-37.778-.431-56.466 1.506-17.902 1.856-35.68 6.297-50.314 17.247-13.652 10.215-23.906 23.433-30.413 39.19-6.333 15.335-7.428 32.154-4.227 48.359s11.313 31.487 22.516 43.558c11.99 12.919 27.978 21.225 44.689 26.293 17.391 5.274 35.702 7.283 53.691 9.367 19.454 2.254 38.979 3.945 58.523 5.193 39.266 2.507 78.622 3.193 117.959 3.309 16.678.049 33.316.336 49.425-4.665 13.91-4.318 26.7-11.558 37.517-21.309 10.277-9.264 18.607-20.956 24.094-33.649 5.835-13.498 9.706-28.38 8.475-43.19-1.097-13.183-5.704-25.97-14.496-35.991-8.464-9.648-19.174-16.959-30.96-21.939-3.071-1.298-6.193-2.548-9.393-3.495-3.25-.962-7.166-1.308-10.052-2.035-5.71-1.439-8.146 7.381-2.432 8.821 4.291 1.081 7.61 2.969 11.841 4.66q.499.2.995.403c1.627.659-.964-.444.623.266.8.357 1.601.71 2.394 1.081a92 92 0 0 1 5.521 2.81 82 82 0 0 1 9.24 5.925c.188.14 1.481 1.155.306.222.377.3.755.598 1.128.903a73 73 0 0 1 1.826 1.545 67 67 0 0 1 4.104 3.913c.54.561 1.045 1.159 1.59 1.714l.314.344q-1.186-1.522.57.743c-.108-.143-.86-1.156-.183-.227 1.078 1.482 2.121 2.979 3.075 4.545.873 1.432 1.736 2.87 2.538 4.343q.548 1.005 1.054 2.033c.506 1.028.651 1.931 1.155 2.502-.952-1.077-.376-.91-.04-.053q.21.536.408 1.074.439 1.192.822 2.403a55.4 55.4 0 0 1 1.852 7.78c.065.395.113.794.182 1.189.194 1.101-.218-2.044-.06-.374.185 1.965.345 3.919.376 5.894a65 65 0 0 1-.122 5.105 74 74 0 0 1-.269 3.146l-.059.53q-.127 1.072.018-.017.152-1.09.005-.014-.075.537-.158 1.074c-.635 4.121-1.616 8.181-2.845 12.164a100 100 0 0 1-2.006 5.851c-.328.868-.677 1.728-1.02 2.59-.731 1.834.816-1.814.007-.025-.301.667-.594 1.337-.902 2.001a95 95 0 0 1-5.672 10.48 92 92 0 0 1-3.303 4.87c-.517.717-1.096 1.402-1.588 2.136 1.643-2.45-.424.493-.885 1.047a89.6 89.6 0 0 1-12.292 12.151c-.404.328-.837.635-1.227.98 1.97-1.743 1.047-.794.484-.382-.911.668-1.818 1.339-2.747 1.983a90 90 0 0 1-9.848 5.941c-1.717.891-3.467 1.701-5.228 2.5s1.915-.761.679-.279c-.41.16-.814.334-1.223.497q-1.477.587-2.973 1.121a92 92 0 0 1-11.868 3.352 94 94 0 0 1-5.375.974c-.767.116-2.803.243.58-.066-.548.05-1.095.135-1.642.196a100 100 0 0 1-3.314.308c-4.58.346-9.139.225-13.726.195-23.272-.152-46.536-.097-69.806-.618-23.512-.527-47.019-1.464-70.483-3.079-11.464-.789-22.919-1.726-34.35-2.899a981 981 0 0 1-25.693-2.979q-1.167-.152-2.332-.306c-2.583-.337 1.714.236.19.027-1.44-.198-2.88-.395-4.319-.602-9.777-1.404-19.537-3.104-29.064-5.747a136 136 0 0 1-7.034-2.151c-2.476-.833-4.962-2.156-7.475-2.8.191.049 2.429 1.07.761.312-.603-.274-1.211-.538-1.813-.817a99 99 0 0 1-2.981-1.442 87 87 0 0 1-6.932-3.903c-1.99-1.245-4.082-2.523-5.871-4.047.094.08 2.142 1.718.789.599-.461-.382-.929-.753-1.387-1.139a75.5 75.5 0 0 1-9.272-9.31c-.384-.459-.756-.927-1.136-1.389-1.327-1.613 1.619 2.167.067.082a80 80 0 0 1-8.402-14.126c-.252-.544-.492-1.093-.738-1.639-.888-1.969.831 2.072.294.693-.835-2.141-1.637-4.285-2.317-6.481a80 80 0 0 1-2.83-12.836l.394 2.933a77 77 0 0 1 .058-20.202l-.395 2.942a75.2 75.2 0 0 1 3.699-14.918c.344-.954.681-2.748 1.368-3.518.112-.126-1.035 2.358-.535 1.291.123-.263.235-.532.355-.797q.48-1.06.992-2.104a79 79 0 0 1 3.798-6.869c1.33-2.146 2.782-4.2 4.281-6.229.686-.929-.867 1.196-.817 1.059.092-.253.536-.672.728-.909a79 79 0 0 1 3.832-4.375 78 78 0 0 1 5.439-5.239c.948-.828 1.929-1.614 2.902-2.412.896-.735-1.146.925-1.048.806.199-.242.661-.497.93-.696a73.5 73.5 0 0 1 8.312-5.306 72 72 0 0 1 4.939-2.46c2.158-.972-1.976.767-.035.001 6.058-2.389 12.322-4.095 18.733-5.237 1.426-.254 2.856-.474 4.288-.69 1.895-.285-.434.069-.682.087.36-.026.723-.092 1.081-.135q1.263-.154 2.528-.29c3.257-.349 6.524-.606 9.794-.813 6.602-.416 13.216-.699 19.825-.965 27.26-1.097 54.549-.993 81.81.023s54.365 3.29 81.442 6.198a982 982 0 0 1 20.522 2.423 905 905 0 0 1 19.109 2.678c6.943 1.045 13.993 1.431 20.968 2.28 6.55.797 13.09 2.296 19.566 3.559q5.1.995 10.188 2.041c4.815.989 6.883-6.147 2.048-7.428Zm123.249-167.093c-6.53 2.652-12.725 6.187-17.943 10.955-5.167 4.721-9.623 10.269-13.392 16.156-8.053 12.579-12.529 27.087-14.6 41.799-2.465 17.509-1.936 35.114-1.006 52.719.925 17.507 2.077 34.988 3.297 52.477l1.857 26.612c.578 8.267 1.339 16.533 1.727 24.811.721 15.38.557 30.746 2.695 46.029.998 7.13 2.54 14.218 5.171 20.936 1.534 3.916 3.422 8.33 6.263 11.53-1.996-2.248-.884-1.02-.386-.285q.41.601.837 1.19a97 97 0 0 0 3.244 4.22 61 61 0 0 0 4.293 4.745 58 58 0 0 0 2.135 2.03c.65.584 1.242 1.053 1.999 1.601-1.906-1.378-1.273-1.031-.884-.623.442.463.954.874 1.436 1.295a87 87 0 0 0 11.889 8.741 87 87 0 0 0 5.965 3.322c.56.284 1.122.566 1.689.835.653.31 1.252.581 1.972.849-2.137-.793-1.056-.42-.548-.17a96 96 0 0 0 3.154 1.479c4.771 2.134 9.651 4.007 14.663 5.493 9.733 2.886 19.921 4.487 30.059 4.913 10.05.423 20.226-.447 30.048-2.628 9.274-2.06 18.522-5.114 26.87-9.691a67 67 0 0 0 5.625-3.45 68 68 0 0 0 2.648-1.915q1.314-.995 2.606-2.02c.234-.186.469-.371.697-.563q.645-.526-.376.284-1.754 1.368 1.086-.834c3.731-3.271 6.948-7.236 9.783-11.286 8-11.425 11.431-25.494 12.914-39.168 1.811-16.699-.304-33.423-2.317-50-2.091-17.214-4.53-34.384-6.661-51.593-2.148-17.344-4.058-34.762-4.824-52.229-.733-16.704.131-33.432-.557-50.138-.364-8.854-1.193-17.713-2.777-26.437a90 90 0 0 0-6.663-21.335c-2.906-6.403-6.752-12.304-11.393-17.587a56.5 56.5 0 0 0-6.858-6.62c-.715-.579-1.445-1.134-2.175-1.695 2.413 1.853-.161-.172-1.024-.767a44 44 0 0 0-1.778-1.159 47 47 0 0 0-4.076-2.261c-6.557-3.213-13.198-4.756-20.43-5.433-3.615-.339-7.078 3.425-6.921 6.921.181 4.039 3.048 6.558 6.921 6.921-2.114-.198-.248-.019.295.08q.95.173 1.889.393c1.176.275 2.334.611 3.482.986.117.038.637.283.806.264l-.959-.399 1.743.736c-2.157-.926-.123-.031.36.201a42 42 0 0 1 3.15 1.68q1.55.915 3.021 1.949c.237.167 1.895 1.446.732.508-1.113-.898.558.458.839.694 1.861 1.561 3.699 3.155 5.403 4.888a59 59 0 0 1 3.634 4.06c.185.227.366.458.55.685.645.794-1.224-1.638-.385-.499 1.486 2.019 2.926 4.072 4.236 6.21a71 71 0 0 1 4.442 8.488c.804 1.82-.74-1.833.008.009q.753 1.854 1.404 3.747c2.114 6.143 3.314 12.562 4.19 18.986l-.306-2.277c1.901 14.337 1.81 28.827 1.734 43.26-.078 14.676.294 29.253 1.516 43.883 2.523 30.195 7.28 60.137 10.765 90.224 1.864 16.098 3.505 32.34 1.353 48.5l.306-2.279c-.835 6.017-2.17 11.963-4.212 17.69-.388 1.087-.876 2.148-1.242 3.241-.037.11.973-2.246.488-1.162l-.251.57q-.285.636-.585 1.265a55.6 55.6 0 0 1-5.104 8.601c-.234.323-.476.64-.711.962-.544.747 1.347-1.712.768-.991q-.186.234-.37.469a58 58 0 0 1-1.624 1.944c-2.144 2.452-4.497 4.772-6.938 6.927a63 63 0 0 1-1.813 1.54c-.307.251-.621.495-.929.745-.866.702 1.889-1.427.314-.251a69 69 0 0 1-4.099 2.835 75.5 75.5 0 0 1-8.83 4.835c-.699.325-1.404.637-2.111.945-1.404.613 1.732-.706.297-.128q-.654.266-1.31.524a53 53 0 0 1-4.922 1.66 98 98 0 0 1-10.285 2.287c-.85.142-1.702.27-2.555.394-1.558.227 1.83-.227.265-.037q-.725.09-1.452.173-2.676.3-5.363.467c-3.61.226-7.232.277-10.847.16s-7.26-.403-10.867-.854l-.655-.084c-.761-.092 1.229.142 1.053.142-.425 0-.888-.125-1.308-.188a116 116 0 0 1-8.095-1.502 112 112 0 0 1-10.391-2.835 106 106 0 0 1-7.405-2.721c-1.425-.578 1.618.703.21.091q-.658-.284-1.312-.575a76 76 0 0 1-9.132-4.882 85 85 0 0 1-4.241-2.82 100 100 0 0 1-1.975-1.448c-1.227-.918 1.485 1.182.297.23-.353-.283-.709-.564-1.059-.85a72 72 0 0 1-3.72-3.258 89 89 0 0 1-1.707-1.658c-.133-.132-.261-.322-.422-.417-.488-.288.732 1.015.719.998-.645-.876-1.29-1.641-1.988-2.447a66 66 0 0 1-1.516-1.813c-.426-.529-1.344-1.82.336.456-.259-.35-.527-.694-.784-1.045a59 59 0 0 1-2.672-3.966c-.785-1.276-1.371-2.864-2.289-4.035l.623 1.524-.867-2.054c-.081-.176-.175-.346-.257-.522-.192-.409-.39-.815-.577-1.226-.134-.293-.261-.589-.394-.882-.598-1.322.281.719.324.771-.434-.538-.618-1.581-.863-2.229-1.905-5.045-3.546-10.072-4.628-15.367a121 121 0 0 1-1.316-7.857l.32 2.384c-2.206-16.623-1.463-33.428-2.732-50.117-1.549-20.371-3.316-40.727-4.998-61.088-1.648-19.956-4.242-39.878-5.205-59.884-.472-9.81-.447-19.677.611-29.45q.094-.867.199-1.732c.035-.284.05-.584.108-.865-.017.084-.162 1.144-.047.347.181-1.255.369-2.509.582-3.759.358-2.099.77-4.189 1.25-6.264a100 100 0 0 1 3.254-11.106c.338-.945.702-1.88 1.059-2.819.42-1.104-.365.829.101-.258.359-.837.679-1.685 1.018-2.529.255-.634-.143.319-.153.36.054-.213.19-.439.278-.641q.28-.64.569-1.274.626-1.373 1.298-2.723a81.5 81.5 0 0 1 5.816-9.906 76 76 0 0 1 1.59-2.221c.175-.235.832-1.074.304-.41.332-.418.663-.836 1.002-1.249a68 68 0 0 1 3.786-4.248c2.594-2.675 5.321-5.47 8.181-7.689 1.324-1.027 2.976-2.149 4.497-3.105 1.387-.872 2.026-2.605 1.354-4.133-.599-1.364-2.356-2.546-3.905-1.917Zm189.433 353.378q.274-2.713.496-5.431c.067-.819.174-1.649.193-2.47.037-1.591-.199 1.078.06-.85.095-.706.089-1.403.107-2.114.086-3.541.128-7.084.156-10.626.057-7.166-.117-14.324-.122-21.49-.005-7.065.175-14.135.784-21.176q.213-2.458.497-4.908c.057-.491.121-.98.179-1.471.193-1.623-.149 1.031-.021.131a120 120 0 0 1 1.869-10.301c1.216-5.352 2.822-10.613 4.865-15.709.135-.336.349-.708.432-1.06-.339 1.429-.31.727-.102.246q.414-.959.849-1.907a87 87 0 0 1 1.826-3.741 80 80 0 0 1 3.973-6.827 73 73 0 0 1 2.343-3.385c.319-.434 1.735-1.914.351-.484.508-.525.936-1.172 1.407-1.732a63 63 0 0 1 5.645-5.911 60 60 0 0 1 2.825-2.438q.365-.292.732-.583c.702-.56-1.371 1.017-.299.238.607-.441 1.211-.887 1.829-1.314a68 68 0 0 1 5.689-3.505 73 73 0 0 1 6.112-3.021l.648-.28c.532-.233-1.867.773-.463.202q.78-.317 1.568-.617a75 75 0 0 1 3.167-1.124 74.3 74.3 0 0 1 13.289-3.092l-1.888.254c7.725-1.021 15.555-.944 23.276.08l-2.04-.274c8.531 1.157 16.875 3.472 24.809 6.809l-1.983-.837c6.617 2.805 12.917 6.318 18.748 10.521l-1.787-1.381c1.65 1.295 3.363 2.499 5.024 3.779l-1.798-1.389c5.393 4.182 10.298 8.976 14.478 14.376l-1.425-1.845c3.458 4.501 6.38 9.393 8.593 14.623l-.938-2.223c1.946 4.654 3.303 9.528 3.99 14.528l-.339-2.52a59.5 59.5 0 0 1-.016 15.577l.342-2.542c-.758 5.55-2.304 10.947-4.462 16.111l.963-2.281a79.5 79.5 0 0 1-10.117 17.392l1.491-1.93c-3.429 4.408-7.417 8.321-11.818 11.755l1.927-1.489c-6.185 4.775-13.077 8.524-20.255 11.579l2.253-.951c-10.787 4.543-22.185 7.208-33.76 8.774l2.385-.32a258 258 0 0 1-14.101 1.453c-5.273.407-10.648.462-15.819 1.675l2.144-.288c-5.796.311-11.59.834-17.366 1.397q-2.077.202-4.155.421c-.733.077-1.466.152-2.198.238q-.586.063-1.171.152-1.608.228-.488.055c1.119 0-.278.006-.538.033a304 304 0 0 0-6.34.744l-1.218.16c-.323.043-3.294.362-1.217.165-1.761.167-3.306.613-4.596 1.904-1.127 1.127-1.976 2.977-1.904 4.596.145 3.247 2.875 6.843 6.5 6.5 5.721-.541 11.585-.378 17.325-.329 5.785.049 11.58.219 17.366.094l-2.144-.288c3.333.514 6.601.718 9.964.596a373 373 0 0 0 8.049-.372c5.436-.313 10.864-.775 16.264-1.48 9.533-1.245 18.93-3.051 28.032-6.208 8.764-3.04 17.249-7.026 24.776-12.486 3.983-2.889 7.819-6.005 11.232-9.557 3.359-3.496 6.344-7.379 9.013-11.422 7.972-12.075 13.122-26.283 13.283-40.845.141-12.735-4.025-25.644-10.911-36.288-7.065-10.921-16.786-20.16-27.878-26.926-10.98-6.697-23.427-11.402-36.106-13.575-13.481-2.31-27.061-2.092-40.39 1.101-14.119 3.383-27.828 10.577-37.771 21.262-12.085 12.987-18.992 30.123-22.093 47.411-3.83 21.354-2.363 43.119-1.091 64.63q.118 1.977.22 3.954c.034.658.074 1.318.098 1.976.017.469.039.906.102 1.373l.085.632q-.08-.537-.026-.029c.033 2.704.429 5.445.587 8.148.121 2.071 1.74 4.072 3.972 3.972 2.33-.104 3.749-1.75 3.972-3.972Zm-487.166 6.211c-3.519-.96-7.033-1.991-10.563-2.894-1.77-.453-3.581-.809-5.363-1.22-2.021-.466-4.1-1.108-6.145-1.382q-1.52-.21-.128-.007l-.684-.105a561 561 0 0 0-4.109-.614c-2.042-.298-4.086-.58-6.132-.855a446 446 0 0 0-12.036-1.466l1.922.258c-5.581-.873-11.395-.921-17.037-1.063a234 234 0 0 0-15.524.103c-10.931.452-21.849 1.776-32.517 4.229-9.284 2.135-18.255 5.195-26.825 9.37-8.01 3.902-15.398 8.757-22.41 14.236-13.014 10.169-24.221 23.492-30.746 38.75-1.818 4.251-3.453 8.54-4.59 13.028-1.146 4.52-1.852 9.174-2.244 13.817-.665 7.877-.083 15.817 1.212 23.601 1.184 7.116 3.423 13.868 6.317 20.462 2.738 6.239 6.389 11.857 10.562 17.222 7.74 9.95 18.071 18.069 29.342 23.667 12.337 6.128 25.617 9.587 39.343 10.586 13.27.966 26.966-.685 39.636-4.738 15.208-4.864 28.97-13.115 40.802-23.806 6.746-6.096 12.683-13.059 17.885-20.51 5.176-7.413 9.626-15.495 12.44-24.105 1.441-4.407 2.77-8.976 3.289-13.592l-.284 2.112c2.202-8.168 2.977-16.626 3.526-25.039.311-4.774.39-9.519.38-14.302-.005-2.467.004-4.937-.05-7.404-.052-2.378.154-4.781.244-7.161.207-5.517.325-11.035.447-16.554.073-3.307-2.959-6.47-6.319-6.319-3.486.156-6.241 2.776-6.319 6.319-.139 6.343-.419 12.687-.745 19.024q-.057 1.112-.117 2.222c-.022.407-.086.828-.068 1.235q-.043.557.045-.124.22-1.418-.173 1.358c-.191 1.563-.367 3.127-.557 4.69q-.587 4.815-1.232 9.621l.265-1.971c-.797 5.92-1.126 11.889-1.904 17.812l.276-2.056c-.662 4.889-1.735 9.666-3.018 14.426l.801-1.898c-1.264 2.815-2.202 5.77-3.393 8.619l.85-2.015a110 110 0 0 1-3.661 7.792c-1.329 2.569-2.486 5.217-3.869 7.762a111 111 0 0 1-9.474 14.541l1.413-1.829a111.3 111.3 0 0 1-19.71 19.783l1.831-1.414c-6.898 5.327-14.391 9.819-22.422 13.217l2.163-.913a99 99 0 0 1-24.887 6.776l2.409-.324a100 100 0 0 1-26.312.024l2.412.324c-8.254-1.117-16.347-3.276-24.026-6.509l2.169.915c-6.694-2.842-13.026-6.488-18.785-10.934l1.839 1.421c-5.083-3.952-9.672-8.502-13.621-13.59l1.422 1.841a74.3 74.3 0 0 1-9.518-16.288l.917 2.174c-2.68-6.379-4.452-13.091-5.382-19.944l.325 2.421c-.96-7.275-1.08-14.728-.119-22.009l-.326 2.423c.883-6.438 2.645-12.707 5.164-18.695l-.92 2.179c2.883-6.768 6.689-13.088 11.182-18.907l-1.427 1.848c5.361-6.889 11.63-13.013 18.521-18.363l-1.849 1.429a117.8 117.8 0 0 1 25.952-15.144l-2.185.922c1.402-.589 2.8-1.187 4.2-1.779l-2.179.92c12.56-5.264 25.975-8.278 39.436-10.105l-2.211.297c10.672-1.421 21.438-1.968 32.199-1.945 5.349.011 10.698-.015 16.047.068q4.063.064 8.125.196c1.295.041 2.648.216 3.939.169l.792-.106q1.517-.228.134.023c.048-.054.94-.022.926-.021l2.312-.048c5.982-.115 11.949-.299 17.931-.486 3.207-.1 3.984-4.797.768-5.674Zm314.866 242.995c3.945.548 7.886 1.07 11.833 1.603-.868-.117.657.092.662.093q.697.097 1.394.198c1.23.177 2.437.397 3.68.495 1.913.152 3.823.352 5.732.553q2.626.276 5.248.596c.954.116 1.907.24 2.86.361 1.603.204-1.207-.17.381.05q.942.13 1.883.263c.784.112 1.569.224 2.352.345.842.129 1.676.252 2.523.362 1.615.209-1.299-.188.307.039 1.889.268 3.778.539 5.663.833a323 323 0 0 1 44.21 10.127c7.379 2.246 14.701 4.714 21.818 7.695l-1.799-.759c8.065 3.405 15.853 7.513 22.818 12.85l-1.634-1.263c4.239 3.285 8.104 7.003 11.448 11.2l-1.315-1.702c.768 1.021 1.566 2.017 2.348 3.027l-1.318-1.706c3.73 4.889 6.706 10.273 9.107 15.927l-.863-2.046c4.519 10.781 7.124 22.409 8.692 33.966l-.315-2.344c.857 6.509 1.182 13.083.356 19.614l.32-2.381c-.661 4.882-1.984 9.619-3.892 14.159l.914-2.165c-2.168 5.067-4.978 9.811-8.325 14.187l1.425-1.844c-3.875 5.008-8.389 9.472-13.387 13.357l1.851-1.43c-6.044 4.65-12.73 8.377-19.736 11.367l2.195-.926c-5.091 2.148-10.366 3.969-15.63 5.645-5.324 1.695-10.81 2.583-16.341 3.333l2.405-.323c-2.425.323-4.853.613-7.278.94l2.432-.327c-6.643.88-13.361 1.386-20.034.52l2.437.327c-3.984-.558-7.826-1.642-11.541-3.178l2.193.925c-5.483-2.32-10.54-5.496-15.252-9.117l1.861 1.438c-6.361-4.936-12.023-10.739-16.957-17.094l1.429 1.85c-5.914-7.677-10.715-16.142-14.493-25.059l.902 2.137c-4.704-11.199-7.656-22.975-9.305-34.997l.314 2.336a186 186 0 0 1-1.4-15.16c-.255-4.928-.507-9.857-.736-14.786s-.104-9.882-.333-14.806a347 347 0 0 1-.269-7.625 40 40 0 0 0-.418-4.871q-.129-.887-.253-1.776l-.123-.887q-.116-.853-.011-.066c.276-2.481-2.384-4.861-4.754-4.754-2.811.126-4.459 2.097-4.754 4.754l-.053.474.649-2.4c-.918 1.292-1.352 3.156-1.894 4.654-.482 1.332-.742 2.723-1.032 4.109-.674 3.221-1.528 6.533-1.757 9.819l.262-1.952c-.996 5.162-1.337 10.567-1.752 15.804-.38 4.794-.486 9.503-.264 14.308.472 10.192 1.69 20.41 3.844 30.386 3.492 16.166 9.761 32.086 19.115 45.778 10.196 14.924 23.878 27.58 40.763 34.442 9.344 3.798 19.636 4.311 29.569 3.256 9.549-1.014 18.886-3.16 28.214-5.36 9.11-2.149 17.935-5.668 26.129-10.199 7.611-4.208 14.761-9.548 20.793-15.824 5.732-5.963 10.825-12.901 14.203-20.479 1.826-4.097 3.428-8.269 4.416-12.652a67.6 67.6 0 0 0 1.642-15.035c-.036-9.932-1.924-19.955-4.261-29.583-2.128-8.767-5.076-17.388-9.181-25.437-4.033-7.908-9.481-15.174-16.213-20.982-6.534-5.637-13.855-10.194-21.692-13.781-16.501-7.552-34.392-12.107-52.152-15.558a344 344 0 0 0-29.814-4.424c-4.747-.497-9.504-.779-14.274-.965a322 322 0 0 0-10.741-.239c-.71-.004-1.4-.029-2.106.066-1.403.188-.556.035-.284.021-.398.021-.797.053-1.195.081-4.853.337-9.652.833-14.462 1.556-2.974.447-3.004 5.618 0 6.036Zm6.453-192.009c-5.68 3.777-10.968 8.337-15.483 13.453-2.667 3.022-4.709 5.637-6.663 8.853a75 75 0 0 0-2.341 4.146 40 40 0 0 0-1.37 2.835c.452-1.057-.201.463-.238.552q-.479 1.119-.94 2.246c-5.525 13.612-7.003 28.599-4.678 43.065.532 3.309 1.271 6.592 2.259 9.796a69 69 0 0 0 1.748 4.964 132 132 0 0 0 2.206 5.21c.226.5 1.078 2.512.15.213 1.548 3.834 3.901 7.401 6.299 10.758 2.541 3.557 5.282 6.995 8.249 10.208 10.706 11.596 24.412 20.508 38.836 26.766 16.866 7.317 34.507 11.605 52.59 14.662 19.301 3.263 38.752 5.778 58.199 7.988a1346 1346 0 0 0 57.407 5.256c12.612.888 25.234 1.703 37.878 1.917 28.166.476 57.351-1.68 83.234-13.673 6.404-2.967 12.208-6.738 17.749-11.093 5.328-4.187 9.715-9.112 13.796-14.5 7.576-10.003 12.767-22.204 15.236-34.48 2.743-13.641 2.68-27.809-.968-41.287-3.751-13.861-11.308-26.591-21.844-36.368-3.273-3.037-6.816-5.907-10.605-8.268-4.084-2.544-8.503-4.442-12.942-6.268-8.143-3.348-16.49-6.277-24.877-8.948-16.995-5.413-34.382-9.543-51.935-12.684-36.013-6.444-72.599-8.962-109.132-9.883-17.142-.432-34.34-.796-51.474.077-17.289.881-34.78 3.02-51.357 8.177-4.498 1.4-8.827 3.19-13.073 5.229-3.681 1.768-7.052 4.018-10.637 5.933-4.06 2.168-5.656 8.139-3.152 12.022 2.66 4.126 7.679 5.471 12.022 3.152q-2.015.814.07-.053a97 97 0 0 0 1.627-.693c-.892.355-1.329.551-.174.08q1.401-.572 2.818-1.107c.472-.178.947-.346 1.419-.526a17 17 0 0 0 1.697-.681q2.25-.981.01.06c.038.062 2.62-.911 2.862-.992 4.026-1.34 8.081-2.664 12.156-3.851 8.224-2.395 16.646-4.032 25.13-5.179l-2.661.358c19.534-2.582 39.281-2.521 58.945-2.189 20.803.352 41.608 1.099 62.354 2.717 11.777.919 23.531 2.126 35.239 3.692l-2.688-.361c21.354 2.882 42.563 6.985 63.295 12.894 10.26 2.924 20.397 6.282 30.349 10.128l.576.223q1.187.474-.069-.051l-.645-.276 1.139.479c1.106.545 2.274.982 3.394 1.499 2.427 1.121 4.813 2.338 7.104 3.719a52 52 0 0 1 3.095 2.015l.501.358q1.324.983-.648-.524c.362.413.927.752 1.348 1.11a71 71 0 0 1 4.81 4.487 70 70 0 0 1 4.254 4.77l.305.378q1.003 1.269-.786-1.034c.377.515.769 1.019 1.143 1.536a68 68 0 0 1 1.879 2.74 75.4 75.4 0 0 1 6.129 11.463l-1.098-2.603c2.458 5.866 4.104 12.015 4.973 18.314l-.389-2.899c.918 6.961.88 13.997-.038 20.956l.39-2.901a83.2 83.2 0 0 1-5.663 20.782l1.101-2.608c-2.52 5.933-5.722 11.544-9.634 16.67l1.708-2.211a68.3 68.3 0 0 1-12.195 12.22l2.212-1.709c-5.57 4.265-11.711 7.672-18.162 10.41l2.613-1.103c-11.044 4.626-22.791 7.292-34.627 8.911l2.912-.391c-19.07 2.558-38.332 2.642-57.526 1.837-23.079-.968-46.147-2.687-69.136-4.916a1249 1249 0 0 1-45.702-5.277l2.692.362c-17.815-2.404-35.57-5.14-52.884-10.08a167 167 0 0 1-12.898-4.236q-1.362-.512-2.712-1.05c-.501-.199-.998-.406-1.498-.606-2.024-.813 1.507.665.205.088-1.895-.838-3.785-1.679-5.646-2.589-6.787-3.318-13.092-7.327-19.164-11.805 2.371 1.748-.253-.226-.719-.608-.708-.58-1.398-1.179-2.095-1.772a98 98 0 0 1-4.28-3.838 88 88 0 0 1-7.556-8.184c-.164-.202-1.058-1.627-.329-.394.74 1.251-.166-.223-.309-.416a80 80 0 0 1-1.587-2.205c-1.085-1.564-2.053-3.197-3.085-4.79a64 64 0 0 1-2.623-4.437 72 72 0 0 1-1.241-2.414c-.092-.188-1.12-2.792-1.296-2.804.191.014.629 1.562.2.466-.184-.471-.375-.939-.554-1.411a62 62 0 0 1-.849-2.373c-.529-1.586-.983-3.199-1.38-4.824s-.731-3.253-1.009-4.896c-.083-.492-.155-.986-.233-1.479-.075-.472-.384-1.093.046.359-.267-.903-.235-2.067-.313-3.008a74 74 0 0 1-.146-10.047c.089-1.67.247-3.332.433-4.993.188-1.679-.219 1.303.05-.378.053-.333.101-.667.154-1q.24-1.498.54-2.985c.767-3.803 1.945-7.451 3.086-11.147.538-1.743 1.203-3.459 1.899-5.144-.33.799.318-.724.306-.698.323-.677.686-1.294.938-2.014-.184.525.034-.268.05-.32.2-.626.557-1.245.837-1.839 3.29-6.976 7.606-13.159 13.224-18.449 1.422-1.339-.445-3.852-2.115-2.741Zm-206.056-33.847c-14.509 2.071-27.405 9.141-38.15 18.988-11.163 10.231-19.189 23.458-24.719 37.461-3.198 8.097-5.616 16.382-6.908 24.991-1.428 9.519-2.188 19.095-2.366 28.717-.345 18.678 1.123 37.338 2.246 55.968 2.308 38.302 4.38 76.626 6.944 114.912 1.97 29.426 5.39 61.849 23.42 86.362 10.149 13.798 23.659 23.562 39.653 29.593 15.534 5.857 32.733 7.842 49.259 7.441 16.972-.411 33.528-4.475 47.831-13.837 12.714-8.322 23.152-19.631 31.269-32.423 18.487-29.134 22.831-63.941 21.694-97.8-.631-18.798-2.766-37.499-4.485-56.217a1029 1029 0 0 1-3.674-57.604c-1.313-36.974 1.248-75.347-13.74-110.088-6.551-15.186-16.609-28.777-30.235-38.307-6.498-4.545-13.998-7.967-21.649-10.031-4.04-1.09-8.332-1.546-12.51-1.704a57 57 0 0 0-8.063.266q-.595.064-1.189.139c-.367.046-3.495.537-1.777.274-2.188.335-4.225.788-6.327 1.489q-1.125.375-2.23.804c-.599.232-1.19.482-1.782.73.215-.09-1.858.867-.961.453-1.762.814-3.559 1.489-5.278 2.4-1.676.888-3.254 2.068-4.828 2.965-5.049 2.874-.505 10.676 4.556 7.795 1.295-.737 2.948-1.202 4.427-1.659a45 45 0 0 1 2.276-.639c1.568-.396 1.412-.404 2.909-.581-.872.103.099-.004.23-.015.481-.041.961-.093 1.443-.129a49 49 0 0 1 2.621-.125c1.774-.037 3.543-.034 5.314-.007 1.694.026 3.386.134 5.071.316.429.046 1.811.258.129 0 .392.06.783.118 1.175.183q1.473.245 2.931.566c3.522.772 7.048 1.817 10.45 3.012.765.269 1.521.562 2.279.849 1.586.601-.233-.144-.264-.13.091-.04.936.409 1.112.488a64 64 0 0 1 5.145 2.603 63 63 0 0 1 4.383 2.711c.752.51 1.476 1.057 2.221 1.577.954.666-1.155-.94-.257-.207.477.389.96.771 1.432 1.167a73.6 73.6 0 0 1 7.844 7.653c.342.387 3.762 4.142 3.616 4.313-.005.006-1.245-1.667-.194-.24q.374.502.743 1.008a89 89 0 0 1 1.795 2.569 94 94 0 0 1 5.727 9.768 105 105 0 0 1 2.446 5.142c.065.146.523 1.151.507 1.162-.002.002-.797-1.953-.126-.287.395.982.788 1.964 1.161 2.954 2.767 7.335 4.779 14.933 6.202 22.638q.557 3.017 1.005 6.053c-.007-.045.35 2.442.169 1.141-.152-1.091.065.512.097.764q.239 1.902.443 3.808c.491 4.58.838 9.175 1.091 13.774.501 9.096.634 18.207.78 27.314.3 18.7.991 37.385 2.25 56.047 1.232 18.257 3.206 36.44 4.777 54.668s2.603 36.651 1.201 54.958q-.232 3.03-.555 6.053c-.122 1.134-.273 2.264-.396 3.397-.163 1.491.307-2.064-.045.36q-.135.941-.276 1.882c-.636 4.183-1.414 8.349-2.391 12.467-1.59 6.702-3.741 13.238-6.335 19.617-.576 1.417.144-.246.184-.433-.096.444-.399.92-.584 1.338q-.533 1.202-1.089 2.391a123 123 0 0 1-2.326 4.707 119 119 0 0 1-5.232 9.061 113 113 0 0 1-4.25 6.193q-.343.462-.688.923c-1.201 1.617 1.195-1.484-.063.086-2.146 2.678-4.374 5.279-6.763 7.744a92 92 0 0 1-7.259 6.734c-.645.536-1.353 1.027-1.973 1.591.147-.134 1.583-1.191.397-.314q-.45.336-.903.669a82 82 0 0 1-4.405 3.002 77 77 0 0 1-9.88 5.314c-.308.137-1.384.734-.268.128 1.262-.685-.339.132-.541.212q-.526.208-1.054.409a72 72 0 0 1-4.841 1.643 74 74 0 0 1-5.677 1.46 79 79 0 0 1-4.422.825c-.66.105-2.209.437-.689.114-4.303.914-9.11.791-13.49.813-4.081.02-8.165-.12-12.235-.427q-2.745-.207-5.479-.522c-.429-.049-.858-.107-1.287-.155-1.36-.15 2.152.326.033.006-1.068-.161-2.136-.318-3.201-.498-7.562-1.278-14.816-3.378-21.977-6.093-1.14-.432 1.399.621.285.127-.486-.215-.974-.424-1.458-.644a82 82 0 0 1-7.346-3.784 75 75 0 0 1-4.829-3.065c-.699-.482-1.383-.986-2.07-1.484-1.258-.912.005.04.218.179-.527-.345-1.006-.803-1.491-1.207a71.3 71.3 0 0 1-9.317-9.369 78 78 0 0 1-.724-.889c-.55-.686-1.218-.776.111.16-.524-.369-.977-1.313-1.353-1.84a77 77 0 0 1-1.612-2.352 86 86 0 0 1-5.118-8.907 96 96 0 0 1-2.067-4.423c-.129-.294-.591-1.486-.134-.299.526 1.366-.166-.423-.227-.576a109 109 0 0 1-1.043-2.703c-2.426-6.539-4.243-13.292-5.657-20.118a198 198 0 0 1-1.845-10.338q-.204-1.341-.393-2.685c-.081-.575-.416-1.995.021.191-.077-.387-.106-.809-.155-1.198q-.343-2.697-.635-5.4c-1.769-16.322-2.433-32.765-3.418-49.146l-3.371-56.081c-1.124-18.694-2.355-37.39-3.34-56.095-.925-17.564-1.397-35.07.696-52.573-.198 1.654-.05.353 0 .018.09-.607.177-1.214.271-1.821q.253-1.637.541-3.268c.171-.967.363-1.929.543-2.894s.326-1.935.444-2.913c-.225 1.869.089-.543.123-.744.689-4.061 1.594-8.059 2.795-12.001a102 102 0 0 1 2.876-8.179c.079-.197.833-2.006.173-.458a102 102 0 0 1 4.606-9.444 96 96 0 0 1 5.374-8.614q.416-.59.837-1.175c-.371.519-1.052 1.483.695-.921.449-.617.879-1.249 1.332-1.865.698-.95.261-.349.104-.146q.445-.57.9-1.132a87 87 0 0 1 1.849-2.212c4.302-4.974 9.137-9.539 14.454-12.925 5.519-3.514 11.157-6.364 17.483-8.142 1.69-.475 2.737-2.299 2.27-3.998-.514-1.869-2.253-2.519-3.998-2.27Z"/><path fill="#edc851" d="M160.518 321.389c1.299 2.024 2.507 4.105 3.804 6.129s2.783 3.966 4.13 5.972c2.664 3.969 5.127 8.052 7.609 12.135a230 230 0 0 1 13.449 25.579c2.141 4.789 4.304 9.57 6.323 14.521.699 1.714 2.282 2.929 4.22 2.396 1.716-.471 2.986-2.455 2.396-4.22-6.251-18.68-15.823-36.339-27.591-52.118a250 250 0 0 0-5.331-6.895c-1.725-2.151-3.825-4.054-5.795-5.979-1.622-1.585-4.5.475-3.214 2.48m47.756-6.266c6.043 7.242 11.475 15.145 16.254 23.274 4.806 8.177 8.819 16.805 11.912 25.772q1.304 3.778 2.396 7.622c.758 2.666 1.647 5.198 2.667 7.774.496 1.253 1.546 2.154 2.971 1.94 1.231-.185 2.466-1.298 2.348-2.66-.231-2.664-.577-5.225-1.328-7.799a127 127 0 0 0-2.222-6.801 155 155 0 0 0-5.746-13.98c-4.174-8.902-9.179-17.715-15.274-25.456-3.457-4.39-7.214-8.55-11.169-12.496-1.841-1.836-4.421.876-2.809 2.809Zm48.004 8.114a188 188 0 0 1 16.242 20.802 193 193 0 0 1 10.249 17.082c1.109 2.086 1.97 4.616 3.804 6.163 1.013.854 2.277 1.232 3.55.672 1.118-.491 2.082-1.673 1.998-2.97-.104-1.604-.556-2.807-1.308-4.209a195 195 0 0 0-5.047-8.847 194 194 0 0 0-7.534-11.486 200 200 0 0 0-17.613-21.549c-1.137-1.207-3.193-1.147-4.341 0-1.226 1.226-1.112 3.104 0 4.341Zm56.75 23.633c2.393 0 4.685-2.104 4.574-4.574s-2.01-4.574-4.574-4.574c-2.393 0-4.685 2.104-4.574 4.574s2.01 4.574 4.574 4.574m56.156-188.328c13.563-9.239 28.034-16.219 43.67-20.69.4-.114.803-.206 1.208-.302.047-.011.416-.111.446-.082-.097-.096-1.028.078-.097.026.358-.02.714-.044 1.073-.04.538.006 1.322.108.303-.033l.876.118c1.766.237-.666-.259.233.061.109.039.267.096.381.11.459.057-.93-.456-.223-.075.228.123.496.221.726.318 1.496.631-.35-.155.02.045.434.235-.634-.512-.264-.176.29.263-.459-.718-.089-.03 1.34 2.496 5.861 2.161 6.38-.834.461-2.659-.229-5.203-2.55-6.794-1.65-1.131-3.658-1.59-5.64-1.541-4.166.103-8.157 1.936-11.968 3.448-8.581 3.403-16.917 7.437-24.831 12.194a161 161 0 0 0-12.933 8.665c-1.408 1.044-2.121 2.814-1.166 4.446.84 1.436 2.989 2.159 4.446 1.166Zm27.745 31.033a62.4 62.4 0 0 1 10.225-5.797c.142-.063 1.481-.628.643-.284q1.2-.494 2.417-.941c1.835-.67 4.009-1.032 5.595-2.189 1.308-.954 2.265-2.549 1.721-4.229-.535-1.654-1.897-2.627-3.611-2.749-2.054-.147-4.105.792-5.99 1.525s-3.736 1.527-5.549 2.407a62.5 62.5 0 0 0-9.339 5.605c-1.628 1.178-2.585 3.404-1.382 5.27 1.057 1.639 3.502 2.614 5.27 1.382m23.988 29.514-.572-1.182a3.14 3.14 0 0 0-1.123-1.123 3.1 3.1 0 0 0-1.58-.427 3.12 3.12 0 0 0-2.703 1.55l-.572 1.182a3.77 3.77 0 0 0-.518 1.914q.003 1.026.518 1.914c.675 1.153 1.937 1.878 3.274 1.878s2.599-.725 3.274-1.878a3.77 3.77 0 0 0 .518-1.914 3.8 3.8 0 0 0-.518-1.914Zm147.433 76.796a295.2 295.2 0 0 1 54.884-30.711c.1-.043.968-.41.487-.207-.469.198.603-.252.697-.291a289 289 0 0 1 3.787-1.545c.8-.32 1.627-.605 2.402-.982.882-.429 1.567-1.132 2.27-1.801 2.676-2.543.604-7.183-2.979-7.192-1.529-.004-2.808.244-4.213.834a401 401 0 0 0-4.059 1.724q-3.233 1.398-6.431 2.874a294 294 0 0 0-51.037 30.127c-1.746 1.282-2.793 3.661-1.49 5.682 1.131 1.755 3.786 2.833 5.682 1.49Zm16.773 30.483a663 663 0 0 1 22.13-10.417c3.683-1.65 7.375-3.279 11.057-4.93q2.759-1.236 5.529-2.448c2.223-.972 4.28-1.731 6.007-3.527 2.803-2.915.831-8.143-3.355-8.099-2.772.029-5.07 1.208-7.541 2.31q-2.758 1.23-5.506 2.487a330 330 0 0 0-11.093 5.344 660 660 0 0 0-21.784 11.485c-2.07 1.141-2.917 4.163-1.619 6.176 1.401 2.174 3.905 2.739 6.176 1.619Zm22.041 34.569.862-.095.446-.049.178-.02.119-.013a4.8 4.8 0 0 0 2.432-.658 4.84 4.84 0 0 0 1.762-1.744c.444-.759.416-.753.49-1.191l.018-.11c.059-.363.156-.783.156-1.116s-.097-.753-.156-1.116l-.018-.11c-.074-.437-.048-.435-.49-1.191a3.6 3.6 0 0 0-1.233-1.343 3 3 0 0 0-.528-.401c-.841-.531-1.593-.565-2.551-.671l-.178-.02-.416-.046-.892-.098a3.76 3.76 0 0 0-1.925.43 3.75 3.75 0 0 0-1.608 1.033 3.75 3.75 0 0 0-1.033 1.608 3.76 3.76 0 0 0-.43 1.925l.178 1.328a5 5 0 0 0 1.285 2.204l1.011.781q1.169.678 2.521.682Zm19.71 55.908c.33 0 .331-.514 0-.514s-.331.514 0 .514m151.948 25.19a54 54 0 0 0 5.854 6.017 67 67 0 0 0 3.849 3.101c.557.42 1.121.897 1.725 1.248 1.029.599 2.268.631 3.426.756 1.103.119 2.276-.703 2.806-1.61.582-.995.595-2.287 0-3.281-.228-.381-.436-.776-.671-1.152-.555-.886-1.326-1.411-2.168-1.991a55 55 0 0 1-2.317-1.693l.798.616a54.3 54.3 0 0 1-7.855-7.46c-1.32-1.532-4.111-1.455-5.447 0-.674.734-1.174 1.698-1.128 2.724.048 1.073.442 1.9 1.128 2.724Zm26.346-26.33c-.555-.426.176.14.276.218a83 83 0 0 1 2.421 1.981q1.591 1.349 3.118 2.77a91 91 0 0 1 9.593 10.435c.488.617-.082-.123.198.258.206.28.419.555.626.834.558.752 1.101 1.511 1.681 2.247q.257.325.516.648c.848 1.065-.495-.658.339.436.991 1.301 2.09 2.35 3.257 3.484 2.447 2.38 7.063.019 5.935-3.455-.509-1.566-.993-3.146-1.85-4.562a41 41 0 0 0-2.452-3.619c-1.874-2.46-3.822-4.856-5.909-7.139-4.063-4.443-8.571-8.4-13.375-12.021-1.817-1.37-4.923-.35-5.929 1.555-1.212 2.294-.373 4.449 1.555 5.929Zm31.416-14.757c4.07 4.51 8.039 9.145 12.3 13.475 1.239 1.259 3.542 1.334 4.766 0 .59-.642 1.027-1.486.987-2.383-.042-.947-.397-1.648-.987-2.383-3.808-4.746-7.951-9.238-11.959-13.816-1.248-1.426-3.847-1.372-5.107 0-1.379 1.502-1.354 3.607 0 5.107M387.885 576.312c8.407-1.866 16.901-3.364 25.451-4.4q6.415-.777 12.862-1.243c2.154-.156 4.308-.284 6.459-.476 1.118-.1 2.238-.175 3.355-.278 1.376-.127 2.553-.436 3.854-.878 1.542-.524 2.695-1.858 2.695-3.54 0-1.527-1.129-3.232-2.695-3.54-1.281-.252-2.543-.544-3.854-.468-1.119.065-2.238.179-3.355.278-2.445.218-4.87.567-7.295.941a268 268 0 0 0-12.957 2.325 272 272 0 0 0-25.8 6.635c-2.966.919-1.746 5.314 1.28 4.643Zm7.926 39.192c9.915-1.588 19.823-3.17 29.767-4.567l14.811-2.081 7.406-1.041c2.756-.387 5.782-.453 8.288-1.735 1.879-.961 2.941-3.634 2.293-5.636-.735-2.272-2.522-3.394-4.812-3.664-1.561-.184-3.247.357-4.775.689l-3.387.737-7.257 1.58-14.755 3.213c-9.767 2.127-19.565 4.066-29.371 6.004-1.787.353-2.811 2.484-2.354 4.146.526 1.915 2.342 2.643 4.146 2.354Zm17.343 47.505a52 52 0 0 1 8.069-2.356 52 52 0 0 1 3.065-.531c-.737.108-.337.045.167-.011a52 52 0 0 1 4.19-.3c2.746-.085 5.464.094 8.192.388.733.079 1.467.15 2.2.234q.474.06-.071-.01-1.165-.151 1.166.158c.291.029.582.046.873.067 1.127.081 1.935-.005 3.092-.138-.459.053-.605.073-.058.015q.643-.07 1.287-.133c4.198-.396 5.526-5.272 2.096-7.738-1.456-1.047-2.829-1.922-4.56-2.473s-3.564-.755-5.364-.971c-2.989-.359-6.082-.258-9.074.017-6.636.61-12.898 2.27-18.979 4.983-2.181.973-2.812 4.018-1.97 6.012.858 2.032 3.429 3.644 5.68 2.788Zm26.854 41.273.769-.769c.471-.471.906-.989 1.213-1.582l.249-.481.57-1.351a4.3 4.3 0 0 0 .101-2.256 2.8 2.8 0 0 0-.386-1.428 4.24 4.24 0 0 0-1.17-1.821l-1.145-.885-1.351-.57a4.3 4.3 0 0 0-2.256-.101 4.2 4.2 0 0 0-2.103.671l-.468.242-.117.06-.052.027-.039.02-1.193.922q-.1.093-.194.19l-.769.769a4.4 4.4 0 0 0-1.22 1.898 4.44 4.44 0 0 0-.508 2.272 4.44 4.44 0 0 0 .508 2.272 4.4 4.4 0 0 0 1.22 1.898l1.194.922q1.38.8 2.977.805l1.568-.211a5.9 5.9 0 0 0 2.603-1.517Zm325.283-106.144a180 180 0 0 1 5.982 27.415q-.091-.684.021.173a177 177 0 0 1 1.318 15.629c.045 1.109.06 2.219.102 3.328.027.719.044 1.561.231 2.237.21.761.675 1.565 1.004 2.298.685 1.529 2.743 2.243 4.258 2.04 1.807-.243 2.896-1.433 3.552-3.061.963-2.388.65-4.803.493-7.318q-.192-3.09-.492-6.171a196 196 0 0 0-1.83-13.748 180 180 0 0 0-6.166-25.158c-.704-2.184-3.079-3.821-5.404-3.069-2.221.719-3.778 3.047-3.069 5.404Zm39.414-3.47a236 236 0 0 1 7.157 28.651 219 219 0 0 1 2.131 14.061q.415 3.543.721 7.097c.236 2.74.27 5.472 1.032 8.127a3.8 3.8 0 0 0 4.16 2.716c2.02-.271 3.04-1.82 3.288-3.724.331-2.543-.109-5.057-.424-7.593-.318-2.56-.668-5.117-1.059-7.667a234 234 0 0 0-2.745-14.729 236 236 0 0 0-8.225-28.603c-.568-1.591-2.134-2.657-3.85-2.186-1.586.436-2.699 2.232-2.186 3.85m41.523 13.971c2.416 5.903 4.138 12.318 4.744 18.354.317 3.166.433 6.354.347 9.534-.045 1.675-.17 3.341-.302 5.01-.061.767-.062 1.508.01 2.273.132 1.39.679 2.297 1.393 3.424 1.085 1.711 3.527 2.156 5.01.646.858-.874 1.713-1.712 2.088-2.921.313-1.009.43-2.149.473-3.195.068-1.664-.005-3.348-.091-5.01a84 84 0 0 0-1.278-10.797c-1.251-6.851-3.4-13.56-6.233-19.916-.674-1.512-2.821-1.989-4.209-1.379s-2.596 2.401-1.951 3.976Zm-146.578 2.405c2.581 0 5.054-2.27 4.935-4.935s-2.168-4.935-4.935-4.935c-2.581 0-5.054 2.27-4.935 4.935s2.168 4.935 4.935 4.935m-74.815 215.15a189 189 0 0 0 12.577-5.189c4.089-1.862 7.978-4.1 11.809-6.444a175 175 0 0 0 11-7.316c1.969-1.42 3.902-2.886 5.819-4.375s3.784-3.222 4.874-5.407c.643-1.291.653-2.775-.278-3.944-.849-1.066-2.366-1.722-3.732-1.272-4.468 1.471-8.02 5.299-11.684 8.156-2.604 2.03-6.743 4.989-10.069 7.193-3.617 2.396-7.354 4.6-11.037 6.891a177 177 0 0 1-11.457 6.537c-2.791 1.459-.859 6.297 2.18 5.17Zm20.037 33.833c7.389-3.575 14.586-7.653 21.412-12.214 3.542-2.367 6.976-4.887 10.33-7.514 1.603-1.256 3.328-2.49 4.753-3.946a44 44 0 0 0 1.926-2.12c.917-1.068 1.275-2.125 1.61-3.455.457-1.814-1.14-3.245-2.887-2.887-1.109.227-2.102.437-3.036 1.107-.821.589-1.624 1.214-2.43 1.823-1.765 1.333-3.328 2.963-4.995 4.419a147 147 0 0 1-8.911 7.214 144 144 0 0 1-20.565 12.793c-1.331.68-1.717 2.549-.993 3.788.804 1.375 2.437 1.647 3.788.993Zm42.698 14.526 2.865-2.446c.47-.402.963-.778 1.358-1.255l1.22-1.478q.493-.458.697-1.085.317-.602.29-1.298c-.034-.761-.256-1.436-.724-2.042-.43-.557-1.045-1.047-1.751-1.208l-.896-.12a3.36 3.36 0 0 0-1.701.46l-1.757.781c-.567.252-1.063.626-1.577.972l-3.129 2.103a4.23 4.23 0 0 0-1.511 1.511l-.425 1.006a4.24 4.24 0 0 0 0 2.24q.195.822.754 1.433.446.688 1.182 1.085a3.13 3.13 0 0 0 1.566.5q.84.188 1.68-.075a4.2 4.2 0 0 0 1.859-1.083ZM135.527 578.116c5.436 14.224 13.93 27.192 24.967 37.708 3.241 3.088 6.599 5.846 10.459 8.125 1.589.938 3.718.505 4.814-.961 1.049-1.404 1.126-3.651-.292-4.899-5.375-4.733-10.89-9.28-15.689-14.625a99 99 0 0 1-3.384-3.977c-1.111-1.378-1.713-2.172-2.905-3.844a98 98 0 0 1-5.704-8.993c-1.921-3.426-3.795-7.337-5.071-10.518-.75-1.869-2.49-3.183-4.59-2.606-1.801.495-3.329 2.698-2.606 4.59Zm23.805-22.988c5.839 12.838 14.032 24.498 24.263 34.216a111 111 0 0 0 3.401 3.101c2.154 1.883 4.337 4.063 7.474 3.138 2.661-.785 3.703-3.451 2.902-5.981-.713-2.249-3.077-3.616-4.787-5.108-5.161-4.504-9.813-9.505-14.17-14.784a113 113 0 0 1-1.572-1.949c-.043-.054-.881-1.144-.318-.406a113 113 0 0 1-4.382-6.148 113 113 0 0 1-5.952-10.087c-.965-1.844-3.69-2.55-5.435-1.425-1.959 1.263-2.348 3.405-1.425 5.435Zm38.885-20.669c1.981 5.1 4.303 10.061 7.08 14.778a93 93 0 0 0 6.455 9.558c1.123 1.463 2.189 3.146 3.795 4.11 1.288.773 3.322.921 4.595 0 .304-.22.64-.463.921-.712 1.105-.979 1.715-3.023 1.171-4.429-.442-1.142-.985-2.005-1.773-2.941a95 95 0 0 1-1.109-1.343q-.342-.424-.68-.849c-.196-.246-.373-.472-.076-.09q-.533-.691-1.05-1.394a93.4 93.4 0 0 1-10.275-17.672 73 73 0 0 1-.434-.998c-.315-.736.386.935-.146-.355-.872-2.117-2.956-3.861-5.404-3.069-2.076.672-3.96 3.111-3.069 5.404Z"/><path fill="#f45b5b" d="M182.143 166.925a427 427 0 0 1-5.809-6.153c-.886-.959-1.678-1.985-2.481-3.013l-1.273-1.635c-.556-.715.755.986-.13-.169l-.686-.895c-3.576-4.673-7.522-9.087-11.227-13.674a455 455 0 0 1-5.125-6.464l-.703-.905c-.536-.69.66.861.131.169l-1.248-1.63a453 453 0 0 1-22.664-32.603l-11.057 8.532a248 248 0 0 1 3.602 4.493l.566.727c.55.704-.915-1.227-.157-.173.67.933 1.419 1.817 2.126 2.724 1.097 1.408-.811-1.061.273.354a284 284 0 0 1 2.486 3.299 329 329 0 0 1 9.119 12.955c5.808 8.667 11.26 17.566 16.578 26.541a2103 2103 0 0 1 9.065 15.501c1.54 2.651 4.612 4.043 7.6 3.642 2.901-.39 5.619-2.523 6.342-5.464 4.044-16.46 9.354-32.599 15.928-48.222l-.785 1.861a316 316 0 0 1 23.205-44.653l-14.454-6.094a1362 1362 0 0 1-20.922 79.418 1563 1563 0 0 1-6.686 21.987c-.97 3.107.432 6.627 2.913 8.544 2.64 2.039 6.092 2.193 9.027.635a34 34 0 0 1 2.623-1.251l-1.942.819c2.559-1.047 5.217-1.743 7.952-2.138l-2.162.29c3.603-.477 7.226-.427 10.827.039l-2.162-.291c4.521.627 8.878 1.905 13.085 3.663l-1.944-.82c9.064 3.863 17.078 9.654 25.002 15.422l6.278-14.891-59.23-11.837-16.818-3.361c-3.451-.69-7.465.422-9.226 3.754s-1.237 7.094 1.277 9.9a143 143 0 0 1 6.469 7.755l-1.278-1.654a142 142 0 0 1 18.22 31.159l-.825-1.955a140.6 140.6 0 0 1 8.122 26.076l14.986-6.318-26.825-44.824-7.573-12.654c-1.339-2.238-3.475-3.595-6.026-3.938-2.687-.361-4.916.486-6.929 2.269a1061 1061 0 0 1-42.156 35.434q-6.18 4.924-12.433 9.757l1.68-1.298q-5.685 4.39-11.426 8.706l10.073 13.055a1278 1278 0 0 1 71.1-65.391c1.369-1.167 2.077-3.108 2.306-4.814.24-1.787.012-3.785-.995-5.346a10 10 0 0 0-3.008-3.008c-1.951-1.258-4.286-1.222-6.461-.845-5.634.977-11.272 1.932-16.938 2.704l2.232-.3c-11.08 1.489-22.329 2.264-33.456.8l2.239.301c-4.669-.641-9.277-1.65-13.753-3.131v16.139q1.659-.266 3.324-.495l-2.219.298a135.4 135.4 0 0 1 22.056-1.156c3.672.11 7.354.253 11.016.551 1.744.142 3.487.233 5.235.345a135 135 0 0 1 4.259.343c.481.047 1.945.343.044-.05 3.536.732 7.647-1.028 8.514-4.834.788-3.461-1.043-7.729-4.834-8.514-1.695-.351-3.379-1.011-5.061-1.46-2.244-.6-4.414-1.068-6.726-1.375l2.08.279c-6.847-1.468-14.025-1.86-21.012-1.821-7.087.039-14.117.717-21.124 1.75l-1.999.844a6.3 6.3 0 0 0-2.348 2.155c-1.09 1.411-1.879 3.237-1.797 5.071.173 3.86 2.516 6.818 6.144 8.07 17.47 6.028 36.225 4.657 54.183 2.026 4.813-.705 9.607-1.531 14.399-2.37l-8.157-14.013a1279 1279 0 0 0-55.885 50.698 1302 1302 0 0 0-15.115 14.794c-2.945 2.93-3.149 7.68-.65 10.914 1.061 1.374 2.577 2.582 4.318 2.979 2.033.463 4.66.477 6.405-.838 18.219-13.735 36.036-28.001 53.36-42.85q7.18-6.156 14.25-12.438l-12.956-1.669 26.892 44.785 7.592 12.643c2.11 3.513 6.486 4.938 10.239 3.355 3.889-1.641 5.593-5.617 4.747-9.673-4.056-19.438-12.225-38.235-23.708-54.437a158 158 0 0 0-11.26-14.137l-7.948 13.654 59.239 11.803 16.821 3.352c4.019.801 7.965-.817 9.611-4.717.683-1.619.967-3.585.411-5.305-.69-2.131-1.939-3.557-3.744-4.869-7.265-5.282-14.6-10.611-22.776-14.416-8.77-4.081-18.43-6.808-28.194-6.016-5.925.48-11.472 1.932-16.738 4.731l11.94 9.179c8.142-26.141 15.42-52.554 21.918-79.151q2.726-11.164 5.265-22.371c.877-3.872-.866-7.762-4.579-9.329-3.653-1.542-7.783-.143-9.875 3.236-14.158 22.865-25.424 47.589-33.483 73.246a302 302 0 0 0-5.919 21.694l13.942-1.822c-10.912-18.309-21.857-36.668-34.699-53.712-3.877-5.145-7.895-10.15-12.173-14.967-2.328-2.622-6.626-2.573-9.244-.55-2.594 2.004-3.814 6.179-1.813 9.082 12.964 18.806 27.341 36.494 42.769 53.323.393.429.724.764 1.192 1.125 1.462 1.129-.56-.51.63.605q.834.781 1.672 1.558c1.172 1.087 2.395 2.131 3.539 3.247 2.287 2.232 4.433 4.624 6.678 6.901 1.793 1.819 5.122 1.931 6.894 0 1.815-1.978 1.889-4.929 0-6.894Z"/><path fill="#70e8a0" d="M728.206 116.526c11.055-3.839 22.138-7.666 33.502-10.5a157 157 0 0 1 12.954-2.65q.931-.149 1.864-.285c.025-.004 1.557-.222.642-.094-.832.116.478-.06.64-.08 5.709-.709 11.478-1.042 17.23-.839 2.257.08 4.512.25 6.755.511l.731.088c1.042.121-.438-.056-.53-.074.596.121 1.215.175 1.816.272q1.725.277 3.437.628a79 79 0 0 1 13.034 3.839c.512.201 1.018.414 1.527.619-1.858-.748-.315-.126.135.076a70 70 0 0 1 3.275 1.572 66 66 0 0 1 5.786 3.344 61 61 0 0 1 2.668 1.832c.392.285 1.92 1.556.222.139.457.381.934.738 1.392 1.118a55 55 0 0 1 4.817 4.501q1.29 1.36 2.48 2.811c.151.185.298.372.45.557.864 1.052-1.012-1.36-.204-.266a49 49 0 0 1 5.038 8.297c.294.614.531 1.266.847 1.868-.889-1.694-.369-.873-.172-.375q.226.569.436 1.143.74 2.01 1.312 4.073c.765 2.755 1.308 5.576 1.689 8.409l-.261-1.939c.733 5.747.652 11.547-.107 17.286l.263-1.956c-.913 6.605-2.712 13.034-5.284 19.183l.749-1.774a97 97 0 0 1-6.593 12.77 114 114 0 0 1-3.957 6.015q-1.039 1.476-2.118 2.921-.51.68-1.026 1.356c-.574.755.985-1.258.396-.514q-.328.418-.658.835c-6.032 7.594-12.809 14.59-19.885 21.212-3.904 3.653-7.942 7.162-12.172 10.434l1.557-1.203c-6.427 4.939-13.303 9.307-20.773 12.494l1.858-.784c-5.142 2.16-10.5 3.715-16.029 4.481l2.084-.28c-1.621.213-3.233.368-4.867.209l2.088.281a9.4 9.4 0 0 1-2.298-.596l1.878.793a8 8 0 0 1-1.459-.881l1.593 1.231a7.4 7.4 0 0 1-.998-1.005l1.231 1.594a7 7 0 0 1-.813-1.413l.794 1.882a8.3 8.3 0 0 1-.43-1.595l.282 2.097c-.131-.985-.103-1.955.028-2.938l-.282 2.099c.22-1.395.629-2.731 1.163-4.037l-.798 1.89a24.6 24.6 0 0 1 3.02-5.186l-1.24 1.606c4.714-6.039 10.567-11.316 16.597-16.005l-1.619 1.251a108.5 108.5 0 0 1 23.852-13.941l-1.896.8c8.643-3.635 17.718-6.151 27.009-7.427l-2.093.281c7.7-1.028 15.61-1.331 23.33-.334l-2.079-.279c3.743.513 7.411 1.387 10.909 2.829l-1.862-.786a33 33 0 0 1 7.112 4.134l-1.574-1.216c2.309 1.808 4.352 3.894 6.154 6.204l-1.213-1.57c2.179 2.851 3.949 5.964 5.369 9.258l-.779-1.847c1.797 4.263 2.983 8.741 3.604 13.323l-.275-2.047c.894 6.961.537 13.997-.393 20.934l.273-2.034c-.428 3.1-.878 6.194-1.292 9.296l.267-1.986a278 278 0 0 1-.945 6.354 573 573 0 0 1-.721 4.379c-.116.692-.868 4.358-.327 1.94-.774 3.464 1.049 7.523 4.75 8.366 3.448.785 7.536-1.037 8.366-4.75 1.174-5.255 3.042-10.352 4.058-15.655 1.101-5.752 1.75-11.717 1.842-17.576.156-9.954-1.726-19.734-6.074-28.709-3.952-8.157-10.548-15.527-18.757-19.54-9.44-4.615-20.104-5.618-30.485-5.218-18.472.712-36.699 6.07-52.698 15.315-7.875 4.55-15.265 10.104-21.786 16.445-3.403 3.309-6.707 6.849-9.469 10.717-2.792 3.911-4.468 8.554-4.882 13.326-.476 5.487 2.385 11.266 7.335 13.833 5.572 2.889 11.94 1.818 17.806.534 9.192-2.012 17.994-6.137 25.874-11.224 8.112-5.238 15.563-11.522 22.539-18.181 6.658-6.356 13.043-13.041 18.762-20.262 6.107-7.711 11.627-15.862 15.654-24.867 4.17-9.324 6.826-18.995 7.555-29.209.669-9.372-.481-19.162-4.046-27.893-3.462-8.48-8.583-16.094-15.526-22.13-13.16-11.44-30.291-17.181-47.542-18.203-20.406-1.209-40.749 4.574-59.82 11.23-4.784 1.67-9.54 3.42-14.294 5.174-2.503.924-4.474 3.509-3.573 6.293.808 2.496 3.586 4.513 6.293 3.573Z"/><path fill="#8170f9" d="M101.302 747.853c1.916 13.084 3.981 26.447 10.343 38.239 5.643 10.459 15.183 19.472 26.814 22.695 1.295.359 2.611.623 3.941.815.749.108 1.502.188 2.249.3-2.334-.349.325.068 1.14.118a33 33 0 0 0 2.27.062c3.199-.027 6.45-.474 9.555-1.238 5.785-1.424 11.364-4.099 16.285-7.436 5.217-3.538 10.058-7.747 14.154-12.545 4.262-4.991 7.932-10.457 11.339-16.057 3.613-5.938 6.958-12.035 10.585-17.965 1.768-2.89 3.602-5.741 5.564-8.503q.735-1.034 1.493-2.05c.253-.338.52-.668.766-1.011-1.322 1.841-.435.568-.136.194a76 76 0 0 1 3.573-4.178l-11.91-9.189c-8.568 13.165-16.13 26.945-22.495 41.309-6.573 14.833-12.123 30.139-16.174 45.857a287 287 0 0 0-4.957 23.126c-.688 4.014-1.724 8.259-1.285 12.345.299 2.781.868 5.57 2.503 7.916 1.453 2.085 3.253 3.99 5.593 5.077 8.771 4.072 18.104-.753 24.515-6.932 5.687-5.481 10.89-11.598 16.003-17.609 10.792-12.687 20.807-26.07 29.876-40.042a387 387 0 0 0 3.3-5.178h-13.437c.197.366.376.73.545 1.11l-.784-1.858c.405 1.009.669 2.031.823 3.107l-.278-2.066c.153 1.368.121 2.718-.035 4.084l.277-2.064c-.429 3.187-1.471 6.229-2.618 9.219-1.308 3.408-2.63 6.811-3.945 10.217a8142 8142 0 0 1-8.042 20.733l-15.962 40.983-9.069 23.286c-1.405 3.608 1.574 8.974 5.432 9.567 5.095.783 9.927.748 14.985-.398 4.339-.983 8.572-2.818 12.424-5.024 7.519-4.308 14.015-10.357 19.583-16.945 3.316-3.923 6.386-8.041 9.525-12.106l-1.204 1.559c2.932-3.79 5.92-7.547 9.212-11.034a70 70 0 0 1 5.036-4.857q.678-.588 1.375-1.155c.206-.168.417-.331.623-.499q.448-.352-.271.207l.316-.244c2.318-1.791-1.022.781.218-.149.215-.161.427-.326.643-.486.54-.402 1.09-.79 1.645-1.172l-10.587-8.139a172 172 0 0 0-.797 5.301l.252-1.872c-2.148 10.406-4.202 20.833-6.301 31.249-2.063 10.236-5.716 23.38 2.807 31.765a20 20 0 0 0 3.518 2.75c.393.242.747.391 1.187.577 2.263.955-.969-.413.219.158.824.397 1.689.735 2.582.94 1.341.307 2.795.523 4.177.409.851-.07 1.726-.171 2.558-.369.445-.106 3.299-1.061 1.624-.591 2.454-.69 4.219-3.482 3.405-5.997s-3.367-4.144-5.997-3.405c1.095-.308.61-.061.276-.11-.149-.022-.568-.061-.681-.036.083-.018 1.023.26.561.059-.195-.085-.437-.102-.644-.164-1.17-.35.738.482-.071.004-.391-.231-.791-.438-1.165-.698-.192-.134-.37-.285-.561-.419-.863-.606.393.296.395.308-.034-.217-.718-.653-.903-.844-.166-.171-.313-.364-.484-.529-.468-.453.443.61.429.588-.276-.461-.616-.879-.884-1.348-.21-.367-.389-.748-.576-1.127a26 26 0 0 0-.326-.643c-.246-.466-.155-.931.247.612-.269-1.032-.589-2.021-.801-3.074-.181-.903.103 1.375.073.456-.007-.222-.038-.446-.051-.668a24 24 0 0 1-.034-1.794 29 29 0 0 1 .075-1.58c.038-.513.456-2.657.033-.692 1.006-4.664 1.865-9.371 2.87-14.041l3.168-14.725c1.194-5.551 2.321-11.116 3.72-16.618.72-2.833-.275-5.793-2.583-7.576a7.26 7.26 0 0 0-8.005-.563c-14.045 7.956-22.639 22.198-33.142 33.917-2.958 3.301-6.176 6.363-9.675 9.086l1.579-1.22c-3.308 2.538-6.848 4.742-10.681 6.395l1.862-.786c-2.763 1.159-5.625 2.003-8.593 2.431l2.069-.278a29.4 29.4 0 0 1-7.394.043l2.068.278a26 26 0 0 1-.79-.114l5.432 9.567c11.793-30.444 23.547-60.905 35.427-91.316 1.465-3.75 3.108-7.504 3.908-11.468 1.114-5.52.885-10.91-1.808-15.957-1.276-2.391-4.06-3.854-6.718-3.854-2.817 0-5.239 1.512-6.718 3.854a377 377 0 0 1-20.065 28.697l1.227-1.588a375 375 0 0 1-14.884 18.078 368 368 0 0 1-7.785 8.596c-2.45 2.621-4.848 5.369-7.669 7.601l1.606-1.241c-1.663 1.282-3.436 2.397-5.365 3.231l1.898-.801c-1.055.431-2.126.763-3.252.946l2.112-.284a9.6 9.6 0 0 1-2.484.021l2.112.284c-.5-.086-.973-.21-1.448-.386l1.898.801a7.4 7.4 0 0 1-1.59-.924l1.608 1.242a8.7 8.7 0 0 1-1.184-1.212l1.242 1.608a8.7 8.7 0 0 1-.903-1.576l.801 1.898a10.7 10.7 0 0 1-.623-2.48l.284 2.112c-.173-1.661-.057-3.309.157-4.961l-.284 2.112c2.581-18.628 7.544-37.132 13.873-54.819a294 294 0 0 1 5.855-15.032l-.785 1.859c6.484-15.337 14.243-30.166 23.302-44.143 2.058-3.176.898-7.58-1.953-9.782-2.809-2.17-7.462-2.263-9.957.593-8.257 9.451-14.256 20.305-20.371 31.186-2.949 5.248-5.974 10.465-9.419 15.407a86 86 0 0 1-1.175 1.647c-.34.464-1.784 2.227-.313.441-.93 1.129-1.844 2.265-2.806 3.368-1.847 2.118-3.794 4.141-5.88 6.026a79 79 0 0 1-3.043 2.583c-.872.711.357-.286.448-.341-.333.199-.642.484-.956.714a55 55 0 0 1-1.947 1.36c-2.276 1.516-4.66 2.803-7.136 3.959-.991.463.434-.189.53-.216-.359.101-.718.291-1.068.424q-.89.34-1.796.635c-1.317.43-2.657.79-4.014 1.068-.602.123-1.259.165-1.85.327 1.648-.452.977-.125.413-.064q-.468.05-.938.088a38 38 0 0 1-4.159.07 30 30 0 0 1-1.903-.125c-.169-.016-1.452-.162-.318-.024s-.158-.036-.327-.065a30.7 30.7 0 0 1-5.767-1.596l-.346-.135q-.884-.359.387.169c-.07-.093-.622-.279-.683-.307a35 35 0 0 1-3.625-1.942c-1.055-.645-2.021-1.517-3.095-2.109 1.223.674.258.199-.059-.058a44 44 0 0 1-2.287-1.997 46 46 0 0 1-3.917-4.145c-.244-.292-.481-.589-.722-.883-.82-.999.633.894-.128-.162-.223-.31-.434-.63-.659-.938l-.8-1.035q.595.804.104.119c-.423-.635-.861-1.257-1.272-1.9a59 59 0 0 1-2.517-4.354 72 72 0 0 1-2.213-4.621c-.063-.145-.429-1.015-.17-.391a95 95 0 0 1-1.464-3.777c-2.463-6.777-4.192-13.788-5.909-20.782-.403-1.642-2.253-2.625-3.85-2.186-1.795.493-2.432 2.171-2.186 3.85Z"/></svg>