<?xml version="1.0" encoding="UTF-8"?><svg xmlns="http://www.w3.org/2000/svg" data-name="ARTWORK" viewBox="0 0 1000 1000"><path fill="#edc84f" d="M534.933 175.531c-132.781-9.877-263.804 69.513-331.303 184.284s-75.52 258.79-37.947 386.527c18.989 64.558 50.445 127.709 102.391 170.486 89.515 73.715 222.992 71.467 329.746 26.184 80.855-34.297 152.16-90.798 204.031-161.672 67.152-91.752 100.784-206.434 99.623-320.129-.581-56.95-10.331-115.73-41.756-163.23-28.371-42.884-72.422-73.387-119.266-94.59-99.062-44.838-215.021-51.039-318.3-17.022"/><path fill="#edc851" d="M534.933 170.836c-19.608-2.102-39.687-2.757-59.31-.617-19.855 2.165-39.498 6.025-58.671 11.625-38.435 11.226-74.787 29.18-107.537 52.166a398.6 398.6 0 0 0-87.615 84.035c-25.98 33.93-45.831 72.27-60.056 112.515-14.824 41.941-23.161 86.106-25.905 130.469-2.754 44.512.376 89.332 8.53 133.159 8.004 43.023 20.875 85.445 39.659 125.021 18.358 38.681 43.434 74.978 76.415 102.619 30.833 25.84 67.604 43.636 106.646 53.099s80.221 11.122 120.225 6.449c41.159-4.807 81.072-15.818 119.058-32.331 39.698-17.257 76.793-39.918 110.708-66.779 33.928-26.871 64.104-58.171 89.984-92.847 27.102-36.313 48.774-76.386 65.357-118.519 16.746-42.548 27.737-87.095 33.589-132.415 5.807-44.975 6.584-90.947.296-135.91-6.261-44.763-21.416-88.196-49.452-124.054-26.351-33.703-62.425-59.078-100.578-77.797-41.356-20.291-85.948-33.943-131.536-40.487-46.512-6.678-93.581-6.356-139.973 1.188-22.156 3.603-43.629 9.55-64.933 16.53-4.478 1.467-7.387 6.035-6.096 10.736 1.206 4.388 6.238 7.569 10.736 6.096 42.128-13.801 87.314-20.468 131.579-20.789 44.627-.324 89.142 6.113 131.793 19.279 40.583 12.528 80.219 30.908 114.047 56.831 32.84 25.166 58.207 58.191 72.307 97.21 14.817 41.003 18.789 84.995 18.12 128.33-.674 43.65-6.529 87.104-17.538 129.352-11.048 42.394-27.201 83.367-48.581 121.623-20.723 37.082-46.213 71.248-75.953 101.583A485.5 485.5 0 0 1 652.781 905c-34.58 20.679-71.594 37.197-110.53 47.708-37.718 10.183-76.68 14.938-115.766 12.948-37.578-1.914-75.394-10.463-109.278-27.422-35.503-17.769-65.498-44.364-88.466-76.682-24.116-33.933-40.986-72.443-53.137-112.122-12.529-40.912-20.309-83.26-22.831-125.979-2.53-42.845.007-86.058 8.546-128.146 8.453-41.669 22.555-82.173 42.866-119.565 18.72-34.464 42.706-65.641 70.991-92.798 27.911-26.798 59.837-49.293 94.547-66.411 34.082-16.808 70.962-28.706 108.758-33.273 18.81-2.273 37.483-3.744 56.455-3.03 6.148.231 5.878-8.759 0-9.39Z"/><path fill="#f45b5b" d="M725.869 47.993a19390 19390 0 0 1 21.927 46.344c7.282 15.462 14.459 30.979 21.85 46.388s14.924 30.718 22.386 46.075 14.858 30.748 22.416 46.058c7.509 15.211 14.689 30.647 22.772 45.561a188 188 0 0 0 3.166 5.653c1.721 2.929 5.404 4.087 8.493 2.783 2.803-1.183 5.241-4.887 3.938-8.024-3.462-8.334-7.45-16.392-11.501-24.45L829.88 231.63c-7.697-15.312-15.517-30.561-23.311-45.824l-23.264-45.562c-7.75-15.178-15.798-30.207-23.731-45.289s-15.843-30.181-23.737-45.285l-3.004-5.748c-.979-1.873-3.747-2.588-5.518-1.447-1.965 1.267-2.416 3.473-1.447 5.518Z"/><path fill="#f45b5b" d="M660.343 188.285c17.267-3.442 34.454-7.186 51.532-11.47s33.984-8.98 50.817-14.09a1460 1460 0 0 0 99.926-34.326c16.915-6.504 33.7-13.338 50.37-20.444.949-.404 1.997-.732 2.895-1.236 1.47-.825 2.429-2.08 3.447-3.357 1.82-2.286 2.66-4.84 1.456-7.693-1.139-2.699-3.568-4.119-6.436-4.329-.59-.043-1.182-.108-1.773-.131-1.868-.072-3.401.434-5.079 1.165-1.182.515-2.356 1.047-3.536 1.568a1482 1482 0 0 1-21.749 9.391l1.94-.819a1467 1467 0 0 1-87.192 33.569c-29.397 10.252-59.151 19.506-89.03 28.244-16.712 4.888-33.456 9.697-50.275 14.207-2.554.685-4.368 3.633-3.531 6.219.893 2.761 3.435 4.086 6.219 3.531Z"/><path fill="#f15c5b" d="M727.979 45.198a120.3 120.3 0 0 1-14.976 27.865L713.954 25a182.6 182.6 0 0 1 48.669 25.949l-37.43-2.996"/><path fill="#f45b5b" d="M725.511 42.729c-3.389 4.191-5.687 9.219-8.48 13.818a120 120 0 0 1-6.513 9.644q-.337.45-.676.896c-.442.585-.111.182.132-.169-.417.602-.918 1.165-1.386 1.729l10.659 4.415c.714-7.982.738-16.022.969-24.031L720.909 25l-8.803 6.706q3.361 1.218 6.675 2.562c.493.2 1.129.608 1.653.681l-.858-.363.82.35q1.64.703 3.265 1.44a183 183 0 0 1 12.177 6.072c8.027 4.383 15.747 9.373 23.092 14.82l3.693-13.634-37.43-2.903c-3.776-.293-7.388 3.531-7.223 7.223.187 4.18 3.179 6.889 7.223 7.223l37.43 3.09c3.047.252 6.387-2.44 7.055-5.371a8.7 8.7 0 0 0 0-3.89c-.443-1.947-1.851-3.24-3.362-4.372-15.267-11.438-32.483-20.159-50.513-26.338-4.362-1.495-8.757 2.425-8.803 6.706l-.259 24.031c-.087 8.01-.382 16.034.017 24.031.132 2.654 1.836 5.395 4.584 6.021s5.546-.433 7.051-2.869c2.864-4.633 5.53-9.353 7.819-14.3 2.414-5.217 4.999-10.891 5.257-16.717.126-2.847-4.039-4.844-5.96-2.469Z"/><path fill="#f15c5b" d="M847.332 282.301a120.2 120.2 0 0 1 18.907-25.363l-8.002 47.401a182.6 182.6 0 0 1-44.329-32.817l36.584 8.462"/><path fill="#f45b5b" d="M849.801 284.769c1.912-1.752 3.099-3.613 4.974-5.755.62-.709 1.179-1.455 1.741-2.21q.27-.36.541-.717c.866-1.146-.351.433.16-.21.828-1.042 1.655-2.083 2.509-3.104 3.376-4.035 7.007-7.908 10.929-11.419l-10.436-6.075c-1.876 7.77-3.075 15.701-4.476 23.57l-4.21 23.643 10.215-4.156a184 184 0 0 1-23.113-14.802q-.614-.464-1.227-.93-.907-.696.416.323l-.692-.54a181 181 0 0 1-7.934-6.594c-3.464-3.048-6.853-6.18-10.116-9.443l-7.118 12.228 36.609 8.372c3.675.841 7.993-1.127 8.885-5.045.841-3.694-1.11-7.964-5.045-8.885l-36.559-8.553c-3.055-.715-6.72.443-8.262 3.362-1.529 2.895-1.213 6.485 1.144 8.866 13.394 13.53 29.09 24.901 45.992 33.649 2.017 1.044 4.086 1.238 6.189.351 1.809-.763 3.696-2.437 4.026-4.506l3.831-24.003c1.34-8.397 2.879-16.783 3.71-25.247.238-2.428-1.767-4.832-3.838-5.706-2.142-.904-5.221-.604-6.821 1.291-3.728 4.414-7.299 8.953-10.489 13.776-1.456 2.201-3.046 4.462-4.145 6.864-1.221 2.668-2.661 5.319-3.224 8.211-.662 3.4 3.172 5.837 5.835 3.397Z"/><path fill="#f15c5b" d="M905.119 106.252a120.3 120.3 0 0 1-27.865-14.976l48.063.951a182.6 182.6 0 0 1-25.949 48.669l2.996-37.43"/><path fill="#f45b5b" d="M907.588 103.783c-4.191-3.389-9.219-5.687-13.818-8.48a120 120 0 0 1-9.644-6.513q-.45-.337-.896-.676c-.585-.442-.182-.111.169.132-.602-.417-1.165-.918-1.729-1.386l-4.415 10.659c7.982.714 16.022.738 24.031.969l24.031.693-6.706-8.803a190 190 0 0 1-2.562 6.675c-.2.493-.608 1.129-.681 1.653l.363-.858-.35.82a183 183 0 0 1-7.512 15.442c-4.383 8.027-9.373 15.747-14.82 23.092l13.634 3.693 2.903-37.43c.293-3.776-3.531-7.388-7.223-7.223-4.18.187-6.889 3.179-7.223 7.223l-3.09 37.43c-.252 3.047 2.44 6.387 5.371 7.055a8.7 8.7 0 0 0 3.89 0c1.947-.443 3.24-1.851 4.372-3.362 11.438-15.267 20.159-32.483 26.338-50.513 1.495-4.362-2.425-8.757-6.706-8.803l-24.031-.259c-8.01-.087-16.034-.382-24.031.017-2.654.132-5.395 1.836-6.021 4.584s.433 5.546 2.869 7.051c4.633 2.864 9.353 5.53 14.3 7.819 5.217 2.414 10.891 4.999 16.717 5.257 2.847.126 4.844-4.039 2.469-5.96Z"/><path fill="#f15c5b" d="M653.644 182.64a120.2 120.2 0 0 1 22.691 22.042l-45.96-14.092a182.6 182.6 0 0 1 38.299-39.689l-13.144 35.174"/><path fill="#f45b5b" d="M650.63 184.402c3.1 4.414 7.351 8.013 11.011 11.963a121 121 0 0 1 6.314 7.389c.109.138.906 1.125.35.446-.504-.616.11.15.2.27a88 88 0 0 1 2.439 3.364l7.051-9.172c-7.481-2.876-15.208-5.103-22.849-7.521l-22.922-7.256 4.156 10.215q1.022-1.415 2.069-2.812.525-.697 1.054-1.391.68-.884-.297.382l.536-.687a182 182 0 0 1 13.365-15.213 183 183 0 0 1 9.818-9.286 262 262 0 0 1 5.135-4.394 184 184 0 0 1 4.753-3.826l-.446.345-10.748-8.262-13.054 35.199c-.619 1.668-.14 4.082.728 5.566.877 1.498 2.595 2.927 4.317 3.319 4.108.936 7.457-1.251 8.885-5.045l13.234-35.149c.416-1.104.307-2.774 0-3.89-.424-1.54-1.373-2.836-2.622-3.8-1.052-.812-2.145-1.263-3.461-1.44-1.465-.197-3.433-.068-4.665.868-12.051 9.162-22.912 19.617-32.356 31.463a212 212 0 0 0-8.255 11.033c-2.642 3.797.144 9.025 4.156 10.215l23.038 6.837c7.679 2.279 15.312 4.763 23.111 6.571 2.609.605 5.733-.374 7.051-2.869 1.343-2.542.962-5.441-.976-7.567-3.664-4.018-7.466-7.87-11.589-11.422-4.34-3.739-9.086-7.735-14.589-9.571-2.776-.926-5.688 2.643-3.942 5.128"/><g fill="#d85bd2"><path d="M138.042 554.384c-34.066-10.552-60.193-43.025-63.208-78.56-.999-11.77 2.844-26.668 14.467-28.776 7.496-1.36 14.611 3.508 20.353 8.514 23.85 20.791 41.332 48.79 49.543 79.346 10.712-11.252 14.631-27.147 18.388-42.221 3.756-15.075 8.248-30.948 19.648-41.503s32.008-12.647 41.308-.203c7.056 9.442 4.994 22.784 1.061 33.896-10.072 28.46-30.578 53.096-56.738 68.166 32.284-.644 64.613 12.575 87.196 35.654 8.49 8.676 16.017 21.151 11.398 32.377-5.569 13.534-24.059 15.144-38.486 12.686-33.05-5.63-64.312-21.346-88.545-44.514-.058 23.777-13.068 47.127-33.256 59.689-10.53 6.552-24.752 10.008-35.009 3.037-11.979-8.141-12.293-25.853-8.074-39.708 8.186-26.88 29.047-49.599 55.132-60.043"/><path d="M139.194 550.205a86 86 0 0 1-5.271-1.882c-.447-.177-.892-.361-1.338-.542-.468-.19.175.074.221.094l-.661-.286a85 85 0 0 1-2.617-1.2c-3.35-1.605-6.633-3.398-9.702-5.494a90 90 0 0 1-3.374-2.419l-.576-.437c-.551-.414.887.704-.032-.027a102 102 0 0 1-4.268-3.572 94 94 0 0 1-7.89-7.91 114 114 0 0 1-3.596-4.305c-.335-.418-.479-.214.205.271-.142-.101-.347-.454-.436-.572a94 94 0 0 1-2.423-3.353 94.7 94.7 0 0 1-8.847-15.898c-.096-.221-.187-.445-.286-.664-.033-.072.557 1.346.296.699-.38-.943-.763-1.884-1.121-2.836-1.306-3.474-2.499-7.006-3.446-10.598a87 87 0 0 1-1.89-9.173c-.022-.149-.036-.627-.103-.715.165.213.235 1.816.078.562q-.09-.715-.166-1.432c-.42-3.908-.483-7.796.035-11.698l-.249 1.852c.317-2.247.796-4.47 1.515-6.625.167-.501.356-.993.539-1.488.388-1.045-.645 1.43-.292.677.109-.234.21-.471.321-.704.455-.96.97-1.891 1.552-2.78.21-.32 1.245-1.714.39-.602s.219-.218.48-.497q.541-.579 1.135-1.103c1.218-1.07-1.438.991-.102.065q.589-.408 1.215-.755c.21-.116.429-.217.64-.332 1.039-.565-.605.347-.793.315.339.059 1.192-.418 1.546-.513a16 16 0 0 1 1.753-.359l-1.928.259a17 17 0 0 1 4.035-.014l-1.937-.26c1.493.205 2.88.611 4.301 1.099.575.197.705.588-.602-.266.332.217.77.353 1.127.531.752.376 1.487.788 2.205 1.224 1.205.732 2.296 1.717 3.514 2.408-1.568-.89-.779-.606-.308-.229q.414.331.822.67a82 82 0 0 1 1.9 1.631 158 158 0 0 1 12.328 12.139 162 162 0 0 1 6.996 8.22c.32.403 1.838 2.416.343.419.895 1.195 1.806 2.378 2.684 3.585a162 162 0 0 1 9.52 14.69 164 164 0 0 1 8.694 17.503l-.763-1.809c2.906 6.887 5.307 13.954 7.258 21.168 1.47 5.435 8.811 7.584 12.776 3.373 7.09-7.531 11.658-16.759 14.979-26.472 3.005-8.789 4.866-17.897 7.322-26.842 1.374-5.003 2.942-9.955 4.939-14.747l-.763 1.808c1.172-2.774 2.481-5.489 4.002-8.09a54 54 0 0 1 2.98-4.556c.985-1.346-.302.071-.243.289-.076-.285 1.26-1.543 1.485-1.803a43 43 0 0 1 2.978-3.112 32 32 0 0 1 1.498-1.332c.441-.366 1.492-1.057-.515.374.264-.188.519-.389.783-.578 2.044-1.46 4.254-2.662 6.564-3.642l-1.8.759a35.8 35.8 0 0 1 8.813-2.398l-2 .269a31.6 31.6 0 0 1 7.953-.031l-2.003-.269c2.252.309 4.441.878 6.539 1.759l-1.802-.761a22 22 0 0 1 3.223 1.712c.338.219 1.923 1.394.726.475-1.24-.951.47.452.749.72q.62.595 1.187 1.243c.209.238.399.494.609.73-1.62-1.823-.704-.921-.34-.394a23 23 0 0 1 2.178 3.988l-.763-1.808c.862 2.102 1.417 4.283 1.731 6.531l-.271-2.015c.426 3.357.312 6.73-.135 10.079l.271-2.018c-.944 6.661-3.163 13.038-5.753 19.221l.768-1.821c-4.308 10.196-9.933 19.79-16.677 28.565l1.199-1.552c-6.694 8.656-14.427 16.458-23.083 23.156l1.57-1.213a126 126 0 0 1-14.606 9.709c-2.91 1.653-4.672 5.627-3.617 8.887 1.062 3.283 4.022 5.815 7.588 5.777 5.677-.059 11.344.299 16.971 1.055l-2.127-.286c10.843 1.495 21.465 4.387 31.549 8.643l-1.934-.816a122 122 0 0 1 26.52 15.471l-1.646-1.272c6.071 4.697 11.928 9.932 16.676 15.988l-1.276-1.652c2.35 3.043 4.406 6.296 5.94 9.827l-.824-1.953c.967 2.299 1.687 4.671 2.049 7.141l-.292-2.176c.246 1.903.267 3.792.017 5.696l.293-2.178a20.2 20.2 0 0 1-1.225 4.493l.826-1.958a19.7 19.7 0 0 1-2.437 4.236l1.283-1.66a20.3 20.3 0 0 1-3.552 3.528l1.661-1.284c-1.605 1.212-3.35 2.189-5.196 2.985l1.963-.828c-2.946 1.232-6.048 1.979-9.207 2.416l2.187-.294c-5.167.676-10.405.538-15.564-.137l2.192.295c-13.503-1.832-26.859-5.922-39.4-11.181l1.982.836c-13.737-5.8-26.7-13.329-38.506-22.442l1.681 1.299a171 171 0 0 1-13.168-11.332c-2.441-2.328-5.958-3.032-9.074-1.717-3.027 1.278-5.088 4.254-5.106 7.591a70 70 0 0 1-.592 8.689l.297-2.208c-.855 6.269-2.553 12.376-5.005 18.207l.838-1.986a74.7 74.7 0 0 1-9.557 16.311l1.303-1.687a71.8 71.8 0 0 1-12.543 12.562l1.69-1.306c-3.895 2.994-8.069 5.585-12.596 7.509l1.998-.843c-3.411 1.416-6.954 2.453-10.617 2.954l2.227-.299c-2.532.317-5.07.366-7.605.06l2.229.299a24.6 24.6 0 0 1-6.125-1.63l2.004.846a22.7 22.7 0 0 1-4.749-2.786l1.699 1.313a22.7 22.7 0 0 1-3.869-3.898l1.313 1.7a25.3 25.3 0 0 1-3.033-5.258l.847 2.008c-1.106-2.654-1.795-5.436-2.182-8.282l.301 2.237c-.524-4.127-.416-8.293.131-12.411l-.301 2.24c.86-6.181 2.779-12.134 5.194-17.874l-.851 2.017c3.18-7.472 7.316-14.495 12.263-20.933l-1.324 1.714a99 99 0 0 1 17.702-17.682l-1.718 1.327c6.345-4.863 13.262-8.928 20.627-12.04l-2.027.856q.692-.288 1.386-.569c2.13-.858 3.868-1.842 5.072-3.9 1.065-1.819 1.516-4.5.856-6.54-.665-2.054-1.937-4.035-3.9-5.072-1.886-.996-4.467-1.69-6.54-.856-15.982 6.438-30.332 16.534-41.334 29.863-5.473 6.63-10.275 13.774-13.965 21.55-3.555 7.491-6.552 15.408-7.691 23.657-1.15 8.331-1.192 17.097 2.028 25.017 1.765 4.341 4.083 8.357 7.525 11.614 3.664 3.467 8.193 6.058 13.082 7.339 9.965 2.611 20.298.237 29.425-4.02 7.837-3.655 14.994-9.338 20.868-15.645 12.305-13.212 19.855-30.156 21.538-48.111.189-2.013.282-4.033.293-6.055l-14.18 5.873c14.567 13.891 31.537 25.414 49.942 33.583 9.49 4.212 19.254 7.744 29.327 10.286 8.92 2.251 18.228 4.163 27.47 3.951 9.402-.215 18.662-2.435 26.107-8.381 8.46-6.756 11.227-18.265 8.621-28.502-2.665-10.469-9.946-19.29-17.674-26.521a127.2 127.2 0 0 0-24.483-17.954c-17.682-9.937-37.629-15.681-57.911-16.383a117 117 0 0 0-7.089-.025l3.972 14.665c15.554-9.154 29.003-21.359 39.984-35.638 5.155-6.704 9.675-13.891 13.432-21.469 3.97-8.008 7.611-16.563 9.343-25.37 1.899-9.654 1.87-20.371-3.646-28.929-2.467-3.828-5.741-7.097-9.706-9.371s-8.184-3.366-12.667-3.92c-8.02-.991-16.463 1.095-23.536 4.862-7.887 4.201-14.028 11.337-18.407 19.013-8.972 15.724-10.929 33.9-16.74 50.778a97 97 0 0 1-2.294 6.02l.768-1.821c-1.3 3.052-2.77 6.032-4.508 8.86-.831 1.353-1.734 2.649-2.665 3.934-.849 1.173 1.084-1.334.223-.29-.253.307-.501.618-.758.923a49 49 0 0 1-1.869 2.084l12.776 3.373c-5.052-18.729-13.575-36.715-24.784-52.538-5.74-8.102-12.116-15.777-19.171-22.77-3.399-3.369-6.925-6.663-10.699-9.61-4.556-3.558-9.628-6.924-15.437-7.939-5.465-.954-11.274-.264-15.98 2.87a24.9 24.9 0 0 0-8.574 9.804c-3.743 7.707-4.767 16.473-3.77 24.93 1.102 9.343 3.395 18.359 7.261 26.949 3.59 7.977 8.364 15.326 13.903 22.083 10.951 13.361 25.654 23.754 41.77 29.929a85 85 0 0 0 5.802 1.98c2.17.657 4.82-.784 5.331-3.027.54-2.372-.715-4.587-3.027-5.331Z"/></g><path fill="#f15c5b" d="M412.392 505.385c6.494 21.676 26.903 35.684 45.934 47.924 62.414 40.142 125.239 80.502 193.752 109.013L529.077 494.326c-7.245-9.895-14.837-20.102-25.59-26-14.007-7.683-31.579-6.727-46.329-.589-14.75 6.137-27.087 16.909-38.159 28.426"/><path fill="#f45b5b" d="M408.677 506.409c.645 2.124 1.463 4.16 2.305 6.211.299.727.084.256.031.109q.126.346.261.688.266.684.549 1.36a74 74 0 0 0 1.552 3.506c1.708 3.554 3.789 6.92 6.127 10.093 5.031 6.824 11.51 12.565 18.146 17.789 14.923 11.749 31.12 21.861 47.026 32.202 16.81 10.929 33.653 21.853 50.859 32.152s34.569 20.215 52.277 29.558c17.687 9.332 35.692 18.074 54.068 25.968q4.098 1.759 8.215 3.474c1.085.452 2.864.304 3.968 0 1.571-.433 2.893-1.401 3.877-2.675 1.676-2.17 2.329-5.903.584-8.289l-41.867-57.218-41.867-57.218c-13.805-18.866-27.555-37.774-41.385-56.621-6.441-8.778-13.189-17.154-22.177-23.454-8.83-6.19-19.704-9.094-30.418-9.174-11.027-.083-21.988 2.749-31.861 7.576-9.492 4.642-18.054 11.179-25.843 18.268-2.193 1.996-4.226 4.339-5.975 6.725l1.205-1.559c-1.217 1.195-2.028 2.698-2.866 4.162-.759 1.325-1.69 2.706-2.037 4.2l1.563-2.683-.294.306c-2.208 2.292-2.451 6.348 0 8.597 2.389 2.193 6.241 2.447 8.597 0l.294-.306-2.683 1.563c1.51-.405 2.814-1.308 4.148-2.089 1.467-.859 2.943-1.648 4.172-2.856l-1.559 1.205c5.306-3.711 9.881-8.413 15.001-12.372l-1.661 1.283c6.382-4.898 13.256-9.084 20.672-12.225l-1.96.827c5.129-2.134 10.489-3.632 15.991-4.409l-2.139.287c4.922-.661 9.892-.734 14.819-.09l-2.102-.282c4.063.565 8.021 1.611 11.803 3.204l-1.861-.785c3.406 1.474 6.58 3.37 9.529 5.621l-1.557-1.203c5.238 4.064 9.669 9.021 13.762 14.21.258.327.507.662.77.984-1.464-1.793-.474-.614-.169-.215q.633.828 1.258 1.661c1.115 1.483 2.217 2.975 3.32 4.467q3.415 4.62 6.808 9.252l28.034 38.265 56.068 76.531 31.575 43.099 8.429-10.964a869 869 0 0 1-3.007-1.259l1.783.752c-18.072-7.628-35.789-16.074-53.196-25.115-17.351-9.013-34.395-18.608-51.224-28.559-16.922-10.006-33.755-20.159-50.46-30.524a4886 4886 0 0 1-24.897-15.569c-7.49-4.71-15.162-9.129-22.584-13.949-3.398-2.206-6.743-4.496-9.983-6.928-.149-.112-1.489-1.12-.805-.607s-.477-.375-.646-.508a119 119 0 0 1-2.532-2.059 99 99 0 0 1-4.412-3.914c-2.881-2.719-5.706-5.575-8.247-8.616a59 59 0 0 1-.813-.994c-.085-.107-.573-.717-.214-.263s-.127-.168-.21-.278a59 59 0 0 1-1.724-2.416c-1.095-1.62-2.195-3.306-3.032-5.077q-.117-.253-.224-.511c.242.569-.002-.017-.039-.113-.18-.465-.364-.929-.536-1.397a53 53 0 0 1-.953-2.861c-.605-1.99-2.695-3.252-4.739-2.69-1.971.542-3.297 2.74-2.69 4.739Z"/><path d="M316.343 362.773c3.702 7.107 7.484 14.176 10.963 21.395 3.435 7.128 6.777 14.3 10.485 21.289l22.364 42.149c7.451 14.042 15.24 27.906 22.919 41.825 6.906 12.518 13.577 25.252 21.648 37.075 8.147 11.936 17.504 22.876 28.932 31.782 11.707 9.124 24.537 16.396 37.605 23.365 27.919 14.887 55.916 29.626 83.915 44.363l42.353 22.291c14.117 7.43 28.076 15.329 42.705 21.689l10.808 4.699c3.455 1.502 7.913 1.136 9.882-2.591 1.881-3.56.825-7.726-2.591-9.882-6.797-4.29-13.606-8.5-20.563-12.526-6.755-3.909-13.72-7.457-20.612-11.117l-41.97-22.285c-27.982-14.858-55.959-29.722-84.001-44.465-12.703-6.678-25.589-13.145-37.601-21.033a166 166 0 0 1-8.681-6.122c-1.23-.925.247.168.4.31-.281-.261-.624-.491-.926-.731a122 122 0 0 1-2.058-1.678 114 114 0 0 1-4.222-3.696 113 113 0 0 1-7.178-7.253 128 128 0 0 1-3.244-3.724 146 146 0 0 1-2.387-2.928c-.174-.219-1.427-1.859-.564-.71.779 1.036 0-.005-.194-.262a162 162 0 0 1-2.251-3.045 185 185 0 0 1-3.013-4.3 312 312 0 0 1-5.762-8.813c-3.705-5.858-7.207-11.841-10.692-17.832-7.899-13.581-15.79-27.167-23.685-40.751-7.927-13.64-16.269-27.053-24.419-40.562-4.081-6.765-8.126-13.531-12.466-20.131s-8.696-13.183-12.829-19.918l-6.105-9.947c-2.725-4.44-9.36-.529-6.964 4.071Z"/><path d="M319.191 364.998c6.895 2.925 13.71 6.019 20.559 9.046 3.699 1.635 7.491 3.076 11.222 4.64l.88.369c.206.081.408.173.612.259q1.427.605 2.85 1.214 2.538 1.088 5.07 2.192c2.532 1.104 3.366 1.476 5.046 2.223a198 198 0 0 0 3.541 1.534q.305.13.612.258c-.003-.001-1.172-.496-.51-.215l1.422.603a789 789 0 0 1 30.459 13.715c13.247 6.305 26.324 12.98 39.242 19.935a836 836 0 0 1 38.576 22.127 888 888 0 0 1 19.035 11.931 948 948 0 0 1 9.378 6.125c3.616 2.393 7.142 4.621 11.189 6.237 1.702.68 3.308 1.268 5.099 1.667 2.16.482 4.319-.162 5.694-1.941 1.25-1.618 1.64-4.23.424-6.016-2.37-3.481-5.206-6.206-8.485-8.812-3.308-2.63-7.012-4.799-10.573-7.072a898 898 0 0 0-19.315-11.989 843 843 0 0 0-38.725-21.998 733 733 0 0 0-39.89-19.735 796 796 0 0 0-20.316-8.954c-7.207-3.057-14.425-6.183-21.781-8.87a804 804 0 0 0-21.126-7.385c-7.226-2.414-14.595-4.314-21.975-6.199a842 842 0 0 0-5.475-1.379c-1.705-.424-3.525.405-4.189 2.056-.59 1.467-.195 3.735 1.453 4.435Zm214.105 111.47c16.485 26.518 33.139 52.939 49.425 79.579 3.981 6.513 7.835 13.129 12.005 19.523l12.802 19.634a3300 3300 0 0 0 25.877 39.109l14.483 21.537c2.421 3.601 4.968 7.097 7.525 10.602 1.502 2.059 2.922 4.248 4.591 6.176 1.496 1.728 3.124 3.338 4.623 5.066 1.806 2.082 5.231 2.009 7.271.433 2.263-1.748 2.675-4.639 1.426-7.143-.22-.442-.418-.915-.668-1.34l-.223-.447q.524 1.492-.426-.905c-.407-.915-.826-1.825-1.239-2.738-.822-1.815-1.948-3.479-2.983-5.18-1.985-3.262-3.911-6.568-6.02-9.751l-12.951-19.547c-8.547-12.9-17.134-25.763-25.863-38.54l-13.239-19.379c-4.413-6.46-9.031-12.802-13.639-19.145-9.116-12.548-18.114-25.18-27.13-37.799-10.178-14.245-20.368-28.482-30.553-42.722-.925-1.294-2.571-1.915-4.035-1.058-1.349.789-1.902 2.677-1.058 4.035Z"/><path d="M432.791 538.137c6.612-17.551 13.385-35.396 24.878-50.218s28.631-26.434 47.385-26.685c-53.339-34.902-111.389-61.872-169.206-88.712 38.163 45.997 66.039 99.589 90.774 153.997"/><path d="M436.689 540.415c.564-1.007 1.171-2.001 1.697-3.028q-.959.994.481-.725.834-2.12.376-.787c.304-.493.583-1.003.875-1.504l.439-.752q.533-.827-.223.125l.941-1.218q1.04-2.472.343-.809c.229-1.051 1.016-2.203 1.473-3.18 1.89-4.035 3.85-8.038 5.945-11.971 4.219-7.922 8.656-15.777 14.15-22.898l-1.239 1.604c4.547-5.838 9.743-11.272 15.583-15.828l-1.633 1.262c4.861-3.749 10.154-6.793 15.808-9.18l-1.893.799c4.167-1.726 8.507-2.952 12.978-3.565l-2.006.269c1.425-.184 2.83-.31 4.268-.291 3.165.043 6.519-2.35 7.239-5.511.785-3.445-.604-6.488-3.45-8.477-10.267-7.178-20.997-13.661-31.802-19.993-10.666-6.25-21.472-12.259-32.377-18.08-21.976-11.731-44.348-22.703-66.846-33.393-12.595-5.985-25.232-11.882-37.869-17.779-1.933-.902-4.125-1.51-6.26-.819-1.713.554-3.115 1.481-4.22 2.912-1.059 1.37-1.824 3.143-1.744 4.923.102 2.269.939 3.998 2.38 5.745 3.332 4.042 6.622 8.115 9.827 12.258l-1.267-1.639c12.982 16.814 24.769 34.522 35.621 52.777 10.882 18.305 20.837 37.148 30.213 56.263a1231 1231 0 0 1 15.367 32.543c.764 1.68 2.971 3.126 4.676 3.596 1.873.516 4.367.283 6.029-.789 1.671-1.077 3.141-2.681 3.596-4.676.494-2.169.127-4.015-.789-6.029-9.69-21.307-19.747-42.447-30.778-63.097s-22.933-40.712-36.222-59.918c-7.79-11.259-16.021-22.257-24.786-32.778l-9.845 12.76c22.627 10.451 45.256 20.904 67.647 31.854s44.497 22.369 66.092 34.764c12.081 6.934 23.891 14.307 35.779 21.561l3.789-13.989c-5.651.276-11.254.817-16.703 2.427s-10.645 4.022-15.439 7.036-9.301 6.577-13.377 10.499c-4.235 4.074-7.868 8.736-11.154 13.6a111 111 0 0 0-5.023 8.205c-1.825 3.281-3.69 6.666-5.015 10.183l.748-1.772a241 241 0 0 0-6.463 16.896 350 350 0 0 0-1.928 5.839c-.09.279-.185.556-.269.837q-.272.57-.265 1.212-.187 1.38-.058.439c.239-.925-.088.301-.129.501l-.222 1.077c-.133.647-.319 1.283-.462 1.921l-.187 1.392q.132-.88.018-.301c-.105.343-.156.724-.23 1.073l-.459 2.145c-.474 2.218.475 4.423 2.614 5.326 2.018.852 4.532.127 5.637-1.847Z"/><path d="M263.321 387.679c-22.194 30.585-42.907 62.323-58.916 96.621-15.869 33.997-28.112 69.674-34.507 106.7-5.975 34.596-6.992 69.588-.851 104.223 5.631 31.756 15.531 63.056 30.309 91.766 14.408 27.991 33.975 53.722 58.08 74.064 27.386 23.11 60.658 38.605 95.56 46.367 75.582 16.81 153.243-1.566 221.455-35.336 33.474-16.572 65.234-36.713 95.269-58.879 29.491-21.764 57.399-45.723 82.58-72.386 51.147-54.157 90.924-119.474 109.03-192.143 9.082-36.451 13.088-74.73 9.2-112.179-3.558-34.27-12.962-67.632-27.415-98.903-27.97-60.515-77.533-110.488-140.044-134.714-69.663-26.997-149.359-19.329-217.824 7.608-70.118 27.587-130.108 74.407-183.334 126.922-12.933 12.761-23.684 27.416-36.211 40.53-5.084 5.322 2.991 13.421 8.087 8.087 12.758-13.355 27.629-24.692 41.084-37.328 13.204-12.399 26.734-24.458 40.688-36.009 27.383-22.667 56.145-43.712 87.338-61.142 62.532-34.941 133.624-53.164 205.309-43.704 32.098 4.236 65.261 15.738 93.102 33.925 25.362 16.567 47.598 38.899 64.945 63.886 17.786 25.62 31.372 54.214 38.925 84.501 8.45 33.884 10.156 69.53 6.853 104.458-6.74 71.279-37.372 139.302-80.856 196.03-42.521 55.472-97.788 101.419-157.012 138.404-61.897 38.654-132.091 67.911-206.032 66.868-35.034-.494-70.45-7.598-102.017-23.357-27.851-13.904-51.538-33.553-71.082-57.856-18.923-23.531-33.145-51.006-42.301-79.727-9.456-29.662-13.024-61.06-12.287-92.144 1.73-72.929 27.273-141.918 62.238-205.172a563 563 0 0 1 28.123-45.608c3.183-4.652-4.258-8.821-7.484-4.375Z"/><path fill="#f45b5b" d="M206.963 629.94c-8.599 28.975-2.341 60.617 12.604 86.402 7.59 13.096 17.457 25.12 28.913 35.019 12.476 10.779 26.918 19.141 42.064 25.568 32.116 13.63 67.595 18.143 102.249 15.058 17.378-1.547 34.672-4.413 51.604-8.617s33.942-9.519 49.775-16.906c15.298-7.137 29.903-15.742 43.977-25.04 3.466-2.29 6.922-4.615 10.267-7.078a73 73 0 0 0 3.359-2.644c.31-.258.646-.511.943-.786 1.466-1.353-1.005.733.582-.517 1.899-1.495 3.845-2.931 5.75-4.419a265 265 0 0 0 19.243-16.56c3.022-2.867 5.892-5.801 8.604-8.963 1.324-1.544 1.649-3.705.32-5.374-1.174-1.474-3.592-2.254-5.28-1.054-6.737 4.792-13.114 9.762-19.882 14.568-3.37 2.393-6.756 4.76-10.2 7.046-3.471 2.304-7.028 4.328-10.609 6.437-7.069 4.164-14.07 8.377-21.394 12.091a336 336 0 0 1-19.222 8.996c-.476.205-.95.437-1.437.615 2.333-.853.3-.128-.127.05-30.48 12.683-61.829 23.019-94.587 27.769-.741.107-4.215.402-1.159.174-.927.069-1.857.243-2.78.358q-3.249.405-6.505.74c-4.154.427-8.317.723-12.48 1.044-8.143.627-16.315.901-24.482.774a295 295 0 0 1-24.945-1.433c-2.051-.207-4.12-.395-6.158-.714.262.041 1.652.233.187.023q-.62-.087-1.239-.178c-1.237-.181-2.468-.386-3.701-.59a187 187 0 0 1-12.198-2.435c-7.9-1.856-15.681-4.235-23.24-7.192-1.329-.52-1.275-.484-2.558-1.042.828.36-1.026-.461-.922-.414q-.566-.252-1.128-.51a155 155 0 0 1-5.578-2.682 149 149 0 0 1-10.821-6.047c-12.409-7.633-23.458-17.424-32.462-29.042-17.559-22.656-28.071-52.125-23.565-80.91a93 93 0 0 1 2.279-10.463c.728-2.619-3.292-3.717-4.063-1.12Zm462.75-380.295c22.413 7.831 40.23 25.799 50.909 46.684 6.072 11.875 10.104 25.132 12.895 38.469a201 201 0 0 1 1.889 10.419 244 244 0 0 1 .557 3.82c-.039-.281-.183-1.437-.006-.02.212 1.691.415 3.382.596 5.077.734 6.884 1.205 13.809 1.549 20.722.65 13.07.5 26.177-.42 39.23-.461 6.536-1.171 13.043-1.918 19.551a340 340 0 0 1-.576 4.723c-.051.393-.109.786-.155 1.179-.003.027.258-1.868.115-.863-.126.883-.246 1.767-.375 2.65a336 336 0 0 1-1.605 9.983c-4.506 25.59-12.059 50.583-21.927 74.608-.299.728-.567 1.486-.91 2.194 1.004-2.069-.066.153-.302.702a341 341 0 0 1-2.032 4.638c-1.337 2.991-2.76 5.94-4.136 8.913-2.758 5.96-5.57 11.85-8.742 17.604s-6.63 11.273-9.842 16.969-6.606 11.243-10.115 16.742c-1.687 2.644-2.892 5.613-4.369 8.384-2.292 4.3 3.027 8.263 6.617 5.106 2.578-2.267 5.036-4.09 7.364-6.818a319 319 0 0 0 6.384-7.728c4.408-5.509 8.617-11.09 12.404-17.044 7.113-11.185 13.826-22.709 19.512-34.686a331.3 331.3 0 0 0 25.614-77.311c5.346-26.782 7.361-54.029 5.819-81.301a321 321 0 0 0-1.21-15.087 61 61 0 0 0-.237-1.997l-.14-1.04q.184 1.366.07.486c-.176-1.428-.376-2.853-.572-4.278-.989-7.178-2.25-14.319-3.885-21.379-3.29-14.202-8.177-27.969-15.287-40.725-12.075-21.663-30.593-40.507-54.045-49.466a81 81 0 0 0-8.497-2.709c-2.347-.612-3.24 2.813-.992 3.598Z"/><path fill="#d85bd2" d="M377.558 418.806c1.338-.887 2.643-1.761 3.852-2.825l3.141-2.763a51 51 0 0 0 2.954-2.79c.471-.485.959-.959 1.414-1.458.689-.754 1.144-1.621 1.635-2.502.83-1.488.686-3.614-.621-4.814-1.323-1.214-3.22-1.51-4.814-.621-.848.473-1.683.91-2.421 1.557-.507.444-.974.945-1.458 1.414a53 53 0 0 0-2.871 3.033l-2.688 3.056c-1.089 1.238-1.991 2.567-2.9 3.937-.819 1.236-.542 3.231.546 4.23 1.101 1.01 2.909 1.422 4.23.546Zm20.859 23.774c.271-.799.555-1.592.862-2.377.054-.137.438-1.084.314-.788q-.15.352.101-.23.153-.348.311-.694a64 64 0 0 0 1.151-2.799c.466-1.194-.347.759.166-.405q.233-.53.475-1.057a53 53 0 0 1 5.542-9.324c.089-.12.906-1.138.194-.265.489-.6.97-1.204 1.475-1.791a85 85 0 0 1 3.409-3.711 52 52 0 0 1 3.388-3.192 46 46 0 0 0 1.719-1.558c.537-.512.933-1.078 1.42-1.645l-.15.197q.239-.302.482-.601c1.165-1.44 1.765-3.478.668-5.179-.979-1.518-3.002-2.606-4.826-1.964-2.312.814-4.198 1.85-6.083 3.433a50 50 0 0 0-3.683 3.444c-2.576 2.656-4.806 5.7-6.733 8.856s-3.492 6.494-4.796 9.937c-1.329 3.509-1.952 7.047-2.265 10.783-.143 1.708 1.437 3.239 3.027 3.429 1.776.211 3.259-.815 3.83-2.501Zm13.566 22.375 12.486-15.375 6.087-7.495c2.229-2.745 4.527-5.428 6.114-8.613 1.652-3.314-2.223-6.2-5.01-3.866-2.671 2.236-4.693 5.024-6.799 7.771l-6.026 7.855-12.051 15.71c-.99 1.291-.328 3.388.853 4.27 1.207.902 3.293 1.039 4.347-.259Zm31.225 7.915-1.618-6.474c-.268-1.071-1.103-2.109-2.047-2.662a3.3 3.3 0 0 0-1.656-.529 3.37 3.37 0 0 0-1.776.08c-1.078.349-2.118 1.017-2.662 2.047-.568 1.075-.748 2.236-.449 3.432l1.618 6.474c.268 1.071 1.103 2.109 2.047 2.662a3.3 3.3 0 0 0 1.656.529 3.37 3.37 0 0 0 1.776-.08c1.078-.349 2.118-1.017 2.662-2.047.568-1.075.748-2.236.449-3.432"/><path fill="#f45b5b" d="M561.481 276.631a21.7 21.7 0 0 1 2.166-3.624c.426-.576-.45.559-.005.004q.242-.302.495-.595c1.234-1.431 2.672-2.712 4.157-3.877l-.708.547c.756-.583 1.576-1.072 2.33-1.655.718-.555 1.338-1.236 2.045-1.811.906-.737 1.046-2.405.433-3.355a3.3 3.3 0 0 0-.993-.993c-.662-.427-1.399-.384-2.133-.279-.702.1-1.399.229-2.088.396-.915.222-1.764.766-2.551 1.274-1.387.896-2.706 1.912-3.838 3.116-2.3 2.447-4.006 5.243-5.25 8.349-.281.702-.071 1.886.328 2.505.389.604.89 1.049 1.554 1.33 1.379.582 3.364.136 4.059-1.33Zm42.562 23.875 10.996-6.073c1.835-1.013 3.579-2.17 5.346-3.297.972-.62 2.034-1.191 2.899-1.955.81-.714 1.517-1.566 2.255-2.353 1.999-2.13.044-5.904-2.928-5.03-1.027.302-2.076.565-3.077.941-1.095.411-2.078 1.075-3.081 1.67-1.802 1.069-3.62 2.106-5.352 3.287l-10.4 7.093c-1.428.974-2.203 2.954-1.188 4.529.991 1.537 2.906 2.084 4.529 1.188Zm36.512 42.703 4.878-.727c.789-.118 1.612-.179 2.378-.404.798-.235 1.594-.479 2.391-.719 1.614-.485 2.639-2.028 2.414-3.698-.214-1.593-1.626-2.987-3.31-2.923-.825.032-1.65.059-2.475.095-1.098.049-2.189.304-3.268.503l-4.927.908c-.846.156-1.738.942-2.158 1.66-.453.774-.645 1.915-.364 2.783.283.874.824 1.717 1.66 2.158l.863.364q.96.258 1.92 0Zm16.44 59.191 1.554-.232 1.035-.437q.757-.408 1.216-1.116.403-.405.557-.956a3.26 3.26 0 0 0 .373-1.67l-.155-1.152-.437-1.035a3.3 3.3 0 0 0-1.116-1.216 3.27 3.27 0 0 0-1.474-.776l-1.554-.232a4.57 4.57 0 0 0-4.451 1.176l-.715.926a4.56 4.56 0 0 0-.625 2.309q-.036.945.394 1.762.276.85.946 1.472a4.57 4.57 0 0 0 4.451 1.176ZM293.098 683.225c-.692-.035-1.321.388-1.926.681h1.937a2 2 0 0 0-.139-.103c-.771-.55-1.833-.393-2.617 0-1.031.516-2.153.963-3.08 1.651l-2.646 1.962c-2.091 1.55-3.94 3.442-5.849 5.209-1.714 1.587-1.726 4.715 0 6.299.849.779 1.963 1.358 3.149 1.305 1.155-.052 2.342-.432 3.149-1.305 1.767-1.908 3.659-3.758 5.209-5.849l1.962-2.646c.688-.928 1.135-2.049 1.651-3.08.393-.784.55-1.846 0-2.617a3 3 0 0 0-.103-.139v1.937c.293-.605.716-1.234.681-1.926-.039-.774-.602-1.341-1.38-1.38Zm43.06 20.642-.426 9.901c-.071 1.649-.176 3.3-.176 4.95 0 1.925.355 3.769.688 5.658.297 1.684 2.284 3.079 3.947 3.005 1.684-.075 3.629-1.201 3.947-3.005.333-1.888.688-3.734.688-5.658 0-1.651-.105-3.301-.176-4.95l-.426-9.901c-.091-2.105-1.79-4.133-4.033-4.033-2.263.101-3.935 1.772-4.033 4.033m66.534-1.649.502 8.41c.083 1.384.202 2.749.366 4.125.078.651.11 1.369.256 1.995.135.578.383 1.107.627 1.651.279.62.564 1.238.846 1.857.598 1.312 2.349 1.929 3.658 1.753 1.385-.186 2.721-1.214 3.052-2.63.158-.676.333-1.35.475-2.029.199-.948.219-1.802.142-2.755-.139-1.73-.364-3.442-.604-5.16l-1.164-8.32c-.128-.915-1.12-2.066-1.909-2.482-.839-.443-1.704-.62-2.648-.493-1.931.26-3.725 2.009-3.601 4.079Zm74.501-14.535-.053 4.208c-.014 1.124.226 2.231.423 3.333.172.961.76 1.913 1.201 2.799.685 1.377 2.359 2.206 3.846 2.206s3.161-.829 3.846-2.206c.442-.889 1.027-1.83 1.201-2.799.198-1.103.438-2.209.423-3.333l-.053-4.208c-.018-1.4-.592-2.836-1.587-3.83-.94-.94-2.481-1.647-3.83-1.587-1.401.063-2.854.523-3.83 1.587s-1.568 2.356-1.587 3.83"/></svg>