<?xml version="1.0" encoding="UTF-8"?><svg xmlns="http://www.w3.org/2000/svg" data-name="ARTWORK" viewBox="0 0 1000 1000"><g fill="#d85bd2"><path d="M127.449 935.126c59.107-83.45 96.986-181.809 109.121-283.348 2.756-23.061 4.713-47.647 18.652-66.224 14.654-19.531 39.451-28.191 63.089-34.309 53.657-13.887 108.991-20.06 164.217-24.743A3174 3174 0 0 1 798.28 515.51c12.555.188 26.128.804 35.905 8.683 15.886 12.802 13.793 37.251 9.471 57.191-12.762 58.873-32.04 116.102-51.279 173.187-14.196 42.122-29.272 85.729-60.115 117.737-38.115 39.555-94.326 55.262-148.34 65.256-77.831 14.4-156.944 20.345-235.875 26.267-47.17 3.539-94.89 7.056-141.538-.787-27.745-4.665-55.06-13.457-78.923-28.361"/><path d="M129.96 937.637c37.963-48.238 66.551-103.714 86.412-161.685 9.936-29.003 17.566-58.719 22.913-88.906 2.687-15.173 4.603-30.432 6.462-45.722 1.654-13.612 3.63-27.942 9.603-40.437 11.959-25.017 38.332-34.805 63.526-41.407 32.648-8.556 66.012-14.17 99.506-18.144 69.08-8.197 138.874-12.183 208.368-14.772 35.093-1.307 70.209-2.054 105.326-2.152q26.34-.074 52.678.289c13.685.189 30.082-1.509 41.396 5.438 1.689 1.037 4.315 3.432 5.245 4.602-.043-.055 1.41 2.112 1.857 2.901.307.542.571 1.101.87 1.646 1.001 1.824-.11-.666.508 1.151.93 2.732 1.657 5.474 2.125 8.324-.248-1.508.016.111.038.365.074.824.152 1.647.204 2.473.106 1.675.147 3.352.134 5.031-.053 6.961-.618 10.918-1.828 17.273-1.524 8.002-3.471 15.939-5.397 23.852-8.113 33.317-18.109 66.142-28.764 98.725-10.011 30.615-19.821 61.446-31.273 91.559-9.856 25.917-22.808 52.926-41.557 73.602a157 157 0 0 1-14.862 14.345c-4.953 4.191-10.034 7.897-16.09 11.791-11.34 7.293-24.532 13.859-36.02 18.401-26.659 10.541-54.767 16.896-82.905 22.017-67.789 12.337-136.523 18.199-205.163 23.408-66.105 5.017-135.753 13.585-200.078-7.251-14.187-4.595-27.672-10.454-40.503-18.401-4.644-2.876-11.13-.999-13.836 3.628-2.825 4.83-1.028 10.953 3.628 13.836 59.79 37.031 132.64 37.156 200.55 32.569 70.892-4.788 141.956-10.191 212.329-20.195 31.95-4.542 64.047-9.717 95.245-18.105 28.298-7.608 56.451-18.245 80.803-34.797 25.299-17.196 44.937-40.308 59.295-67.231 14.588-27.354 24.245-57.012 34.094-86.3 11.226-33.384 22.247-66.855 31.914-100.73 4.829-16.924 9.312-33.949 13.278-51.096 3.279-14.176 6.841-28.769 6.364-43.428-.436-13.376-4.436-27.436-15.061-36.327-12.754-10.674-29.245-11.515-45.15-11.694-35.829-.404-71.665-.19-107.488.576-72.037 1.54-144.046 5.436-215.794 12.088-35.018 3.247-69.979 7.302-104.621 13.428-17.04 3.013-33.986 6.586-50.745 10.905-13.926 3.589-27.816 7.881-40.608 14.562s-24.204 16.23-31.828 28.634c-7.868 12.802-11.409 27.713-13.557 42.424-2.215 15.168-3.585 30.432-6.007 45.575a614 614 0 0 1-9.241 46.27c-14.517 60.509-37.547 119.305-68.218 173.468-7.532 13.301-15.492 26.401-23.654 39.322-2.107 3.336 3.05 7.515 5.578 4.304Z"/></g><path d="M131.472 948.56c-44.529-10.368-34.297-112.656-31.896-165.305 4.773-104.649 9.6-209.763 29.918-312.532 4.979-25.184 12.12-52.209 32.358-68.002 18.444-14.393 43.488-16.065 66.868-16.932q34.36-1.274 68.737-1.927c12.15-.231 26.926 1.119 32.212 12.061 3.59 7.431 1.13 16.722 4.772 24.127 5.352 10.882 20.142 12.035 32.264 11.679l266.469-7.83c23.321-.685 47.674-1.164 68.715 8.916s7.421 57.554.428 79.813c-4.721 15.026 11.075 2.327-3.931 7.108s-31.06 4.721-46.81 4.816c-103.231.621-196.151-4.806-297.861 12.862-22.689 3.941-54.516 1.936-72.759 15.991-24.198 18.643-36.377 71.182-45.295 100.398-25.319 82.942-56.236 152.269-81.555 235.211-5.174 16.949-13.494 42.907-26.281 51.838"/><path d="M132.464 944.961c-3.726-1.154-7.188-3.178-9.781-5.583-1.98-1.836-2.944-3.265-4.284-4.899a30 30 0 0 1-1.45-1.979 48 48 0 0 1-1.907-3.072c-4.949-8.659-7.472-19.049-9.146-29.426-3.972-24.622-2.957-51.729-1.817-77.145 1.41-31.441 3.239-62.873 4.818-94.307 2.097-41.756 4.629-83.502 8.583-125.128 3.928-41.353 9.292-82.581 17.057-123.398 5.744-30.193 12.933-66.871 44.962-79.656 15.952-6.368 33.459-6.994 50.403-7.545q31.695-1.03 63.404-1.527c3.97-.062 7.94-.155 11.906.102 3.535.228 5.884.514 9.702 1.721 2.062.652 1.815.547 3.527 1.527s1.369.714 2.889 2.227c.948.943.505.512.262.201.232.296.44.627.635.948.335.552.69 1.123.932 1.712.697 1.693.925 3.534 1.076 5.262.806 9.218 1.199 18.501 8.365 25.317 6.157 5.857 14.426 7.97 22.635 8.891 8.749.982 17.698.265 26.472.068l31.808-.714c21.207-.476 42.411-1.035 63.616-1.603l127.833-3.428c20.003-.536 40.256-1.915 60.24-.408 8.622.65 17.131 2.083 25.951 5.178 2.261.793 3.211 1.155 5.109 2.046.641.301 1.285.6 1.9.952.3.171.591.391.896.548 1.226.631-.693-.289-.625-.528-.021.074 2.007 1.94 2.21 2.139 1 .987-1.034-1.695-.051-.007.312.535.653 1.049.945 1.596.169.317.311.652.484.967.433.787-.175.339-.027-.099.088-.259-.335-.993-.055-.072.082.27.19.536.28.804a33 33 0 0 1 1.048 3.987c.121.604.197 1.218.322 1.82.26 1.248-.155-1.874-.08-.584.019.32.07.642.1.961.146 1.547.222 3.1.248 4.653.051 3.074-.1 6.15-.376 9.212q-.117 1.286-.262 2.568c-.039.348-.314 2.554-.157 1.36s-.154 1.026-.207 1.375q-.23 1.497-.488 2.99c-2.094 12.103-5.656 23.816-8.766 35.673-1.915 7.298-.927 16.954 8.255 18.18 7.78 1.039 14.753-6.904 10.588-14.345-4.733-8.456-15.562-2.882-22.267-1.3-9.313 2.198-18.851 2.625-28.453 2.783-40.833.669-81.687-.305-122.522-.238-40.009.066-80.05.977-119.913 4.594-20.947 1.901-41.84 4.529-62.589 7.981-2.146.357-4.288.742-6.436 1.091q-1.406.226-2.816.426c1.461-.209-1.022.124-1.469.177-3.912.466-7.837.824-11.76 1.178-8.456.762-16.915 1.529-25.302 2.877-15.072 2.423-29.751 7.609-40.258 19.155-9.907 10.885-16.342 24.338-21.839 37.845-5.561 13.664-9.855 27.807-13.97 41.96-4.659 16.023-9.507 31.968-14.752 47.812-12.422 37.523-26.433 74.485-40.033 111.589-6.795 18.539-13.5 37.117-19.791 55.833-5.879 17.488-10.883 35.27-16.875 52.714a205 205 0 0 1-3.815 10.279q-.328.818-.67 1.632c.076-.18.374-.876-.013.01q-.523 1.202-1.069 2.393a107 107 0 0 1-2.45 5.006 79 79 0 0 1-5.249 8.587c-.755 1.079.757-.906-.057.093-.232.285-.462.57-.7.85a37 37 0 0 1-1.433 1.595c-.556.582-1.144 1.124-1.728 1.677-1.399 1.324.499-.266-.616.537-3.662 2.637-5.437 7.284-3.002 11.448 2.116 3.617 7.761 5.656 11.448 3.002 12.721-9.159 19.112-24.677 24.324-38.931 6.129-16.761 10.868-34.039 16.55-50.957 12.571-37.427 26.552-74.347 40.1-111.426 12.685-34.717 24.842-69.63 35.105-105.149 4.053-14.027 8.181-28.058 13.428-41.695.658-1.71 1.343-3.409 2.03-5.107.573-1.416-.165.341.439-1.054.44-1.017.883-2.032 1.338-3.043a155 155 0 0 1 4.631-9.465c1.633-3.054 3.384-6.048 5.3-8.934a102 102 0 0 1 2.742-3.896c.964-1.315-.627.702.42-.521.529-.618 1.038-1.252 1.575-1.863 1.972-2.244 4.108-4.355 6.45-6.213-1.209.959.242-.14.712-.459a43 43 0 0 1 2.373-1.492c1.344-.787 3.839-2.04 4.445-2.306 2.147-.944 6.689-2.366 9.865-3.155 3.897-.969 7.844-1.65 11.81-2.266 1.463-.227-.136-.002 1.338-.187q1.357-.171 2.718-.329a348 348 0 0 1 6.361-.668c4.038-.391 8.08-.731 12.119-1.113 8.712-.822 17.292-2.194 25.924-3.597 39.487-6.419 79.444-9.443 119.407-10.695s80.044-.772 120.065-.552c20.674.113 41.398.448 62.067-.139 10.324-.293 20.584-1.314 30.644-3.707 1.973-.469 3.906-1.056 5.869-1.561.456-.117 2.722-.336 1.194-.338-1.577-.001.133-.029.435.023.17.029-2.438-.574-1.597-.21l-2.4-6.044q-4.575-3.932-1.797-6.822c.482-.727 1.219-1.394 1.923-1.811.824-.488 1.565-.662 2.475-.784 1.55-.208 3.532.137 5.198 1.432 1.129.877 2.203 2.547 2.438 3.441.009.036.173 2.46.17.624-.003-1.365-.523 1.708.017.088.27-.809.481-1.645.751-2.458a547 547 0 0 0 2.514-7.688c1.902-6.01 3.583-12.059 4.955-18.213 3.008-13.487 5.177-27.55 3.001-41.32-.976-6.172-3.387-11.961-7.386-16.781-4.913-5.921-12.938-8.62-20.033-10.835-18.565-5.795-38.46-5.63-57.695-5.004-42.272 1.375-84.545 2.728-126.818 4.079-42.415 1.355-84.825 2.764-127.233 4.304-8.834.321-17.832 1.163-26.66.358-.16-.015-1.849-.192-1.016-.089.73.09-.597-.09-.592-.089-.8-.136-1.599-.28-2.392-.454a36 36 0 0 1-2.319-.588c-.29-.084-2.868-.981-1.805-.539-1.22-.506-3.297-1.736-3.718-2.071.343.273-.885-.861-1.146-1.127a10 10 0 0 1-.744-.831c.507.654.052.049-.126-.295-1.761-3.415-1.959-6.786-2.251-10.563-.4-5.164-1.046-10.181-3.373-14.87-3.575-7.206-10.883-11.672-18.437-13.71-7.755-2.092-15.871-2.03-23.831-1.837a3825 3825 0 0 0-31.409.891c-19.246.626-38.757.633-57.891 2.988-17.849 2.197-35.33 7.03-49.279 18.909-12.603 10.732-20.284 25.977-25.346 41.474-5.664 17.34-8.592 35.611-11.699 53.541-3.582 20.676-6.588 41.449-9.178 62.271-5.132 41.274-8.491 82.748-11.049 124.255-2.336 37.913-3.689 75.863-5.648 113.794-1.327 25.684-2.964 51.479-1.304 77.183.813 12.597 2.222 25.282 5.201 37.568 2.423 9.993 5.959 20.273 12.135 28.613 5.112 6.904 12.73 12.462 22.046 14.095 4.667.818 6.649-5.753 1.984-7.198Z"/><g fill="#edc851"><path d="M158.742 889.014c-11.842-114.795.071-247.355 23.655-360.324 2.241-10.733 5.148-22.285 13.693-29.155 7.839-6.303 18.593-7.166 28.634-7.752a11476 11476 0 0 1 436.585-17.175c8.77-.178 14.518 8.782 11.126 16.871a119.7 119.7 0 0 0-7.379 24.829l-317.263 27.633c-25.824 2.249-53.471 5.23-73.207 22.035-18.863 16.062-26.479 41.37-33.189 65.219-22.695 80.663-54.08 167.762-76.775 248.425"/><path d="M162.173 889.014c-1.119-13.902-1.931-27.832-2.235-41.776s-.033-27.99-.032-41.991c.001-28.942 1.242-57.886 3.211-86.758a1301 1301 0 0 1 22.669-168.706 1523 1523 0 0 1 4.151-19.827c.614-2.849 1.268-5.692 2.069-8.496.926-3.239 1.945-6.036 2.992-8.096a35 35 0 0 1 2.131-3.662c.022-.032 1.529-1.993.615-.889a26 26 0 0 1 1.539-1.708c.362-.367.748-.706 1.115-1.067 1.541-1.518-.946.475.925-.745.675-.44 1.345-.875 2.048-1.268.253-.142 2.845-1.361 1.738-.911 2.772-1.124 5.685-1.724 8.609-2.288 2.598-.501-1.498.122 1.136-.172q.822-.093 1.645-.175c1.92-.187 3.846-.31 5.772-.413 31.36-1.672 62.749-3.009 94.119-4.501a13842 13842 0 0 1 190.097-7.743 11442 11442 0 0 1 142.517-3.929c3.76-.08 7.52-.183 11.28-.235.503-.007 1.919-.225 2.42.029l-1.064-.122q.645.135 1.271.342c.021.055-1.966-1.123-.384-.154q.56.297 1.085.653-1.466-1.196-.362-.233l.443.442q.966 1.104-.231-.374c.138.034.987 1.489.944 1.622.022-.067-.491-1.755-.222-.399l.169.611q.302 1.494-.006-.51c.109.095.119 1.858.014 1.952l.155-1.081q-.123.67-.316 1.324c-.494 1.665-1.281 3.265-1.901 4.887-2.634 6.892-4.599 14.008-5.949 21.26l8.707-6.629c-51.548 4.49-103.002 10.041-154.538 14.664s-103.013 9.102-154.538 13.463c-21.547 1.824-44.013 2.971-64.264 11.243-10.139 4.141-19.495 9.804-27.226 17.643-7.227 7.327-12.929 16.132-17.329 25.403-9.436 19.882-14.431 41.628-20.645 62.645-6.809 23.033-14.011 45.947-21.32 68.826-14.787 46.283-30.759 92.343-43.454 139.256-1.544 5.708-2.948 11.461-4.551 17.152-1.092 3.877 1.341 8.558 5.382 9.478 4.092.932 8.309-1.229 9.478-5.382 3.185-11.307 7.121-22.401 10.514-33.645a3021 3021 0 0 1 10.606-34.353c7.205-22.893 14.613-45.721 21.975-68.564 7.419-23.022 14.798-46.058 21.867-69.191 3.407-11.148 6.769-22.313 9.948-33.529 2.865-10.11 5.52-20.29 8.893-30.248 3.262-9.63 6.207-16.954 11.959-25.966 4.674-7.324 11.232-14.253 18.683-18.961 16.345-10.327 36.992-13.133 55.973-14.939 50.351-4.789 100.765-8.967 151.162-13.245 50.807-4.313 101.659-8.122 152.491-12.134 6.313-.498 12.624-1.007 18.933-1.557 3.709-.323 7.948-2.552 8.707-6.629 1.409-7.566 3.49-14.987 6.296-22.156 1.33-3.397 2.515-6.593 2.386-10.341-.126-3.675-1.106-7.416-3.048-10.561-4.183-6.776-11.269-10.161-19.113-10.051-8.204.115-16.408.343-24.611.528q-48.709 1.096-97.407 2.607c-64.935 2.014-129.847 4.575-194.729 7.876-32.784 1.668-65.584 3.291-98.333 5.566-7.645.531-15.295 1.02-22.935 1.624-6.937.548-14.073 1.275-20.608 3.811-7.223 2.802-13.044 7.276-17.467 13.647-3.784 5.45-6.014 12.048-7.616 18.434-3.315 13.215-5.45 26.821-7.785 40.236a1377 1377 0 0 0-6.822 43.28c-4.184 29.579-7.689 59.237-10.081 89.017-2.378 29.6-3.696 59.244-3.713 88.941-.016 29.291 1.936 58.432 4.853 87.569a836 836 0 0 0 2.281 20.278c.532 4.27 7.223 4.475 6.862 0Z"/></g><path d="M149.774 927.428c2.241-4.555 4.31-9.222 6.876-13.604s5.053-8.766 7.301-13.339q6.72-13.666 13.145-27.472c8.451-18.159 16.609-36.476 24.138-55.038 14.998-36.975 28.561-74.535 40.03-112.756a1427 1427 0 0 0 16.294-58.841c4.244-16.71 7.499-33.886 13.695-50.024 5.284-13.761 13.671-26.107 27.374-32.916 15.101-7.504 33.389-7.893 50.443-9.327 84.756-7.129 169.659-13.352 254.686-16.03 42.478-1.338 84.989-1.76 127.481-.929 21.359.418 42.713 1.152 64.049 2.245 4.537.232 9.095.381 13.621.784.212.019 3.323.467 1.146.1.947.159 1.891.332 2.824.56.916.224 1.815.491 2.705.802-1.621-.566.369.27.886.518l.755.481q-1.288-1.038.005.125l.605.663q-1.044-1.298.016.36c-.236-1.822.392 1.959.022-.099.189 1.05.054 2.146.071 3.202.051 3.221.206-.74-.061 1.113-.131.907-.322 1.806-.509 2.702-.587 2.8-1.283 5.581-1.945 8.364-18.662 78.477-44.083 155.316-70.014 231.621-3.144 9.253-6.945 18.304-10.635 27.358-1.257 3.083 3.916 5.253 5.391 2.273 9.301-18.785 18.656-37.511 27.465-56.525 8.691-18.758 16.958-37.578 24.324-56.911 14.802-38.854 26.928-78.472 37.194-118.756 2.534-9.944 5.004-19.911 7.28-29.918 2.352-10.344 3.147-21.549-4.895-29.757-6.642-6.779-16.456-8.148-25.468-8.693-11-.665-22.016-1.132-33.028-1.558-43.364-1.677-86.776-1.935-130.162-1.128-87.343 1.624-174.508 7.581-261.518 15.129-20.704 1.796-41.631 2.974-62.191 6.081-18.055 2.729-35.962 9.194-48.409 23.14-11.764 13.182-17.967 30-22.373 46.855-4.822 18.446-8.687 37.139-13.454 55.605-20.404 79.043-46.706 156.936-78.935 231.948-4.05 9.427-7.497 18.981-11.944 28.248-1.831 3.815 3.83 7.179 5.718 3.342Zm-33.915 18.545c2.229.73 4.609 1.205 6.665 2.339 2.253 1.243 4.386 2.386 6.847 3.189 4.411 1.438 8.926 1.99 13.51 2.695 9.547 1.467 19.533.808 29.16.495 19.873-.645 39.648-2.791 59.424-4.73 40.932-4.014 81.836-8.349 122.661-13.35q61.027-7.476 122.043-15.031c40.884-5.062 81.82-9.836 122.622-15.526 19.062-2.658 38.121-5.552 56.953-9.554 18.889-4.015 38.544-8.475 56.054-16.837 4.378-2.091 8.6-4.312 12.739-6.844 6.123-3.746 1.992-12.54-4.731-11.222-18.648 3.655-36.92 8.9-55.51 12.857-9.413 2.004-18.886 3.714-28.378 5.302-4.661.78-9.331 1.513-14.005 2.21a1022 1022 0 0 1-10.113 1.451l-1.687.232q-1.815.245-.871.12l-.308.041c-39.412 5.277-78.944 9.789-118.407 14.682a97192 97192 0 0 1-121.443 14.977c-40.773 5.001-81.529 10.244-122.186 16.121-19.842 2.868-39.701 5.611-59.483 8.866-9.207 1.515-18.448 2.995-27.776 3.482-9.492.495-18.98.174-28.454.226-2.227.012-4.359.198-6.576.413-2.601.253-5.001-.47-7.502-1.129-2.939-.774-4.108 3.591-1.248 4.528Z"/><path fill="#54bfbf" d="m680.212 404.835-278.746-60.759c-9.565-2.085-20.382-5.111-24.663-13.915-4.432-9.116.34-19.826 5.048-28.803 41.046-78.271 83.206-158.046 147.145-219.062 23.144-22.086 50.131-41.993 81.549-48.022 29.28-5.619 59.394 1.337 88.148 9.215a1338 1338 0 0 1 256.183 99.479c6.269 3.211 12.791 6.717 16.635 12.619 5.725 8.788 3.865 20.842-1.68 29.744s-14.139 15.387-22.421 21.822c-61.594 47.854-116.477 104.333-162.545 167.275-13.154 17.972-26.917 37.516-47.853 45.112-14.082 5.109-29.606 4.035-44.435 1.916-95.098-13.587-183.194-66.948-279.258-66.969-12.192-.003-25.662.455-34.996-7.388-10.587-8.896-8.432-18.283-2.565-30.804s58.491-69.045 69.105-77.909"/><path fill="#55bfbf" d="M681.556 399.959c-17.794-3.879-35.511-8.09-53.098-12.837-17.744-4.789-35.847-8.522-53.742-12.735-35.46-8.349-70.886-16.851-106.439-24.791l-53.352-11.915c-7.469-1.668-15.06-3.048-22.272-5.662-.33-.119-1.59-.742-.084-.028-.739-.35-1.474-.7-2.191-1.094-.707-.388-1.368-.841-2.063-1.245-2.054-1.194 1.034 1.197-.624-.47-.352-.354-.754-.769-1.128-1.085-1.696-1.435.634 1.367-.511-.558-1.188-1.996-1.419-2.014-1.745-4.535.071.546.028 1.269.067-.414.023-.981.003-1.961.138-2.937-.238 1.722.393-1.511.383-1.467.246-.998.541-1.983.864-2.958 1.121-3.381 2.672-6.349 4.622-10.074a5883 5883 0 0 1 11.02-20.957c7.394-13.992 14.87-27.943 22.562-41.774C454.6 187.34 488.172 134.758 533.343 91c11.143-10.795 21.873-20.109 34.26-28.307 12.952-8.572 24.971-14.541 39.628-18.199 15.205-3.795 32.625-3.638 47.926-1.333 17.199 2.591 34.022 7.232 50.738 11.945 65.496 18.466 129.684 41.957 191.163 70.076a1336 1336 0 0 1 46.206 22.215c3.421 1.726 6.862 3.427 10.234 5.248a72 72 0 0 1 4.022 2.317 55 55 0 0 1 2.303 1.534q1.33.963.306.234.697.584 1.357 1.21c3.752 3.577 5.244 9.016 3.981 13.704-1.827 6.786-4.397 11.135-9.5 16.289-5.373 5.426-11.568 9.952-17.565 14.649a921 921 0 0 0-37.387 30.881 843 843 0 0 0-69.263 67.797c-21.845 23.994-41.923 49.352-61.232 75.41-1.107 1.494-2.228 2.978-3.349 4.462-.201.267-1.197 1.537-.095.129-.574.733-1.147 1.466-1.728 2.193-2.311 2.895-4.696 5.733-7.201 8.462-2.266 2.468-4.628 4.85-7.119 7.092a83 83 0 0 1-4.142 3.498c1.475-1.165.239-.189-.065.023-.983.683-1.948 1.387-2.951 2.042a60 60 0 0 1-8.676 4.725c2.121-.932-.662.223-.919.316a54 54 0 0 1-3.039 1.002 60 60 0 0 1-6.191 1.481c-.041.008-3.474.527-1.46.268-1.054.135-2.116.23-3.176.312a85 85 0 0 1-5.334.237c-4.303.062-8.607-.177-12.89-.585a177 177 0 0 1-6.42-.731c.467.062 1.674.24-.451-.068a371 371 0 0 1-15.39-2.542c-7.843-1.464-15.64-3.168-23.391-5.055-15.567-3.789-30.946-8.313-46.22-13.14-61.057-19.295-121.825-43.932-186.62-46.376-7.49-.283-14.995.042-22.48-.329-1.853-.092-3.713-.218-5.552-.465 2.102.282.078-.029-.445-.128-.742-.14-1.48-.294-2.214-.472a37 37 0 0 1-2.59-.726c-.298-.096-2.993-1.193-.879-.239a26.5 26.5 0 0 1-4.627-2.658c1.794 1.296-.605-.608-.795-.79-.645-.614-1.235-1.265-1.831-1.925 1.375 1.522.211.327-.087-.215-.302-.55-.614-1.11-.929-1.653 1.222 2.107.208.475.003-.266l-.173-.687q-.32-1.688.03.615c-.204-.124-.074-1.905-.068-2.144.02-.817-.433-2.656-.077-.245-.193-1.309.752-3.411 1.145-4.647.442-1.39.962-2.753 1.509-4.105-.834 2.06.401-.857.481-1.03.197-.429.391-.867.606-1.289.236-.462.491-.913.755-1.359 1.489-2.516 3.266-4.859 5.023-7.189.569-.755 1.607-1.363-.409.524.349-.327.637-.815.933-1.192q.819-1.038 1.648-2.067c1.44-1.79 2.902-3.564 4.374-5.328 6.575-7.88 13.16-15.748 19.808-23.567 1.649-1.94 3.329-3.856 4.969-5.804.598-.71 3.183-3.593 1.324-1.579.84-.911 1.544-1.869 2.31-2.859-1.411 1.824.682-.878 1.073-1.381 3.296-4.239 8.07-8.813 9.998-13.801l-1.873 3.214c3.047-3.161 5.931-6.477 8.946-9.67a188 188 0 0 1 3.339-3.462c.744-.749 1.369-1.773 2.141-2.439-1.843 1.591-.017.335.422-.035 2.714-2.282 2.354-6.925 0-9.279-2.687-2.687-6.559-2.288-9.279 0-.37.312-.731.634-1.096.951 2.269-1.968-.801.601-1.404 1.121a179 179 0 0 0-3.679 3.282c-2.979 2.718-6.176 5.399-8.882 8.391l-.403.418q1.545-1.358-.978.685c-.462.383-.909.787-1.362 1.181a993 993 0 0 0-9.159 8.063c-4.107 3.66-7.882 7.692-11.709 11.645-7.418 7.662-14.661 15.543-21.442 23.778-4.617 5.607-9.849 11.365-13.117 17.911-3.405 6.819-6.668 14.824-6.281 22.6.421 8.449 4.587 15.823 11.103 21.118 13.949 11.334 31.954 9.48 48.773 9.973 8.598.252 17.187.913 25.729 1.919q1.023.12 2.044.247c.104.013 3.462.452 1.346.166 2.04.276 4.077.578 6.11.895 4.409.686 8.805 1.458 13.187 2.303 16.605 3.204 32.986 7.475 49.2 12.262 32.461 9.583 64.265 21.227 96.635 31.1 16.297 4.971 32.744 9.498 49.414 13.047 17.193 3.661 35.312 7.321 52.962 6.647 18.165-.693 34.105-7.288 47.696-19.276 11.536-10.176 20.452-23.041 29.439-35.414 10.358-14.261 19.41-25.931 30.705-39.589a843 843 0 0 1 34.124-38.779 840 840 0 0 1 75.013-70.897c6.473-5.402 13.078-10.65 19.734-15.824 6.207-4.825 12.548-9.613 17.745-15.559 11.37-13.008 18.022-33.38 6.742-48.662-5.1-6.909-12.365-11.11-19.873-14.951a1337 1337 0 0 0-74.549-35.258c-33.432-14.567-67.415-27.858-101.905-39.709a1337 1337 0 0 0-51.999-16.689c-17.592-5.252-35.286-10.451-53.222-14.402-18.371-4.046-37.465-6.742-56.284-4.886-17.212 1.697-33.507 6.925-48.771 15.016-29.291 15.527-53.879 39.839-75.612 64.505-22.197 25.193-41.772 52.639-59.59 81.067-17.9 28.557-34.086 58.143-49.86 87.914a6236 6236 0 0 0-11.517 21.867c-4.428 8.438-8.815 17.04-9.464 26.717-.582 8.687 3.209 17.278 10.001 22.682 6.281 4.997 13.898 7.537 21.65 9.263 37.283 8.299 74.723 16.063 112.171 23.576l57.168 11.47c19.191 3.85 38.388 8.382 57.706 11.496 18.235 2.94 36.364 6.654 54.405 10.587 6.344 1.383 9.054-8.364 2.688-9.752Z"/><path fill="#edc851" d="M615.965 129.398a362.3 362.3 0 0 1 63.037 11.915c5.766 1.627 11.741 3.153 17.281 5.448v-8.006l-12.945 5.218c-2.122.855-4.016 2.62-3.903 5.127s1.615 4.25 3.903 5.127c5.939 2.275 12.236 3.802 18.331 5.618l18.371 5.473c12.083 3.6 24.194 7.108 36.293 10.652l73.088 21.406 20.602 6.034 10.301 3.017c1.634.479 3.262.991 4.913 1.407 2.14.538 4.269.779 6.467.948 5.157.396 7.002-7.3 2.613-9.647-5.887-3.148-12.575-4.572-18.959-6.425l-18.407-5.342-36.323-10.541c-24.379-7.075-48.744-14.2-73.138-21.225-6.876-1.98-13.762-3.925-20.642-5.887l-10.321-2.943c-3.44-.981-6.859-2.084-10.361-2.799l1.27 9.717 12.047-7.348c2.932-1.788 2.586-6.756-.992-7.587-5.311-1.234-10.518-3.001-15.802-4.368s-10.619-2.622-15.969-3.754a377 377 0 0 0-50.755-7.134c-1.591-.114-2.95 1.437-2.95 2.95 0 1.725 1.357 2.793 2.95 2.95Zm-42.991 46.928c30.605 9.765 60.888 20.421 91.104 31.319 30.213 10.897 60.074 22.66 89.837 34.723a2037 2037 0 0 1 24.91 10.287l1.331.56-.328-.138.887.375q1.552.656 3.103 1.315 3.102 1.317 6.199 2.645c2.461 1.055 4.899 2.188 7.432 3.061 1.048.361 2.124.683 3.211.906 1.829.376 3.449-.017 5.207-.404 3.139-.691 4.492-4.618 2.95-7.251-.59-1.008-1.146-2.132-1.976-2.963-.954-.954-2.333-1.727-3.513-2.391-1.748-.984-3.595-1.747-5.433-2.541q-5.523-2.385-11.06-4.738a2229 2229 0 0 0-23.42-9.8c-14.833-6.103-29.782-11.904-44.798-17.541s-30.242-11.15-45.459-16.458-30.384-10.244-45.69-15.026a2053 2053 0 0 0-51.868-15.46c-2.482-.705-5.483.863-6.072 3.448-.614 2.696.813 5.231 3.448 6.072Zm-21.831 37.555c26.428 13.801 52.64 28.092 79.66 40.72 27.437 12.824 55.185 24.925 83.404 35.927a1696 1696 0 0 0 47.338 17.644c3.416 1.216 7.727-1.373 8.516-4.835.884-3.882-1.177-7.214-4.835-8.516-28.145-10.017-55.909-20.976-83.623-32.118a1696 1696 0 0 1-25.522-10.505c-.291-.122-1.13-.474.215.091q-.66-.278-1.319-.558a1668 1668 0 0 1-25.842-11.191 143 143 0 0 0-2.309-.995c1.384.586-.104-.047-.323-.141q-2.637-1.128-5.27-2.266a1692 1692 0 0 1-20.562-9.043c-15.26-6.832-30.397-13.864-45.275-21.493-1.96-1.005-4.662-.576-5.765 1.512-1.025 1.94-.575 4.676 1.512 5.765Zm-74.849 92.792c1.511 5.627 4.883 11.349 9.484 15.006 5.07 4.029 10.937 6.666 17.37 7.53 6.503.874 13.137-.279 18.831-3.597 5.493-3.201 10.213-8.136 13.081-13.817 3.453-6.838 4.681-14.435 3.186-21.971-.736-3.712-5.549-4.401-8.014-2.116-7.723 7.158-10.796 19.05-7.304 29.032 3.683 10.527 13.538 17.136 24.536 17.694 5.258.267 10.531-1.118 15.036-3.816 2.179-1.305 4.21-2.84 6.3-4.28 1.029-.709 2.071-1.401 3.154-2.025.52-.3 1.049-.586 1.59-.848.208-.1.44-.184.64-.296-1.28.722-.432.188-.031.052a17 17 0 0 1 1.623-.44c1.107-.255-1.054-.028-.32.036.265.023.559-.037.827-.036.223 0 .444.022.666.025 1.172.016-1.26-.365-.127.004.221.072.457.113.679.181q.352.108.694.243l-.644-.257c.151-.151 1.338.881 1.576.959-.881-.288-.606-.487-.112-.053q.352.31.688.638c.913.891 1.74 1.864 2.561 2.837 3.409 4.04 7.339 7.532 12.051 9.999 5.481 2.869 11.485 4.481 17.663 4.789 3.083.153 6.146-.168 9.156-.849 1.638-.371 3.168-.897 4.713-1.555 1.616-.689 2.863-1.644 4.237-2.752 1.502-1.211 1.725-3.978.715-5.544-1.201-1.863-3.057-2.403-5.166-2.102 1.354-.193-.519.032-.786.061-.881.098-1.733.267-2.599.441q-1.674.337-3.354.639c-1.217.22 1.044-.107.234-.027-.296.029-.59.066-.886.094q-.8.073-1.603.108c-1.135.05-2.268.12-3.405.113s-2.275-.069-3.406-.185c-.283-.029-.611-.119-.893-.102.109-.007 1.423.219.444.051-.591-.102-1.182-.202-1.769-.325a36 36 0 0 1-6.18-1.887l.687.292c-.176-.262-1.33-.605-1.63-.753a34 34 0 0 1-1.43-.749 33.5 33.5 0 0 1-3.619-2.316c-.921-.677.158.09.14.116.001-.002-1.141-.953-1.236-1.037a32 32 0 0 1-2.431-2.393c-3.664-4.016-7.074-8.519-12.82-9.475s-10.881 1.426-15.513 4.642c-1.987 1.38-3.909 2.855-5.95 4.158-.952.608-1.928 1.182-2.952 1.66-.798.373-.325-.181.22-.082-.093-.017-.584.221-.628.237a21 21 0 0 1-3.23.867c-.145.026-.509.039-.66.111.914-.435.941-.114.275-.049a23 23 0 0 1-3.188.085c-.465-.02-1.229-.226-1.677-.133.767-.16 1.016.162.432.055-.276-.051-.554-.094-.83-.148a24 24 0 0 1-3.091-.825c-.453-.154-1.971-.956-.6-.192-.437-.243-.919-.426-1.364-.654a23 23 0 0 1-2.729-1.637l-.272-.195q-.677-.504.273.218c.004-.014-.553-.459-.516-.428a20.6 20.6 0 0 1-2.138-2.124c.031.036-.442-.498-.43-.515q.699.922.201.25l-.2-.282c-.723-1.039-1.156-2.245-1.844-3.284.554.837.259.66.125.277-.114-.323-.238-.642-.346-.967a22 22 0 0 1-.551-1.978c-.126-.551-.166-1.14-.317-1.682.302 1.087.078.687.051.317-.026-.343-.063-.685-.084-1.029-.075-1.265-.023-2.519.081-3.78.078-.941-.067.224-.05.289-.069-.258.119-.743.172-1.02a23 23 0 0 1 1.005-3.641c.048-.131.142-.511.245-.64q-.407.943-.083.211l.145-.311c.542-1.142 1.204-2.191 1.902-3.242.233-.351.12-.522-.125.145.096-.262.483-.555.682-.768.47-.504.968-.977 1.485-1.433l-8.014-2.116c.059.341.425 1.291.036.089.097.299.08.713.106 1.026a26 26 0 0 1 .036 3.77 27 27 0 0 1-.16 1.708q.14-1.017.055-.453c-.245 1.297-.497 2.577-.88 3.843a30 30 0 0 1-.545 1.633c-.098.268-.194.743-.372.965q.426-.99.098-.24-.105.236-.215.47a31 31 0 0 1-1.901 3.48q-.459.731-.948 1.443c-.196.284-.402.561-.602.842q-.492.653.159-.2-.215.27-.435.536a30 30 0 0 1-3.885 3.892c-.312.259-.805.981-.06.067-.256.315-.781.571-1.116.799a27 27 0 0 1-3.255 1.897c-.256.126-.52.238-.776.366-.668.332 1.15-.481.088-.034l-1.194.504q.997-.416.235-.111c-.435.153-.864.321-1.303.463-1.189.386-2.397.639-3.621.884-1.102.221.821-.077.096-.003-.281.029-.56.064-.841.089a27.3 27.3 0 0 1-5.049-.022c-.236-.023-1.374-.067-.143 0-1.319-.072-2.715-.489-3.977-.849a32 32 0 0 1-2.569-.857c-.153-.059-1.195-.508-.248-.088a33 33 0 0 1-3.627-1.867c-4.772-2.868-8.542-6.309-11.051-11.78-1.274-2.778-5.6-.788-4.841 2.041Z"/><path fill="#55bfbf" d="M527.237 790.023c13.554-1.492 26.882-3.958 39.973-7.792 12.835-3.759 25.421-9.162 36.456-16.783 20.848-14.398 36.347-36.968 38.668-62.559.559-6.157.034-12.491-2.951-18.025-3.548-6.576-11.531-10.35-18.731-7.48-7.152 2.85-11.245 9.375-14.589 15.964a177 177 0 0 0-8.787 20.456c-4.793 13.407-7.947 27.609-9.01 41.819-.551 7.367.179 15.32 4.194 21.718 3.449 5.495 8.638 9.277 14.75 11.327 5.8 1.945 11.98 1.833 17.95.962 5.553-.81 10.98-2.767 15.866-5.517 5.691-3.204 10.789-7.493 15.819-11.623a767 767 0 0 1 7.177-5.804c-2.076 1.663.182-.125.68-.492a90 90 0 0 1 1.777-1.281c1.244-.874 2.517-1.706 3.782-2.549 2.523-1.683 5.171-3.16 7.958-4.36l-9.681-9.681c-2.206 4.431-3.089 9.097-2.429 14.009.646 4.808 2.692 9.171 5.895 12.813 6.365 7.236 17.577 8.766 25.98 4.359 2.155-1.13 4.218-2.697 5.858-4.495.914-1.002 1.803-2.09 2.456-3.281.259-.472.482-.958.695-1.452.236-.547.479-1.095.69-1.652.135-.357.503-1.389-.153.098 1.154-2.615.852-6.007-1.965-7.495-2.378-1.256-6.259-.834-7.495 1.965.081-.185 1.16-1.399.092-.016-.22.285-.419.541-.617.831-.564.828.775-.861.114-.138a38 38 0 0 1-1.542 1.602q-.343.337-.704.657c-.12.105-.256.201-.369.312-.442.434.661-.493.618-.471-.606.304-1.152.794-1.75 1.129-.283.158-.573.3-.86.45-.108.056-.32.199-.44.208-.13.01 1.455-.551.799-.336-.663.218-1.309.493-1.975.706s-1.349.391-2.038.525c-.287.056-1.487.232-.24.059 1.261-.175-.093-.018-.406-.003-.642.031-1.288.024-1.929-.022-.159-.012-.321-.04-.48-.043-.712-.015 1.113.076.974.135-.214.091-.872-.163-1.1-.217-.499-.118-1.603-.264-1.992-.627-.119-.111 1.479.729.86.353-.136-.082-.295-.141-.437-.214a14 14 0 0 1-.973-.553c-.269-.168-.521-.371-.793-.532-.608-.361.885.606.734.573-.097-.022-.289-.237-.363-.306-.506-.467-1.003-.933-1.458-1.452-.104-.119-.2-.247-.307-.364-.541-.587.912 1.291.479.62-.172-.266-.366-.52-.537-.787a17 17 0 0 1-1.008-1.81c-.069-.144-.128-.294-.2-.436-.353-.685.529 1.487.324.746-.099-.357-.255-.703-.365-1.058-.221-.717-.371-1.444-.522-2.178-.108-.525.032-1.123.109.882-.008-.211-.045-.424-.062-.635a16.6 16.6 0 0 1 .097-3.492l-.248 1.845c.131-.89.321-1.765.602-2.62.105-.32.658-1.743.173-.493-.481 1.24.232-.245.427-.556 3.221-5.137-2.138-12.259-7.99-10.394-5.674 1.808-10.928 4.496-15.769 7.94-4.898 3.484-9.519 7.341-14.268 11.022l1.574-1.216c-4.613 3.562-9.383 7.055-14.774 9.348l1.894-.799c-3.472 1.444-7.075 2.495-10.802 3.022l2.107-.283c-2.974.395-5.972.458-8.95.067l2.102.282c-2.117-.302-4.177-.83-6.152-1.654l1.886.796a20.3 20.3 0 0 1-4.332-2.538l1.596 1.233a18.8 18.8 0 0 1-3.163-3.208l1.232 1.594a20 20 0 0 1-2.374-4.144l.793 1.879c-.781-1.935-1.271-3.933-1.562-5.997l.281 2.088c-.707-5.568-.039-11.216.704-16.745l-.279 2.079a162.7 162.7 0 0 1 11.126-40.731l-.78 1.847c1.961-4.646 4.208-9.13 6.479-13.628q.666-1.324 1.436-2.592.386-.635.804-1.251c.149-.218.317-.599.535-.758-.098.072-1.163 1.432-.502.651a22 22 0 0 1 1.996-2.076c.879-.8-1.281.881-.55.419.193-.122.377-.256.573-.375.433-.263.883-.483 1.349-.68l-1.767.746a9.2 9.2 0 0 1 1.941-.504l-1.955.263a8.7 8.7 0 0 1 1.991.032l-1.947-.262c.293.05.581.104.867.183.745.205 1.017.647-.668-.345.359.212 1.841 1.186.709.306-1.174-.913.236.318.52.597.835.818-1.048-1.542-.402-.544.164.254.338.497.495.756.295.488.53.999.788 1.506.381.747-.669-1.763-.299-.693.105.305.22.606.319.913.401 1.247.671 2.529.86 3.824l-.254-1.893c.519 3.927.178 7.98-.345 11.889l.249-1.851a69 69 0 0 1-4.012 15.421q-.276.71-.563 1.415c-.162.402-.559 1.066.236-.551-.14.285-.253.586-.382.876a79 79 0 0 1-2.882 5.837 82 82 0 0 1-3.252 5.444c-1.182 1.817-2.679 3.499-3.78 5.353.918-1.547.159-.208-.185.222q-.484.606-.978 1.203a92 92 0 0 1-6.842 7.398c-1.532 1.478-3.074 2.941-4.684 4.335a95 95 0 0 1-2.365 1.981c-.399.323-.803.639-1.204.959-.619.494.931-.705.296-.228l-.77.582c-3.869 2.89-7.949 5.499-12.165 7.852a122 122 0 0 1-6.485 3.363 128 128 0 0 1-4.688 2.143l-.79.339c.672-.289.331-.139-.142.056-4.47 1.848-9.028 3.488-13.677 4.827-5.288 1.523-10.649 2.789-16.049 3.848a229 229 0 0 1-8.13 1.44 250 250 0 0 1-6.007.883c.192-.026.878-.114-.052.005l-1.29.165c-2.396.303-4.757 1.914-4.635 4.635.102 2.284 2.054 4.919 4.635 4.635Zm51.544 42.891 18.419-.315c6.06-.104 12.116-.458 18.17-.73 12.111-.544 24.241-.933 36.34-1.7l10.205-.647c3.502-.222 6.97-.671 10.454-1.091 2.149-.259 4.262-1.725 4.154-4.154-.101-2.265-1.825-4.135-4.154-4.154-12.217-.098-24.403.772-36.589 1.596l-18.17 1.229c-6.057.41-12.132.677-18.17 1.253l-20.659 1.971c-1.812.173-3.371 1.426-3.371 3.371 0 1.803 1.543 3.402 3.371 3.371m115.889-115.39.852-.504.365-.216c.63-.373 1.016-.7 1.693-1.242.237-.189.466-.388.698-.583l.375-.315a5.7 5.7 0 0 0 1.298-1.573l.641-1.518.227-1.69-.227-1.69a4.8 4.8 0 0 0-1.138-2.162 3.2 3.2 0 0 0-1.14-1.14 3.2 3.2 0 0 0-1.402-.817 3.17 3.17 0 0 0-1.604-.434 4.8 4.8 0 0 0-2.535.114c-.765.12-1.616.667-2.337 1.061-.269.147-.541.289-.806.443-.49.285-1.108.854-1.632 1.264l-.359.281-.774.605a4.8 4.8 0 0 0-1.332 2.073 4.86 4.86 0 0 0-.555 2.482l.23 1.712a4.85 4.85 0 0 0 1.153 2.19q.429.726 1.155 1.155a4.85 4.85 0 0 0 2.19 1.153l1.712.23a6.4 6.4 0 0 0 3.251-.879ZM300.271 604.563c13.394-8.843 27.008-17.425 40.032-26.807 1.212-.873 1.799-2.41.993-3.789-.719-1.229-2.543-1.833-3.789-.993-13.348 8.999-26.149 18.832-39.12 28.366-1.894 1.392-.157 4.57 1.884 3.223m5.938 29.883 20.369-14.139c6.856-4.759 13.798-9.417 20.538-14.34 1.89-1.381 3.826-2.717 5.672-4.158 1.891-1.476 3.683-3.096 5.515-4.645 1.736-1.468-.505-4.279-2.407-3.12-2.246 1.368-4.578 2.653-6.723 4.174-2.159 1.532-4.321 3.06-6.472 4.604-4.309 3.094-8.51 6.349-12.757 9.527l-25.498 19.081c-1.76 1.317-.111 4.315 1.762 3.015Zm30.168 23.067 12.74-6.934c2.076-1.13 4.251-2.17 6.226-3.469 2.057-1.353 4.084-2.753 6.125-4.129 2.288-1.542.327-4.721-2.127-3.638-2.262.998-4.537 1.972-6.787 2.996-2.153.98-4.192 2.264-6.256 3.418l-12.655 7.078c-3.047 1.704-.33 6.346 2.734 4.678m54.117-34.439c2.711 0 2.716-4.214 0-4.214s-2.716 4.214 0 4.214m-10.793-46.528c1.919 0 3.552-1.632 3.552-3.552s-1.625-3.552-3.552-3.552-3.552 1.632-3.552 3.552 1.625 3.552 3.552 3.552m-83.953 86.29h1.199q.721.027 1.345-.301a2.6 2.6 0 0 0 1.124-.722q.51-.474.722-1.124.328-.624.301-1.345l-.125-.928a3.5 3.5 0 0 0-.898-1.541l-.707-.546a3.5 3.5 0 0 0-1.762-.477h-1.199a2.6 2.6 0 0 0-1.345.301 2.6 2.6 0 0 0-1.124.722q-.51.474-.722 1.124a2.6 2.6 0 0 0-.301 1.345l.125.928q.249.887.898 1.541l.707.546a3.5 3.5 0 0 0 1.762.477m87.55 6.96c2.33 0 4.562-2.049 4.454-4.454s-1.957-4.454-4.454-4.454c-2.33 0-4.562 2.049-4.454 4.454s1.957 4.454 4.454 4.454M61.51 532.668c-9.09-24.577-17.986-49.334-23.699-74.953a255 255 0 0 1-3.654-20.297c-.017-.121-.17-1.28-.047-.339q-.136-1.037-.262-2.075a223 223 0 0 1-.528-4.755 215 215 0 0 1-.709-8.931 201 201 0 0 1-.259-17.968q.139-4.495.493-8.978a175 175 0 0 1 .777-7.661c.023-.183.197-1.583.066-.556-.126.993.011-.075.033-.233l.182-1.261a165 165 0 0 1 1.118-6.591 154 154 0 0 1 1.921-8.693 150 150 0 0 1 5.332-16.966q.398-1.04.812-2.073c.155-.387.964-2.364.539-1.324-.43 1.052-.016.046.067-.14.173-.386.34-.775.513-1.161q.455-1.014.926-2.02a123 123 0 0 1 4.138-8.059c2.531-4.506 5.391-8.807 8.498-12.934.996-1.323-1.095 1.374-.061.086.404-.504.806-1.009 1.215-1.508a113 113 0 0 1 8.021-8.797 111 111 0 0 1 8.474-7.546c.288-.231.58-.456.867-.688.804-.649-.91.695-.837.644.597-.426 1.175-.881 1.763-1.318 4.118-3.057 8.422-5.847 12.942-8.274 2.249-1.207 4.548-2.304 6.877-3.348 1.525-.684-2.199.895-.056.023a91 91 0 0 1 5.357-1.989c4.829-1.622 9.777-2.785 14.809-3.562 1.72-.265-2.337.282-.17.029a81 81 0 0 1 5.74-.465 66 66 0 0 1 6.998.064q1.757.11 3.506.309l.75.09c1.236.142-2.364-.346-1.136-.15.581.093 1.163.178 1.743.278 2.325.402 4.63.919 6.905 1.547s4.516 1.387 6.735 2.208q.83.307 1.653.63c.313.124.624.254.937.377.925.364-1.273-.591-1.215-.514.232.301 1.29.571 1.615.72q.916.422 1.821.869a71 71 0 0 1 6.134 3.42 67 67 0 0 1 4.119 2.79q.3.22.597.442c1.302.961-1.525-1.218-.613-.475 3.595 2.928 6.62 6.159 9.684 9.615.682.769-.898-1.136-.772-1.004.209.219.402.535.576.774q.426.584.836 1.178a51 51 0 0 1 3.438 5.764q.379.747.735 1.506c.207.44 1.076 2.434.399.828-.671-1.592.078.23.234.647q.253.677.486 1.361a46 46 0 0 1 1.699 6.575c.064.355.375 2.489.137.708s.055.685.09 1.125c.11 1.38.152 2.764.115 4.148a35 35 0 0 1-.092 1.777c-.031.393-.08.785-.112 1.178-.098 1.211.355-1.85.077-.668-.316 1.341-.549 2.671-.981 3.986-.106.323-.797 2.13-.268.829.511-1.256.002-.062-.153.247q-.26.519-.55 1.023c-.235.409-1.019 1.24-1.095 1.716.003-.022 1.111-1.301.516-.666-.236.252-.452.525-.69.777-.42.443-.868.847-1.322 1.255-1.044.939 1.511-1.019-.111.022-.517.332-1.054.611-1.589.911-.252.141-1.108.461.094-.003 1.278-.493.154-.073-.17.04q-.857.3-1.74.506c-.249.058-.509.09-.755.154-1.026.268 1.831-.103.775-.109-.588-.003-1.186.033-1.776.038-1.502.012 1.899.441.03.018-.567-.128-1.123-.416-1.686-.523.052.01 1.571.821.884.331-.276-.197-.612-.338-.901-.521-.273-.173-1.275-.86-.215-.109.984.696.244.193.057-.01-.412-.448-.842-.895-1.264-1.334-.612-.637.553.639.529.687.014-.027-.626-.941-.59-.883a21 21 0 0 1-1.045-1.875c-.12-.243-.224-.495-.348-.736-.419-.811.357.757.324.786.077-.067-.578-1.564-.66-1.809a50 50 0 0 1-1.133-3.967 125 125 0 0 1-1.724-8.343 140 140 0 0 1-.635-3.975c-.044-.302-.065-.621-.131-.92.435 1.963.123.939.062.428-.098-.82-.198-1.64-.286-2.461a143 143 0 0 1-.665-8.644 146 146 0 0 1 .222-17.333c.208-2.88.7-5.752.877-8.629-.001.017-.247 1.713-.094.732.063-.408.118-.818.179-1.226q.138-.92.288-1.837.374-2.294.821-4.574a148 148 0 0 1 4.323-16.791 146 146 0 0 1 3.696-10.187l.352-.86c.323-.791.63-.52-.138.321.347-.38.532-1.228.743-1.703q.503-1.133 1.024-2.255a140 140 0 0 1 8.255-15.241 139 139 0 0 1 6.768-9.86c.171-.228.346-.453.515-.681.683-.919-.997 1.266-.287.367.412-.521.821-1.045 1.237-1.563a145 145 0 0 1 10.852-12.059 147 147 0 0 1 11.905-10.606c.519-.414 1.057-.809 1.567-1.234.002-.002-1.344 1.02-.589.46.229-.17.454-.345.681-.516q1.708-1.284 3.452-2.519c2.172-1.538 4.396-2.991 6.63-4.436 4.467-2.891 9.04-5.594 13.779-8.016a144 144 0 0 1 7.183-3.427c.601-.267 1.201-.58 1.823-.794-1.265.436-.603.252.199-.075q1.98-.809 3.985-1.559c2.83-1.059 5.538-2.36 8.283-3.616.123-.056.988-.404.194-.097-.862.334.284-.086.492-.159q.942-.333 1.888-.653c1.25-.422 2.517-.923 3.799-1.222 3.284-.766 5.54-4.704 4.499-7.923-1.11-3.429-4.405-5.32-7.923-4.499 1.729-.403-1.321.215-1.977.33s-1.314.233-1.97.357c-.746.141-1.502.269-2.242.442-.154.036-1.065.308-.187.078q1.029-.111-.567.088-.755.09-1.505.215c-2.756.431-5.399.962-8.042 1.861-5.776 1.964-11.443 4.294-16.961 6.893-10.692 5.036-20.449 11.455-29.61 18.904-18.267 14.855-33.136 34.212-42.473 55.842-10.095 23.389-14.783 49.058-12.676 74.514.548 6.616 1.481 13.229 2.85 19.726 1.29 6.119 3.055 12.317 6.932 17.336 4.361 5.645 11.117 9.179 18.37 8.741 6.792-.41 13.715-3.385 18.164-8.657 8.847-10.484 9.78-25.143 6.301-37.983-2.826-10.431-8.924-19.921-16.683-27.38-15.797-15.187-38.408-23.37-60.275-21.564-23.659 1.955-45.7 12.649-62.831 28.948-17.571 16.719-29.656 38.85-35.344 62.357-6.159 25.455-5.771 52.007-1.36 77.701 4.66 27.143 13.662 53.321 23.683 78.894 2.474 6.314 5.013 12.602 7.566 18.884.979 2.408 3.206 4.11 5.924 3.363 2.346-.645 4.27-3.472 3.363-5.924Z"/></svg>