<?xml version="1.0" encoding="UTF-8"?><svg xmlns="http://www.w3.org/2000/svg" data-name="ARTWORK" viewBox="0 0 1000 1000"><g fill="#edc851"><path d="M429.004 269.593c-111.445 4.449-222.063 28.884-325.013 71.793-20.878 8.702-42.548 19.073-54.966 37.978-8.162 12.426-11.476 27.349-14.07 41.989-10.832 61.132-11.758 123.683-7.835 185.643 2.823 44.577 8.292 89.619 24.95 131.063s45.671 79.364 85.788 99.005c28.759 14.081 61.333 18.067 93.292 20.063 85.24 5.322 171.267-2.141 254.317-22.064 17.082-4.098 34.317-8.837 49.248-18.09 26.505-16.424 43.019-45.657 50.653-75.889s7.403-61.818 7.125-92.998l-1.181-132.769c-.561-63.038-1.244-126.973-18.481-187.611-4.413-15.523-10.218-31.278-21.547-42.771-16.24-16.474-40.802-21.28-63.884-22.804-45.032-2.974-90.098 3.418-134.775 9.793-51.474 7.345-103.855 14.956-150.819 37.271"/><path d="M429.004 264.297c-37.862-.004-75.476 2.941-112.953 8.273-37.256 5.3-74.378 12.992-110.596 23.244-35.941 10.174-71.321 22.443-105.781 36.865-15.551 6.509-30.729 13.624-43.793 24.466-13.94 11.569-22.448 27.375-26.962 44.747-4.887 18.807-7.242 38.511-9.406 57.786s-3.471 38.778-4.056 58.232c-1.166 38.817.201 77.856 3.904 116.512 3.562 37.188 9.925 74.594 24.394 109.238 12.378 29.637 30.217 57.441 54.595 78.653 12.398 10.788 26.188 19.882 41.303 26.38 17.014 7.314 34.853 11.829 53.156 14.484 38.189 5.539 77.335 6.26 115.857 5.197 39.367-1.087 78.646-4.913 117.514-11.242a858 858 0 0 0 57.47-11.381c17.844-4.172 35.875-8.826 52.029-17.749 29.29-16.179 48.166-46.186 57.541-77.602 11.115-37.25 9.55-76.93 9.208-115.354l-1.07-120.296c-.342-38.361-.73-76.814-4.904-114.989-2.142-19.592-5.161-39.118-9.676-58.311-4.08-17.343-8.796-35.56-18.362-50.799-9.501-15.135-23.632-25.307-40.33-31.246-16.131-5.738-33.678-7.215-50.672-7.834-40.375-1.471-80.585 4.018-120.458 9.692-36.49 5.192-73.204 10.183-108.752 20.202-17.636 4.971-34.785 11.431-51.35 19.259-4.652 2.199-6.216 9.237-3.519 13.421 3.085 4.785 8.445 5.871 13.421 3.519a246 246 0 0 1 5.912-2.691 130 130 0 0 1 4.608-1.96 296 296 0 0 1 13.099-4.984c8.472-3.001 17.076-5.642 25.744-8.017 17.433-4.775 35.169-8.365 52.98-11.403 17.675-3.015 35.435-5.502 53.187-8.018 18.929-2.683 37.361-5.198 57.008-6.979 19.119-1.732 38.338-2.63 57.534-1.963 4.454.155 8.906.384 13.349.73q2.794.216 5.58.506a174 174 0 0 1 4.66.546q-1.679-.225.121.03c7.693 1.238 15.294 2.825 22.639 5.481.865.313 1.72.652 2.58.978 2.797 1.063-1.722-.867.973.416 1.648.784 3.295 1.555 4.9 2.427a67 67 0 0 1 4.681 2.789c.761.497 1.5 1.023 2.249 1.538 2.414 1.662-1.406-1.231.861.636 2.946 2.426 5.54 5.101 8.057 7.961 2.053 2.335-.965-1.473.838 1.056.569.798 1.138 1.593 1.681 2.408a76 76 0 0 1 3.538 5.885 90 90 0 0 1 2.647 5.293c.415.899.824 1.803 1.206 2.716-.752-1.801.465 1.229.485 1.279 1.561 4.021 2.915 8.119 4.157 12.249 2.658 8.839 4.902 17.809 6.861 26.827 1.996 9.19 3.668 18.449 5.069 27.747 1.236 8.199 2.197 16.206 3.093 25.364 1.841 18.815 2.815 37.704 3.375 56.597 1.137 38.325 1.052 76.698 1.393 115.036l.517 58.087c.171 19.184.573 38.4-.429 57.569-.958 18.322-2.958 34.699-8.449 52.586a157 157 0 0 1-4.298 12.193c-.07.175-1.252 2.991-.405 1.019a143 143 0 0 1-2.684 5.884c-3.334 6.892-7.23 13.521-11.733 19.716q-.804 1.109-1.637 2.197c1.286-1.671-.577.693-.693.835a110 110 0 0 1-3.556 4.144 102 102 0 0 1-8.394 8.294 87 87 0 0 1-4.196 3.48c1.67-1.292-.735.515-.885.623a94 94 0 0 1-2.243 1.569c-3.622 2.453-7.423 4.635-11.342 6.575-1.88.931-3.786 1.823-5.72 2.635 1.607-.674-1.586.618-1.502.585q-1.226.479-2.459.935c-4.124 1.527-8.314 2.871-12.537 4.097-8.722 2.532-17.579 4.604-26.432 6.619-37.171 8.457-73.39 14.2-110.752 17.58a862 862 0 0 1-113.631 2.761c-9.301-.389-18.6-.908-27.88-1.64a450 450 0 0 1-12.812-1.184c-5.083-.547-7.984-.916-12.254-1.572-8.785-1.349-17.517-3.099-26.091-5.447a182 182 0 0 1-11.162-3.438c-4.443-1.529-8.057-2.944-11.462-4.49a145 145 0 0 1-20.473-11.387 151 151 0 0 1-6.694-4.73c-.127-.095-2.5-1.935-.893-.671a166 166 0 0 1-9.044-7.651c-5.638-5.132-10.923-10.649-15.849-16.467a187 187 0 0 1-3.498-4.257c-.088-.111-1.955-2.498-.721-.897a202 202 0 0 1-8.023-11.249 216 216 0 0 1-11.687-19.894 228 228 0 0 1-7.093-14.997c-1.206-2.781.7 1.783-.427-1.027-.5-1.248-1.011-2.491-1.501-3.742-6.666-17.009-11.501-34.692-15.048-52.601-3.569-18.025-5.481-33.549-7.087-51.849-1.653-18.834-2.7-37.732-3.288-56.627-1.187-38.15-.193-76.419 4.179-114.355 1.935-16.787 4.213-35.058 8.915-52.294 2.38-8.724 4.538-14.568 9.613-22.078a72 72 0 0 1 1.603-2.262c-1.19 1.619.631-.771.729-.889q1.761-2.11 3.685-4.074c1.924-1.964 2.611-2.568 3.982-3.781a83 83 0 0 1 3.521-2.944q-1.175.896.199-.142c6.059-4.4 12.472-8.195 19.164-11.551a236 236 0 0 1 10.226-4.798c1.713-.759 3.433-1.5 5.157-2.234-1.936.825 1.299-.543 1.263-.529a938 938 0 0 1 55.918-21.274c68.933-23.742 140.164-39.455 212.426-48.721 17.631-2.261 35.334-4.058 53.049-5.495 6.699-.544 6.914-10.591 0-10.592Z"/></g><g fill="#55bfbf"><path d="M194.731 457.572c-22.114 75.53-7.585 159.747 33.59 226.817 4.299 7.003 8.901 13.872 14.523 19.866 4.527 4.826 9.709 9.063 15.468 12.322 1.634.925 3.58 2.267 3.282 4.121-.275 1.709-2.269 2.458-3.948 2.88l-51.075 12.855c-10.35 2.605-20.902 5.23-31.554 4.571-18.383-1.138-34.889-11.977-47.897-25.017-34.067-34.151-48.762-83.186-54.993-131.019-1.243-9.539-2.201-19.177-1.473-28.769 1.456-19.197 9.737-37.545 21.822-52.53 9.337-11.577 21.086-21.388 34.71-27.354 8.324-3.645 17.205-5.812 26.033-7.962l36.256-8.83"/><path d="M190.495 456.404c-2.832 8.689-5.717 17.433-7.734 26.351-2.114 9.348-3.662 18.808-4.801 28.322a263 263 0 0 0-.547 4.957c-.041.409.133 1.251.003.181q.179-1.29-.061.473a7.3 7.3 0 0 0-.146 1.236c-.174 2.281-.268 4.573-.363 6.858q-.284 6.863-.226 13.73c.077 9.175.72 18.303 1.824 27.411 2.293 18.925 6.196 37.595 11.951 55.776 5.724 18.081 13.095 35.711 21.984 52.465 9.487 17.883 20.323 36.101 37.377 47.716 1.835 1.25 3.862 2.242 5.635 3.573l-1.831-1.414c.4.33.752.67 1.079 1.073l-1.415-1.832a3.3 3.3 0 0 1 .362.611l-.913-2.163q.144.317.195.662l-.324-2.408q.05.359-.008.714l.324-2.408a2.3 2.3 0 0 1-.22.675l.914-2.165-.178.296 1.417-1.834a4.4 4.4 0 0 1-.75.743l1.835-1.418a8 8 0 0 1-.983.552l2.167-.915c-1.975.816-4.159 1.176-6.227 1.688l-6.872 1.701c-4.765 1.18-9.535 2.339-14.307 3.493-9.326 2.256-18.649 4.531-27.98 6.767-5.207 1.247-10.435 2.417-15.742 3.154l2.563-.344c-5.543.736-11.12.943-16.677.229l2.604.35c-5.444-.747-10.671-2.326-15.732-4.445l2.372 1.001c-6.527-2.785-12.572-6.528-18.186-10.854l2.007 1.55c-8.814-6.857-16.532-15.067-23.351-23.889l1.547 2.002c-9.419-12.26-16.964-25.831-22.979-40.055l.994 2.356c-7.865-18.711-13.123-38.428-16.699-58.381a393 393 0 0 1-2.626-16.824l.351 2.609c-1.545-11.56-2.7-23.245-1.176-34.872l-.35 2.603c1.079-7.882 3.251-15.552 6.318-22.888l-.986 2.336c3.49-8.231 8.06-15.947 13.497-23.04l-1.526 1.976c5.384-6.96 11.552-13.284 18.51-18.68l-1.973 1.524c5.751-4.413 11.979-8.137 18.652-10.979l-2.329.983c9.549-3.994 19.697-6.236 29.721-8.678l31.586-7.693c4.958-1.207 8.397-7.086 6.809-11.993-1.667-5.15-6.68-8.103-11.993-6.809l-28.016 6.823c-8.882 2.163-17.869 4.109-26.547 7.015-16.81 5.63-31.63 15.62-43.404 28.863-11.65 13.103-20.707 28.744-25.169 45.769-2.325 8.872-3.342 18.138-3.111 27.302.242 9.622 1.601 19.22 3.002 28.73 2.277 15.455 5.455 30.801 9.948 45.771 4.64 15.46 10.683 30.635 18.465 44.791 7.742 14.082 17.424 27.327 28.882 38.618 11.913 11.739 26.703 22.084 43.327 25.55 9.969 2.079 19.773 1.617 29.738-.233 9.246-1.716 18.325-4.4 27.416-6.778 9.313-2.436 18.622-4.888 27.947-7.274 4.839-1.238 9.946-2.126 14.511-4.19 3.568-1.613 6.103-5.144 6.618-8.978a11.82 11.82 0 0 0-3.836-10.406c-1.884-1.68-4.014-2.793-6.13-4.113a65 65 0 0 1-5.087-3.538l1.822 1.408c-5.188-4.032-9.71-8.782-13.74-13.961l1.393 1.803c-5.075-6.589-9.46-13.708-13.629-20.895a298 298 0 0 1-11.196-21.238 306 306 0 0 1-5.556-12.366l.862 2.043a298 298 0 0 1-17.84-58.386 296 296 0 0 1-2.826-17.095l.293 2.18c-1.906-14.234-2.938-28.664-2.878-43.027.029-7.08.111-14.171.509-21.243a262 262 0 0 1 1.389-15.94q.138-1.166.288-2.333c.032-.254.235-1.838.036-.307.081-.629.173-1.257.263-1.885.184-1.285.371-2.566.518-3.856.023-.199.237-1.757.05-.396q.097-.709.197-1.417.436-3.066.946-6.122c.68-4.075 1.594-8.072 2.626-12.072.574-2.222-.73-4.871-3.068-5.404-2.412-.549-4.641.728-5.404 3.068Z"/></g><path d="M158.775 478.47c42.101-13.832 77.209-42.696 106.799-74.901 31.305-34.072 57.032-72.841 88.991-106.342 8.047-8.435 16.486-16.487 25.36-24.049 8.334-7.102 16.265-13.181 26.896-18.888 2.308-1.239 4.679-2.307 7.033-3.448 1.576-.764-2.138.811.568-.243.567-.221 1.13-.448 1.699-.663a82 82 0 0 1 4.293-1.491 74 74 0 0 1 7.883-2.03 67 67 0 0 1 1.778-.327c-.031.005 2.89-.382 1.328-.212s1.381-.115 1.341-.112a59.8 59.8 0 0 1 12.451.229c-.377-.045-2.16-.359-.207 0 1.402.257 2.8.517 4.188.846a67 67 0 0 1 7.36 2.209c.536.194 1.066.411 1.603.603 2.601.93-1.299-.626.254.085 1.303.597 2.606 1.184 3.887 1.831 4.804 2.424 9.312 5.338 13.642 8.523 1.618 1.19.214.159-.09-.082q.862.681 1.715 1.377a117 117 0 0 1 3.026 2.563c2.105 1.844 4.119 3.778 6.118 5.735 3.898 3.817 7.55 7.874 11.021 12.082a200 200 0 0 1 2.562 3.173c.354.448 1.607 2.087.228.278q.548.718 1.092 1.44a206 206 0 0 1 5.001 6.958c6.299 9.153 11.867 18.796 16.809 28.743 2.482 4.997 4.789 10.074 6.992 15.199-.924-2.151.323.789.633 1.547a348 348 0 0 1 4.595 11.872c7.774 21.221 13.592 43.104 18.695 65.103a1599 1599 0 0 1 15.415 74.604c2.36 12.948 4.526 25.931 6.444 38.952a1010 1010 0 0 1 1.642 11.615c-.285-2.11.026.209.094.731q.347 2.643.68 5.286a887 887 0 0 1 2.243 19.584c2.693 26.118 4.168 52.375 3.985 78.637-.087 12.556-.468 25.134-1.75 37.631q-.204 1.995-.442 3.987c.008-.068-.397 3.191-.18 1.506s-.226 1.565-.216 1.499a193 193 0 0 1-1.512 8.866c-1.21 6.192-2.747 12.323-4.7 18.323-.927 2.848-1.985 5.639-3.06 8.433-.171.443-.894 2.072.035-.046-.22.501-.436 1.003-.66 1.503a111 111 0 0 1-1.752 3.721 107 107 0 0 1-7.946 13.511c-.627.905-1.287 1.786-1.924 2.684-1.565 2.204 1.052-1.277-.022.051-.345.427-.683.86-1.03 1.286-1.644 2.017-3.378 3.962-5.143 5.874a89 89 0 0 1-5.207 5.195 82 82 0 0 1-2.751 2.414c-.518.435-1.046.857-1.568 1.286-1.718 1.412 1.587-1.088-.408.299-4.01 2.788-8.077 5.376-12.489 7.495-.608.292-1.23.555-1.837.848-1.343.649 1.6-.603.194-.078-1.152.43-2.289.888-3.453 1.285a73 73 0 0 1-8.825 2.406 86 86 0 0 1-3.527.638c-1.901.312-.501.069-.102.023q-1.11.13-2.221.232a82 82 0 0 1-8.433.321 71 71 0 0 1-7.977-.562c1.526.194.01-.004-.253-.048-.739-.124-1.479-.236-2.217-.364a115 115 0 0 1-4.431-.866c-23.048-4.969-42.074-15.635-63.433-25.916-22.006-10.593-44.56-19.109-68.598-23.749-24.531-4.736-49.599-5.878-74.529-4.912-25.203.976-50.297 4.316-75.151 8.501-4.931.83-9.882 1.579-14.805 2.447-2.248.396-4.503.738-6.76 1.079-1.678.254 2.906-.345.312-.043q-.767.09-1.532.185l-2.946.396 1.413-.216c-.444-.151-1.826.159-2.298.197-4.645.375-9.315.52-13.971.286q-1.65-.082-3.297-.232c-.482-.044-.964-.104-1.446-.147-2.411-.215 1.774.369.245.041-2.192-.47-4.43-.831-6.634-1.241a47 47 0 0 1-5.995-1.511 55 55 0 0 1-2.52-.914c2.482.947-.676-.303-.776-.345-3.171-1.338 1.094.882-.766-.466-.72-.522-1.554-.912-2.297-1.407a37 37 0 0 1-1.377-.968c-1.054-.773 1.367 1.278-.232-.216-.678-.633-1.386-1.227-2.044-1.884a34 34 0 0 1-.973-1.011c-.057-.062-1.475-1.838-.688-.667-2.227-3.314-6.523-4.764-10.127-2.656-3.289 1.924-4.895 6.794-2.656 10.127 2.718 4.045 5.256 8.033 8.978 11.288a40 40 0 0 0 1.892 1.533c.061.047 2.572 2.134.689.575a48 48 0 0 0 3.433 2.571 43.6 43.6 0 0 0 5.89 3.378c9.54 4.549 20.375 5.71 30.853 5.798 10.284.086 20.5-.949 30.632-2.662 6.057-1.024 12.114-2.038 18.187-2.957a754 754 0 0 1 8.851-1.286q1.231-.173 2.464-.338c-.433.057-2.372.31-.121.02a822 822 0 0 1 4.937-.626c24.923-3.063 50.127-4.832 75.241-3.837 6.216.246 12.425.663 18.616 1.273 2.919.288 5.84.57 8.754.902 1.454.165 2.906.352 4.359.531 1.91.234-2.637-.397.484.07.969.145 1.939.281 2.908.43 12.092 1.855 24.062 4.542 35.744 8.182a223 223 0 0 1 14.234 4.967c.284.11 2.692 1.022 1.167.421 1.944.766 3.879 1.588 5.806 2.399-1.36-.573.121.054.333.145l2.192.944a704 704 0 0 1 8.34 3.688c11.539 5.178 23.012 10.515 34.762 15.206 10.925 4.362 21.854 8.57 33.449 10.812 3.138.607 6.308 1.064 9.481 1.443.562.067 3.664.311 1.997.161 2.303.208 4.558.542 6.87.649 6.097.282 12.139-.225 18.16-1.181 22.935-3.64 42.167-18.059 55.62-36.475 14.803-20.264 21.322-44.962 24.384-69.522 3.201-25.671 2.838-51.935 1.671-77.732-1.249-27.606-4.17-55.097-8.06-82.449-3.757-26.417-8.545-52.68-13.982-78.8-4.95-23.778-10.138-47.557-16.742-70.939-12.559-44.465-31.187-89.917-64.483-123.055-16.648-16.57-38.664-29.598-62.669-30.122-25.284-.551-47.959 13.073-66.821 28.621-37.03 30.522-63.88 71.074-92.5 108.999-27.057 35.853-55.498 71.947-94.86 95.026-9.34 5.476-19.331 9.789-29.61 13.166-4.835 1.588-2.765 9.262 2.112 7.66Zm-23.003-.599q-1.287.479-2.556 1.004-1.039.431-2.072.876l-.67.293c-.889.384.674-.187.056-.064-1.691.334-3.428 1.141-5.024 1.777-1.221.486-2.432.999-3.637 1.525-.253.11-1.663.717-.531.253 1.56-.639-1.588.726-2.088.989a75 75 0 0 0-4.676 2.682c-6.726 4.185-12.833 9.415-18.156 15.277-11.044 12.164-18.246 27.978-21.978 43.872-4.53 19.29-4.637 39.288-2.049 58.848s6.924 38.846 12.522 57.774c2.629 8.889 5.981 17.488 10.133 25.784 3.995 7.983 8.856 15.636 15.425 21.756.97.904 2.033 1.825 3.127 2.567 1.067.724 2.456 1.13 3.678 1.575 1.558.568 3.501-.098 4.626-1.223 1.269-1.269 1.554-2.923 1.223-4.626-.197-1.013-.31-2.021-.712-2.974a57 57 0 0 0-1.373-2.961c-.764-1.553-1.554-3.089-2.267-4.668-1.459-3.23-3.056-6.395-4.442-9.66l.855 2.026c-.608-1.448-1.175-2.915-1.825-4.345l.874 2.07c-1.8-4.817-3.616-9.577-5.052-14.523-1.448-4.986-2.795-10.02-4.09-15.048-2.755-10.696-5.031-21.535-7.187-32.365-1.321-6.638-2.476-13.309-3.387-20.017l.392 2.917c-2.199-16.411-2.991-33.205-.831-49.663l-.392 2.919c1.507-11.174 4.61-21.988 8.983-32.375l-1.068 2.531c2.007-4.72 4.329-9.303 7.009-13.678 2.637-4.307 5.079-8.626 8.162-12.65l-1.358 1.757c1.759-2.275 3.733-4.38 5.451-6.681l-1.26 1.631c2.923-3.351 6.134-6.348 9.485-9.259.8-.695 1.622-1.362 2.446-2.029.606-.49-.156.127-.355.269.247-.177.485-.369.728-.551q.657-.491 1.326-.967c.955-.68 1.885-1.292 2.951-1.785.497-.23.998-.45 1.499-.673.607-.269.089.027-.215.088.317-.063.721-.295 1.022-.415 2.476-.99 4.489-3.46 3.573-6.292-.792-2.447-3.608-4.573-6.292-3.573Z"/><path d="M453.613 301.626c-7.568 12.867-14.642 26.286-19.698 40.361-5.004 13.933-8.783 28.281-11.861 42.753-3.135 14.736-5.424 29.631-7.457 44.555-2.284 16.762-3.813 33.493-3.202 50.428 1.148 31.821 7.007 63.552 16.306 93.974 9.012 29.484 20.601 58.741 36.033 85.49 7.42 12.86 15.495 25.334 23.976 37.517 8.748 12.566 17.897 24.971 27.979 36.501 2.419 2.766 4.839 5.343 7.579 7.794 4.777 4.274 11.441-1.034 8.696-6.709-3.142-6.494-7.174-12.627-11.254-18.577-4.143-6.042-8.159-12.166-12.247-18.245-8.138-12.102-15.932-24.441-23.148-37.116-7.301-12.827-14.205-25.927-20.27-39.386a373 373 0 0 1-2.045-4.624q-.542-1.253-1.076-2.508c-.42-.981.132.308.177.418-.248-.602-.501-1.203-.749-1.805a481 481 0 0 1-4.289-10.813 486 486 0 0 1-7.751-21.711c-4.828-14.624-8.972-29.499-12.228-44.552a364 364 0 0 1-4.586-25.501c-.07-.488-.49-3.196-.163-1.141-.296-1.862-.478-3.75-.692-5.623a324 324 0 0 1-1.125-11.676c-1.241-15.909-.84-31.634.411-47.526.621-7.892 1.461-15.765 2.357-23.63a867 867 0 0 1 1.666-13.685c.071-.54.305-2.284.104-.806q.233-1.7.464-3.403a868 868 0 0 0 .404-3.052c-.138 1.027.079-.577.111-.807l.159-1.147q.188-1.338.381-2.674.415-2.862.864-5.72a425 425 0 0 1 1.807-10.631c1.338-7.291 2.884-14.546 4.707-21.731 3.484-13.73 7.605-27.494 13.4-40.441 1.453-3.247 3.227-6.363 4.989-9.45 3.231-5.66-5.428-10.716-8.73-5.103Z"/><path d="M429.602 418.126c23.829 11.525 41.592 33.41 52.044 57.729s14.166 51.026 15.281 77.473c1.286 30.51-2.463 64.792-25.767 84.527-7.97-14.777-16.011-29.728-20.299-45.96-4.28-16.202-13.898-39.028-16.732-55.545-2.724-15.874 1.529-25.42-1.291-41.277-4.271-24.011-6.876-42.344-1.198-66.061"/><path d="M427.142 422.335a92 92 0 0 1 4.459 2.7c.702.454 1.383.947 2.09 1.392q.728.516-.171-.169l1.108.856.369.321c2.483 2.173 4.756 4.558 7.23 6.731 5.132 4.508 9.777 9.542 13.966 14.934l-1.236-1.599c7.348 9.522 13.532 19.997 18.231 31.068l-.897-2.125c6.556 15.568 10.595 31.981 12.847 48.697l-.336-2.504c1.231 9.265 1.972 18.604 2.431 27.938.379 7.707.492 15.427.094 23.136a160 160 0 0 1-1.182 12.941l.342-2.544c-1.244 9.118-3.373 18.135-6.946 26.635l.965-2.286c-2.336 5.488-5.267 10.696-8.899 15.434l1.496-1.937c-2.587 3.335-5.51 6.375-8.668 9.173l14.94 1.925c-5.752-10.187-11.499-20.408-16.066-31.196l.89 2.11c-2.126-5.066-3.884-10.224-5.437-15.49-1.293-4.382-2.812-8.691-4.265-13.02-3.171-9.449-6.584-18.825-9.359-28.402-1.45-5.005-2.74-10.077-3.466-15.243l.293 2.179c-.96-7.202-.454-14.346-.116-21.567.168-3.583.212-7.172-.059-10.751-.357-4.708-1.252-9.339-2.06-13.983-.782-4.496-1.514-9.001-2.123-13.524l.288 2.144c-1.557-11.737-2.033-23.551-.486-35.317l-.286 2.132a125 125 0 0 1 2.236-11.987c.96-4.067-1.269-8.861-5.59-9.846-4.109-.936-8.806 1.234-9.846 5.59-2.254 9.44-3.533 19.172-3.583 28.883-.048 9.388 1.068 18.727 2.453 27.998.813 5.437 1.925 10.836 2.658 16.282l-.29-2.157c1.185 9.315-.255 18.527-.16 27.851.1 9.817 2.351 19.394 5.158 28.749 2.693 8.975 5.851 17.8 8.77 26.702 2.96 9.028 4.813 18.346 8.157 27.257 4.424 11.789 10.109 23.027 15.863 34.207 1.347 2.618 4.147 4.165 6.949 4.541 3.181.427 5.565-.628 7.99-2.616 6.232-5.107 11.397-11.759 15.356-18.75 4.017-7.093 6.991-14.875 9.024-22.762 4.039-15.671 4.877-32.153 4.288-48.268-.712-19.493-2.997-39.139-8.087-58.003-4.674-17.326-11.96-34.067-22.569-48.604-5.006-6.861-10.866-13.171-17.308-18.705-1.878-1.613-3.822-3.141-5.785-4.648-1.564-1.2-3.132-2.444-4.868-3.376-3.508-1.882-7.144-3.534-10.727-5.261-2.071-.998-4.184-1.907-6.312-2.778-2.24-.917-4.905.818-5.751 2.822-.924 2.191-.129 4.879 1.994 6.087ZM168.891 464.7c-1.166 4.488-2.378 8.963-3.528 13.455s-1.941 9.056-2.709 13.621c-1.587 9.429-2.625 18.883-3.189 28.427-1.091 18.447-.841 37.1 1.225 55.473 2.114 18.797 5.625 37.423 10.728 55.641 5.115 18.262 11.832 36.038 19.607 53.327A433 433 0 0 0 203.3 709.78c4.283 8.086 8.953 16.365 15.096 23.207.733.817 1.458 1.717 2.279 2.449 1.011.902 2.216 1.58 3.373 2.273 1.519.91 3.507.717 4.879-.343 1.266-.978 2.218-3.007 1.574-4.618-.465-1.162-.848-2.393-1.413-3.509-.532-1.051-1.283-2.025-1.912-3.026-1.149-1.829-2.358-3.615-3.525-5.433-2.387-3.717-4.571-7.563-6.728-11.417-4.426-7.906-8.451-16.051-12.287-24.257a424 424 0 0 1-5.661-12.641c-.231-.54-.464-1.08-.69-1.622a377 377 0 0 1-1.599-3.884 386 386 0 0 1-2.502-6.319 357 357 0 0 1-8.967-26.15 338 338 0 0 1-6.781-26.544 341 341 0 0 1-4.158-23.549c-.036-.256-.263-1.999-.16-1.145.099.821-.003-.02-.021-.158l-.129-.988c-2.34-18.129-3.502-36.404-3.131-54.684.37-18.267 2.173-36.52 4.191-54.666.206-1.855.599-4.073.945-6.103.333-1.952-.518-3.953-2.564-4.516-1.896-.521-4.015.638-4.516 2.564Z"/><path fill="#55bfbf" d="M228.644 492.61a547 547 0 0 0 38.609-21.907 549 549 0 0 0 36.492-24.811 567 567 0 0 0 35.226-28.293c11.113-9.688 21.697-19.931 31.87-30.6a546 546 0 0 0 14.987-16.371c5.088-5.79 10.123-11.627 14.3-18.121a85 85 0 0 0 2.818-4.655c2.324-4.174-3.05-8.217-6.522-5.032-5.402 4.956-10.185 10.445-14.931 16.017a547 547 0 0 1-14.595 16.449c-9.997 10.82-20.472 21.182-31.185 31.29a551 551 0 0 1-39.574 33.948l-1 .777-.221.171-.39.3a550 550 0 0 1-26.937 19.464 545 545 0 0 1-42.165 25.866c-1.507.833-1.999 2.903-1.144 4.364.909 1.554 2.827 1.936 4.364 1.144Zm47.972 30.094c26.369-16.26 52.087-33.743 76.646-52.635 3.077-2.367 6.153-4.778 8.764-7.669 1.409-1.56 2.816-3.253 3.862-5.084 1.259-2.203 1.836-4.358 1.515-6.868-.211-1.652-.846-2.996-2.479-3.685-1.433-.605-3.307-.354-4.405.834-.486.526-1.027.999-1.509 1.527-.728.797-1.201 1.778-1.75 2.698-.4.67-.787 1.346-1.221 1.996-.218.326-.45.64-.674.961-.601.861.573-.648-.177.226-2.098 2.443-4.384 4.65-6.838 6.735-5.661 4.811-11.508 9.42-17.345 14.015a895 895 0 0 1-36.242 27.043 940 940 0 0 1-21.246 14.606c-1.377.919-1.973 2.708-1.101 4.199.824 1.408 2.783 1.974 4.199 1.101Z"/><g fill="#d85bd2"><path d="M729.568 369.197c-22.439-10.676-45.717-21.494-70.554-22.263s-51.835 11.213-60.895 34.351c-9.45 24.137 2.995 51.252 18.44 72.07 35.941 48.445 46.357 76.956 38.699 137.015-3.051 23.929-2.512 50.7 13.329 68.893 19.76 22.696 54.594 22.856 84.409 18.78 19.458-2.66 40.464-7.305 52.888-22.515 19.616-24.013 8.838-62.742 27.273-87.679 22.972-31.076 71.074-23.689 99.456-49.89 37.966-35.05 65.541-118.171 14.477-154.209-20.007-14.12-48.588-7.33-66.959-24.905-16.086-15.389-13.584-41.312-20.736-62.394-8.646-25.487-33.869-44.438-60.755-45.648s-53.709 15.4-64.609 40.008c-8.122 18.336-8.19 40.434-20.791 56.035-15.434 19.108-43.284 21.206-67.84 21.768"/><path d="M731.877 365.248c-13.48-6.767-27.13-13.537-41.31-18.728-13.328-4.879-27.614-8.067-41.868-6.914-6.242.505-12.485 1.577-18.467 3.449-3.18.995-6.267 2.243-9.313 3.589-2.106.93 1.618-.64-.986.459a30 30 0 0 0-2.659 1.299 63 63 0 0 0-3.729 2.186c-11.017 6.99-19.496 16.839-24.173 29.048-10.589 27.643 3.918 57.506 19.918 79.735 7.307 10.152 14.352 20.534 20.452 31.463 2.598 4.656 5.018 9.414 7.177 14.289.27.609.526 1.225.797 1.833.451 1.012-.514-1.237-.473-1.119.091.265.217.523.322.783.522 1.3 1.04 2.602 1.529 3.915a128 128 0 0 1 2.408 7.08 124 124 0 0 1 4.158 18.377c.066.443.349 2.486.087.558-.266-1.953.063.583.126 1.137q.441 3.898.668 7.814c.698 11.977-.018 24.002-1.372 35.909q-.273 2.4-.581 4.795c-.048.375-.109.75-.146 1.126-.003.029.327-2.376.147-1.088a675 675 0 0 0-.545 4.003c-.159 1.186-.323 2.373-.466 3.561-.044.368-.24 1.613.03-.119.42-2.695-.293 2.222-.291 2.197-.183 1.622-.308 3.254-.429 4.882-.478 6.419-.596 12.876-.137 19.3.985 13.789 4.183 27.836 11.877 39.528 7.883 11.979 19.043 20.232 32.23 25.54 11.563 4.655 24.446 6.216 36.833 6.418 12.863.21 25.758-1.289 38.438-3.329 12.975-2.087 26.217-5.489 37.525-12.423 12.297-7.54 20.698-18.692 25.55-32.165 1.974-5.481 3.211-11.198 4.166-16.935.548-3.289.996-6.592 1.44-9.896q.364-2.709.717-5.419l.296-2.273.128-.974c.209-1.599-.098.743-.15 1.105.839-5.873 1.694-11.74 3.142-17.5.693-2.756 1.511-5.482 2.508-8.143.145-.386 1.162-2.881.351-.956s.264-.54.441-.913a51 51 0 0 1 2.044-3.873 47 47 0 0 1 2.219-3.446c.268-.379 1.609-2.161.385-.564-1.266 1.652.449-.51.784-.9a52.6 52.6 0 0 1 5.495-5.492c.5-.432 1.033-.831 1.527-1.268.911-.807-1.37 1.074-1.207.922.263-.245.621-.468.905-.676a61 61 0 0 1 3.261-2.225 72 72 0 0 1 6.658-3.743 88 88 0 0 1 3.356-1.581c.335-.15.704-.356 1.05-.461.211-.064-2.561 1.05-1.416.596.626-.248 1.245-.511 1.871-.758 2.53-.998 5.095-1.908 7.678-2.761 5.076-1.678 10.221-3.139 15.362-4.604 11.265-3.21 22.477-6.577 33.063-11.674 19.189-9.238 33.435-26.411 44.001-44.509 11.061-18.946 18.317-40.061 20.587-61.894 2.11-20.292-1.406-42.337-13.305-59.307-6.654-9.49-15.505-18.287-26.059-23.338-11.415-5.463-23.607-7.046-35.842-9.649-2.911-.619-5.809-1.318-8.656-2.192a66 66 0 0 1-3.889-1.323c-.831-.314-2.981-1.458.093.082-.657-.329-1.342-.606-2.002-.93a45 45 0 0 1-3.611-1.984 40 40 0 0 1-1.879-1.224c-.266-.183-.527-.373-.791-.559-1.613-1.13 1.544 1.304.497.384-1.076-.946-2.159-1.862-3.161-2.891a38 38 0 0 1-1.299-1.405c-.278-.317-.545-.643-.817-.964-.988-1.166.443.498.624.816-1.391-2.45-3.053-4.65-4.262-7.227-.132-.283-.259-.568-.39-.851-.773-1.67.372.861.412.988-.188-.595-.463-1.175-.679-1.761a69 69 0 0 1-1.482-4.53c-1.653-5.671-2.69-11.498-3.691-17.312-2.186-12.703-4.537-25.167-10.757-36.635-6.304-11.623-15.798-21.394-26.782-28.667-11.1-7.35-24.011-11.602-37.245-12.677-13.551-1.101-27.148 2.169-39.333 7.975-12.15 5.789-22.409 14.848-30.336 25.645s-11.659 23.624-14.873 36.392c-1.57 6.237-3.109 12.505-5.349 18.545-.28.755-.587 1.5-.875 2.252-.44 1.152.494-1.146.462-1.088-.163.297-.28.633-.42.942a64 64 0 0 1-2.139 4.301 49 49 0 0 1-2.319 3.82c-.203.301-1.868 2.537-.755 1.127 1.094-1.386-.738.861-.998 1.157a44 44 0 0 1-4.244 4.226c-.313.273-.639.533-.952.807-1.099.964.431-.337.759-.559-2.337 1.577-4.586 3.176-7.088 4.499-1.202.635-2.429 1.21-3.664 1.776-1.669.764 2.248-.894-.033 0q-1.186.464-2.386.885a84 84 0 0 1-8.357 2.43c-2.771.658-5.569 1.162-8.373 1.655a148 148 0 0 1-4.244.685c-2.632.384 1.719-.202-.191.031q-.995.124-1.991.241c-1.122.13-2.24.253-3.36.403l-1.367.184 1.405-.221c-.06-.069-1.372.132-1.328.127-1.435.145-2.87.288-4.307.415q-2.139.188-4.279.348c-.653.049-1.308.088-1.961.143-.325.027-3.236.376-3.233.392-.022-.12 2.541-.261.637-.216-5.032.118-9.865 4.344-9.629 9.629.229 5.116 4.234 9.755 9.629 9.629 5.93-.139 11.856.179 17.793-.15 6.555-.364 13.109-1.082 19.542-2.412 12.463-2.577 24.49-7.751 33.964-16.391 10.158-9.264 15.483-22.103 19.053-35.096 1.688-6.145 3.083-12.367 4.866-18.486.886-3.04 1.866-6.056 3.025-9.004.126-.321.289-.646.39-.976.017-.055-.969 2.194-.449 1.071.279-.602.541-1.211.826-1.81a63 63 0 0 1 5.455-9.301c.251-.356.514-.704.765-1.06.86-1.224-.289.385-.571.713 1.931-2.239 3.769-4.499 5.884-6.576a69 69 0 0 1 4.628-4.156c.253-.208.514-.407.765-.618 1.09-.918-1.878 1.389-.723.554 2.396-1.733 4.814-3.4 7.381-4.875a71 71 0 0 1 5.529-2.863c.396-.184.799-.353 1.194-.54 1.3-.615-2.223.885-.881.367 2.754-1.062 5.514-2.052 8.37-2.811a68 68 0 0 1 3.819-.896 64 64 0 0 1 2.249-.417c.322-.054.645-.103.968-.156 1.563-.257-.674.116-1.054.136 2.954-.152 5.844-.512 8.815-.456q2.111.04 4.215.224c.638.056 1.284.174 1.923.199.149.006-2.652-.395-1.404-.191.529.086 1.061.16 1.589.251a65.5 65.5 0 0 1 8.127 1.942q2 .615 3.957 1.353c.702.265 1.391.57 2.095.829.114.042-2.329-1.034-1.22-.504.387.185.784.351 1.173.532a70 70 0 0 1 7.643 4.15 71 71 0 0 1 3.487 2.328c.526.374 1.039.766 1.562 1.143.988.712-1.093-.859-1.011-.785.319.285.675.537 1.006.808a71 71 0 0 1 9.184 9.026c.416.492.82.993 1.227 1.492.459.564 1.056 1.668-.586-.766.239.354.514.689.765 1.035a66 66 0 0 1 4.622 7.344 64 64 0 0 1 1.733 3.449c.181.389.348.785.531 1.173.524 1.114-.551-1.342-.512-1.226.241.71.558 1.399.817 2.103 1.013 2.753 1.828 5.577 2.529 8.424 1.405 5.709 2.34 11.52 3.328 17.311 2.033 11.911 4.459 24.364 11.266 34.609 7.794 11.729 19.624 18.927 33.03 22.65 11.03 3.063 22.59 3.919 33.454 7.623q.9.307 1.792.64c.438.164 2.906 1.155.987.37-1.821-.745.241.138.657.337q1.004.48 1.983 1.009a43 43 0 0 1 3.568 2.153q.875.59 1.726 1.216c.228.167.45.345.682.506 1.12.776-2.015-1.63-.979-.76 3.774 3.171 7.081 6.504 10.313 10.218.478.549-1.744-2.349-.514-.664.306.419.615.836.914 1.259a62.6 62.6 0 0 1 5.322 9.056q.332.69.647 1.386c.034.075.431.778.413.932-.023.202-1.055-2.601-.658-1.558.424 1.113.875 2.212 1.269 3.337a72 72 0 0 1 1.904 6.376 78 78 0 0 1 1.377 6.834c.04.257.071.516.116.771.204 1.162-.361-1.962-.23-1.752.226.362.168 1.372.216 1.815q.198 1.827.319 3.661c.312 4.708.255 9.438-.107 14.142q-.136 1.76-.327 3.514c-.059.542-.126 1.083-.189 1.625-.293 2.506.418-2.773.042-.331s-.798 4.895-1.306 7.324a137 137 0 0 1-3.81 14.265 146 146 0 0 1-2.52 7.132c-.433 1.134-.887 2.26-1.341 3.385-.103.255-.195.531-.321.776-.108.211 1.106-2.567.61-1.446-.264.596-.516 1.198-.78 1.794a153 153 0 0 1-6.713 13.37 146 146 0 0 1-7.626 12.096q-.984 1.401-2.002 2.777c-.311.42-.628.835-.94 1.254-1.03 1.383.849-1.095.842-1.083-.171.287-.43.551-.638.813a122 122 0 0 1-4.404 5.261c-2.969 3.347-6.12 6.585-9.559 9.454-.454.379-.942.727-1.383 1.12 2.598-2.319.933-.726.195-.195a67 67 0 0 1-3.41 2.299 78 78 0 0 1-6.641 3.735 93 93 0 0 1-3.45 1.641c-.485.219-2.687 1.163-.792.365 1.91-.804-.348.136-.815.322a145 145 0 0 1-7.527 2.75c-5.01 1.685-10.09 3.149-15.173 4.598-10.868 3.097-21.655 6.266-31.96 10.974-10.83 4.949-20.108 12.214-27.337 21.669-7.341 9.601-10.962 21.574-12.993 33.34-1.119 6.481-1.895 13.018-2.75 19.537-.274 2.085.351-2.54.061-.459q-.156 1.131-.318 2.261-.322 2.25-.691 4.494c-.47 2.849-1.007 5.688-1.667 8.5-.624 2.657-1.355 5.29-2.245 7.871a65 65 0 0 1-.745 2.05c-.166.433-1.01 2.498-.237.644s-.108.189-.306.611a52 52 0 0 1-1.111 2.217 48 48 0 0 1-2.043 3.487q-.51.79-1.05 1.557c-.181.257-.373.507-.553.765-.793 1.138 1.71-2.073.437-.572-1.877 2.214-3.876 4.282-6.111 6.138-.338.28-.699.541-1.029.83-.071.062 2.029-1.479 1.007-.8-.55.365-1.075.769-1.623 1.138a55 55 0 0 1-3.955 2.423 63 63 0 0 1-3.86 1.977c-.605.284-1.243.522-1.835.829-.092.048 2.365-.956 1.191-.505-.526.202-1.046.42-1.572.621-5.668 2.163-11.564 3.68-17.509 4.857a195 195 0 0 1-9.158 1.568q-1.011.15-2.024.293l-1.009.14c-1.516.215 2.604-.338 1.117-.15-1.401.177-2.802.355-4.205.514-5.927.673-11.882 1.131-17.847 1.262-5.835.128-11.685-.044-17.49-.678-.756-.083-1.509-.189-2.264-.271-.162-.018 2.712.399 1.442.186-.319-.054-.641-.095-.96-.146a93 93 0 0 1-4.433-.807 80 80 0 0 1-8.28-2.174 69 69 0 0 1-3.835-1.36c-.29-.113-.577-.235-.869-.345-1.157-.437 1.437.622 1.298.553-.647-.321-1.325-.588-1.978-.898a58 58 0 0 1-7.264-4.104 54 54 0 0 1-1.779-1.24c-.249-.181-.491-.384-.749-.553-.115-.075 2.011 1.619 1.084.83-1.116-.949-2.242-1.875-3.304-2.886a51 51 0 0 1-2.881-2.968c-.449-.502-.877-1.02-1.316-1.53-.23-.267-.965-1.253.038.086 1.174 1.566-.196-.279-.338-.476a54 54 0 0 1-4.51-7.495c-.349-.701-.657-1.422-1.003-2.124-.548-1.113.513 1.265.482 1.177-.114-.315-.255-.624-.378-.935a65 65 0 0 1-1.573-4.45 75 75 0 0 1-2.19-8.927 83 83 0 0 1-.347-2.034c-.054-.341-.098-.683-.155-1.023-.212-1.269.179 1.413.171 1.306-.126-1.615-.367-3.223-.493-4.84-.992-12.733.667-25.26 1.844-37.91 1.088-11.699 1.571-23.492.743-35.224-.763-10.807-2.491-21.623-5.657-31.997-3.149-10.319-7.584-20.298-12.8-29.732-5.622-10.168-12.177-19.798-19.037-29.164-3.991-5.449-8.191-10.741-11.886-16.401s-6.836-11.518-9.623-17.64c-.436-.958.152.362.191.461-.184-.466-.378-.928-.562-1.395a93 93 0 0 1-.797-2.101 83 83 0 0 1-1.633-4.94c-.935-3.166-1.606-6.369-2.146-9.622-.179-1.078.062.574.083.605-.13-.197-.092-.838-.116-1.075a57 57 0 0 1-.175-2.15 55 55 0 0 1-.088-5.008c.036-1.244-.187-3.474.342-4.627-.017.037-.278 1.644-.069.589.093-.469.157-.945.246-1.415q.233-1.241.533-2.467.563-2.304 1.358-4.539c.114-.321.789-2.339.4-1.139-.357 1.103-.067.15.041-.087.214-.466.427-.931.651-1.391a46 46 0 0 1 4.066-6.762c1.272-1.756-.696.785.3-.4.389-.463.773-.931 1.172-1.385a51 51 0 0 1 2.927-3.064 54 54 0 0 1 2.943-2.633c.24-.199 1.751-1.363.802-.662-.968.715.118-.075.358-.249q.496-.361 1-.712c2.288-1.593 4.699-2.969 7.134-4.318a55 55 0 0 1 3.338-1.675c.377-.176.757-.345 1.135-.518.167-.077 1.143-.51.161-.08s0 .002.173-.066c.391-.154.78-.311 1.173-.461 5.303-2.033 10.831-3.424 16.45-4.226-1.394.199-.24.042.449-.031a75 75 0 0 1 6.256-.4c3.462-.076 6.951.057 10.403.295 6.795.468 13.286 1.684 20.23 3.466 13.731 3.524 26.59 9.184 39.48 14.983 2.251 1.013 4.918.649 6.258-1.641 1.187-2.03.575-5.145-1.641-6.258Z"/></g><g fill="#55bfbf"><path d="m732.498 427.45-59.122 1.256c-5.878.125-12.722.761-15.911 5.7-1.934 2.996-1.931 6.808-1.737 10.369a149.4 149.4 0 0 0 5.147 31.521 585 585 0 0 1 72.583 7.983c2.285.397 4.706.874 6.399 2.46 1.999 1.873 2.489 4.81 2.867 7.524l10.513 75.349c.495 3.549 1.215 7.489 4.107 9.604 2.258 1.651 5.264 1.734 8.061 1.706a251 251 0 0 0 40.459-3.701c2.645-.46 5.403-1.016 7.488-2.708 3.619-2.937 4.056-8.212 4.112-12.873a345 345 0 0 0-6.521-70.915 579.4 579.4 0 0 0 88.192-6.661c3.294-.504 6.845-1.172 9.101-3.624 2.912-3.167 2.588-8.04 2.083-12.313l-5.481-46.386c-.142-1.199-.322-2.486-1.144-3.371-1.158-1.246-3.102-1.225-4.8-1.112l-108.191 7.22 24.989.814-4.62-91.488c-.191-3.782-.767-8.217-4.079-10.053-1.696-.941-3.738-.94-5.676-.884a185.4 185.4 0 0 0-38.423 5.157c-5.358 1.301-11.251 3.313-13.7 8.253-1.313 2.648-1.388 5.716-1.414 8.671a576 576 0 0 0 5.712 86.184l-6.035-1.023"/><path d="M732.498 423.177c-8.742-.418-17.484-.812-26.219-1.308l-6.683-.38-3.085-.175-1.542-.088c-.249-.014-.522-.059-.771-.044q-.61-.05.189.065 1.147.195-.514-.049c-2.411-.324-4.951-.122-7.386-.126l-6.426-.008c-7.749-.01-16.131-.611-23.164 3.266-4.244 2.339-7.625 6.666-8.681 11.418-.971 4.371-.678 8.784-.305 13.2.841 9.957 2.534 19.856 5.189 29.49.978 3.548 4.212 5.757 7.777 5.921a591 591 0 0 1 51.021 4.574l-2.124-.285q6.79.911 13.559 1.978 3.258.514 6.511 1.066c1.989.337 4.001.618 5.875 1.4l-1.899-.801c.62.291 1.18.622 1.722 1.039l-1.608-1.242c.4.35.747.714 1.076 1.131l-1.242-1.608c.372.531.673 1.077.937 1.668l-.801-1.897c1.377 3.448 1.51 7.455 2.021 11.099l1.711 12.217 3.493 24.943 3.493 24.943c1.114 7.953 1.536 17.431 9.438 21.898 4.26 2.408 9.148 2.389 13.889 2.29q6.1-.128 12.188-.551c8.814-.613 17.606-1.689 26.319-3.154 4.575-.769 8.852-1.897 12.462-4.993 3.1-2.658 5.04-6.738 5.715-10.721.664-3.916.718-7.804.716-11.763a344 344 0 0 0-.22-12.141c-.681-19.063-2.943-38.095-6.638-56.807l-7.546 9.906c18.829.002 37.64-.775 56.389-2.53 10.003-.936 19.979-2.148 29.925-3.566 4.439-.633 8.817-1.129 12.835-3.295 2.523-1.36 4.732-3.535 6.179-6.004 1.56-2.662 2.109-5.437 2.429-8.459.436-4.104-.424-8.365-.892-12.433l-1.611-14.018-1.641-14.272c-.59-5.132-.949-10.365-1.842-15.453-.679-3.868-3.418-7.047-6.973-8.548-2.615-1.104-5.34-1.151-8.129-.974q-7.178.456-14.357.898l-28.458 1.756c-18.979 1.171-37.947 2.464-56.916 3.798l-7.179.505c-2.278.16-4.371.842-6.025 2.496-1.478 1.478-2.591 3.902-2.496 6.025.212 4.727 3.743 8.382 8.521 8.521 8.331.241 16.66.531 24.989.831 4.458.16 8.749-4.043 8.537-8.537-.867-18.417-1.664-36.839-2.602-55.253l-1.418-27.755c-.457-8.943.368-20.989-8.826-26.044-4.791-2.634-10.292-2.136-15.538-1.827-4.474.264-8.937.693-13.381 1.276-4.969.652-9.916 1.407-14.829 2.402-3.871.784-7.814 1.562-11.549 2.87-4.186 1.465-8.562 3.528-11.524 6.953-2.011 2.326-3.45 4.734-4.368 7.693-.769 2.48-.977 5.191-1.047 7.779-.243 8.981.003 18.006.325 26.982a576 576 0 0 0 4.546 54.462 827 827 0 0 0 1.171 8.587l10.59-10.59-6.036-1.02c-2.342-.397-4.51-.374-6.631.868-1.785 1.045-3.488 3.091-3.955 5.143-.502 2.203-.393 4.676.868 6.631 1.144 1.775 2.973 3.587 5.143 3.955l6.034 1.026c3.116.53 6.04.122 8.376-2.214a8.6 8.6 0 0 0 2.214-3.799 8.67 8.67 0 0 0 0-4.577 609 609 0 0 1-.556-4.03l.308 2.289a578 578 0 0 1-5.134-77.577c.004-3-.096-6.042.252-9.028l-.309 2.302c.184-1.321.487-2.587 1.004-3.819l-.873 2.069c.375-.797.81-1.523 1.343-2.224l-1.354 1.753a13.7 13.7 0 0 1 2.013-2.001l-1.753 1.355c1.265-.975 2.645-1.736 4.104-2.379l-2.07.874c3.682-1.55 7.639-2.371 11.531-3.198a189 189 0 0 1 13.981-2.415l-2.308.31c3.785-.5 7.582-.894 11.391-1.165 3.572-.255 7.312-.671 10.885-.324l-2.312-.311a10 10 0 0 1 2 .469l-2.077-.877a7.2 7.2 0 0 1 1.583.912l-1.76-1.36c.336.287.636.589.923.926l-1.36-1.76c.48.625.845 1.281 1.155 2.004l-.877-2.078c.471 1.21.74 2.459.919 3.742l-.311-2.313c.715 5.758.68 11.674.969 17.468l.923 18.503c.62 12.423 1.326 24.843 1.996 37.264l1.136 21.073 8.537-8.537c-8.331-.243-16.66-.496-24.989-.797v17.041c29.067-1.835 58.118-3.823 87.168-5.907l12.306-.883q3.076-.218 6.153-.432c1.707-.119 3.459-.363 5.166-.142l-2.215-.298c.363.069.689.154 1.037.277l-1.989-.84c.337.155.606.312.903.534l-1.685-1.302q.291.246.513.556l-1.301-1.684q.23.324.382.69l-.839-1.987c.24.644.372 1.288.47 1.966l-.297-2.21c1.174 9.303 2.261 18.619 3.391 27.928l1.67 13.763c.488 4.023 1.318 8.191.811 12.251l.291-2.164a12.5 12.5 0 0 1-.797 2.938l.82-1.942a10 10 0 0 1-.946 1.633l1.27-1.644a9.3 9.3 0 0 1-1.617 1.611l1.643-1.269a11.8 11.8 0 0 1-2.309 1.273l1.937-.818c-2.531.982-5.249 1.308-7.917 1.714q-4.903.745-9.817 1.408l2.141-.288a582 582 0 0 1-59.315 4.905 522 522 0 0 1-16.788.264c-2.483-.003-4.654 1.154-6.145 3.084-1.592 2.061-1.897 4.298-1.401 6.822a353 353 0 0 1 3.466 20.964l-.28-2.083a348 348 0 0 1 2.6 28.205q.36 7.075.429 14.159c.04 4.135.215 8.359-.315 12.47l.281-2.09c-.212 1.469-.542 2.896-1.102 4.274l.793-1.879c-.216.49-.45.969-.729 1.427-.165.27-.713.987.115-.065.906-1.151.122-.175-.068.024-.067.07-.524.424-.52.501-.01-.184 1.633-1.055.633-.496-.618.346-1.205.685-1.86.961l1.88-.793c-2.153.826-4.439 1.168-6.704 1.544q-3.888.644-7.793 1.169l2.094-.281a251 251 0 0 1-26.338 2.128c-2.782.078-5.62.25-8.39-.078l2.099.282c-.975-.143-1.893-.364-2.808-.731l1.886.796a8 8 0 0 1-.738-.365q-1.044-.663.608.559c-.227-.262-.534-.512-.786-.749q-.558-.66.169.24.692.927.206.211c-.218-.433-.47-.843-.673-1.286l.796 1.887c-.833-1.979-1.192-4.085-1.491-6.199-.42-2.969-.826-5.94-1.239-8.911l-2.442-17.567-4.849-34.879-1.203-8.656c-.374-2.687-.616-5.437-1.209-8.087-.704-3.147-2.278-6.421-4.745-8.559-2.645-2.292-5.785-3.554-9.192-4.173-11.897-2.163-23.904-3.822-35.913-5.219a589 589 0 0 0-39.189-3.23l7.777 5.921a153 153 0 0 1-4.005-19.769l.289 2.152c-.396-3.01-.71-6.029-.926-9.057-.198-2.762-.405-5.552-.063-8.311l-.29 2.159c.188-1.253.488-2.491.978-3.661l-.814 1.929c.331-.706.716-1.357 1.183-1.982l-1.254 1.624a11.3 11.3 0 0 1 1.665-1.672l-1.613 1.246a13.7 13.7 0 0 1 2.932-1.693l-1.885.796c1.778-.719 3.634-1.137 5.528-1.412l-2.064.277c3.547-.477 7.147-.514 10.718-.67 4.284-.187 8.568-.391 12.853-.562.991-.04 1.961-.239 2.948-.291-.003 0-1.472.16-.635.09.257-.022.514-.051.771-.077l3.342-.332 6.683-.664 6.426-.638c.514-.051 1.03-.066 1.542-.113-.179.016 2.288-.248 1.266-.165-.652.053.202-.003.276-.01l3.342-.302 14.652-1.323c2.22-.2 4.383-1.822 4.273-4.273-.108-2.406-1.878-4.158-4.273-4.273Z"/></g><path d="M751.196 423.743a681 681 0 0 0 2.76-42.194c.241-6.954.324-13.908.336-20.865.012-6.742-.517-13.468-.704-20.203-.042-1.507.147-2.998.147-4.495 0 1.799-.166 1.148-.051.535.078-.414.169-.825.282-1.232.079-.286.185-.564.267-.848q.273-.755-.367.82.142-.32.306-.627c.109-.204.243-.397.35-.602q.594-.873-.466.545.224-.274.47-.528c.089-.092.453-.356.523-.495q-1.372 1.011-.492.399.317-.206.648-.384c.221-.119.458-.211.677-.331-1.844 1.012-.507.25.124.081a20 20 0 0 1 2.284-.445l-1.873.252c3.763-.483 7.601-.534 11.386-.75l12.58-.715c4.113-.234 8.223-.486 12.333-.777 3.712-.263 7.654-.942 11.366-.473l-2.031-.273c.617.101 1.203.244 1.791.455l-1.827-.771c.275.116.541.295.816.394q.493.301-.321-.293-.85-.705-.201-.134c.712.794-.514-.646-.503-.721-.011.078.47.841.515.936l-.772-1.83c.331.803.528 1.611.66 2.468l-.274-2.039c.373 2.948.236 5.987.273 8.954q.059 4.722.092 9.444a1670 1670 0 0 1-.608 58.154c-.101 3.644-.128 7.287-.172 10.932-.021 1.734-.114 3.483-.057 5.217.08 2.429.663 4.635 1.527 6.864.916 2.363 2.519 4.086 5.153 4.44 2.272.305 5.122-.745 6.176-2.959.608-1.278 1.331-2.58 1.73-3.935.466-1.582.715-3.27.833-4.906.168-2.314.239-4.639.35-6.956.216-4.472.334-8.94.416-13.417a1683 1683 0 0 0 .104-54.428q-.096-6.71-.246-13.42c-.121-5.396-.851-10.934-5.425-14.468-4.209-3.252-9.139-3.232-14.186-2.84-4.441.345-8.884.666-13.32 1.072-8.859.811-17.771 1.404-26.605 2.459-4.824.576-9.803 1.689-13.226 5.46-3.277 3.611-4.526 8.227-4.648 13.019-.102 3.988.479 8.009.773 11.981.33 4.465.587 8.935.883 13.402 1.2 18.109 1.544 36.248.75 54.381q-.148 3.347-.333 6.691c-.131 2.361 2.169 4.618 4.513 4.513 2.641-.118 4.268-1.988 4.513-4.513Z"/><path d="M744.336 420.784c-2.742-1.131-5.577-1.715-8.465-2.372q-4.285-.975-8.584-1.89c-5.667-1.207-11.351-2.15-17.083-2.99-12.091-1.772-24.197-3.275-36.389-4.122-6.772-.47-13.745-1.4-20.477-.274l2.352-.316c-3.366.211-6.805.838-9.603 2.862-3.23 2.337-5.532 5.361-6.616 9.247-1.466 5.257-.759 11.157-.607 16.536q.467 16.511 1.382 33.003c.359 6.474.203 13.302 4.726 18.477 4.412 5.047 11.057 5.153 17.212 5.092a485 485 0 0 1 69.135 4.272l-2.321-.312c1.199.161 2.397.327 3.596.489 1.258.169 2.341.033 3.594-.097 2.113-.221 4.231-.731 5.745-2.38 1.232-1.342 1.991-2.851 2.234-4.665.233-1.732.011-3.667-.964-5.18-1.223-1.898-2.786-2.878-4.855-3.734-1.263-.522-2.38-.946-3.734-1.134a801 801 0 0 0-5.976-.806 484 484 0 0 0-23.716-2.523 485 485 0 0 0-40.772-1.606c-2.711.007-5.479.21-8.176-.129l2.351.316a10.7 10.7 0 0 1-2.461-.657l2.113.892a8 8 0 0 1-1.234-.716l1.791 1.384a7.3 7.3 0 0 1-1.044-1.024l1.384 1.791a8 8 0 0 1-.9-1.579l.893 2.115c-.36-.947-.567-1.912-.705-2.914l.316 2.355c-.513-4.356-.551-8.805-.759-13.185a1219 1219 0 0 1-.991-27.298c-.104-4.149-.513-8.454-.032-12.587l-.32 2.379c.138-.981.355-1.921.716-2.844l-.903 2.139a9 9 0 0 1 .882-1.566l-1.401 1.813a8 8 0 0 1 1.275-1.291l-1.814 1.401a9 9 0 0 1 1.532-.895l-2.141.904a15.6 15.6 0 0 1 3.517-.97l-2.352.316c5.375-.058 10.796.311 16.164.57 5.719.277 11.432.665 17.149.965 11.495.603 22.936 1.766 34.413 2.567q4.863.339 9.72.753c4.857.414 6.444.708 9.697.528 2.83-.157 5.17-2.033 5.556-4.905.403-3.001-1.404-5.115-4.052-6.207Z"/><path d="M737.103 487.961c-.126.369-.316.763-.391 1.146l-.078.229q.496-.985-.356.905c-.509 1.847-.241 1.601-.137.965l-.196 1.199c-.26 1.598-.498 3.2-.768 4.796-.585 3.461-.652 7.025-.861 10.527-.382 6.383-.759 12.771-.909 19.164a1050 1050 0 0 0-.205 38.066c.093 7.207.512 14.425.883 21.622.188 3.656 2.541 7.517 6.36 8.354a161 161 0 0 0 36.912 3.725 158 158 0 0 0 17.485-1.246c6.775-.864 14.076-1.489 20.306-4.492 10.669-5.142 13.041-17.845 13.268-28.506a239.6 239.6 0 0 0-1.834-35.044c-1.725-13.681-4.386-27.181-8.289-40.413-1.299-4.404-6.236-7.616-10.808-6.137-4.463 1.444-7.529 6.086-6.137 10.808a243 243 0 0 1 7.697 35.945l-.314-2.336a243 243 0 0 1 1.984 22.843c.268 6.866.558 13.933-.302 20.769l.314-2.336c-.326 2.421-.848 4.803-1.763 7.073l.886-2.099c-.562 1.33-1.249 2.577-2.121 3.73l1.374-1.778a13.8 13.8 0 0 1-2.32 2.312l1.778-1.374a14 14 0 0 1-2.682 1.547l2.099-.886c-4.507 1.845-9.726 2.341-14.519 2.99l2.336-.314a159.6 159.6 0 0 1-41.682.017l2.336.314q-2.12-.285-4.239-.565l2.332.313a165 165 0 0 1-9.491-1.569l6.36 8.354c-1.89-25.426-3.202-50.887-4.188-76.363-.138-3.562-.145-7.143-.354-10.701l-.215-1.6.083.604c.012-.565-.136-1.179-.201-1.742q-.157-1.368-.31-2.737c-.093-.829-.169-1.659-.255-2.488-.128-1.239-.527-2.394-.86-3.592-.471-1.692-2.192-3.13-4.004-3.049-1.911.086-3.389 1.248-4.004 3.049Z"/><path d="M810.623 494.185c2.879.586 5.742 1.148 8.645 1.605 3.414.537 6.834.68 10.279.904 5.944.385 11.873.729 17.824.994a1213 1213 0 0 1 36.358 2.182c9.433.704 19.886.781 28.259-4.28 5.38-3.252 9.289-8.398 11.049-14.431 1.576-5.403 1.307-11.175.632-16.69-.81-6.615-1.714-13.219-2.574-19.828-.963-7.403-1.745-14.852-3.201-22.177l.307 2.288c-.693-5.899-.299-12.521-4.74-17.085-2.53-2.601-6.526-3.833-10.08-3.444-2.978.326-5.842 1.102-8.768 1.708l2.24-.301c-2.787.311-5.589.485-8.374.808-3.339.387-6.666.939-9.993 1.422q-8.256 1.2-16.51 2.419a6978 6978 0 0 0-46.293 7c-2.191.339-4.349 1.028-6.264 2.182l2.013-.849c-1.628.54-3.014 1.312-4.477 2.15-2.599 1.488-3.953 4.529-3.563 7.435.37 2.756 2.469 5.61 5.345 6.204 1.624.336 3.27.751 4.934.761l-2.24-.301c2.642.611 4.944.591 7.606.169 1.475-.234 2.948-.476 4.422-.713q4.054-.652 8.109-1.3a6963 6963 0 0 1 58.279-9.052c3.116-.471 6.159-1.225 9.246-1.785l-2.24.301c2.766-.239 5.605-.588 8.381-.387l-2.38-.32a6 6 0 0 1 1.038.24l-2.132-.9c.345.151.616.305.92.528l-1.801-1.391q.273.226.489.505l-1.388-1.797c.209.299.37.58.525.91l-.892-2.114c.517 1.329.66 2.765.882 4.164.27 1.707.556 3.411.804 5.121l-.307-2.288c.581 8.958 2.061 17.868 3.239 26.764.572 4.317 1.172 8.631 1.712 12.953.465 3.724.785 7.486.343 11.228l.316-2.353c-.248 1.839-.681 3.624-1.39 5.341l.889-2.107a17 17 0 0 1-1.901 3.277l1.374-1.779a16.7 16.7 0 0 1-2.733 2.777l1.772-1.369c-1.286.992-2.677 1.783-4.167 2.427l2.081-.878c-2.297.95-4.705 1.519-7.161 1.871l2.298-.309c-4.253.571-8.555.518-12.832.293-5.804-.305-11.606-.61-17.415-.811-6.013-.208-12.048-.128-18.063-.066-5.964.062-11.878.26-17.824.736-3.671.294-7.457.415-11.08 1.088-3.322.617-6.568 1.447-9.824 2.341-1.693.465-3.129 2.196-3.049 4.004.078 1.743 1.22 3.632 3.049 4.004Z"/><path fill="#d85bd2" d="m738.763 461.955 19.412-12.772 9.5-6.25c1.832-1.206 3.721-2.353 5.456-3.696.772-.598 1.597-1.164 2.331-1.808.885-.775 1.435-1.704 2.009-2.714.703-1.238.611-2.828-.278-3.943-.949-1.191-2.264-1.523-3.732-1.272-3.914.668-7.072 3.594-10.186 5.907l-9.371 6.959-18.543 13.771c-1.459 1.083-2.199 2.918-1.209 4.611.883 1.509 3.084 2.214 4.611 1.209Zm22.042 13.424 16.94-14.126 8.375-6.984c2.809-2.343 5.846-4.699 8.162-7.545 1.382-1.699 1.754-3.879.34-5.71-1.308-1.693-3.723-2.227-5.61-1.12-3.341 1.96-6.352 4.761-9.247 7.323l-8.334 7.373-16.669 14.746c-1.679 1.486-1.629 4.547 0 6.043 1.833 1.682 4.204 1.533 6.043 0m15.899 16.813 5.16-4.641c.834-.75 1.682-1.488 2.504-2.252.858-.797 1.559-1.839 2.302-2.742.677-.823 1.249-1.772 1.199-2.894-.041-.924-.31-1.744-.879-2.48-1.174-1.52-3.579-2.2-5.279-1.054-1.201.81-2.464 1.575-3.577 2.503-.911.76-1.761 1.607-2.634 2.41l-5.179 4.766c-1.742 1.603-1.745 4.781 0 6.383 1.88 1.726 4.505 1.689 6.383 0ZM442.28 462.93c2.279 2.78 4.518 5.934 6.569 9.286 2.097 3.426 4.229 6.792 6.031 10.389a92 92 0 0 1 1.867 3.959c.113.255.221.511.335.765.34.756-.428-1.047-.119-.288q.27.668.543 1.334c.254.619.517 1.234.78 1.848.067.156.345.832.017.028-.37-.908.235.574.323.794q.31.768.605 1.542a89 89 0 0 1 3.538 11.563 103 103 0 0 1 1.387 7.123q.114.717.221 1.436c.041.275.144.668.138.959.003-.164-.208-1.628-.052-.383q.09.717.177 1.434.056.479.116.958l.247 1.84q-.192-1.442-.088-.641a306 306 0 0 1 1.361 13.958c.691 9.05 1.178 18.131.929 27.21-.139 5.047-.484 10.114-1.088 15.127-.037.305-.095.618-.115.922.024-.37.194-1.36.057-.434-.091.616-.179 1.231-.277 1.846-.264 1.665-.635 3.326-.774 5.007-.212 2.567-.369 5.128-.653 7.69-.249 2.242 1.851 4.739 3.976 5.223 2.242.511 5.015-.298 6.117-2.489 1.199-2.385 2.234-4.856 3.224-7.334.866-2.168 1.237-4.476 1.635-6.77.876-5.056 1.47-10.153 1.713-15.278.44-9.307.028-18.632-.653-27.916-.731-9.978-1.597-19.99-4.043-29.717-2.139-8.505-5.387-16.923-10.03-24.379a96.6 96.6 0 0 0-8.768-11.948c-3.046-3.536-6.726-6.649-10.395-9.516-1.458-1.14-3.429-1.422-4.851 0s-1.178 3.414 0 4.851Zm-9.823-288.73c.043-2.645.098-3.754.558-6.365.469-2.663.659-5.354.948-8.04a289 289 0 0 1 .74-6.232c.022-.173.167-1.529.085-.648-.071.762.006-.034.024-.162l.133-.943q.117-.825.24-1.65a281 281 0 0 1 .586-3.767c1.552-9.544 3.146-19.044 5.42-28.449a284 284 0 0 1 4.298-15.746c1.17-3.852-1.396-8.562-5.376-9.469s-8.452 1.191-9.469 5.376a285 285 0 0 0-5.447 28.835c-.726 5.34-1.468 10.716-1.764 16.1a278 278 0 0 0-.419 14.357c-.01 2.771-.159 5.644.161 8.397.159 1.361.37 2.719.51 4.082.146 1.428.084 2.887.107 4.323.035 2.265 1.968 4.439 4.333 4.333 2.379-.107 4.294-1.903 4.333-4.333Zm77.088 27.984a221 221 0 0 1 5.368-14.332l.333-.797c.348-.835-.541 1.264-.183.438.255-.589.506-1.18.763-1.768a208 208 0 0 1 1.575-3.517 636 636 0 0 1 3.164-6.808 220 220 0 0 1 14.809-26.42 222 222 0 0 1 9.991-14.023l-1.23 1.592c2.238-2.887 4.641-5.641 6.887-8.518 1.23-1.575 2.353-2.94 2.916-4.902.751-2.617.062-5.762-1.899-7.723-1.855-1.855-4.942-2.558-7.443-1.869-1.869.515-3.583 1.792-4.853 3.216-2.776 3.114-5.242 6.556-7.71 9.917a218 218 0 0 0-6.257 8.99c-8.197 12.432-15.387 25.798-20.707 39.723a219 219 0 0 0-7.479 23.504c-.807 3.136 1.028 6.873 4.329 7.625 3.428.781 6.518-1.036 7.625-4.329Zm65.764 55.595c8.153-8.729 16.68-17.091 25.276-25.384 8.489-8.189 17.123-16.249 25.824-24.212a772 772 0 0 1 7.357-6.646c2.567-2.289 5.38-4.43 7.61-7.051 1.646-1.936 2.918-4.727 1.935-7.319-.715-1.885-1.572-3.51-3.457-4.496-2.291-1.198-5.329-1.533-7.593 0-2.906 1.967-5.372 4.379-7.913 6.781a772 772 0 0 0-6.475 6.193 695 695 0 0 0-12.732 12.616c-8.369 8.528-16.278 17.574-24.077 26.621-2.165 2.511-4.163 5.159-6.31 7.687a783 783 0 0 0-6.679 7.975c-1.702 2.059-2.167 5.245 0 7.234 1.985 1.822 5.283 2.089 7.234 0Zm-228.01-58.16c1.393-4.422.065-9.362-.834-13.751l-2.564-12.516c-.854-4.172-1.782-8.321-2.721-12.473-1.026-4.532-1.639-9.47-3.714-13.65-1.204-2.425-4.692-3.772-7.241-2.947-2.603.842-4.846 3.297-4.707 6.183.126 2.635.88 5.038 1.618 7.544l1.836 6.235c1.201 4.079 2.412 8.151 3.697 12.204l3.854 12.161c1.342 4.235 2.61 9.131 5.95 12.285 1.612 1.522 4.168.822 4.828-1.275Zm313.825 536.942a147 147 0 0 1 3.669 7.031q.46.945.906 1.898.2.423.394.848c.076.168.517 1.062.184.377-.332-.682.092.207.162.38l.348.861q.432 1.078.845 2.164a139 139 0 0 1 4.846 15.32 137 137 0 0 1 2.385 11.435q.152.924.29 1.849l.135.926c.25 1.669-.215-1.766-.013-.105.636 5.213.993 10.451 1.101 15.702a120 120 0 0 1-.992 18.064l.301-2.241c-1.36 10.068-3.999 20.024-7.94 29.392l.897-2.124a107 107 0 0 1-13.753 23.524l1.419-1.836c-5.158 6.633-11.092 12.623-17.739 17.768l1.87-1.445a92.2 92.2 0 0 1-19.92 11.634l2.243-.946c-4.807 2.028-9.822 3.493-14.996 4.201l2.5-.336c-3.658.471-7.342.553-11.004.079l2.503.336c-2.641-.373-5.21-1.035-7.672-2.067l2.251.95a26 26 0 0 1-5.205-3.018l1.908 1.474a25.3 25.3 0 0 1-4.296-4.245l1.475 1.91c-1.644-2.131-2.94-4.466-3.988-6.942l.952 2.256c-1.873-4.576-2.862-9.422-3.534-14.304l.338 2.514a115.6 115.6 0 0 1-.029-30.186l-.339 2.522c1.052-7.81 2.676-15.869 5.687-23.182l-.959 2.271c.72-1.682 1.569-3.277 2.679-4.736l-1.487 1.924a14.8 14.8 0 0 1 2.346-2.341l-1.924 1.487a13 13 0 0 1 2.311-1.361l-2.271.959a14 14 0 0 1 3.291-.925l-2.528.34a16 16 0 0 1 3.853-.017l-2.528-.34c1.437.198 2.813.565 4.161 1.101l-2.271-.959a17.5 17.5 0 0 1 3.726 2.15l-1.924-1.487a20.5 20.5 0 0 1 3.233 3.252l-1.487-1.924c1.293 1.687 2.319 3.513 3.151 5.467l-.959-2.271c1.079 2.648 1.764 5.408 2.148 8.239l-.34-2.528a43.5 43.5 0 0 1-.059 11.032l.34-2.528c-.614 4.231-1.803 8.328-3.46 12.266l.965-2.286c-1.94 4.508-4.458 8.719-7.443 12.612l1.507-1.951c-3.339 4.291-7.203 8.081-11.487 11.423l1.966-1.519c-6.203 4.777-13.082 8.54-20.284 11.579l2.347-.99c-14.925 6.228-31.052 9.742-47.031 11.915l2.673-.359c-18.484 2.472-37.587 3.191-56.117.751l2.695.362c-9.048-1.218-18.008-3.32-26.449-6.844l2.426 1.024c-5.139-2.175-10.038-4.879-14.469-8.283l2.058 1.59a1136 1136 0 0 0-6.052-4.688l2.009 1.552c-1.507-1.176-2.933-2.447-4.486-3.565l1.937 1.496c-.651-.711-1.402-1.335-2.082-2.021-.672-.679-1.275-1.478-2.013-2.082l1.402 1.815c-1.345-1.918-2.97-3.593-4.4-5.442l1.305 1.688q-.283-.375-.565-.754a24 24 0 0 0-.751-.979q-1.376-1.762.2.213c-1.904-3.774-7.528-5.153-11.033-2.893-3.856 2.486-4.93 6.997-2.893 11.033l.17.337-.813-1.926c.187 1.054.694 2.093 1.105 3.079.638 1.531 1.222 3.317 2.189 4.696l-.904-2.142c1.185 3.197 3.246 6.39 5.55 8.91l-1.496-1.937c2.75 4.484 6.832 7.886 11.062 10.885 3.129 2.219 6.479 4.116 9.954 5.737a104 104 0 0 0 24.755 7.956c19.91 3.751 40.743 3.656 60.8 1.195 21.388-2.624 43.088-7.257 62.472-16.984 18.2-9.132 33.704-24.45 39.523-44.354 1.419-4.852 2.194-10.032 2.229-15.086s-.63-10.354-2.359-15.111c-1.932-5.314-4.81-10.517-9.293-14.106-4.818-3.856-10.651-6.331-16.932-6.149-6.129.178-12.291 2.694-16.202 7.541-3.764 4.665-5.796 10.11-7.419 15.829-3.02 10.643-4.583 21.844-4.649 32.905-.031 5.218.308 10.426.98 15.6s1.439 10.374 3.199 15.318c1.939 5.449 4.591 10.454 8.577 14.696 3.702 3.938 8.331 6.599 13.342 8.484 8.854 3.33 19.145 2.686 28.174.479 8.676-2.121 17.038-6.159 24.507-11.014 14.954-9.72 27.332-23.298 35.914-38.918 4.291-7.811 7.747-16.195 10.127-24.786 2.643-9.541 3.763-19.655 3.792-29.543.015-5.194-.291-10.39-1.004-15.535l.281 2.089c-2.15-16.727-7.052-32.763-14.723-47.801-2.05-4.019-4.096-8.02-6.405-11.899-1.497-2.516-5.103-3.655-7.657-2.008-2.593 1.672-3.53 4.917-2.008 7.657Z"/></svg>