<?xml version="1.0" encoding="UTF-8"?><svg xmlns="http://www.w3.org/2000/svg" data-name="ARTWORK" viewBox="0 0 1000 1000"><path fill="#8170f9" d="M350.03 614.735c32.648-25.879 70.33-44.617 109.572-58.225 42.439-14.717 86.592-23.639 130.876-30.667 45.971-7.296 91.354-11.988 136.731-20.753 22.255-4.299 44.354-9.387 66.031-16.043 20.389-6.26 41.099-13.508 60.064-23.367 17.652-9.177 34.722-20.148 50.171-32.218 15.205-11.88 30.349-25.52 41.534-41.339 2.784-3.938 5.497-7.933 8.206-11.922 3.071-4.523-4.126-10.206-7.656-5.907-6.134 7.469-13.226 14.169-20.138 20.915-6.726 6.565-13.829 12.772-21.325 18.445-15.548 11.766-32.362 21.818-49.888 30.342-8.794 4.277-17.738 8.366-26.751 12.16 1.294-.545-1.359.556-1.728.708q-1.58.649-3.167 1.282a401 401 0 0 1-7.717 2.99 442 442 0 0 1-16.01 5.664c-21.482 7.148-43.478 12.771-65.597 17.559-21.992 4.761-44.182 8.451-66.3 12.552-22.786 4.226-45.615 8.214-68.396 12.464-44.426 8.287-88.807 17.981-131.442 33.187-39.033 13.92-76.919 32.332-110.089 57.361a344 344 0 0 0-12.171 9.622c-3.67 3.039 1.55 8.079 5.192 5.192Zm0 65.2c32.648-25.879 70.33-44.617 109.572-58.225 42.439-14.717 86.592-23.639 130.876-30.667 45.971-7.296 91.354-11.988 136.731-20.753 22.255-4.299 44.354-9.387 66.031-16.043 20.389-6.26 41.099-13.508 60.064-23.367 17.652-9.177 34.722-20.148 50.171-32.218 15.205-11.88 30.349-25.52 41.534-41.339 2.784-3.938 5.497-7.933 8.206-11.922 3.071-4.523-4.126-10.206-7.656-5.907-6.134 7.469-13.226 14.169-20.138 20.915-6.726 6.565-13.829 12.772-21.325 18.445-15.548 11.766-32.362 21.818-49.888 30.342-8.794 4.277-17.738 8.366-26.751 12.16 1.294-.545-1.359.556-1.728.708q-1.58.649-3.167 1.282a401 401 0 0 1-7.717 2.99 442 442 0 0 1-16.01 5.664c-21.482 7.148-43.478 12.771-65.597 17.559-21.992 4.761-44.182 8.451-66.3 12.552-22.786 4.226-45.615 8.214-68.396 12.464-44.426 8.287-88.807 17.981-131.442 33.187-39.033 13.92-76.919 32.332-110.089 57.361a344 344 0 0 0-12.171 9.622c-3.67 3.039 1.55 8.079 5.192 5.192Zm0 65.201c32.648-25.879 70.33-44.617 109.572-58.225 42.439-14.717 86.592-23.639 130.876-30.667 45.971-7.296 91.354-11.988 136.731-20.753 22.255-4.299 44.354-9.387 66.031-16.043 20.389-6.26 41.099-13.508 60.064-23.367 17.652-9.177 34.722-20.148 50.171-32.218 15.205-11.88 30.349-25.52 41.534-41.339 2.784-3.938 5.497-7.933 8.206-11.922 3.071-4.523-4.126-10.206-7.656-5.907-6.134 7.469-13.226 14.169-20.138 20.915-6.726 6.565-13.829 12.772-21.325 18.445-15.548 11.766-32.362 21.818-49.888 30.342-8.794 4.277-17.738 8.366-26.751 12.16 1.294-.545-1.359.556-1.728.708q-1.58.649-3.167 1.282a401 401 0 0 1-7.717 2.99 442 442 0 0 1-16.01 5.664c-21.482 7.148-43.478 12.771-65.597 17.559-21.992 4.761-44.182 8.451-66.3 12.552-22.786 4.226-45.615 8.214-68.396 12.464-44.426 8.287-88.807 17.981-131.442 33.187-39.033 13.92-76.919 32.332-110.089 57.361a344 344 0 0 0-12.171 9.622c-3.67 3.039 1.55 8.079 5.192 5.192Zm0 65.2c32.648-25.879 70.33-44.617 109.572-58.225 42.439-14.717 86.592-23.639 130.876-30.667 45.971-7.296 91.354-11.988 136.731-20.753 22.255-4.299 44.354-9.387 66.031-16.043 20.389-6.26 41.099-13.508 60.064-23.367 17.652-9.177 34.722-20.148 50.171-32.218 15.205-11.88 30.349-25.52 41.534-41.339 2.784-3.938 5.497-7.933 8.206-11.922 3.071-4.523-4.126-10.206-7.656-5.907-6.134 7.469-13.226 14.169-20.138 20.915-6.726 6.565-13.829 12.772-21.325 18.445-15.548 11.766-32.362 21.818-49.888 30.342-8.794 4.277-17.738 8.366-26.751 12.16 1.294-.545-1.359.556-1.728.708q-1.58.649-3.167 1.282a401 401 0 0 1-7.717 2.99 442 442 0 0 1-16.01 5.664c-21.482 7.148-43.478 12.771-65.597 17.559-21.992 4.761-44.182 8.451-66.3 12.552-22.786 4.226-45.615 8.214-68.396 12.464-44.426 8.287-88.807 17.981-131.442 33.187-39.033 13.92-76.919 32.332-110.089 57.361a344 344 0 0 0-12.171 9.622c-3.67 3.039 1.55 8.079 5.192 5.192Zm0 65.201c32.648-25.879 70.33-44.617 109.572-58.225 42.439-14.717 86.592-23.639 130.876-30.667 45.971-7.296 91.354-11.988 136.731-20.753 22.255-4.299 44.354-9.387 66.031-16.043 20.389-6.26 41.099-13.508 60.064-23.367 17.652-9.177 34.722-20.148 50.171-32.218 15.205-11.88 30.349-25.52 41.534-41.339 2.784-3.938 5.497-7.933 8.206-11.922 3.071-4.523-4.126-10.206-7.656-5.907-6.134 7.469-13.226 14.169-20.138 20.915-6.726 6.565-13.829 12.772-21.325 18.445-15.548 11.766-32.362 21.818-49.888 30.342-8.794 4.277-17.738 8.366-26.751 12.16 1.294-.545-1.359.556-1.728.708q-1.58.649-3.167 1.282a401 401 0 0 1-7.717 2.99 442 442 0 0 1-16.01 5.664c-21.482 7.148-43.478 12.771-65.597 17.559-21.992 4.761-44.182 8.451-66.3 12.552-22.786 4.226-45.615 8.214-68.396 12.464-44.426 8.287-88.807 17.981-131.442 33.187-39.033 13.92-76.919 32.332-110.089 57.361a344 344 0 0 0-12.171 9.622c-3.67 3.039 1.55 8.079 5.192 5.192Z"/><g fill="#55bfbf"><path d="M231.532 338.992c-76.38 43.17-137.689 113.442-167.114 196.096-29.424 82.654-25.979 177.101 12.243 256.073 65.696 135.737 220.66 210.576 367.546 175.039C568.243 936.191 670.8 844.468 699.471 714.357c33.586-152.416-52.665-318.552-187.366-384.652-108.138-53.065-248.825-29.774-334.092 55.309"/><path d="M229.224 335.043c-33.226 17.577-64.733 40.119-91.066 67.03-26.504 27.086-49.216 58.135-66.137 92.072-18.4 36.905-30.049 76.478-34.609 117.454-4.636 41.658-1.62 84.332 8.949 124.902 9.747 37.416 26.274 73.129 48.549 104.735 20.475 29.051 45.203 54.576 73.475 76.087 27.484 20.911 58.573 37.183 91.09 48.727 32.693 11.607 67.334 18.048 102.014 19.022 35.347.994 70.714-4.058 104.571-14.159 32.905-9.817 64.606-24.092 93.602-42.499 28.649-18.187 54.902-40.419 77.077-66.129 22.958-26.618 41.536-56.483 55.148-88.883 13.834-32.929 22.099-68.071 24.613-103.695 2.489-35.253-.94-70.972-9.226-105.301-8.274-34.281-21.606-67.483-39.02-98.138-17.305-30.463-38.836-58.742-63.858-83.28-24.677-24.2-52.977-45.066-83.853-60.663-32.663-16.5-68.022-26.319-104.404-29.874-35.725-3.491-72.188-.502-106.992 8.21s-68.22 23.334-97.771 43.52c-7.349 5.02-14.342 10.559-21.081 16.37-6.548 5.646-12.457 13.269-17.981 18.761-7.371 7.329 4.033 18.735 11.405 11.405 2.079-2.068 7.272-5.994 9.069-7.357 4.516-3.427 8.102-6.103 11.536-8.78-1.294 1.008.929-.705 1.294-.98a273 273 0 0 1 7.853-5.71c3.541-2.479 7.065-4.985 10.66-7.387 14.263-9.532 29.396-17.752 45.117-24.613.537-.234 3.168-1.359 1.365-.6q1.498-.63 3.003-1.241a305 305 0 0 1 18.29-6.768 307 307 0 0 1 25.01-7.187 310 310 0 0 1 28.301-5.471c.652-.095 3.402-.466 1.39-.205a309 309 0 0 1 19.431-1.937c17.298-1.176 34.702-.891 51.948.91q2.998.313 5.991.687c.307.038 2.25.284.92.112-1.227-.158.305.042.459.063q1.836.258 3.671.535 6.417.977 12.783 2.241a283 283 0 0 1 24.744 6.077 273 273 0 0 1 27.542 9.721c1.834.755-.877-.391.942.401a309 309 0 0 1 6.366 2.845 284 284 0 0 1 11.43 5.615c14.673 7.605 28.725 16.395 42.04 26.182a375 375 0 0 1 5.019 3.763c1.571 1.195-.819-.652.734.568q1.413 1.106 2.816 2.225a341 341 0 0 1 9.677 8.031 348 348 0 0 1 18.494 17.144 358 358 0 0 1 17.288 18.49 364 364 0 0 1 11.85 14.325c.371.473 2.07 2.679.88 1.122q1.106 1.442 2.199 2.894a372 372 0 0 1 27.556 42.341 376 376 0 0 1 16.95 34.396l.54 1.26c-.161-.374-.762-1.83.012.03q.527 1.265 1.047 2.534 1.298 3.172 2.535 6.368a364 364 0 0 1 14.992 48.404 351 351 0 0 1 5.804 30.962c.046.324.307 2.245.122.864-.171-1.281.029.235.051.413.152 1.208.305 2.416.447 3.625a337 337 0 0 1 1.257 12.724c1.343 16.874 1.409 33.85.117 50.73a314 314 0 0 1-1.243 12.798c-.126 1.066-.26 2.131-.393 3.196-.022.177-.225 1.704-.052.418.186-1.387-.079.549-.125.873a305 305 0 0 1-.973 6.377 314 314 0 0 1-5.269 25.483 325 325 0 0 1-11.451 36.549 314 314 0 0 1-4.047 10.133c.38-.909.428-1.004.011-.042-6.647 15.349-14.332 30.208-23.225 44.38a320 320 0 0 1-15.542 22.563c-.215.285-1.983 2.611-1.315 1.738.601-.786-.99 1.268-1.343 1.716q-1.09 1.383-2.195 2.754a325 325 0 0 1-7.907 9.439 333 333 0 0 1-34.568 34.265 338 338 0 0 1-9.477 7.823q-1.204.955-2.414 1.903c-1.554 1.22.889-.667-.685.529a348 348 0 0 1-25.642 17.834c-13.843 8.736-28.325 16.471-43.241 23.21a366 366 0 0 1-5.695 2.514c-.622.268-2.464 1.046-.825.359q-1.644.689-3.293 1.363a368 368 0 0 1-11.645 4.525c-7.847 2.896-15.792 5.527-23.817 7.886s-16.066 4.451-24.206 6.234a313 313 0 0 1-21.828 3.977c-.607.088-1.215.169-1.821.26-1.611.242 1.599-.199-.016.005-16.882 2.134-33.874 3.038-50.887 2.502a319 319 0 0 1-30.993-2.491c-.159-.02-1.647-.223-.43-.055 1.316.181-.568-.083-.873-.126a324 324 0 0 1-15.497-2.59 327 327 0 0 1-48.315-13.196 330 330 0 0 1-14.188-5.438q-.827-.34-1.652-.682c-.121-.05-1.489-.627-.438-.182s-.315-.136-.435-.188q-.821-.353-1.641-.709a332 332 0 0 1-25.31-12.32c-14.701-7.944-28.751-17.068-42.13-27.075q-1.255-.94-2.503-1.89c-1.507-1.144.691.553-.8-.615a329 329 0 0 1-14.874-12.322 328 328 0 0 1-17.969-17.042c-5.898-6.035-11.58-12.291-16.969-18.785a320 320 0 0 1-4.006-4.93c-.566-.711-1.126-1.426-1.689-2.139-.175-.222-1.127-1.454-.149-.185q-.555-.722-1.105-1.446a321 321 0 0 1-7.519-10.311 319.5 319.5 0 0 1-26.111-44.63c-8.371-17.414-15.05-36.042-20.055-55.488-5.153-20.021-8.096-38.624-9.407-58.762-2.656-40.813 1.869-79.978 13.528-118.964 10.55-35.278 26.81-67.895 48.074-98.701 20.446-29.621 45.848-56.87 73.912-79.91 13.652-11.208 28.146-21.373 43.25-30.53 5.049-3.061.585-10.651-4.617-7.899Z"/></g><g fill="#8170f9"><path d="M559.434 427.036c-32.093-17.537-108.277-4.152-161.824 5.194-69.207 12.079-137.237 39.235-194.026 80.878-15.552 11.404-31.308 26.014-33.236 45.202-1.66 16.527 8.86 33.526 24.392 39.414 12.137 4.601 25.915 2.69 38.006-2.028s22.946-12.052 34.144-18.615c22.944-13.448 47.555-23.77 72.082-34.051 29.739-12.466 59.862-25.041 91.757-29.792 44.81-6.674 90.295 2.454 135.581 3.782 12.92.379 26.788-.17 37.253-7.756 12.754-9.246 16.937-27.541 12.058-42.52s-17.405-26.596-31.65-33.321c-14.245-6.726-30.151-9.082-45.866-10.183"/><path d="M561.864 422.879c-10.75-6.045-23.31-8.17-35.438-9.281-15.042-1.378-30.25-.868-45.296.193-16.718 1.179-33.362 3.223-49.958 5.523-15.982 2.215-31.998 4.495-47.878 7.357-36.67 6.607-72.578 18.301-106.619 33.352-16.714 7.39-33.002 15.747-48.625 25.233-15.398 9.348-31.038 19.413-44.365 31.6-12.985 11.875-24.084 28.205-23.272 46.543.773 17.448 11.484 34.776 27.625 42.035 19.689 8.854 41.158 3.605 59.556-5.872 8.554-4.406 16.609-9.69 24.911-14.537 8.577-5.007 17.397-9.588 26.345-13.893a573 573 0 0 1 13.327-6.191 775 775 0 0 1 9.993-4.412l1.542-.668c.193-.084 2.751-1.204.789-.354 8.963-3.884 18.051-7.508 27.094-11.197 18.271-7.455 36.725-14.62 55.819-19.705a242 242 0 0 1 14.164-3.332 211 211 0 0 1 10.661-1.88c.555-.083 1.112-.158 1.667-.241 1.299-.194-1.796.209.248-.029a269 269 0 0 1 30.941-1.784c20.373-.006 40.674 1.972 60.946 3.771 10.238.908 20.48 1.776 30.746 2.299 8.954.456 18.003.903 26.928-.195 10.639-1.309 20.258-4.473 28.694-11.273 6.733-5.428 11.378-13.528 13.844-21.727 5.323-17.699-.255-36.704-12.331-50.232-12.036-13.484-29.554-21.465-47.022-24.993-4.892-.988-9.85-1.677-14.81-2.212-4.679-.505-9.342.118-13.985-.214-3.493-.25-6.834 3.251-6.68 6.68.172 3.833 2.938 6.413 6.68 6.68-.722-.052.562.179.557.178.507.123 1.042.192 1.556.29a230 230 0 0 1 3.501.692c1.25.258 2.485.548 3.751.718l1.031.138q-.915-.089-.082.024c.659.108 1.319.206 1.978.315 4.474.741 8.921 1.662 13.3 2.845a106 106 0 0 1 6.497 1.974 97 97 0 0 1 4.5 1.656q.558.22 1.113.45-1.062-.45-.223-.085c3.688 1.746 7.304 3.506 10.695 5.791q1.131.762 2.231 1.567c.25.183 1.438 1.069.43.306s.159.134.399.329a64 64 0 0 1 4.541 4.051 60 60 0 0 1 3.688 3.954c.483.567 1.057 1.777-.048-.164.205.361.567.739.808 1.063a54 54 0 0 1 1.721 2.463c1.041 1.583 1.983 3.228 2.887 4.892.425.783.826 1.585 1.21 2.389.18.375.335.885.561 1.218-.53-.784-.723-1.802-.151-.311a42.5 42.5 0 0 1 1.649 5.259q.292 1.214.508 2.445c.072.408.11.833.198 1.236-.173-.796-.281-2.37-.122-.632a42.3 42.3 0 0 1-.018 7.816c-.039.413-.111.832-.137 1.245l.209-1.613q-.096.616-.21 1.229a47 47 0 0 1-1.157 4.837q-.356 1.186-.787 2.347c-.132.355-.354.775-.448 1.15.662-2.626.525-1.239.08-.326a35 35 0 0 1-2.448 4.243c-.224.332-.503.658-.702 1.001 1.247-2.143 1.082-1.342.564-.73a38 38 0 0 1-2.048 2.271 31 31 0 0 1-1.8 1.673c-.31.266-.656.509-.953.785.193-.179 2.212-1.562.606-.522-.797.516-1.581 1.045-2.406 1.517-.966.552-2.28.926-3.145 1.598.2-.155 2.381-.896.621-.275-.444.157-.881.329-1.326.483q-1.339.462-2.705.836c-2.046.562-4.297.675-6.296 1.316.229-.073 2.639-.298.717-.098-.481.05-.96.108-1.441.155q-1.448.14-2.899.23c-2.183.135-4.371.191-6.558.196-9.44.023-18.888-.631-28.301-1.274-39.872-2.721-79.752-8.129-119.517-1.186-38.03 6.64-73.533 23.573-108.746 38.689-17.486 7.506-34.837 15.406-51.356 24.886-8.122 4.661-15.977 9.788-24.242 14.199a132 132 0 0 1-5.782 2.916c-.977.461-1.965.891-2.948 1.338-1.464.665 2.149-.811-.292.112-.617.233-1.229.482-1.848.712-4.166 1.549-8.469 2.745-12.856 3.466-.33.054-2.001.262-.641.108s-.314.019-.644.051q-1.55.15-3.107.21c-2.339.09-4.625-.075-6.954-.225-1.439-.093 1.715.329.303.042-.503-.102-1.013-.173-1.516-.273a40 40 0 0 1-3.372-.821c-.996-.289-1.964-.643-2.942-.984-1.438-.501.615.186.565.255-.04.055-1.347-.636-1.437-.682a36.4 36.4 0 0 1-4.627-2.773c-.339-.239-.674-.539-1.025-.75.216.129 1.715 1.447.49.341-.709-.64-1.435-1.253-2.12-1.92s-1.344-1.357-1.979-2.071c-.282-.318-.552-.645-.831-.966-.897-1.034-.048.386.342.483-.426-.106-1.214-1.691-1.473-2.082a40.4 40.4 0 0 1-2.82-4.994c-.176-.37-.321-.815-.529-1.16.124.205.813 2.156.265.572-.626-1.81-1.228-3.604-1.643-5.479-.179-.808-.22-1.711-.464-2.498.065.209.233 2.429.108.718-.031-.423-.078-.843-.107-1.266-.129-1.915-.065-3.812.084-5.722.102-1.303-.381-.137-.096.562-.077-.188.207-1.24.226-1.341q.247-1.328.584-2.635a41 41 0 0 1 1.187-3.84c.224-.617.576-2.554.003-.156.386-1.613 1.588-3.377 2.399-4.803a58 58 0 0 1 3.301-5.134c.176-.245.771-.874.81-1.103-.031.179-1.406 1.751-.256.336a97 97 0 0 1 1.767-2.128 87 87 0 0 1 4.276-4.598c2.818-2.825 5.808-5.475 8.897-8 .725-.592 1.459-1.172 2.189-1.758 1.358-1.088-.06.094-.298.22.369-.195.763-.585 1.107-.845a293 293 0 0 1 5.344-3.939 413 413 0 0 1 10.794-7.541c14.682-9.912 30.006-18.922 45.736-27.066a457 457 0 0 1 29.874-14.12c.509-.219 3.129-1.321 1.432-.614q1.618-.677 3.24-1.346a476 476 0 0 1 12.325-4.866 487 487 0 0 1 50.776-16.103c15.975-4.123 32.149-7.34 48.346-10.449 15.286-2.935 30.602-5.738 45.997-8.051a723 723 0 0 1 8.641-1.242c.124-.017 1.537-.207.866-.118l1.561-.204c3.886-.504 7.777-.968 11.674-1.383 7.496-.798 15.011-1.415 22.544-1.723 6.915-.282 13.847-.323 20.759.06 3.245.18 6.485.458 9.71.861.13.016 1.026.139.201.025q.525.074 1.048.152 1.034.154 2.063.33c1.497.255 2.989.543 4.472.872a71 71 0 0 1 7.327 2.019q1.69.568 3.341 1.246c-.935-.386.812.373 1.006.464q.856.404 1.696.842c5.48 2.839 10.292-5.26 4.86-8.315Z"/></g><g fill="#edc851"><path d="M458.302 566.054c-61.426 11.735-121.15 33.65-174.148 66.848-11.666 7.308-23.538 15.778-29.193 28.329s-2.332 30.124 10.272 35.66c6.315 2.774 13.569 2.093 20.367.925 31.469-5.402 60.502-19.882 90.07-31.932 55.95-22.801 117.108-37.379 176.8-28.045 11.654 1.822 23.412 4.552 35.117 3.095s23.681-8.253 27.189-19.515c2.334-7.495.522-15.865-3.573-22.562s-10.27-11.893-16.878-16.131c-23.402-15.009-52.22-18.822-80.016-19.385-51.335-1.039-102.852 7.822-150.888 25.955"/><path d="M457.23 562.166c-30.926 4.765-61.577 11.839-91.054 22.404-29.825 10.69-58.753 24.069-85.944 40.351-12.661 7.581-25.625 16.609-32.461 30.155-6.087 12.061-6.715 28.046 1.226 39.523 4.403 6.364 10.804 11.153 18.525 12.626 8.939 1.705 17.89.157 26.687-1.682 15.717-3.285 30.891-8.699 45.753-14.7 8.016-3.237 15.964-6.641 23.92-10.021l2.745-1.165c.468-.198 3.586-1.531 1.134-.481 1.825-.781 3.661-1.539 5.494-2.3a621 621 0 0 1 11.371-4.597c15.114-5.925 30.498-11.185 46.143-15.529 15.502-4.304 31.242-7.649 47.173-9.898 2.208-.312-1.641.207-.203.028.548-.068 1.094-.141 1.642-.21q1.314-.164 2.629-.317 3.12-.363 6.248-.66 6.083-.579 12.186-.9a274 274 0 0 1 23.738-.206q6.103.209 12.188.719a238 238 0 0 1 8.55.874c.548.066 1.095.137 1.643.204 1.951.237-1.979-.29.132.016 8.807 1.274 17.55 3.063 26.418 3.892 15.278 1.429 32.573-1.619 43.165-13.755 5.59-6.404 8.897-14.514 8.455-23.111-.255-4.959-1.396-9.64-3.502-14.128a32.4 32.4 0 0 0-2.553-4.46 33 33 0 0 0-.86-1.209l-.656-.849q-1.273-1.658-.076-.08c-.951-.872-1.936-2.616-2.693-3.568-4.792-6.029-11.088-10.84-17.563-14.935-6.731-4.257-14.001-7.614-21.451-10.404-14.58-5.459-30.212-7.763-45.676-8.914-15.887-1.182-31.908-1.057-47.804-.124a405 405 0 0 0-24.217 2.152 497 497 0 0 0-13.855 1.852c-4.091.605-8.304 1.081-12.325 2.06-7.957 1.937-15.827 4.433-23.601 6.996s-15.814 4.501-23.636 7.032c-7.62 2.465-15.11 5.244-22.603 8.065-3.231 1.217-5.795 4.525-4.624 8.144 1.022 3.158 4.674 5.93 8.144 4.624 7.469-2.812 15.106-5.244 22.752-7.522a400 400 0 0 1 16.937-4.645q1.474-.37 2.952-.729c.436-.106.883-.195 1.314-.317q-1.372.077.371-.109a27 27 0 0 0 1.634-.241c1.79-.28 3.577-.58 5.368-.852a433 433 0 0 1 5.629-.817c-1.133.157.288-.038.561-.073l1.653-.213a390 390 0 0 1 8.619-.995c4.63-.483 9.201-1.429 13.798-2.15a417 417 0 0 1 7.454-1.1c-1.379.192.097-.012.439-.057q.837-.11 1.676-.215a404 404 0 0 1 47.837-3.182c7.482-.052 14.971.081 22.442.519 3.703.217 7.401.511 11.09.901q1.229.13 2.456.274c.535.063 2.056-.018 2.451.304l-1.202-.162q.459.062.917.128l1.221.177q1.524.226 3.045.48c7.139 1.188 14.235 2.824 21.149 4.964 3.387 1.049 6.706 2.27 9.993 3.597 1.119.451-1.52-.671-.419-.173.462.209.929.407 1.391.616q1.11.501 2.207 1.028a99 99 0 0 1 4.878 2.508c3.15 1.733 6.22 3.627 9.117 5.758.3.221.626.532.945.708-.206-.113-1.446-1.177-.31-.221.602.507 1.215 1.001 1.804 1.524a47 47 0 0 1 3.755 3.722q.49.545.961 1.106c.188.224 1.04 1.183.27.298-.878-1.009.324.444.404.567.225.344.386.648.587 1.014.385.697.771 1.391 1.12 2.107.107.22.477.814.513 1.103q-.645-1.563-.292-.665.167.421.317.848c.574 1.613 1.097 3.263 1.476 4.933q.134.59.244 1.186c.345 1.876.031-.278-.012-.281.116.007.151 2.484.152 2.696.004.803-.276 1.907-.128 2.692-.039-.208.397-2.18.069-.614-.082.391-.152.784-.245 1.173a23 23 0 0 1-.649 2.224c-.088.252-.69 1.876-.101.336.556-1.454-.013-.039-.18.288a23 23 0 0 1-1.679 2.782c-.557.795-1.099.735.374-.452-1.135.915-2.022 2.266-3.137 3.248-.254.223-.515.437-.773.656-1.126.956.554-.444.66-.504-.657.368-1.261.894-1.899 1.298a38 38 0 0 1-4.075 2.24c-.386.183-.816.325-1.185.537.119-.069 2.187-.84.768-.345-.657.229-1.305.482-1.967.697-1.485.483-3 .88-4.531 1.188-.446.09-3.105.499-1.31.259 1.672-.223.115-.026-.306.017a55 55 0 0 1-1.722.148 62 62 0 0 1-6.204.101 83 83 0 0 1-5.517-.369c-1.036-.102-2.068-.233-3.103-.351-1.468-.168 2.354.356.072.008-.573-.088-1.148-.168-1.721-.256-8.587-1.317-17.104-2.918-25.741-3.913-31.531-3.632-63.581-.665-94.513 6.029-31.269 6.767-61.188 17.812-90.562 30.322-3.659 1.558-7.313 3.126-10.973 4.682l-2.441 1.036c-.441.187-1.643.664.387-.162-.409.167-.815.343-1.222.514a798 798 0 0 1-5.506 2.29c-7.232 2.975-14.517 5.827-21.908 8.387s-14.823 4.805-22.404 6.592c-3.726.878-7.481 1.65-11.259 2.27-.519.085-1.04.162-1.559.244-1.321.208.249.26.568-.077-.292.309-2.064.214-2.524.249-1.88.14-3.773.177-5.654.036.095.007-1.235-.085-1.239-.118.004.034 2.231.378.308-.012a23 23 0 0 1-2.691-.713c-.372-.124-.796-.352-1.168-.429.133.028 1.947.957.805.305-.644-.368-1.304-.694-1.927-1.099-.245-.16-.48-.334-.724-.495-1.202-.797.869.647.827.641-.359-.052-1.035-.915-1.288-1.164-.465-.459-.871-.963-1.32-1.435-.792-.832 1.425 2.022.504.663-.204-.301-.418-.594-.616-.899-.687-1.053-1.159-2.202-1.788-3.279 1.383 2.371.415 1.023.1.127a28.4 28.4 0 0 1-1.114-4.144c-.057-.299-.097-.602-.159-.899-.231-1.117.213 2.221.139 1.081-.095-1.464-.238-2.901-.207-4.373q.02-.926.09-1.849c.024-.308.061-.614.085-.922.115-1.485-.152 1.058-.152 1.064-.095-1.288.584-3.05.947-4.271q.293-.988.653-1.953c.099-.265.193-.611.333-.848-.055.093-1.082 2.314-.33.842.768-1.503 1.518-2.993 2.417-4.425a45 45 0 0 1 1.235-1.857c.267-.38.548-.75.819-1.128.691-.963-1.172 1.439-.407.532 1.146-1.358 2.292-2.701 3.536-3.973 2.251-2.3 4.69-4.386 7.202-6.393.371-.296.749-.585 1.113-.891.912-.767-1.443 1.09-.487.372.688-.517 1.375-1.037 2.07-1.544a154 154 0 0 1 4.22-2.966c2.938-1.998 5.927-3.923 8.928-5.824a458 458 0 0 1 19.555-11.711 478 478 0 0 1 40.347-20.346 480 480 0 0 1 8.518-3.711c1.582-.675-.827.342.628-.264a554 554 0 0 1 10.739-4.352c6.993-2.743 14.054-5.311 21.113-7.876a543 543 0 0 1 43.235-13.676 570 570 0 0 1 21.477-5.372c2.123-.488 3.376-2.925 2.816-4.96-.632-2.3-2.8-3.149-4.96-2.816Z"/></g><path d="M439.793 697.799a259.2 259.2 0 0 0-75.087 30.978c-9.959 6.092-19.848 13.235-25.398 23.506-4.286 7.932-5.608 17.625-2.662 26.146s10.419 15.559 19.305 17.089c4.635.798 9.397.145 14.001-.82 37.156-7.788 68.487-35.335 106.178-39.868 18.527-2.228 37.186 1.32 55.743 3.28s38.158 2.15 54.868-6.156c4.642-2.307 9.21-5.517 11.181-10.312 1.445-3.514 1.318-7.487.632-11.225-3.588-19.543-21.569-33.911-40.723-39.194s-39.473-3.217-59.217-.995c-22.955 2.584-46.019 5.35-68.185 11.85-22.166 6.499-43.583 16.959-60.052 33.157"/><path d="M438.513 693.156a320 320 0 0 0-27.405 6.684 258 258 0 0 0-16.587 5.457c-.516.189-1.029.385-1.546.573-.293.107-.595.204-.886.315l-1.768.746.897-.379c-2.679.983-5.293 2.208-7.905 3.359-8.536 3.765-16.895 7.97-24.962 12.66-7.796 4.532-15.583 9.799-21.518 16.667-7.047 8.154-11.324 18.579-11.368 29.43-.041 10.159 3.937 20.331 11.378 27.346a34 34 0 0 0 13.288 7.782c5.739 1.786 11.676 1.474 17.523.556 8.527-1.338 16.881-4.283 24.832-7.571 16.235-6.714 31.72-15.002 47.717-22.229a271 271 0 0 1 5.844-2.558l-2.012.849c9.929-4.181 20.463-7.327 31.144-8.808l-2.41.324c20.325-2.727 40.749 1.56 60.93 3.604 19.723 1.998 40.311 1.393 58.35-7.715 4.906-2.477 9.076-5.875 12.386-10.252 3.49-4.615 4.941-10.926 4.288-16.631-1.047-9.152-4.485-17.798-9.988-25.203-5.408-7.276-12.054-13.314-19.855-17.973-7.605-4.543-16.11-7.688-24.793-9.389-20.372-3.992-41.061-1.633-61.467.779-3.125.369-6.3.829-9.389 1.447l2.4-.322c-9.462 1.112-18.942 2.083-28.308 3.866-8.795 1.674-17.555 3.404-26.191 5.793-4.503 1.246-8.924 2.584-13.213 4.451a175 175 0 0 0-10.414 4.966c-3.506 1.808-7.148 3.345-10.631 5.218a146 146 0 0 0-10.009 5.882c-4.017 2.592-7.84 5.464-11.523 8.511-1.675 1.386-3.351 2.799-4.905 4.318-.779.762-1.5 1.595-2.228 2.406q-.585.653-1.161 1.315-.218.247-.43.499-.342.39-.644.815-.966 1.286-.068.023c-2.365 2.317-2.497 6.644 0 8.937 2.544 2.335 6.413 2.472 8.937 0-1.504 1.473.672-.544 1.205-.965 1.325-1.046-.82.604.223-.176.691-.516 1.38-1.033 2.078-1.539.715-.519 1.398-1.078 2.112-1.598-1.902 1.386.371-.291 1.031-.818 1.101-.879-1.28.97.126-.097q.52-.394 1.044-.783c2.979-2.206 6.077-4.237 9.212-6.212 6.322-3.982 12.977-7.373 19.853-10.29l-1.894.799c3.984-1.677 8.094-2.897 12.269-4.016 4.256-1.141 8.444-2.465 12.684-3.664 9.563-2.706 19.33-4.854 29.159-6.327 5.546-.831 11.08-1.742 16.635-2.521l-2.432.327c3.131-.42 6.255-.887 9.384-1.323l-2.4.323c2.647-.331 5.335-.338 7.988-.643q3.725-.429 7.451-.847c5.085-.569 10.174-1.11 15.276-1.504 10.14-.784 20.357-.978 30.46.361l-2.472-.332c6.801.936 13.487 2.552 19.825 5.216l-2.219-.936c5.077 2.168 9.873 4.927 14.256 8.287l-1.878-1.451c3.691 2.867 7.038 6.134 9.904 9.83l-1.45-1.876c2.129 2.79 3.888 5.735 5.253 8.97l-.948-2.246a41.7 41.7 0 0 1 2.703 9.793l-.346-2.578c.327 2.434.37 4.845.056 7.283l.352-2.623a16.6 16.6 0 0 1-.928 3.495l.994-2.355a16 16 0 0 1-1.977 3.392l1.54-1.993c-1.077 1.356-2.318 2.53-3.684 3.592l1.99-1.537c-2.7 2.032-5.716 3.56-8.811 4.893l2.342-.988c-5.884 2.481-12.077 4.036-18.394 4.918l2.593-.348c-16.433 2.207-32.912-.081-49.245-2.023-8.756-1.041-17.527-1.987-26.357-1.857-8.684.128-17.406 1.189-25.836 3.301-8.579 2.15-16.755 5.429-24.854 8.939l2.013-.849c-15.796 6.624-30.758 15.001-46.44 21.867l1.984-.837c-5.185 1.902-10.267 3.985-15.558 5.598-5.448 1.661-11.021 3.034-16.667 3.817l2.425-.326c-3.006.389-6.013.53-9.029.165l2.482.334a24 24 0 0 1-5.825-1.575l2.265.956c-2.223-.958-4.217-2.24-6.129-3.716l1.949 1.505a28.4 28.4 0 0 1-4.556-4.587l1.504 1.947a28.4 28.4 0 0 1-3.65-6.248l.969 2.296a29.6 29.6 0 0 1-1.863-7.002l.343 2.553a33.6 33.6 0 0 1 .003-8.375l-.343 2.55a37 37 0 0 1 2.421-8.99l-.966 2.289c1.568-3.701 3.751-7.079 6.201-10.253l-1.479 1.915c3.349-4.26 7.34-7.925 11.608-11.245l-1.801 1.392c1.281-.987 2.604-1.913 3.854-2.94l-1.783 1.378c9.199-6.746 19.123-12.606 29.23-17.877 5.088-2.654 10.218-5.254 15.415-7.689a256 256 0 0 1 7.941-3.557q.432-.186.865-.368c-1.254.521-.426.18-.158.069.735-.302 1.468-.608 2.204-.907a258 258 0 0 1 3.986-1.581c6.205-2.403 12.533-4.421 18.94-6.218 2.424-.68 4.166-3.44 3.363-5.923-.852-2.631-3.271-3.888-5.923-3.363ZM255.3 696.305c-1.173-.643-2.467-1.398-3.328-2.453-1.148-1.406-1.481-2.731-2.241-4.2-.409-.791-.95-2.457-1.258-3.783-.094-.406-.164-.816-.253-1.222-.029-.13-.156-.976-.046-.165a24 24 0 0 1-.19-2.987c-.005-.675.028-1.347.059-2.021-.068 1.434.176-1.993.23-2.532-.117 1.177-.009.066.054-.234.085-.409.156-.821.25-1.229q.28-1.22.677-2.409.273-.817.595-1.615c-.101.249-.407.865.108-.224.429-.907.88-1.799 1.375-2.672q.67-1.18 1.421-2.312a42 42 0 0 1 .856-1.249c.044-.061 1.227-1.608.438-.618 5.001-6.273 11.185-11.478 17.445-16.44.491-.389.985-.773 1.476-1.162.23-.182 1.116-.867-.027.016.406-.314 4.205-3.162 2.469-1.881 1.663-1.228 3.317-2.468 4.997-3.674a281 281 0 0 1 10.22-7.002 381 381 0 0 1 42.324-23.934 357 357 0 0 1 13.853-6.339c.549-.237 3.621-1.591 1.352-.585 1.898-.841 3.839-1.596 5.765-2.368a410 410 0 0 1 22.889-8.388c31.458-10.498 64.055-17.451 96.838-22.259q2.796-.41 5.596-.799c1.035-.144 2.071-.296 3.108-.426-2.202.276-.96.129-.477.066l1.864-.245c4.208-.547 8.42-1.065 12.638-1.529 8.495-.935 17.018-1.652 25.56-1.956 8.493-.302 17.009-.198 25.477.55 1.91.169 3.812.389 5.716.607 2.112.242-1.474-.22-.119-.021.524.077 1.049.149 1.574.228q1.727.261 3.446.564a127 127 0 0 1 12.015 2.711c4.053 1.129 8.013 2.511 11.924 4.059 1.467.581-.11-.072-.34-.151.493.168.972.422 1.448.635q1.301.582 2.586 1.201a97 97 0 0 1 5.923 3.109c3.314 1.888 6.455 4.038 9.536 6.282.117.086 1.685 1.214.533.381s.397.324.514.419a62 62 0 0 1 2.225 1.899 55 55 0 0 1 4.113 4.089c.578.642 1.114 1.317 1.682 1.967.794.91-1.138-1.577-.021-.035.226.311.454.62.675.935 1.157 1.647 2.155 3.389 3.178 5.121a39 39 0 0 1 1.235 2.257c.229.454.632 1.049.736 1.547-.036-.171-.587-1.521-.126-.285.607 1.628 1.098 3.233 1.415 4.945.009.05.312 1.711.127.666-.184-1.039.057.627.062.691a34 34 0 0 1 .047 4.912c-.027.427-.073.852-.105 1.278-.095 1.297.198-.938-.063.471-.28 1.513-.607 3.006-1.08 4.472-.155.481-.334.951-.501 1.428-.056.159-.399.945-.032.11a27 27 0 0 1-1.249 2.474c-1.415 2.479-3.177 4.617-5.447 6.279-1.912 1.4-2.862 3.813-1.576 6.011 1.264 2.161 3.881 2.641 6.011 1.576 7.191-3.594 12.028-10.326 14.649-17.782 1.261-3.588 1.876-7.439 2.052-11.23.08-1.718.053-3.442-.124-5.153l-.24-1.788q.236 1.413.089.269c-.055-.78-.201-1.57-.312-2.344a35 35 0 0 0-.579-3.107c-2.051-8.721-7.491-16.437-13.763-22.686s-13.89-11.059-21.909-14.809c-33.491-15.662-71.352-13.685-107.114-9.196-35.142 4.412-70.068 10.876-103.933 21.389-16.936 5.257-33.554 11.534-49.697 18.88-15.542 7.072-30.6 15.159-44.582 24.983a306 306 0 0 0-21.515 16.575c-6.497 5.487-13.082 11.176-18.487 17.772-5.734 6.997-10.104 15.181-10.94 24.303a29 29 0 0 0-.112 2.516c-.005.879.091 1.594.205 2.501-.028-.226-.138-1.079-.003.032.26 2.146.644 4.257 1.334 6.31.602 1.79 1.349 3.563 2.267 5.215q.592 1.07 1.3 2.067c.673.948 1.7 2.17 2.257 2.645 2.627 2.24 5.498 4.191 8.71 5.478 3.125 1.252 5.158-3.808 2.272-5.39Z"/><path d="M200.792 604.249c-2.163-.576-4.13-1.496-6.223-2.194-1.963-.655-3.839-1.396-5.673-2.361a39 39 0 0 1-10.115-7.646c-5.709-5.98-9.74-14.107-9.695-22.231.051-9.356 2.624-17.34 7.556-25.317 5.124-8.289 11.277-15.104 18.936-21.898 7.562-6.708 15.226-12.134 24.27-17.931 8.795-5.638 17.804-10.954 27.074-15.773a339 339 0 0 1 13.927-6.832 364 364 0 0 1 7.272-3.271 397 397 0 0 1 3.666-1.58c-.329.14-1.37.571.179-.074q1.106-.46 2.213-.917c9.882-4.06 19.921-7.735 30.055-11.115 20.104-6.706 40.551-12.111 61.164-17.001 23.394-5.549 46.929-10.756 70.638-14.787a597 597 0 0 1 19.749-3.027c-2.092.283-.073.013.451-.055q2.02-.261 4.042-.508 4.714-.573 9.438-1.055c11.818-1.205 23.683-1.966 35.562-2.158 12.015-.194 24.044.192 36.012 1.282q4.277.389 8.54.898c.749.089 1.497.185 2.246.277 2.109.258.149.008-.236-.039 1.638.2 3.274.462 4.904.719 1.566.246 3.126.517 4.698.729 1.011.136 2.058.22 3.064.397-2.437-.428-.905-.126-.368-.045 3.017.458 5.925 1.231 8.871 2.02 5.191 1.39 10.255 3.025 15.251 5.01 1.576.626-2.367-1.079.072.047.497.23.997.45 1.493.682q1.86.87 3.679 1.825a79 79 0 0 1 6.619 3.883 75 75 0 0 1 2.938 2.032c.173.126 2.11 1.5.612.442s.419.332.592.47a71 71 0 0 1 5.371 4.727 64 64 0 0 1 4.813 5.242c.298.363.576.756.887 1.106-1.744-1.967-.605-.748-.182-.176a83 83 0 0 0 2.313 2.986c1.531 1.886-1.327-1.91.076.113 1.274 1.837 2.516 3.672 3.601 5.63.145.262.897 1.294.821 1.54l-.35-1.014.957 2.268c-1.087-2.187-.081-.101.087.36q.363.996.682 2.008c.643 2.043 1.073 4.102 1.479 6.2.256 1.321-.1-2.238-.042-.106.012.432.058.868.078 1.3a43 43 0 0 1-.002 3.907c-.044.977-.154 1.945-.231 2.919-.108 1.357.383-2.148-.003-.035-.078.428-.148.858-.231 1.285a44 44 0 0 1-1.82 6.567c-.184.506-.385 1.004-.579 1.506.658-1.702.256-.59.072-.226-.484.959-.939 1.928-1.466 2.865a38 38 0 0 1-1.682 2.72c-.239.352-.491.693-.732 1.043-.916 1.328.863-.997-.5.595-2.863 3.345-6.615 6.057-9.026 9.773l2.31-2.31-.574.297c-3.089 1.595-4 5.921-2.31 8.811 1.834 3.135 5.71 3.912 8.811 2.31l.574-.297-3.25.879c5.702.008 10.993-3.785 14.747-7.732 3.403-3.578 6.313-7.765 8.376-12.256 4.583-9.979 5.963-20.637 4.418-31.486-.689-4.841-2.03-9.613-3.877-14.139-1.126-2.758-2.291-5.543-3.777-8.132-1.611-2.806-3.792-5.412-5.858-7.88-6.946-8.297-15.952-14.892-25.678-19.567a120 120 0 0 0-17.919-6.929c-5.43-1.607-10.982-2.604-16.494-3.864-6.436-1.471-13.111-2.116-19.671-2.792a313 313 0 0 0-18.888-1.361c-25.9-1.093-51.773 1.01-77.399 4.701-24.879 3.584-49.473 8.857-73.812 15.092-22.318 5.718-44.547 11.887-66.508 18.862-21.8 6.925-43.288 15.043-63.855 25.086-20.223 9.875-39.068 21.84-56.285 36.359-16.562 13.966-31.694 32.239-33.962 54.547-2.008 19.749 10.107 39.641 28.479 47.469 2.077.885 4.222 1.724 6.429 2.232 2.273.524 4.935.441 7.265.36 3.525-.122 4.417-5.315.848-6.266Z"/><path fill="#8170f9" d="M116.827 823.811c8.778-18.034 19.167-35.391 30.823-51.712 1.632-2.285 3.247-4.551 4.768-6.911a349 349 0 0 1 2.225-3.407c.888-1.341 1.399-2.885 2.012-4.367.922-2.23-2.239-4.583-4.155-3.194-1.034.749-2.223 1.46-3.135 2.35-.961.938-1.809 2.035-2.692 3.047-1.784 2.045-3.479 4.123-5.064 6.328a333 333 0 0 0-8.606 12.575c-5.47 8.397-10.451 17.069-15.023 25.986a337 337 0 0 0-7.493 15.599c-.812 1.807-.521 3.948 1.317 5.023 1.613.943 4.152.473 5.023-1.317m28.888 49.587c2.648-5.371 5.498-10.633 8.5-15.814s5.927-10.435 9.068-15.55c6.217-10.125 13.049-19.839 20.255-29.283l.813-1.06c-.695.907.206-.264.277-.355a319 319 0 0 1 7.836-9.66c1.314-1.556 2.893-3.095 3.841-4.904 1.032-1.968.922-4.669-.807-6.257-1.561-1.433-4.394-2.2-6.257-.807-2.724 2.035-4.718 4.911-6.814 7.563a361 361 0 0 0-5.97 7.76c-3.637 4.865-7.093 9.849-10.382 14.955s-6.432 10.308-9.421 15.597-5.974 10.63-8.476 16.157c-2.875 6.351-5.538 12.799-8.072 19.293-1.259 3.226 4.078 5.473 5.61 2.365Zm48.989 12.262a217 217 0 0 1 3.671-9.422c.315-.756-.398.925.141-.336q.42-.983.848-1.964a212 212 0 0 1 9.994-19.9c1.486-2.608 2.997-5.216 4.639-7.73s3.434-4.95 5.085-7.467 3.351-4.993 5.104-7.435l.502-.697c.84-1.177-.826.875.155-.172.483-.516.941-1.064 1.401-1.6 1.173-1.366 2.202-2.856 3.285-4.294.429-.569.844-1.155 1.297-1.706-1.033 1.255.377-.48.645-.82a214 214 0 0 1 2.969-3.681c2.548-3.088 6.816-6.592 5.522-11.017-.893-3.053-4.041-4.377-6.966-3.452-2.282.722-3.692 2.459-5.22 4.173a211 211 0 0 0-5.71 6.684c-2.084 2.545-4.243 5.09-5.961 7.898-1.565 2.559-3.368 4.967-5.028 7.467-3.287 4.95-6.065 10.212-8.812 15.477a219.7 219.7 0 0 0-15.455 37.817c-.621 2.049.741 4.552 2.858 5.034 2.307.525 4.25-.701 5.034-2.858Zm71.28-23.42a80.5 80.5 0 0 1 4.864-9.049c.879-1.408 1.822-2.771 2.691-4.184.464-.755.934-1.477 1.297-2.287q.538-1.2 1.113-2.381c.761-1.568.749-3.62-.631-4.886-1.226-1.126-3.421-1.708-4.886-.631-1.622 1.193-3.251 2.345-4.568 3.873-1.371 1.59-2.587 3.284-3.735 5.039a80 80 0 0 0-5.187 9.221c-.618 1.288-.919 2.615-.528 4.035.334 1.215 1.274 2.531 2.406 3.129 2.303 1.217 5.944.779 7.164-1.878Z"/><path fill="#8170f9" d="M110.188 746.239c9.358 8.306 18.886 16.357 28.683 24.141 9.942 7.9 20.015 15.637 30.216 23.201a1110 1110 0 0 0 30.355 21.73c9.664 6.675 19.401 13.294 29.669 19.017 5.946 3.314 12.071 6.277 18.388 8.816a114 114 0 0 0 9.118 3.235c1.55.475 3.116.834 4.704 1.158 1.013.206 2.109.496 3.142.537 1.101.043 2.066-.251 3.105-.58 2.372-.751 3.693-4.105 1.567-5.935-.633-.544-1.297-1.249-2.013-1.668-.823-.482-1.837-.692-2.744-.953-1.412-.407-2.804-.876-4.213-1.289-2.674-.783-5.325-1.621-7.942-2.579-5.29-1.936-9.597-3.888-15.022-6.681-10.294-5.299-20.035-11.592-29.652-18.018a1111 1111 0 0 1-60.204-43.197c-10.782-8.295-21.798-16.955-32.559-25.531-1.371-1.093-3.257-1.339-4.596 0-1.186 1.186-1.318 3.426 0 4.596Zm-5.01 57.723a313.4 313.4 0 0 0 42.261 41.793c15.569 12.714 32.245 23.924 50.009 33.339a312 312 0 0 0 14.908 7.399c5.272 2.443 10.584 5.03 16.221 6.496 4.069 1.058 6.797-4.85 2.922-6.93-2.4-1.288-4.841-2.393-7.361-3.423q-.77-.315-1.539-.634l-.768-.32c-1.234-.512.38.163-.348-.145a311 311 0 0 1-16.848-7.738c-8.839-4.383-17.405-9.235-25.84-14.348a311 311 0 0 1-47.06-34.972 312 312 0 0 1-23.494-23.581c-1.88-2.1-4.829.952-3.064 3.064Zm66.051-50.457 22.496 15.492c3.68 2.535 7.351 5.078 11.087 7.53l5.804 3.81c.96.63 1.9 1.351 2.929 1.859 1.1.543 2.296.937 3.435 1.392 2.626 1.051 4.403-2.74 2.635-4.527-.795-.803-1.558-1.661-2.426-2.387-.975-.816-2.1-1.475-3.157-2.182l-5.774-3.861c-3.71-2.481-7.479-4.866-11.243-7.264l-22.991-14.644c-1.261-.803-3.054-.262-3.788.993-.803 1.373-.242 2.937.993 3.788Zm19.633-44.375c2.172 0 4.253-1.91 4.153-4.153s-1.825-4.153-4.153-4.153c-2.172 0-4.253 1.91-4.153 4.153s1.825 4.153 4.153 4.153m84.377-.862c9.439-.157 18.882-.303 28.26-1.506a172.7 172.7 0 0 0 28.29-6.052c18.892-5.728 36.891-13.76 54.992-21.561 4.442-1.914 8.884-3.822 13.312-5.768q3.312-1.457 6.638-2.878c.535-.228 1.074-.447 1.606-.683-1.78.788-.07.031.346-.143q1.721-.72 3.449-1.426c9.013-3.685 18.154-7.078 27.48-9.889 4.56-1.375 9.164-2.61 13.808-3.669a182 182 0 0 1 7.242-1.499c2.729-.506 5.694-1.305 8.472-1.369-1.802.042.209-.025.675-.083q1.026-.128 2.053-.246 2.347-.27 4.701-.487c2.845-.264 5.694-.473 8.547-.636 5.717-.325 11.443-.452 17.168-.479 5.841-.028 11.681.084 17.519.276q4.308.144 8.613.336c4.305.192 5.749-.219 8.605-.394 5.756-.355 11.611.116 17.375.275l17.813.492c1.408.039 2.818.098 4.227.117 1.721.024 3.458-.368 5.157-.634 1.908-.298 3.485-2.614 3.402-4.469-.091-2.04-1.373-3.917-3.402-4.469-5.942-1.616-12.314-1.647-18.441-2.147l-17.511-1.43-4.174-.341c-.362-.029-2.194-.183-.971-.033-.769-.094-1.535-.259-2.3-.387-3.34-.561-6.69-1.244-10.076-1.406-5.739-.274-11.482-.497-17.227-.612-22.715-.456-45.563 1.132-67.576 7.039-9.23 2.477-18.279 5.593-27.178 9.066-9.536 3.721-19.022 7.712-28.284 12.074-17.413 8.201-34.599 16.862-52.286 24.471q-.785.337-1.571.671c.992-.422-.394.164-.704.293q-1.702.708-3.414 1.395a263 263 0 0 1-6.857 2.642c-4.415 1.629-8.844 3.254-13.305 4.75-8.923 2.993-18.078 5.332-27.393 6.713-2.32.344-4.733.314-7.075.353-2.399.04-2.406 3.771 0 3.731Z"/><path fill="#edc851" d="M354.678 759.443c-.234 1.016-.445 2.095-.457 3.139-.013 1.06.237 2.207.494 3.239a19.4 19.4 0 0 0 2.302 5.439c1.024 1.656 2.308 3.3 3.832 4.528.965.777 2.199 1.606 3.409 1.939.991.272 2.181.288 3.211.259 2.157-.061 3.524-2.836 1.83-4.418-.558-.521-1.023-1.102-1.53-1.668-.299-.333-.689-.571-1.047-.835-.518-.381.46.387.129.097-.298-.261-.597-.527-.904-.778l-.754-.583q.65.51.32.246c-.14-.117-.284-.231-.422-.35a16 16 0 0 1-1.703-1.699c-.119-.138-.232-.281-.35-.419-.215-.252.493.672.023.022a16.5 16.5 0 0 1-1.51-2.539l-.093-.197q-.177-.4-.005.005.112.272.002 0l-.079-.205a15 15 0 0 1-.221-.619c-.255-.763-.387-1.548-.596-2.321-.206-.761-.419-1.5-.541-2.282-.177-1.14-1.562-2.082-2.67-2.032-1.185.053-2.389.815-2.67 2.032m17.195-21.546c.52 6.631 2.514 12.935 6.202 18.49 3.623 5.457 8.547 10.674 14.576 13.415 3.073 1.397 5.554-2.654 2.673-4.573-4.876-3.248-9.45-6.793-12.888-11.608s-6.103-10.35-7.37-16.156c-.385-1.765-3.336-1.409-3.192.432Zm25.229-1.502c2.837 4.174 6.089 8.069 9.747 11.549a72 72 0 0 0 5.81 4.938c.959.737 1.931 1.55 2.989 2.14 1.118.624 2.332 1.122 3.505 1.631.881.382 1.865.333 2.484-.496.522-.698.609-1.921-.151-2.529a83 83 0 0 1-2.627-2.207c-.993-.864-2.109-1.571-3.166-2.353a62 62 0 0 1-5.298-4.424 65.2 65.2 0 0 1-9.24-10.619c-.722-1.04-2.057-1.517-3.211-.842-1.038.607-1.558 2.158-.842 3.211Zm37.56-3.387c1.952 0 3.822-1.716 3.731-3.731s-1.64-3.731-3.731-3.731c-1.952 0-3.822 1.716-3.731 3.731s1.64 3.731 3.731 3.731M222.73 603.592c11.761-1.105 22.988-3.987 34.146-7.814 11.573-3.969 22.246-10.414 33.043-16.09 5.693-2.993 11.461-5.879 17.308-8.558a276 276 0 0 1 7.506-3.307c-1.046.443-.136.06.409-.167a394 394 0 0 1 9.245-3.693 1449 1449 0 0 1 37.941-14.047c12.848-4.547 25.805-8.808 38.951-12.413a351 351 0 0 1 19.933-4.872c6.459-1.372 13.13-2.91 19.719-3.472-.086.007-1.533.197-.521.071l1.412-.18a231 231 0 0 1 7.42-.802q4.947-.455 9.91-.68c6.737-.305 13.48-.332 20.214.047 3.32.187 6.636.467 9.94.844.812.093 1.684.126 2.485.302-.086-.019-1.528-.218-.515-.069.478.07.957.136 1.435.207q2.699.404 5.384.882c6.689 1.19 13.317 2.695 19.941 4.201 7.104 1.615 14.251 3.472 21.492 4.341 6.343.761 12.75 1.247 19.142 1.243 12.699-.007 25.389-2.214 36.848-7.839 2.832-1.39 5.278-3.118 7.685-5.157 2.909-2.464-.189-7.686-3.748-6.438-5.56 1.951-11.187 3.789-17.019 4.726-1.239.199-1.765.265-3.502.419q-2.22.197-4.448.269c-3 .1-6.016.069-9.015-.07-3.034-.14-6.049-.443-9.065-.8 1.68.199-.488-.075-.884-.135q-1.11-.168-2.216-.356a112 112 0 0 1-4.474-.877c-6.623-1.42-13.241-2.907-19.849-4.4-13.865-3.132-27.639-6.452-41.807-7.932-13.2-1.378-26.512-1.209-39.702.188-27.31 2.891-53.799 10.204-79.688 19.159-12.803 4.429-25.5 9.184-38.128 14.088-12.784 4.965-25.456 10.556-37.513 17.105-10.562 5.736-20.284 12.907-30.352 19.437-5.084 3.297-9.437 6.52-14.76 9.762-4.907 2.989-10.227 5.227-15.703 6.951-2.83.891-5.654 1.584-8.601 1.951-2.48.309-2.576 4.214 0 3.972Z"/><path fill="#edc84f" d="M857.806 26.236c-74.877 14.602-153.167 36.031-226.542 56.91a797 797 0 0 0 26.948 71.848l224.089-49.42c1.762-.389 3.633-.836 4.883-2.138 2.507-2.612 1.184-6.887-.28-10.197-9.519-21.527-15.008-46.711-24.527-68.238l-6.928 3.657"/><path fill="#edc851" d="M856.718 22.289a1755 1755 0 0 0-44.531 8.147c-15.013 2.942-29.935 6.296-44.838 9.75-29.889 6.929-59.647 14.416-89.33 22.175-16.316 4.265-32.639 8.53-48.891 13.035-4.074 1.129-6.918 5.724-5.612 9.884 6.008 19.133 12.723 38.032 20.218 56.634a912 912 0 0 0 7.207 17.329l1.317 1.704a6.3 6.3 0 0 0 2.71 1.741c1.801.76 3.55.844 5.483.424 32.802-7.126 65.605-14.242 98.408-21.362 32.636-7.084 65.271-14.175 97.906-21.264 9.158-1.989 18.316-3.974 27.473-5.968 2.44-.531 4.915-1.236 7.008-2.65 3.014-2.037 5.407-5.084 6.123-8.719.61-3.098.449-6.144-.408-9.19-.683-2.426-1.819-4.709-2.801-7.022l.93 2.205c-7.239-17.166-11.637-35.307-18.048-52.765-2-5.445-4.177-10.827-6.549-16.12-.865-1.931-3.61-3.862-5.616-4.319-2.519-.574-4.94-.286-7.242.947-1.888 1.012-3.35 2.329-4.787 3.877l-1.274 1.373c-.438.472-.834.942-1.232 1.456-.693.897-1.077 1.844-1.482 2.901l3.347-4.352-.433.229c-3.374 1.781-4.68 6.757-2.613 9.963 2.213 3.432 6.355 4.517 9.963 2.613l.433-.229-5.611.734c2.42.586 4.835.017 7.247-.35.634-.096 1.274-.174 1.904-.289 1.435-.262 2.734-1.027 4.023-1.697l-12.858-3.372q.356.822.706 1.648l-.949-2.248c7.273 17.298 12.094 35.504 18.565 53.097 2.031 5.522 4.329 10.92 6.651 16.324l-.929-2.202c.582 1.399 1.062 2.821 1.31 4.319l-.329-2.445c.11.834.135 1.635.027 2.471l.328-2.443c-.084.451-.2.87-.366 1.297l.926-2.195a6.2 6.2 0 0 1-.71 1.168l1.436-1.858c-.256.288-.51.532-.807.777l1.858-1.435c-.421.3-.849.543-1.318.762l2.192-.925c-1.439.592-2.972.878-4.485 1.217l-5.984 1.339-10.97 2.456-22.19 4.967-44.63 9.99c-29.587 6.623-59.172 13.253-88.758 19.88q-24.931 5.587-49.864 11.17l9.51 3.87a836 836 0 0 1-3.315-7.736l.846 2.005a848 848 0 0 1-19.151-49.693 802 802 0 0 1-4.852-14.311l-5.612 9.884c29.145-8.506 58.207-17.277 87.439-25.486 29.527-8.292 59.212-15.893 88.926-23.476 16.317-4.164 32.687-8.108 49.129-11.749 2.093-.463 3.515-3.005 2.858-5.034-.739-2.285-2.766-3.242-5.034-2.858Z"/><path fill="#edc84f" d="M638.7 99.733c3.232 21.153 10.305 28.722 15.64 49.443 9.022 35.04 31.973 102.665 56.282 170.329-1.687-4.637-19.682-3.525-23.473-3.65-20.429-.673-64.571 14.266-42.123 42.005 6.554 8.099 17.036 11.92 27.256 13.947 11.169 2.216 22.894 2.703 33.831-.464 18.094-5.24 30.998-22.035 31.206-41.155.275-25.268-10.297-47.447-19.434-70.368-17.741-44.503-25.949-83.059-46.334-137.583-2.118-5.666-2.694-12.131-6.764-16.607"/><path fill="#edc851" d="M635.329 99.733c.727 7.513 2.16 14.875 4.392 22.085 1.935 6.249 4.243 12.375 6.108 18.645 1.808 6.078 3.015 12.296 4.446 18.467a776 776 0 0 0 4.132 16.867c3.497 13.679 7.645 27.249 11.9 40.711 5.028 15.908 10.225 31.75 15.695 47.512a5211 5211 0 0 0 20.436 57.743l16.37-4.513c-1.126-2.792-2.542-4.815-5.107-6.469-1.424-.918-3.095-1.533-4.723-1.994-3.287-.931-6.809-1.214-10.21-1.407-4.658-.264-9.391-.272-14.058-.199-12.105.19-24.723 3.432-35.421 9.089-5.82 3.078-10.931 7.208-14.818 12.53-1.727 2.365-3.032 5.16-3.804 7.978-1.039 3.794-.968 7.471-.36 11.307.531 3.354 1.937 6.633 3.592 9.575 2.12 3.769 4.93 7.384 8.182 10.24 7.324 6.432 16.475 10.2 25.919 12.281 11.105 2.447 22.331 3.182 33.582 1.451 9.454-1.455 18.013-5.547 25.434-11.494 6.843-5.483 11.8-12.847 15.157-20.874 3.411-8.157 4.125-16.984 3.579-25.737-1.244-19.945-8.334-38.446-15.798-56.758a712 712 0 0 1-18.054-49.371c-5.296-16.346-10.211-32.812-15.431-49.182-2.874-9.011-5.832-17.994-8.927-26.932-3.213-9.277-6.979-18.408-9.673-27.849-.708-2.481-1.537-4.88-2.655-7.217-1.151-2.407-2.797-4.469-4.555-6.461-2.884-3.268-8.841-3.164-11.746 0-3.2 3.486-3.076 8.26 0 11.746-1.789-2.028-.177-.17.222.536.374.661.694 1.346.993 2.044l-.859-2.036c1.273 3.142 2.074 6.421 3.044 9.661 1.1 3.677 2.58 7.25 3.887 10.858a952 952 0 0 1 7.631 21.932c4.476 13.377 8.661 26.848 12.824 40.325 3.883 12.571 7.786 25.139 12.01 37.601 4.429 13.068 9.332 25.939 14.551 38.71 6.305 15.431 12.616 31.052 14.927 47.671l-.308-2.289c.828 6.168 1.292 12.526.471 18.719l.309-2.303a44.5 44.5 0 0 1-3.029 10.984l.882-2.091a45.2 45.2 0 0 1-5.675 9.686l1.382-1.789a45 45 0 0 1-7.927 7.91l1.806-1.396a44.4 44.4 0 0 1-9.432 5.51l2.153-.908c-4.166 1.743-8.563 2.786-13.028 3.414l2.416-.325c-6.595.871-13.248.681-19.832-.193l2.416.325c-6.519-.902-13.017-2.329-19.113-4.851l2.171.916c-3.232-1.368-6.303-3.049-9.102-5.176l1.839 1.421a32.6 32.6 0 0 1-5.768-5.797l1.421 1.839c-1.618-2.129-3.048-4.376-4.092-6.845l.913 2.163c-.634-1.553-1.101-3.153-1.341-4.815l.323 2.401a16.7 16.7 0 0 1-.018-4.248l-.322 2.396a16.6 16.6 0 0 1 1.155-4.147l-.907 2.149c.655-1.496 1.502-2.88 2.495-4.175l-1.403 1.816c1.495-1.907 3.258-3.564 5.17-5.046l-1.81 1.398c3.453-2.636 7.317-4.685 11.31-6.375l-2.118.894c6.169-2.581 12.697-4.335 19.322-5.244l-2.317.311c3.66-.489 7.278-.489 10.957-.559 4.704-.09 9.441-.196 14.118.407l-2.266-.304c1.561.214 3.124.501 4.597 1.078l-2.027-.855a7 7 0 0 1 1.482.829l-1.718-1.327c.208.171.395.351.567.559l-1.327-1.718c.118.161.217.322.303.502l-.856-2.028.054.133c.855 2.13 1.845 3.87 3.901 5.073 1.819 1.065 4.501 1.516 6.541.856 4.106-1.329 7.532-5.966 5.928-10.441a5418 5418 0 0 1-18.131-51.357c-5.552-15.997-11.127-31.986-16.66-47.99-4.754-13.752-9.364-27.556-14.123-41.305-1.96-5.664-3.96-11.315-5.843-17.006-1.795-5.424-3.373-10.923-5.213-16.331-1.29-3.793-2.778-7.506-4.346-11.191q-.274-.644-.553-1.286c-.064-.148-.13-.424-.237-.544.141.158.611 1.436-.031-.087-.389-.921-.839-1.82-1.264-2.726-.665-1.419-1.337-2.833-2.004-4.251a239 239 0 0 1-2.021-4.396q-.458-1.032-.902-2.071c-.202-.47.057.133.08.189q-.11-.27-.223-.539a98 98 0 0 1-3.947-11.556 112 112 0 0 1-1.44-5.961c-.784-3.655-6.989-2.919-6.62.896Z"/><path fill="#edc84f" d="M852.409 65.023c3.232 21.153 10.305 28.722 15.64 49.443 9.022 35.04 31.973 102.665 56.282 170.329-1.687-4.637-19.682-3.525-23.473-3.65-20.429-.673-64.571 14.266-42.123 42.005 6.554 8.099 17.036 11.92 27.256 13.947 11.169 2.216 22.894 2.703 33.831-.464 18.094-5.24 30.998-22.035 31.206-41.155.275-25.268-10.297-47.447-19.434-70.368-17.741-44.503-25.949-83.059-46.334-137.583-2.118-5.666-2.694-12.131-6.764-16.607"/><path fill="#edc851" d="M849.038 65.023c.727 7.513 2.16 14.875 4.392 22.085 1.935 6.249 4.243 12.375 6.108 18.645 1.808 6.078 3.015 12.296 4.446 18.467a776 776 0 0 0 4.132 16.867c3.497 13.679 7.645 27.249 11.9 40.711 5.028 15.908 10.225 31.75 15.695 47.512a5211 5211 0 0 0 20.436 57.743l16.37-4.513c-1.126-2.792-2.542-4.815-5.107-6.469-1.424-.918-3.095-1.533-4.723-1.994-3.287-.931-6.809-1.214-10.21-1.407-4.658-.264-9.391-.272-14.058-.199-12.105.19-24.723 3.432-35.421 9.089-5.82 3.078-10.931 7.208-14.818 12.53-1.727 2.365-3.032 5.16-3.804 7.978-1.039 3.794-.968 7.471-.36 11.307.531 3.354 1.937 6.633 3.592 9.575 2.12 3.769 4.93 7.384 8.182 10.24 7.324 6.432 16.475 10.2 25.919 12.281 11.105 2.447 22.331 3.182 33.582 1.451 9.454-1.455 18.013-5.547 25.434-11.494 6.843-5.483 11.8-12.847 15.157-20.874 3.411-8.157 4.125-16.984 3.579-25.737-1.244-19.945-8.334-38.446-15.798-56.758a712 712 0 0 1-18.054-49.371c-5.296-16.346-10.211-32.812-15.431-49.182-2.874-9.011-5.832-17.994-8.927-26.932-3.213-9.277-6.979-18.408-9.673-27.849-.708-2.481-1.537-4.88-2.655-7.217-1.151-2.407-2.797-4.469-4.555-6.461-2.884-3.268-8.841-3.164-11.746 0-3.2 3.486-3.076 8.26 0 11.746-1.789-2.028-.177-.17.222.536.374.661.694 1.346.993 2.044l-.859-2.036c1.273 3.142 2.074 6.421 3.044 9.661 1.1 3.677 2.58 7.25 3.887 10.858a952 952 0 0 1 7.631 21.932c4.476 13.377 8.661 26.848 12.824 40.325 3.883 12.571 7.786 25.139 12.01 37.601 4.429 13.068 9.332 25.939 14.551 38.71 6.305 15.431 12.616 31.052 14.927 47.671l-.308-2.289c.828 6.168 1.292 12.526.471 18.719l.309-2.303a44.5 44.5 0 0 1-3.029 10.984l.882-2.091a45.2 45.2 0 0 1-5.675 9.686l1.382-1.789a45 45 0 0 1-7.927 7.91l1.806-1.396a44.4 44.4 0 0 1-9.432 5.51l2.153-.908c-4.166 1.743-8.563 2.786-13.028 3.414l2.416-.325c-6.595.871-13.248.681-19.832-.193l2.416.325c-6.519-.902-13.017-2.329-19.113-4.851l2.171.916c-3.232-1.368-6.303-3.049-9.102-5.176l1.839 1.421a32.6 32.6 0 0 1-5.768-5.797l1.421 1.839c-1.618-2.129-3.048-4.376-4.092-6.845l.913 2.163c-.634-1.553-1.101-3.153-1.341-4.815l.323 2.401a16.7 16.7 0 0 1-.018-4.248l-.322 2.396a16.6 16.6 0 0 1 1.155-4.147l-.907 2.149c.655-1.496 1.502-2.88 2.495-4.175l-1.403 1.816c1.495-1.907 3.258-3.564 5.17-5.046l-1.81 1.398c3.453-2.636 7.317-4.685 11.31-6.375l-2.118.894c6.169-2.581 12.697-4.335 19.322-5.244l-2.317.311c3.66-.489 7.278-.489 10.957-.559 4.704-.09 9.441-.196 14.118.407l-2.266-.304c1.561.214 3.124.501 4.597 1.078l-2.027-.855a7 7 0 0 1 1.482.829l-1.718-1.327c.208.171.395.351.567.559l-1.327-1.718c.118.161.217.322.303.502l-.856-2.028.054.133c.855 2.13 1.845 3.87 3.901 5.073 1.819 1.065 4.501 1.516 6.541.856 4.106-1.329 7.532-5.966 5.928-10.441a5418 5418 0 0 1-18.131-51.357c-5.552-15.997-11.127-31.986-16.66-47.99-4.754-13.752-9.364-27.556-14.123-41.305-1.96-5.664-3.96-11.315-5.843-17.006-1.795-5.424-3.373-10.923-5.213-16.331-1.29-3.793-2.778-7.506-4.346-11.191q-.274-.644-.553-1.286c-.064-.148-.13-.424-.237-.544.141.158.611 1.436-.031-.087-.389-.921-.839-1.82-1.264-2.726-.665-1.419-1.337-2.833-2.004-4.251a239 239 0 0 1-2.021-4.396q-.458-1.032-.902-2.071c-.202-.47.057.133.08.189q-.11-.27-.223-.539a98 98 0 0 1-3.947-11.556 112 112 0 0 1-1.44-5.961c-.784-3.655-6.989-2.919-6.62.896Z"/><path fill="#8170f9" d="M537.694 79.208c-15.8-5.222-31.378-11.089-47.014-16.783s-31.366-11.094-47.069-16.584l-26.377-9.221c-4.812-1.682-10.833 2.807-10.431 7.946.177 2.265.684 3.886 1.513 5.913 1.03 2.517 2.646 4.358 5.504 4.742 2.652.356 5.176-.88 6.596-3.161 1.04-1.672 2.091-3.366 2.573-5.304l-10.136 5.755 47.707 14.27c15.902 4.756 31.852 9.328 47.815 13.878 8.946 2.55 17.862 5.13 26.728 7.948 2.431.773 5.428-.907 5.997-3.405.612-2.685-.811-5.139-3.405-5.997Zm-21.599 69.384a1208 1208 0 0 1-87.344 2.235q-6.212-.064-12.422-.186c-1.988-.039-3.975-.085-5.963-.124l-2.982-.062c-2.294-.05-4.235.429-6.218 1.588l10.865 8.352.492-1.599c1.204-3.914-2.042-7.546-5.861-7.694l-1.762-.069c-3.106-.121-6.435 2.371-7.132 5.43-.733 3.218.487 6.632 3.399 8.352 4.022 2.376 9.171 1.546 13.671 1.409q5.466-.167 10.932-.377 10.934-.422 21.859-1.019c14.571-.797 29.135-1.818 43.682-2.97q12.402-.983 24.784-2.192c2.874-.28 5.68-2.346 5.537-5.537-.127-2.846-2.441-5.729-5.537-5.537m7.967 58.882L466.2 236.482l-7.372 3.696c-3.397 1.703-7.889 3.373-8.834 7.522-.829 3.638 1.062 7.816 4.939 8.699 1.765.402 3.465.382 5.154-.331.911-.384 1.817-.761 2.683-1.239 2.327-1.286 4.617-2.647 6.924-3.97l28.127-16.127 31.589-18.112c2.405-1.379 3.441-4.856 1.9-7.246-1.636-2.538-4.591-3.231-7.246-1.9Zm169.007-45.942c6.217-.772 12.275-2.292 18.392-3.626a2028 2028 0 0 1 17.261-3.684c5.86-1.223 11.828-1.952 17.752-2.804s11.735-2.205 17.587-3.378c23.382-4.687 46.783-9.235 70.233-13.572q9.87-1.825 19.757-3.551c3.198-.558 6.347-1.431 9.497-2.217 1.99-.497 3.837-1.447 5.705-2.28l1.051-.468.631-.281q-.978.418-.347.163c.843-.303 1.671-.664 2.504-.994 2.508-.994 4.217-3.046 3.837-5.877-.364-2.707-2.569-4.502-5.261-4.644-2.963-.157-5.974-.624-8.935-.64-2.933-.015-6.014.498-8.928.836-6.379.741-12.731 2.132-19.047 3.284-11.72 2.138-23.399 4.44-35.053 6.906s-23.289 4.976-34.86 7.778q-8.677 2.102-17.336 4.282c-8.659 2.18-11.39 3.597-17.017 5.463-6.334 2.1-12.886 3.644-19.308 5.462s-12.996 3.404-19.187 5.92c-1.883.765-3.176 2.28-2.888 4.424.24 1.783 1.969 3.744 3.96 3.496Zm-51.176 213.301c3.86 2.398 7.717 4.872 11.792 6.895 4.312 2.141 8.876 3.768 13.532 4.983 9.834 2.565 20.043 2.801 30.008.877 9.007-1.739 17.562-5.215 25.256-10.205 3.806-2.468 7.206-5.868 10.251-9.214 1.429-1.57 2.987-3.019 4.409-4.601 1.596-1.776 3.084-3.636 4.541-5.527 2.895-3.758 5.177-7.734 7.074-12.082 1.036-2.374 2.05-4.755 2.717-7.262.644-2.42 1.424-5.583-.189-7.757-.555-.748-1.361-1.189-2.311-.94-2.324.61-3.732 2.813-4.949 4.76-1.121 1.793-2.235 3.597-3.4 5.362a76 76 0 0 1-2.708 3.84c-.117.156-.618.821-.144.196.509-.671-.149.187-.259.324-.884 1.111-1.794 2.195-2.657 3.323-.876 1.145.653-.819-.237.305q-.521.659-1.058 1.306a77 77 0 0 1-6.53 6.956q-.546.514-1.102 1.018c-.245.222-1.185.817-1.264 1.12.126-.483 1.094-.81.235-.193q-.3.216-.602.428a77 77 0 0 1-4.027 2.648c-1.805 1.106-3.698 2.06-5.486 3.19-4.073 2.576-8.397 4.661-12.822 6.555l1.778-.75a74.3 74.3 0 0 1-11.916 3.886c-2.025.474-4.074.852-6.113 1.256q-1.42.282-2.85.508c-.256.041-1.891.267-.786.125.965-.124.217-.028.021-.005q-.522.064-1.044.123c-4.134.46-8.356.695-12.515.67a75 75 0 0 1-5.973-.271 83 83 0 0 1-5.59-.66c-4.691-.709-9.303-1.689-13.623-3.686-1.664-.769-3.065 1.496-1.458 2.494Zm205.652-35.683c3.86 2.398 7.717 4.872 11.792 6.895 4.312 2.141 8.876 3.768 13.532 4.983 9.834 2.565 20.043 2.801 30.008.877 9.007-1.739 17.562-5.215 25.256-10.205 3.806-2.468 7.206-5.868 10.251-9.214 1.429-1.57 2.987-3.019 4.409-4.601 1.596-1.776 3.084-3.636 4.541-5.527 2.895-3.758 5.177-7.734 7.074-12.082 1.036-2.374 2.05-4.755 2.717-7.262.644-2.42 1.424-5.583-.189-7.757-.555-.748-1.361-1.189-2.311-.94-2.324.61-3.732 2.813-4.949 4.76-1.121 1.793-2.235 3.597-3.4 5.362a76 76 0 0 1-2.708 3.84c-.117.156-.618.821-.144.196.509-.671-.149.187-.259.324-.884 1.111-1.794 2.195-2.657 3.323-.876 1.145.653-.819-.237.305q-.522.659-1.058 1.306a77 77 0 0 1-6.53 6.956q-.546.514-1.102 1.018c-.245.222-1.185.817-1.264 1.12.126-.483 1.094-.81.235-.193q-.3.216-.602.428a77 77 0 0 1-4.027 2.648c-1.805 1.106-3.698 2.06-5.486 3.19-4.073 2.576-8.397 4.661-12.822 6.555l1.778-.75a74.3 74.3 0 0 1-11.916 3.886c-2.025.474-4.074.852-6.113 1.256q-1.42.282-2.85.508c-.256.041-1.891.267-.786.125.965-.124.217-.028.021-.005q-.522.064-1.044.123c-4.134.46-8.356.695-12.515.67a75 75 0 0 1-5.973-.271 83 83 0 0 1-5.59-.66c-4.691-.709-9.303-1.689-13.623-3.686-1.664-.769-3.065 1.496-1.458 2.494Z"/></svg>