<?xml version="1.0" encoding="UTF-8"?><svg xmlns="http://www.w3.org/2000/svg" data-name="ARTWORK" viewBox="0 0 1000 1000"><g fill="#70e8a0"><path d="M454.094 254.156c-110.145 6.958-219.283 29.682-323.052 67.262-35.549 12.874-72.946 29.562-91.944 62.251-17.866 30.741-15.452 68.877-10.54 104.092 13.951 100.032 43.799 197.831 88.083 288.605 18.824 38.586 41.925 77.667 79.067 99.201 37.565 21.779 83.507 22.16 126.838 19.346 137.69-8.941 273.615-44.341 398.175-103.699 32.341-15.412 65.873-34.351 81.901-66.391 17.906-35.792 9.517-78.607-.295-117.407-17.822-70.468-39.068-140.016-60.306-209.531-11.937-39.072-24.905-79.886-54.097-108.468-28.222-27.632-68.522-40.141-107.968-42.136s-78.684 5.535-117.464 13.029"/><path d="M454.094 248.74c-82.501 4.731-164.589 17.033-244.334 38.853-37.744 10.327-75.937 21.701-111.734 37.671-31.412 14.014-60.003 34.795-73.376 67.543-14.554 35.64-8.591 76.167-2.963 113.037 6.039 39.562 14.674 78.734 25.655 117.216 11.222 39.325 25.023 77.849 41.048 115.468 14.288 33.541 29.61 67.804 51.1 97.449 10.718 14.786 22.894 28.128 37.45 39.209 14.75 11.228 31.825 19.135 49.697 23.953 36.683 9.888 75.472 7.792 112.932 4.784 80.311-6.449 159.946-21.644 236.941-45.383 38.93-12.003 77.133-26.234 114.514-42.421 32.773-14.192 67.296-28.761 94.353-52.667 13.445-11.879 23.992-26.391 30.606-43.083 7.036-17.758 8.563-37.547 7.197-56.459-1.418-19.63-5.573-38.95-10.351-58-5.178-20.643-10.688-41.205-16.389-61.71-11.506-41.384-23.862-82.525-36.361-123.617-10.812-35.544-20.374-72.664-39.092-105.072-8.889-15.391-20.142-29.717-33.955-40.983-14.477-11.808-30.834-20.562-48.445-26.742-37.715-13.235-78.126-13.005-117.261-7.587-10.034 1.389-20.02 3.092-29.975 4.963-10.456 1.966-20.579 5.422-30.987 7.433-4.247.821-6.672 5.911-5.591 9.846 1.22 4.441 5.587 6.414 9.846 5.591 10.465-2.022 21.308-2.614 31.846-4.316 9.646-1.558 19.314-2.961 29.029-4.014 20.089-2.177 40.524-3.183 60.694-1.576 31.683 2.526 65.553 13.077 89.734 34.502 25.399 22.503 38.521 54.182 48.883 85.864 12.44 38.035 23.637 76.546 34.978 114.92 11.766 39.812 23.132 79.771 33.182 120.055 8.25 33.071 16.381 71.082 2.022 103.063-13.37 29.777-42.076 47.113-70.901 61.467-33.868 16.866-68.968 31.422-104.539 44.28-72.678 26.272-148.222 44.944-224.824 55.238-37.36 5.021-75.57 9.142-113.315 8.331-33.796-.727-68.97-7.614-95.512-29.207-25.968-21.125-43.005-50.135-57.847-79.837-17.141-34.303-32.069-69.71-44.838-105.866a964 964 0 0 1-32.237-112.604 987 987 0 0 1-10.947-57.546c-2.841-17.761-5.4-35.644-5.705-53.658-.285-16.831 1.43-33.993 7.967-49.666 6.078-14.573 16.571-26.897 29.003-36.486 26.469-20.417 59.863-30.802 91.079-41.426 75.607-25.734 154.133-44.159 233.358-54.335 19.39-2.49 38.866-4.272 58.365-5.642 6.9-.485 6.996-11.234 0-10.833"/></g><g fill="#d85bd2"><path d="M726.541 111.831c-37.976 10.317-70.593 36.47-92.805 68.955-22.621 33.082-38.018 71.916-41.497 111.998-5.915 68.153 33.42 145.114 96.615 174.276 61.122 28.205 148.003 19.721 202.907-18.645 45.367-31.702 74.382-92.262 81.728-146.757 6.404-47.514-7.774-95.769-38.155-132.754-64.547-78.58-191.918-85.442-269.824-23.407"/><path d="M725.149 106.782c-20.748 5.335-40.442 15.278-57.545 28.126-8.794 6.606-17.043 13.876-24.574 21.897a188 188 0 0 0-11.661 13.674c-.444.572-1.108 1.214-1.434 1.856.188-.37 1.271-1.681-.125.126-1.005 1.3-1.955 2.644-2.904 3.986a257 257 0 0 0-5.013 7.359c-13.212 20.124-23.713 42.188-30.754 65.219-6.457 21.12-10.051 43.515-9.13 65.634.826 19.834 4.801 39.626 11.617 58.263 7.062 19.311 16.739 37.322 29.312 53.595 12.337 15.969 27.164 29.934 44.244 40.75 16.943 10.73 36.222 17.891 55.795 22.042 20.728 4.396 42.131 5.821 63.264 4.392 21.143-1.43 42.238-5.358 62.289-12.267 19.654-6.773 38.426-16.125 54.905-28.857 16.994-13.13 31.129-29.534 42.759-47.543 11.722-18.152 20.823-38.1 27.475-58.641 6.635-20.492 11.012-42.177 11.44-63.752.456-22.96-3.567-46.237-11.773-67.686-8.306-21.713-20.362-41.736-35.978-58.99-12.443-13.748-27.276-25.507-43.327-34.773s-33.559-16.224-51.526-20.701c-18.111-4.513-36.922-6.625-55.582-6.324-18.651.301-37.268 3.631-55.091 9.098a206 206 0 0 0-9.142 3.042c-.557.2-1.115.397-1.668.608-.48.183-.937.371-1.416.573-2.158.91-.337.207-.006-.026-1.17.823-3.044 1.26-4.397 1.878q-1.365.623-2.72 1.268c-2.436 1.158-4.788 2.258-6.929 3.914l2.974-1.733a185.6 185.6 0 0 0-24.745 12.503c-3.747 2.256-7.476 4.607-11.011 7.186-3.895 2.841-7.414 6.119-11.175 9.105-2.344 1.861-1.944 5.886 0 7.83 2.315 2.315 5.48 1.866 7.83 0 .063-.05.73-.461.255-.162-.535.337.354-.199.478-.28.422-.274.83-.574 1.245-.858q1.458-.995 2.935-1.961c1.901-1.243 3.839-2.428 5.744-3.664a190 190 0 0 1 11.912-7.149 189 189 0 0 1 15.191-7.487c.541-.237 1.087-.464 1.626-.704.696-.311-.396.165-.435.181l1.165-.485c.458-.189.965-.339 1.402-.573.044-.024.702-.286.701-.29l-.857-.01 1.828-.246c1.133-.247 2.254-.695 3.368-1.022 8.808-2.586 17.674-5.119 26.672-6.968 4.487-.922 9.001-1.668 13.534-2.321.996-.143-1.234.161-1.11.148.334-.035.669-.087 1.002-.13q.752-.094 1.505-.185c1.175-.145 2.491-.558 3.655-.485 1.046.066-1.348.164-1.143.228.246.077.746-.067 1.006-.09q3.527-.305 7.061-.491c9.229-.486 18.392-1.033 27.641-.707a212 212 0 0 1 18.709 1.493l.755.095c1.367.168-.905-.129-1.11-.152 2.343.262 4.681.678 7.006 1.068a203 203 0 0 1 26.527 6.289 194 194 0 0 1 16.116 5.789c.466.191.928.39 1.395.579-3.034-1.225-.769-.321-.057-.011a189 189 0 0 1 6.175 2.823 180 180 0 0 1 23.74 13.675 173 173 0 0 1 6.958 5.015l.603.46c.967.728-1.766-1.385-.819-.632.924.735 1.853 1.461 2.768 2.207a169 169 0 0 1 10.269 9.078 166 166 0 0 1 15.612 17.241c1.529 1.943-.877-1.174.187.239a214 214 0 0 1 2.648 3.576 175.3 175.3 0 0 1 17.275 29.736c.565 1.239 1.064 2.515 1.655 3.741.025.053-.827-1.989-.402-.956.159.388.322.774.481 1.162q.417 1.018.821 2.042a174 174 0 0 1 7.654 24.569 173 173 0 0 1 2.719 14.514c.045.311.081.624.132.934-.069-.421-.281-2.22-.114-.818.686 5.742 1.162 11.494 1.304 17.277.14 5.702-.007 11.41-.442 17.097a183 183 0 0 1-.875 8.559c-.242 1.951.328-2.336.005-.063q-.137.963-.282 1.925-.292 1.935-.619 3.864c-1.739 10.272-4.168 20.424-7.215 30.386a252 252 0 0 1-8.033 22.411c-.15.364-.309.726-.454 1.092-.041.102.902-2.115.457-1.083q-.349.816-.701 1.631-.883 2.036-1.804 4.056c-4.41 9.679-9.449 19.078-15.143 28.064a209 209 0 0 1-10.177 14.653c-1.482 1.946 1.104-1.397.013-.015a184 184 0 0 1-7.585 9.092 171 171 0 0 1-10.954 11.24 157 157 0 0 1-8.515 7.401c-.51.411-1.027.812-1.537 1.222-.867.698 1.097-.852.989-.759-.28.242-.594.455-.89.679-7.936 6.012-16.5 11.196-25.388 15.673a190 190 0 0 1-10.369 4.835q-.388.165-.775.332c-1.034.447 1.318-.579 1.189-.502-.616.369-1.421.588-2.085.857a210 210 0 0 1-14.425 5.219c-9.993 3.212-20.217 5.7-30.558 7.499-2.584.449-5.175.848-7.771 1.219-1.84.263 2.492-.322.182-.025q-.868.112-1.736.217-2.028.246-4.059.456c-5.319.551-10.657.923-16.001 1.113-10.519.374-21.066.045-31.536-1.04a230 230 0 0 1-3.707-.414q-.853-.104-1.705-.212c-1.745-.218 1.038.163 1.1.151-.307.061-.82-.114-1.132-.158a205 205 0 0 1-7.586-1.224 195 195 0 0 1-15.116-3.345 179 179 0 0 1-14.292-4.411 168 168 0 0 1-6.901-2.629c-.336-.137-.671-.278-1.007-.414-.997-.403 1.342.624 1.268.538-.253-.294-1.131-.485-1.495-.644a152 152 0 0 1-3.685-1.668c-8.761-4.109-17.074-9.151-24.831-14.932q-.641-.48-1.279-.964c-1.386-1.047 2.122 1.662.238.181a161 161 0 0 1-8.384-7.083 166 166 0 0 1-10.326-10.215c-3.377-3.642-6.555-7.445-9.642-11.333-.635-.8.884 1.068.824 1.07-.073.003-.441-.577-.495-.647q-.576-.756-1.144-1.518a186 186 0 0 1-6.392-9.143c-5.443-8.304-10.33-16.95-14.501-25.963a192 192 0 0 1-1.461-3.236q-.384-.875-.762-1.753c-.141-.324-.544-1.282.094.23.736 1.746 0-.006-.111-.278a194 194 0 0 1-7.244-20.85 188 188 0 0 1-3.505-14.468 182 182 0 0 1-1.801-10.601c-.251-1.763.29 2.288.072.519-.087-.709-.176-1.418-.257-2.128-1.097-9.565-1.412-19.225-.833-28.837.164-2.722.401-5.44.686-8.152a205 205 0 0 1 .496-4.276c.314-2.482-.205 1.368.052-.406q.165-1.15.337-2.297a235 235 0 0 1 3.436-17.915c2.732-11.741 6.416-23.256 10.929-34.433q.372-.923.753-1.842c.113-.274.68-1.596.197-.482l.076-.175a254 254 0 0 1 5.702-12.387 257 257 0 0 1 8.658-16.068c2.953-5.042 6.045-10.025 9.375-14.828 1.535-2.214 3.031-4.452 4.618-6.632a186 186 0 0 1 3.049-4.074c-.044.057-.82 1.042-.278.365.502-.628.995-1.263 1.498-1.89 6.837-8.513 14.411-16.44 22.661-23.594a172 172 0 0 1 6.921-5.692c-.098.077-.674.517-.098.077q.835-.638 1.677-1.267a168 168 0 0 1 3.398-2.467c4.397-3.108 8.938-5.988 13.661-8.575 9.395-5.147 18.069-8.759 28.41-11.768 2.715-.79 4.414-3.686 3.657-6.441-.762-2.773-3.693-4.364-6.441-3.657Z"/></g><path d="M570.387 350.496a2719 2719 0 0 0-112.331-9.887c-37.462-2.511-74.986-3.526-112.528-3.887a2692 2692 0 0 0-167.698 3.613c-16.248.858-32.664 1.717-48.579 5.344-15.837 3.609-30.855 10.519-42.698 21.803-10.828 10.316-18.142 23.479-23.506 37.295-5.242 13.5-8.25 27.75-10.429 42.03-2.801 18.354-5.25 36.386-7.383 54.907a1181 1181 0 0 0-7.522 111.507c-.175 8.744-.486 17.507.196 26.232.641 8.204 1.232 14.801 1.397 22.819.332 16.101 1.579 32.199 5.428 47.873 3.734 15.208 9.447 30.239 17.703 43.588 7.482 12.099 19.022 23.001 30.821 30.87 5.569 3.714 10.97 8.146 16.776 11.753 5.87 3.648 11.987 6.894 18.26 9.793 13.005 6.009 26.556 10.729 40.371 14.491 30.315 8.256 61.678 12.473 92.728 16.893 37.094 5.28 74.388 9.331 111.702 12.706 73.818 6.675 148.001 10.392 222.129 9.813 30.031-.235 61.413.233 90.297-9.191 13.893-4.533 26.929-11.373 37.715-21.328 11.48-10.596 19.309-24.53 23.987-39.33 9.66-30.565 7.097-64.326 7.046-95.92l-.178-111.969-.09-56.676c-.028-17.549.332-35.16-.659-52.689-1.814-32.084-9.37-65.913-35.328-87.273-11.079-9.117-23.283-14.554-37.416-16.527-3.729-.521-7.498.908-8.588 4.876-.897 3.266 1.118 8.063 4.876 8.588 12.71 1.775 23.583 9.636 31.751 18.86 8.015 9.051 14.671 21.814 18.171 33.058 4.992 16.038 6.225 31.823 6.592 48.611.38 17.381.062 34.789.004 52.173l-.364 109.204-.184 55.293c-.053 15.894.22 31.835-.63 47.713a237 237 0 0 1-.834 11.033c-.147 1.462-.316 2.92-.489 4.379-.423 3.567.367-2.078-.205 1.457-.174 1.078-.334 2.158-.519 3.235-1.215 7.066-2.933 14.061-5.421 20.792-.221.597-1.603 3.973-.877 2.305a83 83 0 0 1-2.27 4.778 76 76 0 0 1-5.49 9.079c-.035.05-2.152 2.837-.859 1.207a71 71 0 0 1-4.766 5.384 73 73 0 0 1-3.226 3.095 73 73 0 0 1-1.858 1.624c-.147.124-2.667 2.128-.836.728-5.208 3.981-10.955 7.167-16.918 9.86-1.959.885-.495.21-.082.043q-1.151.466-2.311.909-2.1.799-4.23 1.512a128 128 0 0 1-10.186 2.932 158 158 0 0 1-9.52 2.012q-2.543.458-5.098.841-1.026.154-2.052.298c2.376-.339-.647.075-1.147.135-6.898.827-13.832 1.328-20.771 1.638-34.224 1.533-68.681.629-102.923.134a2497 2497 0 0 1-216.364-12.533c-33.769-3.432-68.623-7.123-101.256-12.039-26.663-4.017-53.87-9.395-78.598-20.501-11.438-5.137-23.466-11.276-32.39-20.182-9.76-9.741-16.822-20.685-23.41-33.091-3.653-6.879-5.568-11.52-8.011-18.982-2.209-6.746-3.944-13.643-5.311-20.608-3.006-15.326-4.896-28.041-5.902-43.591-.424-6.544.853-14.839 1.046-22.301.231-8.908.094-17.832.291-26.744a1181 1181 0 0 1 2.487-54.8c2.379-34.628 5.756-69.243 12.026-103.229 2.49-13.496 5.612-26.981 10.761-39.735-.82 2.031.486-1.108.54-1.227a106 106 0 0 1 3.171-6.468 89 89 0 0 1 5.294-8.703c.385-.557.788-1.1 1.175-1.654 1.874-2.682-1.324 1.484.78-1.021.98-1.167 1.957-2.331 2.99-3.452 2.424-2.63 5.044-5.132 7.873-7.328-.398.309-1.37.975.436-.29.766-.536 1.53-1.071 2.311-1.584a80 80 0 0 1 4.286-2.607 79 79 0 0 1 4.91-2.591c.668-.321 1.34-.628 2.014-.935l.507-.223a72 72 0 0 1 1.559-.609c6.851-2.612 13.99-4.405 21.197-5.714 7.431-1.35 12.974-1.905 21.077-2.585 8.691-.729 17.396-1.311 26.097-1.893a2693 2693 0 0 1 218.126-5.729c36.11.514 72.216.939 108.306 2.345a2712 2712 0 0 1 53.027 2.592c5.493.322 5.281-7.851 0-8.426Z"/><g fill="#f45b5b"><path d="M397.66 438.652c-9.494-1.401-18.596 5.699-22.686 14.38s-4.305 18.614-4.446 28.21l-2.301 157.063c-.109 7.455.026 15.629 4.849 21.315 8.779 10.348 25.436 5.371 37.665-.512a2366 2366 0 0 0 154.723-81.613c7.129-4.104 15.035-9.419 15.896-17.599.865-8.206-5.81-15.072-12.043-20.479-47.417-41.14-101.115-75.026-158.657-100.121"/><path d="M398.492 435.634c-2.143-.646-4.355-.871-6.585-.868-2.5.003-4.894.912-7.163 1.906-4.016 1.759-7.664 4.638-10.466 7.999-1.52 1.823-2.918 3.754-4.03 5.855a40 40 0 0 0-1.398 2.971c-.242.566-.499 1.151-.725 1.731-.379.972-.007.048.07-.125-.44.99-.785 1.994-1.126 3.019-1.673 5.022-2.422 10.307-3 15.551-.66 5.996-1.035 12.028-1.512 18.04l.279-2.078c-.715 4.689-.606 9.554-.786 14.294l-.482 12.715c-.321 8.477-.652 16.949-.841 25.429l-1.137 50.858-.574 25.679c-.181 8.078-.594 16.189-.475 24.269.131 8.847 1.975 17.632 8.201 24.278 5.355 5.716 13.272 8.297 20.967 8.23 6.818-.06 13.635-1.822 19.938-4.331 7.588-3.021 14.878-6.777 22.212-10.357a2363 2363 0 0 0 44.196-22.156c14.654-7.539 29.224-15.236 43.698-23.117s29.003-15.99 43.377-24.212c6.781-3.879 13.707-7.539 19.74-12.554 6.158-5.119 10.985-13.14 10.098-21.407-.497-4.638-1.907-9.006-4.594-12.869a50.4 50.4 0 0 0-8.033-8.991c-5.959-5.271-12.381-10.082-18.682-14.932-2.911-2.24-5.807-4.527-8.81-6.642l1.632 1.261c-16.093-12.664-32.802-24.565-49.858-35.895-8.247-5.478-16.618-10.768-25.139-15.809-4.25-2.514-8.688-4.762-13.017-7.142s-8.699-4.717-13.09-6.997a621 621 0 0 0-15.045-7.555c-5.957-2.891-12.107-6.349-18.788-7.035l3.888 1.052a37.7 37.7 0 0 0-10.368-2.965l3.402.92-.406-.177c-1.723-.752-3.303-1.2-5.194-.68-1.564.431-3.258 1.639-4.028 3.098-1.54 2.915-1.032 7.716 2.418 9.222l-.64-.612 1.389 1.073c.241.165.501.309.749.463q.843.522 1.684 1.046c1.053.656 2.085 1.405 3.218 1.915l-1.559-1.205c1.25 1.157 2.704 2.01 4.137 2.908.991.621 1.965 1.318 3.011 1.84 2.113 1.053 4.291 1.991 6.424 3.004a614 614 0 0 1 12.741 6.228c8.423 4.238 16.924 8.509 25.013 13.362 16.21 9.725 32.759 18.863 48.31 29.656a626 626 0 0 1 25.736 18.858l-1.63-1.26c6.183 4.783 12.105 9.872 17.961 15.05 5.518 4.879 11.462 9.671 16.019 15.499l-1.443-1.868c1.333 1.743 2.503 3.586 3.389 5.597l-.95-2.251c.576 1.38.993 2.79 1.214 4.269l-.341-2.54a15.3 15.3 0 0 1 .006 3.748l.345-2.569c-.205 1.386-.542 2.713-1.078 4.008l.977-2.316c-.606 1.374-1.383 2.633-2.298 3.821l1.517-1.964c-1.424 1.784-3.091 3.326-4.883 4.733l1.966-1.519c-4.218 3.247-8.97 5.742-13.582 8.369a2354 2354 0 0 1-49.609 27.474c-22.121 11.907-44.391 23.539-66.851 34.793a2383 2383 0 0 1-18.89 9.36c-5.862 2.872-11.688 5.907-17.697 8.463l2.338-.987c-4.778 2.009-9.746 3.645-14.897 4.343l2.598-.349c-2.574.325-5.16.399-7.736.055l2.597.349c-1.69-.251-3.326-.681-4.903-1.344l2.332.984a17.3 17.3 0 0 1-3.548-2.099l1.975 1.526a17.8 17.8 0 0 1-2.887-2.915l1.526 1.975a19 19 0 0 1-2.284-3.983l.983 2.33c-.88-2.171-1.404-4.446-1.732-6.762l.347 2.585c-.903-6.892-.421-13.993-.373-20.923l.16-22.936.322-46.371c.107-15.457.105-30.91-.028-46.371-.067-7.812 0-15.636-.39-23.435-.352-7.05-.932-14.149-.553-21.208q.081-1.536.239-3.066c.045-.43.071-.877.151-1.301-.304 1.61 0 .103.045-.174a38 38 0 0 1 1.334-5.547 36 36 0 0 1 .739-2.064q.368-.91-.085.187c.066-.628.684-1.451.986-2.008a28 28 0 0 1 1.353-2.239c.208-.311.43-.611.642-.918.63-.915-.528.597.14-.184 1.056-1.235 2.144-2.416 3.383-3.473.132-.112 1.105-.867.217-.202q.59-.444 1.204-.852a22 22 0 0 1 2.039-1.199c.267-.138.54-.263.808-.397q.673-.3-.038.008.335-.134.675-.255c.339-.12.692-.197 1.03-.313q1.7-.65.654-.321.252-.093.506-.176c1.787-.595 2.486-.701 4.173-.739 3.536-.079 4.239-5.119.832-6.147Z"/></g><path d="M398.492 435.634c-2.143-.646-4.355-.871-6.585-.868-2.5.003-4.894.912-7.163 1.906-4.016 1.759-7.664 4.638-10.466 7.999-1.52 1.823-2.918 3.754-4.03 5.855a40 40 0 0 0-1.398 2.971c-.242.566-.499 1.151-.725 1.731-.379.972-.007.048.07-.125-.44.99-.785 1.994-1.126 3.019-1.673 5.022-2.422 10.307-3 15.551-.66 5.996-1.035 12.028-1.512 18.04l.279-2.078c-.715 4.689-.606 9.554-.786 14.294l-.482 12.715c-.321 8.477-.652 16.949-.841 25.429l-1.137 50.858-.574 25.679c-.181 8.078-.594 16.189-.475 24.269.131 8.847 1.975 17.632 8.201 24.278 5.355 5.716 13.272 8.297 20.967 8.23 6.818-.06 13.635-1.822 19.938-4.331 7.588-3.021 14.878-6.777 22.212-10.357a2363 2363 0 0 0 44.196-22.156c14.654-7.539 29.224-15.236 43.698-23.117s29.003-15.99 43.377-24.212c6.781-3.879 13.707-7.539 19.74-12.554 6.158-5.119 10.985-13.14 10.098-21.407-.497-4.638-1.907-9.006-4.594-12.869a50.4 50.4 0 0 0-8.033-8.991c-5.959-5.271-12.381-10.082-18.682-14.932-2.911-2.24-5.807-4.527-8.81-6.642l1.632 1.261c-16.093-12.664-32.802-24.565-49.858-35.895-8.247-5.478-16.618-10.768-25.139-15.809-4.25-2.514-8.688-4.762-13.017-7.142s-8.699-4.717-13.09-6.997a621 621 0 0 0-15.045-7.555c-5.957-2.891-12.107-6.349-18.788-7.035l3.888 1.052a37.7 37.7 0 0 0-10.368-2.965l3.402.92-.406-.177c-1.723-.752-3.303-1.2-5.194-.68-1.564.431-3.258 1.639-4.028 3.098-1.54 2.915-1.032 7.716 2.418 9.222l-.64-.612 1.389 1.073c.241.165.501.309.749.463q.843.522 1.684 1.046c1.053.656 2.085 1.405 3.218 1.915l-1.559-1.205c1.25 1.157 2.704 2.01 4.137 2.908.991.621 1.965 1.318 3.011 1.84 2.113 1.053 4.291 1.991 6.424 3.004a614 614 0 0 1 12.741 6.228c8.423 4.238 16.924 8.509 25.013 13.362 16.21 9.725 32.759 18.863 48.31 29.656a626 626 0 0 1 25.736 18.858l-1.63-1.26c6.183 4.783 12.105 9.872 17.961 15.05 5.518 4.879 11.462 9.671 16.019 15.499l-1.443-1.868c1.333 1.743 2.503 3.586 3.389 5.597l-.95-2.251c.576 1.38.993 2.79 1.214 4.269l-.341-2.54a15.3 15.3 0 0 1 .006 3.748l.345-2.569c-.205 1.386-.542 2.713-1.078 4.008l.977-2.316c-.606 1.374-1.383 2.633-2.298 3.821l1.517-1.964c-1.424 1.784-3.091 3.326-4.883 4.733l1.966-1.519c-4.218 3.247-8.97 5.742-13.582 8.369a2354 2354 0 0 1-49.609 27.474c-22.121 11.907-44.391 23.539-66.851 34.793a2383 2383 0 0 1-18.89 9.36c-5.862 2.872-11.688 5.907-17.697 8.463l2.338-.987c-4.778 2.009-9.746 3.645-14.897 4.343l2.598-.349c-2.574.325-5.16.399-7.736.055l2.597.349c-1.69-.251-3.326-.681-4.903-1.344l2.332.984a17.3 17.3 0 0 1-3.548-2.099l1.975 1.526a17.8 17.8 0 0 1-2.887-2.915l1.526 1.975a19 19 0 0 1-2.284-3.983l.983 2.33c-.88-2.171-1.404-4.446-1.732-6.762l.347 2.585c-.903-6.892-.421-13.993-.373-20.923l.16-22.936.322-46.371c.107-15.457.105-30.91-.028-46.371-.067-7.812 0-15.636-.39-23.435-.352-7.05-.932-14.149-.553-21.208q.081-1.536.239-3.066c.045-.43.071-.877.151-1.301-.304 1.61 0 .103.045-.174a38 38 0 0 1 1.334-5.547 36 36 0 0 1 .739-2.064q.368-.91-.085.187c.066-.628.684-1.451.986-2.008a28 28 0 0 1 1.353-2.239c.208-.311.43-.611.642-.918.63-.915-.528.597.14-.184 1.056-1.235 2.144-2.416 3.383-3.473.132-.112 1.105-.867.217-.202q.59-.444 1.204-.852a22 22 0 0 1 2.039-1.199c.267-.138.54-.263.808-.397q.673-.3-.038.008.335-.134.675-.255c.339-.12.692-.197 1.03-.313q1.7-.65.654-.321.252-.093.506-.176c1.787-.595 2.486-.701 4.173-.739 3.536-.079 4.239-5.119.832-6.147Z"/><path fill="#d85bd2" d="M112.937 401.956c.462 20.384.908 40.781 1.851 61.15a4987 4987 0 0 0 3.169 60.493c2.371 40.527 5.416 81.006 8.943 121.448.985 11.3 2.226 22.582 3.41 33.862 1.233 11.75 2.856 23.395 4.75 35.056.36 2.214 2.988 3.582 5.019 3.276 2.147-.323 4.071-2.181 3.966-4.492-.467-10.277-1.013-20.514-1.93-30.762a4993 4993 0 0 1-2.605-30.165c-1.677-20.133-3.619-40.243-5.267-60.38-3.297-40.28-6.304-80.586-8.783-120.925-1.404-22.856-2.99-45.7-4.339-68.559-.13-2.207-1.788-4.092-4.092-4.092-2.179 0-4.143 1.873-4.092 4.092Zm87.215 348.869 69.816-13.936 69.816-13.936 19.597-3.912c6.532-1.304 13.098-2.454 19.455-4.428 1.592-.494 2.666-2.022 2.414-3.698-.227-1.511-1.62-3.097-3.31-2.922-6.124.635-12.12 1.93-18.14 3.193l-17.346 3.64-34.937 7.331-69.63 14.611-39.335 8.254c-1.591.334-2.513 2.204-2.102 3.702.457 1.662 2.103 2.421 3.702 2.102Zm139.166 33.039 36.723-7.222c1.564-.307 2.459-2.174 2.06-3.628-.446-1.624-2.062-2.378-3.628-2.06l-36.659 7.454c-1.498.305-2.361 2.079-1.976 3.48.43 1.565 1.975 2.271 3.48 1.976m48.36 24.333 7.225-2.447c.893-.302 1.672-.83 2.158-1.659.453-.774.645-1.915.364-2.782-.283-.874-.824-1.717-1.659-2.158s-1.862-.676-2.782-.364l-7.225 2.447c-.893.302-1.672.83-2.158 1.659-.453.774-.645 1.915-.364 2.782.283.874.824 1.717 1.659 2.158s1.862.676 2.782.364"/><path d="M755.319 235.283 712.41 290.76c-1.601 2.07-3.252 4.249-3.71 6.825-.447 2.518.306 5.076 1.05 7.522l14.239 46.757c.504 1.655 1.047 3.377 2.255 4.616 1.617 1.658 4.072 2.108 6.358 2.475l66.924 10.728c2.67.428 5.455.849 8.034.039 2.79-.876 4.94-3.061 6.967-5.169l41.379-43.022c3.005-3.124 6.141-6.49 7.001-10.739.686-3.386-.179-6.873-1.038-10.22l-13.081-50.933-92.591-21.467"/><path d="M752.213 232.176c-2.168 2.239-4.446 4.418-6.511 6.746-2.079 2.343-4.032 4.813-6.043 7.214-4.03 4.811-8.067 9.616-12.042 14.474l-11.932 14.584-5.966 7.292c-2.099 2.566-4.4 5.082-6.154 7.9-1.994 3.204-3.001 6.994-2.611 10.764.369 3.558 1.353 6.967 2.246 10.417 1.581 6.108 3.555 12.129 5.372 18.171l5.456 18.148c.85 2.826 1.566 5.741 2.643 8.491.898 2.294 1.878 4.248 3.625 6.051 1.764 1.82 3.928 2.916 6.274 3.768 2.602.945 5.504 1.157 8.223 1.593l9.35 1.499 18.699 2.998c6.233 1 12.468 1.991 18.699 2.998 6.729 1.087 13.46 2.423 20.231 3.208 4.028.467 7.914-.206 11.543-2.027 2.763-1.387 5.106-3.682 7.242-5.884 4.329-4.463 8.647-8.936 12.97-13.405l26.287-27.167c4.553-4.706 9.372-9.448 11.279-15.914 2.094-7.1-.401-14.496-2.167-21.384l-9.302-36.282-2.341-9.131c-.735-2.866-3.237-5.474-6.151-6.151L778.91 224.37l-20.358-4.729c-4.499-1.045-9.792 1.391-10.883 6.179-1.028 4.515 1.357 9.767 6.179 10.883l72.239 16.716 20.363 4.712-6.151-6.151 7.231 28.106 3.585 13.933c1.187 4.614 2.695 9.261 3.412 13.976l-.313-2.328c.184 1.403.244 2.789.102 4.199l.312-2.325a14 14 0 0 1-.848 3.229l.881-2.087c-.639 1.496-1.487 2.854-2.463 4.152l1.364-1.765c-2.64 3.403-5.818 6.411-8.79 9.519l-9.797 10.248-19.423 20.316-5.5 5.753c-1.623 1.698-3.202 3.459-5.047 4.921l1.722-1.331c-.85.64-1.731 1.185-2.706 1.614l2.03-.857c-.813.318-1.626.523-2.49.649l2.258-.303c-1.508.158-2.993.062-4.494-.126l2.254.303c-9.647-1.322-19.258-3.017-28.872-4.559l-28.787-4.615-8.119-1.302c-2.374-.381-4.85-.61-7.104-1.493l2.012.849a8.7 8.7 0 0 1-1.642-.937l1.703 1.316a7.4 7.4 0 0 1-1.085-1.11l1.315 1.702a10 10 0 0 1-.964-1.728l.847 2.007c-1.73-4.254-2.821-8.853-4.174-13.241l-4.19-13.584-4.19-13.584c-.688-2.229-1.463-4.423-2.236-6.624s-1.628-4.374-1.995-6.678l.277 2.06c-.11-.9-.132-1.771-.035-2.674l-.273 2.03a11.3 11.3 0 0 1 .651-2.358l-.759 1.799c.849-1.966 2.139-3.663 3.394-5.382l4.388-6.005 8.775-12.011a2553 2553 0 0 0 17.396-24.112c1.619-2.27 3.404-4.499 4.84-6.884s2.91-4.774 4.365-7.161c2.59-4.249-3.415-8.923-6.9-5.324Z"/><path d="M791.602 141.243c-3.563 6.967-7.152 13.973-11.209 20.668a561 561 0 0 1-12.758 20.083c-4.36 6.554-8.901 12.981-13.269 19.528s-8.868 12.995-13.504 19.35c-5.261 7.213-10.432 14.479-15.887 21.551l1.313-1.699c-5.518 7.141-11.503 14.058-16.422 21.636-2.619 4.036-4.927 8.206-6.482 12.771-.673 1.976-.979 3.997-1.63 5.971s-1.217 3.991-1.676 6.025a87 87 0 0 0-1.262 6.812c-.209 1.466-.405 2.935-.524 4.411-.158 1.955.384 3.629 1.256 5.364l-.674-2.491c.175 1.648.342 3.157 1.118 4.64.458.875.919 1.742 1.367 2.623 1.209 2.38 4.659 1.57 5.39-.704.128-.399.245-.809.399-1.199-.127.321.226-.443.28-.551.326-.65.636-1.314.821-2.018.093-.354.443-1.508.036-.63.509-1.098 1.096-2.061 1.273-3.285.137-.949.295-1.894.483-2.834.381-1.9.867-3.756 1.526-5.578.306-.846.64-1.679.974-2.514.267-.667-.196.474-.205.487.146-.198.251-.573.358-.811q.32-.708.656-1.41c.369-.77.946-1.577 1.203-2.387.195-.615-.327.422-.443.503.149-.103.3-.336.418-.475a38 38 0 0 0 1.814-2.344c1.139-1.58 2.387-3.135 3.422-4.782 2.075-3.303 4.326-6.484 6.572-9.671 2.6-3.689 5.347-7.272 8.106-10.844l-1.317 1.705c5.524-7.149 11-14.327 16.253-21.68 4.918-6.884 9.516-13.97 13.97-21.162q3.31-5.344 6.499-10.762c3.189-5.418 3.997-7.385 5.893-11.125a567 567 0 0 0 11.002-22.97c3.937-8.716 7.961-17.396 11.719-26.192.814-1.905.633-4.347-1.425-5.435-1.815-.959-4.424-.55-5.435 1.425Z"/><path d="M649.484 190.289c4.831 11.094 9.728 22.161 14.25 33.38s8.784 22.544 13.154 33.826 8.409 22.728 12.264 34.225c3.777 11.264 7.037 22.685 10.485 34.051 1.804 5.946 3.716 11.869 6.077 17.621.756 1.842 1.417 3.662 2.559 5.292a120 120 0 0 0 3.477 4.675c.469.605.928 1.226 1.431 1.804.534.613-.632-1.008.095.159.23.37.486.727.732 1.087.554.808 1.1 1.7 1.794 2.394.909.908 2.179 1.274 3.355 1.71 2.452.909 4.668-1.402 4.8-3.656.053-.908.213-1.871-.074-2.758-.284-.877-.747-1.71-1.165-2.528-.165-.323-.313-.659-.49-.976-.114-.205-.341-.884-.027.038a63 63 0 0 1-.643-2.024 90 90 0 0 1-1.089-3.913c-.159-.625-.298-1.257-.46-1.881-.152-.587-.347-1.071-.587-1.64q-.254-.608-.515-1.213.56 1.334.263.62c-2.121-5.217-3.933-10.535-5.584-15.917s-3.165-10.778-4.803-16.15c-1.76-5.77-3.833-11.463-5.903-17.128-8.459-23.148-18.864-45.495-30.033-67.441-6.187-12.157-12.319-24.34-18.477-36.511-.69-1.363-2.609-1.753-3.87-1.015-1.446.846-1.627 2.464-1.015 3.87Z"/><path d="M615.814 349.111a2074 2074 0 0 0 34.621 7.471c11.651 2.409 23.354 4.468 35.088 6.432 6.019 1.007 12.042 2.117 18.091 2.93l.848.114q-1.322-.178-.228-.031l2.188.294 1.96.262q2.328.31 4.657.616 4.412.579 8.827 1.138a2075 2075 0 0 0 35.596 4.198c6.544.715 13.105 1.236 19.667 1.758 3.274.26 6.558.605 9.84.717q2.583.089 5.168.171a33 33 0 0 0 6.164-.382c2.305-.347 4.209-3.166 4.109-5.397-.114-2.553-1.676-4.601-4.109-5.397-2.783-.911-5.754-1.113-8.648-1.519-3.348-.47-6.702-.812-10.064-1.161-5.902-.613-11.796-1.338-17.703-1.905-11.793-1.132-23.582-2.283-35.359-3.576-23.494-2.581-46.977-5.328-70.495-7.693a2052 2052 0 0 1-39.497-4.36c-3.035-.365-3.669 4.657-.72 5.32Zm139.939 93.131c1.433-1.844 2.802-3.77 4.426-5.451s3.243-3.347 4.872-5.013c3.275-3.348 6.311-6.873 9.396-10.397 6.174-7.053 12.37-14.075 18.486-21.178 12.194-14.163 24.644-28.156 37.549-41.677 3.62-3.793 7.279-7.55 10.958-11.286 3.94-4.002 8.162-7.826 11.39-12.45 1.298-1.86.803-4.985-.838-6.491s-4.531-2.255-6.491-.838c-4.084 2.953-7.418 6.674-10.843 10.34a1128 1128 0 0 0-9.56 10.362c-6.33 6.947-12.648 13.903-18.852 20.963-12.563 14.298-24.829 28.876-36.111 44.21-3.129 4.254-6.393 8.457-9.164 12.955q-2.016 3.271-4.009 6.556c-1.423 2.346-3.071 4.496-4.708 6.696-1.495 2.009 1.946 4.695 3.497 2.698Zm142.635-31.654a6114 6114 0 0 0-5.631-29.454c-1.899-9.806-4.14-19.518-6.395-29.248s-4.518-19.424-6.932-29.102l-3.622-14.508c-1.207-4.836-2.326-9.693-3.803-14.453-1.674-5.395-3.334-10.794-5.023-16.184s-2.682-11.426-6.164-16.043c-.638-.846-1.459-1.404-2.579-1.236-.92.138-1.992.846-2.151 1.854-.829 5.241.51 10.299 1.575 15.41 1.036 4.972 1.928 9.977 2.881 14.966.939 4.917 1.999 9.76 3.212 14.616l3.623 14.507c2.435 9.753 4.949 19.48 7.517 29.199 2.546 9.634 4.95 19.312 7.786 28.864a6136 6136 0 0 1 9.556 32.506c.481 1.654 2.246 2.689 3.924 2.228 1.776-.488 2.548-2.225 2.228-3.924Zm48.012-153.55c-6.169-.836-12.344-1.692-18.487-2.707-6.044-.998-12.056-2.285-18.057-3.512-12.109-2.475-24.176-5.157-36.21-7.971-11.97-2.799-23.897-5.842-35.915-8.43-12.065-2.598-24.13-5.194-36.19-7.813-13.841-3.006-27.707-5.89-41.57-8.791-2.112-.442-4.264-.307-6.168.807-1.66.972-3.244 2.875-3.679 4.784-.92 4.038 1.215 8.895 5.591 9.846 24.457 5.319 48.932 10.543 73.446 15.598 24.661 5.086 49.702 8.616 74.673 11.792 6.802.865 13.611 1.668 20.429 2.397 7.004.748 13.983 1.74 20.986 2.51 2.134.235 3.997-1.83 4.256-3.757.255-1.897-.967-4.465-3.104-4.754Z"/><path fill="#f45b5b" d="m759.95 274.597 7.095-5.607c2.365-1.869 4.801-3.658 7.053-5.65.853-.755.835-2.154.179-3.003-.646-.836-2.014-1.248-2.95-.589-2.583 1.818-5.012 3.876-7.49 5.835l-7.206 5.695c-.968.765-.86 2.53 0 3.319 1.027.943 2.287.816 3.319 0m-.521 33.247a1717 1717 0 0 1 40.412-34.943c2.114-1.771 4.435-3.427 5.798-5.877.717-1.289.639-2.915-.287-4.077-.852-1.069-2.477-1.829-3.859-1.316-2.826 1.05-4.942 3.089-7.162 5.069a1719 1719 0 0 0-17.051 15.423 1722 1722 0 0 0-22.532 21.038c-1.296 1.232-1.242 3.44 0 4.681 1.326 1.326 3.343 1.194 4.681 0Zm12.913 21.375c13.944-11.897 27.681-24.047 41.245-36.375a1410 1410 0 0 0 5.569-5.088c2.033-1.867 4.43-3.634 5.55-6.209.503-1.158.6-2.354-.24-3.409-.703-.883-2.082-1.546-3.226-1.1-1.387.54-2.401 1.066-3.511 2.071-.842.762-1.643 1.564-2.449 2.364a1464 1464 0 0 1-14.945 14.615c-6.591 6.353-13.282 12.598-20.032 18.782a1468 1468 0 0 1-11.704 10.605c-1.065.955-.972 2.773 0 3.745 1.079 1.079 2.654.931 3.745 0Zm37.808 4.023c2.809-2.408 5.689-4.755 8.403-7.27 1.189-1.102 1.204-3.037.254-4.267-.415-.537-1.008-1.01-1.688-1.165-.789-.18-1.831-.192-2.504.328-3.154 2.437-6.173 5.051-9.231 7.608-.628.525-.987 1.596-.987 2.383 0 .827.367 1.814.987 2.383.642.59 1.486 1.027 2.383.987.932-.042 1.674-.379 2.383-.987"/></svg>