<?xml version="1.0" encoding="UTF-8"?><svg xmlns="http://www.w3.org/2000/svg" data-name="ARTWORK" viewBox="0 0 1000 1000"><g fill="#70e8a0"><path d="M413.507 957.656 175.646 765.613c-39.848-32.172-80.219-64.893-109.945-106.598s-47.979-94.267-37.916-144.483c5.418-27.036 18.662-51.942 34.376-74.601 23.774-34.283 53.307-64.117 82.928-93.496 80.09-79.436 163.753-158.205 264.968-208.005a563.4 563.4 0 0 1 110.388-40.616c27.808-7.038 56.41-11.965 85.069-10.777 96.921 4.016 176.635 75.318 242.242 146.772 27.229 29.655 53.811 60.307 74.031 95.121 65.013 111.936 56.473 250.213 45.979 379.234-1.371 16.85-2.916 34.295-11.172 49.047-10.739 19.186-31.042 30.754-50.785 40.43-153.211 75.085-328.284 92.32-487.391 153.934"/><path d="M416.742 954.422c-19.369-16.698-38.54-33.597-58.278-49.857l-58.568-48.249c-39.298-32.374-78.753-64.556-118.184-96.768C117.008 706.689 40.954 643.73 34.905 553.602c-1.465-21.832 2.109-43.025 10.139-63.357 8.253-20.896 20.961-40.105 34.449-57.952 27.476-36.358 61.009-68.042 93.504-99.821 63.098-61.707 129.154-121.803 205.881-166.259 40.567-23.505 83.779-41.999 128.915-54.729 43.453-12.255 88.605-19.828 133.247-9.48 79.565 18.444 142.683 78.593 196.428 136.76 30.754 33.284 60.635 67.804 81.807 108.159 19.503 37.173 31.228 77.935 37.798 119.281 6.706 42.199 7.818 85.21 6.763 127.858-.546 22.075-1.735 44.13-3.234 66.16-1.459 21.433-2.279 43.239-5.264 64.522-1.446 10.309-3.99 20.633-9.546 29.538-4.646 7.445-11.304 13.66-18.446 18.69-17.516 12.336-37.927 20.953-57.481 29.476-41.193 17.956-83.981 32.158-127.081 44.755-87.713 25.635-177.348 44.33-264.453 72.105-21.14 6.741-41.955 14.352-62.649 22.344-5.182 2.001-8.766 6.917-7.188 12.66 1.361 4.952 7.447 9.201 12.66 7.188 87.631-33.843 179.898-53.961 270.508-77.907 44.964-11.882 89.739-24.676 133.502-40.479 22.431-8.1 44.584-17.006 66.306-26.854 19.484-8.834 39.378-17.874 55.918-31.692 8.146-6.806 15.319-15.251 20.037-24.799 5.495-11.12 7.997-22.999 9.537-35.222 2.817-22.362 3.975-45.059 5.484-67.541 2.986-44.481 4.69-89.159 2.208-133.709-2.447-43.914-8.848-87.978-22.481-129.896-14.308-43.994-36.809-83.5-65.465-119.685-27.796-35.099-58.877-68.398-91.694-98.852-30.909-28.684-65.125-54.959-103.361-73.117-39.618-18.815-82.674-27.951-126.534-23.855-49.458 4.618-98.236 20.342-143.667 39.915-84.822 36.544-158.265 94.27-225.603 156.602-33.846 31.33-67.084 63.596-98.922 96.969-32.451 34.015-64.369 71.601-81.231 116.086-16.423 43.329-11.349 90.086 6.716 132.013 18.037 41.862 48.803 76.49 82.38 106.678 36.225 32.568 75.41 61.979 113.467 92.348 40.844 32.592 81.865 64.96 122.844 97.383 19.744 15.622 40.012 30.542 60.099 45.721 4.122 3.114 9.463-3.804 5.543-7.184Z"/></g><path d="M626.713 203.844c-15.307-2.893-30.66-5.535-46.056-7.91s-30.635-5.076-46.008-7.29c-30.883-4.447-62.635-7.292-94.437-8.731-30.392-1.376-61.077-2.348-91.485-.964-27.583 1.256-55.858 5.996-78.356 23.13-38.428 29.265-51.47 79.515-61.132 124.49-13.231 61.586-26.87 123.084-40.373 184.611-6.696 30.51-13.672 60.973-20.035 91.554-5.995 28.816-10.528 58.591-4.895 87.843 1.3 6.75 3.233 13.342 5.789 19.722 2.006 5.008 6.999 9.086 12.734 7.23 4.842-1.567 9.391-7.354 7.23-12.734a108 108 0 0 1-5.895-20.163c-.282-1.49-.521-2.985-.76-4.482-.476-2.989.207 2.153-.117-.859-.098-.906-.207-1.81-.297-2.717a142 142 0 0 1-.634-10.492c-.169-6.934.131-13.874.751-20.781.306-3.414.69-6.821 1.14-10.219-.277 2.088.005.009.08-.511q.166-1.162.342-2.323.458-3.021.969-6.035c2.438-14.393 5.69-28.635 8.804-42.893l9.932-45.471c13.242-60.625 26.192-121.322 39.742-181.879 5.401-24.139 10.322-48.499 18.266-71.968 1.841-5.439 3.726-10.956 6.096-16.191-1.243 2.745.419-.927.703-1.565a193 193 0 0 1 1.698-3.704 172 172 0 0 1 3.791-7.56c2.614-4.9 5.481-9.67 8.651-14.231q1.022-1.471 2.086-2.912c.405-.549.803-1.233 1.289-1.713-2.021 1.999-.369.493.074-.057 1.634-2.026 3.339-3.996 5.114-5.9s3.616-3.735 5.531-5.493a96 96 0 0 1 2.93-2.582 125 125 0 0 1 2.47-2.038q1.372-1.083-.516.384c.572-.785 2.096-1.559 2.89-2.117a90 90 0 0 1 10.88-6.559c1.611-.822 3.25-1.576 4.899-2.317-2.082.935-.218.093.321-.122a99 99 0 0 1 2.099-.81 110 110 0 0 1 10.295-3.254 132 132 0 0 1 9.701-2.169q2.232-.414 4.474-.765c.895-.14 1.799-.306 2.7-.4-2.565.267.187-.017.754-.085 14.121-1.695 28.414-1.95 42.619-2.288q23.151-.55 46.307-.323c30.482.3 61.041 1.309 91.455 3.411 15.178 1.049 30.382 1.656 45.556 2.851 15.035 1.184 29.977 2.922 44.917 4.977a1419 1419 0 0 1 22.201 3.237c2.727.419 5.501-.691 6.293-3.573.686-2.497-.844-5.777-3.573-6.293ZM172.596 728.673c5.804 7.701 14.59 10.436 23.633 12.51 11.978 2.747 23.897 5.96 35.931 8.433 23.894 4.91 48.053 8.983 72.174 12.591 48.701 7.284 97.702 12.713 146.826 16.162a2497 2497 0 0 0 146.24 5.969c39.688.455 84.25 1.7 117.263-23.947 33.704-26.184 37.274-71.953 45.769-110.563 10.066-45.752 23.629-90.635 37.646-135.304s28.555-89.318 40.585-134.635c5.836-21.985 12.142-44.416 13.558-67.219 1.124-18.106-1.356-39.981-13.979-54.062-7.966-8.887-19.342-14.353-30.157-18.863-12.854-5.359-26.257-9.392-39.711-12.937-14.485-3.817-29.087-7.315-43.935-9.326-7.943-1.076-14.184-1.894-21.348-2.698-5.638-.633-11.798-1.271-17.123-1.846-1.816-.196-4.454-.629-6.582-.943q-1.592-.237-3.183-.479c-.423-.064-.845-.141-1.269-.198-1.262-.168-.548-.021-1.6-.256-5.056-1.13-7.215 6.643-2.144 7.777 9.016 2.015 19.13 5.359 28.881 8.25 6.649 1.971 11.84 3.467 18.993 5.607a527 527 0 0 0 20.715 5.749c14.089 3.598 28.112 7.549 41.843 12.349q2.315.81 4.618 1.654c.813.299 1.619.623 2.439.902-.511-.174-2.383-1.014.196.041.734.3 1.462.602 2.198.896 1.45.58 2.893 1.175 4.342 1.758-2.447-.985-.04-.013.521.231q1.26.547 2.513 1.114c5.249 2.375 10.442 4.988 15.372 7.975a78 78 0 0 1 3.073 1.958q.783.526 1.551 1.073c.369.263 2.09 1.584.633.438-1.444-1.136 1.143.961 1.647 1.41a38 38 0 0 1 2.503 2.432c.303.324.591.66.888.99 1.498 1.661-.498-.088-.403-.581-.073.382 1.323 1.957 1.565 2.382.407.716.77 1.459 1.128 2.2q.368.755.713 1.521c-.1-.224-.401-.992.046.104 1.041 2.556 1.876 5.207 2.566 7.878a76 76 0 0 1 1.443 7.022c.193 1.21.045.246.014 0 .07.55.126 1.102.182 1.654q.224 2.216.337 4.44c.271 5.262.101 10.54-.363 15.786a145 145 0 0 1-.343 3.41c-.044.395-.474 3.675-.288 2.375a201 201 0 0 1-1.311 7.939c-.969 5.246-2.119 10.457-3.348 15.648-10.498 44.36-24.075 87.926-37.797 131.371-13.796 43.679-27.824 87.319-39.287 131.684-5.53 21.404-10.158 42.964-14.524 64.63-1.894 9.396-4 18.771-6.81 27.941a162 162 0 0 1-2.101 6.392 135 135 0 0 1-1.798 4.818c-.121.306-.994 2.424-.292.774a98 98 0 0 1-6.201 12.197 84 84 0 0 1-3.596 5.496q-.588.825-1.196 1.634c.127-.168.897-1.131.124-.178a72 72 0 0 1-9.461 9.757c-.529.453-3.163 2.489-1.623 1.357a83.5 83.5 0 0 1-11.098 6.919q-1.508.78-3.041 1.51-.658.313-1.321.615c-.274.125-2.138.959-.919.426.925-.404-1.437.573-1.855.734q-1.829.704-3.683 1.339c-4.219 1.446-8.525 2.63-12.876 3.605a150 150 0 0 1-6.897 1.371q-1.494.261-2.991.495-1.002.154-2.004.301c-.951.141-1.236.154-.113.019-9.315 1.116-18.66 1.695-28.039 1.89-22.525.47-45.112-.138-67.63-.723a2494 2494 0 0 1-71.502-2.883c-47.381-2.591-94.759-6.234-141.96-11.112-23.664-2.445-47.339-4.763-70.99-7.336q-17.71-1.926-35.391-4.109c-17.681-2.183-23.562-2.108-35.312-3.501-8.821-1.046-19.73-1.308-26.452-7.925-2.387-2.35-6.983.851-4.821 3.72Z"/><path d="M363.029 767.074c-2.067 49.254 6.933 98.942 26.147 144.341 5.394 12.745 12.374 25.99 24.712 32.259 13.258 6.735 29.157 3.703 43.682.518 148.262-32.513 296.652-65.131 442.28-107.922 28.356-8.332 61.992-23.493 63.748-52.996.619-10.409-3.195-20.507-6.841-30.276-49.055-131.408-85.316-275.148-114.613-412.32-37.053 130.63-39.893 160.534-78.428 274.601-17.456 51.671-15.673 115.092-59.453 147.618-24.423 18.145-55.88 23.435-86.151 26.493-80.759 8.159-158.191.036-237.796-15.83"/><path d="M357.733 767.074c-1.225 10.387-1.965 20.665-1.734 31.121.223 10.134.737 20.372 2.083 30.422 2.778 20.725 6.96 41.354 13.571 61.221 3.273 9.837 6.982 19.54 11.161 29.029 3.676 8.345 8.154 16.398 14.381 23.133 6.567 7.102 15.375 12.103 24.93 13.75 10.619 1.83 21.211.529 31.701-1.531 21.058-4.135 42.003-8.977 62.982-13.496 21.456-4.622 42.906-9.272 64.342-13.982 42.867-9.418 85.655-19.155 128.319-29.455 42.643-10.295 85.171-21.074 127.505-32.576a3543 3543 0 0 0 63.341-17.826c15.325-4.471 30.836-9.896 44.296-18.652 13.171-8.569 25.143-20.899 28.317-36.828 4.162-20.892-6.244-40.856-13.203-59.986-14.302-39.316-27.315-79.095-39.359-119.158-12.167-40.476-23.278-81.263-33.659-122.232-10.299-40.645-19.835-81.483-28.863-122.429a5190 5190 0 0 1-6.408-29.482c-2.05-9.561-16.104-8.789-18.589 0-12.91 45.664-24.884 91.561-37.046 137.426-10.674 40.253-22.473 80.145-35.555 119.684-3.915 11.833-8.07 23.569-11.191 35.645-2.92 11.298-5.283 22.729-7.738 34.134-2.426 11.271-4.924 22.542-8.177 33.608-1.576 5.361-3.327 10.674-5.352 15.884q-.3.771-.606 1.538c-.112.279-1.169 2.823-.282.734q-.721 1.698-1.49 3.373a123 123 0 0 1-3.81 7.64 108 108 0 0 1-3.896 6.603 98 98 0 0 1-3.407 4.986c-.275.377-1.755 2.285-.432.612-3.379 4.273-7.102 8.261-11.209 11.844a90 90 0 0 1-3.221 2.676c1.54-1.223-1.613 1.163-2.089 1.498a101 101 0 0 1-8.845 5.554 113 113 0 0 1-8.409 4.24c-.753.342-1.507.681-2.269 1.003 1.268-.535-.267.1-.438.167-1.857.72-3.71 1.441-5.59 2.101-12.672 4.446-25.938 7.16-39.23 8.943 1.582-.212-.555.066-.93.113a419 419 0 0 1-7.523.877c-3.571.386-7.147.734-10.724 1.055a631 631 0 0 1-23.513 1.66c-30.958 1.61-61.931.806-92.824-1.593-31.296-2.43-59.924-6.422-90.786-11.965a1274 1274 0 0 1-23.245-4.403c-5.203-1.035-11.231 1.482-12.512 7.104-1.15 5.051 1.524 11.402 7.104 12.512 62.579 12.444 126.155 20.676 190.069 19.057 29.954-.759 60.645-2.74 89.966-9.244 25.651-5.69 51.295-16.988 68.387-37.622 30.888-37.289 31.584-88.458 45.417-132.833 7.321-23.485 15.497-46.692 22.665-70.232 5.759-18.911 11.171-37.924 16.326-57.008 11.711-43.35 22.726-86.88 34.772-130.141q3.082-11.061 6.223-22.104h-18.589c8.492 39.886 17.425 79.68 26.999 119.321 9.697 40.147 20.02 80.145 31.226 119.898 11.097 39.368 22.953 78.518 35.988 117.29a2032 2032 0 0 0 20.144 57.037c1.816 4.913 3.624 9.848 4.869 14.943.264 1.082.506 2.171.713 3.265.103.545.202 1.092.284 1.641.27 1.816-.093-1.287.041.541.179 2.441.185 4.832.009 7.274-.026.359-.023.817-.122 1.163.013-.046.473-1.971.089-.86-.281.812-.334 1.754-.541 2.594-.313 1.271-.685 4.003-1.585 4.946-.018.019.894-1.86.333-.795-.17.322-.304.67-.463.998q-.56 1.155-1.192 2.271c-.847 1.498-1.938 2.843-2.798 4.321-.563.968.45-.57.501-.631-.242.284-.464.583-.707.866-.57.664-1.137 1.329-1.731 1.972a58 58 0 0 1-3.795 3.737 65 65 0 0 1-1.751 1.52c-.253.212-2.485 1.927-1.395 1.138 1.07-.774-.87.614-1.176.831a86 86 0 0 1-2.643 1.799c-3.075 2.011-6.275 3.83-9.548 5.499a129 129 0 0 1-4.86 2.349c-.884.406-1.775.798-2.665 1.189-.179.079-1.476.624-.3.133 1.21-.505-.478.19-.693.277-17.145 6.957-35.372 11.397-53.14 16.441-41.058 11.655-82.324 22.569-123.719 32.964s-83.333 20.303-125.088 30.081-83.581 19.26-125.421 28.674c-10.41 2.342-20.819 4.693-31.236 7.005-9.474 2.102-17.496 4.051-26.872 3.742-3.794-.125-7.701-.712-11.391-2.331-3.622-1.588-5.728-3.241-8.453-5.984-3.179-3.2-4.306-4.867-6.667-8.781-2.178-3.61-4.055-7.392-5.784-11.234-15.897-35.314-25.086-75.045-28.063-113.817-.753-9.806-1.551-19.623-1.919-29.456-.261-6.972-9.81-6.631-10.592 0Z"/><g fill="#8170f9"><path d="M594.008 703.883a4128 4128 0 0 1-319.261-33.414c-14.078-2.03-28.321-4.18-41.423-9.719-4.263-1.802-8.648-4.218-10.705-8.364-1.829-3.688-1.468-8.036-1.063-12.132 2.742-27.793 6.395-57.703 25.309-78.25 8.255-8.968 18.836-15.412 29.396-21.499a829 829 0 0 1 108.428-52.399c23.096-9.157 49.312-17.243 72.177-7.525 17.533 7.452 29.3 23.881 40.147 39.542l33.071 47.743c5.353 7.728 11.008 15.733 19.27 20.22 15.684 8.517 32.639 1.964 48.636-1.687 37.338-8.523 89.189 6.397 93.58 50.413 2.146 21.511-3.319 51.221-25.344 61.042-8.644 3.855-18.45 3.836-27.913 3.668a1638 1638 0 0 1-191.32-14.633"/><path d="M594.008 700.393c-24.344-1.709-48.581-5.036-72.856-7.562a4149 4149 0 0 1-72.749-8.218c-24.038-2.931-47.809-5.811-72.157-8.982-23.148-3.015-46.937-6.539-71.004-9.858-11.819-1.63-23.646-3.24-35.436-5.065-11.292-1.748-22.679-3.92-33.278-8.325 1.619.673-.655-.328-1.199-.592-1.058-.511-2.102-1.041-3.098-1.667-.091-.057-1.779-1.412-.789-.511 1.019.927-.59-.634-.634-.671-.436-.372-.702-1.198.08.205-.301-.539-.982-1.804-.457-.488-.284-.711-.431-1.454-.607-2.195.082.347.099 1.718.02.01a42 42 0 0 1-.001-3.895c.119-2.509.343-5.013.587-7.512q.326-3.36.693-6.714a363 363 0 0 1 .615-5.236c.033-.265.372-2.822.243-1.895a256 256 0 0 1 .385-2.641q.28-1.865.592-3.725c.415-2.471.874-4.934 1.39-7.386.994-4.725 2.196-9.409 3.696-14a115 115 0 0 1 2.379-6.542c.575-1.454.165-.408.035-.106a87 87 0 0 1 2.48-5.266 68 68 0 0 1 3.448-5.969 73 73 0 0 1 1.84-2.708c.353-.495.719-.98 1.079-1.47q.505-.669-.131.171.457-.574.925-1.137c3.212-3.862 6.869-7.292 10.781-10.435 2.027-1.628-.613.444.613-.469a112 112 0 0 1 4.975-3.512 170 170 0 0 1 6.888-4.351c4.731-2.845 9.549-5.55 14.372-8.236 10.068-5.607 20.273-10.969 30.577-16.129a830 830 0 0 1 31.641-15.018 915 915 0 0 1 15.442-6.747c2.621-1.119-.796.33.753-.32l2.042-.855a858 858 0 0 1 12.298-5.017c10.271-4.094 20.623-8.08 31.351-10.822a126 126 0 0 1 7.377-1.659 143 143 0 0 1 4.107-.708c2.629-.425-1.195.098.416-.061.819-.081 1.636-.187 2.456-.263a78 78 0 0 1 7.746-.35 69 69 0 0 1 5.656.267c.284.026 2.966.364.712.038 2.53.366 5.034.888 7.493 1.589q1.763.501 3.488 1.122c-.048-.017 2.468.927 1.167.419q-.893-.392.309.138.673.303 1.338.625a56 56 0 0 1 5.749 3.228c1.028.658 2.008 1.374 3.014 2.064.358.246 1.475 1.066-.187-.175.585.437 1.146.911 1.707 1.379 3.787 3.158 7.239 6.702 10.455 10.436 1.461 1.696 2.952 3.414 4.27 5.225-1.272-1.748-.251-.318.077.116a203 203 0 0 1 3.338 4.545c13.743 19.19 26.757 38.92 40.285 58.264 6.368 9.106 13.482 18.305 23.848 23.062 11.703 5.371 24.037 4.982 36.409 2.415 5.242-1.087 10.402-2.525 15.607-3.772 1.862-.446 3.728-.864 5.612-1.209q1.32-.241 2.648-.444c.355-.054.717-.092 1.069-.157-3.167.58-1.215.163-.497.079a99.7 99.7 0 0 1 21.646-.141c.933.095 1.863.236 2.796.324-3.42-.321-.124.002.689.137q2.775.457 5.518 1.077a89 89 0 0 1 10.187 2.934 83 83 0 0 1 2.592.968c.428.168.85.352 1.279.515 1.262.48-2.408-1.076-.615-.252 1.656.762 3.304 1.527 4.915 2.382 3.115 1.654 5.967 3.609 8.859 5.612 1.085.752-2.03-1.647-.549-.419.273.226.551.446.824.672q1.02.848 2.001 1.741a56 56 0 0 1 3.737 3.741 53 53 0 0 1 1.727 2.001c.221.27.429.568.663.825-1.848-2.029-.883-1.176-.444-.547 1.07 1.533 2.115 3.065 3.046 4.688.808 1.41 1.511 2.864 2.209 4.33.843 1.771-.701-1.897-.257-.629.151.433.34.855.501 1.285q.487 1.307.903 2.638a53 53 0 0 1 1.403 5.547c.152.771.272 1.547.405 2.321.37 2.161-.241-2.487-.046-.284.05.565.115 1.13.164 1.695a90 90 0 0 1 .268 10.908 90 90 0 0 1-.41 5.984c-.055.534-.367 3.467-.184 1.679.189-1.837-.041.184-.087.473a79 79 0 0 1-.309 1.803c-.711 3.884-1.705 7.721-3.048 11.436-.3.83-.756 1.669-.974 2.522.608-2.376.554-1.255.179-.481-.216.446-.417.899-.635 1.344a49 49 0 0 1-2.891 5.127c-.463.715-1.358 1.609-1.662 2.393.058-.149 1.568-1.911.502-.66-.313.367-.616.743-.933 1.106-1.341 1.534-2.813 2.896-4.343 4.237-.708.62-.934.181.663-.495-.295.125-.666.487-.947.682a35 35 0 0 1-2.485 1.576c-.867.499-1.762.931-2.655 1.38-.447.225-1.173.807.313-.122-.656.41-1.601.586-2.347.819-1.316.411-2.656.75-4.007 1.027-.542.111-1.089.193-1.63.306-2.701.563 2.133-.146-.623.098-2.792.247-5.573.42-8.378.452-5.637.064-11.282-.129-16.917-.267-48.502-1.189-97-4.409-145.226-9.717-5.832-.642-11.659-1.272-17.499-1.835a1645 1645 0 0 1-14.718-1.487c-.06-.006-3.084-.315-1.261-.068-2.537-.344-4.694-.435-7.003.916-1.885 1.103-3.683 3.265-4.176 5.431-.972 4.266 1.309 10.496 6.347 11.179 13.099 1.775 26.089 4.131 39.231 5.657a1642 1642 0 0 0 36.91 3.861 1512 1512 0 0 0 74.952 5.134q18.533.802 37.079 1.184c12.289.253 25.032.762 36.586-4.114 17.445-7.362 27.414-24.688 30.83-42.691 3.283-17.298 2.755-36.01-5.483-51.896-7.738-14.921-21.667-25.109-36.909-31.387-14.315-5.896-30.498-8.12-45.909-7.014-9.474.68-18.477 2.887-27.662 5.159-2.538.628-5.083 1.227-7.648 1.731-1.207.237-2.419.433-3.631.642-2.692.463 2.135-.144-.578.068-.806.063-1.609.158-2.416.209-2.561.165-5.059.033-7.613-.109-1.582-.088 2.372.533-.136-.035-.657-.149-1.322-.26-1.978-.417-1.475-.354-2.896-.831-4.32-1.346 1.914.692.142.042-.344-.198a32 32 0 0 1-1.824-.969c-1.01-.583-2.37-1.222-3.16-2.072.188.203 1.62 1.377.238.157-.567-.5-1.143-.986-1.696-1.502a50 50 0 0 1-2.667-2.697 66 66 0 0 1-2.497-2.892c-.04-.049-1.6-2.029-.651-.8s-.578-.785-.614-.834c-1.646-2.229-3.217-4.511-4.795-6.788l-21.613-31.181c-12.626-18.216-24.733-38.09-42.858-51.399-19.436-14.271-43.997-14.281-66.431-8.223-11.27 3.043-22.112 7.452-32.87 11.936-11.338 4.725-22.59 9.651-33.721 14.846-21.68 10.118-42.895 21.198-63.644 33.107-9.9 5.682-19.748 11.481-28.513 18.85-8.13 6.835-14.703 15.416-19.545 24.852-9.636 18.775-12.657 39.862-14.947 60.588-.068.616-.164 1.238-.203 1.857l-.04.371q.34-2.24-.183 1.481c-.163 1.265-.328 2.533-.452 3.802-.303 3.096-.236 6.176.411 9.237 1.358 6.42 5.93 11.391 11.417 14.7 5.11 3.081 11.183 5.022 16.891 6.683 5.575 1.622 11.266 2.816 16.984 3.811 24.744 4.307 49.809 7.199 74.744 10.147a4123 4123 0 0 0 74.382 8.111A2620 2620 0 0 0 557.8 705.892c12.079.508 24.137.747 36.208 1.483 4.496.274 4.456-6.668 0-6.981Z"/></g><path fill="#f5834a" d="M606.99 295.216c-25.033 1.574-49.486 12.696-66.549 31.08s-26.372 43.936-24.351 68.936c3.73 46.126 48.412 84.082 94.68 83.141 46.267-.94 88.329-38.243 97.748-83.552 1.966-9.456 2.676-19.223 1.464-28.805-4.435-35.057-35.984-63.456-70.933-68.676s-71.165 10.531-95.032 36.59"/><path fill="#ff8345" d="M606.99 291.424c-12.087.075-24.275 2.178-35.644 6.295-11.982 4.339-22.986 11.125-32.508 19.581-4.85 4.307-9.035 9.277-12.878 14.492a93.6 93.6 0 0 0-9.182 15.338c-5.698 11.982-9.105 24.675-9.71 37.955-1.063 23.334 7.482 45.803 22.13 63.755 13.896 17.029 33.656 29.741 54.884 35.415 10.71 2.863 22.033 3.988 33.081 2.964 5.859-.543 11.708-1.483 17.401-2.983 5.678-1.496 11.143-3.571 16.517-5.922 20.343-8.898 37.706-24.295 50.012-42.674 14.162-21.151 21.196-47.436 17.624-72.763-1.535-10.887-5.699-21.516-11.549-30.803-6.336-10.058-14.508-18.494-23.944-25.651-18.334-13.907-41.645-20.591-64.562-18.953-12.226.874-24.231 3.656-35.545 8.369-6.001 2.5-11.812 5.271-17.322 8.734-5.457 3.43-10.654 7.31-15.567 11.479-1.097.931-2.278 1.849-3.213 2.946a96 96 0 0 0-2.504 3.103c-.574.734-1.207 1.438-1.715 2.218-.804 1.233 1.245-1.444.24-.328-.443.492-.864 1.005-1.29 1.513a116 116 0 0 0-2.012 2.467c-.564.711-2.459 2.812-.738.939-2.514 2.736-2.908 7.374 0 10.043 2.736 2.512 7.358 2.921 10.043 0 1.011-1.1 2.266-2.061 3.401-3.035.553-.475 1.12-.934 1.669-1.414-1.954 1.705.089.061.685-.342 1.693-1.146 3.411-2.208 5.003-3.501 1.236-1.004 2.464-2.016 3.723-2.992l-1.772 1.369c8.584-6.609 18.082-12.09 28.048-16.335l-2.184.922c8.839-3.729 18.115-6.349 27.626-7.633l-2.426.326c8.32-1.09 16.741-1.139 25.063-.032l-2.422-.325c7.348 1.011 14.509 2.994 21.352 5.853l-2.174-.917a90.2 90.2 0 0 1 19.982 11.661l-1.84-1.422c5.796 4.508 11.029 9.696 15.532 15.498l-1.425-1.845c4.077 5.299 7.508 11.062 10.136 17.213l-.921-2.182c2.42 5.741 4.108 11.754 4.965 17.927l-.327-2.434c.992 7.43.827 14.947-.166 22.367l.328-2.44a101.7 101.7 0 0 1-6.989 25.465l.928-2.2c-3.63 8.543-8.356 16.568-14.02 23.92l1.44-1.864a112.7 112.7 0 0 1-20.129 20.104l1.864-1.44c-7.225 5.548-15.108 10.197-23.501 13.745l2.2-.928c-7.828 3.276-16.037 5.564-24.45 6.695l2.448-.329c-7.622.994-15.319 1.018-22.941.01l2.448.329c-8.161-1.113-16.121-3.352-23.707-6.552l2.2.928a101.3 101.3 0 0 1-22.189-13.034l1.864 1.44c-6.791-5.283-12.829-11.393-18.103-18.187l1.439 1.862c-4.771-6.193-8.78-12.94-11.837-20.139l.912 2.161c-2.802-6.676-4.754-13.671-5.728-20.848l.318 2.367c-.981-7.484-.909-15.069.082-22.548l-.313 2.328c1.18-8.606 3.382-17.016 6.76-25.024l-.833 1.975a94.6 94.6 0 0 1 12.085-20.658l-1.212 1.569c3.22-4.137 6.77-8.058 10.577-11.663a95 95 0 0 1 5.726-5.002c.395-.318 2.256-1.697.494-.405.542-.397 1.072-.811 1.614-1.209a99 99 0 0 1 3.296-2.315c4.266-2.869 8.772-5.439 13.373-7.728a99 99 0 0 1 3.429-1.626c.485-.219.973-.429 1.459-.645 1.256-.557-1.118.449.17-.073q.562-.23 1.125-.458 3.563-1.425 7.221-2.582a96 96 0 0 1 8.535-2.275 99 99 0 0 1 7.243-1.296q.401-.052.803-.101c1.961-.243 3.891-1.57 3.792-3.792-.092-2.044-1.666-3.805-3.792-3.792Z"/><path fill="#8170f9" d="M279.822 414.587c.352-.711.731-1.406 1.15-2.078q.313-.501.651-.986l.344-.48c.331-.467-.087.093.129-.17a26 26 0 0 1 3.373-3.427c.167-.14 1.03-.79.443-.363.314-.229.628-.458.949-.676q.97-.66 1.993-1.234a29 29 0 0 1 2.106-1.072c.18-.083.361-.161.542-.242-.115.051-.757.295-.1.046.414-.157.825-.319 1.243-.465 1.544-.54 3.13-.956 4.739-1.249.329-.06.85-.246 1.181-.192-.076-.012-1.039.116-.248.038.196-.019.392-.043.589-.062a31 31 0 0 1 5.926.003c.197.019.394.044.591.063.866.088-.803-.143-.217-.028 1.592.313 3.154.617 4.696 1.138.417.141.828.298 1.24.455.189.072.827.305.075.026-.802-.297.016.018.195.102a24.5 24.5 0 0 1 3.538 2.039c.161.112.318.23.479.342.748.523-.739-.644-.266-.209.324.298.682.561 1.007.859.077.07.371.4.429.408-.256-.037-.826-1.161-.177-.185 1.36 2.043 3.964 3.432 6.453 2.626 2.405-.778 4.191-2.915 4.195-5.51 0-.502.183-1.54-.139.274.224-1.265.183-2.025 0-3.232-.068-.451-.141-1.652.01.267-.018-.225-.056-.453-.081-.676a35 35 0 0 1-.211-3.736 38 38 0 0 1 .14-3.402c.047-.538.363-2.562.005-.353.1-.615.188-1.231.304-1.844a41 41 0 0 1 1.891-6.732c.197-.525 1.079-2.31.107-.34.251-.51.462-1.042.709-1.555a52 52 0 0 1 1.77-3.323 43 43 0 0 1 1.822-2.902c.323-.471.662-.931.997-1.394.263-.362.794-.867-.427.545.26-.301.498-.624.753-.93a40.6 40.6 0 0 1 4.914-4.971c.404-.343 2.118-1.549.218-.22.464-.325.909-.678 1.375-1.001a37 37 0 0 1 3.178-1.977c.948-.524 1.92-.988 2.903-1.439.811-.372-1.726.681-.534.227.267-.102.531-.208.799-.308q.879-.327 1.774-.605a35 35 0 0 1 3.931-.976c.679-.128 3.031-.293.491-.114.558-.039 1.114-.123 1.673-.165 2.691-.205 5.391-.107 8.066.234l-1.856-.249a42.7 42.7 0 0 1 9.481 2.412c.254.097 1.698.693.415.15s.152.074.398.186a42 42 0 0 1 2.127 1.044 52 52 0 0 1 4.214 2.505c.706.462 1.39.953 2.073 1.449.97.703-1.346-1.089-.356-.275.348.286.698.568 1.04.86a39 39 0 0 1 3.388 3.273c.53.579 1.03 1.18 1.533 1.783.751.9-1.102-1.493-.051-.06.482.658.957 1.283 1.467 1.936.711.91-1.089-1.473-.044-.04a35 35 0 0 1 2.03 3.12c1.377 2.371 4.586 3.829 7.272 2.959 2.6-.841 4.888-3.316 4.728-6.21a82 82 0 0 1 .099-10.881 75 75 0 0 1 .253-2.63c.034-.3.218-1.753.075-.654-.149 1.138.088-.545.135-.837a65 65 0 0 1 1.083-5.339 58 58 0 0 1 1.536-5.174q.425-1.22.911-2.419c.57-1.407-.436.959.017-.033.203-.445.404-.892.615-1.333a45 45 0 0 1 2.657-4.783q.636-.995 1.328-1.954c.142-.196.29-.388.43-.585.387-.543-.444.564-.412.528.32-.362.607-.759.92-1.129a38 38 0 0 1 4.679-4.645c.157-.13.373-.274.521-.425-.026.026-1.286.949-.52.404a37 37 0 0 1 1.872-1.273c1.253-.78 2.586-1.349 3.886-2.032.092-.048-1.351.534-.748.318.191-.068.377-.15.566-.223q.498-.19 1.001-.364a33 33 0 0 1 4.265-1.153q.524-.105 1.05-.193l.452-.072c1.022-.173-.261-.023-.54.069 1.278-.421 3.07-.26 4.404-.248a33 33 0 0 1 3.165.178c.149.016.298.039.448.05.738.056-1.536-.24-.542-.072 1.42.24 2.82.527 4.2.942.75.226 1.481.494 2.214.767 1.214.452-1.228-.534-.07-.029.355.155.712.305 1.063.469 1.437.669 2.769 1.486 4.064 2.395.336.235.574.632-.457-.358.136.13.298.242.443.362.582.484 1.183.94 1.773 1.415-.037-.03-1.091-.898-.439-.328.144.126.294.245.438.37q.432.375.843.773a22 22 0 0 1 1.638 1.789q.135.166.272.331c.527.635-.404-.64-.11-.14.225.382.518.735.76 1.108 1.199 1.847 3.42 2.67 5.486 1.798a4.4 4.4 0 0 0 2.544-5.183c-1.827-6.867-6.769-12.557-13.294-15.402-7.05-3.074-14.539-3.769-22.105-2.564-16.25 2.588-27.39 16.179-32.322 31.119-2.872 8.701-3.819 18.14-3.428 27.267l12.649-1.712c-.85-2.169-1.741-4.442-2.98-6.431-1.25-2.008-2.79-3.893-4.365-5.654a44.3 44.3 0 0 0-9.911-8.247c-7.376-4.471-16.115-6.972-24.741-7.037-8.632-.065-17.41 2.447-24.502 7.416-7.595 5.321-13.337 12.511-16.915 21.049-1.884 4.497-2.931 9.2-3.371 14.052a37.6 37.6 0 0 0-.032 6.459c.124 1.508.328 3.016.573 4.509.257 1.561.842 2.874 1.527 4.288l7.818-7.818c-1.521-.892-2.897-1.991-4.466-2.812a31.5 31.5 0 0 0-5.832-2.359 32.4 32.4 0 0 0-11.332-1.158c-7.764.59-15.289 3.531-21.054 8.833-3.199 2.942-5.586 6.59-7.122 10.642-1.18 3.111 3.912 5.258 5.39 2.272Z"/><path fill="#70e8a0" d="M210.805 663.791c.482-2.155 1.195-4.298 1.967-5.91.877-1.831 2.246-4.058 3.248-5.378 1.041-1.372 2.9-3.31 4.489-4.677q.304-.262.615-.517c.083-.068.739-.587.348-.284s.273-.198.36-.261q.322-.234.652-.461a33 33 0 0 1 4.316-2.513c.217-.105 1.631-.71.719-.346a33 33 0 0 1 3.398-1.157 37 37 0 0 1 3.175-.713c.269-.049.54-.087.808-.136-.174.032-1.035.111-.091.012.61-.063 1.219-.12 1.831-.153a32.4 32.4 0 0 1 4.904.107c.17.017 1.049.098.346.027-.752-.076.393.061.542.086 2.304.384 4.516 1.041 6.707 1.84.903.329.061.013-.105-.059q.563.244 1.118.505.833.395 1.641.834a33 33 0 0 1 3.301 2.053c.223.158.44.324.663.482-.563-.399-.418-.333.044.045q.711.582 1.387 1.205c1.007.93 1.916 1.944 2.773 3.014 1.455 1.817 4.806 2.079 6.692.863 1.948-1.256 3.389-3.891 2.538-6.236a14 14 0 0 1-.432-1.378c-.057-.229-.096-.46-.15-.689-.228-.96.11.369.056.468.128-.237-.055-1.07-.048-1.357.005-.225.027-.449.035-.675.04-1.03-.202 1.065-.043.365.201-.884.442-1.734.677-2.609.191-.71-.542 1.09-.193.438.108-.202.195-.416.3-.62q.358-.698.781-1.358c.127-.198.267-.387.393-.586.357-.561.331.022-.273.325.321-.161.682-.816.937-1.092a20 20 0 0 1 1.575-1.526l.281-.24q.58-.47-.016-.006l-.302.23q.222-.17.45-.331.303-.218.614-.425a23 23 0 0 1 2.436-1.417c.225-.113.455-.215.68-.326 1.182-.582-1.267.439-.022.014.953-.325 1.894-.645 2.878-.865.486-.109.989-.157 1.472-.272-.128.03-1.487.125-.474.084.309-.012.617-.044.926-.055q.648-.023 1.296.002c.246.01.492.036.738.045.987.036-.288-.035-.425-.077 1.223.367 2.544.468 3.781.833q.82.242 1.622.532c.268.096.532.2.798.3.587.22.324.426-.264-.118.302.279.991.454 1.352.633q.864.428 1.704.9a41 41 0 0 1 2.934 1.823q.722.49 1.424 1.005c.216.159.503.333.702.524-1.121-1.072-.103-.072.142.126 4.25 3.439 8.051 7.421 11.793 11.395 1.802 1.913 5.247 2.409 7.485.966 2.433-1.569 3.384-4.171 2.839-6.975a165 165 0 0 1-1.035-5.803q-.113-.714-.217-1.429-.043-.308-.088-.615c-.104-.702.083.628.081.608-.086-1.101-.267-2.199-.368-3.301a63.4 63.4 0 0 1 .008-11.58c.062-.682-.097.656-.091.645.083-.152.097-.639.12-.776q.096-.578.21-1.152.282-1.42.695-2.809.19-.64.411-1.272c.068-.194.65-1.621.239-.691-.417.943.21-.44.315-.655q.333-.68.709-1.338c.111-.194 1.498-2.16 1.456-2.23.012.02-.786.955-.359.469.17-.194.329-.398.499-.593a22 22 0 0 1 2.07-2.078c.143-.125.298-.242.438-.37.477-.44-.484.362-.479.359.813-.452 1.54-1.071 2.362-1.526q.57-.315 1.158-.595c.221-.105.46-.193.676-.306.021-.011-1.206.458-.583.26.889-.283 1.75-.608 2.658-.833q.635-.157 1.276-.279c.184-.035.369-.065.553-.1 1.021-.193-.371.05-.486.054.945-.03 1.883-.175 2.832-.186a29 29 0 0 1 2.487.077c.45.033.896.086 1.344.13.815.079-1.257-.206-.45-.057.255.047.512.083.767.129 1.866.337 3.702.837 5.485 1.481.433.157.859.331 1.289.495.625.239-.543-.231-.534-.225.203.131.495.221.719.326a35 35 0 0 1 4.792 2.716c.378.256.742.531 1.117.792.658.458-.913-.746-.298-.235.199.166.403.325.602.492 1.602 1.341 3.088 2.828 4.471 4.393q.51.577 1.001 1.17l.418.51c.721.87-.101-.057-.135-.192.092.37.703.938.917 1.235q.514.714 1.008 1.444c2.657 3.934 4.832 8.174 6.747 12.511q.137.308.27.617c.075.172.577 1.367.223.51-.309-.749-.015-.035.04.1l.427 1.04a192 192 0 0 1 1.323 3.346c.885 2.298 1.733 4.61 2.577 6.924 1.055 2.892 3.55 4.815 6.722 4.389 2.873-.386 5.461-2.959 5.312-6.017-.222-4.574-.435-9.162-.26-13.742.044-1.138.112-2.276.212-3.411.043-.484.098-.967.146-1.451.039-.388-.08-1.044-.035.179-.011-.302.096-.658.144-.957.357-2.22.868-4.418 1.578-6.553q.267-.801.572-1.589c.084-.218.155-.469.268-.674-.027.049-.442.958-.129.334.455-.907.884-1.812 1.411-2.682q.364-.601.76-1.181c.129-.19.925-1.209.353-.531-.608.721.391-.471.541-.646q.527-.614 1.089-1.194a27 27 0 0 1 1.912-1.791c.204-.173.415-.339.62-.511.515-.431-.427.348-.424.331.047-.256 1.058-.742 1.314-.906q1.08-.696 2.23-1.271c.233-.117.475-.218.707-.338.581-.301-.537.218-.538.219.49-.11.976-.374 1.457-.527a19 19 0 0 1 2.417-.604c1.487-.269-.97.043.108-.011.507-.026 1.011-.062 1.52-.057.445.004.888.059 1.332.066.655.011-.64-.101-.636-.1.178.054.387.063.57.098.674.127 2.389.326 2.872.829.013.014-1.066-.512-.459-.186.245.131.502.241.749.37q.553.29 1.087.616c.416.254.814.53 1.215.805.126.086.678.535.066.039-.705-.572.233.209.373.331 1.411 1.223 3.108 2.725 4.077 4.341-.013-.021-.656-.882-.268-.342.126.175.259.346.386.52q.445.61.875 1.233c.61.883 1.197 1.782 1.77 2.69a165 165 0 0 1 11.901 22.652c.046.107.457 1.08.195.454-.26-.622.06.147.092.227q.238.577.473 1.155a165 165 0 0 1 2.736 7.234 167 167 0 0 1 4.559 15.293c.685 2.769 3.555 4.468 6.282 4.101 2.695-.362 5.09-2.764 4.965-5.623a13 13 0 0 1-.002-1.309c.011-.191.076-.459.054-.638.011.092-.277 1.478-.064.584.084-.354.148-.709.248-1.061.056-.198.125-.392.185-.589.274-.9.053.071-.173.351.451-.559.748-1.39 1.149-2.006.693-1.064-.8.828.094-.093.331-.341.645-.695.993-1.02.272-.254.579-.476.845-.734.496-.482-.938.637-.344.272.184-.113.356-.252.537-.372.784-.522 1.609-.946 2.446-1.374s-1.151.407.096-.041c.371-.133.74-.269 1.116-.387.923-.29 1.859-.445 2.796-.666.694-.164-1.117.094-.403.049.225-.014.45-.047.676-.065q.591-.045 1.184-.058.675-.014 1.348.021.336.015.67.043c.216.018 1.164-.015.31.022-.822.036.361.083.632.143q.651.145 1.289.344c.475.149.937.328 1.401.507-.995-.383.352.181.668.34a25 25 0 0 1 2.794 1.651c.249.169 1.426 1.074.652.445.422.343.842.688 1.249 1.049 1.644 1.46 3.116 3.092 4.477 4.816-.291-.369-.788-1.037.505.66-.566-.743.342.467.628.829.439.557-.358-.479.079.095q.32.422.632.851a62 62 0 0 1 2.147 3.156c.643 1.008 1.214 2.076 1.929 3.03.83 1.107 1.573 2.468 2.59 3.406l-.712-1.222.162.383c.58 1.377 1.83 2.367 3.406 1.934 1.297-.357 2.518-2.019 1.934-3.406-.436-1.035-.509-2.52-.772-3.658-.318-1.373-.692-2.147-1.271-3.53-1.051-2.51-2.138-5.077-3.625-7.365-2.966-4.563-6.754-8.666-11.426-11.513-8.766-5.343-19.894-4.363-27.86 1.999-4.239 3.386-6.921 8.656-6.717 14.126l11.247-1.522c-2.437-10.125-5.852-19.948-10.047-29.476a165 165 0 0 0-6.644-13.408c-2.246-4.058-4.584-8.137-7.386-11.842-2.974-3.934-6.387-7.697-10.867-9.945-4.773-2.394-9.83-3.02-15.062-2.052-8.781 1.625-16.793 8.548-20.672 16.446-5.29 10.77-5.161 22.86-4.555 34.56l12.034-1.629c-6.361-17.266-14.135-37.191-32.299-45.032-8.265-3.568-18.113-4.964-26.687-1.537-9.045 3.616-15.304 11.343-17.48 20.813-2.325 10.121-.825 20.633 1.072 30.69l10.324-6.01c-7.757-8.328-16.466-16.856-27.742-20-5.431-1.514-11.249-1.576-16.543.503-5.386 2.114-10.003 5.514-13.274 10.332-3.761 5.539-4.134 12.111-1.407 18.136l8.673-6.692c-7.522-8.037-18.451-12.745-29.496-12.345-11.142.404-20.965 6.151-27.601 14.968-3.426 4.552-5.769 10.045-6.599 15.684-.274 1.863.464 3.751 2.438 4.294 1.753.482 3.881-.59 4.294-2.438Zm333.933 14.644c.084-.405.213-.794.311-1.195q.249-.675-.111.19a9 9 0 0 1 .707-1.309q.162-.25.339-.492-.617.781-.152.223c.492-.499.946-1.032 1.47-1.5q.227-.202.464-.394-.812.615-.206.175c.35-.22.687-.456 1.047-.661a15 15 0 0 1 1.402-.704q-.948.394-.235.117c.714-.225 1.414-.464 2.147-.623q.313-.068.63-.124.781-.125-.296.028c.087-.134 1.109-.092 1.28-.098.263-.01 2.234-.023 2.236.078q-1.095-.159-.314-.036.312.054.62.123.503.113.996.259c.508.149 1.001.333 1.501.506q.757.302-.047-.028a23 23 0 0 1 3.1 1.688c.444.285.868.595 1.303.893.835.572-.561-.496.287.216a48 48 0 0 1 4.375 4.142 68 68 0 0 1 1.882 2.121c.146.171 1.15 1.537.496.584q.452.653.902 1.308c1.165 1.706 2.919 2.694 5.029 2.41 2.145-.288 3.406-1.695 4.196-3.616-.546 1.326.252-.299.422-.629.298-.581.528-1.199.778-1.801.267-.642-.539 1.089-.068.196.554-1.049 1.099-2.074 1.785-3.047.119-.169.748-1.032.187-.268-.574.78.139-.142.221-.237a22 22 0 0 1 2.528-2.489c.168-.142 1.007-.824.23-.199-.802.645.141-.093.246-.172a24 24 0 0 1 2.988-1.923c.52-.279 1.082-.49 1.595-.777-.207.116-1.205.472-.444.2.278-.099.554-.204.834-.298 1.11-.371 2.26-.683 3.394-.975.567-.146 1.137-.246 1.71-.358.695-.136-1.283.168-.249.031.741-.098 1.396-.18 2.088-.451 1.972-.773 3.411-2.097 3.707-4.303.258-1.918-.629-4.25-2.471-5.157-6.2-3.054-14.345-.071-19.51 3.834a27.3 27.3 0 0 0-6.953 7.755c-.854 1.428-1.522 2.969-2.117 4.52-.646 1.686-.764 3.417-.817 5.205l8.617-3.569c-2.457-2.578-4.712-5.337-7.403-7.686-3.09-2.698-6.434-4.876-10.296-6.291-6.651-2.437-14.19-1.025-19.672 3.365-3.095 2.478-4.719 6.218-4.968 10.118-.3 4.705 7.305 5.778 8.275 1.12Z"/><path fill="#8170f9" d="M797.122 620.903c13.579-9.242 27.876-17.401 42.55-24.772a327 327 0 0 1 6.236-3.05c2.958-1.408 5.844-3.165 6.985-6.407.967-2.749-1.128-5.238-3.504-6.172-2.817-1.108-6.289.414-8.841 1.581-1.823.834-3.619 1.731-5.415 2.62a328 328 0 0 0-11.088 5.757c-7.172 3.899-14.103 8.323-20.882 12.866a334 334 0 0 0-11.568 8.118c-2.304 1.689-3.682 4.829-1.965 7.493 1.517 2.353 4.96 3.689 7.493 1.965Zm-6.086 43.875c5.599-1.861 11.195-3.633 16.701-5.753 5.375-2.07 10.81-3.992 16.158-6.129a856 856 0 0 1 33.144-12.45c2.805-.988 5.613-1.965 8.41-2.973 1.286-.464 2.58-.908 3.862-1.382 2.223-.821 5.131-1.957 6.387-4.103 1.868-3.191.245-7.806-3.525-8.664-2.008-.457-4.464.104-6.417.777a237 237 0 0 0-8.388 3.065 897 897 0 0 0-33.541 13.796c-6.034 2.623-11.932 5.478-17.809 8.434-2.932 1.475-5.894 2.901-8.703 4.602a880 880 0 0 0-8.599 5.279c-2.795 1.738-1.033 6.614 2.319 5.5Zm-2.6 51.333c23.241-12.039 47.971-21.135 73.623-27.286q5.319-1.275 10.68-2.362a171 171 0 0 0 5.341-1.146c1.949-.46 3.722-1.204 5.584-1.939 1.671-.659 2.872-2.063 2.587-3.962-.271-1.805-1.709-3.06-3.547-3.131-1.922-.074-3.766-.173-5.676.093-1.661.231-3.319.465-4.961.806q-4.907 1.018-9.778 2.195a311 311 0 0 0-19.323 5.333c-12.974 4.034-25.589 9.063-37.866 14.879a311 311 0 0 0-20.188 10.493c-1.639.929-2.195 3.164-1.252 4.776.993 1.698 3.096 2.122 4.776 1.252Zm40.052 41.506c9.003-3.306 18.076-6.469 26.986-10.018 2.302-.917 4.172-3.218 3.321-5.849-.763-2.359-3.316-4.146-5.849-3.321-9.107 2.967-18.091 6.339-27.114 9.554-2.455.875-4.362 3.446-3.489 6.145.777 2.4 3.519 4.453 6.145 3.489M204.309 211.815c-4.325-2.707-8.555-5.541-12.904-8.208-4.3-2.637-8.458-5.469-12.637-8.29s-8.306-5.716-12.325-8.766c-.466-.353-.923-.721-1.395-1.066 1.913 1.4.069.049-.361-.289a243 243 0 0 1-8.917-7.357c-4.298-3.721-8.274-7.794-12.55-11.53-1.674-1.463-3.595-2.433-5.875-2.433-2.038 0-4.472.905-5.875 2.433-3.066 3.34-3.256 8.437 0 11.75 3.613 3.676 7.806 6.889 11.854 10.07 4.422 3.475 8.921 6.85 13.548 10.05 8.481 5.864 17.289 11.086 26.556 15.609 2.956 1.443 5.926 2.905 9.019 4.03q4.051 1.471 8.152 2.797c2.285.74 4.791-.681 5.68-2.788.942-2.232.082-4.728-1.97-6.012m46.317-48.541a360 360 0 0 1-15.437-31.774c-.151-.354-.306-.708-.453-1.064a439 439 0 0 1-1.524-3.698 371 371 0 0 1-3.03-7.7c-1.967-5.166-3.93-10.329-5.734-15.555a369 369 0 0 1-5.717-18.009c-.978-3.385-4.797-5.839-8.292-4.708-3.349 1.084-5.871 4.7-4.708 8.292 7.041 21.749 15.982 42.752 26.953 62.813a425 425 0 0 0 9.419 16.384c1.338 2.207 4.487 3.231 6.752 1.77 2.297-1.481 3.099-4.328 1.77-6.752Zm-104.08 118.328c-1.48.058-2.959.018-4.433-.136-1.305-.137-.019-.093-.005.007-.006-.042-1.051-.179-1.163-.201a30 30 0 0 1-2.148-.496c-.66-.179-1.302-.412-1.959-.6-1.082-.309 1.203.617-.033-.011a29 29 0 0 1-1.031-.549 31.4 31.4 0 0 1-3.682-2.429l1.394 1.077c-.248-.232-.437-.474-.657-.732-.72-.846-1.579-1.362-2.577-1.783-1.304-.55-2.614-.661-4.009-.837-2.313-.291-4.82 1.512-5.924 3.398-1.2 2.051-1.309 4.884 0 6.926.742 1.158 1.54 2.186 2.632 3.029 1.401 1.083 2.701 1.36 4.463 1.582q.45.058.899.106l-1.855-.249c1.158.244 2.285.602 3.452.816 1.577.289 3.172.458 4.764.636l-1.517-.204c4.92.786 9.729.77 14.603-.365 2.218-.516 3.566-2.864 3.276-5.019s-2.207-4.056-4.492-3.966Zm194.528-142.64c.025-12.618.504-25.226.531-37.842a1491 1491 0 0 1 1.069-53.298c.069-1.817.264-3.669.08-5.478-.224-2.204-.768-4.424-2.485-6-1.402-1.287-2.978-2.079-4.872-2.334-1.809-.243-3.831-.012-5.411 1.007-1.726 1.113-3.585 2.943-3.9 5.071-.553 3.737-.46 7.451-.454 11.221a1493 1493 0 0 0 .315 28.393c.26 12.632.582 25.256 1.57 37.854.56 7.138 1.153 14.273 1.762 21.407.262 3.066 2.525 6.049 5.898 5.898 3.201-.143 5.892-2.591 5.898-5.898Zm115.293-7.119q.102-.865.211-1.731l.112-.865q-.17 1.258-.035.27c.144-.996.287-1.992.443-2.986q.504-3.199 1.127-6.376a159 159 0 0 1 3.023-12.621c2.363-8.367 5.385-16.55 8.745-24.565l-.822 1.948a179 179 0 0 1 8.628-17.691 176 176 0 0 1 4.994-8.386 392 392 0 0 0 2.523-4.053c.455-.738.939-1.461 1.382-2.206.753-1.267 1.218-2.695 1.79-4.055l-.877 2.079c1.201-2.833 2.389-5.742 1.219-8.838-1.159-3.066-3.597-5.314-7.022-5.346-5.765-.054-9.336 4.881-12.137 9.221-1.729 2.678-3.249 5.471-4.717 8.299-3.171 6.109-5.971 12.413-8.49 18.817-4.652 11.822-7.739 24.101-9.501 36.679-1.043 7.442-1.814 14.892-2.029 22.407-.086 2.992 2.691 5.853 5.717 5.717 3.398-.152 5.341-2.523 5.717-5.717Zm101.826 26.873c9.448-5.045 18.426-10.781 26.326-18.064 3.358-3.096 7.599-7.413 4.739-12.341-1.372-2.364-3.841-3.481-6.515-3.122-1.827.245-3.095 1.056-4.521 2.235-.215.177-.458.357-.654.549l-.263.339q-1.913 2.475-.525.68c-.858.763-1.551 1.948-2.294 2.832a98 98 0 0 1-8.069 8.503 102 102 0 0 1-6.434 5.506c.869-.686.098-.076-.123.092q-.428.325-.858.643c-.632.469-1.265.926-1.933 1.342q-1.903 1.183-3.856 2.282c-2.25 1.269-3.199 4.536-1.77 6.752 1.494 2.317 4.313 3.073 6.752 1.77Z"/><path fill="#ff8345" d="M704.492 130.26c6.981-3.851 14.006-7.625 21.122-11.222a427 427 0 0 1 10.778-5.267 285 285 0 0 1 5.448-2.505 233 233 0 0 1 3.93-1.704c-1.129.48.387-.162.62-.258 14.572-6.065 29.67-11.012 45.225-13.82q2.914-.527 5.845-.95c.511-.074 1.862-.351-.139.011.458-.083.929-.12 1.391-.177q1.533-.189 3.068-.347c3.665-.377 7.345-.681 11.028-.815 6.386-.231 12.791.035 19.137.783.455.054.911.123 1.367.169-2.642-.265-1.354-.185-.71-.094a123 123 0 0 1 16.312 3.456 116 116 0 0 1 11.419 3.904q.526.213 1.051.429c1.579.642-1.835-.793-.742-.312 1.445.635 2.884 1.28 4.304 1.968a101 101 0 0 1 9.426 5.191 88 88 0 0 1 4.465 2.957q.999.708 1.992 1.425.45.325.896.658c.299.222 1.939 1.479.437.32-1.427-1.101-.202-.15.069.067q.519.415 1.032.837a84 84 0 0 1 5.904 5.341 82.5 82.5 0 0 1 7.033 7.968l-1.528-1.978c4.087 5.334 7.437 11.142 10.082 17.318l-.997-2.363c3.438 8.176 5.611 16.794 6.826 25.569l-.359-2.67c.825 6.172 1.327 12.453.528 18.655l.361-2.688c-.439 3.049-1.216 6-2.413 8.84l1.019-2.415a34.5 34.5 0 0 1-4.264 7.215l1.581-2.046c-2.057 2.62-4.446 4.923-7.076 6.964l2.046-1.581c-3.987 3.039-8.401 5.423-13.002 7.393l2.415-1.019c-11.442 4.826-23.961 7.436-36.23 9.096l2.688-.361c-4.023.518-8.035.726-12.072.244l2.682.36c-2.158-.3-4.233-.825-6.251-1.649l2.386 1.007a17 17 0 0 1-3.593-2.12l2.008 1.551a19 19 0 0 1-2.873-2.902l1.541 1.995a19 19 0 0 1-2.272-3.837l.987 2.338a16.3 16.3 0 0 1-1.063-3.778l.347 2.586a13.4 13.4 0 0 1-.038-3.03l-.346 2.573c.138-1.004.39-1.95.782-2.884l-.971 2.301c.238-.509.641-.993.837-1.506.287-.749-1.456 1.639-.747.97.289-.273.568-.586.848-.868.98-.989-.708.682-.807.585.01.01.741-.494.808-.535.695-.429 1.426-.786 2.17-1.12l-2.268.957c4.283-1.803 9.012-2.676 13.595-3.316l-2.466.331a79.8 79.8 0 0 1 21.139.003l-2.386-.321a84 84 0 0 1 11.368 2.39 81 81 0 0 1 7.643 2.599c.554.22 2.144 1.027-.227-.116.53.255 1.083.469 1.619.712a78 78 0 0 1 9.977 5.409c1.56.999 3.062 2.071 4.559 3.161 1.485 1.081-1.562-1.266-.133-.106.254.206.512.406.765.613a83 83 0 0 1 9.79 9.377 99 99 0 0 1 3.262 3.909c1.072 1.342-1.19-1.599-.17-.214l.691.93a92 92 0 0 1 1.741 2.459 99 99 0 0 1 5.311 8.721 107 107 0 0 1 2.333 4.57q.609 1.265 1.186 2.545c.286.634 1.381 3.55.503 1.106 1.202 3.347 2.592 6.609 3.691 9.998a150 150 0 0 1 2.938 10.347 172 172 0 0 1 2.292 10.829q.424 2.375.793 4.758.222 1.43.429 2.861c.066.459.078.985.202 1.432l-.137-1.02.125.96c2.088 16.32 2.439 32.938 1.611 49.357a344 344 0 0 1-1.953 23.175 465 465 0 0 1-.529 4.25c-.024.185-.165 1.222-.021.166q-.166 1.216-.34 2.431a343 343 0 0 1-1.224 7.881l-.204 1.21c-.06.355-.572 3.896-.37 2.431q-.251 1.83-.52 3.659c-.771 5.231-1.422 10.629-2.696 15.762-.628 2.532.813 5.535 3.489 6.145 2.584.589 5.471-.776 6.145-3.489 1.718-6.922 4.144-13.663 5.577-20.67 1.482-7.246 2.584-14.574 3.563-21.903 1.88-14.077 2.925-28.281 3.179-42.48.414-23.152-1.542-46.841-9.329-68.801-7.898-22.274-21.88-42.492-42.775-54.309-11.333-6.409-23.855-10.082-36.782-11.304-5.872-.555-11.767-.518-17.624.2-6.699.822-14.488 1.746-20.173 5.712-3.875 2.704-6.562 5.997-8.205 10.436-1.293 3.494-1.133 7.142-.581 10.741 1.05 6.832 5.548 12.738 11.007 16.719 5.861 4.274 13.875 5.561 20.968 5.228 6.517-.306 13.044-1.554 19.44-2.81 10.626-2.086 21.087-5.048 30.835-9.842 9.559-4.701 18.558-12.028 23.43-21.677 6.875-13.612 5.493-29.026 2.497-43.506-2.623-12.68-7.553-25.247-15.126-35.806-6.757-9.423-15.074-17.591-24.79-23.96-9.239-6.056-19.577-10.594-30.162-13.711-22.764-6.702-46.826-6.602-69.831-1.2-25.838 6.068-50.035 18.036-72.95 31.16-5.594 3.204-11.129 6.509-16.633 9.864-2.284 1.392-3.351 4.647-1.835 6.999 1.532 2.376 4.49 3.219 6.999 1.835"/></svg>