<?xml version="1.0" encoding="UTF-8"?><svg xmlns="http://www.w3.org/2000/svg" data-name="ARTWORK" viewBox="0 0 1000 1000"><g fill="#ff8345"><path d="M523.884 396.485C363.105 364.94 207.246 432.179 94.68 546.765c-34.505 35.124-61.125 79.552-68.037 128.302s7.99 101.765 44.633 134.653c23.395 20.998 53.594 32.647 83.61 41.989 140.464 43.714 297.452 42.033 442.673 29.097 86.263-7.684 197.676-30.853 226.586-126.767 6.662-22.103 7.42-45.489 8.128-68.563.673-21.901 1.289-44.254-5.021-65.236-12.328-40.991-48.547-69.671-83.968-93.704-53.293-36.158-113.595-69.239-177.909-65.871"/><path d="M525.021 392.363c-66.417-15.79-135.231-12.59-200.818 5.706-64.837 18.086-124.875 50.538-177.817 91.829C92.692 531.775 41.351 583.37 23.227 651.011c-8.658 32.311-8.76 66.91 1.225 98.947 10.154 32.578 30.223 60.571 58.67 79.569 30.213 20.178 66.699 30.906 101.478 40.187 37.144 9.912 75.106 16.478 113.259 21.031 76.559 9.136 153.984 9.185 230.874 4.803 59.667-3.401 121.254-6.719 178.555-25.142 25.292-8.132 50.015-19.308 71.209-35.502 22.089-16.878 39.383-38.371 50.078-64.108 6.919-16.651 10.238-34.274 11.881-52.174 1.801-19.624 2.47-39.675 2.067-59.377-.398-19.457-3.363-38.412-11.232-56.296-6.669-15.156-16.776-28.733-28.13-40.7-23.821-25.105-53.891-44.783-83.232-62.797-31.285-19.208-65.02-36.027-101.044-44.08-17.716-3.96-35.451-4.671-53.51-3.799-4.906.237-9.093 4.01-9.093 9.093 0 4.741 4.164 9.331 9.093 9.093 17.029-.822 34.259 1.958 50.796 5.831 16.789 3.932 33.121 9.786 48.772 16.995 31.737 14.618 61.762 33.654 89.93 54.261 24.093 17.626 48.324 39.317 59.7 67.191 6.753 16.546 8.219 34.258 8.201 51.957-.019 18.99-.467 38.237-2.511 57.125-.981 9.071-2.664 18.089-5.194 26.859a146 146 0 0 1-5.078 14.612c-.435 1.058-.675 1.593-1.512 3.406a137.3 137.3 0 0 1-14.434 24.31c-1.398 1.882-.629.879-2.103 2.696a142 142 0 0 1-3.168 3.768 148 148 0 0 1-13.095 13.232 160 160 0 0 1-6.742 5.69c-1.776 1.418-3.808 2.931-6.683 4.942-10.36 7.248-21.477 13.379-32.982 18.606-5.569 2.53-10.001 4.317-16.501 6.686a313 313 0 0 1-18.044 5.944c-12.522 3.72-25.251 6.722-38.075 9.197a513 513 0 0 1-19.119 3.306c-6.916 1.065-10.406 1.535-16.798 2.31-14.399 1.745-28.855 2.975-43.31 4.157-74.351 6.082-149.166 8.74-223.679 4.061-36.65-2.301-73.19-6.398-109.326-12.983-35.609-6.489-71.201-14.859-105.428-26.727-30.773-10.671-60.69-26.421-79.853-53.654-17.666-25.106-26.099-55.772-25.906-86.326.203-32.175 10.466-63.569 26.345-91.337 16.494-28.841 38.981-52.896 63.321-75.255 47.682-43.801 102.907-79.806 163.233-103.584 60.053-23.67 123.695-33.911 188.145-31.182 16.217.687 32.427 2.312 48.47 4.755 5.295.806 7.753-6.943 2.273-8.245Z"/></g><g fill="#edc851"><path d="M246.402 119.114c-65.82 19.743-126.773 61.044-161.25 120.487-34.476 59.443-39.017 137.632-3.425 196.415 41.837 69.096 128.565 99.183 209.339 99.574 75.891.367 157.452-25.188 200.131-87.942 18.996-27.931 28.963-61.466 31.134-95.175 6.621-102.809-65.839-205.338-164.961-233.416S142.781 140.274 94.5 231.283"/><path d="M245.121 114.468c-26.843 7.643-52.704 18.534-76.785 32.59-12.136 7.084-23.696 15.075-34.691 23.823-.622.495-1.257.979-1.862 1.496l-.265.215q1.11-.85-.301.236c-.45.348-.865.685-1.293 1.049a253 253 0 0 0-4.106 3.576 258 258 0 0 0-7.493 6.915 247 247 0 0 0-14.313 14.934c-19.147 21.743-34.165 46.463-43.827 73.814-9.586 27.133-13.852 56.548-11.877 85.279 2.001 29.106 10.435 57.923 25.674 82.891 13.918 22.804 32.918 41.936 54.803 57.136 21.567 14.979 45.99 25.871 71.098 33.382 25.581 7.652 52.303 11.799 78.963 12.92 26.964 1.134 54.146-1.003 80.588-6.421 26.137-5.356 51.784-14.285 75.099-27.336 23.482-13.145 44.15-30.709 60.338-52.225 18.558-24.665 29.954-54.625 34.603-85.023 4.223-27.615 3.344-55.421-2.722-82.707-5.647-25.4-15.716-49.967-29.117-72.253-13.369-22.233-30.144-42.639-49.654-59.755-19.972-17.52-42.7-31.446-67.245-41.575-23.652-9.761-49.28-14.685-74.822-15.416-25.216-.722-50.708 2.796-74.891 9.928-24.243 7.15-47.585 17.943-68.608 31.985-21.596 14.424-40.413 32.065-56.177 52.688-3.595 4.703-7.031 9.549-10.187 14.558-1.584 2.514-3.059 5.089-4.482 7.698a210 210 0 0 0-2.025 3.807c-.378.73-.761 1.46-1.123 2.198-.254.519-.47 1.009-.699 1.552-1.347 3.192.675-1.355-.398.662-2.042 3.835-1.093 9.217 2.981 11.37 3.852 2.035 9.188 1.116 11.37-2.981 2.833-5.321 6.339-10.349 9.695-15.352 1.711-2.55 3.447-5.08 5.254-7.564a215 215 0 0 1 2.563-3.448c1.243-1.637-.708.884.275-.365q.755-.963 1.517-1.922c7.516-9.416 15.83-18.189 24.779-26.254a262 262 0 0 1 13.845-11.656c1.836-1.437-1.043.786.286-.223q.856-.65 1.714-1.297a238 238 0 0 1 11.297-7.968 243 243 0 0 1 37.551-20.365l1.131-.487c1.129-.494-2.179.904-.245.102 2.75-1.14 5.514-2.243 8.302-3.289a244 244 0 0 1 17.224-5.743 240 240 0 0 1 26.638-6.171 233 233 0 0 1 7.28-1.135c1.607-.225.348.226-.34.044 1.078.286 3.136-.39 4.265-.516a229 229 0 0 1 13.752-1.12 223 223 0 0 1 18.07-.195 216 216 0 0 1 20.152 1.543c.404.05.811.118 1.216.155.04.004-1.993-.277-.938-.127 1.62.23 3.238.464 4.853.725q4.396.71 8.757 1.605c12.051 2.478 23.873 6.069 35.313 10.592 1.368.541 2.717 1.133 4.087 1.666-2.282-.888-.087-.028.438.201q1.302.567 2.596 1.152a215 215 0 0 1 8.251 3.944c5.532 2.79 10.889 5.931 16.134 9.227s10.314 6.906 15.282 10.616q.884.663 1.763 1.33c.384.29 1.317 1.088-.351-.278.244.2.499.388.747.582a233 233 0 0 1 10.923 9.085 241 241 0 0 1 28.722 30.246q.691.867 1.375 1.739c.2.255 1.058 1.359.256.324-.889-1.148.375.495.441.582a246 246 0 0 1 5.422 7.415 237 237 0 0 1 10.114 15.705 243 243 0 0 1 12.763 24.735q.514 1.156 1.016 2.317l.374.872c.507 1.164-.681-1.642-.197-.47.602 1.46 1.204 2.92 1.784 4.39 4.555 11.542 8.2 23.446 10.832 35.573a220 220 0 0 1 2.835 15.819c.044.312.081.626.131.937-.411-2.572-.123-.905-.049-.32a212 212 0 0 1 1.529 18.534 212 212 0 0 1-.905 29.16q-.286 2.87-.648 5.729c-.048.38-.083.766-.148 1.144.054-.319.292-2.047.025-.242-.15 1.015-.298 2.029-.458 3.043-2.357 14.919-6.313 29.604-12.01 43.6-.191.468-.364.964-.584 1.417.042-.087.65-1.5.21-.504-.361.818-.711 1.64-1.076 2.456q-1.251 2.797-2.598 5.55a171 171 0 0 1-5.201 9.811c-3.494 6.101-7.408 11.908-11.597 17.55-.305.411-1.132 1.345.308-.388-.205.246-.395.507-.593.759a168 168 0 0 1-4.68 5.69 169 169 0 0 1-6.223 6.842 175 175 0 0 1-13.695 12.793 182 182 0 0 1-3.44 2.817c-.579.463-1.164.918-1.746 1.377-1.002.791 1.428-1.082.407-.316-.424.318-.844.641-1.267.959a191 191 0 0 1-7.515 5.356 205 205 0 0 1-16.082 9.832 224 224 0 0 1-19.088 9.346l-1.189.512c-.233.1-1.273.549-.064.028 1.356-.584-.928.378-1.266.517q-1.202.49-2.409.968a250 250 0 0 1-9.144 3.411c-12.169 4.274-24.654 7.632-37.296 10.172a302 302 0 0 1-16.556 2.85l-.978.14c-.326.046-2.251.307-.704.101 1.361-.181.213-.029-.052.005q-.653.085-1.307.168-1.143.144-2.288.28-2.451.291-4.907.544-4.904.505-9.821.862a331 331 0 0 1-57.371-.833c-3.127-.319-6.242-.782-9.369-1.093 2.8.278-.138-.021-.725-.105a310 310 0 0 1-7.084-1.086c-12.628-2.082-25.134-4.928-37.395-8.604a273 273 0 0 1-18.071-6.104c-2.911-1.099-5.766-2.335-8.668-3.452 2.491.959-.198-.092-.709-.314q-.882-.383-1.761-.773a248 248 0 0 1-4.66-2.126c-11.297-5.3-22.195-11.472-32.45-18.588-2.5-1.735-4.941-3.543-7.376-5.367-1.011-.757 1.397 1.096.404.315l-.742-.58a189 189 0 0 1-5.589-4.565 184 184 0 0 1-13.484-12.648 176 176 0 0 1-11.166-12.777c-.191-.241-1.328-1.706-.434-.545.818 1.062-.541-.717-.8-1.063q-.665-.887-1.317-1.781a166 166 0 0 1-7.941-11.924 163 163 0 0 1-9.545-18.304c-.329-.742-.682-1.481-.974-2.239.102.264.774 1.882.135.304l-.394-.968q-.979-2.423-1.883-4.875a172 172 0 0 1-3.311-9.906 180 180 0 0 1-4.774-19.985q-.431-2.405-.8-4.82c-.122-.8-.297-1.612-.353-2.419.019.271.271 2.134.056.404q-.087-.693-.172-1.387c-.418-3.475-.76-6.96-1.004-10.452a199 199 0 0 1-.362-20.7 204 204 0 0 1 1.077-15.098q.152-1.401.323-2.801l.131-1.05q.066-.525.136-1.049l-.134 1.015c-.174-.554.274-1.905.356-2.447a203 203 0 0 1 1.305-7.663q.987-5.21 2.235-10.366a211 211 0 0 1 9.504-29.578c.309-.763.625-1.524.94-2.284-.819 1.972.339-.766.505-1.146a205 205 0 0 1 2.19-4.821c2.927-6.231 6.18-12.308 9.672-18.241a227 227 0 0 1 10.926-16.805q1.38-1.93 2.798-3.833c.473-.634.953-1.262 1.427-1.894.203-.27.954-1.237-.051.058q.417-.537.836-1.071a241 241 0 0 1 6.457-7.878c8.693-10.16 18.264-19.5 28.301-28.321a272 272 0 0 1 11.231-9.345c.233-.184 1.838-1.436.988-.779q1.22-.941 2.452-1.867a290 290 0 0 1 16.557-11.579c11.297-7.331 23.079-13.953 35.316-19.58 11.621-5.343 23.59-9.896 35.778-13.768 5.879-1.867 3.44-10.999-2.561-9.291Z"/></g><path d="M224.475 595.254a405 405 0 0 0-5.029-.675c1.013.129-.14.375-.922-.121.098.062.636.215.247-.088-.232-.18-.822-.29-1.082-.381-.994-.347-2.011-.796-3.028-1.06-1.089-.283-2.287-.372-3.399-.545a264 264 0 0 0-14.982-1.902c-9.109-.882-18.202-.925-27.335-.342-9.745.622-19.552 2.286-29.057 4.509-8.486 1.984-16.772 4.626-24.874 7.826-16.076 6.35-30.892 15.474-44.189 26.478-5.986 4.953-11.511 10.525-16.536 16.447-5.61 6.612-10.773 13.663-15.123 21.171-9.203 15.886-15.082 33.541-17.523 51.709-1.196 8.902-1.7 17.831-1.153 26.806.591 9.694 1.99 19.552 4.866 28.849 3.049 9.855 8.155 18.614 14.616 26.584 5.576 6.878 12.443 12.495 19.63 17.616 14.181 10.104 29.934 17.996 46.038 24.522 15.836 6.418 32.403 11.021 49.271 13.745 17.326 2.798 34.9 3.818 52.421 2.667 2.108-.139 4.198-.376 6.292-.651q1.965-.256 3.929-.535.746-.106 1.49-.219c.301-.045 1.842-.255.863-.161 2.47-.235 4.88-2.02 4.757-4.757-.106-2.376-2.104-5.009-4.757-4.757-3.426.325-6.962.07-10.403.085-3.404.015-6.803.056-10.207-.032a225 225 0 0 1-22.775-1.751c-.427-.055-1.833-.043-.032 0-.42-.01-.87-.119-1.286-.178a227 227 0 0 1-15.358-2.716 229 229 0 0 1-19.75-5.13 231 231 0 0 1-21.675-7.889l1.923.812c-7.586-3.211-15-6.814-22.169-10.875s-13.917-8.574-20.643-13.261l1.938 1.497c-1.401-1.109-2.834-2.175-4.248-3.267l1.966 1.519c-7.695-5.97-14.822-12.691-20.797-20.404l1.7 2.201c-3.503-4.572-6.452-9.505-8.723-14.801l1.137 2.694c-3.436-8.163-5.54-16.841-6.735-25.599l.408 3.035c-1.506-11.327-1.476-22.807.015-34.133l-.406 3.024a132.3 132.3 0 0 1 9.047-33.366l-1.143 2.708a129 129 0 0 1 16.723-28.622l-1.766 2.286c7.69-9.91 16.76-18.685 26.672-26.357l-2.256 1.743c11.364-8.748 23.887-15.758 37.082-21.341l-2.524 1.065c16.542-6.951 33.984-10.939 51.724-13.333l-2.402.323c5.043-.669 10.187-.84 15.2-1.657l-2.224.299a231 231 0 0 1 17.648-1.145c3.246-.085 6.534.11 9.739-.412.36-.059.723-.104 1.084-.154.166-.023 1.369-.259.578-.08s.584-.077.634-.081c.324-.026.599-.016.923.004 1.537.094 3.077.316 4.606.495 2.488.292 4.668-2.151 4.968-4.386s-1.131-5.198-3.623-5.55Zm13.596 260.825c11.672 4.028 23.164 8.689 35.011 12.188 11.7 3.456 23.493 6.577 35.419 9.148 12.614 2.72 25.358 5.228 38.162 6.864a608 608 0 0 0 36.863 3.582 552 552 0 0 0 73.617-.029c25.194-1.694 50.461-4.763 75.236-9.689 12.085-2.403 24.089-5.277 35.986-8.476 12.515-3.365 24.883-7.106 36.735-12.391 2.751-1.227 5.206-2.786 7.647-4.537 2.598-1.863 4.473-5.059 3.404-8.365-.98-3.027-3.802-5.567-7.142-5.438-.848.033-1.699.046-2.547.094-.674.038-4.209.478-2.388.245 1.714-.219-1.335.164-2.161.283-1.9.274-3.76.643-5.637 1.041-3.849.816-7.621 1.822-11.426 2.82-7.481 1.963-14.95 3.984-22.456 5.851-14.803 3.682-29.752 6.715-44.763 9.414a607 607 0 0 1-25.905 4.074l2.893-.389c-33.223 4.462-66.829 6.101-100.338 5.393-16.721-.354-33.296-1.775-49.955-3.105a576 576 0 0 1-27.964-2.934l-1.327-.173c-.072-.009-2.254-.305-.868-.114s-.811-.113-.88-.122a614 614 0 0 1-4.68-.666c-4.233-.619-8.466-1.245-12.693-1.902-9.342-1.453-18.624-3.231-27.932-4.873s-18.559-3.419-27.671-5.924c-5.281-1.452-7.326 6.374-2.241 8.129Z"/><path d="M227.447 578.739c-.78-5.934-.844-11.844.615-17.667 1.416-5.652 3.421-11.283 6.017-16.411 2.783-5.496 5.926-10.151 9.75-14.402a73 73 0 0 1 2.902-3.045c.595-.59 1.255-1.138 1.827-1.748l.623-.569q-1.418.852 1.306-1.077c1.075-.907 2.094-1.871 3.198-2.747-1.153.915 1.025-.753 1.002-.737q1.022-.737 2.07-1.436a71.5 71.5 0 0 1 8.484-4.838c1.501-.728 2.197-1.043 2.927-1.329a85 85 0 0 1 5.14-1.838 81 81 0 0 1 9.283-2.357q1.124-.217 2.253-.403c.121-.02 3.102-.411 1.164-.186a93 93 0 0 1 5.461-.482c3.199-.18 6.431-.232 9.634-.132a90 90 0 0 1 8.713.694q-1.535-.201.19.051c6.683 1.213 13.139 2.878 19.47 5.367 1.819.715.538.224.159.058q1.205.525 2.395 1.082a97 97 0 0 1 3.919 1.946 100 100 0 0 1 9.014 5.358q1.818 1.214 3.586 2.503c.163.119 2.471 1.866.819.585q.69.537 1.37 1.089a110 110 0 0 1 7.85 6.991c4.594 4.497 9.04 9.203 12.963 14.303-.243-.315-.952-1.28.132.202.521.713 1.047 1.422 1.559 2.141a150 150 0 0 1 2.492 3.638c1.872 2.8 3.656 5.674 5.323 8.602a75 75 0 0 1 2.052 3.801c.244.492 1.588 3.618.934 1.963 1.006 2.544 1.871 5.136 2.519 7.796q.525 2.153.863 4.343c-.221-1.43-.023-.185 0 .098.057.723.132 1.441.169 2.166.06 1.177.071 2.358.018 3.535a36 36 0 0 1-.156 2.06c.166-1.582-.083.368-.154.711a24 24 0 0 1-1.098 3.777c.492-1.273-.755 1.355-.997 1.738.048-.076-1.15 1.58-.569.855.59-.736-.799.832-.725.756-.052.053-1.602 1.386-.627.651-.537.404-1.141.763-1.727 1.089-4.327 2.41-9.444 1.526-14.084-.705-11.139-5.355-18.716-17.62-22.946-28.805-4.77-12.612-6.297-25.973-4.824-39.354 1.527-13.878 6.331-27.47 12.766-39.797 6.426-12.309 14.32-24.242 24.806-33.413 4.277-3.741 10.724-7.608 15.726-9.559 6.731-2.625 13.806-4.28 20.939-5.358.314-.047 2.38-.326 1.002-.149q1.463-.186 2.93-.339a179 179 0 0 1 15.111-.944c6.907-.138 13.842.076 20.726.655q2.822.237 5.636.56c.625.072 1.25.15 1.875.225 3.096.372-2.004-.33 1.069.147 3.414.529 6.818 1.089 10.205 1.774a189 189 0 0 1 29.865 8.649c1.471.561 2.929 1.152 4.391 1.736 2.907 1.161-1.934-.877.92.387.861.381 1.725.755 2.583 1.143 6.297 2.843 12.436 6.034 18.376 9.562s11.649 7.454 17.222 11.563c2.534 1.868-1.749-1.427.703.539.455.365.914.725 1.369 1.091a160 160 0 0 1 11.176 9.925 162 162 0 0 1 13.09 14.406c.463.576.917 1.159 1.377 1.737 1.135 1.428-1.642-2.236.064.101.87 1.191 1.755 2.37 2.608 3.573a157 157 0 0 1 5.84 8.853 161 161 0 0 1 9.071 17.091c.368.805 2.376 4.817.89 1.964.66 1.267 1.097 2.719 1.602 4.058a134 134 0 0 1 3.299 9.892 128 128 0 0 1 2.133 8.381 124 124 0 0 1 1.283 6.775c.058.359.443 3.826.279 1.817-.169-2.064.073.761.096.972a116 116 0 0 1 .538 6.851c.159 3.291.172 6.589.037 9.882-.119 2.871-.027 6.224-.754 9.026.884-3.407-.197 1.07-.355 1.963a113 113 0 0 1-1.045 5.13c-1.324 5.867 1.308 11.758 6.936 14.133 5.77 2.435 11.483.045 14.96-4.902.752-1.07.814-.284-.395.437.277-.165.577-.692.792-.938a32 32 0 0 1 1.967-2.06c.36-.344 2.418-2.519 1.241-1.183-.93 1.056-.339.237.078-.047.561-.382 1.113-.774 1.685-1.14a42 42 0 0 1 4.664-2.579c.386-.183 1.054-.588 1.508-.684.011-.002-2.235.853-.938.424 1.06-.351 2.097-.769 3.163-1.107a64 64 0 0 1 5.717-1.515q1.451-.315 2.914-.572c.557-.098 1.116-.183 1.674-.274 1.714-.28-.202-.191-.676.085 1.235-.72 4.514-.437 5.935-.517q3.462-.193 6.929-.185c4.307.01 8.612.252 12.894.717.611.066 1.221.147 1.833.213 1.408.15-.853-.124-.911-.127 1.061.055 2.142.32 3.19.496q3.413.575 6.791 1.332c4.357.979 8.663 2.182 12.898 3.598q2.852.952 5.658 2.031c1.008.388 2.005.8 3.009 1.2 1.615.643-1.899-.859-.322-.129.56.259 1.13.498 1.692.752a136.7 136.7 0 0 1 25.474 15.054c2.415 1.806-.806-.695.859.662 1.796 1.463 3.582 2.932 5.317 4.468a134 134 0 0 1 9.584 9.384 141 141 0 0 1 6.042 6.986c.366.453.83.946 1.152 1.443-.497-.766-1.03-1.364-.195-.251 2.677 3.573 5.215 7.241 7.571 11.035s4.54 7.695 6.549 11.684q1.352 2.686 2.597 5.421c.375.824 1.189 2.04 1.312 2.961-.04-.302-1.007-2.471-.144-.327.231.572.464 1.144.691 1.718a158.2 158.2 0 0 1 8.833 31.623q.273 1.599.513 3.202c.036.239.216 1.823.263 1.834-.178-.042-.3-2.518-.078-.461.484 4.472.879 8.939 1.026 13.436.149 4.562.093 9.132-.181 13.689q-.184 3.069-.502 6.127c-.08.774.033 2.577-.38 3.287.12-.206.426-2.834.043-.413-.098.622-.191 1.245-.292 1.866-1.453 8.881-3.976 17.351-7.123 25.762-.614 1.64.861-1.905.138-.311-.193.425-.374.856-.566 1.282q-.671 1.49-1.389 2.959a102 102 0 0 1-3.284 6.184 97 97 0 0 1-3.455 5.556 98 98 0 0 1-1.872 2.692c-.274.381-.555.757-.831 1.136-1.355 1.864.848-.99-.083.11-2.741 3.237-5.49 6.408-8.556 9.349a102 102 0 0 1-4.703 4.238c-.806.682-1.628 1.345-2.447 2.011-.212.172-1.445 1.095-.199.163 1.431-1.069-.656.473-.943.683-7.038 5.134-14.603 9.155-22.474 12.834-1.572.735 1.994-.8.384-.152-.424.17-.845.347-1.268.518q-1.484.595-2.981 1.154a135 135 0 0 1-6.473 2.235c-3.754 1.19-7.546 2.288-11.387 3.164-3.108.709-6.25 1.269-9.402 1.748-.823.125-1.661.2-2.477.358-.107.021 2.731-.338 1.369-.187-.493.055-.985.125-1.478.185q-2.856.346-5.719.624c-7.802.762-15.635 1.201-23.469 1.441-8.012.246-16.03.278-24.044.108-7.362-.156-14.751-.675-22.083-.028-4.114.363-8.328.24-12.133 1.963l4.407-1.192q-.591-.073-1.182-.15c-4.549-.583-8.924 4.432-8.732 8.732.234 5.229 3.858 8.107 8.732 8.732l1.182.15-6.174-2.557c3.474 2.727 7.618 3.623 11.816 4.754 4.41 1.189 8.866 1.627 13.407 1.995 8.18.664 16.379.912 24.585.978 16.976.135 33.989-.555 50.792-3.089 36.965-5.575 72.986-27.776 90.649-61.278 18.682-35.435 19.066-79.216 6.691-116.765-12.413-37.662-37.951-70.676-73.22-89.443-17.871-9.509-37.386-15.27-57.57-16.826-18.099-1.395-39.504.274-54.549 11.514-4.632 3.46-8.286 7.164-11.617 11.917l21.896 9.231c13.453-59.989-20.519-119.525-69.265-152.848-25.709-17.575-55.85-28.059-86.63-31.951-14.851-1.878-29.816-1.9-44.665-.009-16.339 2.081-33.106 5.924-46.789 15.575-13.058 9.21-22.445 22.366-30.159 36.171-7.859 14.063-14.018 29.302-16.652 45.253-2.482 15.031-2.193 30.614 1.77 45.38 3.789 14.116 11.192 28.879 22.579 38.388 11.563 9.657 27.179 14.381 40.064 4.366-1.263.982 1.168-.918 1.514-1.237q.706-.652 1.336-1.375a30.6 30.6 0 0 0 2.797-3.713c1.656-2.616 2.853-5.648 3.591-8.65 1.602-6.524 1.369-13.196.329-19.78-2.054-13.011-8.705-25.359-16.24-35.997-8.813-12.441-19.615-22.916-32.528-31.081-25.676-16.235-58.825-21.043-87.291-9.429-14.052 5.733-25.842 14.594-34.801 26.87-8.218 11.262-13.569 24.927-13.991 38.847-.198 6.532.098 13.078 1.347 19.504.957 4.923 9.538 3.873 8.871-1.201Z"/><path d="M508.213 438.211c-11.942-61.4 49.804-102.63 104.78-103.576 46.18-.794 88.389 23.672 107.737 65.918a130 130 0 0 1 4.988 12.582c9.363 27.767 11.61 57.351 13.744 86.576 5.572-21.188 27.691-34.525 49.43-37.246 29.78-3.727 61.451 9.673 78.315 34.5s17.325 60.141-.064 84.602c3.46-4.868 38.197 1.185 43.971 2.254 14.99 2.777 29.606 8.365 40.651 19.212 24.284 23.851 30.043 61.205 14.864 91.587-25.924 51.887-105.951 68.623-158.369 66.038 5.602-34.253-1.66-70.105-18.21-100.613s-42.063-55.748-71.606-73.965c-29.231-18.025-67.482-29.057-97.334-12.081 6.023-8.083 6.741-19.162 4.278-28.936s-7.738-18.568-12.944-27.199c-8.674-14.383-17.457-28.909-29.202-40.916-20.592-21.053-48.635-32.792-75.87-43.997"/><path d="M512.627 436.994c-1.941-11.676-.756-21.944 3.53-32.918.139-.357.284-.711.426-1.066-.03.075-.449 1.036-.138.323.262-.601.527-1.199.804-1.794.595-1.28 1.291-2.498 1.94-3.736 1.27-2.423 2.408-4.884 3.822-7.236s2.959-4.609 4.588-6.814c1.175-1.591-.557.658.331-.43.419-.513.831-1.031 1.256-1.539a89 89 0 0 1 2.817-3.213c1.881-2.044 3.856-4 5.91-5.87a99 99 0 0 1 4.63-3.964l.913-.727c.844-.674.013-.108-.324.249 1.892-2.004 4.885-3.544 7.196-5.024a116 116 0 0 1 7.125-4.211 123 123 0 0 1 9.647-4.714c.149-.065.871-.477 1.101-.474.041 0-1.768.715-.809.347 1.394-.534 2.778-1.09 4.168-1.635a127 127 0 0 1 16.544-5.18 128 128 0 0 1 10.503-2.069c.752-.115 3.305-.159.401-.074 1.452-.043 2.935-.351 4.384-.485a121 121 0 0 1 18-.296 123 123 0 0 1 6.968.593c.722.082 3.482.63.693.07 3.112.625 6.264 1.007 9.37 1.696a119 119 0 0 1 17.991 5.509c.699.277 1.389.584 2.092.851.033.013-1.914-.836-.904-.375.39.178.785.344 1.177.519a115 115 0 0 1 12.494 6.544 113 113 0 0 1 7.741 5.13c.606.439 1.198.895 1.804 1.334.905.656-.826-.649-.792-.621.328.271.673.526 1.006.792q1.88 1.498 3.694 3.075a116 116 0 0 1 13.088 13.347q.728.875 1.438 1.766l.606.768c.844 1.059-1.214-1.624-.415-.529.967 1.325 1.946 2.638 2.875 3.991a112 112 0 0 1 5.092 8.143 114 114 0 0 1 4.446 8.692c.412.897.802 1.804 1.203 2.706.481 1.081-.159-.404-.213-.505.254.477.433 1.061.635 1.569q1.17 2.95 2.196 5.955c2.686 7.862 4.792 15.919 6.482 24.051a270 270 0 0 1 2.244 12.268q.476 2.977.895 5.964c.08.569.163 1.138.236 1.708-.015-.114-.231-1.794-.083-.587.14 1.142.291 2.283.429 3.425 1.002 8.293 1.751 16.617 2.473 24.939.361 4.158.699 8.319 1.036 12.479.408 5.04 3.522 9.192 8.733 9.892 4.855.652 9.766-2.334 11.051-7.215.22-.835.452-1.665.719-2.486q.198-.61.416-1.215c.196-.543 1.092-1.651.192-.587-.851 1.005-.106.25.13-.263q.267-.578.55-1.146.637-1.277 1.359-2.508a43 43 0 0 1 2.062-3.188l.37-.514q.76-1.016-.011-.005l-.388.504q.296-.374.602-.74.406-.49.826-.969a49 49 0 0 1 1.953-2.106 54 54 0 0 1 4.025-3.688c1.872-1.549-1.403.992.564-.455q1.182-.87 2.405-1.68c1.547-1.024 3.139-2.001 4.78-2.867a65 65 0 0 1 3.561-1.731c1.301-.585.756-.166-.212.073 1.776-.438 3.533-1.361 5.287-1.92q2.679-.855 5.416-1.494c2.737-.639 3.649-.735 5.486-1.056 1.344-.235-2.05.234-.698.088.447-.048.892-.105 1.339-.152a78 78 0 0 1 3.055-.262 82 82 0 0 1 11.58.064q1.36.104 2.718.251c.246.027 2.456.123.693.069-1.531-.047-.071-.004.349.06a85.4 85.4 0 0 1 16.81 4.368c.555.207 2.21.536 2.544.992l-1.188-.507q.47.2.937.407.622.275 1.242.559a85 85 0 0 1 5.171 2.594c3.396 1.852 6.593 3.968 9.738 6.213 1.529 1.092-.359-.363-.489-.398.414.109.982.778 1.324 1.057a80 80 0 0 1 2.072 1.748 76.5 76.5 0 0 1 8.093 8.2c.587.692 1.151 1.399 1.721 2.105.88 1.09-1.226-1.671-.418-.526.327.463.672.913.999 1.375a71.4 71.4 0 0 1 6.589 11.414l.289.635q.558 1.278.014-.007l-.269-.644q.201.482.393.967.258.647.505 1.298c.699 1.848 1.309 3.724 1.876 5.616s1.06 3.809 1.481 5.74c.405 1.858.43 4.057 1.043 5.838-.82-2.385-.199-1.493-.087-.462a78 78 0 0 1 .393 5.217q.139 3.31-.001 6.621c-.14 3.311-.39 4.388-.559 6.588.017-.218.425-2.699.095-.827-.101.57-.186 1.143-.288 1.713a74 74 0 0 1-2.439 9.752 70 70 0 0 1-1.149 3.268c-.164.432-.336.86-.504 1.291-.723 1.852.736-1.605.156-.371-1.931 4.11-4.06 8.036-6.68 11.755-3.132 4.445-1.166 11.012 2.812 14.085 3.877 2.995 10.98 3.434 14.337-.854.657-.839 1.561-.782-1.592 1.138.465-.284 1.518-.707-.573.18-2.327.987 0 .202.695.007 1.066-.299-3.436.328-1.318.179.415-.029.829-.07 1.244-.094a49 49 0 0 1 3.196-.068c4.861.037 9.722.524 14.545 1.099 1.101.132 5.612.753 1.357.154 1.28.18 2.56.355 3.839.544q3.162.467 6.316.991c4.098.68 8.189 1.409 12.223 2.411 3.633.903 7.221 1.996 10.721 3.325.771.292 3.379 1.772.829.293.736.427 1.606.712 2.373 1.077a71 71 0 0 1 5.266 2.769 65 65 0 0 1 4.398 2.797c.702.488 1.381 1.1 2.116 1.536-2.027-1.201-1.004-.803-.465-.329.471.414.96.807 1.43 1.222 2.673 2.359 5.132 4.965 7.411 7.705.514.618.997 1.261 1.513 1.877-2.104-2.512-.115-.097.309.5a77 77 0 0 1 2.819 4.261c1.835 2.984 3.426 6.09 4.874 9.278.815 1.796-.97-2.431.04.116a79 79 0 0 1 2.491 7.308c.929 3.236 1.584 6.511 2.158 9.825.348 2.01-.298-2.579-.001-.02a80 80 0 0 1 .518 7.699c.064 3.37-.09 6.739-.45 10.09-.048.448-.102.895-.148 1.343-.199 1.935.101-.869.145-1.029-.205.749-.239 1.574-.373 2.342a79.4 79.4 0 0 1-4.206 15.115c-.167.429-.345.854-.511 1.283-.453 1.17.518-1.206.48-1.134-.429.811-.756 1.699-1.151 2.528a79 79 0 0 1-2.03 3.966 82 82 0 0 1-4.517 7.297c-.736 1.061-1.539 2.073-2.28 3.129.026-.037 1.87-2.353.762-.997-.175.214-.346.433-.52.648a94 94 0 0 1-1.597 1.917 94 94 0 0 1-5.718 6.09 104 104 0 0 1-6.279 5.639q-.873.723-1.762 1.429c-.223.177-.45.348-.67.528-1.067.867 2.066-1.539.948-.737-1.163.835-2.297 1.708-3.469 2.531-4.848 3.406-9.942 6.459-15.192 9.202a160 160 0 0 1-9.925 4.755c-.762.334-3.519 1.397-.047.038-1.496.586-2.972 1.22-4.471 1.8a202 202 0 0 1-17.264 5.788 232 232 0 0 1-17.722 4.331 251 251 0 0 1-13.331 2.342c-.687.102-1.375.197-2.063.297-1.826.266 1.173-.153 1.237-.163-.487.074-.979.128-1.468.191-11.286 1.434-22.63 2.062-34.003 2.023a220 220 0 0 1-7.743-.166l10.776 14.146c6.81-45.035-5.275-91.437-31.919-128.267-12.689-17.541-28.001-32.626-45.249-45.659-16.829-12.717-35.354-23.418-55.652-29.504-23.186-6.952-48.731-7.121-70.273 4.96l14.006 14.006c8.622-11.916 8.544-28.5 3.796-41.897-4.819-13.598-13.024-26.016-20.708-38.137s-16.259-23.995-26.884-33.759c-10.027-9.214-21.471-16.843-33.456-23.259-13.729-7.349-28.17-13.289-42.555-19.208-2.325-.957-5.963-.158-8.027 1.05-2.161 1.265-4.222 3.742-4.788 6.226-1.381 6.065 1.864 10.588 7.276 12.815 2.85 1.173 5.701 2.341 8.545 3.527l2.138.894c2.447 1.023-2.076-.89.363.154 1.66.711 3.321 1.419 4.975 2.142 5.667 2.474 11.289 5.057 16.811 7.842 5.484 2.765 10.871 5.729 16.084 8.979a156 156 0 0 1 7.628 5.066c1.22.865 2.579 1.696 3.686 2.703-1.663-1.513-.706-.556-.287-.221.794.635 1.589 1.266 2.373 1.913a117 117 0 0 1 13.954 13.638q1.324 1.534 2.602 3.106c.506.622 1.062 1.24 1.517 1.9-1.433-2.08.113.153.362.483a197 197 0 0 1 6.103 8.618c3.631 5.41 7.04 10.964 10.416 16.535s6.856 11.168 9.744 17.044q.54 1.099 1.051 2.212.339.74.663 1.489-.757-1.807-.103-.196c.651 1.788 1.313 3.56 1.837 5.392.483 1.69.823 3.393 1.169 5.114.477 2.372-.131-1.763-.02-.208.061.847.159 1.689.2 2.538.08 1.701-.027 3.373-.085 5.071-.084 2.478.491-2.293.011.133-.185.938-.352 1.874-.591 2.801a31 31 0 0 1-1.088 3.387q.884-2.024.185-.492c-.8 1.48-1.587 2.906-2.576 4.273-2.535 3.506-1.498 9.561 1.601 12.405 3.403 3.124 8.306 3.9 12.405 1.601a67 67 0 0 1 3.254-1.722q.656-.323 1.319-.629c.143-.066 2.352-1.008.774-.361s.644-.239.791-.295q.674-.256 1.354-.498a64 64 0 0 1 4.11-1.303 67 67 0 0 1 6.283-1.437c.47-.084.943-.152 1.413-.238 2.465-.451-2.378.224.117-.024 1.193-.118 2.383-.248 3.579-.33 4.714-.323 9.456-.2 14.156.277.61.062 1.218.137 1.828.203.747.082 1.611-.17-.533-.075 1.121-.05 2.556.397 3.658.598 2.45.446 4.885.98 7.299 1.592a127 127 0 0 1 13.685 4.335c1.185.449 2.359.922 3.535 1.394 1.736.696-.066-.052-.351-.154.592.212 1.167.505 1.742.76a154 154 0 0 1 7.194 3.422c8.58 4.357 16.743 9.523 24.557 15.13.914.656 1.817 1.328 2.728 1.989 2.265 1.644-2.598-2.035.752.554s-1.46-1.169.735.571a259 259 0 0 1 5.822 4.723 210 210 0 0 1 10.584 9.526 202 202 0 0 1 10.394 10.786 194 194 0 0 1 7.705 9.168c.459.582 1.374 2.404.174.214 1.043 1.902 2.725 3.641 3.991 5.414a183 183 0 0 1 4.424 6.484 177 177 0 0 1 7.456 12.538c2.402 4.45 4.913 9.07 6.671 13.821-.867-2.343-.232-.543.008.045a167 167 0 0 1 4.668 12.922 165 165 0 0 1 4.349 16.81c.589 2.903 1.063 5.82 1.524 8.745.417 2.643-.205-1.781-.005-.081.11.934.23 1.866.332 2.801.146 1.335.278 2.672.386 4.01.475 5.88.553 11.808.306 17.701a145 145 0 0 1-.814 10.443c-.063.552-.288 3.375-.006.243-.144 1.594-.474 3.201-.741 4.777-1.257 7.397 2.997 13.701 10.776 14.146 24.917 1.427 50.479-1.508 74.642-7.626 25.681-6.502 50.936-17.38 70.979-35.016 21.471-18.893 34.478-46.984 32.28-75.816-1.199-15.731-6.099-31.266-15.076-44.329-4.676-6.804-10.124-13.167-16.64-18.27-7.375-5.775-15.317-10.022-24.134-13.211-9.842-3.56-20.269-5.183-30.601-6.608-6.037-.833-12.089-1.631-18.176-2.007-4.865-.3-10.016-.428-14.78.769-2.486.625-5.704 2.036-7.331 4.125l17.149 13.232c10.487-14.959 15.29-34.044 14.164-52.205-1.201-19.363-8.402-37.522-21.228-52.124-23.227-26.443-64.19-38.256-97.625-26.392-19.166 6.801-36.461 20.436-42.132 40.676l19.784 2.678c-2.311-35.463-5.034-72.284-20.215-104.962-11.655-25.088-32.418-45.769-57.508-57.4-25.28-11.718-53.512-15.086-80.87-9.871-24.53 4.676-48.234 16.59-65.698 34.593-8.404 8.663-16.328 19.439-19.997 31.061-3.706 11.741-4.352 23.987-3.058 36.178a97 97 0 0 0 1.612 10.117c.52 2.417 3.344 3.825 5.63 3.196 2.588-.711 3.603-3.182 3.196-5.63Z"/><path fill="#8170f9" d="M228.115 708.591c7.872-10.442 16.302-21.046 26.412-29.749a93 93 0 0 1 3.837-3.145c-.733.566.008-.001.135-.095.368-.27.732-.545 1.1-.813a89 89 0 0 1 2.239-1.577c2.759-1.878 5.628-3.607 8.61-5.108a63 63 0 0 1 1.839-.888c.387-.179.782-.345 1.168-.526.935-.44-1.417.551.123-.054a85 85 0 0 1 4.328-1.576c3.012-.999 6.072-1.815 9.197-2.371.752-.134 1.519-.287 2.28-.362-.201.02-1.541.177-.284.051.338-.034.675-.073 1.013-.105a56 56 0 0 1 5.065-.252 53 53 0 0 1 4.282.157c.712.056 1.534.267 2.248.225-.18.01-1.659-.257-.388-.045.491.082.982.16 1.471.252q2.197.412 4.344 1.038c1.233.361 3.166.708 4.211 1.474-1.256-.921-.72-.304-.144-.038q.563.259 1.117.536.89.445 1.756.933c1.392.786 2.691 1.684 4.001 2.595.905.629-1.421-1.179-.212-.166.233.195.471.384.704.579q.693.584 1.359 1.198a40 40 0 0 1 3.116 3.212c.373.429.702 1.01 1.137 1.367-1.254-1.029-.701-.925-.25-.314q.262.355.517.716a45 45 0 0 1 2.255 3.538 48 48 0 0 1 1.839 3.548c.126.27.246.542.371.812.538 1.17-.227-.536-.26-.64.224.704.559 1.389.814 2.085a61 61 0 0 1 2.323 8.08c.344 1.588.62 3.187.866 4.793.08.526.145 1.556-.1-.776.049.464.114.928.166 1.392q.129 1.167.223 2.336c.262 3.23.342 6.474.27 9.714a112 112 0 0 1-.656 9.752c-.087.786-.204 1.57-.284 2.356.299-2.958.027-.248-.088.501a132 132 0 0 1-.879 5.04c-.837 4.332.861 8.564 5.076 10.342 3.73 1.574 9.059.361 10.947-3.587 1.839-3.846 4.098-7.446 6.258-11.113a129 129 0 0 1 6.873-10.46c.579-.794 1.173-1.576 1.763-2.362.594-.791-.763 1.026-.701.905.104-.202.313-.401.454-.579q.607-.771 1.227-1.533a134.5 134.5 0 0 1 17.714-18.017 137 137 0 0 1 3.431-2.797l.581-.455c.904-.715-1.658 1.259-.735.57 3.416-2.551 6.889-5.002 10.509-7.258a135 135 0 0 1 10.926-6.124 153 153 0 0 1 7.117-3.329l.676-.292c.834-.367-1.162.462-1.139.479.247.179 2.755-1.116 3.189-1.284 8.963-3.474 18.335-5.985 27.865-7.276l-2.501.336c6.558-.851 13.189-1.063 19.756-.186l-2.487-.334c3.634.52 7.217 1.359 10.651 2.671.324.124.643.264.967.383-2.648-.971-.915-.38-.321-.099q1.062.501 2.091 1.066c1.582.867 3.036 1.879 4.512 2.909-2.601-1.815-.401-.295.201.226q.83.717 1.616 1.483a43 43 0 0 1 3.212 3.49c.181.219.35.451.536.665-1.791-2.065-.94-1.251-.538-.672.366.526.742 1.044 1.095 1.579a43 43 0 0 1 2.362 4.059q.489.954.934 1.931c.118.259.224.53.35.786-1.271-2.584-.502-1.202-.247-.555a55 55 0 0 1 1.502 4.342c.883 2.931 1.539 5.928 2.02 8.95.048.3.09.601.138.9.279 1.745-.278-2.271-.064-.507.092.765.181 1.53.258 2.297.156 1.551.348 3.098.489 4.65.299 3.296.449 6.604.491 9.913.09 7.139-.266 14.312-.692 21.437-.336 5.624 7.351 8.585 11.101 4.598 1.93-2.052 3.861-4.03 6.05-5.803q.872-.704 1.753-1.397c1.448-1.141-.912.678.562-.432 1.194-.9 2.396-1.79 3.615-2.657a145 145 0 0 1 26.83-15.073c1.131-.489-.581.223.673-.28 5.214-2.093 10.528-3.913 15.777-5.911 2.583-.983 4.641-3.616 3.701-6.519-.951-2.94-3.587-4.222-6.519-3.701-5.576.992-10.808 2.779-16.059 4.885-5.588 2.241-11.066 4.746-16.364 7.609a145 145 0 0 0-14.297 8.836c-2.56 1.796-5.053 3.684-7.512 5.617a137 137 0 0 0-2.404 1.933q.708-.586-.127.042c-1.227.812-2.39 1.746-3.559 2.638l9.552 7.344c3.807-16.681 6.113-34.171 2.523-51.095-1.824-8.6-5.463-16.553-10.868-23.47-5.929-7.587-14.676-12.844-23.835-15.555-9.367-2.773-19.515-3.041-29.159-1.844-9.283 1.153-18.378 3.145-27.217 6.229-17.25 6.02-32.983 15.324-46.793 27.265a134.4 134.4 0 0 0-17.635 18.437c-5.611 7.119-10.833 14.559-14.676 22.794q-.678 1.452-1.318 2.922c-.317.726-.624 1.457-.932 2.187-1.026 2.43-.177.275.049-.15-.15.282-.263.618-.388.907l16.023 6.755c2.083-13.379 2.568-26.862-.059-40.21-2.397-12.181-8.065-24.37-17.621-32.569-10.953-9.397-25.388-13.295-39.659-11.617-7.456.877-14.486 2.792-21.313 5.933-6.604 3.038-12.597 7.283-18.116 11.985-12.425 10.585-21.984 24.175-31.023 37.636-1.342 1.999-.387 4.936 1.599 6.097 2.282 1.335 4.643.329 6.097-1.599Zm379.428-223.683c8.112-4.982 16.097-10.186 23.827-15.743 8.016-5.762 15.512-12.339 22.771-19.021a180 180 0 0 0 5.861-5.641c.907-.913 1.722-1.9 2.531-2.901 1.126-1.396 1.907-2.904 2.749-4.475 1.014-1.894.883-4.529-.782-6.057-1.625-1.491-4.101-1.962-6.057-.782-2.354 1.421-4.581 2.887-6.577 4.801-1.683 1.614-3.303 3.304-4.942 4.963a335 335 0 0 1-10.21 9.906c-3.415 3.176-6.978 6.186-10.406 9.344a332 332 0 0 1-10.614 9.37 298 298 0 0 1-6.055 4.998c-1.146.919-1.719 1.352-2.727 2.122q-1.624 1.239-3.261 2.459c-1.666 1.242-2.517 3.334-1.383 5.273 1.036 1.771 3.492 2.476 5.273 1.383Zm31.209 40.191c19.062-8.949 35.269-22.883 47.613-39.885 3.472-4.783 7.55-10.081 8.697-15.974.476-2.446-.291-5.278-2.657-6.528-2.267-1.198-5.151-.979-7.005.904-3.767 3.824-6.059 8.792-9.019 13.236a127 127 0 0 1-4.25 5.997l-.48.633c-.823 1.092.715-.908.152-.196-.371.469-.738.94-1.113 1.406q-1.185 1.475-2.412 2.915c-3.231 3.79-6.577 7.467-10.173 10.915a128 128 0 0 1-8.039 7.087c-.514.416-1.033.824-1.551 1.235-.244.194-.845.528.192-.145-.328.213-.641.489-.952.725l-.637.481-.876.677q.524-.404-.074.055-.795.605-1.597 1.2-1.766 1.305-3.575 2.548a128 128 0 0 1-7.045 4.5c-2.139 1.272-3.106 4.338-1.707 6.509 1.499 2.325 4.092 2.841 6.509 1.707Zm-49.595-83.574a64 64 0 0 1 2.094-2.973c.056-.074.532-.696.236-.314a55 55 0 0 1 .683-.852 61 61 0 0 1 3.827-4.268c1.313-1.333 2.679-2.581 3.937-3.966a61 61 0 0 1 4.115-4.115c.901-.82.923-2.325.193-3.242-.791-.993-2.06-1.208-3.185-.636a61 61 0 0 0-5.066 2.882c-1.882 1.197-3.474 2.65-5.031 4.237-2.916 2.971-5.534 6.252-7.834 9.72-1.012 1.526-.35 3.932 1.253 4.779 1.753.926 3.698.376 4.779-1.253Zm183.032 160.746c5.819-4.124 11.366-8.643 16.513-13.582 2.417-2.319 4.816-4.708 7.006-7.246 1.341-1.553 2.68-3.2 3.858-4.877.642-.913 1.306-2.039 1.576-3.118.196-.786.253-1.644.367-2.444.224-1.57-.019-3.034-1.381-4.051-1.31-.979-2.828-.999-4.28-.301-1.766.848-3.335 1.662-4.664 3.17-1.106 1.255-2.156 2.584-3.222 3.875-2.148 2.601-4.289 5.192-6.581 7.67a135.5 135.5 0 0 1-14.738 13.716c-1.773 1.422-1.619 4.377-.358 6.009 1.29 1.67 4.035 2.503 5.904 1.179m31.233 25.386c3.557-1.723 7.138-3.59 10.388-5.85a105 105 0 0 0 10.106-8.013c2.952-2.645 5.843-5.446 8.348-8.523a125 125 0 0 0 4.197-5.451c.559-.77 1.172-1.539 1.659-2.359 1.351-2.276 1.152-4.584.032-6.871-.778-1.588-2.603-2.359-4.264-2.446-1.955-.102-3.788.666-5.131 2.092-.897.953-1.584 2.166-2.35 3.231-.558.776-1.196 1.516-1.719 2.315.911-1.393-.114.136-.338.415q-.386.483-.778.96c-2.449 2.982-4.882 5.948-7.574 8.718a101 101 0 0 1-8.49 7.763c-1.475 1.206-2.912 2.453-4.416 3.624.659-.513-.109.079-.347.258a97 97 0 0 1-3.7 2.648c-1.869 1.278-2.886 3.868-1.555 5.932 1.353 2.099 3.743 2.616 5.932 1.555Zm35.001 23.002 3.705-5.188c.607-.85 1.185-1.658 1.655-2.591l1.478-2.931c.723-1.433.481-3.11-.822-4.117-1.233-.953-3.072-.896-4.191.25l-2.268 2.322c-.928.95-1.679 2.016-2.449 3.094l-3.765 5.271c-.55.771-.63 2.092-.389 2.97.246.894.937 1.863 1.771 2.303.894.473 1.978.709 2.97.389 1.004-.325 1.691-.914 2.303-1.771Zm-86.329-79.43c2.11 0 4.132-1.856 4.035-4.035s-1.773-4.035-4.035-4.035c-2.11 0-4.132 1.856-4.035 4.035s1.773 4.035 4.035 4.035"/><path fill="#ff8345" d="M133.045 275.698c9.491-9.105 19.377-17.724 29.161-26.505a1032 1032 0 0 1 38.122-32.578c1.415-1.151 2.755-2.398 4.125-3.602.886-.778 1.726-1.486 2.427-2.451.527-.724 1.019-1.476 1.529-2.212.857-1.238.48-3.143-.537-4.159-1.171-1.171-2.734-1.139-4.159-.537-1.519.642-2.842 1.232-4.156 2.235a1059 1059 0 0 0-4.145 3.181c-2.692 2.077-5.238 4.362-7.818 6.576q-7.512 6.444-14.9 13.032c-9.74 8.686-19.269 17.561-28.503 26.783a2939 2939 0 0 0-15.659 15.724c-2.891 2.931 1.547 7.359 4.513 4.513m23.108 43.118a876 876 0 0 1 40.12-36.302 1510 1510 0 0 1 20.885-17.409 877 877 0 0 1 18.347-14.627l.735-.569c.53-.411-.24.184-.282.218.485-.382.979-.754 1.468-1.131a874 874 0 0 1 18.185-13.597c1.368-.995 2.753-1.956 3.972-3.134.573-.553 1.127-1.081 1.616-1.714.704-.911 1.052-1.962 1.365-3.056.924-3.229-1.635-6.324-4.878-6.403a11.6 11.6 0 0 0-1.906.087c-1.106.149-2.043.615-3.003 1.145a23 23 0 0 0-2.905 1.885 1089 1089 0 0 0-6.404 4.932 869 869 0 0 0-31.454 25.591c-13.761 11.741-26.961 24.095-39.794 36.841a876 876 0 0 0-21.347 21.963c-1.38 1.47-1.457 3.822 0 5.28s3.823 1.403 5.28 0m41.746 28.393c12.065-10.059 24.875-19.165 37.833-28.036s25.92-17.751 39.207-26.136a806 806 0 0 1 17.117-10.51c2.484-1.484 4.992-2.794 6.428-5.439 1.746-3.215-.403-7.649-4.316-7.521-1.629.053-2.987.354-4.45 1.089-.972.489-1.866 1.136-2.776 1.733a815 815 0 0 0-14.763 9.912 820 820 0 0 0-19.48 13.809c-13.056 9.544-25.627 19.65-37.895 30.187-6.782 5.825-13.507 11.706-20.31 17.506-.991.844-.868 2.538 0 3.406.99.99 2.404.836 3.406 0Zm60.341 43.379c1.818-2.488 3.648-4.969 5.531-7.408a223 223 0 0 1 2.249-2.838 152 152 0 0 1 2.981-3.579c3.828-4.448 7.957-8.646 12.57-12.285-.787.621.195-.145.298-.221a60 60 0 0 1 2.742-1.93 53 53 0 0 1 3.807-2.295 54 54 0 0 1 3.652-1.793c1.134-.512-.892.338.268-.108q.344-.135.69-.268a43 43 0 0 1 2.459-.848 39 39 0 0 1 4.009-1.03c.324-.064 1.254-.436.077-.049.294-.097.719-.074 1.026-.089a12 12 0 0 1 1.367.01q.808.076-.273-.047c.025-.037.944.219.943.24.009-.136-.989-.448-.005.044.91.455-.704-.713-.016.046-.181-.2-.477-.896-.168-.138-.484-1.187.046.06-.005.249l-.08-.544q.025.382.015.766c-.005.213-.08 1.543.03.251-.033.382-.129.766-.202 1.143-.755 3.912-1.809 7.777-3.094 11.548a91 91 0 0 1-2.036 5.407c.295-.697-.301.685-.284.647-.247.56-.495 1.121-.758 1.674a60 60 0 0 1-1.484 2.849c-1.103 2.024-.939 4.872.839 6.504 1.649 1.514 4.53 2.249 6.504.839 4.351-3.106 8.609-6.328 13.054-9.303a227.5 227.5 0 0 1 36.45-19.842l1.011-.433c.759-.328-.916.38-.152.064a295 295 0 0 1 3.866-1.577c5.889-2.339 11.872-4.345 17.614-7.04 2.301-1.08 3.004-4.236 2.094-6.392-1.049-2.485-3.483-3.407-6.038-2.964-5.387.935-10.436 2.796-15.5 4.824a248 248 0 0 0-15.647 6.872 227.5 227.5 0 0 0-27.83 15.939c-5.301 3.555-10.578 7.266-15.425 11.423l8.429 6.504c.489-1.124.979-2.248 1.431-3.387-.029.074-.313.754-.086.192.198-.49.413-.974.618-1.461q.358-.846.7-1.699a90 90 0 0 0 4.926-16.985c.818-4.4 1.451-9.204-1.977-12.744-2.969-3.065-7.331-3.277-11.281-2.644-6.42 1.027-12.769 4.228-18.049 7.927-5.504 3.856-10.364 8.507-14.746 13.588-5.028 5.829-9.504 12.113-13.873 18.442-1.166 1.69-.369 4.419 1.404 5.355 2.036 1.076 4.061.367 5.355-1.404Z"/><path fill="#edc851" d="M610.917 265.623a517 517 0 0 1 3.301-8.492c.144-.361.284-.725.434-1.084.092-.219.474-.817.027-.03.378-.665.68-1.394 1.018-2.08a500 500 0 0 1 2.067-4.148c2.648-5.253 5.424-10.439 8.062-15.697a503 503 0 0 1 17.229-31.481c3.501-5.889 7.135-11.697 10.847-17.456 2.547-3.953.938-10.08-3.219-12.276-4.225-2.232-9.839-1.162-12.276 3.219-5.911 10.624-11.373 21.504-16.462 32.544-5.268 11.429-10.182 22.987-14.183 34.922-1.079 3.22-1.979 6.533-3.204 9.699a579 579 0 0 0-3.628 9.605c-.934 2.548 1.045 5.785 3.617 6.37 2.95.672 5.341-.899 6.37-3.617Zm80.254 36.001a510 510 0 0 1 2.524-3.326c.376-.491.748-.986 1.131-1.472-.98 1.242-.414.535-.201.261l.843-1.083q2.536-3.249 5.128-6.453c3.462-4.281 7.052-8.447 10.597-12.657 7.075-8.402 14.203-16.724 21.732-24.727a483 483 0 0 1 6.382-6.656 257 257 0 0 0 3.191-3.332c.527-.56 1.066-1.11 1.585-1.677 1.921-2.096 3.07-4.629 2.962-7.521-.176-4.746-3.913-8.901-8.852-8.852-2.4.024-4.456.621-6.365 2.096-.833.644-1.511 1.322-2.226 2.08-.951 1.008-1.904 2.012-2.817 3.054a491 491 0 0 0-16.117 19.38 552 552 0 0 0-11.255 14.743c-3.264 4.435-6.26 9.084-9.245 13.71a490 490 0 0 0-9.918 16.049c-1.686 2.848-.739 7.062 2.268 8.651 1.467.775 3.245 1.164 4.872.637 1.667-.539 2.733-1.516 3.779-2.906Zm65.459 55.462a79 79 0 0 1 6.783-3.467c2.321-1.048 4.674-2.038 6.943-3.194q6.899-3.516 13.824-6.98c9.083-4.544 18.055-9.294 27.085-13.943q3.822-1.968 7.652-3.92c1.313-.669 2.641-1.31 3.917-2.048 1.118-.647 2.241-1.351 3.185-2.239 2.038-1.918 2.895-4.446 3.073-7.182.198-3.04-1.829-6.247-4.42-7.705-2.282-1.284-4.855-1.689-7.418-1.066-1.192.289-2.306.818-3.405 1.362-1.176.582-2.301 1.24-3.432 1.904a2018 2018 0 0 0-19.816 11.79c-8.697 5.241-17.178 10.806-25.65 16.403-4.869 3.217-9.366 6.933-14.339 9.989-2.656 1.632-3.91 5.409-2.139 8.156s5.259 3.797 8.156 2.139Zm61.506 56.789c9.014-2.014 18.067-3.907 27.038-6.105l13.573-3.324c3.997-.979 8.045-1.875 11.869-3.425 3.906-1.584 8.636-3.894 9.859-8.334.745-2.704.031-5.749-1.914-7.772-.945-.983-2.297-1.735-3.602-2.117-.597-.175-1.648-.314-2.277-.342-1.665-.075-3.018.636-4.472 1.277l1.948-.822c-1.443.605-2.885 1.206-4.318 1.835l2.02-.852c-1.725.728-3.406 1.543-5.13 2.27l2.012-.849c-3.742 1.533-7.66 2.59-11.533 3.734l-12.92 3.817c-8.614 2.545-17.146 5.399-25.706 8.119-3.327 1.057-5.81 4.694-4.668 8.222 1.16 3.585 4.562 5.486 8.222 4.668Z"/></svg>