<?xml version="1.0" encoding="UTF-8"?><svg xmlns="http://www.w3.org/2000/svg" data-name="ARTWORK" viewBox="0 0 1000 1000"><g fill="#8170f9"><path d="M433.949 242.731c-84.091 15.3-161.89 53.897-238.009 92.773-38.628 19.729-78.102 40.363-106.858 72.835-58.074 65.577-59.291 165.544-32.527 248.951 9.337 29.099 21.593 57.171 31.817 85.97 19.602 55.212 33.113 115.529 73.444 158.027 41.845 44.092 106.433 60.709 167.119 57.197s118.789-24.757 175.484-46.684c26.665-10.313 53.251-20.827 79.837-31.341 60.755-24.027 121.896-48.246 177.304-82.864 24.626-15.386 48.875-33.77 61.812-59.766 14.406-28.946 12.753-63.033 9.315-95.183-10.745-100.476-35.797-199.412-74.164-292.894-12.308-29.99-26.934-60.651-52.696-80.329-16.856-12.875-37.322-20.087-57.796-25.629-111.254-30.118-234.098-14.823-334.57 41.655"/><path d="M432.525 237.565c-88.927 14.98-171.255 55.007-251.004 95.42-36.76 18.628-74.47 39.346-101.601 71.147-24.414 28.617-39.586 63.899-45.954 100.838-6.498 37.691-4.941 76.23 2.325 113.694 8.294 42.766 26.123 82.349 40.837 123.107 13.566 37.581 23.777 76.48 41.178 112.587 17.258 35.81 42.844 66.403 77.76 86.041 33.731 18.972 72.696 27.685 111.191 28.533 45.019.992 89.865-9.101 132.501-22.781 44.598-14.31 88.064-32.184 131.661-49.236 43.218-16.905 86.57-33.823 128.492-53.781 20.356-9.691 40.353-20.169 59.662-31.817 17.462-10.534 34.743-22.001 49.329-36.362 15.285-15.048 26.74-33.421 32.127-54.275 5.429-21.014 5.363-43.059 3.605-64.545-3.727-45.551-11.36-91.034-21.314-135.616a1074 1074 0 0 0-38.783-132.814c-7.569-20.822-15.56-41.601-24.79-61.75-8.416-18.373-18.563-36.143-32.313-51.09-29.158-31.697-74.25-42.746-115.167-50.001-82.911-14.7-169.97-6.973-247.909 25.422-19.133 7.953-37.382 17.244-55.454 27.365-10.141 5.68-1.046 21.284 9.115 15.593 35.036-19.623 73.929-32.714 112.943-41.709 39.4-9.084 78.633-13.084 119.475-11.62 20.114.721 39.39 2.696 58.715 6.128 20.061 3.564 40.255 8.183 59.38 15.294 18.239 6.782 34.067 16.933 46.767 31.751 11.623 13.561 20.692 31.233 28.181 48.174 17.158 38.812 31.592 81.236 43.494 122.779a1076 1076 0 0 1 28.805 130.865c3.297 21.196 6.155 42.545 7.758 63.943 1.523 20.324 1.62 40.665-4.122 60.007-5.419 18.253-16.136 32.618-30.099 45.301-14.224 12.92-30.94 23.262-47.93 33.166-37.817 22.046-77.929 39.814-118.429 56.281-42.545 17.299-85.299 34.158-128.124 50.754-41.692 16.157-84.037 31.588-128.175 39.558-38.494 6.951-77.947 7.067-115.287-2.86-34.914-9.282-66.529-27.125-89.825-55.252-23.709-28.626-36.609-64.846-48.263-99.927-6.264-18.857-12.266-37.797-19.216-56.418-7.929-21.244-16.625-42.201-24.07-63.624-12.254-35.259-19.685-70.955-20.31-107.864-.589-34.784 4.824-70.155 19.485-101.426 16.071-34.279 42.077-60.42 73.749-81.068 16.962-11.058 34.836-20.624 52.773-29.985a4681 4681 0 0 1 58.028-29.74c38.871-19.6 78.557-37.796 119.943-51.464 20.228-6.68 40.814-12.237 61.711-16.39 6.816-1.355 3.858-11.462-2.848-10.332Z"/></g><path fill="#f5834a" d="M593.166 287.639c-17.265-51.229-26.616-107.89-16.161-160.93 5.651-28.669 24.53-59.18 53.675-61.276 6.768-.487 14.081.88 18.924 5.632 3.77 3.7 5.559 8.93 6.997 14.013 6.599 23.331 8.907 48.966 23.705 68.173 3.798 4.929 8.966 9.567 15.186 9.754 7.04.211 12.833-5.239 17.585-10.437A370 370 0 0 0 755.925 95.5c13.016-21.353 25.956-45.874 49.556-54.146 25.924-9.087 57.78 9.496 62.631 36.535 5.801 32.335-21.234 59.884-38.72 87.695a167 167 0 0 0-21.146 50.589c-1.203 5.127-2.134 10.66-.144 15.535 5.05 12.368 23.018 11.031 35.451 6.144 16.872-6.632 32.712-15.756 49.797-21.818s36.219-8.891 53.216-2.587c16.998 6.303 30.699 23.745 28.117 41.689-3.269 22.716-28.098 34.673-49.727 42.35s-46.627 18.452-51.448 40.89c20.546 12.89 52.57 3.659 67.442 22.819 8.959 11.541 6.389 29.13-2.726 40.549s-23.245 17.668-37.343 21.504c-47.775 12.998-98.881 2.649-145.595-13.759-40.171-14.111-79.211-32.953-111.685-60.489-32.474-27.537-58.114-64.385-67.093-106.004"/><path fill="#ff8345" d="M597.114 286.55c-2.974-10.481-5.794-21.408-7.783-31.891-2.158-11.372-4.095-21.122-5.827-32.617a343 343 0 0 1-.529-3.642c.005.034-.316-2.357-.15-1.087q-.095-.726-.188-1.454-.554-4.36-.991-8.735a309 309 0 0 1-1.186-16.047c-.517-10.909-.443-21.865.294-32.762a246 246 0 0 1 1.27-13.364c.041-.335.378-2.873.14-1.145.714-5.196 1.59-10.376 2.682-15.506.896-4.21 2.056-8.363 3.464-12.43a117 117 0 0 1 2.011-5.33c.741-1.844-.753 1.67.06-.141.233-.52.459-1.042.696-1.561a98 98 0 0 1 1.471-3.082 89 89 0 0 1 6.289-10.707 81 81 0 0 1 1.788-2.493l.166-.223q.822-1.08-.304.389c.073-.354.805-1.005 1.038-1.288a68 68 0 0 1 4.21-4.656 61 61 0 0 1 4.158-3.823c.302-.252 1.059-.67 1.243-1.009-.597 1.107-1.2.881-.26.217.935-.66 1.862-1.325 2.827-1.942a49 49 0 0 1 4.802-2.702c.393-.192.791-.372 1.185-.56 1.715-.821-1.922.753-.149.064.981-.381 1.956-.763 2.958-1.091a43 43 0 0 1 5.659-1.441c.353-.065.708-.117 1.061-.181 1.929-.352-2.14.188-.176.028 1.166-.095 2.325-.205 3.496-.225 1.254-.022 2.492.059 3.741.142 1.752.115-.425-.102-.478-.077.298-.142 1.504.281 1.828.356 1.006.233 1.969.562 2.949.877 1.944.625-1.606-.963.133.089.692.418 1.398.815 2.088 1.237 1.046.639.037-.261-.332-.268.296.006 1.149 1.072 1.347 1.282l.423.466q.923 1.11-.213-.308c.183.09.636.946.697 1.043.6.953 1.524 2.238 1.758 3.351-.365-1.733-.359-.903-.168-.342.276.807.579 1.604.841 2.416 1.458 4.53 2.557 9.188 3.649 13.817 4.506 19.108 8.031 39.269 19.073 55.943 6.244 9.429 15.653 19.222 28.05 17.817 11.908-1.349 19.789-10.687 27.224-19.156a387 387 0 0 0 39.443-53.581c4.534-7.428 8.914-14.962 13.865-22.124 1.234-1.786 2.5-3.55 3.807-5.284.349-.463 1.7-2.035-.056.06.25-.298.483-.614.725-.918q1.27-1.594 2.598-3.14c2.739-3.184 5.678-6.205 8.874-8.935.718-.613 1.465-1.188 2.189-1.792-2.436 2.03.57-.37 1.213-.809a55 55 0 0 1 5.307-3.206 52 52 0 0 1 2.807-1.375c.799-.362 1.799-.35-.511.213.535-.13 1.089-.443 1.607-.637a42 42 0 0 1 5.825-1.734c.921-.202 1.865-.305 2.783-.512-3.347.753-.464.078.432.01 2.044-.156 4.1-.166 6.146-.041.855.052 1.704.142 2.556.227 1.979.199-2.55-.426-.593-.071.422.077.846.142 1.267.221a50.4 50.4 0 0 1 8.202 2.27c.486.179.967.373 1.45.559 1.843.71-2.242-1.03-.457-.186 1.723.815 3.426 1.65 5.074 2.613s3.211 2.035 4.767 3.138c1.604 1.137-1.876-1.538-.361-.286.266.22.537.434.803.655a52 52 0 0 1 2.7 2.413 50 50 0 0 1 3.535 3.754c.33.389.631.823.98 1.193-1.987-2.103-.771-1.011-.306-.372a47 47 0 0 1 1.729 2.547 45 45 0 0 1 2.705 4.943c.143.305.263.64.423.934-1.407-2.583-.513-1.234-.222-.473q.552 1.442.996 2.922c.568 1.894.949 3.808 1.285 5.754.379 2.195-.21-2.425-.041-.219.031.402.079.803.112 1.205q.157 1.94.165 3.886c.009 2.073-.145 4.125-.338 6.186-.202 2.159.416-2.45.042-.316-.084.482-.158.966-.245 1.448a61 61 0 0 1-.802 3.738 69 69 0 0 1-1.771 5.963 79 79 0 0 1-1.139 3.089c-.183.467-.376.931-.563 1.397q-.436 1.053.416-.987-.241.556-.489 1.111c-1.856 4.14-4.003 8.145-6.309 12.051-9.86 16.696-22.556 31.549-31.927 48.55-5.415 9.823-9.913 20.231-13.414 30.885-1.631 4.962-3.068 10.009-4.184 15.112-1.391 6.362-2.189 13.289.152 19.537 7.293 19.473 31.307 19.607 47.839 13.202 10.898-4.222 21.372-9.427 31.968-14.331a380 380 0 0 1 7.128-3.22q1.024-.447 2.05-.887c2.257-.977-1.472.595-.018.01 1.496-.602 2.985-1.219 4.491-1.799 4.975-1.916 10.041-3.597 15.216-4.886 2.569-.64 5.163-1.188 7.775-1.623.474-.079.95-.147 1.423-.226 2.477-.416-2.343.232.153-.021 1.427-.145 2.851-.299 4.283-.393a73 73 0 0 1 7.834-.1q1.772.074 3.536.244l.704.072q1.705.202-.596-.1c.812-.102 1.987.311 2.79.465a56 56 0 0 1 6.865 1.764q1.019.331 2.022.706c1.003.375 2.45 1.171-.281-.16 1.047.51 2.114.968 3.145 1.515a46 46 0 0 1 5.454 3.401c.316.229.623.473.941.699-2.447-1.736-.752-.564-.234-.127q1.342 1.133 2.596 2.362c1.254 1.229 1.635 1.665 2.404 2.543q.383.438.755.885c.635.763.97 2.008-.158-.241.969 1.933 2.512 3.647 3.532 5.588q.332.631.642 1.275c.369.769.694 2.397-.105-.358.26.896.684 1.767.971 2.659a35 35 0 0 1 1.1 4.372c.508 2.791-.089-1.758.021.076.12 2.007.112 3.949-.005 5.958-.082 1.397.469-2.694.112-.751-.097.527-.182 1.055-.292 1.58a34 34 0 0 1-.791 3.054c-.254.819-.637 1.616-.861 2.44.755-2.784.612-1.403.217-.558q-.325.695-.68 1.375c-.872 1.67-1.903 3.223-2.974 4.77-1.124 1.625 1.621-1.953.345-.439-.333.396-.658.798-.998 1.189q-.857.981-1.771 1.91c-1.49 1.519-3.089 2.901-4.722 4.263-.513.428-1.515 1.016.809-.61-.443.31-.866.653-1.304.972a71 71 0 0 1-2.242 1.563 85 85 0 0 1-5.678 3.479c-3.613 2.032-7.354 3.813-11.15 5.473-1.953.854 2.377-.974.408-.169-.521.213-1.041.429-1.563.639q-1.299.523-2.607 1.027a217 217 0 0 1-5.957 2.192c-16.631 5.863-34.201 12.471-46.836 25.306-6.269 6.368-11.039 14.332-13.007 23.094-1.08 4.806.744 9.581 4.963 12.197 10.469 6.489 22.678 8.159 34.639 9.722l3.739.485.799.105c1.341.175-2.632-.36-1.295-.174q1.056.146 2.112.297c2.591.377 5.177.802 7.738 1.351 2.468.529 4.914 1.169 7.298 2.002.543.19 1.078.399 1.618.599 1.655.613-2.53-1.169-.582-.239 1.167.557 2.315 1.135 3.423 1.803q.724.435 1.422.91c.423.288 2.069 1.528.457.291-1.666-1.279.033.073.392.396a28 28 0 0 1 1.593 1.554c.405.428.78.879 1.172 1.318.248.277.859 1.087-.196-.276-1.111-1.436-.276-.339-.017.039.82 1.198 1.395 2.492 2.118 3.739-1.615-2.785-.395-.978-.056.031q.316.945.563 1.91c.247.965.31 1.294.432 1.949.041.222.086 1.013.187 1.129-.146-.168-.292-2.774-.191-1.203.087 1.348.154 2.688.108 4.041-.026.778-.094 1.549-.158 2.325-.032.392-.188 1.505.054-.296.269-2 .008-.176-.075.28a38 38 0 0 1-1.709 6.259c-.102.278-.216.552-.316.831-.452 1.262 1.12-2.401.302-.714-.604 1.244-1.204 2.479-1.908 3.672a38 38 0 0 1-1.096 1.747c-.53.796-2.483 2.881-.181.377-2.152 2.34-4.166 4.677-6.615 6.731-.241.202-.489.395-.728.598-1.059.903 1.871-1.383.744-.565-.594.432-1.182.872-1.786 1.29a62 62 0 0 1-3.996 2.545 71 71 0 0 1-4.764 2.548 81 81 0 0 1-2.314 1.083c-.367.165-.816.313-1.171.515.724-.413 2.217-.915.571-.255-3.27 1.312-6.614 2.433-9.994 3.424-7.794 2.285-15.78 3.891-23.826 4.981l2.944-.396c-18.302 2.4-36.823 1.89-55.09-.563l2.944.396c-22.639-3.105-44.786-9.084-66.363-16.522-10.341-3.565-20.618-7.297-30.736-11.459-1.011-.416-2.152-1.125-3.209-1.335l1.301.548q-.641-.272-1.281-.546a410 410 0 0 1-9.546-4.231 375 375 0 0 1-14.391-6.97c-9.464-4.841-18.712-10.112-27.666-15.841a280 280 0 0 1-13.717-9.353 266 266 0 0 1-4.443-3.301c-.417-.317-2.373-1.699-.161-.114-2.249-1.612-4.371-3.449-6.498-5.215-7.591-6.301-15.047-12.832-21.997-19.838-3.468-3.496-6.88-7.074-10.021-10.862q-1.23-1.483-2.432-2.988c-.4-.501-.795-1.007-1.194-1.51-1.301-1.637.702.935-.09-.111a242 242 0 0 1-4.771-6.484c-6.402-9.071-12.044-18.667-16.735-28.734a173 173 0 0 1-2.338-5.238c.622 1.455-.26-.641-.376-.925-1.046-2.571-1.986-5.179-2.967-7.773-.993-2.625-2.695-5.938-3.608-8.103-.802-1.903-2.445-5.279-2.967-7.673-.554-2.542-3.514-4.026-5.924-3.363-2.625.721-3.919 3.374-3.363 5.924q.135.627.276 1.253v-2.56c-.452 2.492.024 5.009.349 7.503.345 2.646.722 5.287 1.172 7.917.789 4.608 2.477 9.035 4.14 13.395a197 197 0 0 0 12.164 26.063c4.493 8.025 9.557 15.726 15.099 23.064.948 1.255 1.96 2.469 2.881 3.744 1.28 1.772-1.072-1.411.214.346.252.344.518.679.778 1.017 1.89 2.464 3.802 4.91 5.773 7.309a228 228 0 0 0 8.918 10.209c13.722 14.801 30.245 27.19 47.225 38.009 16.784 10.694 34.665 19.637 52.969 27.41 39.609 16.819 81.991 29.939 125.312 31.162 21.042.594 42.997-1.706 62.93-8.744 19.564-6.908 38.292-19.731 43.812-40.87 2.701-10.343 1.949-21.396-3.004-30.942-4.533-8.736-12.581-14.477-21.467-18.125-7.665-3.146-16.022-4.097-24.173-5.145-1.869-.24-3.739-.47-5.608-.711l-1.337-.175c-1.433-.187 3.038.426 1.013.133-1.066-.154-2.131-.306-3.195-.475-3.836-.61-7.659-1.371-11.376-2.51a55 55 0 0 1-2.466-.819c-.882-.318-3.634-1.754-.296-.054-1.692-.862-3.385-1.629-5.01-2.628l4.963 12.197c.422-1.909 1.003-3.745 1.681-5.576.709-1.915-1.178 2.493-.269.673.23-.461.445-.929.683-1.387q.71-1.367 1.532-2.67c.503-.797 1.052-1.557 1.593-2.327.501-.714 1.453-1.465-.595.746.348-.376.655-.803.989-1.192a49 49 0 0 1 4.391-4.465 57 57 0 0 1 2.015-1.725c.604-.494 2.237-1.544-.483.346.368-.256.719-.541 1.082-.806a77 77 0 0 1 5.232-3.485c3.665-2.239 7.493-4.202 11.394-5.994a152 152 0 0 1 2.577-1.154c.517-.226 1.04-.439 1.555-.67-3.032 1.357-1.11.47-.44.195 2.07-.85 4.155-1.664 6.249-2.454 3.777-1.424 7.588-2.751 11.339-4.243 8.566-3.406 17.078-7.184 24.76-12.33 7.798-5.224 14.963-11.638 19.799-19.779 5.347-9.002 7.098-19.318 5.488-29.598-3.215-20.521-21.491-36.656-41.004-41.496-23.67-5.871-47.47 1.434-69.061 10.991-5.225 2.313-10.38 4.777-15.545 7.218a716 716 0 0 1-7.429 3.472q-1.693.777-3.394 1.538-1.02.457-2.044.904c-.182.08-1.994.721-2.051.887l1.04-.437a209 209 0 0 1-3.447 1.411 53 53 0 0 1-10.892 3.145c-.507.088-1.021.147-1.526.241 3.243-.603 1.432-.193.644-.118-1.994.191-4.003.248-6.003.116-.323-.021-.645-.057-.969-.079-1.92-.131 2.654.476.783.111-.839-.164-1.673-.322-2.497-.554-1.082-.304-3.296-1.639-.343.027-.762-.43-1.542-.815-2.298-1.261-1.514-.892 1.946 1.728.654.537-.32-.295-.647-.575-.951-.886-.204-.209-.389-.432-.59-.644-1.213-1.282 1.395 2.167.508.618-.228-.398-.481-.776-.694-1.183-.154-.294-.967-1.628-.119-.185.871 1.482.005-.216-.102-.637a16 16 0 0 1-.277-1.323q.285 2.34.141.655c.021-1.147.004-2.277.072-3.424.142-2.408-.465 2.296-.003-.081.133-.684.245-1.37.387-2.052.552-2.66 1.228-5.298 1.944-7.919a167 167 0 0 1 4.982-15.297c.508-1.338 1.047-2.662 1.576-3.992.191-.481.687-1.788-.185.416.263-.664.564-1.317.852-1.97a166.5 166.5 0 0 1 11.379-21.472c5.193-8.28 10.971-16.172 16.529-24.206 11.267-16.285 21.724-33.563 23.96-53.624 2.066-18.534-5.528-37.239-20-49.018-14.291-11.632-32.934-17.392-51.188-13.245-19.106 4.341-33.228 19.511-43.855 35.056-5.028 7.355-9.525 15.057-14.109 22.691-5.508 9.173-11.344 18.137-17.593 26.823a365 365 0 0 1-6.076 8.202c-.213.279-1.703 2.239-.335.446-.885 1.16-1.794 2.302-2.701 3.444a370 370 0 0 1-10.726 12.9c-3.267 3.752-6.513 7.65-10.267 10.931-.484.423-1.57 1.872-.118.173-.358.419-1.074.778-1.536 1.075-.398.256-2.35 1.667-2.679 1.481l1.061-.455q-.562.21-1.14.378l-.579.155q-1.185.232.028.061l.614-.069a13.4 13.4 0 0 1-2.453.046q2.097.334.603.061c-.579-.171-1.168-.33-1.748-.498-1.372-.397.552.159.488.208-.236.181-2.94-1.661-3.153-1.941.972 1.276.876.727.366.233-.455-.441-.942-.848-1.394-1.294-.981-.968-1.849-2.02-2.751-3.059-.878-1.012 1.293 1.802.048.063-.376-.525-.762-1.043-1.132-1.572a68 68 0 0 1-1.775-2.678 75 75 0 0 1-3.742-6.694c-.568-1.146-1.089-2.312-1.626-3.473-.195-.421-.744-1.548.148.384-.268-.58-.49-1.189-.725-1.783a120 120 0 0 1-2.601-7.283c-1.471-4.551-2.71-9.173-3.858-13.815-2.409-9.741-4.359-19.616-7.236-29.236-1.663-5.56-3.914-10.807-7.669-15.279-3.694-4.4-9.256-7.379-14.815-8.634-18.771-4.24-37.95 5.075-50.26 18.953-12.043 13.576-19.623 30.99-22.893 48.749-4.061 22.058-4.98 44.543-3.164 66.881 1.825 22.446 5.76 44.752 12.589 66.214 3.253 10.223 6.748 20.345 10.646 30.341.803 2.058 2.746 3.488 5.035 2.859 2.126-.584 3.465-2.901 2.859-5.035Z"/><path d="M573.978 502.981c-5.824-.925-11.641-1.328-17.506-1.812-5.615-.464-11.328-.722-16.946-.334q-4.07.28-8.117.786c-1.82.227-3.642.463-5.454.748-1.064.167.347-.04.464-.056a95 95 0 0 0-2.403.356c-.775.127-1.554.234-2.329.36a153 153 0 0 0-16.429 3.606c-6.672 1.856-13.114 4.51-19.416 7.374l1.933-.816c-6.166 2.418-12.048 6.016-17.604 9.593-5.623 3.621-11.008 7.636-16.142 11.92a138.4 138.4 0 0 0-25.112 27.491c-13.892 20.064-21.605 43.66-24.243 67.796-2.569 23.509.328 47.728 8.524 69.918 4.096 11.089 9.329 21.821 16.29 31.405 6.895 9.493 14.937 17.681 24.418 24.599 17.033 12.428 37.975 18.704 58.925 19.494 22.3.841 44.427-4.67 64.579-13.975 10.809-4.991 21.062-11.215 30.527-18.434 10.179-7.764 19.585-16.395 27.766-26.264 16.249-19.601 27.914-42.839 32.264-68.034 4.268-24.715 2.533-50.487-6.173-74.096-4.3-11.662-10.008-22.804-17.473-32.763-3.966-5.291-8.199-10.371-13.023-14.906-4.863-4.571-10.616-8.463-16.555-11.51-3.061-1.571-6.331-3.143-9.657-4.058-1.757-.484-3.724-.44-5.545-.405-2.329.045-4.946-.035-6.681 1.768l4.51-1.192c-1.741-.341-3.509-.453-5.28-.472a42 42 0 0 0-3.332.099c-.355.028-2.139.104-1.187.101-2.046.007-4.008 1.795-3.913 3.913s1.719 3.92 3.913 3.913q-.663-.153.262.003.461.069.925.114c.32.036.523.065.084.003q1.053.15 2.098.355c1.333.262 2.635.649 3.966.91l-3.237-3.237c.524 1.358 1.087 2.33 2.345 3.132.415.265.865.485 1.289.736a46 46 0 0 1 2.54 1.627c.421.289.824.608 1.25.888q.291.261.659.395 2.954 1.235.71.313c.878.522 1.911.865 2.826 1.328a59 59 0 0 1 5.132 2.941 65 65 0 0 1 3.937 2.731q.321.24.641.485.948.681-.598-.423c.59.782 1.679 1.428 2.411 2.092.793.718 1.556 1.466 2.334 2.201 1.463 1.383 2.963 2.719 4.383 4.149 2.939 2.962 5.662 6.127 8.223 9.42l-1.266-1.639c6.321 8.182 11.509 17.174 15.545 26.688l-.832-1.972c4.509 10.717 7.529 22.006 9.108 33.521l-.301-2.242c1.672 12.453 1.714 25.105.06 37.561l.304-2.261c-1.587 11.705-4.661 23.175-9.244 34.065l.86-2.037c-4.726 11.136-10.932 21.585-18.307 31.169l1.337-1.731c-8.209 10.61-17.793 20.096-28.39 28.316l1.736-1.341c-11.077 8.55-23.216 15.747-36.11 21.197l2.056-.868c-11.232 4.717-23.022 8.076-35.099 9.726l2.294-.308c-10.312 1.382-20.777 1.503-31.095.12l2.3.309c-8.684-1.19-17.195-3.444-25.284-6.827l2.071.874a95 95 0 0 1-20.894-12.133l1.751 1.353c-6.627-5.123-12.53-11.105-17.65-17.731l1.35 1.748c-6.064-7.902-10.939-16.62-14.831-25.778l.868 2.058c-2.451-5.811-4.661-11.806-6.166-17.935-1.516-6.176-2.79-12.422-3.647-18.725l.312 2.32a153.2 153.2 0 0 1-.01-40.415l-.312 2.32a148.5 148.5 0 0 1 10.306-37.78l-.876 2.075c4.335-10.207 9.895-19.864 16.677-28.644l-1.328 1.718c6.99-8.993 15.222-16.991 24.215-23.967l-1.678 1.296c11.201-8.641 23.72-15.718 36.743-21.223l-1.833.774a366 366 0 0 0 4.678-2.014q.71-.307 1.422-.611c-2.291.986-.152.071.409-.157q3.274-1.328 6.604-2.505c4.358-1.54 8.781-2.904 13.282-3.957a148 148 0 0 1 10.107-1.998c.5-.081 1.045-.107 1.533-.239-1.132.307-.663.092-.281.054.849-.085 1.42-.228 2.187-.378 1.071-.21 2.158-.359 3.237-.52.568-.084 1.143-.195 1.716-.245-.164.014-1.062.136-.132.02q.585-.074 1.17-.145c2.261-.272 4.554-.569 6.83-.652 5.258-.193 10.537-.028 15.781.399 1.738.142 3.295-1.459 3.488-3.079.189-1.587-.778-3.616-2.544-3.897Z"/><path d="M565.44 552.448c-28.659 2.59-55.859 18.361-72.344 41.947-16.485 23.585-21.95 54.549-14.534 82.353 2.48 9.3 6.52 18.516 13.622 25.012 4.898 4.48 11.015 7.441 17.308 9.553 13.675 4.59 28.825 5.343 42.526.833 14.023-4.616 25.941-14.523 34.589-26.488s14.214-25.922 18.036-40.182c3.289-12.27 5.354-25.019 4.262-37.675s-5.531-25.27-14.003-34.736c-8.617-9.629-21.251-15.546-34.165-16.002-7.723-.272-15.414 1.322-22.762 3.715-24.514 7.982-46.074 25.475-57.651 48.51s-12.604 51.432-1.428 74.664c3.639 7.565 8.918 14.902 16.678 18.106"/><path d="M565.44 547.873c-10.791.447-21.547 2.566-31.667 6.343-2.861 1.068-5.718 2.219-8.474 3.536-.366.175-1.138.462.516-.193-.794.314-1.394.57-2.094.942-.57.303-1.14.605-1.706.915a102 102 0 0 0-3.523 2.024c-4.867 2.927-9.476 6.281-13.848 9.904-17.466 14.477-29.515 35.128-34.345 57.239-2.466 11.289-3.296 23.024-2.033 34.521 1.308 11.913 4.167 24.184 10.569 34.473 3.528 5.671 8.058 10.399 13.577 14.152 5.189 3.527 11.204 5.952 17.186 7.764 12.78 3.871 26.648 4.572 39.671 1.497 23.611-5.574 41.973-24.287 52.47-45.479 5.594-11.294 9.633-23.402 12.31-35.708 2.942-13.523 4.032-27.435 1.62-41.123-2.126-12.068-7.52-23.735-15.936-32.707-4.01-4.274-8.805-8.071-13.893-10.973-2.981-1.701-6.16-3.088-9.373-4.284-2.469-.919-5.015-1.895-7.592-2.467-7.249-1.611-15.013-.942-22.241.311-5.821 1.009-11.518 2.755-17.011 4.915s-10.848 4.603-15.954 7.546-9.872 6.361-14.484 10.022c-17.72 14.062-30.812 34.488-35.473 56.677-1.325 6.307-2.116 12.799-2.223 19.246-.105 6.323.753 12.743 2.056 18.92 2.489 11.796 7.474 23.357 15.394 32.54a36 36 0 0 0 2.494 2.621q.69.653 1.417 1.264c.837.703 1.943 1.274 2.658 2.081l-.856-.692q.795.636 1.612 1.241.377.277.765.541.777.527 1.591.993.819.47 1.672.871.344.16.692.312c-.701-.31 4.168 1.74 1.063.427 1.806.764 3.401 1.249 5.381.704 1.62-.446 3.375-1.698 4.173-3.209.856-1.621 1.285-3.584.704-5.381-.518-1.6-1.584-3.486-3.209-4.173-.923-.39-1.811-.902-2.659-1.434-.426-.267-.833-.56-1.25-.84-1.031-.694 1.44 1.174-.031-.028-.776-.634-1.481-1.357-2.164-2.091q-.517-.557-1.007-1.138c-.177-.209-1.251-1.569-.367-.428s-.156-.236-.314-.46a40 40 0 0 1-.857-1.266 45 45 0 0 1-1.585-2.64c-1.002-1.802-1.883-3.667-2.688-5.564l.83 1.968c-2.89-6.92-4.926-14.266-5.953-21.694l.327 2.431c-1.138-8.548-1.087-17.389.058-25.933l-.343 2.552a89.6 89.6 0 0 1 6.078-22.261l-.973 2.306c3.01-7.094 6.95-13.742 11.649-19.846l-1.517 1.964c5.168-6.656 11.191-12.577 17.847-17.738l-1.973 1.524a103.8 103.8 0 0 1 22.782-13.295l-2.323.98c6.947-2.914 14.224-5.185 21.701-6.213l-2.58.347c4.567-.592 9.156-.671 13.724-.059l-2.576-.346c2.039.291 4.074.444 6.114.709l-2.506-.337c3.59.497 7.003 1.518 10.346 2.91l-2.122-.896a50.4 50.4 0 0 1 10.688 6.176l-1.708-1.32c2.98 2.304 5.601 5.094 7.905 8.064l-1.299-1.681c2.845 3.73 5.153 7.81 6.978 12.128l-.821-1.946c2.231 5.384 3.69 11.036 4.472 16.807l-.284-2.114c.978 7.547.754 15.122-.249 22.653l.279-2.077c-1.741 12.664-5.251 25.256-10.179 37.048l.783-1.856c-3.429 8.125-7.713 15.888-13.104 22.882l1.214-1.572c-4.1 5.268-8.794 10.042-14.077 14.129l1.572-1.214c-4.432 3.389-9.229 6.254-14.365 8.443l1.855-.783c-4.838 2.024-9.894 3.385-15.087 4.112l2.064-.277c-6.033.8-12.124.746-18.155-.048l2.064.277c-6.355-.878-12.603-2.538-18.525-5.013l1.855.783c-3.645-1.554-7.118-3.449-10.273-5.855l1.572 1.214a37.5 37.5 0 0 1-6.372-6.36l1.214 1.572c-2.573-3.332-4.602-7.011-6.251-10.878l.783 1.855c-2.941-7.029-4.72-14.555-5.755-22.09l.276 2.051a102 102 0 0 1 .026-26.899l-.269 2.005c.603-4.393 1.472-8.745 2.631-13.025s2.709-8.408 4.302-12.554c-.849 2.21-.148.367.066-.117a100 100 0 0 1 2.098-4.435q1.518-3.012 3.242-5.912c1.724-2.9 2.359-3.812 3.639-5.652a94 94 0 0 1 1.693-2.355c.15-.203 1.308-1.719.486-.657-.71.918-.149.195.03-.034q.3-.38.602-.757a106 106 0 0 1 8.438-9.309 100 100 0 0 1 8.124-7.133q.229-.177.456-.357c-1.623 1.301-.496.385-.158.131 6.646-5.009 13.98-9.372 21.53-12.87a97 97 0 0 1 2.632-1.173q.607-.26-.51.214c.391-.313 1.153-.474 1.62-.659q.812-.322 1.629-.631a99 99 0 0 1 6.603-2.229 97 97 0 0 1 13.909-3.055c2.242-.322 3.546-3.017 3.277-5.02-.29-2.157-2.208-4.061-4.493-3.967Z"/><path fill="#70e8a0" d="M399.954 748.597c-10.412-5.424-19.427-12.822-26.99-21.789a123 123 0 0 1-2.501-3.081 118 118 0 0 1-2.456-3.352c-1.733-2.463-3.362-5-4.887-7.596a115 115 0 0 1-4.103-7.632 119 119 0 0 1-2.716-5.945c.488 1.149.094.215-.024-.075-.323-.788-.616-1.576-.96-2.358.5 1.14.173.402.082.147-.145-.408-.308-.81-.458-1.215q-.376-1.016-.736-2.038a123 123 0 0 1-3.755-12.941 125 125 0 0 1-1.704-8.776c-.113-.719-.215-1.439-.32-2.158-.146-1.005.2 1.847.07.353-.073-.838-.238-1.519-.324-2.3.257 2.325-.009-.128-.075-.699a124 124 0 0 1-.27-2.576c-.654-6.956-.617-13.891-.349-20.863.139-3.62.362-7.231.734-10.836q.133-1.287.287-2.573l.126-1.028c.224-1.84-.274 1.882-.01.048.247-1.709.503-3.415.795-5.117 2.42-14.132 6.632-27.929 12.096-41.173.149-.361.454-.828.502-1.208l-.416.985.308-.721q.514-1.202 1.044-2.396c.74-1.673 1.491-3.342 2.262-5.002a246 246 0 0 1 4.842-9.835 242 242 0 0 1 9.4-16.481 237 237 0 0 1 10.37-15.283c.893-1.209 1.82-2.393 2.714-3.602-1.618 2.187-.019.031.368-.46a222 222 0 0 1 7.481-9.003c8.08-9.218 16.957-17.685 26.502-25.373a165 165 0 0 1 1.743-1.386c.442-.347 1.79-1.337-.29.217.238-.178.471-.362.707-.542a138 138 0 0 1 3.953-2.884 173 173 0 0 1 7.381-4.943 163 163 0 0 1 16.074-8.96 158 158 0 0 1 5.851-2.689c.408-.177.819-.347 1.226-.526-2.472 1.09-.903.383-.382.169a149 149 0 0 1 8.761-3.281 132 132 0 0 1 16.63-4.473c2.722-.543 5.46-.995 8.209-1.372l-2.275.306a137.8 137.8 0 0 1 36.562.006l-2.3-.309c11.195 1.537 22.173 4.457 32.592 8.844l-2.087-.881c6.513 2.769 12.786 6.093 18.68 10.015q2.118 1.409 4.166 2.918.572.424 1.141.852c1.153.863-1.624-1.276-.493-.385a101 101 0 0 1 9.875 8.813c1.39 1.416 2.864 2.728 4.314 4.082 1.105 1.032 2.321 1.922 3.54 2.814q.626.46 1.247.929c.195.146.773.598-.124-.099-1.202-.934 1.095.829 1.402.96l-2.548-2.548.253.328c1.183 1.534 2.295 2.727 4.245 3.264 1.7.468 3.964.257 5.473-.716 2.896-1.867 4.975-6.571 2.548-9.718l.202.494q.664 1.617-.534-1.251l-.252-.564a102 102 0 0 0-.599-1.304c-.435-.929-.857-1.835-1.444-2.679-1.418-2.038-2.911-4.144-4.642-5.916a101 101 0 0 0-8.582-7.831c-6.497-5.28-13.42-9.955-20.88-13.766-15.247-7.787-31.711-12.294-48.703-14.061-16.324-1.698-33.072-.424-48.992 3.549-16.763 4.183-32.898 11.582-47.379 20.959-14.74 9.545-28.128 21.077-39.853 34.139-11.794 13.14-22.096 27.645-30.826 42.983-9.953 17.488-17.998 36.249-23.012 55.76-2.585 10.057-4.325 20.357-5.168 30.708s-.261 20.521 1.232 30.744c2.432 16.657 8.809 33.037 17.771 47.259 8.943 14.191 20.886 26.503 35.127 35.227a90.5 90.5 0 0 0 10.673 5.584c1.396.617 3.039.407 3.871-1.015.744-1.272.345-3.162-1.015-3.871Z"/><g fill="#70e8a0"><path d="M632.834 390.844c-8.537.862-14.294 9.174-17.274 17.221-1.797 4.852-3.034 10.219-1.518 15.166 2.067 6.744 9.253 11.225 16.305 11.081s13.649-4.378 17.643-10.192 5.596-13.024 5.588-20.077c-.003-2.617-.235-5.309-1.398-7.654-2.52-5.082-8.827-7.24-14.491-6.926-7.297.405-14.331 4.23-18.638 10.134-4.306 5.904-5.8 13.771-3.956 20.842"/><path d="M632.834 387.232c-3.354-.245-6.537.539-9.526 2.028-1.137.566-2.195 1.257-3.21 2.018l-1.102.852q1.01-.68.235-.3c-.308.097-.649.274-.932.428-.989.536-1.806 1.37-2.574 2.181-2.339 2.469-4.364 5.189-5.77 8.285-1.578 3.473-3.054 7.098-3.676 10.881-.733 4.456-.866 9.068.826 13.347 1.399 3.537 3.43 6.82 6.409 9.25 3.06 2.497 6.441 4.433 10.308 5.41 4.045 1.022 8.037.971 12.106.164 7.703-1.528 14.204-6.654 18.763-12.85 4.639-6.305 6.66-14.214 7.22-21.915.279-3.83.248-8.027-1.026-11.682-1.59-4.562-4.418-8.147-8.475-10.77-6.334-4.095-14.601-4.49-21.72-2.559-8.145 2.209-15.777 7.669-19.776 15.185-2.216 4.165-3.376 8.502-3.728 13.195-.165 2.196-.104 4.567.361 6.725.472 2.19 1.47 4.302 2.56 6.251 1.199 2.143 4.143 3.427 6.526 2.656 2.459-.796 4.197-2.942 4.243-5.572.01-.596.035-1.189.085-1.783.092-1.078-.059-.178-.077.358.027-.785.222-1.583.311-2.366q.066-.564-.045.321-.163 1.248.056-.404c.078-.582.154-1.154.203-1.737.056-.678.115-1.352.205-2.027l-.259 1.926a27 27 0 0 1 1.715-6.222l-.784 1.857c.904-2.118 1.992-4.12 3.373-5.966l-1.281 1.658a30.4 30.4 0 0 1 5.136-5.203l-1.702 1.315a27 27 0 0 1 5.612-3.313l-2.024.854a26.2 26.2 0 0 1 6.649-1.822l-2.271.305c1.815-.217 3.609-.237 5.423-.01l-2.285-.307c1.636.235 3.223.616 4.759 1.233l-2.049-.865a15 15 0 0 1 3.257 1.879l-1.73-1.337a12.8 12.8 0 0 1 1.911 1.899l-1.333-1.726a12 12 0 0 1 1.462 2.518l-.857-2.031c.422 1.091.692 2.2.869 3.356l-.303-2.253c.42 3.255.264 6.6-.169 9.845l.3-2.233c-.444 3.082-1.222 6.083-2.425 8.958l.839-1.989c-.936 2.154-2.088 4.188-3.508 6.061l1.293-1.674a26.4 26.4 0 0 1-4.645 4.623l1.663-1.285a24.4 24.4 0 0 1-4.969 2.892l1.952-.824a21.4 21.4 0 0 1-5.136 1.412l2.161-.29c-1.582.193-3.146.2-4.726-.007l2.151.289a19 19 0 0 1-4.423-1.229l1.924.812a19 19 0 0 1-3.951-2.302l1.623 1.254a18.8 18.8 0 0 1-3.202-3.19l1.239 1.603a15.7 15.7 0 0 1-1.755-2.993l.788 1.867a16.4 16.4 0 0 1-1.077-4.061l.275 2.044c-.201-1.816-.143-3.613.095-5.423l-.269 2c.445-2.989 1.295-5.917 2.4-8.728.089-.226.185-.448.272-.675-.825 2.148-.349.838-.142.375a61 61 0 0 0 1.266-3.061c.099-.259.532-1.301.059-.184-.476 1.123-.021.062.094-.191q.42-.918.894-1.808c.387-.723.801-1.402 1.121-2.16.198-.468.371-.899.519-1.376.044-.142.27-1.176.048-.253q-.313.687.069.086l-.416.536c.243-.22.461-.565.679-.813q.57-.65 1.197-1.248.308-.293.63-.569c.758-.653.066.056-.03-.004.072.045 1.296-.917 1.401-.985.522-.338 1.085-.591 1.616-.908.493-.294-.828.283.167-.076q.496-.18 1-.336c1.707-.527 2.857-2.169 2.587-3.963-.278-1.85-1.708-2.997-3.547-3.132Z"/></g><g fill="#70e8a0"><path d="M100.588 469.562c25.123 2.647 51.205-5.588 70.254-22.181"/><path d="M99.34 474.089a104.2 104.2 0 0 0 32.483-.14c5.077-.818 10.075-2.354 14.883-4.159 5.187-1.948 10.307-4.207 15.059-7.07a91 91 0 0 0 7.105-4.748c3.338-2.466 7.829-5.944 7.269-10.593-.285-2.367-1.45-4.424-3.889-5.108-2.393-.671-4.492-.403-6.652.907-1.099.666-2.218 1.267-3.245 2.04a91 91 0 0 1-6.026 4.165c-4.172 2.642-8.53 5.056-13.022 7.11q-.738.338-1.483.663c-.164.072-1.416.617-.308.137s-.152.058-.318.126a95 95 0 0 1-3.43 1.316c-2.367.856-4.768 1.582-7.186 2.28-4.754 1.373-9.506 2.576-14.41 3.291-.265.039-.535.066-.798.113 1.519-.27.133-.024-.145.009q-1.016.12-2.033.219c-1.354.131-2.71.232-4.07.286a91 91 0 0 1-8.535-.066c-2.331-.125-4.317 1.883-4.611 4.071-.28 2.083 1.052 4.799 3.363 5.152Z"/></g><path d="M86.272 445.53c-.008-.636.018-1.264.076-1.897l-1.339 2.334c1.494-.855 2.308-2.124 3.058-3.622.366-.73.567-1.501.822-2.269.08-.242.171-.48.257-.72.433-1.203-.507.96.077-.162.476-.914.955-1.811 1.534-2.666.183-.271.38-.531.567-.798.444-.635-.687.804-.173.234.435-.482.843-.981 1.296-1.447.781-.804 1.659-1.476 2.48-2.231-.096.088-1.208.874-.346.289.212-.144.42-.294.633-.436.574-.382 1.155-.755 1.734-1.128a35 35 0 0 1 3.108-1.78 41 41 0 0 1 1.716-.823c.256-.116.525-.217.776-.342-.538.268-1.253.516-.272.129 4.821-1.903 9.887-3.112 14.891-4.421 5.64-1.475 11.226-3.125 16.822-4.759 6.162-1.8 12.324-3.837 18.698-4.744l-2.135.287c3.013-.397 6.052-.52 9.075-.14l-2.16-.29c2.633.371 5.172 1.176 7.632 2.172l-1.926-.813c1.908.809 3.661 1.906 5.384 3.049.189.125.37.263.559.388.689.454-1.278-1.075-.656-.503a27 27 0 0 0 2.829 2.264c.695.472-.434-.332-.529-.429.39.392.844.727 1.238 1.12 3.459 3.451 9.505.877 9.557-3.959.027-2.479-.397-4.851-1.507-7.074-.893-1.789-2.194-3.738-3.655-5.068-3.233-2.942-7.145-5.185-11.398-6.241-9.01-2.238-18.272-.349-26.968 2.306-8.555 2.612-17.104 5.283-25.557 8.208-7.625 2.639-15.665 5.15-22.182 10.066-3.848 2.902-7.092 6.685-9.055 11.122-.926 2.095-1.711 4.194-2.05 6.467-.239 1.602-.436 3.051.037 4.636.547 1.832 1.279 3.241 3.061 4.128l-1.242-1.616c.177.614.383 1.21.623 1.803.438 1.083 1.334 1.868 2.576 1.682 1.13-.17 2.05-1.115 2.036-2.306Zm118.982-37.615c4.973-6.901 6.732-15.611 7.706-23.902.5-4.259.751-8.542 1.117-12.814.179-2.097.387-4.193.6-6.287q.073-.72.158-1.438c.025-.208.01-.523.088-.717-.011.028-.17 1.141-.055.43.177-1.091.343-2.182.562-3.266a44 44 0 0 1 1.599-5.901c.156-.444.337-.88.493-1.324.241-.685-.176.439-.208.468.123-.115.216-.487.287-.643a33 33 0 0 1 1.604-3.066c.55-.933 1.144-1.84 1.774-2.721.146-.203.3-.401.444-.606.454-.644-.286.407-.311.396.052.022 1.009-1.224 1.111-1.343a53 53 0 0 1 4.573-4.664 72 72 0 0 1 3.684-3.128l.601-.475c.787-.632-1.096.821-.289.225 1.767-1.307 3.557-2.576 5.341-3.859a265 265 0 0 1 11.994-8.11c15.963-10.209 32.91-18.876 50.31-26.354l1.766-.754c.922-.394-.968.409-.902.38.25-.11.504-.212.756-.317a428 428 0 0 1 10.149-4.095 491 491 0 0 1 13.36-4.974c8.98-3.198 17.994-6.311 27.075-9.207 9.171-2.925 18.401-5.66 27.668-8.262 9.715-2.728 19.459-5.486 29.378-7.38a146 146 0 0 1 7.636-1.25l-2.613.351c8.898-1.171 17.826-1.244 26.726-.057l-2.629-.353c8.985 1.241 17.754 3.671 26.123 7.164l-2.377-1.003c9.053 3.826 17.612 8.893 25.389 14.9l-1.99-1.538c4.473 3.488 8.83 7.277 12.967 11.157 2.054 1.927 4.081 3.798 6.228 5.622q.795.676 1.576 1.368c.23.205.457.414.688.617q.487.468 1.045.854 1.23.938.36.291c-1.012-.819 1.066.817 1.193.896.297.185.611.347.913.523q.901.524 1.79 1.07c3.023 1.849 7.878-.49 7.518-4.314-.157-1.667-.231-3.535-.666-5.136-.539-1.983-1.524-3.888-2.358-5.762-1.223-2.75-2.733-5.108-4.541-7.51-2.194-2.915-4.401-5.921-7.041-8.455a103 103 0 0 0-6.853-6.015c-5.318-4.265-10.832-8.13-16.85-11.342a122 122 0 0 0-18.501-7.963c-12.079-4.062-25.118-6.059-37.861-5.632-15.671.525-30.934 4.62-45.941 8.834-13.68 3.842-27.288 7.952-40.746 12.516-14.125 4.79-27.976 10.335-41.572 16.467-12.777 5.763-25.295 12.135-37.316 19.35a308 308 0 0 0-17.885 11.579 287 287 0 0 0-10.61 7.78q-.995.766-1.988 1.535l-.432.335-.831.642a138 138 0 0 0-3.873 3.245c-5.176 4.493-10.028 9.593-13.508 15.538-3.583 6.121-5.23 12.861-5.865 19.868-.57 6.285-.026 12.541.27 18.825.146 3.094.237 6.194.117 9.29-.124 3.174-.308 5.194-1.206 8.209-.809 2.715-1.837 4.911-3.47 7.379-1.131 1.709-.337 4.196 1.361 5.189 1.911 1.118 3.988.306 5.189-1.361ZM67.428 480.191c-37.621 3.138-50.49 46.902-50.796 78.586-.441 45.625 16.279 88.951 32.221 130.965 8.222 21.668 16.227 43.37 22.771 65.615 6.572 22.336 12.254 44.931 19.267 67.137 6.617 20.95 14.443 41.679 25.038 60.971 9.472 17.246 21.007 34.965 37.175 46.602 15.87 11.422 31.496 23.539 49.679 31.091 20.538 8.53 43.735 10.209 65.719 8.575 47.323-3.519 91.795-21.086 134.746-40.185 45.327-20.156 89.798-42.321 134.537-63.74L672.5 801.313l68.822-32.948c20.107-9.626 40.47-19.17 58.555-32.355 17.832-13 34.245-29.496 42.691-50.258 8.279-20.351 8.94-42.609 2.202-63.506-3.545-10.994-8.836-20.826-15.689-30.085-1.606-2.169-4.051-3.304-6.69-2.192-2.207.929-4.13 3.852-3.102 6.32 7.86 18.864 15.575 40.272 11.654 60.994-3.469 18.334-14.748 34.543-27.568 47.329-14.491 14.453-32.465 24.731-50.596 33.915-20.949 10.611-42.305 20.457-63.48 30.607-86.624 41.523-173.109 83.351-259.891 124.544-40.702 19.32-81.965 37.907-125.501 49.919-38.449 10.609-82.053 12.907-118.511-5.785-8.494-4.355-15.73-10.1-21.595-17.651-5.418-6.974-10.987-13.843-16.307-20.895-11.234-14.891-20.348-31.542-27.463-48.765-17.16-41.546-25.438-86.053-40.154-128.432-14.169-40.805-32.463-80.469-41.299-122.946-3.964-19.054-6.931-39.349-4.618-58.809 1.697-14.27 6.503-30.361 16.599-41.01 4.917-5.186 11.084-8.974 17.987-10.836 4.453-1.201 3.733-8.682-1.12-8.277Zm461.588-183.83c1.372-.567 2.754-1.107 4.13-1.663 1.508-.609 2.924-1.499 4.362-2.258 2.663-1.405 5.338-2.799 8.052-4.102 5.447-2.616 10.847-5.317 16.424-7.659l.238-.102q-.835.43.965-.388c-.207.079-.642.244.273-.085.64-.229 1.277-.469 1.917-.7a235 235 0 0 1 13.102-4.303c5.719-1.693 11.462-3.379 17.252-4.815a190 190 0 0 1 20.11-3.86l-2.23.3c1.595-.165 3.179-.432 4.768-.649l-2.255.303c14.502-1.94 29.41-2.382 43.935-.462l-2.422-.325c11.755 1.592 23.281 4.663 34.22 9.26l-2.202-.929c9.322 3.955 18.177 9.006 26.218 15.17l-1.874-1.447c6.837 5.285 13.017 11.362 18.316 18.191l-1.443-1.868c6.237 8.113 11.01 17.17 14.987 26.573l-.928-2.198c4.925 11.737 8.774 23.905 12.847 35.954 4.367 12.919 9.035 25.714 13.719 38.521 9.405 25.716 18.91 51.396 28.424 77.071 5.354 14.448 10.991 28.782 16.283 43.253.809 2.212 3.101 3.947 5.554 3.153 2.269-.734 3.899-3.137 3.153-5.554-5.156-16.705-9.937-33.519-15.022-50.248s-10.198-33.448-15.311-50.168q-3.793-12.4-7.619-24.792c-3.826-12.392-4.949-16.578-7.7-24.77-5.255-15.647-10.04-31.576-16.381-46.828-3.255-7.83-6.819-15.519-11.409-22.668a108.6 108.6 0 0 0-13.45-16.973c-9.359-9.627-20.607-17.602-32.69-23.435-12.448-6.01-25.698-10.247-39.364-12.348-7.172-1.102-14.39-1.826-21.648-1.913-8.057-.097-15.991.67-23.944 1.945-7.474 1.198-14.802 3.006-22.024 5.264-7.641 2.389-15.239 5.157-22.447 8.645-6.921 3.35-13.558 7.191-20.274 10.921a253 253 0 0 0-19.76 12.176 231 231 0 0 0-4.664 3.242c-1.57 1.128-2.943 2.527-4.355 3.847-1.534 1.433.06 4.593 2.167 3.723Z"/><path d="M615.236 309.301a57.4 57.4 0 0 1-12.288 5.028c-4.395 1.232-8.154 1.753-12.519 2.011-4.487.265-8.993.136-13.465-.295a115 115 0 0 1-3.261-.367c-1.148-.143.18.04.189.026-.014.024-.695-.1-.801-.115q-1.004-.148-2.004-.316c-2.288-.382-4.55-.874-6.823-1.33-9.042-1.812-17.864-4.59-26.552-7.658-1.122-.396-2.24-.802-3.349-1.233-.277-.108-.553-.221-.83-.328-1.152-.444.388.177.508.224-.687-.264-1.357-.596-2.019-.914a38 38 0 0 1-3.116-1.675 31 31 0 0 1-1.49-.958c-.244-.167-.483-.342-.724-.513-1.125-.8 1.137.936.505.393-2.899-2.489-5.354-5.299-7.801-8.224-2.732-3.266-5.363-6.662-8.536-9.522-1.9-1.712-3.966-3.349-6.208-4.595-1.26-.7-2.799-1.497-4.152-1.848-2.07-.537-4.265-.284-6.31.193-4.657 1.085-6.769 7.934-2.948 11.168.292.247.566.511.852.764-.213-.188 3.656 2.774.701.533 1.188.901 1.994 1.44 3.235 2.053 1.336.66 2.579 1.477 3.762 2.381l-1.559-1.205c5.598 4.387 9.388 10.546 14.416 15.505 3.254 3.208 6.977 5.98 11.141 7.884 4.594 2.101 9.39 3.624 14.241 4.999 4.174 1.183 8.432 2.066 12.704 2.815 4.677.819 9.427 1.554 14.172 1.81 8.813.474 17.733-.017 26.38-1.846 9.275-1.962 18.365-5.656 26.077-11.207 2.165-1.558.295-4.974-2.127-3.638Z"/><path fill="#ff8345" d="M500.275 328.749c-7.566 2.71-15.126 5.433-22.665 8.216s-15.139 5.447-22.617 8.391c-14.835 5.841-29.765 11.49-44.501 17.576-30.009 12.393-60.109 24.59-90.001 37.262l-24.826 10.524c-4.135 1.753-8.276 3.481-12.352 5.367-1.951.903-3.955 1.736-5.855 2.742-2.04 1.081-4.034 2.264-6.047 3.394-2.828 1.587-3.887 5.211-2.66 8.118s4.532 4.674 7.67 3.764c3.912-1.135 7.748-2.31 11.561-3.747 3.736-1.408 7.426-2.903 11.115-4.432l22.374-9.272c15.237-6.314 30.402-12.794 45.58-19.249l44.107-18.76c14.703-6.253 29.204-12.842 43.776-19.326 16.35-7.276 32.475-15.086 48.59-22.867 1.885-.91 2.48-3.471 1.724-5.262-.762-1.806-2.985-3.151-4.971-2.44ZM131.949 509.5c-10.666 3.907-18.052 12.785-22.122 23.168-4.952 12.632-4.4 26.57-2.443 39.75 2.089 14.073 5.208 28.144 8.457 41.99 3.268 13.926 6.871 27.721 10.746 41.49 7.75 27.54 16.937 54.602 26.701 81.485 9.725 26.774 19.887 53.386 29.985 80.021a2440 2440 0 0 0 15.55 39.954c5.372 13.452 12.731 26.014 18.78 39.153 1.49 3.236 2.981 6.221 4.992 9.166 1.591 2.33 5.064.884 4.511-1.902-1.36-6.852-4.357-13.233-6.439-19.894-2.045-6.542-4.089-13.076-6.243-19.583-4.365-13.186-9.65-26.047-14.539-39.048-9.833-26.148-18.858-52.541-27.293-79.173-4.196-13.247-8.229-26.547-12.168-39.873s-8.154-26.59-12.156-39.908c-8.051-26.791-16.755-53.361-25.6-79.897-4.376-13.129-9.179-26.585-8.456-40.63.512-9.948 5.206-20.419 13.148-26.634a25.5 25.5 0 0 1 6.253-3.599c1.571-.621 2.669-2.095 2.186-3.85-.42-1.529-2.255-2.771-3.85-2.186"/><path fill="#70e8a0" d="M634.043 220.5a235 235 0 0 1 4.102-10.593c.597-1.442-.375.867.226-.54l.365-.852c.612-1.42 1.261-2.824 1.876-4.242.726-1.673 1.388-3.375 2.082-5.062.339-.824-.545 1.269.053-.126l.462-1.075q.418-.966.845-1.929c.787-1.772 1.578-3.532 2.244-5.355.543-1.487.787-2.99 1.088-4.543.507-2.617-.521-5.175-3.067-6.249-2.582-1.09-5.038.004-6.615 2.167-.934 1.281-1.849 2.499-2.513 3.942a55 55 0 0 0-2.131 5.402c-.975 2.884-1.977 5.791-2.745 8.737-1.565 6.001-2.639 12.175-3.585 18.3-.302 1.952.494 4.174 2.649 4.665 2.133.486 3.945-.647 4.665-2.649Zm71.396 12.386c1.501-1.681 3.017-3.249 4.702-4.746 1.67-1.483 3.368-2.926 4.949-4.506q4.649-4.646 9.397-9.188c4.748-4.542 6.317-6.078 9.46-9.137q2.4-2.336 4.824-4.645c2.424-2.309 2.956-3.364 4.376-5.093 2.173-2.647 2.737-6.077.532-8.931-1.856-2.402-6.086-3.828-8.775-1.752-2.067 1.596-4.401 3.126-6.231 5.002a481 481 0 0 0-4.637 4.833c-3.081 3.248-6.074 6.55-8.979 9.956s-5.774 6.848-8.604 10.319c-1.625 1.994-3.095 4.074-4.553 6.19l-.8 1.163-.532.777q-.468.64-.152.257.326-.38-.196.234a400 400 0 0 0-1.848 2.2c-1.675 2.002-2.109 5.13 0 7.066 1.902 1.746 5.207 2.082 7.066 0Zm56.493 45.688c2.41.335 3.737.215 5.948-.847.598-.287 1.189-.591 1.783-.886l4.234-2.103 8.246-4.096c5.494-2.729 10.918-5.585 16.352-8.432 1.245-.652 2.519-1.268 3.722-1.996 3.155-1.907 5.552-4.774 5.723-8.606.194-4.34-3.907-7.713-8.022-7.713-2.704 0-5.222 1.163-7.479 2.543-5.155 3.151-10.353 6.241-15.439 9.502l-8.785 5.634-4.183 2.683c-2.048 1.313-4.938 2.643-5.914 4.943-.832 1.961-1.179 3.647-.322 5.679.689 1.633 2.244 3.432 4.135 3.694Zm35.491 54.624c8.45-1.085 16.912-2.091 25.326-3.427l11.829-1.878 5.915-.939c3.013-.478 5.782-1.181 7.861-3.643 1.326-1.571 2-3.186 1.722-5.259-.254-1.89-1.277-3.623-2.989-4.574-1.612-.895-3.227-1.501-5.118-1.493-1.571.007-3.117.342-4.648.665l-5.834 1.232-11.911 2.516c-7.933 1.676-15.795 3.652-23.674 5.566-2.768.672-4.461 3.56-4.096 6.274.339 2.521 2.794 5.321 5.616 4.958Zm29.49 55.453c3.885.303 7.789.237 11.658-.235 4.777-.582 14.277-1.148 14.185-7.775-.043-3.107-2.575-5.164-5.521-5.405-1.299-.106-2.63.184-3.901.463-1.973.432-3.919.878-5.915 1.2-1.395.225 1.36-.147-.047.007-.535.058-1.068.121-1.604.171q-1.405.13-2.815.192a59 59 0 0 1-6.039-.054c-2.992-.174-5.851 2.755-5.719 5.719.148 3.298 2.516 5.469 5.719 5.719ZM528.174 587.345a26 26 0 0 1 3.709-.589c.674-.053 1.31-.061 1.982.014.799.089-.257-.065.424.064.308.058.617.106.925.167 1.269.25 2.483.666 3.736.969 1.356.328 2.705.603 4.036 1.034a36 36 0 0 1 1.92.683c1.287.5-.799-.381-.241-.115.297.141.602.267.9.407 1.211.569 2.442 1.1 3.628 1.721a35 35 0 0 1 4.324 2.687c1.252.913-1.097-.857-.461-.37 1.017.777 2.035 1.547 3.054 2.32l-1.569-1.212a32.5 32.5 0 0 1 5.747 5.719l-1.253-1.622c1.917 2.521 3.339 5.318 4.594 8.218l-.83-1.968c2.354 5.606 3.617 11.638 4.437 17.644l-.291-2.169c.603 4.57.977 9.223 1.226 13.826.251 4.629.006 9.184-.225 13.803-.115 2.305-.152 4.605-.351 6.907l-.073.806c-.059.665.222.274.032-.256.121.337-.237 1.264-.309 1.632a99 99 0 0 1-.746 3.444c-1.051 4.464-2.377 8.908-4.099 13.162.235-.581-.031.064-.07.152q-.252.57-.508 1.137a96 96 0 0 1-4.374 8.461c-.759 1.306-1.244 2.745-1.825 4.137-.504 1.207.338 2.788 1.383 3.399 1.181.691 2.665.441 3.647-.471 3.829-3.553 6.489-8.316 8.967-12.881 2.505-4.614 4.792-9.279 6.706-14.174.908-2.322 1.66-4.698 2.56-7.022.911-2.352 1.886-4.779 2.443-7.244 1.218-5.396 1.994-10.925 2.384-16.441.4-5.656-.207-11.207-1.049-16.803-.791-5.255-1.958-10.499-3.975-15.429-2.184-5.337-5.25-10.215-9.564-14.109-1.903-1.718-3.98-3.357-6.184-4.677s-4.769-2.267-7.221-3.053c-5.27-1.689-10.692-1.78-16.121-.962-2.307.348-4.639 1.491-6.691 2.562s-4.144 2.017-6.077 3.302c-1.643 1.093-.624 3.638 1.345 3.191Z"/></svg>