<?xml version="1.0" encoding="UTF-8"?><svg xmlns="http://www.w3.org/2000/svg" data-name="ARTWORK" viewBox="0 0 1000 1000"><path fill="#f15c5b" d="M875.243 485.892c-19.67-51.987-39.356-104.011-62.141-154.71-9.793-21.79-20.819-44.167-39.804-58.67-24.911-19.029-58.642-20.924-89.969-19.792-172.506 6.233-334.585 79.657-490.952 152.779-27.414 12.82-54.969 25.759-79.769 43.104-19.456 13.607-37.708 30.793-45.616 53.179-5.964 16.883-5.55 35.288-4.374 53.155 8.052 122.353 49.196 242.371 117.906 343.929 13.86 20.486 29.299 40.688 50.224 53.875 17.343 10.93 37.596 16.451 57.883 19.397 62.325 9.051 125.471-4.969 186.675-19.815 113.432-27.515 226.183-58.192 336.695-95.757 36.113-12.276 73.972-26.688 97.344-56.831 18.178-23.445 25.223-53.672 28.016-83.207 7.013-74.15-37.529-175.49-67.116-243.842S826.37 368.334 781.84 308.63"/><path fill="#f45b5b" d="M879.446 484.733c-16.949-48.058-34.002-96.054-53.69-143.076-8.321-19.874-16.392-40.359-29.567-57.62-13.438-17.606-31.473-29.54-52.851-35.357-20.446-5.564-42.166-6.193-63.223-5.344-24.316.98-48.54 3.364-72.632 6.767-46.965 6.633-93.223 17.701-138.535 31.634-91.934 28.268-179.882 67.946-266.896 108.553-21.999 10.266-44.182 20.285-65.432 32.056-19.694 10.91-39.342 23.418-55.119 39.652-16.202 16.671-26.036 36.538-28.528 59.703-2.469 22.948.648 46.898 3.392 69.705 10.909 90.691 39.047 178.957 83.125 259.007 10.993 19.966 22.942 39.439 35.918 58.18 12.57 18.154 26.457 35.404 44.414 48.5 18.848 13.747 41.851 20.777 64.686 24.252 24.667 3.754 49.587 4.248 74.438 2.223 50.764-4.139 100.387-17.054 149.671-29.266 49.468-12.258 98.774-25.179 147.805-39.084 48.745-13.823 97.221-28.614 145.278-44.674 39.498-13.2 83.08-26.864 111.241-59.48 14.789-17.128 23.98-38.075 29.085-59.992 4.556-19.561 6.802-39.962 5.909-60.043-1.836-41.278-14.104-81.448-28.091-120.013s-30.878-75.542-48.117-112.615c-16.081-34.583-31.815-69.79-52.495-101.945-10.909-16.962-22.263-33.443-34.309-49.626-2.714-3.647-8.919-.088-6.169 3.606 22.693 30.488 42.315 63.266 57.354 98.205 15.232 35.386 28.753 71.441 43.333 107.081 15.402 37.649 29.43 75.859 39.119 115.418 9.028 36.861 12.851 74.286 4.765 111.735-4.298 19.906-11.778 39.628-25.437 55.066-12.843 14.515-29.37 24.743-46.787 32.909-18.659 8.749-38.423 15.047-57.94 21.559a3091 3091 0 0 1-71.574 22.897c-47.085 14.446-94.489 27.84-142.094 40.46s-95.115 24.948-143.075 35.561c-46.902 10.379-95.482 17.965-143.52 11.618-21.429-2.831-42.883-8.66-60.864-21.026-17.014-11.701-29.928-28.701-41.468-45.556-49.554-72.374-84.712-154.255-103.728-239.848-4.666-21.004-8.417-42.232-11.018-63.592-2.717-22.32-5.655-45.59-3.822-68.081 1.667-20.447 11.143-37.484 25.672-51.633 15.586-15.177 34.658-26.588 53.725-36.817 20.686-11.097 42.125-20.761 63.397-30.663 20.997-9.774 42.033-19.463 63.151-28.974 42.501-19.141 85.406-37.419 129.122-53.621 86.157-31.932 176.097-56.067 268.234-60.561 20.611-1.005 41.715-1.851 61.945 2.97 19.094 4.55 35.285 14.432 47.176 30.187 12.936 17.14 21.468 37.603 30.273 57.039 10.179 22.468 19.737 45.203 29.236 67.961 9.2 22.04 18.154 44.181 27.107 66.322 2.052 5.075 10.307 3.068 8.408-2.318Z"/><path fill="#edc84f" d="M664.028 297.841c-8.217-20.952-32.415-31.846-54.92-32.038s-44.1 7.995-65.566 14.759a546.8 546.8 0 0 1-122.723 23.682c-20.308 1.546-41.022 1.92-60.727-3.227-44.964-11.744-79.65-53.506-85.778-99.572-1.947-14.636-1.26-29.767 3.351-43.794 6.2-18.861 19.077-34.757 32.75-49.153 22.031-23.198 47.113-43.926 75.888-57.907C421.172 33.649 460.279 27.167 499 25.289c91.819-4.453 197.902 42.816 229.935 134.466 14.259 40.795 14.183 84.336 12.851 127.014-.162 5.186-.355 10.371-.551 15.556"/><path fill="#edc851" d="M668.407 296.633c-6.031-17.237-20.946-28.846-37.769-34.744-20.387-7.148-42.65-3.838-63.016 1.686-10.938 2.967-21.7 6.536-32.601 9.632a686 686 0 0 1-33.356 8.594 548 548 0 0 1-46.186 8.573c-.591.084-1.182.164-1.773.248q-1.787.244.026 0-.664.089-1.33.175a548 548 0 0 1-17.324 1.984c-11.217 1.103-22.487 1.962-33.761 2.11-5.761.076-11.526-.051-17.272-.483a155 155 0 0 1-6.159-.585c-.579-.067-2.598-.305-.29-.015-2.913-.366-5.817-.901-8.691-1.497a108.5 108.5 0 0 1-13.73-3.775 104 104 0 0 1-3.145-1.155c-.687-.265-1.77-1.019-2.486-.994l1.283.542a103 103 0 0 1-2.443-1.085 112 112 0 0 1-3.015-1.44 112 112 0 0 1-11.585-6.651 115 115 0 0 1-4.947-3.432c-.36-.264-.715-.535-1.076-.798-1.851-1.348 1.468 1.172.286.232-.962-.764-1.923-1.527-2.867-2.314-6.65-5.541-12.548-11.805-17.989-18.522-.956-1.18 1.6 2.142.225.294-.268-.36-.541-.717-.808-1.077a126 126 0 0 1-5.689-8.349 125 125 0 0 1-7.653-14.235c-.326-.715-.561-1.903-1.092-2.464 1.222 1.289.667 1.606.166.375q-.319-.78-.625-1.563a119 119 0 0 1-4.942-15.721 115 115 0 0 1-1.816-9.244c-.054-.35-.389-1.375-.244-1.666l.18 1.312q-.108-.862-.204-1.726c-.604-5.476-.836-10.995-.623-16.501.107-2.753.365-5.483.661-8.22.189-1.753-.463 2.612.037-.162.102-.568.184-1.141.285-1.71q.415-2.348.955-4.669a83 83 0 0 1 3.315-10.83c.279-.729.535-1.501.878-2.203-.77 1.576-.322.767.181-.337 2.078-4.553 4.528-8.93 7.236-13.136a131 131 0 0 1 4.034-5.897c.772-1.067 1.532-2.182 2.377-3.193-1.517 1.816-.533.684-.21.281.5-.622.992-1.25 1.495-1.869 12.943-15.961 28.059-30.538 44.021-43.453a283 283 0 0 1 3.155-2.515c.422-.332.843-.669 1.272-.993-2.195 1.658.006.006.383-.278q3.214-2.431 6.503-4.759c4.162-2.945 8.415-5.762 12.76-8.431s8.78-5.19 13.303-7.542a204 204 0 0 1 12.357-5.905c.285-.124 2.855-1.211 1.435-.623-1.578.654.996-.403 1.057-.428q.784-.32 1.57-.631 1.966-.782 3.946-1.524 3.961-1.486 7.973-2.823a247 247 0 0 1 15.416-4.579c10.544-2.768 21.255-4.875 32.038-6.461 1.263-.186 2.527-.376 3.793-.537-2.576.326-.57.081.075-.001a369 369 0 0 1 10.578-1.192 430 430 0 0 1 16.118-1.273c8.565-.519 17.131-.747 25.71-.479 7.949.248 15.886.864 23.779 1.83.773.095 4.636.646.873.099.94.137 1.883.262 2.823.401q3.14.464 6.269.999 6.121 1.049 12.189 2.376a271 271 0 0 1 23.477 6.243 266 266 0 0 1 20.184 7.254c.786.319 4.506 1.93 1.233.495 14.993 6.572 29.418 14.172 42.896 23.501a221 221 0 0 1 7.165 5.174l1.005.762c1.752 1.319-1.819-1.434-.221-.172 3.208 2.533 6.366 5.123 9.433 7.825a198 198 0 0 1 17.094 16.977 186 186 0 0 1 6.44 7.649c.222.279 1.896 2.449.688.861-1.172-1.541.736.978 1.038 1.382a176 176 0 0 1 5.418 7.673 171 171 0 0 1 11.863 20.789 168 168 0 0 1 2.521 5.498c.212.486.4.99.633 1.467-.073-.15-1.036-2.519-.358-.835.44 1.092.885 2.181 1.31 3.278a187 187 0 0 1 4.851 14.283c3.125 10.523 5.395 21.289 6.997 32.145.126.853.275 1.711.367 2.569-.038-.359-.304-2.374-.046-.317.18 1.431.357 2.862.519 4.296q.487 4.302.856 8.617a373 373 0 0 1 1.032 16.445c.463 11.139.509 22.302.393 33.449-.056 5.349-.159 10.697-.285 16.044-.136 5.755.314 11.547.097 17.286-.196 5.197 4.708 10.164 9.93 9.93 5.548-.248 9.72-4.363 9.93-9.93-.103 2.734.165-1.865.255-2.745.062-.609.113-1.22.169-1.83q.212-2.287.419-4.575c.271-2.998.384-5.994.494-9.002.206-5.637.385-11.276.508-16.916.249-11.44.21-22.88-.321-34.313-1.075-23.124-4.04-46.419-10.801-68.614-10.304-33.825-30.179-63.982-56.754-87.262-26.182-22.936-57.423-39.508-90.544-49.97-32.725-10.337-67.298-14.439-101.528-12.332-45.17 2.78-90.44 12.207-129.507 35.976-18.566 11.296-35.593 25.199-51.106 40.382-15.184 14.862-30.432 31.186-39.73 50.504-18.413 38.259-10.205 85.174 13.891 119.093 11.043 15.545 25.048 28.906 41.622 38.447 18.592 10.703 39.341 15.488 60.671 16.306 23.826.914 47.976-2.063 71.499-5.576 23.097-3.449 46.186-8.173 68.579-14.844 22.054-6.57 43.549-15.94 66.29-19.962 1.281-.227 2.566-.436 3.855-.618-1.325.186.513-.057.826-.093a99 99 0 0 1 2.172-.226 92 92 0 0 1 8.299-.414c2.098-.003 4.173.142 6.264.277.99.064 1.978.106 2.967.204.549.054 1.095.126 1.644.182q.817.1-.321-.045.664.096 1.326.205c8.814 1.443 15.806 3.845 23.011 8.498 6.306 4.072 11.515 9.858 14.795 17.072 2.116 4.654 9.997 1.351 8.3-3.499Z"/><path fill="#edc84f" d="M506.588 586.077a1013 1013 0 0 0-157.72 15.63c-7.49 1.341-14.845 11.996-18.906 18.431-2.542 4.027-3.819.344-4.039 5.102a1763 1763 0 0 0-1.065 134.411c.196 6.471.506 13.232 3.717 18.853 6.646 11.632 22.323 13.644 35.717 13.93a667.5 667.5 0 0 0 131.129-10.174c15.511-2.762 32.776-7.368 40.494-21.104 4.018-7.152 4.687-15.646 5.15-23.837a870 870 0 0 0-1.412-118.864c-.731-9.079-1.96-18.938-8.407-25.372-7.13-7.115-18.311-7.763-28.38-7.519a335.2 335.2 0 0 0-81.676 12.167"/><path fill="#edc851" d="M506.588 581.838c-13.081-.196-26.182-.52-39.262-.19a1011 1011 0 0 0-38.682 1.718c-13.027.829-26.061 1.817-39.024 3.356a1075 1075 0 0 0-40.551 5.592c-3.384.533-6.454 1.342-9.448 3.133-2.764 1.653-5.379 3.81-7.585 6.161-2.327 2.481-4.409 5.209-6.4 7.963-1.513 2.093-2.813 4.334-4.321 6.426l1.485-1.922a6.2 6.2 0 0 1-1 1.026l1.921-1.484a4 4 0 0 1-.679.38l2.268-.957c-1.19.436-2.016.535-3.312 1.273-2.436 1.388-4.08 3.631-4.911 6.282-.935 2.981-.741 6.512-.873 9.62a1764 1764 0 0 0-.811 127.446c.181 6.064.289 12.352 2.004 18.215 1.604 5.484 4.604 10.754 8.921 14.56 8.045 7.094 18.303 9.613 28.723 10.662 4.704.473 9.432.519 14.156.563q9.093.084 18.187-.081c11.96-.217 23.914-.651 35.85-1.439 24.513-1.617 48.956-4.581 73.156-8.804 18.707-3.264 40.723-9.472 48.969-28.617 1.288-2.991 2.378-5.968 3.054-9.157.679-3.207 1.086-6.482 1.403-9.741.561-5.776.773-11.595 1.035-17.391.545-12.05.84-24.111.882-36.173.086-24.144-.793-48.311-2.757-72.376-.919-11.26-2.852-23.436-11.439-31.63-8.373-7.99-20.095-9.927-31.248-9.913-23.695.029-47.487 3.712-70.438 9.44q-4.201 1.048-8.372 2.209c-4.171 1.161-5.499 1.793-8.279 2.565-3.752 1.042-6.442 5.328-5.202 9.161s5.14 6.318 9.161 5.202c3.082-.856 6.286-1.401 9.414-2.07 3.064-.655 6.126-1.31 9.203-1.901a341 341 0 0 1 18.807-3.063l-2.272.305c9.837-1.311 19.739-2.165 29.64-2.809 8.85-.576 17.976-1.265 26.809-.146l-2.452-.329c3.115.419 6.176 1.116 9.093 2.304l-2.212-.933c1.927.816 3.734 1.834 5.398 3.106l-1.879-1.452a22 22 0 0 1 3.706 3.736l-1.455-1.883c1.214 1.613 2.196 3.353 3.004 5.201l-.94-2.228c1.508 3.579 2.32 7.374 2.851 11.209l-.335-2.492c1.103 8.285 1.502 16.698 2.009 25.035a870 870 0 0 1 .508 96.361c-.234 4.665-.435 9.344-1.033 13.979l.329-2.452c-.52 3.845-1.351 7.63-2.825 11.229l.928-2.2a30.8 30.8 0 0 1-3.808 6.591l1.438-1.862c-1.692 2.178-3.651 4.099-5.82 5.798l1.86-1.437c-3.161 2.427-6.661 4.329-10.324 5.884l2.192-.925c-6.821 2.849-14.062 4.518-21.314 5.841-9.742 1.777-19.533 3.296-29.346 4.621l2.422-.325c-30.53 4.1-61.347 6.178-92.153 5.852-7.164-.076-14.381-.067-21.496-1.013l2.45.329c-4.343-.599-8.643-1.561-12.694-3.268l2.216.935c-2.215-.959-4.311-2.136-6.227-3.608l1.885 1.456a23.2 23.2 0 0 1-3.896-3.894l1.46 1.89a22.6 22.6 0 0 1-2.787-4.816l.944 2.237c-1.025-2.53-1.619-5.18-1.985-7.879l.335 2.496c-.539-4.276-.57-8.602-.687-12.905a1766 1766 0 0 1 .115-99.578q.234-7.964.54-15.926c.201-5.231.154-10.571.713-15.777l-.339 2.523c.054-.38.119-.745.264-1.101l-.957 2.267q.06-.132.148-.247l-1.484 1.921a1 1 0 0 1 .172-.169l-1.921 1.484a1 1 0 0 1 .197-.112l-2.267.957c1.276-.492 2.598-.851 3.812-1.527 2.374-1.323 4.007-3.598 5.432-5.828 1.511-2.365 3.096-4.681 4.801-6.91l-1.486 1.923c2.291-2.962 4.812-5.848 7.772-8.162l-1.907 1.473c1.202-.912 2.466-1.706 3.858-2.294l-2.231.941c1.559-.615 3.225-.851 4.863-1.17a1007 1007 0 0 1 44.445-7.636l-2.238.301c10.596-1.408 21.134-3.286 31.731-4.715l-1.967.264q15.632-2.101 31.323-3.723c5.225-.539 10.462-.965 15.688-1.477.163-.016 2.57-.533.981-.13.293-.074.691-.071.981-.1a998 998 0 0 1 13.739-1.301 568 568 0 0 1 17.675-1.277c2.21-.124 4.345-1.86 4.238-4.238-.104-2.325-1.862-4.203-4.238-4.238Z"/><path fill="#54bfbf" d="M648.736 889.114 624.32 683.453c-1.933-16.286-3.86-32.86-.939-48.998 6.848-37.833 54.661-63.377 87.867-39.926 17.56 12.402 21.696 33.698 24.832 53.618a1996 1996 0 0 1 22.393 223.581 602.3 602.3 0 0 0-97.413 14.946"/><path fill="#55bfbf" d="m653.277 889.114-2.104-26.876c-.701-8.959-1.817-17.925-2.767-26.876-1.881-17.726-3.682-35.462-5.739-53.168-4.133-35.567-8.544-71.114-12.375-106.714-.939-8.728-1.676-17.503-1.432-26.289.058-2.088.171-4.175.35-6.256q.122-1.42.285-2.834c.033-.288.207-2.2.042-.416.069-.753.223-1.511.349-2.256.483-2.862 1.158-5.68 2.079-8.434a55 55 0 0 1 1.071-2.921c.084-.21.565-1.366.067-.182s-.008.033.084-.174q.223-.5.455-.996.465-.991.968-1.964a59 59 0 0 1 4.374-7.152c.334-.469 1.97-2.499.434-.636.387-.469.754-.955 1.142-1.424a63 63 0 0 1 2.907-3.28 65 65 0 0 1 6.173-5.701c.283-.23.58-.447.858-.683-1.479 1.259-.914.698-.549.427.587-.435 1.173-.871 1.77-1.292a65 65 0 0 1 11.069-6.279c.22-.098.448-.187.665-.29-1.999.95-.81.341-.34.152a61 61 0 0 1 5.976-2.054c2.606-.747 5.233-1.221 7.898-1.684-2.587.45-.015.019.615-.041a53 53 0 0 1 6.068-.23 52 52 0 0 1 3.927.226c.357.034.712.077 1.069.115 1.395.146-1.842-.285-.456-.064.71.113 1.42.225 2.126.361a48.6 48.6 0 0 1 8.034 2.273c.567.215 2.476 1.172.363.119.666.332 1.364.604 2.032.935a44 44 0 0 1 3.954 2.242 50 50 0 0 1 1.613 1.062c.537.368 1.396 1.301 2.006 1.45-.797-.195-1.027-.826-.402-.295.34.289.689.567 1.027.859a45 45 0 0 1 5.465 5.604c.181.22.351.453.537.667-1.429-1.643-.429-.557-.131-.151q.753 1.025 1.451 2.088c1.788 2.72 3.285 5.604 4.599 8.579.643 1.456-.694-1.748-.117-.267.155.396.315.79.468 1.187q.382.996.735 2.002a86 86 0 0 1 1.555 4.91c1.824 6.399 3.043 12.979 4.099 19.543 1.338 8.324 2.525 16.675 3.701 25.022q.895 6.349 1.749 12.703l-.295-2.199c3.306 24.62 6.284 49.293 8.801 74.006a1999 1999 0 0 1 8.417 116.162l8.477-8.477c-26.327 1.866-52.541 5.238-78.439 10.349-7.128 1.407-14.239 2.925-21.307 4.608-4.471 1.064-7.557 6.398-6.132 10.8 1.507 4.657 6.01 7.273 10.8 6.132 20.28-4.828 40.747-8.73 61.41-11.513l-2.283.307c11.941-1.597 23.933-2.877 35.951-3.729 4.413-.313 8.692-3.632 8.477-8.477a2029 2029 0 0 0-3.926-65.113 1995 1995 0 0 0-6.051-64.95c-1.394-12.708-2.792-25.434-4.568-38.095l.3 2.235c-2.589-19.399-5.417-38.765-8.552-58.083-2.35-14.484-5.118-29.28-12.824-42.027-7.624-12.612-20.102-21.877-34.416-25.477-12.363-3.109-25.75-1.946-37.537 2.828-12.554 5.085-23.21 13.227-31.372 24.04-3.891 5.154-6.869 10.921-9.044 16.997-2.731 7.629-3.648 15.915-3.93 23.97-.328 9.356.481 18.711 1.538 27.999 1.057 9.291 2.232 18.569 3.358 27.852l6.942 57.258 3.471 28.629q.105.876.213 1.753l.07.584q.392 2.925.158 1.169c-.123.384.177 1.346.23 1.753l.23 1.753.997 7.595 1.841 14.022 3.759 28.629c1.291 9.83 2.747 19.612 4.308 29.403l2.211 13.872c.354 2.223 2.968 3.524 4.983 3.253 2.082-.28 4.114-2.201 3.938-4.46Z"/><path d="M517.737 347.387c-22.673 11.986-44.755 25.102-66.053 39.392-21.713 14.569-42.417 30.834-62.254 47.853-19.428 16.668-37.852 34.466-55.305 53.191-17.875 19.177-34.656 39.341-50.406 60.296a715 715 0 0 0-22.294 31.385c-3.572 5.327-6.983 10.76-10.342 16.223-3.683 5.99-7.311 11.964-10.015 18.468-1.157 2.783-1.779 5.816-2.581 8.719-.722 2.613.453 5.876 2.922 7.18s5.687 1.093 7.704-.994c2.311-2.391 4.752-4.646 6.823-7.249 2.418-3.039 4.541-6.292 6.632-9.564 3.577-5.596 7.073-11.239 10.728-16.785 7.348-11.149 14.766-22.233 22.599-33.051a725 725 0 0 1 13.397-17.907l-1.426 1.845c11.549-14.936 23.674-29.423 36.352-43.414s25.884-27.488 39.618-40.432c13.732-12.943 27.78-25.505 42.407-37.432a720 720 0 0 1 13.643-10.852l.707-.547c.782-.607-1.307 1.007-.521.403l1.599-1.229a731 731 0 0 1 5.533-4.198c7.585-5.698 15.221-11.338 22.961-16.823 15.409-10.919 31.241-21.248 47.509-30.843a703 703 0 0 1 5.992-3.494c2.662-1.536 3.819-5.38 2.107-8.036-1.784-2.767-5.126-3.645-8.036-2.107ZM313.61 638.234c-.663 6.826-1.325 13.652-2.065 20.472-.735 6.769-.781 13.668-1.042 20.475-.511 13.308-.588 26.607-.51 39.924.158 26.96 1.295 53.876 3.105 80.774a1604 1604 0 0 0 3.268 40.796c1.078 11.595 1.986 23.351 4.65 34.714 2.622 11.187 7.194 21.804 14.613 30.648 7.333 8.741 17.795 14.469 28.643 17.608 10.684 3.091 22.049 3.888 33.123 4.05 12.44.181 24.904-.128 37.339-.456a1453 1453 0 0 0 77.749-4.133 1485 1485 0 0 0 155.92-20.852 1455 1455 0 0 0 150.756-36.767c2.986-.9 5.993-1.758 8.957-2.73 3.552-1.165 6.959-2.887 10.368-4.422 4.054-1.826 5.238-7.467 3.667-11.19-1.817-4.305-6.117-6.032-10.572-5.189-12.582 2.382-24.74 6.681-37.049 10.212a1457 1457 0 0 1-111.032 27.177 1461 1461 0 0 1-94.247 15.989l-1.953.265c1.99-.267-1.223.161-1.307.172q-1.954.258-3.91.511-5.133.663-10.27 1.291a1459 1459 0 0 1-37.727 4.108 1454 1454 0 0 1-114.133 6.416c-11.402.191-22.882.548-34.263-.34a129 129 0 0 1-4.018-.375c-.533-.059-1.065-.131-1.598-.187 2.096.217.65.096.197.024-2.749-.435-5.479-.922-8.182-1.591a67 67 0 0 1-7.092-2.163c-.483-.179-.96-.382-1.445-.556 1.89.677.612.275.187.074-1.394-.661-2.777-1.321-4.121-2.079a47 47 0 0 1-2.953-1.812c-.537-.357-1.057-.735-1.586-1.103-.389-.271-1.284-1.176.117.094-1.949-1.767-3.88-3.461-5.599-5.467-.021-.025-1.598-2.01-.7-.826s-.595-.858-.613-.884q-.987-1.427-1.874-2.918c-.887-1.491-1.151-2.01-1.679-3.042a60 60 0 0 1-.851-1.74c-.119-.254-1.104-2.568-.611-1.333.562 1.406-.369-.99-.381-1.019a76 76 0 0 1-1.756-5.229 99 99 0 0 1-1.955-7.734 161 161 0 0 1-1.344-7.115 184 184 0 0 1-.837-5.568c.32 2.311-.007-.11-.071-.626-1.591-12.758-2.819-25.572-3.989-38.374-2.409-26.361-3.97-52.764-5.372-79.195a1614 1614 0 0 1-1.607-39.405c-.379-13.279-.528-26.683-1.488-39.927-.469-6.481-.879-12.957-1.171-19.448-.284-6.319-9.092-6.136-9.688 0Z"/><path d="M520.736 356.487c11.356 3.35 22.694 6.742 34.103 9.904s22.935 6.228 34.416 9.303c23.074 6.181 46.055 12.732 68.815 19.991 22.544 7.19 44.951 14.966 66.945 23.704a739 739 0 0 1 13.037 5.324c1.453.607-.468-.195-.626-.265.697.311 1.407.596 2.109.896a662 662 0 0 1 16.227 7.177c10.647 4.883 21.159 10.06 31.498 15.566s20.565 11.216 30.56 17.326c10.12 6.186 19.898 12.834 29.603 19.644a28 28 0 0 0 3.45 2.04c2.015 1.012 3.823 1.309 5.988 1.616 3.172.45 6-.059 8.083-2.756 2.013-2.606 1.926-5.643.601-8.541-.847-1.852-1.537-3.469-2.985-5.01-1.479-1.575-3.205-2.953-4.942-4.224-2.394-1.753-4.839-3.44-7.282-5.123a469 469 0 0 0-14.816-9.799 507 507 0 0 0-30.567-17.912c-21.249-11.492-43.506-21.242-65.982-30.058-22.085-8.663-44.566-16.235-67.343-22.86-23.024-6.697-46.265-12.624-69.599-18.134-11.678-2.757-23.366-5.526-35.134-7.871a1269 1269 0 0 0-35.091-6.489l-8.85-1.504c-2.222-.377-4.499.588-5.139 2.918-.609 2.216.746 4.499 2.918 5.139Zm276.83 190.266c4.095 13.69 7.308 27.618 10.458 41.553a1451 1451 0 0 1 8.829 41.993c5.463 27.985 10.755 55.984 15.462 84.109a1501 1501 0 0 1 7.198 47.747l-.363-2.701c.863 6.443 1.814 12.873 2.682 19.315l-.362-2.697c1.055 7.858 2.12 15.724 2.955 23.609.815 7.705 1.246 15.481.262 23.191l.36-2.676c-.63 4.586-1.77 9.109-3.543 13.391l.999-2.368a42 42 0 0 1-3.622 6.74 153 153 0 0 1-2.13 3.116c-.63.9 1.469-1.817.511-.654-.189.229-.375.461-.568.687-.43.507-.867 1.003-1.334 1.476-.751.76-1.746 2.057-2.725 2.499.16-.072 1.663-1.229.71-.549-.237.169-.471.342-.711.507q-.804.554-1.645 1.05a65 65 0 0 1-3.201 1.739c-.931.48.426-.231.666-.262-.269.035-.57.196-.83.278-.698.22-1.406.4-2.12.561-3.586.809-5.756 4.646-5.291 8.105.469 3.493 3.564 6.544 7.255 6.405 1.556-.059 3.087-.273 4.629-.491.268-.038 1.086-.144-.164.016-1.943.248 1.455-.195 1.471-.197a28 28 0 0 0 1.718-.298c2.577-.539 5.116-1.732 7.43-2.954a30 30 0 0 0 3.688-2.307c.678-.495 1.318-1.041 1.997-1.535-2.9 2.109.412-.299.886-.674 1.617-1.277 3.22-2.675 4.52-4.28 3.653-4.51 6.334-9.226 8.437-14.635s2.826-11.538 3.196-17.282c.717-11.117-.997-22.292-2.373-33.295-1.487-11.896-3.062-23.783-4.953-35.623-3.552-22.237-7.334-44.533-12.248-66.514-4.94-22.101-10.292-44.113-16.554-65.877a1591 1591 0 0 0-9.726-32.429 1540 1540 0 0 0-5.073-16.004c-1.749-5.417-3.69-10.792-5.292-16.254q-1.181-4.024-2.383-8.043c-.731-2.443-3.312-3.985-5.81-3.299-2.425.666-4.032 3.357-3.299 5.81Z"/><path d="M634.328 376.432c-.634-15.375-4.16-32.322-8.398-68.673-.435-3.728-1.948-7.473-.907-11.079 2.063-7.148 10.692-9.712 18.019-11.005a646.5 646.5 0 0 1 118.432-9.811c1.319.012 2.766.076 3.745.961.922.834 1.167 2.163 1.358 3.392a4876 4876 0 0 1 20.756 148.089c-9.712-6.627-20.856-10.792-31.901-14.824a2846 2846 0 0 0-112.47-38.423"/><path d="M637.014 377.172a135 135 0 0 0 .553-3.394c.027-.183.103-.424.089-.608l.029-.203q-.577 1.303.147-.383c.269-.976.168-2.21.24-3.237.054-.767.357-1.949.171-2.699l-.084.813q.253-.749.147-1.502c0-.229-.02-.465-.027-.695-.012-.391-.018-.782-.028-1.172a348 348 0 0 0-.088-2.893 507 507 0 0 0-.245-5.914q-.07-1.515-.146-3.028c-.024-.474-.059-.95-.072-1.424-.022-.795-.085-1.309-.223-2.22.333 2.208.107.672.054.173l-.774-7.21c-.593-5.539-1.17-11.079-1.71-16.623-.37-3.803-.717-7.608-1.061-11.414-.413-4.575-1.093-9.073-1.73-13.617l.273 2.031c-.163-1.329-.221-2.637-.045-3.968l-.276 2.055c.137-.764.345-1.488.632-2.209l-.785 1.859a12 12 0 0 1 1.407-2.422l-1.227 1.588a13.8 13.8 0 0 1 2.185-2.187l-1.602 1.238c1.46-1.125 3.097-1.994 4.787-2.722l-1.91.806c4.787-1.993 9.973-2.7 15.053-3.544a654 654 0 0 1 19.697-2.961l-2.138.287A649 649 0 0 1 752.624 284c3.409-.01 6.917-.21 10.313.108l-2.173-.292q.36.041.715.121l-1.953-.824c.333.144.612.295.914.498l-1.686-1.302q.28.21.503.48l-1.319-1.707q.23.281.384.61l-.861-2.04c.191.465.301.914.375 1.41l-.313-2.329c.589 6.067 1.543 12.125 2.357 18.176l-.33-2.453c3.407 25.36 7.349 50.646 10.866 75.991q1.45 10.455 2.856 20.917l-.333-2.478a4667 4667 0 0 1 5.132 39.42l13.939-7.999c-8.348-5.645-17.728-9.568-27.114-13.128-9.398-3.564-18.887-6.9-28.359-10.261a2848 2848 0 0 0-58.082-19.904 3170 3170 0 0 0-33.076-10.714c-4.528-1.443-10.113 1.691-11.172 6.344-1.13 4.959 1.495 9.628 6.344 11.172 16.761 5.339 33.463 10.871 50.116 16.539a2849 2849 0 0 1 49.57 17.382c8.934 3.226 17.938 6.34 26.698 10.019l-2.207-.931c6.241 2.641 12.319 5.664 17.933 9.479 2.688 1.827 6.64 1.586 9.351 0 2.552-1.493 4.974-4.873 4.588-7.999a5279 5279 0 0 0-7.843-60.616 4868 4868 0 0 0-8.283-58.549c-.797-5.401-1.712-10.779-2.633-16.16a4497 4497 0 0 0-2.49-14.414c-.222-1.273-.718-2.382-1.237-3.572l.894 2.119c-.833-2.265-1.755-4.331-3.529-6.026-2.221-2.122-4.85-2.842-7.828-3.207l2.173.292c-4.596-.91-9.52-.518-14.184-.485q-6.516.047-13.03.225a647 647 0 0 0-26.279 1.255c-18.137 1.236-36.216 3.26-54.193 5.959a642 642 0 0 0-12.865 2.065c-3.454.59-6.937 1.126-10.303 2.124-7.7 2.283-15.11 6.968-17.385 15.144-1.415 5.085.228 9.854 1.042 14.85.675 4.143 1.209 8.311 1.869 12.458a1574 1574 0 0 0 3.392 20.364c.486 2.817.977 5.634 1.464 8.451.421 2.436 1.054 4.845 1.592 7.261a418 418 0 0 1 1.735 8.134c.046.228.086.457.136.684.023.104.025.242.067.34l-.115-.812.171 1.272.482 1.143-.305-.72c-.019.069.073.256.088.328.045.219.116.435.173.651q.197.748.389 1.5c.114.449.19.933.343 1.37.062.176.025.465.016-.101-.014-.907.058.476.051.43.125.927.545 1.707 1.197 2.378l-.976-1.675q.66 2.194 1.25 4.409c.668 2.514 4.879 2.792 5.372 0Z"/><path fill="#55bfbf" d="M426.542 566.503c-.327 4.062-.563 8.138-1.081 12.181q-.765 5.966-1.508 11.936c-.999 8.028-1.719 16.07-2.42 24.129a1539 1539 0 0 0-3.391 47.791c-1.777 31.875-2.974 63.747-3.483 95.667-.143 8.968-.366 17.948-.306 26.917.03 4.485.07 8.975.172 13.459.109 4.803.95 9.533 1.706 14.265.323 2.019 2.761 3.689 4.729 3.601 1.986-.089 4.395-1.439 4.729-3.601.671-4.335 1.354-8.637 1.641-13.018.259-3.97.18-7.986.265-11.964.172-8.056.142-16.118.228-24.176.171-15.952.544-31.897.871-47.846.653-31.884 1.725-63.746 2.669-95.622.265-8.955.688-17.909.761-26.868q.055-6.714.138-13.428c.083-6.714.394-8.949.699-13.424.118-1.731-1.559-3.209-3.209-3.209-1.852 0-3.07 1.474-3.209 3.209Z"/><path fill="#55bfbf" d="M345.42 708.507q9.542-1.49 19.094-2.92l.98-.147c-.094.014 1.511-.226.802-.123s.894-.116.802-.104l.98-.127q2.45-.316 4.9-.629 4.777-.609 9.558-1.203a3093 3093 0 0 1 38.028-4.489c25.24-2.821 50.467-5.749 75.743-8.246a3124 3124 0 0 1 42.88-3.936c1.909-.162 3.616-.681 5.009-2.075 1.229-1.229 2.154-3.245 2.075-5.009-.158-3.526-3.135-7.475-7.084-7.084a3119 3119 0 0 0-76.598 8.528c-25.772 3.193-51.447 6.964-77.085 11.092a8940 8940 0 0 1-42.755 6.78c-2.606.407-4.28 3.804-3.51 6.182.917 2.833 3.39 3.946 6.182 3.51Z"/><path d="M306.8 638.862c3.329-3.948 6.622-7.947 10.175-11.696s7.13-7.462 10.738-11.15c7.167-7.326 14.402-14.592 21.628-21.861 14.525-14.611 29.433-28.855 44.332-43.083 14.971-14.297 30.173-28.35 45.468-42.3 15.702-14.321 31.507-28.529 47.241-42.816a9306 9306 0 0 1 24.219-21.912c8.084-7.287 16.246-14.479 23.977-22.145a33 33 0 0 0 2.816-3.227c1.149-1.487 1.559-3.183 2.04-4.956a4.7 4.7 0 0 0-1.199-4.536c-1.277-1.277-2.839-1.464-4.536-1.199-1.623.254-3.113.41-4.585 1.26-1.533.886-2.991 2.079-4.344 3.199q-3.154 2.612-6.304 5.225c-4.194 3.479-8.216 7.151-12.273 10.789a8993 8993 0 0 0-24.096 21.683c-15.927 14.383-31.724 28.904-47.455 43.502-15.169 14.076-30.261 28.237-45.137 42.624-7.376 7.133-14.798 14.248-21.932 21.624s-14.202 14.828-21.175 22.362c-7.033 7.6-13.973 15.268-20.642 23.19s-13.076 16.088-19.821 23.955a915 915 0 0 0-4.871 5.73c-1.366 1.62-1.708 4.169 0 5.737 1.506 1.383 4.276 1.732 5.737 0Z"/><path d="M531.84 416.835c5.012 2.807 10.575 4.873 15.992 6.808q7.682 2.746 15.279 5.721c7.597 2.975 10.159 3.835 15.206 5.838a622 622 0 0 1 11.248 4.594c1.369.573-.369-.138-.525-.223.31.168.69.292 1.01.428q1.01.429 2.017.861c10.012 4.295 19.887 8.881 29.703 13.603 9.863 4.745 19.768 9.372 29.526 14.336 19.495 9.917 38.76 20.307 57.791 31.085 19.145 10.843 37.929 22.289 56.969 33.309 9.876 5.717 19.742 11.453 29.61 17.183 5.119 2.972 10.277 5.877 15.422 8.804 5.57 3.169 11.188 6.533 17.141 8.922 2.703 1.084 5.532 1.72 8.333 2.499 5.993 1.667 10.103-5.856 5.95-10.221l-1.409-1.482c-.193-.203-1.117-.846-.435-.329l.169.305-1.134-1.468c-1.016-1.204-2.154-2.24-3.355-3.253-2.702-2.278-5.697-4.167-8.622-6.142-4.991-3.371-10.133-6.522-15.221-9.745-9.835-6.229-19.753-12.327-29.646-18.463-18.687-11.59-37.669-22.723-56.754-33.644-19.154-10.96-38.475-21.675-58.261-31.457-20.213-9.992-40.733-19.191-61.862-27.082a619 619 0 0 0-30.902-10.642c-10.403-3.271-21.034-6.18-31.791-8.003-1.369-.232-2.737-.467-4.108-.685-1.654-.262-3.286-.246-4.957-.26-4.644-.038-6.483 6.505-2.384 8.801Z"/><path fill="#edc851" d="M669.513 320.334c2.972-.244 5.917-.452 8.858-.966a1193 1193 0 0 1 23.873-3.921c10.802-1.661 21.566-3.54 32.385-5.103 3.002-.434 6.044-.744 9.028-1.286 1.431-.26 2.908-.526 4.315-.892 1.821-.474 3.322-1.377 4.836-2.452 2.566-1.823 2.146-5.458-.853-6.529-1.462-.522-2.794-.912-4.364-1.013-1.455-.093-2.936.127-4.388.248-2.925.244-5.828.79-8.725 1.255q-8.015 1.289-16.012 2.687a701 701 0 0 0-32.074 6.367 1172 1172 0 0 0-8.869 2.018c-3.061.709-5.975 1.662-8.944 2.689-1.645.569-2.785 2.064-2.516 3.853.241 1.602 1.683 3.19 3.449 3.045Zm19.484 30.496c16.559-.531 33.153-1.366 49.666-2.714q3.553-.29 7.104-.616a70 70 0 0 0 4.024-.488c1.397-.21 2.573-.755 3.835-1.371 2.6-1.269 2.028-5.746-.824-6.308-1.111-.219-2.231-.49-3.364-.427-1.262.07-2.533.267-3.78.46q-3.035.467-6.074.906a645 645 0 0 1-11.715 1.587c-8.258 1.042-16.528 1.984-24.832 2.563q-7.016.488-14.04.838c-1.503.075-2.785 1.226-2.785 2.785 0 1.472 1.275 2.834 2.785 2.785m29.823 23.393h-.806a3.4 3.4 0 0 0-1.75.391 3.4 3.4 0 0 0-1.461.939 3.4 3.4 0 0 0-.939 1.461 3.4 3.4 0 0 0-.391 1.75l.162 1.207a4.54 4.54 0 0 0 1.168 2.004l.919.71a4.5 4.5 0 0 0 2.292.62h.806a3.4 3.4 0 0 0 1.75-.391 3.4 3.4 0 0 0 1.461-.939q.664-.617.939-1.461a3.4 3.4 0 0 0 .391-1.75l-.162-1.207a4.54 4.54 0 0 0-1.168-2.004l-.919-.71a4.5 4.5 0 0 0-2.292-.62m-20.298 339.022 2.53-.05c1.313-.026 2.597-.233 3.89-.446l2.546-.421c.898-.148 1.534-.248 2.407-.739.38-.214.73-.475 1.088-.727.7-.493 1.364-1.053 1.803-1.803.572-.977.745-2.096.596-3.205a4.76 4.76 0 0 0-.989-2.377c-.65-.841-1.552-1.541-2.611-1.801-.813-.2-1.667-.458-2.504-.452-.822.006-1.644.179-2.449.351l-2.611.558c-.852.182-1.659.368-2.477.67l-2.509.927c-1.153.426-2.294 1.088-2.895 2.226-.517.978-.723 1.987-.575 3.089.312 2.321 2.333 4.248 4.757 4.2ZM142.06 522.378l.371-1.242q.092-.298.179-.598c.165-.578.128-1.001.083-1.543l-.119-.885-.336-.796-.521-.674a2.5 2.5 0 0 0-1.072-.689 1.66 1.66 0 0 0-.84-.227 1.7 1.7 0 0 0-.885 0 1.65 1.65 0 0 0-.84.227q-.62.201-1.072.689c-.322.361-.689.733-.928 1.145s-.397.954-.568 1.419l-.458 1.244a2.76 2.76 0 0 0-.065 1.449q.033.725.431 1.351.342.635.936 1.019.527.482 1.235.65l.966.13a3.6 3.6 0 0 0 1.834-.496l.735-.568q.675-.68.934-1.603Zm44.852-25.419c1.964 0 3.845-1.727 3.754-3.754s-1.649-3.754-3.754-3.754c-1.964 0-3.845 1.727-3.754 3.754s1.649 3.754 3.754 3.754m-7.254 31.655c2.502 0 4.899-2.2 4.783-4.783s-2.102-4.783-4.783-4.783c-2.502 0-4.899 2.2-4.783 4.783s2.102 4.783 4.783 4.783m-47.123 110.894c14.839-19.164 29.542-38.484 43.583-58.244 3.958-5.571 7.427-11.382 10.883-17.272 1.555-2.65-2.281-5.849-4.374-3.375-3.976 4.698-7.936 9.356-11.645 14.27-3.626 4.804-7.118 9.711-10.684 14.56a2129 2129 0 0 1-33.501 44.324c-1.299 1.672-1.752 4.129 0 5.737 1.451 1.332 4.35 1.792 5.737 0Zm18.077 40.762c16.01-19.071 32.449-37.787 49.064-56.332 2.379-2.656 4.719-5.337 7.042-8.043s4.414-5.66 6.601-8.488c1.179-1.525 1.486-3.566 0-5.052-1.394-1.394-3.652-1.336-5.052 0-4.579 4.371-9.041 8.769-13.186 13.56a1762 1762 0 0 0-12.013 14.03c-8.072 9.526-15.897 19.267-23.672 29.036a1803 1803 0 0 0-13.236 16.837c-1.042 1.342-1.308 3.145 0 4.453 1.123 1.123 3.354 1.308 4.453 0Zm46.985 17.842 6.99-7.731c1.292-1.429 2.603-2.828 3.77-4.362l3.159-4.154c.965-1.269.308-3.263-.827-4.14-1.276-.986-3.042-.859-4.214.251l-3.724 3.529c-1.241 1.176-2.329 2.514-3.464 3.79l-6.828 7.679c-1.262 1.42-1.504 3.757 0 5.138 1.39 1.276 3.777 1.506 5.138 0"/><path fill="#edc851" d="M136.336 592.953a1167 1167 0 0 1 66.138 64.461c2.949 3.112 5.86 6.258 8.859 9.322 1.554 1.588 3.088 3.195 4.648 4.777s3.314 2.98 4.977 4.446c1.218 1.073 2.973 1.307 4.293.256 1.153-.918 1.835-2.898.842-4.218-2.484-3.304-5.033-6.455-7.817-9.511a310 310 0 0 0-7.864-8.296 1167 1167 0 0 0-50.159-48.158 1175 1175 0 0 0-19.636-17.36c-1.236-1.069-3.066-1.215-4.281 0-1.112 1.112-1.22 3.183 0 4.281m48.465-38.799c12.114 15.431 24.327 30.933 37.73 45.27 1.162 1.243 3.279 1.174 4.453 0 1.301-1.301 1.083-3.135 0-4.453-12.464-15.174-25.51-29.856-37.901-45.099-1.032-1.27-3.209-1.072-4.281 0-1.271 1.271-1.013 2.991 0 4.281Zm-66.559 80.259 25.618 23.543c1.516 1.394 3.895 1.5 5.395 0 1.396-1.396 1.542-4.016 0-5.395l-25.961-23.2c-1.438-1.285-3.634-1.418-5.052 0-1.323 1.323-1.426 3.742 0 5.052"/><path d="M297.814 243.684c9.354 19.49 20.946 38.607 36.4 53.885 7.799 7.711 16.626 14.485 26.414 19.474 11.439 5.83 23.896 9.559 36.51 11.807 13.318 2.374 27.078 3.675 40.592 4.181 13.759.516 27.462-1.083 40.863-4.212 25.481-5.95 49.097-17.301 72.907-27.831a860 860 0 0 1 8.415-3.674q1.088-.467 2.177-.93.545-.23 1.089-.462c.034-.015-1.782.747-.834.353 1.551-.644 3.1-1.292 4.655-1.925 5.738-2.336 11.509-4.632 17.318-6.785 11.442-4.241 23.28-7.894 35.304-10.051 2.941-.528 5.856-1.188 8.803-1.689 2.871-.488 4.56-3.815 4.207-6.444-.401-2.985-2.816-4.912-5.768-5.093-11.569-.708-23.401.777-34.687 3.339-11.005 2.498-21.716 5.899-32.24 9.954-21.358 8.229-42.145 17.879-63.739 25.508-12.467 4.404-25.264 7.937-38.378 9.75l2.598-.349c-14.069 1.885-28.339 1.83-42.491 1.136a356 356 0 0 1-20.025-1.566 190 190 0 0 1-3.56-.412c-.3-.038-1.601-.215-.394-.047s-.101-.017-.401-.06a163 163 0 0 1-3.863-.605 131 131 0 0 1-9.965-2.084c-3.182-.802-6.33-1.74-9.423-2.834a96 96 0 0 1-4.092-1.553c-.22-.089-1.241-.514-.351-.14s-.133-.06-.351-.156q-1.053-.46-2.094-.945a116 116 0 0 1-15.012-8.391 114 114 0 0 1-5.756-4.069c-.092-.069-1.125-.86-.66-.5.473.366-.362-.286-.461-.364a124 124 0 0 1-2.382-1.928 132 132 0 0 1-3.298-2.827c-4.28-3.792-8.321-7.852-12.138-12.109-8.636-9.634-15.826-20.271-22.229-31.494-1.369-2.398-4.826-.292-3.66 2.139Zm124.548-52.482c2.086-4.682 5.489-8.672 9.248-11.313a36 36 0 0 1 3.067-1.932 38 38 0 0 1 2.607-1.343c.122-.057 1.455-.647.755-.352 2.449-1.031 5.014-1.805 7.61-2.363a46 46 0 0 1 2.024-.388c.247-.042.494-.077.741-.119 1.23-.209-.892.084.341-.048a54 54 0 0 1 4.084-.307 45.6 45.6 0 0 1 7.242.35c-.817-.104.46.073.613.098 3.398.542 6.742 1.39 10.008 2.468a78 78 0 0 1 4.43 1.616q.66.262 1.315.536c-1.093-.458.343.156.463.209q1.294.573 2.572 1.183a120 120 0 0 1 10.044 5.412c1.639.983 3.261 1.993 4.872 3.021a266 266 0 0 1 3.6 2.336q.4.259.79.53-1.005-.756-.213-.091c2.105 1.857 5.376 2.643 7.896 1.019 2.39-1.541 3.857-4.519 2.995-7.359-.186-.614-.39-1.225-.559-1.844-.192-.703-1.666-4.065-.617-1.832-.548-1.167-.97-2.417-1.434-3.62a159 159 0 0 1-1.195-3.195q-.315-1.218-.92-2.333.694 1.672.223.508c-.233-.609-.478-1.215-.708-1.825-1.746-4.632-3.131-9.404-3.828-14.312l.299 2.229c-.597-4.457-.576-8.951.009-13.409l-.315 2.343a60.8 60.8 0 0 1 4.102-15.057l-.919 2.179c2.117-4.985 4.879-9.653 8.182-13.944l-1.463 1.893a65.8 65.8 0 0 1 11.511-11.508l-1.941 1.499c4.115-3.161 8.584-5.81 13.356-7.851l-2.344.989c5.161-2.167 10.633-3.596 16.176-4.355l-2.642.355c6.063-.793 12.187-.737 18.245.073l-2.645-.355c6.631.923 13.094 2.732 19.271 5.309l-2.381-1.005a82.3 82.3 0 0 1 18.085 10.541l-2.021-1.561c5.703 4.427 10.873 9.552 15.309 15.248l-1.524-1.972c5.226 6.779 9.265 14.238 12.6 22.103l-.928-2.2c3.589 8.568 5.983 17.582 7.247 26.782l-.29-2.16c1.175 8.803 1.403 17.739.619 26.586-.322 3.629 3.424 7.104 6.946 6.946 1.796-.08 3.66-.671 4.912-2.034 1.328-1.447 1.799-2.976 2.034-4.912.139-1.143-.086.766-.09.766.017-.004.134-.61.156-.702q.17-.694.393-1.371c.22-.666.946-1.731-.052-.02.235-.403.399-.858.62-1.271.441-.825 1.091-1.563 1.506-2.388-.628 1.251-.775.956-.4.519.155-.181.303-.366.459-.545q.529-.607 1.099-1.174c.638-.634 1.381-1.16 2.016-1.788-1.339 1.324-.389.31.128-.041.453-.307.915-.605 1.387-.88.421-.246.855-.473 1.291-.692.209-.105 1.83-.818.722-.365-1.03.421.309-.113.591-.216q.867-.315 1.753-.572a27 27 0 0 1 2.689-.63c.241-.044.484-.079.725-.12.828-.142-1.461.155-.624.089.549-.044 1.095-.102 1.646-.126q1.384-.059 2.766.038.42.029.84.07c.266.026 1.172.206.191.008-.989-.2-.068-.003.185.039q.516.086 1.029.189a33.3 33.3 0 0 1 5.398 1.581c.865.332.4.213-.159-.087 2.039 1.094 4.154 2.048 6.181 3.177a48 48 0 0 1 3.251 1.988c.529.352 1.042.725 1.565 1.085.288.198.635.657-.119-.126.463.481 1.11.855 1.652 1.247.227.164 1.741 1.363.768.562.497.409 1.005.805 1.498 1.22q.735.618 1.451 1.258c.211.189.418.382.629.57l.311.288q1.664 1.12.614.579c1.583 1.867 4.986 1.751 6.593 0 1.824-1.987 1.689-4.602 0-6.593.543.641.094.038.019-.09-.174-.296-.406-.572-.608-.851a66 66 0 0 0-1.131-1.505c-.965-1.254-1.942-2.496-2.983-3.688-1.67-1.914-3.575-3.635-5.563-5.218-4.513-3.593-9.725-6.237-15.361-7.582-10.656-2.544-21.558.024-29.958 7.045-4.396 3.674-7.5 8.893-8.72 14.477l13.396 3.693c1.913-10.37 2.661-20.907 1.775-31.425-.869-10.319-2.775-20.883-6.687-30.517-4.28-10.539-9.892-20.161-17.369-28.774-6.548-7.543-14.853-13.833-23.659-18.516-18.229-9.694-40.23-13.525-60.337-7.796-18.852 5.372-35.345 19.714-43.754 37.366-4.285 8.995-6.896 18.687-6.646 28.713.288 11.572 4.196 22.894 9.98 32.834a226 226 0 0 0 2.01 3.378c.169.28.335.564.51.84.321.504 1.219 1.325 1.343 1.865l-.47-.668.446.592.743.986 7.359-9.572c-1.435-.559 1.158.713-.19-.116-.403-.248-.836-.459-1.252-.685q-1.152-.627-2.308-1.244c-1.687-.9-3.384-1.782-5.095-2.637a173 173 0 0 0-10.855-4.975c-7.03-2.924-14.287-4.979-21.858-5.863-11.952-1.396-24.839 1.342-34.556 8.648-5.483 4.123-9.699 9.417-12.083 15.881-1.198 3.248 4.218 5.582 5.644 2.38ZM606.945 42.658c6.939 2.502 13.717 5.321 20.157 8.939a193 193 0 0 1 21.231 13.854 247 247 0 0 1 1.599 1.21c.716.548.202.186-.197-.155 1.402 1.197 2.903 2.295 4.333 3.459 1.035.842 2.1 1.666 3.178 2.455-.061-.045-1.303-1.015-.472-.364l.568.444q.567.445 1.132.894a201 201 0 0 1 4.328 3.543 204 204 0 0 1 16.462 15.513c5.841 6.147 11.462 12.518 16.654 19.225l-1.316-1.704a225.3 225.3 0 0 1 23.225 37.137 202 202 0 0 1 5.142 11.195l-.9-2.133a195 195 0 0 1 6.529 17.85q1.426 4.584 2.615 9.236c.77 3.012 1.536 6.128 2.604 9.049.623 1.704 1.257 3.403 1.867 5.111.761 2.131 1.98 3.98 2.957 6.008 1.016 2.109 3.752 3.123 5.912 2.833 2.115-.284 4.564-1.967 4.933-4.25.351-2.171 1.038-4.403 1.04-6.6.001-1.78-.022-3.571-.112-5.349-.212-4.194-1.127-8.56-2.198-12.618a191 191 0 0 0-6.738-20.65c-5.52-14.155-12.333-27.907-20.993-40.415-8.574-12.385-18.335-24.22-29.512-34.35-11.106-10.066-23.23-19.344-36.563-26.252a204 204 0 0 0-20.519-9.22c-6.706-2.584-13.545-4.997-20.426-7.073a187 187 0 0 0-5.232-1.493c-3.049-.824-4.185 3.626-1.288 4.671m24.689 756.111-3-31.919c-1-10.636-1.743-21.291-2.825-31.919-1.091-10.722-2.213-21.442-3.275-32.167-.513-5.182-.9-10.396-1.245-15.592-.297-4.472-.878-8.93-1.213-13.402-.762-10.185-.986-20.461.369-30.607l-.255 1.901c.895-6.482 2.462-12.849 4.98-18.897l-.749 1.775a61 61 0 0 1 3.677-7.321 56 56 0 0 1 3.362-5.037c.321-.431 1.112-1.2-.308.387.231-.258.433-.546.651-.815 3.481-4.287 7.525-8.078 11.889-11.452l-1.606 1.241a89.6 89.6 0 0 1 19.475-11.345l-1.961.828c6.594-2.754 13.494-4.685 20.575-5.666l-2.242.301c5.957-.792 11.881-.85 17.84-.052l-2.344-.315c6.456.904 12.818 2.75 18.832 5.255l-2.222-.938a67 67 0 0 1 14.58 8.438l-1.901-1.468c4.044 3.125 7.693 6.709 10.842 10.736l-1.481-1.917c3.338 4.327 6.015 9.092 8.147 14.118l-.964-2.284c3.965 9.497 6.072 19.542 7.445 29.708l-.339-2.52c.787 5.906 1.355 11.84 2.072 17.755q.6 4.947 1.169 9.898c.455 3.955.766 8 1.78 11.861l-.296-2.205c.627 7.109 1.466 14.199 2.102 21.308q.942 10.534 1.743 21.079c.801 10.545.993 14.074 1.79 21.094.403 3.549.899 7.108 1.088 10.675s.365 7.118.53 10.678c.185 3.988.324 7.953.769 11.921.213 1.904.41 3.81.63 5.713.149 1.291.254 2.112.5 3.585.138.826.456 1.829.464 2.625.021 1.93 1.627 3.572 3.572 3.572 1.921 0 3.594-1.635 3.572-3.572-.01-.91.282-1.957.409-2.864.226-1.624.324-2.414.456-4.091q.283-3.602.55-7.203c.347-4.681.085-9.463.047-14.156-.038-4.647-.018-9.26.153-13.904.174-4.724.327-9.422.219-14.148q-.322-14.142-.898-28.277-.29-7.064-.615-14.127a1609 1609 0 0 0-.332-6.936c-.121-2.408-.054-4.771-.02-7.181.064-4.597-.463-9.271-.745-13.86-.265-4.314-.567-8.613-1.018-12.912-.913-8.694-2.037-17.432-4.172-25.921-2.089-8.307-5.221-16.529-9.788-23.802-4.666-7.43-10.605-13.552-17.548-18.847-6.342-4.837-13.594-8.419-21.135-10.979-7.603-2.581-15.997-3.552-24.005-3.353-8.727.217-17.446 1.442-25.77 4.124-8.271 2.665-16.275 6.455-23.484 11.315-6.975 4.702-13.499 10.315-18.706 16.947-5.526 7.04-9.684 14.791-12.261 23.39-4.689 15.64-4.122 32.382-2.369 48.433.481 4.405.912 8.872 1.686 13.235.387 2.184.72 4.379 1.08 6.568l.564 3.424.282 1.712c.091.552.402 1.414.322 1.957.038-.259-.203-1.591.038.203.057.425.121.847.182 1.271q.122.861.242 1.723l.518 3.693.966 6.893 1.967 14.032 1.001 7.139.449 3.2.242 1.723q.07.492.138.985c-.146-1.074.114.891.129.987.728 4.654 1.504 9.303 2.246 13.955 1.474 9.235 2.806 18.491 4.175 27.742l2.037 13.757c.239 1.615 2.193 2.605 3.654 2.385 1.505-.226 3.045-1.599 2.888-3.271ZM349.505 589.43c44.838-38.282 93.17-74.3 148.977-93.316 76.524-26.074 161.694-17.756 237.736 9.694-23.116-14.796-48.503-25.62-73.755-36.374l-61.879-26.351c-16.145-6.875-32.317-13.761-49.02-19.142-5.96-1.92-12.295-3.662-18.411-2.319-6.807 1.495-12.196 6.542-17.119 11.474-31.741 31.804-60.016 67.839-97.407 92.757"/><path d="M351.175 591.1c10.535-8.195 20.978-16.519 31.603-24.598 10.532-8.008 21.661-15.222 32.721-22.474 11.137-7.302 22.567-14.173 34.338-20.404 11.58-6.13 23.29-11.551 35.149-16.094a286 286 0 0 1 38.621-11.757 309 309 0 0 1 25.225-4.672c.343-.049.687-.094 1.03-.144 1.182-.173-1.031.131.151-.022.914-.118 1.828-.237 2.742-.349q5.147-.631 10.313-1.091a377.7 377.7 0 0 1 82.263 1.635c.1.013 1.252.168.369.048-.96-.13.497.07.715.1a404 404 0 0 1 17.961 2.917 422 422 0 0 1 20.219 4.267 446 446 0 0 1 39.682 11.373 506 506 0 0 1 9.881 3.447c3.63 1.307 7.749-1.184 9.143-4.487 1.526-3.616.115-7.581-3.171-9.678-21.401-13.654-44.606-23.635-67.764-33.839-24.854-10.951-49.537-22.301-74.561-32.853-11.951-5.039-23.948-9.998-36.201-14.265-6.524-2.272-13.019-4.487-19.9-5.342a30.34 30.34 0 0 0-20.007 4.512c-5.153 3.276-9.448 7.651-13.672 12.006-4.113 4.24-8.158 8.546-12.174 12.878-7.894 8.516-15.695 17.118-23.623 25.603-7.978 8.537-16.118 16.912-24.653 24.895a330 330 0 0 1-12.909 11.483 269 269 0 0 1-6.951 5.66c-.385.302-1.576 1.226-.538.427q-.79.608-1.585 1.21a225 225 0 0 1-10.844 7.724c-3.339 2.232-5.103 6.885-2.759 10.521 2.145 3.328 6.945 5.15 10.521 2.759 19.43-12.992 36.52-28.838 52.911-45.412 16.199-16.38 31.491-33.68 48.127-49.626a84 84 0 0 1 2.832-2.607c.329-.287 1.318-1.414 1.717-1.444-.012 0-1.251.911-.449.346.345-.244.682-.5 1.029-.741a30 30 0 0 1 3.22-1.96c.275-.143 2.023-1.005.965-.488-.994.486-.077.044.146-.02.502-.144.993-.32 1.5-.452.322-.084 2.236-.42 1.201-.297s1.017-.037 1.352-.043q1.072-.018 2.143.055c.245.016.863-.035 1.072.091-.484-.291-1.269-.219-.153-.007 3.108.591 6.129 1.445 9.137 2.42 12.115 3.927 23.932 8.687 35.675 13.599.932.39-.282-.12-.388-.164q.684.287 1.366.578 1.024.433 2.047.87 2.217.944 4.432 1.893 4.538 1.943 9.074 3.89c6.614 2.836 13.284 5.512 19.967 8.18a3502 3502 0 0 1 36.806 14.958c2.937 1.212 5.871 2.431 8.809 3.638-1.167-.479.44.189.81.347l1.993.856q2.159.929 4.314 1.865c5.747 2.497 11.476 5.038 17.161 7.674 11.239 5.21 22.319 10.791 32.989 17.094a273 273 0 0 1 7.993 4.913l5.972-14.166c-26.331-9.483-53.547-16.601-81.215-20.859-27.864-4.289-56.536-6.286-84.676-3.742-28.01 2.532-55.633 8.489-81.881 18.664-25.305 9.81-49.153 22.942-71.635 38.095-11.308 7.622-22.108 15.841-32.626 24.516-10.397 8.575-21.104 16.768-31.029 25.9a1257 1257 0 0 0-7.381 6.851c-2.281 2.134 1.013 5.15 3.34 3.34Z"/></svg>