<?xml version="1.0" encoding="UTF-8"?><svg xmlns="http://www.w3.org/2000/svg" data-name="ARTWORK" viewBox="0 0 1000 1000"><g fill="#d85bd2"><path d="M509.452 866.375C279.372 771.013 10.119 436.73 216.708 199.194c79.038-90.878 212.128-145.147 331.563-148.44 123.936-3.417 262.411 72.33 294.29 198.747 2.337 9.269 4.118 18.685 5.424 28.154 5.866 42.553 3.109 86.296-7.169 127.965-22.432 90.944-76.443 171.022-137.305 242.224-35.11 41.075-72.778 79.879-110.417 118.65l-98.089 101.041"/><path d="M511.882 862.218c-58.024-26.601-112.114-63.146-160.054-105.156-51.626-45.239-97.778-97.318-133.703-155.929-17.322-28.26-32.309-58.019-43.558-88.898-5.477-15.035-10.133-30.375-13.8-45.953-3.689-15.672-6.227-30.648-7.633-46.035-5.821-63.737 8.517-125.825 43.459-179.72 41.513-64.031 106.058-110.44 175.297-140.614 35.902-15.646 73.906-26.872 112.471-33.616 35.354-6.183 71.689-8.625 107.416-4.444 66.194 7.746 132.703 37.564 180.442 85.04 23.554 23.424 42.818 51.805 54.135 82.639 15.319 41.738 17.672 87.926 12.552 131.793-10.18 87.22-54.702 166.785-107.004 235.658-27.855 36.68-58.742 71.014-90.295 104.523-33.877 35.977-68.571 71.19-103.002 106.635-16.917 17.416-33.839 34.827-50.751 52.247-9.069 9.342 5.214 23.657 14.299 14.299 35.62-36.692 71.232-73.393 106.826-110.109 34.685-35.779 69.239-71.742 101.616-109.646C768.349 587.32 820.281 511.91 845.66 425.775c24.487-83.109 22.583-179.925-27.73-253.308-40.661-59.305-104.977-99.858-173.697-118.82-73.14-20.182-150.748-12.706-222.704 9-76.871 23.188-150.909 64.183-205.448 123.84-46.945 51.35-76.873 115.658-81.383 185.397-4.307 66.587 14.157 132.781 43.287 192.16 30.885 62.955 74.333 119.767 123.927 169.124 24.944 24.825 51.977 47.603 80.348 68.412 13.711 10.056 27.8 19.543 42.312 28.406 13.752 8.399 27.883 17.024 42.611 23.61 13.577 6.071 27.045 12.207 40.988 17.424 5.062 1.894 8.674-6.524 3.71-8.8Z"/></g><g fill="#ff8345"><path d="M799.73 346.03c-28.721-63.773-61.044-150.754-52.207-220.136 2.4-18.844 7.933-38.207 21.172-51.831s35.822-19.515 51.789-9.223c14.738 9.499 19.419 28.685 21.392 46.108a313 313 0 0 1-5.005 100.836c9.02-27.838 18.336-56.256 35.982-79.601 17.645-23.345 45.485-41.087 74.658-38.802 4.358.341 8.799 1.162 12.522 3.452 5.759 3.543 8.974 10.06 11.05 16.496 8.179 25.356 2.826 53.614-9.37 77.301s-30.701 43.482-49.834 62.022a844.5 844.5 0 0 1-103.454 85.405"/><path d="M802.9 344.177a1028 1028 0 0 1-8.104-19.611 1057 1057 0 0 1-8.245-21.26c-5.521-14.67-10.635-29.498-15.169-44.505-4.631-15.329-8.782-30.841-12.039-46.523a370 370 0 0 1-4.019-22.769l-.196-1.386-.029-.19c-.134-.917-.236-1.839-.351-2.758a349 349 0 0 1-.705-5.955 280 280 0 0 1-.997-11.359c-.495-7.402-.681-14.827-.477-22.243.1-3.611.292-7.22.589-10.821a182 182 0 0 1 .792-7.643c.05-.397.177-.862.163-1.261q-.204 1.508-.051.408l.129-.897c1.078-7.363 2.64-14.676 4.993-21.743a93 93 0 0 1 1.865-5.11c.156-.39.285-.903.512-1.255-.941 1.455-.178.429.03-.039q.637-1.439 1.331-2.852c1.645-3.348 3.535-6.578 5.697-9.618.259-.365.529-.722.79-1.085.92-1.283-.978 1.198.015-.03a77 77 0 0 1 1.715-2.072 53 53 0 0 1 3.895-4.06 47 47 0 0 1 1.828-1.614c.313-.262.632-.515.948-.773 1.151-.94-1.322.955-.111.093 1.447-1.03 2.904-2.029 4.439-2.927a50 50 0 0 1 4.363-2.268c.369-.169.764-.31 1.123-.498-1.807.947-.638.273-.164.089a49 49 0 0 1 2.689-.958 46.4 46.4 0 0 1 6.686-1.628c.532-.088 1.913-.123-.294.021.53-.035 1.062-.125 1.592-.172a40 40 0 0 1 4.768-.145q1.186.035 2.367.143c.39.036.785.106 1.176.127-2.37-.13-.549-.065.041.042 1.545.281 3.07.674 4.559 1.171.624.208 3.01 1.369.848.253.821.424 1.68.768 2.496 1.207 1.422.766 2.666 1.802 4.055 2.598-1.732-.992-.716-.562-.232-.163q.458.377.902.77a35 35 0 0 1 1.989 1.902 37 37 0 0 1 1.581 1.742c.254.299.499.605.749.907.944 1.143-1.062-1.469-.207-.26.988 1.396 1.935 2.807 2.782 4.295a51 51 0 0 1 2.166 4.271c.218.484.721 1.877-.12-.327.144.377.308.747.456 1.123q.521 1.323.984 2.669c1.121 3.252 1.98 6.582 2.713 9.941q.486 2.231.878 4.481.215 1.224.405 2.452c.109.701.53 4.083.191 1.205.481 4.087.931 8.172 1.266 12.274a313 313 0 0 1-1.748 67.095l.286-2.128a318 318 0 0 1-4.416 25.085c-.898 4.125 1.232 8.945 5.65 9.952 4.447 1.013 8.54-1.342 9.952-5.65 2.964-9.046 5.939-18.091 9.226-27.026a330 330 0 0 1 5.101-13.063c.774-1.857-.544 1.259.028-.068q.338-.789.679-1.576.732-1.685 1.489-3.359a214 214 0 0 1 3.029-6.413c4.136-8.389 8.865-16.505 14.401-24.053q.507-.692 1.023-1.377l.578-.761c.539-.717-.716.936-.64.828.63-.895 1.372-1.731 2.07-2.573a113 113 0 0 1 4.233-4.818 110 110 0 0 1 9.305-8.902q1.355-1.151 2.747-2.256l.523-.412c.804-.639-1.629 1.231-.49.38.473-.354.944-.711 1.421-1.06a99 99 0 0 1 5.848-3.975 92 92 0 0 1 12.801-6.709l-2.051.866c6.258-2.633 12.798-4.509 19.529-5.433l-2.303.309c5.541-.726 11.167-.824 16.717-.13l-2.32-.312c2.58.352 5.097.921 7.51 1.916l-2.092-.883a20.4 20.4 0 0 1 3.987 2.303l-1.776-1.372a21.7 21.7 0 0 1 3.612 3.589l-1.378-1.783c1.685 2.182 2.996 4.587 4.086 7.113l-.897-2.125c2.409 5.743 3.831 11.913 4.674 18.069l-.325-2.418c1.066 8.131.955 16.348-.11 24.473l.334-2.486c-1.445 10.639-4.533 20.947-8.692 30.829l.971-2.301c-5.361 12.601-12.717 24.238-21.071 35.057l1.508-1.951c-11.014 14.196-23.704 26.975-36.669 39.376a844 844 0 0 1-67.304 57.917l1.959-1.514c-11.115 8.585-22.733 16.532-33.728 25.267l1.9-1.468-.428.3c-2.038 1.427-3.635 3.143-4.315 5.611-.619 2.247-.339 5.24.946 7.234 2.571 3.988 8.543 6.381 12.845 3.368 3.633-2.544 7.412-4.863 11.008-7.467a843 843 0 0 0 10.94-8.056 926 926 0 0 0 22.831-17.658 845 845 0 0 0 40.76-34.731c12.881-11.701 25.58-23.697 37.431-36.449s22.836-26.414 31.344-41.567c8.907-15.861 14.644-33.097 16.331-51.234.828-8.903.346-17.822-1.204-26.624a79 79 0 0 0-3.028-11.839c-1.386-4.054-3.06-8.165-5.475-11.728-2.77-4.086-6.272-7.833-10.698-10.144-4.844-2.529-10.007-3.518-15.408-3.968-8.022-.667-16.259.205-24.063 2.118-15.799 3.874-30.186 12.507-42.227 23.293-12.281 11.001-21.928 24.792-29.484 39.376-8.013 15.465-13.949 31.934-19.373 48.453a1712 1712 0 0 0-3.779 11.693l15.602 4.301c4.097-19.434 6.467-39.281 6.957-59.138.239-9.668.03-19.347-.628-28.996-.617-9.047-1.483-18.153-3.172-27.07-2.918-15.41-9.597-30.993-23.152-39.865-13.962-9.139-32.189-7.584-46.542-.292-15.289 7.768-25.155 22.525-30.835 38.291-5.501 15.268-7.363 31.951-7.678 48.1-.154 7.941.142 15.887.788 23.802.329 4.027.749 8.046 1.249 12.055q.186 1.49.386 2.978l.255 1.894c.099.725-.067-.501-.069-.518a193 193 0 0 0 .427 3.037c.301 1.993.606 3.985.936 5.973 2.782 16.754 6.803 33.29 11.594 49.578 4.83 16.419 10.729 32.564 17.01 48.478a787 787 0 0 0 4.674 11.569q1.2 2.905 2.421 5.801c.182.432.368.861.546 1.295.198.482.025.081-.013-.013.292.717.601 1.424.917 2.13.436.977.847 1.965 1.273 2.946a971 971 0 0 0 9.8 21.816q2.347 5.06 4.743 10.095c.852 1.79 3.415 2.257 5.023 1.317 1.889-1.105 2.096-3.191 1.317-5.023Z"/></g><path d="M510.313 825.252c-35.42-20.586-67.491-45.761-97.391-73.696-31.17-29.122-59.481-61.132-85.219-95.128-25.753-34.014-48.693-70.246-67.804-108.405-9.212-18.394-16.919-35.576-23.952-54.257-7.765-20.627-14.302-41.784-18.957-63.336-4.869-22.544-7.494-44.79-6.377-68.242.554-11.629 1.849-21.365 4.6-32.785a166 166 0 0 1 4.942-16.669 124 124 0 0 1 2.516-6.544c-.581 1.383.529-1.163.7-1.54q.861-1.897 1.779-3.766a138 138 0 0 1 7.026-12.567 141 141 0 0 1 6.889-9.968c1.03-1.365-1.352 1.664.512-.657 6.022-7.503 12.687-14.447 20.085-20.608a149 149 0 0 1 2.51-2.039c.847-.676.051-.052-.106.069a131 131 0 0 1 7.487-5.323 123 123 0 0 1 12.208-7.08 116 116 0 0 1 6.136-2.876c-1.533.665 1.542-.611 1.892-.746q1.675-.647 3.369-1.238a103.5 103.5 0 0 1 13.336-3.68 97 97 0 0 1 3.503-.649c.535-.089 3.261-.462 1.438-.238a95 95 0 0 1 7.105-.611 91 91 0 0 1 13.906.398c.251.027 2.13.244.99.101-1.04-.13.451.068.54.082 1.206.191 2.41.393 3.609.626a96 96 0 0 1 7.56 1.793 99 99 0 0 1 6.878 2.204c1.054.38 2.095.791 3.142 1.191 1.784.681.781.309.387.142.736.311 1.464.641 2.19.973a116 116 0 0 1 13.098 7.061 131 131 0 0 1 6.041 4.004 137 137 0 0 1 4.31 3.153c-.975-.746.444.354.765.61 7.963 6.354 15.278 13.495 22.067 21.083 7.05 7.878 11.98 14.247 17.825 22.526a399 399 0 0 1 18.025 27.957c11.086 18.862 20.961 39.034 28.61 58.77a390.5 390.5 0 0 1 18.674 63.897c2.135 10.601 3.782 21.235 4.692 32.008.853 10.107 1.653 20.433.946 30.572-.132 1.887-.313 3.686-.451 4.609a65 65 0 0 1-1.405 6.892c-.51 1.945-1.109 3.877-1.858 5.744.356-.889-.523 1.124-.66 1.401a35 35 0 0 1-1.674 3.001c-1.135 1.806-.975 1.628-2.457 3.139-.174.178-2.233 2.02-1.212 1.218-.768.603-1.617 1.125-2.469 1.6-.432.241-.878.475-1.329.683 1.032-.476-.119.04-.298.102-.919.318-1.854.582-2.8.809-.737.177-1.479.312-2.222.456-.891.173.409-.038.488-.047a31 31 0 0 1-1.79.158c-1.329.074-2.625-.018-3.95-.08 2.115.1-.043-.026-.602-.151q-1.011-.225-1.995-.546c-.561-.183-2.371-1.153-.533-.157-.516-.279-1.053-.516-1.564-.805-.586-.331-1.134-.709-1.704-1.067-1.447-.907.808.818-.455-.345-.955-.879-1.894-1.744-2.757-2.716-.3-.338-1.694-2.182-.477-.503-.425-.586-.851-1.17-1.252-1.774a43 43 0 0 1-2.141-3.604 49 49 0 0 1-.911-1.793c-.196-.404-1.169-2.586-.817-1.753.385.911-.505-1.305-.608-1.578a71 71 0 0 1-.716-2 84 84 0 0 1-1.454-4.724 107 107 0 0 1-2.154-9.544c-.282-1.559-.519-3.123-.759-4.689-.217-1.412.118 1.107-.097-.741-.108-.927-.221-1.853-.319-2.781q-.484-4.614-.707-9.248c-.779-15.995.9-32.104 3.625-47.851 7.663-44.271 25.033-86.011 48.741-124.036 10.71-17.179 22.308-34.204 34.714-49.177 6.569-7.929 13.516-15.551 20.931-22.698 7.486-7.217 14.672-13.288 22.376-18.702 8.332-5.855 17.176-10.995 26.462-15.184q.68-.305 1.36-.605c1.519-.673-1.125.45.434-.19a116 116 0 0 1 10.895-3.841c5.082-1.511 10.256-2.645 15.492-3.473q.732-.115 1.464-.225c1.674-.254-1.437.165.242-.031 1.141-.133 2.282-.261 3.426-.366q3.916-.359 7.849-.462a122 122 0 0 1 17.154.767c.267.031 2.298.292 1.079.125-1.108-.152.498.078.588.092.647.102 1.295.201 1.941.309 2.588.434 5.164.946 7.72 1.541a129 129 0 0 1 18.391 5.756q.692.276 1.383.557c-1.545-.628.021.007.281.123 2.431 1.082 4.84 2.203 7.209 3.416a133 133 0 0 1 13.416 7.891c2.105 1.41 4.16 2.889 6.19 4.406-1.452-1.086.755.594 1.165.923q1.556 1.249 3.077 2.541a138 138 0 0 1 9.782 9.166c3.016 3.119 5.827 6.402 8.562 9.767.298.367 1.193 1.593-.127-.178.246.33.499.654.743.985.648.881 1.298 1.759 1.93 2.65a132 132 0 0 1 3.635 5.404 133 133 0 0 1 6.21 10.841 137 137 0 0 1 2.623 5.409c.389.849.762 1.705 1.142 2.558.213.478.745 1.886-.136-.334.246.619.505 1.233.751 1.851 3.015 7.57 5.379 15.393 7.163 23.342a176 176 0 0 1 2.36 12.722c.06.401.105.807.175 1.207.268 1.546-.235-2.007-.058-.447.107.945.236 1.887.343 2.831q.369 3.25.632 6.512c1.389 17.203.598 34.508-1.464 51.624-.135 1.12-.284 2.237-.422 3.356.277-2.238.025-.202-.127.865q-.48 3.355-1.028 6.7a365 365 0 0 1-2.357 12.922 416 416 0 0 1-5.967 25.43c-4.32 16.173-9.53 32.101-15.4 47.776-7.767 20.742-14.82 38.213-23.608 57.506a800 800 0 0 1-27.503 54.74c-19.445 35.254-41.626 68.981-65.826 101.147-24.026 31.935-51.107 62.797-79.199 92.054-14.304 14.898-28.737 29.866-43.763 44.036-5.93 5.592 3.019 14.517 8.937 8.937 16.06-15.146 32.244-30.066 47.772-45.778 15.007-15.186 29.645-30.739 43.794-46.729 27.868-31.493 54.121-64.436 77.48-99.428a802 802 0 0 0 61.745-110.473c16.308-35.5 30.608-72.142 39.684-110.208 8.599-36.067 12.636-73.478 6.935-110.31-5.555-35.887-22.612-69.708-50.632-93.238-34.119-28.652-80.807-41.57-124.323-29.481-42.667 11.853-76.083 44.809-101.945 79.28-26.968 35.946-49.262 76.019-64.059 118.494a329.3 329.3 0 0 0-15.976 69.021c-1.771 14.711-2.534 29.429-1.003 44.187 1.426 13.745 4.049 28.244 11.303 40.244 3.339 5.524 7.896 10.685 13.665 13.742 6.664 3.532 13.934 4.152 21.281 2.863 20.113-3.531 27.864-23.329 29.794-41.438 1.086-10.19.369-20.598-.378-30.787a466 466 0 0 0-3.948-35.311c-6.901-45.832-23.063-90.239-46.368-130.258-11.29-19.388-24.075-38.182-38.98-54.988-14.022-15.81-30.657-30.213-49.92-39.224-19.725-9.227-40.858-12.508-62.39-9.122-19.507 3.067-38.124 11.97-53.719 23.934-16.555 12.701-30.542 28.627-40.591 46.96-11.177 20.39-16.951 43.192-19.192 66.229-4.624 47.536 7.188 95.85 23.537 140.182 14.952 40.543 34.782 79.117 57.993 115.53a723 723 0 0 0 82.621 106.254c30.011 31.955 62.828 61.328 98.544 86.784 16.327 11.636 32.951 22.827 50.317 32.863 5.51 3.184 10.477-5.328 4.982-8.523Zm232.595 17.726c-17.234-42.225-22.106-88.529-22.235-134.135-.048-16.784.57-33.856 5.891-49.775s15.98-30.749 31.313-37.578 35.481-3.821 45.728 9.472c5.736 7.441 7.886 17.006 9.095 26.324 4.269 32.917-1.533 67.072-16.433 96.733 16.797-28.258 40.634-52.296 68.75-69.33 12.361-7.489 26.04-13.766 40.491-14.008s29.756 6.775 35.837 19.887c5.25 11.32 2.761 25.032-3.456 35.852s-15.716 19.311-25.152 27.476c-50.039 43.299-103.499 83.401-163.125 112.098.506-12.858-16.555-83.215-20.192-95.558"/><path d="M746.854 841.89c-5.917-14.864-10.461-30.293-13.445-46.012a325 325 0 0 1-2.646-16.151l-.095-.686c-.114-.801.099.757-.006-.042a393 393 0 0 1-.738-5.927 404 404 0 0 1-2.044-24.092c-.891-16.002-.939-32.062-.502-48.08.113-4.133.304-8.264.633-12.385a166 166 0 0 1 .76-7.435c.029-.231.066-.462.089-.694.002-.023-.208 1.472-.09.684.161-1.072.313-2.145.491-3.215.657-3.969 1.507-7.907 2.603-11.778a90 90 0 0 1 1.794-5.642q.413-1.164.864-2.313.21-.531.424-1.061c.092-.229.376-.897-.071.159-.471 1.113-.095.227.009-.013a74 74 0 0 1 4.544-8.804 68 68 0 0 1 2.715-4.142c.108-.152 1.522-1.903 1.466-1.99-.001-.002-1.021 1.296-.581.758.12-.146.235-.297.354-.444q.474-.59.963-1.166a57.5 57.5 0 0 1 6.913-6.913q.43-.362.87-.715c.146-.118.295-.232.441-.35.597-.483-.897.648-.799.618.698-.218 1.504-1.104 2.127-1.527a53 53 0 0 1 4.16-2.534 46 46 0 0 1 4.356-2.113l-1.845.779a42.4 42.4 0 0 1 10.419-2.805l-2.066.278a44 44 0 0 1 11.499.011l-2.08-.279c3.427.486 6.767 1.378 9.961 2.715l-1.88-.793a35.3 35.3 0 0 1 7.628 4.453l-1.601-1.237a32 32 0 0 1 5.54 5.576l-1.242-1.608c1.851 2.457 3.34 5.128 4.549 7.954l-.805-1.907c2.28 5.475 3.476 11.299 4.28 17.155l-.288-2.14c1.966 14.672 1.912 29.575-.022 44.246l.293-2.18a170.4 170.4 0 0 1-11.719 43.198l.842-1.995a171 171 0 0 1-4.851 10.482c-1.019 2.019-1.46 4.232-.846 6.463.536 1.946 2.04 4.054 3.855 5.013 4.059 2.145 9.064 1.011 11.476-3.009a204 204 0 0 1 13.436-19.671l-1.323 1.713a204.6 204.6 0 0 1 36.544-36.476l-1.745 1.348c10.714-8.244 22.291-15.859 34.755-21.183l-2.083.879c5.83-2.458 11.888-4.331 18.164-5.216l-2.329.313c4.34-.578 8.706-.68 13.052-.121l-2.336-.314a45.4 45.4 0 0 1 11.494 3.129l-2.105-.888c3.068 1.323 5.96 2.986 8.608 5.027l-1.788-1.381a34 34 0 0 1 5.725 5.692l-1.384-1.791a30.7 30.7 0 0 1 3.829 6.479l-.894-2.118a32.3 32.3 0 0 1 2.21 8.211l-.317-2.361c.399 3.255.341 6.52-.089 9.769l.318-2.367c-.567 3.983-1.683 7.844-3.236 11.553l.901-2.136c-1.948 4.545-4.56 8.735-7.565 12.653l1.406-1.82c-6.832 8.801-15.428 16.004-23.862 23.203a1195 1195 0 0 1-26.59 22.065 1008 1008 0 0 1-15.511 12.233l1.883-1.455c-14.428 11.138-29.163 21.897-44.285 32.076-15.035 10.121-30.466 19.662-46.325 28.438a538 538 0 0 1-27.238 14.082l14.247 8.176c.121-3.3-.479-6.668-.921-9.92-.53-3.896-1.197-7.771-1.911-11.637-1.87-10.122-4.047-20.187-6.304-30.229-.669-2.975-1.249-5.997-2.059-8.937-.961-3.491-1.847-7.092-3.325-10.398l.91 2.156c-.811-3.401-2.06-6.743-3.125-10.073q-.713-2.233-1.436-4.462c-.586-1.807-1.057-4.221-2.118-5.769l.777 1.84c-.47-1.844-1.278-3.624-1.967-5.397-.831-2.137-1.652-5.157-3.285-6.675l1.703 2.921-.214-.739c-.976-3.32-4.7-5.738-8.144-4.624-3.365 1.089-5.67 4.585-4.624 8.144l.214.739v-3.52c-.625 2.275.193 5.188.549 7.559.283 1.889.44 3.838.912 5.688l-.275-2.048c-.122 1.209.333 2.664.556 3.896l.388 2.15q.424 2.37.84 4.742c.606 3.462 1.024 7.01 1.839 10.427l-.322-2.4c.13 2.813.901 5.71 1.408 8.485.381 2.087.825 4.148 1.301 6.216q1.478 6.412 2.891 12.838c1.737 7.911 3.41 15.84 4.866 23.808.638 3.491 1.237 6.991 1.711 10.509l-.338-2.518c.317 2.381.654 4.817.569 7.226-.116 3.301 1.888 6.536 4.69 8.176 3.1 1.814 6.441 1.504 9.558 0 14.377-6.939 28.428-14.543 42.148-22.703s26.997-16.789 40.038-25.873c13.659-9.515 26.959-19.524 40.024-29.837 12.499-9.866 24.749-20.045 36.811-30.439 12.041-10.376 24.854-20.932 32.619-35.093 4.171-7.608 6.741-16.119 7.036-24.813.278-8.181-1.842-16.846-6.544-23.616-8.872-12.776-24.044-19.605-39.4-19.888-16.987-.312-33.199 7.095-47.365 15.82-12.906 7.948-25 17.376-35.896 27.909-10.946 10.581-20.732 22.427-29.163 35.101a203 203 0 0 0-5.675 9.048l14.486 8.467c13.243-26.659 19.812-56.583 18.527-86.356-.332-7.693-1.116-15.451-2.575-23.014-1.361-7.056-3.695-14.25-7.764-20.234-3.789-5.571-8.813-10.254-14.849-13.312s-12.466-4.685-19.203-5.103c-6.2-.385-12.72.478-18.59 2.523-6.687 2.33-12.592 5.939-17.96 10.53-9.988 8.544-16.917 20.449-21.083 32.799-4.938 14.638-5.946 30.409-5.962 45.752-.015 14.804.808 29.643 2.198 44.379 2.803 29.719 8.424 59.463 18.691 87.559q1.898 5.19 4.022 10.291c.819 1.969 2.748 3.598 5.034 2.858 1.92-.621 3.706-2.905 2.858-5.034Z"/><path fill="#70e8a0" d="M741.553 792.586c2.301 7.062 5.255 13.94 8.84 20.446 1.73 3.141 3.563 6.289 5.676 9.19a115 115 0 0 0 3.641 4.694c.54.666 1.068 1.365 1.655 1.991 1.016 1.085 2.248 1.522 3.589 2.062 2.841 1.142 5.122-2.11 4.59-4.59-.287-1.336-.651-2.419-1.513-3.529-.636-.818.218.302-.349-.451q-.39-.516-.777-1.034c-1.03-1.387-1.997-2.814-2.987-4.229-1.988-2.842-3.947-5.682-5.725-8.663s-3.403-6.02-4.89-9.141c-1.588-3.332-2.46-5.439-3.74-8.954-.741-2.036-2.855-3.63-5.108-2.9-2.06.667-3.621 2.897-2.9 5.108Zm1.888-40.178c10.15 17.801 20.087 35.746 30.63 53.317 3.082 5.137 5.914 10.482 9.958 14.945 2.389 2.638 7.402-.116 6.136-3.572-1.853-5.058-4.742-9.487-7.526-14.065-2.642-4.345-5.269-8.695-8.007-12.98l-16.566-25.927-9.428-14.755c-2.078-3.251-7.127-.348-5.197 3.038Zm43.165 23.902 5.557 10.126c.895 1.63 3.276 2.294 4.858 1.274 1.638-1.056 2.249-3.125 1.274-4.858l-5.661-10.066c-.896-1.593-3.21-2.262-4.776-1.252-1.624 1.047-2.193 3.062-1.252 4.776"/><g fill="#70e8a0"><path d="M330.621 949.357c-38.748-.124-192.734-7.461-263.099-58.252-12.085-8.724-23.675-18.555-31.871-31.004s-12.73-27.873-9.716-42.47c3.917-18.972 20.255-33.786 38.707-39.684s38.62-3.986 57.278 1.224c31.244 8.724 59.357 26.265 84.902 46.259-21.476-21.76-43.195-43.835-58.473-70.317s-23.647-58.308-16.279-87.98 33.112-55.708 63.647-57.225c21.852-1.085 43.034 10.139 57.957 26.14s24.322 36.365 31.528 57.024c28.619 82.052 25.826 171.623 45.419 256.285"/><path d="M330.621 943.94c-9.423-.078-18.81-.588-28.207-1.281a911 911 0 0 1-50.931-5.214l-1.416-.186-.812-.108a989 989 0 0 1-11.869-1.693c-1.577-.236-3.149-.518-4.732-.709-1.326-.161 1.942.285.113.013l-1.694-.247a757 757 0 0 1-19.36-3.092c-17.735-3.068-35.37-6.799-52.793-11.318-16.849-4.371-33.464-9.646-49.552-16.31-1.321-.547 2.192.938.396.167l-1.33-.571q-1.51-.653-3.011-1.326a235 235 0 0 1-5.532-2.564 208 208 0 0 1-10.578-5.436 168.5 168.5 0 0 1-19.971-12.948q-.813-.615-1.623-1.234c-.964-.733 1.43 1.121.48.37l-.687-.539a182 182 0 0 1-3.623-2.928c-2.237-1.859-4.426-3.776-6.546-5.767s-4.17-4.035-6.139-6.162a98 98 0 0 1-4.168-4.81c-.239-.296-.466-.626-.721-.905.287.312 1.135 1.502.399.513-3.505-4.707-6.173-9.644-8.756-14.888 1.232 2.5.088.165-.143-.444a61 61 0 0 1-1.946-6.018 57 57 0 0 1-.953-4.188c-.123-.655-.225-1.313-.335-1.971-.108-.641-.003-1.632.104.784-.017-.377-.086-.757-.122-1.133a49 49 0 0 1-.095-8.518c.058-.744.091-1.532.232-2.266.017-.088-.341 2.109-.13 1.068.076-.373.125-.752.195-1.127a43.6 43.6 0 0 1 2.001-7.236c.197-.531.371-1.092.626-1.598-.031.062-.992 2.229-.357.879.139-.295.272-.594.412-.889a49 49 0 0 1 3.658-6.372q.552-.815 1.133-1.607l.442-.592c.68-.924-1.285 1.604-.551.721.79-.951 1.575-1.901 2.412-2.813a58 58 0 0 1 5.573-5.311c.442-.369.876-.785 1.356-1.101-.073.048-1.902 1.428-.699.546l.603-.446a63 63 0 0 1 9.871-5.904 62 62 0 0 1 1.588-.737c.262-.117.651-.356.916-.401.141-.024-2.02.819-1.076.46 1.243-.473 2.476-.959 3.739-1.379a72 72 0 0 1 8.843-2.32q1.066-.21 2.137-.391c.442-.074 2.695-.39 1.214-.205-1.585.198.851-.094 1.225-.134q1.39-.146 2.784-.248a93 93 0 0 1 9.338-.197c3.13.088 6.255.323 9.365.685q.468.055.935.112c1.821.216-.603-.1-.612-.085.09-.146 1.87.278 2.175.327q2.484.395 4.95.888c6.011 1.198 11.936 2.807 17.761 4.706q4.218 1.377 8.366 2.957a192 192 0 0 1 4.126 1.626c.337.138 2.508 1.045 1.07.436-1.253-.531-.278-.118-.025-.008l1.357.588a220 220 0 0 1 15.961 7.785c10.475 5.631 20.52 12.039 30.208 18.929a365 365 0 0 1 6.971 5.085q1.667 1.245 3.321 2.508c.454.346 2.617 2.049.466.351.621.49 1.25.971 1.873 1.459 2.036 1.592 3.9 2.733 6.599 2.733 2.289 0 5.023-1.017 6.599-2.733 3.439-3.746 3.664-9.483 0-13.197-12.307-12.475-24.626-24.978-35.855-38.449a290 290 0 0 1-4.188-5.138c-.625-.785-1.243-1.576-1.862-2.365-1.317-1.681 1.276 1.689-.009-.015-.362-.48-.729-.958-1.09-1.439a224 224 0 0 1-7.647-10.797c-4.707-7.094-8.976-14.482-12.588-22.195a155 155 0 0 1-1.461-3.216q-.237-.54-.47-1.08c-.844-1.935.817 2.022.028.064a176 176 0 0 1-2.337-6.041 136 136 0 0 1-3.816-12.344 122 122 0 0 1-2.551-12.591c-.057-.384-.105-.769-.164-1.153.44 2.86.112.787.041.181q-.168-1.443-.299-2.889-.3-3.32-.393-6.654c-.115-4.145.02-8.296.423-12.423.093-.952.293-1.922.326-2.876-.097 2.757-.117.891-.009.195q.133-.86.282-1.718a89 89 0 0 1 1.321-6.266 77 77 0 0 1 3.301-10.18c.121-.301.256-.6.37-.904-1.034 2.759-.444 1.056-.172.443q.497-1.117 1.028-2.218a81 81 0 0 1 2.617-4.982c1.739-3.051 3.683-5.969 5.781-8.783 1.111-1.49-1.441 1.795-.27.352.256-.316.508-.635.766-.95a78.5 78.5 0 0 1 8.93-9.268 75 75 0 0 1 2.214-1.872q.376-.303.753-.604c1.265-1.014-1.974 1.472.015.003a69.6 69.6 0 0 1 8.701-5.498c1.475-.784 2.982-1.493 4.504-2.178 1.609-.724-1.852.747-.706.3.369-.144.736-.295 1.106-.437a62 62 0 0 1 2.687-.961c3.354-1.114 6.744-1.759 10.205-2.414-3.301.624-.463.075.372-.003q1.341-.124 2.686-.183a59 59 0 0 1 8.958.276c.707.075 2.492.524-.348-.07.348.073.721.105 1.071.16 2.05.324 4.084.75 6.094 1.267a70 70 0 0 1 8.011 2.584c.503.195 1.005.444 1.518.609-2.573-.831-.87-.365-.246-.085a81 81 0 0 1 10.596 5.75 87 87 0 0 1 4.76 3.284c.366.271.72.581 1.102.828-2.27-1.467-.695-.533-.178-.118q1.289 1.035 2.538 2.118a94 94 0 0 1 8.477 8.365 108 108 0 0 1 3.922 4.647c.486.61 1.105 2.059-.061-.097.167.31.494.651.697.922q1.039 1.39 2.037 2.807c2.444 3.472 4.702 7.072 6.802 10.762s4.055 7.502 5.867 11.361a198 198 0 0 1 2.398 5.314c.232.534.442 1.082.69 1.608-1.101-2.337-.424-1-.175-.398q.723 1.752 1.418 3.516c13.184 33.447 20.292 69.09 25.494 104.548a1122 1122 0 0 1 1.829 13.037l-.348-2.589c3.035 22.629 5.468 45.332 8.263 67.99.877 7.113 1.802 14.221 2.765 21.323l-.352-2.623c2.929 22.009 6.64 43.931 11.634 65.57 1.148 4.974 7.129 8.384 11.993 6.81 5.2-1.683 8.039-6.664 6.81-11.993-5.222-22.631-8.723-45.608-11.819-68.612l.352 2.621c-2.856-21.296-5.229-42.651-7.921-63.967-2.763-21.879-5.802-43.743-10.049-65.39-4.119-20.998-9.382-41.807-16.537-61.987-7.067-19.93-16.038-39.173-29.647-55.519-12.696-15.249-30.43-27.471-50.007-31.694-18.85-4.065-38.385-.523-54.477 10.172-15.619 10.381-27.199 25.56-33.942 42.979-7.409 19.138-7.322 40.743-3.041 60.582 4.41 20.432 13.756 39.694 25.546 56.855 12.029 17.508 26.37 33.251 41.155 48.444 3.513 3.61 7.05 7.194 10.589 10.778l13.197-13.197c-19.652-15.354-40.421-29.458-63.394-39.384-24.68-10.663-51.887-17.734-78.815-12.758-23.231 4.293-44.512 19.925-52.602 42.53-4.257 11.893-3.65 25.45.255 37.348 4.104 12.504 11.457 23.512 20.541 32.954 8.032 8.35 17.482 15.574 27.112 21.983 6.557 4.363 13.459 8.196 20.538 11.64 16.134 7.851 33.12 13.928 50.35 18.877 17.759 5.101 35.813 8.998 54.026 12.078 18.087 3.06 36.289 5.458 54.561 7.072a906 906 0 0 0 46.016 2.881c11.049.412 22.106.564 33.161.692q2.727.032 5.454.03c2.833-.004 5.548-2.489 5.417-5.417-.132-2.955-2.38-5.391-5.417-5.417Z"/></g><path fill="#d85bd2" d="M192.69 850.532a284 284 0 0 1 12.228-17.144 282 282 0 0 1 11.514-13.845 283 283 0 0 1 28.174-27.609c2.839-2.417 5.773-4.71 8.652-7.077 1.431-1.177 2.804-2.428 4.22-3.623.967-.817 1.817-1.569 2.5-2.686.637-1.042 1.009-2.207 1.393-3.364.943-2.841-1.595-6.175-4.585-6.018-2.464.129-4.51.5-6.545 1.99a267 267 0 0 0-4.108 3.067c-2.935 2.236-5.669 4.725-8.393 7.211a282 282 0 0 0-14.391 14.111c-9.367 9.865-18.02 20.415-25.921 31.488A282 282 0 0 0 185 846.037c-1.197 2.001-.514 4.978 1.598 6.093 2.231 1.179 4.722.483 6.093-1.598Zm20.601 39.716c16.741-19.744 35.083-38.199 54.93-54.824a434 434 0 0 1 12.608-10.166c1.182-.92-.826.63.36-.278l1.246-.955c1.321-1.008 2.33-1.873 3.188-3.315 2.171-3.651-1.432-8.485-5.573-7.25-2.229.665-3.821 2.106-5.581 3.544a432 432 0 0 0-11.301 9.566 432 432 0 0 0-14.389 13.201c-9.443 9.065-18.591 18.523-27.081 28.49a456 456 0 0 0-14.172 17.538c-1.101 1.43-.362 3.759.946 4.736 1.361 1.017 3.62 1.129 4.82-.287Zm47.215 16.993a69.4 69.4 0 0 1 10.875-10.759c.471-.372.424-.391-.007.002.214-.196.472-.356.704-.529.897-.665 1.821-1.289 2.725-1.944 1.163-.842 2.506-1.593 3.511-2.615.796-.809 1.548-1.659 2.351-2.462 1.109-1.108 1.45-3.09.574-4.449-.918-1.424-2.493-2.048-4.146-1.687-1.108.242-2.23.477-3.316.804-1.392.419-2.657 1.242-3.879 2.019-2.222 1.413-4.307 3.101-6.321 4.793a69.4 69.4 0 0 0-9.795 10.104c-.814 1.029-1.393 1.994-1.393 3.362 0 1.166.518 2.559 1.393 3.362 1.735 1.593 5.051 2.063 6.724 0Zm28.948 22.33c2.833 0 5.548-2.491 5.417-5.417s-2.38-5.417-5.417-5.417c-2.833 0-5.548 2.491-5.417 5.417s2.38 5.417 5.417 5.417"/><path fill="#70e8a0" d="m275.874 324.716.12-2.244a3.5 3.5 0 0 0-.399-1.785 3.47 3.47 0 0 0-.958-1.491 3.5 3.5 0 0 0-1.491-.958 3.5 3.5 0 0 0-1.785-.399l-1.232.166a4.6 4.6 0 0 0-2.045 1.192l-.725.938a4.6 4.6 0 0 0-.633 2.339l.12 2.244a3.4 3.4 0 0 0 .389 1.739q.273.84.933 1.453.613.66 1.453.933a3.4 3.4 0 0 0 1.739.389l1.2-.161a4.5 4.5 0 0 0 1.992-1.161l.706-.914a4.5 4.5 0 0 0 .616-2.278Zm20.164-27.347 2.873-.523c.549-.1 1.08-.251 1.573-.531.214-.122.417-.27.623-.406l1.152-.761c.481-.318.936-.728 1.231-1.231l.346-.819a2.6 2.6 0 0 0 .061-1.368 1.7 1.7 0 0 0-.234-.866 1.7 1.7 0 0 0-.441-.757c-.426-.551-1.074-1.094-1.782-1.229l-1.283-.245c-.231-.044-.461-.089-.692-.127a3.23 3.23 0 0 0-1.704-.076 4 4 0 0 0-.677.1q-.192.04-.383.084l-2.901.632a3.2 3.2 0 0 0-1.433.754q-.688.445-1.085 1.182a3.13 3.13 0 0 0-.5 1.566q-.187.84.075 1.68c.33 1.019.962 2.003 1.936 2.518l1.006.425a4.24 4.24 0 0 0 2.24 0Zm8.976 45.842c2.046 0 4.007-1.799 3.912-3.912s-1.719-3.912-3.912-3.912c-2.046 0-4.007 1.799-3.912 3.912s1.719 3.912 3.912 3.912m40.384-18.589c2.298 0 4.5-2.021 4.393-4.393s-1.93-4.393-4.393-4.393c-2.298 0-4.5 2.021-4.393 4.393s1.93 4.393 4.393 4.393m1.121 61.758c2.33 0 4.561-2.048 4.454-4.454s-1.957-4.454-4.454-4.454c-2.33 0-4.561 2.048-4.454 4.454s1.957 4.454 4.454 4.454m199.417-50.9c6.432-9.129 12.507-17.331 19.707-25.703 7.113-8.271 14.821-16.07 23.343-22.896q.74-.59 1.485-1.173c.649-.511-.905.679.174-.132l.669-.506a132 132 0 0 1 3.224-2.348 126 126 0 0 1 6.487-4.285c4.411-2.72 8.999-5.127 13.715-7.275q.762-.347 1.529-.682c.028-.012 1.293-.552.519-.226s.494-.201.523-.213a100 100 0 0 1 3.506-1.353c2.482-.904 5-1.708 7.549-2.4a88 88 0 0 1 7.32-1.663c1.232-.225 2.472-.447 3.716-.594-1.478.175.598-.061.937-.097q1.311-.141 2.627-.243c6.537-.503 13.118-.266 19.627.486q.478.056.955.114c.427.053 1.44.169.439.052.875.102 1.746.258 2.618.384 1.672.242 3.342.485 5.007.769 1.892.323 3.791.543 5.696.774l1.176.147c.333.043 1.059.142.34.043q1.44.199 2.876.416c2.387.36 5.099-.598 5.701-3.237.588-2.581-.781-4.851-3.237-5.701-2.86-.989-5.761-2.077-8.715-2.746-3.299-.748-6.64-1.275-9.993-1.707-6.026-.777-12.109-1.153-18.185-.928-11.276.417-22.378 2.886-32.79 7.217-20.708 8.614-37.993 23.528-52.309 40.567-8.313 9.895-15.773 20.471-22.889 31.248-1.147 1.737-.344 4.261 1.382 5.27 1.926 1.127 4.068.324 5.27-1.382Zm47.022 10.248c3.901-3.638 7.805-7.276 11.835-10.771a180 180 0 0 1 6.767-5.6c.699-.55.324-.254.169-.134q.799-.614 1.608-1.215a116 116 0 0 1 3.274-2.35c4.313-2.982 8.845-5.656 13.627-7.816q.401-.18.802-.356c.865-.384.233-.102.05-.027a68 68 0 0 1 5.538-2.03 61 61 0 0 1 7.39-1.858c.693-.127 1.438-.328 2.143-.352-1.062.036-.335.042-.082.014.429-.048.858-.097 1.288-.138 1.432-.136 2.872-.214 4.307-.313 1.367-.094 2.735-.057 4.101-.119 1.703-.077 3.424-.595 5.118-.824 1.473-.199 2.582-1.884 2.759-3.202.188-1.401-.46-3.197-1.839-3.838-1.342-.623-2.708-1.247-4.106-1.733-1.532-.532-3.333-.536-4.954-.599-2.995-.118-5.949.256-8.899.764-5.521.951-10.808 2.793-15.912 5.073-10.114 4.517-19.02 11.403-27.181 18.807-4.614 4.186-9.019 8.593-13.42 12.999-1.47 1.472-1.582 4.166 0 5.617 1.631 1.497 3.992 1.515 5.617 0Zm36.249 23.426c2.707 0 5.301-2.381 5.176-5.176s-2.274-5.176-5.176-5.176c-2.707 0-5.301 2.381-5.176 5.176s2.274 5.176 5.176 5.176m145.362-201.809c7.974-3.398 16.181-6.273 24.508-8.672 4.167-1.201 8.373-2.283 12.565-3.392 2.093-.554 4.227-.992 6.304-1.598 2.356-.686 4.533-1.655 6.778-2.632 1.152-.501 1.637-2.138 1.328-3.262-.347-1.262-1.511-2.062-2.786-2.121-2.34-.108-4.513-.074-6.837.226-2.351.304-4.677.881-6.987 1.409-4.393 1.003-8.683 2.297-12.955 3.728a229 229 0 0 0-25.443 10.286c-1.703.809-2.146 3.248-1.252 4.776 1.05 1.795 3.034 1.994 4.776 1.252Zm15.463 36.603c4.65-2.749 9.533-5.047 14.647-6.794a82.4 82.4 0 0 1 11.755-3.07c1.484-.272 2.772-.834 4.176-1.381 2.769-1.079 2.267-4.763-.688-5.083-1.658-.18-3.157-.295-4.812.006a82.4 82.4 0 0 0-12.386 3.268 87.5 87.5 0 0 0-15.973 7.441c-3.589 2.141-.332 7.749 3.281 5.612Zm16.626 26.264 6.307-3.369c2.292-1.224 4.283-3.092 6.317-4.71.608-.484.912-1.382 1.01-2.108.105-.783.005-1.657-.436-2.341-.86-1.334-2.556-2.193-4.146-1.687-2.535.806-5.129 1.482-7.483 2.74l-6.307 3.369c-2.169 1.159-3.022 4.348-1.684 6.423 1.421 2.204 4.103 2.923 6.423 1.684Zm97.384-76.28c2.204 0 4.315-1.938 4.213-4.213s-1.851-4.213-4.213-4.213c-2.204 0-4.315 1.938-4.213 4.213s1.851 4.213 4.213 4.213m27.057-23.205 1.122 4.487q.21.88.808 1.535.477.737 1.266 1.163.777.495 1.678.536.9.201 1.8-.081l1.078-.455a4.53 4.53 0 0 0 1.619-1.619l.455-1.078q.323-1.2 0-2.4l-1.122-4.487a3.4 3.4 0 0 0-.808-1.535 3.4 3.4 0 0 0-1.266-1.163 3.37 3.37 0 0 0-1.678-.536q-.9-.201-1.8.081l-1.078.455a4.53 4.53 0 0 0-1.619 1.619l-.455 1.078q-.323 1.2 0 2.4m-4.622 47.304c2.487 0 4.87-2.187 4.754-4.754s-2.089-4.754-4.754-4.754c-2.487 0-4.87 2.187-4.754 4.754s2.089 4.754 4.754 4.754m23.557 6.911c2.581 0 5.054-2.27 4.935-4.935s-2.168-4.935-4.935-4.935c-2.581 0-5.054 2.27-4.935 4.935s2.168 4.935 4.935 4.935"/></svg>