<?xml version="1.0" encoding="UTF-8"?><svg xmlns="http://www.w3.org/2000/svg" data-name="ARTWORK" viewBox="0 0 1000 1000"><path fill="#f5834a" d="M281.024 313.528a907.7 907.7 0 0 0-161.103 110.184c-25.19 21.551-49.757 45.241-63.828 75.257-16.629 35.472-16.961 76.85-8.514 115.104s25.109 74.121 41.649 109.634l100.506 215.79c4.942 10.611 10.315 21.741 19.999 28.316 10.754 7.301 24.671 7.541 37.658 7.012 121.694-4.951 236.703-53.944 348.537-102.185 62.511-26.965 126.118-54.608 177.507-99.26 11.91-10.349 23.382-21.996 29.207-36.66 6.015-15.143 5.435-32.027 3.97-48.255-6.879-76.221-31.096-149.663-55.144-222.318-10.185-30.772-20.372-61.548-31.362-92.041-11.361-31.523-25.697-65.243-55.111-81.292-15.309-8.354-33.051-10.864-50.4-12.643-124.24-12.739-251.519 5.281-367.34 52.007"/><path fill="#ff8345" d="M278.746 309.63c-34.55 18.102-68.392 37.6-100.525 59.739-16.403 11.301-32.414 23.16-48.062 35.484-14.474 11.4-28.796 23.074-41.955 35.99-13.214 12.97-25.438 27.297-34.789 43.334-9.385 16.095-15.643 33.976-18.607 52.356-6.286 38.982.581 78.477 13.337 115.479 13.571 39.366 32.543 76.833 50.066 114.533l54.325 116.881a83625 83625 0 0 0 27.185 58.427c3.574 7.673 7.073 15.437 12.174 22.245 6.085 8.122 13.582 14.043 23.18 17.514 8.654 3.129 18.283 3.636 27.409 3.477 9.572-.168 19.157-.843 28.692-1.673 20.142-1.753 40.207-4.598 60.071-8.359 78.887-14.934 154.034-44.447 227.691-75.646 35.475-15.026 71.083-29.952 105.891-46.48 33.857-16.076 66.976-34.171 96.817-56.982 15.052-11.506 30.05-23.632 41.316-39.022 11.872-16.218 15.435-35.767 14.723-55.522-.74-20.528-3.805-41.146-7.332-61.357-3.553-20.357-8.118-40.528-13.334-60.521-10.349-39.675-23.24-78.622-36.106-117.534-6.575-19.885-13.154-39.77-19.956-59.579-6.326-18.424-12.562-36.941-20.18-54.881-6.434-15.153-14.2-29.59-24.804-42.262-11.628-13.896-26.917-23.8-44.238-29.053-18.625-5.648-38.717-6.84-58.029-8.292a766 766 0 0 0-60.056-2.145c-79.619.271-159.405 12.7-235.284 36.83-18.23 5.797-36.138 12.385-53.881 19.525-5.214 2.098-8.885 6.946-7.273 12.81 1.361 4.951 7.562 9.385 12.81 7.273 71.271-28.677 147.05-46.742 223.587-53.011 38.546-3.157 77.328-3.446 115.914-.794 18.202 1.251 36.589 2.236 54.13 7.063 8.208 2.259 15.743 5.538 22.778 10.386.609.419 1.208.852 1.807 1.284 2.821 2.035-1.255-1.153 1.393 1.091 1.402 1.188 2.796 2.379 4.136 3.638a93 93 0 0 1 7.922 8.458c8.302 10.004 16.582 26.254 21.534 38.351 6.984 17.062 12.847 34.607 18.829 52.038 13.205 38.481 26.121 77.106 38.287 115.928 11.94 38.104 22.714 76.663 29.791 115.996 3.367 18.711 6.135 37.7 7.057 56.706.865 17.834-1.587 34.152-12.526 48.235-10.245 13.19-24.528 24.372-38.031 34.369-14.512 10.745-29.773 20.45-45.46 29.381-31.982 18.208-65.649 33.209-99.382 47.827-70.896 30.723-142.159 61.661-216.737 82.45-36.349 10.133-73.481 17.85-111.088 21.322-9.648.891-19.332 1.566-29.018 1.862-8.546.261-16.188.232-23.93-2.489-6.158-2.165-11.078-7.101-14.642-12.743-4.662-7.38-8.073-15.529-11.749-23.422-35.21-75.597-71.04-150.926-105.749-226.754-29.278-63.962-56.896-143.114-17.654-209.21 18.092-30.472 46.471-54.246 73.313-76.765 29.072-24.391 59.757-46.916 91.55-67.628 15.404-10.035 31.11-19.5 47.217-28.362 5.107-2.81.58-10.488-4.557-7.797Z"/><path fill="#55bfbf" d="M363.862 659.703a112 112 0 0 0-1.688 1.565c-.893.853.067.005.083-.037-.099.261-1.027.716-1.234.866-.808.588-1.593 1.171-2.266 1.908a126 126 0 0 0-4.18 4.828c-3.102 3.766-5.843 7.728-8.452 11.846-4.926 7.773-9.405 15.793-13.927 23.804-9.476 16.788-19.064 33.518-28.428 50.368-9.366 16.854-18.656 33.752-27.983 50.628l-27.983 50.628c-9.329 16.878-18.552 33.813-27.804 50.733-1.145 2.093-2.233 4.173-3.21 6.35s-1.526 4.241-.868 6.633c.55 1.997 2.094 4.161 3.956 5.144 4.324 2.285 9.112.924 11.777-3.088 2.667-4.014 4.886-8.311 7.228-12.521l7.03-12.637c4.686-8.425 9.39-16.841 14.038-25.287l27.767-50.461 27.89-50.683c9.258-16.823 18.275-33.781 27.381-50.686 4.468-8.295 8.992-16.561 13.303-24.939a441 441 0 0 1 12.731-23.027c.69-1.165 1.077-2.467 1.617-3.703.304-.694-.526.735-.001.149.138-.154.247-.406.358-.583.323-.514.66-1.02.995-1.526 1.426-2.153.598-5.186-1.333-6.678-2.088-1.613-4.869-1.35-6.797.405Zm156.197-46.25c1.95.904 3.962 1.728 5.817 2.815l5.773 3.382c3.713 2.175 7.616 3.997 11.471 5.909 7.81 3.873 15.813 7.332 23.771 10.891 15.934 7.127 31.877 14.224 47.863 21.234 15.996 7.014 31.977 14.061 48.023 20.96l48.168 20.712 48.168 20.712c2.56 1.101 5.118 2.19 7.73 3.161 1.998.743 5.196.225 6.958-.91 1.677-1.081 2.915-2.472 3.694-4.318 1.62-3.839.373-9.334-3.694-11.275-8.426-4.022-17.238-7.346-25.855-10.941l-24.195-10.093-48.39-20.186c-16.122-6.725-32.285-13.344-48.454-19.954s-32.332-13.163-48.538-19.649c-8.099-3.241-16.207-6.459-24.297-9.724-3.981-1.607-8.118-2.902-12.164-4.338-4.134-1.467-8.354-2.585-12.581-3.76-2.071-.576-4.063-1.448-6.068-2.219-1.927-.741-4.166.666-4.9 2.405-.739 1.75-.18 4.315 1.699 5.187Z"/><path d="M254.205 599.364c-35.031-9.685-103.301-39.02-136.913-52.848-4.495-1.849-9.205-3.913-12.051-7.853-4.792-6.635-2.599-15.821-.105-23.616a879.5 879.5 0 0 1 93.679-200.979c19.927-31.592 44.087-69.637 79.504-86.81 38.936-18.873 80.367 6.563 112.889 26.777 40.41 25.116 81.049 49.85 121.67 74.632 20.297 12.383 40.493 24.932 60.689 37.48l71.716 44.561c5.204 3.234 11.094 7.771 10.487 13.868-.317 3.176-2.407 5.855-4.419 8.332a2081 2081 0 0 1-187.819 202.219c-4.75 4.477-9.675 9.032-15.746 11.431-12.698 5.017-26.884-.455-39.417-5.871"/><path d="M255.245 595.591c-14.194-4.476-27.981-10.141-41.627-16.053a7820 7820 0 0 1-48.931-21.386 2266 2266 0 0 0-43.232-18.552c-2.027-.845-1.971-.76-4.065-1.774-1.035-.502-2.06-1.035-3.036-1.645-.464-.289-.988-.601-1.418-.95.87.707-.92-.999-.897-.974.195.213.667 1.174-.277-.378-.284-.467-.573-.945-.794-1.444.509 1.146-.355-1.625-.411-1.922.254 1.359-.023-1.133-.024-1.538q0-.844.054-1.687c.025-.39.202-1.924.044-.826.74-5.127 2.6-10.097 4.206-14.997a872 872 0 0 1 5.32-15.724c14.564-41.741 32.135-81.879 52.921-120.993 10.416-19.6 21.589-38.785 33.438-57.553 4.828-7.647 9.688-15.275 14.769-22.758 5.408-7.966 10.691-15.266 16.229-22.013 5.942-7.239 12.314-14.146 19.278-20.417a142 142 0 0 1 5.106-4.385c.433-.354.871-.701 1.305-1.054.128-.104 1.231-.971.293-.244.99-.767 2.001-1.508 3.018-2.239 3.714-2.669 7.58-5.132 11.597-7.32a47 47 0 0 1 2.97-1.497c1.493-.681.729-.3.395-.167a68 68 0 0 1 1.788-.689c2.647-.975 5.352-1.695 8.067-2.441 2.209-.607 4.453-.954 6.684-1.445 1.496-.329-1.289.122.224-.048.593-.067 1.186-.135 1.78-.19a69 69 0 0 1 4.007-.257 73 73 0 0 1 7.122.107c1.188.075 2.371.192 3.557.306 1.899.182.543.05.139-.006a77 77 0 0 1 2.65.418c4.908.849 9.74 2.116 14.47 3.671 2.332.767 4.64 1.605 6.925 2.503.574.226 1.142.47 1.72.688 1.488.563-1.256-.556.203.077 1.278.554 2.552 1.115 3.817 1.696 4.666 2.144 9.19 4.543 13.714 6.966 8.955 4.795 17.609 10.127 26.223 15.501a11531 11531 0 0 0 60.757 37.636c40.979 25.214 81.997 50.356 122.865 75.75l61.471 38.195 7.451 4.63c1.15.714 2.307 1.418 3.448 2.147q.664.423 1.316.863c.256.174 2.113 1.499.866.574-1.154-.856.205.189.474.426q.594.519 1.154 1.077c.365.366.695.763 1.051 1.135 1.016 1.061-1.377-1.293-.336-.341.516.472.409 1.704.274.351l-.264-.606q.333 1.386.119-.012l-.078-.702q-.032 1.411.126.126.252-1.336-.104.219l.452-.948c-.506 1.066-1.195 1.988-1.833 2.973 1.09-1.682.352-.456.04-.078-.439.532-.87 1.071-1.305 1.605a2107 2107 0 0 1-16.778 20.353A2080 2080 0 0 1 461.633 622.26c-3.908 3.712-7.754 7.525-11.915 10.956-1.58 1.303-.399.28-.059.045-.51.352-1.008.72-1.526 1.062-1.036.683-2.113 1.269-3.19 1.881-1.696.963-.437.259.011.079-.597.239-1.21.453-1.822.652-1.368.444-2.749.725-4.15 1.028-1.575.34 1.607.019-.004-.033-.624-.02-1.265.078-1.892.091a38 38 0 0 1-3.808-.121c-.293-.024-2.288-.262-1.008-.083 1.29.18-.729-.142-1.016-.195-1.29-.24-2.57-.528-3.841-.852-2.575-.657-5.108-1.465-7.61-2.356a141 141 0 0 1-3.736-1.395q-.924-.36-1.844-.728c-.382-.153-2.348-.96-.779-.285-4.816-2.074-11.008-1.592-13.754 3.606-2.287 4.328-1.55 11.533 3.606 13.754 11.322 4.877 23.027 10.233 35.682 9.644 6.806-.316 13.333-2.162 19.132-5.785 5.023-3.138 9.418-7.226 13.709-11.275a2080 2080 0 0 0 181.836-195.096c3.707-4.527 8.272-9.04 10.698-14.408 2.985-6.606 2.719-14.007-1.488-20.076-3.499-5.048-8.448-8.529-13.601-11.731l-32.132-19.966c-42.182-26.21-84.421-52.305-126.87-78.08-21.42-13.006-42.83-26.027-64.194-39.125a11202 11202 0 0 1-31.535-19.42c-8.901-5.498-17.838-11.04-27.154-15.815-19.25-9.865-40.914-18.079-62.906-16.854-5.748.32-11.557 1.193-17.097 2.778a40 40 0 0 0-4.823 1.725c.377-.161 1.283-.54-.427.19-.992.423-1.995.828-2.979 1.271-2.509 1.128-4.886 2.458-7.284 3.797-8.81 4.915-16.998 10.516-24.623 17.151-15.003 13.055-27.302 29.044-38.479 45.402-11.734 17.173-22.711 34.942-33.168 52.916-23.376 40.179-43.501 82.223-60.343 125.545a879 879 0 0 0-11.933 32.589c-3.558 10.346-8.12 21.115-8.955 32.122-.447 5.891.95 11.951 4.525 16.703 3.518 4.676 8.42 7.407 13.714 9.642 6.902 2.914 13.86 5.7 20.786 8.557a1132 1132 0 0 0 99.837 35.817c6.598 2.022 13.234 3.936 19.943 5.555 4.906 1.183 6.883-6.031 2.08-7.546Z"/><g fill="#8170f9"><path d="m181.803 570.044-43.549-94.204c-5.689-12.306-11.424-24.748-14.158-38.028-.667-3.239-1.051-6.944.99-9.546 1.603-2.044 4.284-2.845 6.789-3.533l283.876-77.949c50.728-13.929 78.047-17.387 128.775-31.317 7.589-2.084 15.962-4.112 23.071-.738 6.592 3.128 10.328 10.083 13.622 16.594 15.417 30.468 36.185 73.926 51.602 104.394 1.809 3.576 3.668 7.39 3.329 11.383-.35 4.124-2.975 7.651-5.499 10.931L468.694 668.456c-1.969 2.559-4.102 5.24-7.135 6.347-3.211 1.172-6.769.34-10.069-.551-99.636-26.913-167.145-92.523-269.688-104.209"/><path d="M184.88 569.196c-.809-2.901-1.625-5.8-2.427-8.702-.396-1.434-.553-2.869-1.147-4.236-.746-1.716-1.497-3.427-2.227-5.15l-7.169-16.926a2006 2006 0 0 0-14.847-34.141c-4.919-11.039-9.883-22.06-14.749-33.123-4.434-10.082-8.486-20.584-10.63-31.594-.25-1.286.063 1.123-.041-.197a31 31 0 0 1-.073-1.941c-.023-1.279-.059-.148.009-.112-.494-.268 1.212-1.34.045-.115-.241.253-.504.52-.744.777l.666-.385q-.96.345-.144.057c1.334-.497 2.758-.808 4.13-1.179l18.254-4.938 35.522-9.608 71.537-19.35c47.856-12.944 95.69-25.965 143.521-39 21.043-5.735 42.117-11.217 63.399-16.004 19.078-4.292 38.203-8.363 57.176-13.109a1027 1027 0 0 0 16.269-4.212c2.783-.745 5.556-1.533 8.346-2.251a88 88 0 0 1 3.47-.829 58 58 0 0 1 1.75-.35c.234-.043 2.931-.27 1.029-.172 1.309-.067 2.592-.187 3.908-.145.266.008 2.067.122.895.008-1.362-.133 1.307.293 1.277.286.555.142 1.088.333 1.636.499-1.359-.413-.308-.145.045.062.415.244.855.527 1.284.753 1.759.924-.839-.959.464.329.788.779 1.539 1.623 2.334 2.39 1.028.993-1.172-1.772.167.186.287.419.583.829.863 1.252 1.342 2.025 2.505 4.163 3.619 6.319 9.064 17.544 17.579 35.386 26.248 53.128 4.517 9.245 8.943 18.539 13.738 27.644 4.45 8.451 8.932 16.883 13.22 25.419.349.695.702 1.39 1.026 2.097.053.115.574 1.528.207.502.208.583.379 1.168.559 1.76.47 1.55.208.876.157.379.001.012-.223 2.671.022 1.482.214-1.043-.263.597-.307.826-.229 1.193.901-1.338-.263.55-.437.71-.83 1.441-1.292 2.138-3.165 4.783-6.952 9.22-10.444 13.768l-21.116 27.498-39.852 51.897c-3.176 4.135-6.354 8.269-9.526 12.407-.095.124-.98 1.272-.253.33l-1.061 1.372-2.388 3.088-5.044 6.524L516.64 592.1l-41.361 53.494-10.974 14.193a128 128 0 0 1-5.044 6.126c-.908 1.036-.117.024-.058.14-.177-.349-1.452 1.555-.001.2-.441.411-1.335.368-.334.228-.195.027-2.774-.135-1.341.062-5.119-.706-10.316-2.706-15.241-4.228a385 385 0 0 1-14.876-4.937 460 460 0 0 1-20.601-7.875c-1.143-.469-2.282-.948-3.425-1.419-1.472-.606 1.918.822-.505-.213q-1.132-.482-2.263-.968c-8.959-3.857-17.812-7.957-26.594-12.201-17.385-8.4-34.487-17.366-51.725-26.059-35.095-17.699-71.131-34.072-109.66-42.685-10.174-2.274-20.477-3.984-30.833-5.181-4.835-.559-9.477 4.662-9.27 9.27.246 5.5 4.09 8.672 9.27 9.27 1.43.165 2.86.324 4.288.503q.852.107 1.704.219c-1.727-.225-.242-.032.09.017 2.801.41 5.599.833 8.39 1.312a289 289 0 0 1 15.14 3.024c9.92 2.257 19.705 5.076 29.35 8.308 9.332 3.128 18.523 6.656 27.603 10.45 1.613.674.354.151.029.012a587 587 0 0 1 5.096 2.198 555 555 0 0 1 6.873 3.063 701 701 0 0 1 13.269 6.193c36.435 17.45 71.687 37.276 109.163 52.511 9.686 3.938 19.501 7.549 29.459 10.74a363 363 0 0 0 15.197 4.512c6.751 1.843 14.049 3.153 20.362-.805 5.468-3.428 8.989-9.261 12.835-14.281l11.418-14.903 21.192-27.66 40.105-52.346c3.843-5.015 6.109-7.968 9.782-12.729l10.11-13.106 20.028-25.963 43.315-56.149c3.921-5.083 7.392-9.946 8.154-16.518.775-6.673-2.489-12.787-5.388-18.55-2.13-4.234-4.165-8.504-6.178-12.795l-1.538-3.281c-.231-.49-.451-.988-.696-1.471 1.016 2.001-.649-1.423-.679-1.493-1.116-2.541-2.326-5.044-3.484-7.566-8.854-19.267-18.6-38.185-28.019-57.183-4.244-8.559-8.135-17.55-13.163-25.683-2.952-4.774-6.593-9.077-11.352-12.126-5.376-3.445-12.169-4.601-18.454-3.988-6.208.605-12.115 2.282-18.11 3.905a1016 1016 0 0 1-16.826 4.402c-10.064 2.541-20.17 4.911-30.29 7.219-19.592 4.467-39.224 8.748-58.691 13.744-24.183 6.206-48.188 13.146-72.25 19.803a39639 39639 0 0 0-73.381 20.353l-146.712 40.889c-5.57 1.552-12.327 2.524-17.159 5.863-6.332 4.376-7.49 11.312-6.247 18.449 2.026 11.634 7.14 22.837 12.095 33.463a2582 2582 0 0 0 32.921 68.01l7.974 15.869c1.397 2.781 2.646 5.449 4.525 7.913 1.937 2.539 3.608 5.344 5.394 7.992 1.957 2.899 6.845 1.176 5.831-2.458Z"/></g><path d="M126.715 558.165c23.635 10.213 47.125 20.748 70.645 31.224 23.426 10.433 47.033 20.463 70.579 30.622 23.677 10.216 47.416 20.282 71.161 30.341l71.252 30.185c24.169 10.239 48.204 20.939 72.677 30.435 3.332 1.293 6.629 1.712 10.185 1.857 5.389.219 8.303-7.024 4.427-10.687-2.664-2.518-5.347-4.598-8.718-6.081q-4.316-1.898-8.634-3.793a1211 1211 0 0 0-19.012-8.142l-35.852-15.025-71.033-29.769c-23.785-9.968-47.548-19.988-71.399-29.798-23.829-9.801-47.576-19.844-71.518-29.367-23.918-9.513-47.906-18.869-71.716-28.648l-8.73-3.585c-2.542-1.044-5.672.925-6.604 3.241s-.301 5.871 2.291 6.991Z"/><path d="M656.174 423.429c-13.798 19.949-28.184 39.467-42.243 59.23-14.045 19.743-28.461 39.215-42.937 58.642A2381 2381 0 0 1 546.2 573.98l1.408-1.823q-17.03 22.044-34.576 43.68c-17.546 21.636-23.337 28.942-35.251 43.218a2337 2337 0 0 1-15.112 17.926c-1.706 2.004-3.624 3.946-4.284 6.566-.594 2.36-.254 4.586.515 6.805.738 2.13 2.392 4.373 4.793 4.793 2.095.366 4.114.762 6.252.216 2.889-.737 4.621-2.551 6.427-4.678a2399 2399 0 0 0 15.402-18.331 2346 2346 0 0 0 20.503-25.003c13.904-17.195 27.383-34.719 40.644-52.413q19.223-25.649 37.739-51.812c18.516-26.163 24.273-35.366 36.017-53.3 11.745-17.936 22.666-36.417 33.593-54.86q2.011-3.395 4.011-6.796c1.246-2.119.553-5.242-1.684-6.424-2.393-1.265-4.929-.477-6.424 1.684Z"/><path d="M78.261 575.581c5.128 46.005 13.887 91.336 25.128 136.216 11.149 44.514 25.202 88.354 40.979 131.437 12.687 34.644 27.594 72.85 60.425 93.254 38.394 23.862 85.572 10.517 126.142.651 43.834-10.66 87.489-22.014 130.814-34.593 43.067-12.505 85.815-26.141 127.993-41.387 42.747-15.452 84.925-32.562 126.161-51.696a1306 1306 0 0 0 30.429-14.595c9.307-4.614 19.402-8.829 27.787-15.034 4.74-3.508 9.019-7.567 11.886-12.804 2.96-5.407 4.309-11.182 5.103-17.234 1.409-10.733 1.117-21.82.593-32.609-2.217-45.649-14.726-89.95-30.095-132.738-16.036-44.645-33.695-88.774-52.788-132.189-4.712-10.714-9.546-21.37-14.226-32.099-2.882-6.608-13.935-1.904-11.662 4.917 7.346 22.046 13.903 44.423 21.866 66.257 7.97 21.851 16.225 43.589 24.426 65.353 15.515 41.171 30.444 83.06 37.677 126.606a289 289 0 0 1 3.497 31.302c.618 10.702.934 21.648-.109 32.332-.277 2.835-1.681 7.679-3.116 10.405.033-.062-.967 1.518-.445.78.503-.711-.566.685-.543.659a32 32 0 0 1-2.321 2.342c-.281.255-2.298 1.806-1.317 1.107a54 54 0 0 1-3.275 2.142c-9.014 5.484-18.806 9.895-28.27 14.541-39.268 19.279-78.739 36.194-119.49 51.728-40.875 15.581-82.358 29.536-124.194 42.302-42.108 12.849-84.585 24.478-127.203 35.506-20.914 5.411-41.844 10.919-62.918 15.674-18.836 4.25-39.317 7.767-57.834 4.328-9.425-1.75-17.392-4.72-25.327-9.762a78 78 0 0 1-4.957-3.424c-.911-.683-.132-.104.039.033a88 88 0 0 1-3.82-3.232c-3.243-2.909-6.268-6.058-9.089-9.376-2.612-3.073-4.059-5.015-6.717-8.979a156 156 0 0 1-6.741-11.057 206 206 0 0 1-6.209-12.13q-1.349-2.855-2.629-5.741a190 190 0 0 1-2.11-4.888c-7.998-19.298-14.852-39.123-21.62-58.878a1535 1535 0 0 1-20.575-64.686c-12.626-42.962-24.445-86.153-35.155-129.637-2.644-10.735-5.203-21.492-7.796-32.24-1.102-4.57-8.938-3.732-8.395 1.136Z"/><path fill="#55bfbf" d="M210.59 464.771c7.355 13.659 22.937 21.618 38.14 22.213 15.295.599 30.208-6.82 39.566-18.816 5.426-6.957 9.187-14.946 10.433-23.725.466-3.283-.061-6.21-2.852-8.367a8.02 8.02 0 0 0-8.84-.622c-7.719 4.355-10.435 13.52-8.215 21.783 2.146 7.986 8.222 14.838 16.139 17.391 9.41 3.035 20.201-.583 27.807-6.297 4.008-3.01 7.579-6.307 10.762-10.18 1.347-1.639 2.674-3.313 4.236-4.758.183-.17.39-.325.565-.502.614-.62-.739.546-.735.545.438-.213.833-.585 1.258-.832-.029.017.907-.44.915-.485-.012.068-1.657.577-.817.353.585-.156 1.149-.373 1.743-.507.252-.057.513-.089.764-.15.891-.218-.976.121-.956.123.494.053 1.076-.087 1.577-.103a35 35 0 0 1 3.481.086c2.361.163 4.708.489 7.066.682 5.011.411 10.055.292 15.055-.209 10.76-1.078 21.239-3.575 31.606-6.581 20.226-5.865 40.342-12.137 60.504-18.221l30.255-9.129c5.043-1.522 10.099-3.005 15.113-4.617s10.133-3.004 15.051-4.843c2.855-1.068 5.604-2.412 8.323-3.779 2.341-1.176 3.65-4.528 2.849-7.002-.776-2.398-3.23-4.861-5.979-4.552-2.833.319-5.642.69-8.45 1.19-2.623.467-5.216 1.358-7.786 2.058-4.882 1.33-9.768 2.638-14.625 4.056l-29.439 8.592-58.284 17.011c-9.41 2.746-18.818 5.582-28.437 7.52-2.139.431-4.287.817-6.445 1.144-.471.071-2.454.501-.141.035-.573.115-1.182.15-1.762.216a100 100 0 0 1-4.119.387c-4.901.356-9.82.312-14.707-.215-4.931-.532-9.561-1.022-14.504-.121-5.372.979-9.905 4.375-13.369 8.454-2.646 3.116-5.158 6.257-8.241 8.971q-.575.506-1.166.993l-.395.322q-1.047.829.504-.385c-.824.274-1.745 1.247-2.495 1.721a34 34 0 0 1-2.594 1.488c-.439.226-.887.429-1.331.645q-1.226.541.663-.278-.453.179-.912.339a24 24 0 0 1-3.25.896c-.275.055-.669.073-.944.167q2.173-.27.811-.129-.478.04-.958.06a20 20 0 0 1-2.415-.053q-1.36-.14.775.123c-.798-.244-1.636-.361-2.439-.618-1.357-.434 2.03.994.772.324-.396-.211-.794-.41-1.177-.645-.288-.176-.561-.37-.842-.557-1.118-.744 1.843 1.563.378.258-.597-.532-1.126-1.115-1.659-1.708-.958-1.066 1.278 1.806.471.62-.257-.377-.518-.749-.757-1.139-.357-.583-.66-1.189-.967-1.798-.647-1.282.789 2.11.318.758-.147-.422-.301-.839-.427-1.267-.272-.926-.475-3.597-.236-.337-.054-.74-.127-1.475-.132-2.218-.002-.31.039-.62.038-.929-.003-1.281-.567 2.474-.073.688.08-.289.16-.584.232-.875.43-1.73-.909 1.584-.266.56.156-.249.301-.53.441-.789.845-1.564-1.205 1.282-.346.414q.333-.334.664-.671c.87-.887-1.893 1.304-.314.251l-11.977-6.873c-.035.441-.114.888-.136 1.329.111-2.252.161-1.193.056-.562a39 39 0 0 1-.429 2.186 41 41 0 0 1-1.749 5.736c-.242.627-.984 1.589.107-.212-.377.622-.617 1.366-.944 2.019a44 44 0 0 1-3.691 6.093c-.145.201-.414.482-.529.717.811-1.66.555-.707.088-.136a45 45 0 0 1-3.312 3.624 48 48 0 0 1-3.334 2.952c-1.249 1.016 1.417-1.002.093-.082-.244.17-.481.349-.725.52q-1.094.768-2.234 1.466a41 41 0 0 1-3.91 2.112c-.379.179-.867.317-1.214.549 1.386-.924.927-.389.3-.146a38.7 38.7 0 0 1-6.885 1.948c-.368.068-.737.124-1.105.189-1.595.281 1.737-.157.121-.019-.896.076-1.788.166-2.687.205a42 42 0 0 1-4.486-.047c-.747-.048-1.49-.126-2.234-.201-1.221-.123.385.055.522.073q-3.265-.439-.895-.12-.447-.065-.892-.139c-3.127-.522-6.118-1.422-9.085-2.524-1.405-.522.991.459.107.052-.478-.22-.961-.43-1.436-.659a43 43 0 0 1-2.398-1.245c-1.573-.88-3.037-1.89-4.518-2.911-.731-.503-1.462-1.001-2.182-1.52.156.113.947.767.117.089-.465-.38-.93-.761-1.382-1.157a54 54 0 0 1-3.87-3.717c-1.681-1.799-4.608-1.833-6.481-.386-1.973 1.524-2.451 4.176-1.271 6.368Zm70.078 76.931c8.533-2.818 17.112-5.41 25.739-7.924s17.203-5.136 25.783-7.794c17.243-5.341 34.564-10.421 51.819-15.718s34.393-10.427 51.635-15.488a4542 4542 0 0 1 78.042-22.148c8.658-2.374 17.411-4.502 26.018-7.049 1.364-.404 2.81-.873 4.076-1.512 1.32-.666 2.36-1.807 3.419-2.822 2.89-2.772 1.549-8.104-2.391-9.055-1.353-.327-2.802-.798-4.193-.745-1.507.057-3.119.42-4.592.784-2.178.538-4.334 1.194-6.496 1.792a4557 4557 0 0 0-90.917 26.165 4539 4539 0 0 0-51.563 15.757c-17.244 5.382-34.382 11.112-51.51 16.852-8.526 2.857-17.079 5.654-25.52 8.754s-16.851 6.363-25.371 9.266q-3.19 1.087-6.379 2.179c-2.229.763-3.936 3.135-3.153 5.554.722 2.232 3.152 3.946 5.554 3.153Zm72.067 42.91c10.439-4.641 21.044-8.687 31.849-12.394s21.622-7.471 32.485-11.044c21.787-7.166 43.61-14.156 65.751-20.159a968 968 0 0 1 25.056-6.436c3.278-.796 7.802-1.202 10.301-3.614 1.939-1.871 2.901-5.28 1.485-7.729-.33-.57-.792-1.148-1.232-1.626-1.722-1.875-4.407-2.16-6.755-1.812-2.882.427-5.715 1.348-8.526 2.102a972 972 0 0 0-49.37 14.653c-10.979 3.578-21.978 7.22-32.752 11.379-10.948 4.226-21.922 8.509-32.611 13.36-10.392 4.716-20.614 9.826-31.081 14.373a1007 1007 0 0 0-7.821 3.438c-1.575.7-1.946 2.995-1.145 4.365.949 1.622 2.784 1.847 4.365 1.145Z"/><path fill="#8170f9" d="m264.738 326.216 10.449 6.854c3.477 2.281 6.906 4.674 10.494 6.778 2.638 1.547 4.839-2.367 2.37-4.054-3.432-2.345-7.057-4.424-10.601-6.594l-10.645-6.518c-2.262-1.385-4.256 2.098-2.066 3.534Zm2.706-41.12c18.738 11.64 37.343 23.481 55.953 35.324l3.988 2.538c1.253.798 2.492 1.737 3.833 2.381 2.42 1.162 5.358 1.108 7.382-.846 1.847-1.782 2.115-4.768.748-6.907-1.283-2.007-3.714-2.885-5.938-1.946-2.022.853-3.578 3.378-2.753 5.61q-.017-1.344-.089-.584l.659-2.437.478-.631 2.152-1.254.786.002a1.58 1.58 0 0 1 1.254.21c-.098.014-.477-.268-.554-.312-.503-.288-1.002-.585-1.503-.878l-3.435-2.006-6.441-3.761-12.666-7.397c-8.516-4.973-17.058-9.903-25.519-14.969l-14.505-8.685c-1.757-1.052-4.163-.393-5.189 1.361-1.061 1.813-.384 4.105 1.361 5.189Zm26.796-29.149c10.494 5.875 20.616 12.316 30.473 19.206 4.989 3.488 9.91 7.08 14.799 10.708a414 414 0 0 1 5.103 3.846l.724.556q.661.51.123.094l.54.418a429 429 0 0 1 14.664 11.912c1.336 1.135 2.732 2.193 4.108 3.278.659.519 1.314 1.043 1.976 1.56 1.137.887 2.314 1.298 3.649 1.782 1.525.553 3.377-.269 4.303-1.467 1.026-1.328 1.106-3.069.32-4.546-1.52-2.857-4.131-5.012-6.602-7.075-2.334-1.949-4.743-3.817-7.142-5.686a459 459 0 0 0-15.217-11.381c-9.76-6.973-19.927-13.354-30.32-19.34-5.924-3.412-11.889-6.769-17.916-9.997-1.69-.905-3.866-.424-4.859 1.274-.958 1.637-.405 3.919 1.274 4.859Z"/><path fill="#54bfbf" d="M655.912 167.836c-36.545 43.598-44.037 109.389-18.228 160.087 6.448 12.667 14.834 24.469 25.522 33.842 50.334 44.146 124.084 44.485 185.395 28.332 59.436-15.66 122.205-68.801 106.945-136.817-2.936-13.086-8.658-25.439-15.953-36.649-19.225-29.542-48.141-53.314-79.681-68.713-20.401-9.96-42.554-17.229-65.237-19.341-62.469-5.817-142.77 18.137-166.27 91.59"/><path fill="#55bfbf" d="M652.251 164.175c-11.663 13.556-21.111 29.119-27.886 45.653s-10.004 34.361-10.567 52.103 2.268 35.873 8.093 52.656c6.501 18.727 16.586 36.961 30.873 50.884 13.576 13.23 30.063 23.083 47.472 30.348 16.598 6.926 34.206 10.753 52.042 12.702 17.32 1.893 34.846 1.64 52.158-.214 17.537-1.878 35.161-4.965 52.082-10.015 15.733-4.696 30.989-11.555 44.929-20.23 14.178-8.823 27.055-19.525 37.795-32.331 2.955-3.524 5.732-7.264 8.192-11.152 2.047-3.235 4.576-6.163 6.467-9.505 4.11-7.262 7.548-15.039 9.909-23.048 4.978-16.882 5.22-34.866 1.283-51.982-4.774-20.756-16.042-39.245-29.373-55.585-12.26-15.028-26.935-27.962-42.87-38.974-16.714-11.55-35.141-20.685-54.309-27.39-18.241-6.381-37.353-9.85-56.669-10.364-14.738-.392-29.518.883-44.019 3.517-14.861 2.699-29.231 7.22-43.031 13.348a150.5 150.5 0 0 0-37.739 24.017 122.3 122.3 0 0 0-15.028 15.602c-2.799 3.483-5.293 7.051-7.539 10.908-.213.366-.435.73-.635 1.104-.277.517-.429.892-.689 1.508-1.335 3.163.164-.323.086-.381.005.004-1.363 2.349-1.498 2.593a119 119 0 0 0-2.61 4.977c-1.933 3.908-3.747 7.928-5.25 12.021a84 84 0 0 0-1.754 5.327q-.385 1.311-.742 2.63c-.14.516-.292 1.032-.409 1.554-.116.516-.063 1.968-.349 2.394-.014.02.397-2.193-.044-.825-1.294 4.018 1.511 8.983 5.634 9.922 4.415 1.006 8.537-1.331 9.922-5.634q.41-1.22-.298.657l.823-1.95c.636-1.519-.719 1.661-.118.274q.537-1.246 1.096-2.48.558-1.226 1.142-2.439c.194-.402.398-.8.588-1.204l.181-.409q1.572-3.8.379-.807c.904-1.375 1.477-3.108 2.232-4.578q1.2-2.335 2.501-4.615a119 119 0 0 1 3.951-6.437c.234-.355.492-.705.712-1.069q.57-.863-.255.263-1.47 1.898 1.006-1.304c.511-.684 1.018-1.372 1.533-2.053.959-1.27-1.532 1.943-.485.632q.39-.492.782-.983c1.499-1.864 3.009-3.709 4.469-5.605l-1.572 2.035c6.417-8.274 13.89-15.656 22.156-22.078l-2.036 1.573c10.049-7.757 21.149-14.036 32.834-18.972l-2.405 1.015c14.959-6.275 30.771-10.35 46.835-12.518l-2.679.36c16.893-2.246 34.163-2.495 51.074-.28l-2.682-.36c16.493 2.225 32.519 7.005 47.833 13.462l-2.412-1.018c17.167 7.293 33.387 16.633 48.172 28.015l-2.046-1.581c13.008 10.068 24.851 21.632 34.949 34.629l-1.577-2.041c7.334 9.499 13.761 19.689 18.463 30.754l-1.013-2.402c3.452 8.243 5.884 16.85 7.083 25.711l-.358-2.666c1.046 8.032 1.062 16.146-.009 24.177l.357-2.66c-1.146 8.28-3.43 16.36-6.651 24.07l1.002-2.374c-1.986 4.695-4.65 9.07-6.59 13.767l.989-2.344a117 117 0 0 1-3.252 5.762c-.464.768-2.544 3.762-.479 1.024a215 215 0 0 0-1.755 2.277l.948-1.226c-.329.483-.731.933-1.096 1.389a183 183 0 0 1-8.293 9.655c-5.878 6.372-12.574 12.148-19.425 17.449l2.044-1.579c-11.851 9.116-24.892 16.623-38.654 22.453l2.401-1.013c-14.584 6.134-29.945 10.021-45.475 12.895a300 300 0 0 1-14.166 2.27l2.655-.357c-16.777 2.252-33.77 3.07-50.671 1.947a215 215 0 0 1-14.289-1.432l2.637.354c-15.25-2.082-30.25-5.894-44.461-11.842l2.358.995c-7.547-3.187-14.845-6.95-21.767-11.336-3.515-2.227-6.846-4.673-10.207-7.119 2.785 2.026-.148-.13-.778-.638a144 144 0 0 1-2.338-1.929 105 105 0 0 1-5.227-4.689 108 108 0 0 1-9.07-9.91c-.348-.431-.672-.907-1.045-1.316 1.884 2.064.558.723.151.181a118 118 0 0 1-1.984-2.726 123 123 0 0 1-4.032-6.092 135 135 0 0 1-9.029-17.22c-.26-.597-.92-2.33.172.431-.181-.458-.378-.91-.563-1.366a136 136 0 0 1-1.256-3.208 142.6 142.6 0 0 1-6.544-23.144 146 146 0 0 1-1.007-5.807c-.117-.763-.483-4.27-.159-1.014-.114-1.143-.282-2.281-.403-3.424-.208-1.961-.335-3.924-.499-5.888l-.318-2.368q.303 2.328.175.894c-.02-.492-.071-.985-.102-1.476a153.7 153.7 0 0 1 .7-27.514c.077-.668.687-3.932.149-1.293.197-.963.281-1.961.435-2.933a154 154 0 0 1 1.133-6.316c.808-4.022 1.746-8.03 2.784-11.997a148 148 0 0 1 3.918-12.645 165 165 0 0 1 2.466-6.378c.622-1.53-.528 1.194.14-.332.264-.603.524-1.207.793-1.808a143 143 0 0 1 1.445-3.135c1.979-4.162 4.178-8.156 6.694-12.018a136 136 0 0 1 5.955-8.426c-.639.835.355-.451.393-.499q.613-.775 1.235-1.541c1.702-2.1 2.207-5.295 0-7.321-1.939-1.78-5.435-2.192-7.321 0Z"/><path fill="#ff8345" d="M773.828 242.525c.141-2.305.214-4.612.206-6.922a103 103 0 0 0-.065-3.341c-.007-.205.001-.421-.024-.625-.105-.858-.156-.183-.143.032l.172-1.28-.172-1.28c-.194-1.382.071 1.001-.035-.381-.195-2.543-.565-5.086-.95-7.605a107 107 0 0 0-.562-3.333c-.039-.213-.164-.595-.156-.829l.057.345q.206 1.282-.15-1.191c-.138-.613-.333-1.219-.488-1.828-2.358-9.275-5.95-18.304-10.536-26.702-2.734-5.007-5.861-9.663-9.422-14.118-.975-1.219-2.773-1.832-4.234-2.028-1.572-.211-3.328-.01-4.702.875a8.8 8.8 0 0 0-2.645 2.645c-.911 1.413-1.372 4.077-.743 5.682 8.04 20.513 16.126 41.004 24.286 61.47l6.996 17.547c1.032 2.587 2.578 4.624 5.401 5.401 2.482.684 5.792.07 7.524-1.989 16.386-19.478 30.958-40.478 43.255-62.77a383 383 0 0 0 9.706-18.823l-14.445-6.09a292 292 0 0 1-4.868 12.334l.799-1.893a287 287 0 0 1-27.49 50.339 288 288 0 0 1-9.622 13.223l1.26-1.631a316 316 0 0 1-2.729 3.475c-.872 1.095-1.695 2.181-2.074 3.559-.484 1.757-.293 3.594.407 5.252a8.1 8.1 0 0 0 7.371 4.958l77.677.965 21.909.272-2.191-16.191a256 256 0 0 1-10.124 1.567l2.196-.295c-23.664 3.146-47.586 3.023-71.399 2.228-6.76-.226-13.519-.51-20.277-.795-2.91-.123-5.784 1.682-7.225 4.144-1.407 2.404-1.693 6.071 0 8.446l46.535 65.292 13.296 18.655c1.294 1.815 2.783 3.235 5.001 3.845 2.003.552 4.67.303 6.447-.843 3.566-2.299 5.671-7.603 3.002-11.448-15.553-22.402-32.351-44.042-50.485-64.418-5.063-5.689-10.16-11.357-15.379-16.904-2.299-2.443-6.154-2.991-9.142-1.73-3.217 1.358-4.879 4.238-5.144 7.648a1302 1302 0 0 1-7.685 72.516l.301-2.237a1339 1339 0 0 1-2.575 18.172l16.556 2.241a8626 8626 0 0 1 7.02-73.021c.698-6.952 1.401-13.903 2.127-20.852.302-2.889-1.831-5.945-4.208-7.337-2.65-1.551-5.924-1.504-8.577 0a253 253 0 0 1-26.23 12.914l2.046-.863a255 255 0 0 1-49.847 15.163 253 253 0 0 1-14.649 2.416l2.304-.31a254 254 0 0 1-4.912.609l2.305 17.028 72.96-22.003 20.505-6.184c4.208-1.269 6.881-5.286 6.295-9.643-.571-4.246-4.229-7.659-8.631-7.62a73 73 0 0 1-9.978-.605l2.34.314c-7.673-1.037-15.101-3.27-22.224-6.276l2.109.89c-16.756-7.146-31.506-18.136-45.892-29.134l-6.855 16.259a283 283 0 0 1 25.476 9.294l-2.119-.894a271.6 271.6 0 0 1 42.76 22.721 259 259 0 0 1 11.346 7.828c1.72 1.257 4.76 1.421 6.726.88 2.025-.558 4.219-2.123 5.216-4.011 1.07-2.026 1.607-4.48.88-6.726-.74-2.286-2.08-3.805-4.011-5.216-19.408-14.184-40.519-25.65-62.871-34.479a258 258 0 0 0-18.673-6.551c-4.243-1.311-8.834 1.215-10.494 5.151-.746 1.768-1.056 3.915-.448 5.792l.897 2.125a8.94 8.94 0 0 0 3.191 3.191c18.72 14.24 38.576 28.785 61.8 34.523 6.778 1.674 13.841 2.582 20.825 2.503l-2.336-17.263-72.91 22.183-20.491 6.235c-4.149 1.262-6.788 5.205-6.209 9.511.244 1.819.991 3.699 2.384 4.977 1.581 1.451 3.897 2.798 6.13 2.539 13.898-1.614 27.645-4.134 41.118-7.931 13.277-3.741 26.221-8.609 38.754-14.364a250 250 0 0 0 19.992-10.298l-12.785-7.337c-2.431 24.328-4.832 48.659-7.095 73.003a8126 8126 0 0 0-1.914 20.869c-.177 1.951 1.05 4.657 2.469 5.96 1.392 1.278 2.958 2.065 4.839 2.318 1.797.241 3.805.012 5.374-1 1.714-1.105 3.562-2.923 3.873-5.037 3.558-24.138 6.498-48.368 8.735-72.665q.932-10.127 1.706-20.267l-14.286 5.917a683 683 0 0 1 34.647 39.695 695 695 0 0 1 9.248 11.713l-1.308-1.693a695 695 0 0 1 20.662 28.219l14.45-8.446-46.535-65.292-13.296-18.655-7.225 12.59c26.666 1.126 53.436 2.214 80.059-.304 8.012-.758 16.006-1.82 23.927-3.239 1.847-.331 4.067-2.161 4.926-3.788.88-1.665 1.23-3.381.978-5.256a8.24 8.24 0 0 0-8.096-7.147l-77.677-.688-21.909-.194 5.703 13.769c15.258-19.291 28.225-40.239 38.237-62.723a317 317 0 0 0 8.248-20.329c.641-1.759.203-4.538-.797-6.09-.946-1.468-2.163-2.552-3.779-3.234-3.359-1.418-8.17-.327-9.869 3.234a381 381 0 0 1-31.738 54.45 384 384 0 0 1-10.684 14.515l1.213-1.57a392 392 0 0 1-9.04 11.24l12.925 3.412-9.662-23.987c-3.403-8.449-6.657-16.979-10.255-25.347l.769 1.823-12.827-31.315-12.324 7.174q.535.648 1.061 1.303c.526.655 1.436 1.971.148.166.425.596.882 1.175 1.329 1.754.235.304 2.176 2.928.769.895 1.24 1.79 2.599 3.496 3.818 5.304a107 107 0 0 1 6.706 11.402 117 117 0 0 1 2.847 6.063c.139.317.533.99-.125-.305.124.245.22.529.323.78q.28.684.55 1.371a108 108 0 0 1 1.187 3.158c.356.992.683 1.991 1.001 2.995.181.571.607 1.207.696 1.785-.166-1.074-.218-.594-.093-.207.194.601.408 1.196.604 1.796a108 108 0 0 1 2.291 8.07q.099.407.174.819c.115.644.408 1.152.582 1.774-.069-.246-.225-.75-.103.042.052.34.16.679.237 1.015a105 105 0 0 1 1.065 5.297 104 104 0 0 1 .426 2.657c.013.089.155 1.114.099.694.251 1.901 1.453 3.552 3.552 3.552 2.02 0 3.434-1.629 3.552-3.552Z"/><path fill="#55bfbf" d="M803.055 466.194c13.834-.482 28.317 2.993 40.316 8.343 6.648 2.964 13.012 6.557 19.012 10.674a125 125 0 0 1 5.207 3.774c-.24-.183-1.012-.811.097.083.784.632 1.571 1.259 2.345 1.902 2.761 2.296 5.499 4.626 8.112 7.093a125 125 0 0 1 12.503 13.704c-1.153-1.456.64.861.93 1.255a117.4 117.4 0 0 1 11.097 18.371c.719 1.485 1.564 3.019 2.095 4.584-.738-2.173.137.359.363.931a108 108 0 0 1 1.065 2.815c1.218 3.356 2.29 6.78 3.23 10.224a103 103 0 0 1 2.292 10.522c.053.323.436 3.123.283 1.823s.158 1.467.2 1.879q.347 3.406.474 6.827c.164 4.431.048 8.873-.371 13.288-.089.936-.204 1.867-.308 2.801-.162 1.455.271-1.578.011-.139-.095.527-.164 1.058-.253 1.586a89 89 0 0 1-1.383 6.673 85 85 0 0 1-2.552 8.417q-.271.752-.559 1.497c-.101.264-1.146 2.727-.238.665-1.699 3.861-3.647 7.597-5.952 11.133a67 67 0 0 1-1.418 2.084c-.277.392-.573.772-.845 1.168-.772 1.124 1.06-1.298.199-.24-1.293 1.588-2.601 3.155-4.003 4.649a69 69 0 0 1-6.038 5.695q-.417.345-.836.688c-1.882 1.559 1.665-1.175-.32.249-3.121 2.24-6.344 4.285-9.79 5.993-.199.099-2.606 1.125-2.593 1.209-.005-.032 1.722-.682.668-.285-.445.168-.885.351-1.33.519a58 58 0 0 1-5.773 1.837c-1.731.452-3.48.747-5.232 1.098-1.365.273 1.841-.186.454-.05-.474.047-.948.106-1.423.15a50 50 0 0 1-3.221.198c-1.544.042-3.063-.173-4.597-.186-1.298-.011 1.991.386.719.095-.407-.093-.826-.141-1.236-.222a35.5 35.5 0 0 1-5.143-1.423c-.15-.054-1.152-.462-1.166-.446.054-.062 1.789.867.892.36-1.503-.848-3.073-1.527-4.519-2.486-.151-.1-.891-.691-.969-.676.171-.035 1.756 1.538.559.402-.557-.529-1.133-1.027-1.656-1.592-.184-.199-.356-.462-.561-.637-.88-.751.983 1.586.443.563-.164-.31-1.004-2.059-1.269-2.166.63.254.634 1.875.289.664-.104-.363-.237-.714-.336-1.08-.042-.158-.211-1.093-.255-1.114.151.071.135 2.391.102.691-.014-.732-.043-1.464-.048-2.198-.003-.393.282-1.648-.018-.376-.335 1.421.122-.355.202-.652.005-.018.252-1.11.37-1.178-.02.011-.975 1.877-.133.334a48 48 0 0 1 1.267-2.155c.26-.423.952-.934-.133.154.225-.225.422-.485.639-.719.66-.712 1.379-1.338 2.103-1.982-1.263 1.124.735-.524 1.061-.722.36-.218.811-.397 1.188-.565-.298.133-1.3.448.042.025.734-.231 1.461-.471 2.21-.653.424-.103.863-.161 1.284-.273.846-.225-1.147.031.287-.028.912-.038 1.812-.071 2.726-.027.513.025 1.029.063 1.539.119-.347-.038-1.18-.232.312.069 1.003.202 1.996.429 2.979.715.376.11 2.651.933 1.843.586 1.898.814 3.72 1.849 5.463 2.952a53 53 0 0 1 3.557 2.464q.617.46.029.026l.612.496a102 102 0 0 1 8.978 8.564 109 109 0 0 1 5.966 7.028c-.762-.988.831 1.142 1.062 1.459 2.4 3.313 4.625 6.756 6.612 10.332a114 114 0 0 1 4.149 8.24c.212.467.418.938.627 1.407.65 1.455-.162-.461.19.441 1.49 3.816 2.894 7.638 4.03 11.577s1.993 7.942 2.782 11.968c.369 1.886.663 3.78.96 5.678-.352-2.253.098.917.146 1.367q.183 1.716.311 3.439a106.3 106.3 0 0 1-.177 17.947c-.096 1.011-.215 2.019-.329 3.028-.051.455-.09 1.803.03-.208-.038.626-.188 1.262-.288 1.88a112.5 112.5 0 0 1-6.473 23.441c-.187.472-.384.941-.571 1.413-.513 1.296.639-1.412.058-.145-.37.807-.718 1.625-1.091 2.431a113.5 113.5 0 0 1-9.197 16.208 143 143 0 0 1-3.316 4.647c-1.049 1.413-.112.146.095-.113-.317.397-.629.796-.948 1.191q-1.077 1.332-2.194 2.63a107 107 0 0 1-8.731 9.024 88 88 0 0 1-2.069 1.841q-.601.52-1.215 1.025c-.213.176-1.522 1.236-.595.5.857-.679-.187.138-.306.224-.43.31-.857.624-1.293.926a49 49 0 0 1-3.336 2.128q-1.19.69-2.424 1.3c-.261.129-1.768.844-.646.336s-.4.145-.679.246c-.854.309-1.72.586-2.599.818a28 28 0 0 1-2.672.571q-1.072.174.6-.09c-.2.273-2.349.113-2.608.112a28 28 0 0 1-1.476-.045c-.335-.019-1.926-.06-.57-.002 1.308.056-1.206-.226-1.631-.321a33 33 0 0 1-3.532-1.005c-.295-.101-1.234-.329-1.387-.512.017.02 1.556.727.547.229-.897-.443-1.805-.858-2.694-1.317a50 50 0 0 1-5.537-3.337c-.421-.292-.835-.594-1.251-.894-.115-.083-1.128-.87-.297-.216.902.711-.379-.321-.584-.491q-.6-.496-1.187-1.006c-1.662-1.442-3.227-2.979-4.785-4.531-1.359-1.354-2.698-2.718-3.981-4.145a72 72 0 0 1-2.046-2.369c-.249-.302-.498-.604-.739-.912.959 1.23-.535-.788-.575-.846a37 37 0 0 1-1.671-2.643c-.192-.336-.366-.683-.557-1.02l-.18-.342q.344 1.204-.271-.452l-.394-.935q.344.836.05.072c-.174-.487-.346-.972-.495-1.468s-.282-.992-.396-1.496c-.087-.385-.177-1.844-.108-.307-.038-.86-.103-1.705-.066-2.568.018-.424.047-.855.101-1.274-.017.13-.182 1.068.006.271.198-.834.403-1.641.69-2.45.352-.994-.434.778.078-.143.254-.457.489-.912.771-1.355-.125.196-.825.79.131-.167.29-.29.577-.586.895-.846-.77.632.754-.431 1.029-.555.952-.428 2.761-.548 4.258-.28 3.925.702 6.251 1.983 9.748 4.209a54 54 0 0 1 2.16 1.471c.136.096.999.775.197.137q.508.405 1.002.826a45 45 0 0 1 3.764 3.597 49 49 0 0 1 2.563 2.981c-.185-.235-.687-.96.096.149 1.016 1.437 1.997 2.89 2.887 4.41a57 57 0 0 1 3.017 5.941c-.051-.116-.409-1.001-.095-.214.371.933.727 1.872 1.054 2.821 1.172 3.406 2.012 6.903 2.6 10.454q.111.667.202 1.337c-.213-1.588-.055-.383-.03-.058.07.894.17 1.784.226 2.679.112 1.785.145 3.576.095 5.364-.129 4.671-.342 6.115-1.338 10.644a83 83 0 0 1-3.702 12.169c-.193.497-.397.989-.591 1.485.526-1.345.036-.077-.073.167-.432.973-.871 1.943-1.329 2.904-.92 1.931-1.913 3.828-2.924 5.712a125 125 0 0 1-6.713 11.042 150 150 0 0 1-3.756 5.285q-.484.65-.973 1.296c-.174.231-1.046 1.326-.087.117-.752.948-1.502 1.897-2.267 2.834-5.143 6.298-10.689 12.27-16.551 17.904a243 243 0 0 1-8.928 8.152 210 210 0 0 1-7.854 6.507c-.186.147-1.845 1.435-.855.673.93-.716-.347.261-.567.428l-.905.683a216 216 0 0 1-7.68 5.499 218 218 0 0 1-31.519 17.896 260 260 0 0 1-5.176 2.314c-1.595.696-.183.083.121-.044q-.697.292-1.396.58-1.573.647-3.156 1.268a216 216 0 0 1-11.373 4.105 213 213 0 0 1-23.712 6.335q-5.551 1.144-11.158 1.985a54 54 0 0 0-5.874 1.236q-1.263.334-2.531.653c-.34.085-3.525.821-1.889.676-4.098.364-8.088 3.366-7.886 7.886.177 3.96 3.485 8.276 7.886 7.886l-.646-.216 2.152.289c.622.058 1.257.053 1.881.075q1.503.054 3.005.085c3.005.063 5.853-.245 8.831-.694a209 209 0 0 0 12.634-2.306 214 214 0 0 0 25.448-7.138c17.159-5.979 33.695-13.919 48.952-23.797 15.234-9.864 29.403-21.508 41.695-34.873 13.185-14.336 24.936-30.43 31.59-48.878 6.055-16.786 7.237-35.79.494-52.562-6.275-15.607-18.647-30.293-35.739-34.187-5.386-1.227-11.239-1.169-16.198 1.505-3.693 1.991-6.908 5.556-8.702 9.329-4.514 9.494-2.48 19.752 2.631 28.582 9.435 16.3 27.522 32.75 47.708 30.901 20.519-1.88 36.469-19.012 47.67-34.97 10.452-14.89 17.458-32.7 20.05-50.696 2.723-18.904 1.311-38.185-5.369-56.165-6.542-17.609-16.875-33.988-30.565-46.923-7.191-6.794-15.296-12.621-24.825-15.599a33.35 33.35 0 0 0-14.41-1.241c-2.09.281-4.096.739-6.066 1.497-.807.311-1.62.676-2.405 1.008-1.347.569-.277.109-.007-.004-1.422.597-2.822 1.182-4.151 1.964-8.985 5.287-14.189 14.865-12.544 25.268 1.33 8.408 7.865 15.85 15.349 19.582 16.805 8.379 36.706 4.855 52.546-4.136 16.881-9.581 28.935-25.387 35.342-43.54 12.012-34.032 3.548-72.968-17.903-101.277-5.059-6.677-10.585-12.926-16.806-18.547a125 125 0 0 0-6.46-5.451q-.789-.62-1.584-1.232c-.116-.09-2.277-1.734-1.609-1.232.753.566-2.236-1.623-2.708-1.947q-1.248-.855-2.516-1.681a123 123 0 0 0-5.159-3.178c-14.051-8.193-29.619-13.682-45.746-15.818-7.503-.994-15.2-1.337-22.764-1.074-5.717.199-5.744 9.109 0 8.909ZM538.278 200.962c-1.175-.397-2.345-.857-3.538-1.194-.817-.231.714.378-.021-.009-.284-.15-.585-.269-.877-.403-.994-.457-1.985-.915-3.019-1.277-2.427-.849-4.88-1.628-7.319-2.442a644 644 0 0 0-14.92-4.793l-29.712-9.114-8.319-2.552-4.279-1.312c-1.402-.43-2.818-1.138-4.263-1.367-2.442-.386-4.512-.284-6.711.878-2.392 1.264-3.81 3.775-4.158 6.362-.323 2.401.232 4.516 1.714 6.434 1.521 1.969 4.197 3.732 6.839 3.432 1.783-.203 3.257-.302 4.819-1.277 1.243-.775 2.365-1.829 3.127-3.08.853-1.4 1.332-2.95 1.301-4.595-.024-1.281-.372-2.407-.96-3.524-.848-1.611-2.22-2.301-3.803-2.976.007.003 1.986.964 1.089.435 1.835 1.083 1.42 1.158.762.391l1.337 1.73-.152-.209-9.835 12.793c1.145.455 2.44.551 3.64.824 1.373.312 2.739.664 4.108.996l7.491 1.817 15.223 3.692c10.07 2.442 20.12 4.976 30.247 7.172l8.514 1.846c1.109.24 2.176.434 3.315.558.669.073 1.522.009 2.157.225-.065-.022-.923-.198-.267-.025.4.106.813.173 1.217.259l2.435.519c2.703.576 5.855-.798 6.516-3.7.668-2.933-.886-5.566-3.7-6.516Zm44.095-62.301c-1.134-2.627-3.28-4.803-5.051-7.044a193 193 0 0 0-4.858-5.919 851 851 0 0 1-9.687-11.516 938 938 0 0 1-18.933-23.724l1.264 1.636a855 855 0 0 1-8.765-11.547c-.474-.635-.944-1.273-1.419-1.907-1.667-2.227-3.148-3.583-5.899-4.482-4.792-1.565-10.608 2.689-10.267 7.821.118 1.78.427 3.475 1.368 5.036.576.956 1.495 1.927 2.229 2.823a851 851 0 0 0 7.599 9.145 720 720 0 0 0 10.082 11.724 846 846 0 0 0 21.03 23.021c1.969 2.077 3.931 4.147 6.019 6.104 2.404 2.253 4.76 4.898 7.71 6.405 2.126 1.086 4.996 1.003 6.711-.866 1.811-1.973 1.888-4.343.866-6.711Zm75.896-39.315c-1.481-10.141-3.534-20.219-5.946-30.183l-7.221-29.832-1.996-8.246c-.803-3.316-1.273-7.12-2.929-10.121-1.64-2.973-5.748-4.737-9.031-3.675-3.335 1.079-5.91 4.087-5.871 7.711.033 3.059 1.307 6.191 2.14 9.117l2.119 7.436 4.169 14.632c2.804 9.842 5.588 19.674 8.688 29.427l2.571 8.088c.908 2.857 2.121 5.636 3.206 8.43.988 2.545 3.561 4.59 6.442 3.658 2.974-.962 4.083-3.527 3.658-6.442Zm97.058-29.322c.968-4.154 1.68-8.345 2.234-12.572.547-4.165 1.329-8.662.434-12.805-1.215-5.626-10.101-5.592-11.343 0-.5 2.253-.428 4.455-.456 6.741a114 114 0 0 1-.926 13.207l.079-.58c-.131 1.046-.302 2.088-.472 3.128-.241 1.482-.24 2.831.546 4.175.658 1.124 1.946 2.196 3.238 2.49 2.768.631 5.976-.832 6.664-3.784Z"/></svg>