<?xml version="1.0" encoding="UTF-8"?><svg xmlns="http://www.w3.org/2000/svg" data-name="ARTWORK" viewBox="0 0 1000 1000"><g fill="#70e8a0"><path d="M729.619 209.469c-183.999-20.346-369.488-40.713-553.848-23.95-20.832 1.894-43.112 4.901-58.64 18.917-10.041 9.063-16.027 21.745-20.597 34.476-12.478 34.762-16.182 71.975-19.177 108.786a3339 3339 0 0 0-10.961 255.436c-.186 40.479 3.138 86.85 35.231 111.52 17.878 13.743 41.263 17.623 63.673 20.121 31.576 3.521 63.326 5.172 95.055 6.822 169.87 8.831 341.919 17.512 508.572-16.554 29.056-5.939 60.247-14.694 77.885-38.536 17.292-23.374 16.932-54.94 15.839-83.995l-8.161-217.069c-1.043-27.75-2.218-56.144-12.573-81.91-9.977-24.827-27.811-45.546-45.334-65.766-7.101-8.193-14.371-16.53-23.692-22.068-11.478-6.819-25.095-8.835-38.338-10.527a1409 1409 0 0 0-275.47-8"/><path d="M729.619 204.654c-95.678-12.28-191.51-24.348-287.816-30.486-47.717-3.041-95.52-4.78-143.337-4.63-23.611.074-47.236.798-70.816 1.987-23.255 1.172-46.718 2.324-69.783 5.647-19.434 2.8-39.375 9.277-52.652 24.555-14.445 16.623-21.282 39.156-26.386 60.178-5.522 22.742-8.338 46.088-10.476 69.36-2.139 23.288-3.81 46.626-5.331 69.962a3339 3339 0 0 0-6.26 143.505c-.506 22.89-1.052 45.829-.721 68.725.26 17.931 1.525 36.088 5.72 53.571 4.186 17.447 11.837 34.355 24.269 47.494 13.904 14.694 32.999 22.674 52.52 26.661 22.023 4.498 44.822 5.959 67.204 7.553 23.825 1.698 47.689 2.827 71.542 4.052 93.486 4.798 187.305 9.475 280.922 5.891 46.911-1.796 93.892-5.947 140.411-12.23 23.124-3.123 46.157-6.917 69.036-11.51 18.748-3.764 37.472-8.269 54.699-16.811 17.325-8.592 32.191-22.118 40.216-39.924 8.316-18.451 10.101-38.8 9.98-58.826-.139-23.046-1.512-46.123-2.369-69.151l-2.656-71.3-2.715-72.885c-.851-22.844-1.151-45.799-4.368-68.467-3.147-22.176-10.299-43.114-22.292-62.093-11.358-17.974-25.526-34.351-39.705-50.142-7-7.795-14.861-15.23-24.331-19.93-9.923-4.925-20.618-7.272-31.515-8.812-23.897-3.376-47.956-5.819-72.007-7.787-47.432-3.881-95.017-5.086-142.591-3.875-22.999.585-45.979 1.633-68.932 3.207-4.865.334-9.028 3.91-9.028 9.028 0 4.628 4.138 9.363 9.028 9.028 46.432-3.183 92.99-3.835 139.499-2.176 46.32 1.653 92.778 4.838 138.715 11.154 9.106 1.252 18.785 2.767 27.102 6.877 8.744 4.32 15.412 11.209 21.804 18.426 13.479 15.22 27.058 30.723 37.543 48.217 22.479 37.509 20.628 82.25 22.23 124.476l5.322 140.223c.85 22.405 2.244 44.866 2.305 67.289.047 17.69-1.096 36.541-9.563 52.475-17.458 32.852-59.423 39.441-92.75 45.722-44.482 8.383-89.504 13.953-134.676 16.79-90.896 5.708-182.061 3.866-272.978-.241-45.961-2.076-91.988-4.062-137.879-7.359-20.942-1.504-42.099-2.76-62.343-6.983-17.955-3.745-33.893-10.446-45.63-24.501-9.252-11.08-14.439-26.172-17.447-41.799-2.985-15.508-3.585-32.953-3.547-49.947.106-46.342 1.356-92.699 3.473-138.991 2.121-46.389 4.88-92.838 9.337-139.067 2.066-21.433 4.981-42.813 10.401-63.684 4.771-18.374 10.601-39.415 25.433-52.126 12.481-10.696 31.711-13.263 47.832-14.807 23.324-2.233 46.713-3.887 70.116-5.036 46.137-2.265 92.382-2.634 138.558-1.568 93.584 2.162 187.01 9.867 280.187 18.494 22.497 2.083 44.996 4.142 67.493 6.229 6.246.58 6.005-8.859 0-9.629Z"/></g><g fill="#ff8345"><path d="M727.936 607.74c-85.085 9.556-170.616 19.905-252.546 44.769-13.338 4.048-27.759 9.427-34.534 21.609-3.407 6.126-4.414 13.264-5.154 20.235-6.116 57.622 2.168 116.716 23.891 170.435-39.557-12.807-83.185-29.019-101.351-66.42 17.175 36.056 46.68 66.098 82.42 83.919 8.414 4.196 17.289 7.818 24.422 13.943 8.786 7.545 14.161 18.211 19.312 28.584l15.048 30.304c2.393 4.819 4.907 9.793 9.087 13.181 4.527 3.67 10.477 5.039 16.256 5.79 17.986 2.338 36.209-.257 54.145-2.951a4799 4799 0 0 0 239.229-42.143c24.961-5.052 49.9-10.306 74.476-16.983 10.456-2.841 21.285-6.189 29.055-13.741 16.25-15.795 12.787-42.337 7.621-64.401a1494 1494 0 0 0-37.445-132.204c-11.478-34.402-24.86-69.448-50.035-95.552-4.049-4.199-8.536-8.231-14.031-10.188-7.114-2.535-14.949-1.288-22.392-.013l-257.817 44.182"/><path d="M727.936 602.804c-34.177 3.292-68.395 6.358-102.492 10.416a997 997 0 0 0-101.488 17.46c-16.401 3.702-32.701 7.86-48.843 12.566-13.372 3.898-28.155 8.639-37.528 19.598-11.304 13.217-11.759 31.644-12.85 48.205-1.055 16.011-1.073 32.125.15 48.127 2.837 37.128 11.126 73.72 24.954 108.301l12.443-12.443c-7.715-2.521-15.409-5.109-23.017-7.938a335 335 0 0 1-11.062-4.326q-.783-.323-1.565-.652c.342.144 1.871.806.101.035-.775-.338-1.551-.673-2.325-1.016a229 229 0 0 1-5.747-2.639c-7.253-3.454-14.293-7.328-21.001-11.752a135 135 0 0 1-4.7-3.236c-.767-.554-1.518-1.13-2.282-1.687 1.787 1.302-.575-.464-1.1-.891a103 103 0 0 1-8.313-7.545 92 92 0 0 1-5.352-5.928c-.177-.214-1.607-1.957-.703-.843.786.969-.061-.078-.18-.24-.397-.538-.796-1.075-1.184-1.62a84 84 0 0 1-6.866-11.502c-2.36-4.757-9.478-6.458-13.858-3.634-4.908 3.164-6.107 8.743-3.634 13.858 16.186 33.483 43.201 61.634 75.593 79.782 8.175 4.58 16.837 8.199 25.057 12.687 8.792 4.8 13.95 10.497 18.741 18.275 5.326 8.647 9.475 18.041 13.945 27.144l7.707 15.696c2.178 4.436 4.283 8.849 7.304 12.788 7.263 9.467 17.827 12.189 29.146 13.541 11.043 1.319 22.147.886 33.192-.17 11.806-1.129 23.555-3.131 35.281-4.894a4829 4829 0 0 0 34.073-5.245c45.026-7.097 89.98-14.748 134.764-23.245 44.415-8.426 89.236-16.438 132.828-28.543 9.936-2.759 19.702-6.271 27.931-12.629 7.821-6.042 13.23-14.516 16.071-23.946 5.275-17.506 1.914-36.711-2.151-54.089a1487 1487 0 0 0-36.595-129.567c-12.303-37.082-26.666-76.259-55.292-104.131-8.41-8.189-18.417-13.119-30.364-12.647-11.601.459-23.349 3.38-34.772 5.335l-67.82 11.61c-45.39 7.77-90.749 15.714-136.113 23.636-10.996 1.92-21.889 4.467-32.879 6.35-4.76.816-7.857 6.92-6.431 11.327 1.661 5.133 6.226 7.305 11.327 6.431 4.898-.839 11.393-1.535 16.973-2.305 5.446-.752 10.862-1.767 16.283-2.678l33.096-5.564c22.064-3.709 44.139-7.357 66.191-11.133 22.045-3.775 44.088-7.564 66.132-11.346l33.066-5.673 16.253-2.788 7.846-1.346c1.427-.245 2.852-.495 4.281-.729q.77-.127 1.539-.246c.568-.088 2.348-.29.897-.133 2.395-.259 4.8-.44 7.211-.346.678.026 1.361.066 2.034.139-.272-.029-1.305-.318-.2.008.482.142 1.001.205 1.489.332-.065-.017 2.756.841 1.59.428-1.141-.404.607.294.866.428q.61.313 1.203.657a30 30 0 0 1 3.052 2.033c-1.328-1.01.376.381.791.749a66 66 0 0 1 3.017 2.878c3.225 3.25 6.262 6.692 9.137 10.253.397.491.786.989 1.181 1.482-.12-.149-.845-1.121-.146-.191.664.883 1.329 1.764 1.979 2.656a163 163 0 0 1 4.313 6.223c5.152 7.805 9.658 16.022 13.694 24.453a272 272 0 0 1 4.17 9.145c.253.581 1.493 3.54.852 1.98a450 450 0 0 1 5.285 13.411c14.808 39.601 26.595 80.549 37.18 121.457a1492 1492 0 0 1 7.717 31.206c1.012 4.291 1.982 8.59 2.766 12.929q.537 2.967.959 5.952c-.294-2.078.035.402.117 1.149q.186 1.707.32 3.419c.326 4.201.403 8.428.084 12.632a79 79 0 0 1-.28 2.865c.238-2.102-.036.07-.195.915a48 48 0 0 1-1.457 5.811c-.282.88-.622 1.734-.929 2.604-.484 1.374.784-1.533.094-.253-.186.344-.335.713-.511 1.063-.951 1.895-2.083 3.656-3.306 5.384 1.137-1.607-.175.141-.725.743a35 35 0 0 1-2.103 2.113c-.453.417-.933.802-1.39 1.215.134-.121 1.185-.835.238-.176-1.006.7-2.008 1.397-3.058 2.032-1.978 1.196-4.045 2.225-6.157 3.161 1.534-.68-.51.181-1.032.378a95 95 0 0 1-3.979 1.39c-4.596 1.499-9.281 2.723-13.954 3.953-10.684 2.811-21.432 5.371-32.214 7.779-21.618 4.829-43.355 9.135-65.089 13.402-43.603 8.56-87.304 16.643-131.108 24.106a4793 4793 0 0 1-81.925 13.228c-2.567.39-5.135.774-7.705 1.137-.735.104-1.47.209-2.206.306.451-.06 1.282-.164-.769.094-1.943.245-3.144.422-4.425.584-10.777 1.367-21.804 2.061-32.636.929a57 57 0 0 1-1.652-.193c1.42.189-.128-.028-.349-.069-1.067-.195-2.13-.386-3.187-.635s-2.072-.589-3.112-.873c-.168-.046-1.614-.589-.418-.088a18 18 0 0 1-1.635-.807c-2.31-1.258-2.079-1.259-3.799-3.079-1.171-1.238-.523-.622-.269-.282a27 27 0 0 1-1.009-1.48 49 49 0 0 1-1.832-3.105c-5.14-9.377-9.67-19.134-14.468-28.69-4.293-8.55-8.355-17.375-14.045-25.114-6.095-8.29-13.752-14.24-22.816-19.03-8.3-4.387-16.784-8.115-24.741-13.15a180 180 0 0 1-13.214-9.216c.992.765-1.128-.899-1.386-1.106a181 181 0 0 1-5.139-4.277c-6.754-5.836-13.104-12.18-19.028-18.855a184 184 0 0 1-6.054-7.184l-.835-1.051c-1.092-1.371.241.334-.397-.51a188 188 0 0 1-7.464-10.575c-4.73-7.238-8.889-14.823-12.602-22.63l-17.492 10.225c15.662 32.086 48.397 49.618 80.387 61.755 8.909 3.38 17.951 6.391 27.021 9.306 6.802 2.187 15.357-5.256 12.443-12.443a354.5 354.5 0 0 1-19.975-68.221c-1.535-8.213-2.569-15.068-3.389-22.193-1.794-15.596-2.643-31.336-2.466-47.034.09-8.024.453-16.045 1.094-24.044.256-3.198.645-7.678.956-9.993.342-2.546 1.275-7.217 2.585-10.413-.591 1.442.782-1.481.733-1.39q.596-1.093 1.283-2.13c.301-.454.613-.907.942-1.342-1.215 1.608.474-.465.631-.636 1.106-1.205 2.311-2.287 3.548-3.353.25-.215 1.387-.999.084-.07.9-.641 1.808-1.265 2.744-1.851 2.622-1.641 5.391-3.026 8.219-4.272-1.487.655.221-.086.593-.235q.994-.396 1.997-.772a142 142 0 0 1 5.234-1.836c15.415-5.099 31.153-9.35 46.894-13.311 31.927-8.033 64.204-14.094 96.628-19.701 36.653-6.338 73.358-11.891 110.254-16.627 2.643-.339 4.935-2.025 4.935-4.935 0-2.471-2.266-5.192-4.935-4.935Z"/></g><g fill="#d85bd2"><path d="M726.235 172.315c-15.487-24.526-35.282-47.077-50.924-71.383-8.311-12.915 10.777-25.615 19.756-13.155a234 234 0 0 1 6.926 10.193c12.79 19.882 23.23 41.299 37.439 60.193l4.483-80.906c.391-7.048.793-14.168 2.768-20.945 2.879-9.881 8.928-18.483 14.877-26.881 1.911-2.698 5.286-5.717 8.017-3.854 1.58 1.077 1.867 3.25 1.997 5.157a438.9 438.9 0 0 1-10.153 127.941c18.894-16.941 32.743-38.639 48.747-58.333s35.453-38.204 59.935-44.884c1.181-.322 2.443-.614 3.611-.247 2.903.913 3.187 4.899 2.614 7.887-3.861 20.141-20.005 35.309-35.279 48.994-21.185 18.981-42.402 37.988-65.134 55.085 40.466-11.028 82.164-22.159 123.811-17.195 4.619.551 10.346 2.443 10.683 7.083.127 1.748-.633 3.45-1.622 4.897-3.525 5.154-9.715 7.695-15.627 9.703-39.335 13.366-81.508 15.235-123.015 16.984 23.228 13.255 49.189 20.904 73.377 32.312 15.892 7.495 31.466 17.147 43.444 29.779 8.391 8.85-.478 23.213-12.11 19.549-17.846-5.622-34.604-17.55-50.407-28.32a606 606 0 0 0-56.999-34.415c17.709 17.759 29.228 40.621 40.103 63.22 5.7 11.844 11.358 23.894 13.831 36.803q.176.92.328 1.847c2.204 13.42-16.221 19.334-22.373 7.205-16.946-33.409-28.986-69.379-40.873-105.027-16.526 26.267-12.203 60.596-23.385 89.544-3.904 10.106-9.588 19.281-16.237 27.83-7.549 9.705-22.94 3.089-21.166-9.077a389 389 0 0 1 19.304-76.694c4.1-11.279 8.987-22.755 17.844-30.854-24.808 41.402-68.718 70.496-116.192 78.524-11.118 1.88-18.133-11.572-10.5-19.871 28.633-31.13 70.179-50.435 105.173-75.75-28.974 5.3-58.888 5.224-87.876.019-14.025-2.518-12.23-23.408 2.019-23.567a698 698 0 0 1 104.256 6.653"/><path d="M730.08 170.068c-7.799-12.805-16.608-24.947-25.413-37.069-4.3-5.919-8.583-11.859-12.756-17.872a450 450 0 0 1-6.276-9.271c-1.931-2.936-4.073-5.879-5.669-9.013-.05-.097-.216-.585-.326-.685l.338.779a12 12 0 0 1-.231-.675c-.153-.494-.218-1.009-.357-1.503-.219-.778.086 1.67.089.494 0-.214-.019-.429-.019-.643 0-.286.093-.672.045-.95.084.478-.282 1.578-.034.425.097-.453.246-.885.378-1.327.378-1.264-.679 1.319.043-.03.237-.442.585-.845.804-1.29-.645 1.314-.771.914-.333.445.243-.26.473-.53.727-.781.235-.232 1.472-1.239.506-.505-.985.749.351-.212.612-.37.438-.265.924-.453 1.357-.718-1.354.829-1.197.467-.695.299.34-.114.674-.236 1.019-.333.443-.125.908-.175 1.347-.301-2.079.598-.658.08.093.074.743-.006 2.222.473.092-.1.502.135 1.02.198 1.521.353 1.624.503-1.317-.722.191.06.489.253.933.645 1.423.879-1.255-.602-.965-.808-.541-.399.216.208.444.403.657.616.22.22.419.458.634.682.93.971-.847-1.309-.103-.133 2.089 3.303 4.351 6.492 6.409 9.818 3.892 6.29 7.615 12.694 11.328 19.093 8.242 14.207 16.287 28.579 26.125 41.768 1.909 2.559 4.995 4.467 8.327 3.388 3.227-1.044 5.218-3.738 5.413-7.11 1.083-18.716 2.131-37.434 3.188-56.151.52-9.205 1.002-18.413 1.564-27.615.128-2.099.275-4.197.483-6.29.05-.501.576-2.376.325-2.844l-.111.858q.082-.565.174-1.129.182-1.127.405-2.247a51 51 0 0 1 1.554-5.961q.415-1.259.895-2.495c.16-.414.586-2.066.047-.166.185-.653.584-1.315.875-1.928 1.749-3.688 3.849-7.2 6.087-10.61a198 198 0 0 1 3.31-4.864q.842-1.203 1.692-2.401c.257-.362.519-.721.771-1.087q.691-.941-.359.465.297-.354.615-.69c.113-.119 1.008-.836 1.006-.96.01.438-1.439.964-.259.258.54-.323 1.431-.525-.479.15l.382-.1a4.3 4.3 0 0 1-2.492.001l-1.064-.484q-1.394-1.233-.566-.438l-.717-.891q.4.786-.049-.171c-.616-1.07-.131-.076-.032.284.356 1.292-.175-1.989-.021.078.334 4.474.53 8.964.69 13.447.643 17.924.338 35.945-1.244 53.814a442 442 0 0 1-1.605 15.141c-.156 1.259-.321 2.518-.483 3.776-.157 1.212.262-1.879-.004.028q-.16 1.16-.324 2.319a443 443 0 0 1-1.139 7.523 441 441 0 0 1-5.86 29.864c-.74 3.19.458 7.011 3.509 8.623 3.127 1.652 6.63 1.156 9.253-1.194 15.728-14.087 28.112-31.368 40.936-48.012.905-1.175-.834 1.075.074-.095l1.309-1.683q1.147-1.47 2.304-2.934a375 375 0 0 1 4.961-6.145 231 231 0 0 1 9.225-10.53 181 181 0 0 1 10.144-10.057 139 139 0 0 1 5.366-4.664c.859-.708 1.881-1.355 2.668-2.139.037-.037-1.369 1.042-.667.517l.777-.588q.778-.584 1.567-1.155c3.789-2.744 7.75-5.254 11.883-7.447a89 89 0 0 1 3.011-1.525c1.054-.509 2.304-.882 3.289-1.503.052-.033-1.635.673-.815.344.299-.12.595-.245.894-.364q.785-.315 1.576-.613a78 78 0 0 1 6.689-2.181c.66-.181 2.384-.305.162-.182.383-.021.978.171-.042-.07a2.17 2.17 0 0 1-1.202-.329q-1.09-.517-.352-.09c-.62-.396-1.106-.806-1.546-1.389-.808-1.072-.401-.54-.242-.271.602 1.015-.488-.96-.392-.97.025-.003.208.758.191.701.367 1.187-.061-1.917-.097-.643-.015.513-.017 1.033-.027 1.547-.024 1.306.135-1.076.151-1.013.036.145-.147.781-.157.834a50.4 50.4 0 0 1-2.312 7.961c-.112.293-.234.583-.346.876-.315.825.394-.912.359-.844-.28.558-.508 1.148-.774 1.713-1.955 4.143-4.399 8.042-7.13 11.716-.19.255-.397.504-.576.766-.04.058 1.099-1.399.545-.705-.35.439-.695.88-1.048 1.316q-1.141 1.406-2.331 2.772a130 130 0 0 1-4.781 5.186c-6.91 7.117-14.469 13.583-21.897 20.145-8.416 7.436-16.859 14.841-25.427 22.101a835 835 0 0 1-12.727 10.58 705 705 0 0 1-3.16 2.556c-.528.424-1.059.845-1.586 1.271-.411.332-1.296.806.406-.298-.782.508-1.5 1.155-2.231 1.737a690 690 0 0 1-6.605 5.214c-.254.198-1.28.989-.257.201.972-.749.162-.125-.029.021q-.805.619-1.612 1.236-1.73 1.321-3.47 2.627c-1.819 1.366-3.513 2.917-4.047 5.263-.449 1.969-.345 3.864.444 5.734 1.69 4.004 6.113 6.258 10.389 5.099 23.72-6.432 47.543-12.812 71.94-16.114l-2.365.318c17.286-2.303 34.931-3.093 52.273-.881l-2.382-.32c1.838.261 3.63.684 5.352 1.384l-2.142-.904c.47.206.934.421 1.38.677.34.194 1.741 1.216.31.125-1.406-1.072-.178.012.117.27-1.746-1.527-.995-1.438-.495-.361l-.905-2.144c.174.45.294.889.375 1.364l-.321-2.387c.05.482.048.927.012 1.412l.321-2.387a9.3 9.3 0 0 1-.565 2.009l.905-2.146c-.305.649-.678 1.227-1.037 1.844q-.808 1.125.567-.703-.293.357-.605.697-.622.678-1.311 1.29-.343.306-.702.596 1.738-1.315.903-.705a37 37 0 0 1-6.385 3.47l2.15-.907c-8.809 3.646-18.264 6.07-27.532 8.224-9.675 2.249-19.467 3.95-29.308 5.284l2.412-.324c-23.566 3.158-47.337 4.198-71.073 5.189-3.87.162-7.878 2.701-8.787 6.69-.893 3.919.575 8.235 4.188 10.291 19.957 11.357 41.805 18.762 62.9 27.644l-2.183-.921c9.247 3.907 18.394 8.134 27.176 13.01 4.287 2.38 8.562 4.9 12.55 7.754.997.714 1.979 1.446 2.959 2.183 1.265.951-1.346-1.067-.108-.083.546.434 1.093.867 1.634 1.307a113 113 0 0 1 5.511 4.783 103 103 0 0 1 4.434 4.363c.638.671 1.37 2.079-.016-.212.255.421.563.805.808 1.236.209.367.849 1.807.179.229-.684-1.612-.052-.001.059.419.129.489.218.984.287 1.485l-.313-2.33c.108.991.1 1.969-.019 2.958l.313-2.331a13 13 0 0 1-.372 1.754c-.076.261-.172.515-.251.774-.402 1.318 1.039-2.105.377-.897a32 32 0 0 1-.893 1.547c-.722 1.157.524-.758.695-.863-.202.123-.478.556-.645.73-.377.395-.796.73-1.198 1.097 2.247-2.053.759-.591-.134-.128-.352.183-1.386.624.153-.031s.499-.219.117-.1c-.647.202-1.307.334-1.979.425l2.336-.314c-.95.1-1.882.093-2.831-.014l2.337.314c-1.631-.233-3.18-.785-4.73-1.328a92 92 0 0 1-4.946-1.894q1.803.767.876.369a139 139 0 0 1-10.649-5.21c-7.153-3.894-13.996-8.33-20.742-12.885-13.865-9.362-27.653-18.764-42.049-27.304a611 611 0 0 0-25.255-14.176c-3.941-2.092-8.704-1.285-11.465 2.289-2.682 3.472-2.451 8.505.695 11.67a131 131 0 0 1 8.756 9.748c.658.811 1.332 1.619 1.952 2.46.045.061-1.168-1.534-.59-.759.156.21.317.417.475.626q.552.732 1.094 1.47a166 166 0 0 1 3.775 5.354c4.921 7.272 9.298 14.899 13.391 22.663 4.143 7.859 8.108 15.826 12.075 23.776a340 340 0 0 1 3.09 6.335c.484 1.021.982 2.023 1.431 3.062.123.283.841 1.981.357.816-.452-1.086-.071-.17.016.042l.43 1.043c1.77 4.339 3.348 8.762 4.581 13.284a83 83 0 0 1 1.545 6.708c.072.389.327 2.095.108.409-.209-1.605-.045-.265-.025.116q.026.5.013 1.003c-.005.163-.021.326-.022.489-.006 1.06.176-1.204.191-1.241-.215.529-.266 1.231-.42 1.792-.039.141-.119.281-.148.424-.113.552.496-1.274.551-1.28-.077.009-.404.807-.463.912-.143.252-.308.489-.457.737-.025.041-.26.318-.247.353-.011-.032 1.244-1.472.843-1.101-.443.409-.873.887-1.296 1.32-.788.804 1.736-1.157.769-.58-.284.169-.548.374-.832.544q-.366.219-.745.413c-.126.064-.258.12-.382.188-.854.466 1.135-.508 1.173-.491-.212-.094-1.351.444-1.627.511s-.559.108-.836.173c-1.054.247 2.364-.166.903-.14a46 46 0 0 1-1.708 0c-1.348-.028 1.506.291 1.037.157-.318-.091-.659-.125-.981-.208-.279-.072-.551-.165-.828-.248-1.408-.424.883.197.87.39.002-.026-1.527-.89-1.669-.956-.547-.257 1.059.85 1.04.821-.072-.11-.256-.206-.354-.296-.229-.214-.463-.419-.683-.644-.224-.229-.42-.489-.645-.716-.438-.44.777.968.764.994.02-.04-.346-.501-.383-.559-1.127-1.737-1.967-3.695-2.887-5.546a301 301 0 0 1-6.058-12.924 460 460 0 0 1-2.044-4.725l-.336-.79c-.411-.966-.017-.091.159.376-.836-2.223-1.829-4.399-2.719-6.602a600 600 0 0 1-5.194-13.321c-6.736-17.876-12.54-36.095-18.577-54.214q-1.131-3.395-2.259-6.791c-1.145-3.446-3.811-5.949-7.476-6.442-3.608-.485-7.025 1.197-8.961 4.293-14.027 22.432-13.949 49.314-19.357 74.396-1.537 7.13-3.642 14.043-6.452 20.774l.915-2.168c-2.714 6.394-6.153 12.338-9.939 18.147-.933 1.432-1.943 2.811-2.967 4.18l-.651.864c-1.077 1.434.795-.91.266-.343-.419.449-.788.923-1.237 1.347-.12.114-.626.458-.658.58.021-.079 1.883-1.321.957-.759-.474.288-.94.566-1.429.832-1.121.609 2.002-.699 1.061-.442-.254.069-.501.177-.754.25-.503.147-1.015.25-1.532.333l2.334-.314a12.8 12.8 0 0 1-3.392-.002l2.333.313a13 13 0 0 1-1.801-.401c-.245-.074-.484-.17-.728-.246-.936-.293 2.219 1.039 1.104.468-.55-.282-1.09-.565-1.605-.91-.327-.219-1.179-.874.142.14 1.37 1.051.358.259.067-.016-.407-.384-.736-.893-1.154-1.253.291.251 1.45 2.026.648.756q-.21-.334-.396-.681c-.125-.233-.227-.48-.353-.712 1.253 2.309.678 1.693.422.891a12.6 12.6 0 0 1-.441-1.945l.313 2.33a14 14 0 0 1 .027-3.574l-.313 2.33a392 392 0 0 1 9.499-45.84 370 370 0 0 1 10.508-32.732 183 183 0 0 1 1.825-4.691l.383-.933c.703-1.726-.856 1.945-.1.244.341-.767.676-1.537 1.027-2.299 1.605-3.481 3.407-6.881 5.528-10.077a55 55 0 0 1 1.563-2.237c.416-.565 1.261-1.229-.332.409.34-.35.622-.777.938-1.152a46 46 0 0 1 4.123-4.304l-13.915-10.736a159 159 0 0 1-7.839 11.763c-.639.872-1.292 1.733-1.944 2.595-.658.869 1.217-1.559.543-.703l-.428.547a163 163 0 0 1-5.774 6.936 167 167 0 0 1-22.747 21.387c-1.115.874.674-.517.723-.558-.236.196-.494.377-.737.562q-.738.56-1.483 1.112a196 196 0 0 1-5.662 4.038 173.4 173.4 0 0 1-28.948 16.066c-.681.297-2.943 1.212-.211.101-2.148.873-4.295 1.746-6.469 2.553-9.777 3.631-19.996 6.484-30.314 8.078l2.365-.318a13.3 13.3 0 0 1-3.273.014l2.364.318a12 12 0 0 1-1.836-.411c-.266-.084-.524-.196-.789-.28 2.533.799 1.672.739.928.334-.483-.263-.915-.584-1.374-.883 2.553 1.662.906.701.234-.021-.16-.172-.347-.485-.532-.611.164.112 1.435 2.051.718.886a25 25 0 0 1-.882-1.549c-.595-1.143.747 2.032.455 1.076-.079-.259-.181-.511-.258-.772a13.4 13.4 0 0 1-.406-1.914l.317 2.363c-.115-.991-.12-1.97-.013-2.961l-.317 2.362c.1-.732.278-1.428.471-2.138.027-.098.192-.395.167-.487-.009-.035-.907 1.932-.561 1.32.234-.414.422-.849.672-1.256.207-.337 1.047-1.459.041-.162-1.044 1.347.08-.024.372-.342q1.172-1.27 2.375-2.511a177 177 0 0 1 9.468-9.071 218 218 0 0 1 10.321-8.624q.59-.464 1.183-.925c.88-.689-1.495 1.146-.606.468l.597-.457q1.397-1.066 2.808-2.116a318 318 0 0 1 5.297-3.854c14.899-10.612 30.594-20.033 46.03-29.827 8.656-5.492 17.237-11.108 25.549-17.112 3.608-2.606 5.442-6.729 3.62-11.048-1.803-4.272-6.03-5.923-10.437-5.122a254 254 0 0 1-10.978 1.746l2.352-.316c-21.862 2.933-44.052 2.897-65.915-.006l2.352.316a254 254 0 0 1-9.542-1.469c-1.124-.196-2.251-.373-3.337-.736-.182-.061-.396-.186-.585-.212-.011-.002 2.197 1.057 1.282.53-.381-.219-.776-.402-1.149-.638-.157-.1-.31-.23-.473-.317-.675-.361 1.648 1.418 1.125.872-.251-.263-.552-.484-.808-.746-.316-.324-1.211-1.457-.105-.022 1.131 1.466.173.19-.063-.204-.182-.305-.328-.627-.501-.936-.497-.888.584 1.46.576 1.387-.019-.161-.135-.34-.183-.496a16 16 0 0 1-.551-2.314l.316 2.354a14 14 0 0 1-.018-3.44l-.316 2.355c.084-.615.199-1.222.364-1.821.275-.999 1.214-2.481-.272.369.267-.512.497-1.029.805-1.521.088-.141.535-.625.522-.768.021.233-1.764 2.017-.712.969.377-.376.8-.729 1.161-1.115-1.755 1.873-1.614 1.187-.804.659.273-.178.559-.327.838-.494.715-.428 1.64-.309-1.086.414.275-.073.552-.21.824-.296a13 13 0 0 1 2.092-.46l-2.356.317c2.893-.343 5.898-.152 8.807-.154a702 702 0 0 1 30.166.637 698 698 0 0 1 62.776 5.531l-2.367-.318q2.073.279 4.144.568c2.479.345 4.608.422 6.863-.898 1.848-1.081 3.61-3.2 4.093-5.323.519-2.28.407-4.84-.898-6.863-1.162-1.802-3.094-3.783-5.323-4.093q-2.663-.369-5.328-.724l2.368.318c-18.363-2.468-36.788-4.336-55.288-5.406a698 698 0 0 0-40.609-1.163c-4.213.002-8.535-.232-12.686.635-13.496 2.819-19.341 19.337-12.843 30.798 1.657 2.923 4.178 5.428 7.057 7.147 3.243 1.936 6.719 2.528 10.37 3.12 9.249 1.501 18.577 2.588 27.932 3.133 20.277 1.181 40.633-.215 60.611-3.845l-6.817-16.17c-18.07 13.051-37.372 24.242-56.047 36.379-9.683 6.293-19.14 12.895-28.23 20.021-4.31 3.379-8.511 6.9-12.551 10.599s-8.235 7.534-11.595 11.883c-7.529 9.745-4.686 23.656 5.408 30.365a17.7 17.7 0 0 0 6.786 2.661c3.643.594 6.803.231 10.436-.43 5.012-.911 9.98-2.057 14.886-3.426 19.945-5.565 39.194-14.588 56.039-26.652 17.485-12.521 32.658-27.971 44.55-45.913a160 160 0 0 0 3.949-6.28c2.275-3.804 1.145-8.781-2.282-11.429-3.546-2.739-8.368-2.344-11.633.693-6.91 6.427-11.816 14.704-15.507 23.311-4.09 9.539-7.411 19.39-10.476 29.3a392 392 0 0 0-7.914 29.6c-2.361 10.468-4.549 21.12-5.775 31.789-.484 4.214.61 8.92 2.923 12.487 2.653 4.091 6.282 6.802 10.762 8.586 7.939 3.162 17.621.263 22.813-6.4a212 212 0 0 0 3.169-4.15q.483-.651.957-1.308c.158-.219.319-.436.472-.658 1.146-1.662-1.936 2.439.269-.415 1.601-2.072 3.05-4.268 4.45-6.48 2.538-4.013 4.83-8.189 6.776-12.522 3.929-8.744 6.456-17.924 8.227-27.327 3.24-17.205 4.252-34.962 9.866-51.65a91 91 0 0 1 2.214-5.885l-.908 2.151c1.52-3.593 3.289-7.062 5.351-10.375L749.788 214c1.606 4.799 3.212 9.598 4.832 14.392a2170 2170 0 0 0 3.606 10.588c.186.542.357 1.092.559 1.628l.452 1.071q.803 1.872.213.535-.457-1.073-.042.004l.197.54c1.708 4.678 3.441 9.346 5.209 14.002 1.013 2.667 1.966 5.374 3.075 8.002 1.061 2.515.009.334 0 .046.007.227.226.59.308.804l.619 1.607q.725 1.873 1.458 3.743c3.888 9.899 7.984 19.724 12.379 29.409a744 744 0 0 0 6.404 13.703c1.932 4.035 3.661 8.349 6.86 11.583 5.355 5.415 14.029 7.284 21.112 4.409 4.177-1.695 7.465-4.191 10.036-7.932 2.153-3.132 3.225-7.36 3.061-11.136-.216-4.987-1.624-10.127-3.058-14.884-1.591-5.277-3.629-10.394-5.79-15.46-.221-.519-.459-1.032-.672-1.555-.354-.868.331.696.329.691-.396-.769-.715-1.701-1.07-2.534a296 296 0 0 0-1.463-3.377 542 542 0 0 0-3.135-6.961c-1.944-4.256-3.896-8.504-5.989-12.689-8.528-17.052-18.131-33.689-30.872-47.985a128 128 0 0 0-4.677-4.969l-10.77 13.959a621 621 0 0 1 50.516 30.04c15.469 10.224 30.429 21.631 47.528 29.073 4.263 1.855 8.928 4.151 13.565 4.89 4.886.779 9.671.234 14.018-2.28 7.93-4.585 11.7-13.888 9.909-22.725-.935-4.617-3.909-8.292-7.151-11.529a112 112 0 0 0-9.746-8.624 178 178 0 0 0-6.805-5.142c-.401-.286-.84-.711-1.289-.91.359.159 2.148 1.675.044.049a45 45 0 0 0-1.318-.991 116 116 0 0 0-2.824-1.947 168 168 0 0 0-11.468-7.042c-16.665-9.367-34.977-15.658-52.635-22.849a584 584 0 0 1-6.39-2.646l2.18.92c-8.992-3.803-17.858-7.91-26.352-12.735l-4.599 16.98c19.759-.841 39.536-1.702 59.209-3.816 20.167-2.166 40.296-5.518 59.712-11.491 8.965-2.758 19.431-5.727 25.527-13.385 2.61-3.279 4.453-6.703 4.771-10.963.213-2.857-.655-6.142-2.315-8.489-3.082-4.358-7.826-6.966-13.023-7.978s-10.676-1.326-15.977-1.587a192 192 0 0 0-15.174-.129c-10.743.325-21.439 1.519-32.057 3.147-20.247 3.103-40.113 8.234-59.859 13.599q-3.694 1.004-7.385 2.016l6.786 16.095c19.138-14.448 37.188-30.205 54.991-46.252 7.849-7.075 15.842-14.045 23.315-21.522 7.197-7.201 14.043-15.133 18.899-24.13 2.517-4.664 4.615-9.689 5.918-14.834 1.495-5.904 2.075-12.934-2.624-17.649-5.449-5.469-13.094-2.953-19.369-.634-5.099 1.884-10.075 4.157-14.796 6.853-17.707 10.112-31.959 25.156-44.463 41.033-6.962 8.84-13.578 17.942-20.422 26.873-.378.493-.761.983-1.137 1.478 1.302-1.716-.153.191-.421.536a369 369 0 0 1-2.641 3.345 269 269 0 0 1-5.066 6.163c-3.434 4.046-6.998 7.986-10.747 11.743a155 155 0 0 1-5.774 5.494l12.762 7.429c8.505-37.492 12.425-76.333 11.119-114.769a435 435 0 0 0-.703-14.034c-.192-2.891-.464-5.603-1.701-8.252-1.379-2.952-4.202-5.215-7.39-5.9-6.463-1.389-11.523 3.036-15.052 7.879a178 178 0 0 0-7.192 10.613c-4.965 7.962-8.692 16.571-10.055 25.895-1.459 9.986-1.644 20.148-2.191 30.213-1.192 21.937-2.399 43.873-3.561 65.812l13.74-3.721c-9.346-12.402-17.106-25.869-24.933-39.252-3.924-6.708-7.874-13.38-12.183-19.847a241 241 0 0 0-7.047-10.047c-2.162-2.914-4.428-5.637-7.769-7.255-5.709-2.765-12.481-2.485-17.891.913-5.203 3.268-8.767 8.797-8.91 15.021-.167 7.273 5.076 13.168 9.076 18.724 4.769 6.624 9.746 13.094 14.762 19.532 5.176 6.644 10.723 13.674 15.983 20.607 5.379 7.09 10.615 14.29 15.504 21.727 1.32 2.008 3.94 2.857 6.093 1.598 2.052-1.2 2.854-4.031 1.598-6.093Z"/></g><path d="M668.204 255.996c-29.978-.904-59.853-3.472-89.771-5.439a3919 3919 0 0 1-89.662-6.93c-59.736-5.308-119.367-11.854-178.806-19.837-24.431-3.281-48.973-7.538-73.706-8.132-22.827-.549-46.348 2.021-66.886 12.629-22.76 11.756-37.074 32.768-44.993 56.623-3.989 12.016-6.499 24.456-9.08 36.831-3.052 14.634-6.136 29.262-9.178 43.898-12.173 58.575-24.183 117.229-32.192 176.54-2.008 14.869-3.986 29.759-6.302 44.583-2.292 14.664-5.578 29.615-6.215 44.463-.486 11.335 2.27 22.571 9.65 31.35 5.966 7.097 13.663 12.25 22.11 15.944 23.028 10.068 47.603 16.004 72.03 21.578 29.329 6.692 58.816 12.06 88.655 15.891 59.029 7.581 118.474 9.9 177.82 13.659 60.145 3.81 120.281 7.753 180.433 11.481 15.058.933 30.114 1.88 45.169 2.856 11.77.763 23.529 2.043 35.324 2.34 11.956.301 24.7-.326 35.973-4.659 11.636-4.473 20.443-12.503 25.83-23.797 2.221-4.656 4.885-10.077 5.591-15.253.413-3.025.794-6.053 1.177-9.082l.22-1.721c.198-1.507-.215 1.447.016-.087q.133-.873.26-1.748c.135-.935 1.023-4.001.351-2.142 1.569-4.341-1.767-9.358-5.969-10.513-4.749-1.305-8.938 1.612-10.513 5.969l-.293.809 2.198-3.771c-3.277 3.895-5.291 8.8-7.669 13.275-1.483 2.791-2.494 5.704-3.571 8.658-.419 1.15-.865 2.29-1.322 3.425.985-2.448-.57 1.139-.906 1.807-1.009 2.006-2.171 3.893-3.412 5.762-1.146 1.726-.072.096.19-.208-.386.447-.757.901-1.156 1.338-.902.988-1.975 1.805-2.882 2.774-1.078 1.153 1.556-.938.168-.142-.394.226-.762.521-1.148.763-1.073.672-2.193 1.236-3.325 1.799-1.927.958-.344.143.072-.01-.613.225-1.219.462-1.836.676-1.41.487-2.842.907-4.287 1.276a65 65 0 0 1-3.966.877c-.694.131-3.805.61-1.566.316-2.987.393-6.002.6-9.012.714-5.956.226-11.921.031-17.868-.322-12.09-.718-24.162-1.746-36.252-2.496-58.621-3.637-117.265-6.883-175.879-10.627-58.068-3.71-116.231-5.779-174.273-9.905a1262 1262 0 0 1-85.451-9.024c-28.452-3.982-56.641-9.332-84.814-14.882-9.938-1.958-19.905-2.957-29.502-6.394-7.863-2.816-16.32-6.968-20.965-14.202-6.476-10.088-5.308-22.264-3.184-33.526 2.675-14.181 5.551-28.381 8.755-42.45 6.419-28.185 13.313-56.235 19.316-84.515 6.059-28.541 11.978-57.099 17.845-85.68 5.873-28.608 11.839-57.2 18.132-85.719 2.592-11.745 5.248-23.529 9.348-34.858a169 169 0 0 1 1.591-4.186c.834-2.123.332-.823.135-.365.292-.681.596-1.358.903-2.031 1.226-2.686 2.552-5.329 4.008-7.898s3.097-5.004 4.753-7.45c.159-.235 1.284-1.74.206-.337.451-.587.929-1.16 1.403-1.727a72 72 0 0 1 3.133-3.497 73 73 0 0 1 5.269-4.996c.404-.346 3.476-2.684 1.389-1.184 1.153-.829 2.293-1.668 3.476-2.454a78 78 0 0 1 6.05-3.635 83 83 0 0 1 5.057-2.513c.282-.129 2.71-1.14 1.219-.546-1.4.559.48-.174.814-.303a99 99 0 0 1 4.923-1.75c2.587-.841 5.189-1.626 7.825-2.3a122 122 0 0 1 7.593-1.678q1.688-.318 3.383-.593c.649-.105 1.299-.201 1.948-.301 3.254-.503-2.364.253.928-.122 21.627-2.466 43.42-.913 64.979 1.513 57.518 6.473 115.04 12.385 172.764 16.734 58.091 4.376 116.323 7.422 174.571 8.381 14.291.235 28.569.446 42.856.877 6.741.203 6.734-10.269 0-10.472Z"/><path d="M725.523 248.714c6.621-2.403 12.068-2.942 19.131-2.35 1.274.107.578.057.286.018a53 53 0 0 1 3.498.624q2.552.544 5.043 1.323a62 62 0 0 1 4.658 1.668c-1.113-.446 1.205.54 1.406.634a66 66 0 0 1 2.386 1.174 71 71 0 0 1 8.907 5.496c.31.224 1.967 1.483.932.67a79 79 0 0 1 6.192 5.416c2.581 2.506 4.929 5.199 7.202 7.984.792.97-.765-1.068-.046-.053.199.281.413.554.617.832a83 83 0 0 1 1.591 2.26 76 76 0 0 1 2.944 4.679c1.785 3.09 3.429 6.22 4.892 9.475.533 1.186-.572-1.5-.129-.284.116.319.251.632.373.949q.554 1.451 1.055 2.922a102 102 0 0 1 2.025 6.661c1.16 4.335 1.979 8.723 2.671 13.153.237 1.514-.154-1.507-.002.013.043.429.103.857.151 1.286a132 132 0 0 1 .338 3.44c.197 2.304.322 4.612.421 6.923.387 9.072.041 18.142-.797 27.181a293 293 0 0 1-.692 6.614 356 356 0 0 1-.371 3.086l-.225 1.763c-.254 2.013.134-.9-.048.36a739 739 0 0 1-2.062 13.571c-6.391 39.196-12.975 78.362-19.345 117.563-6.33 38.958-12.481 77.949-19.024 116.872-2.972 17.682-6.231 35.336-10.635 52.725-2.205 8.705-4.644 17.369-7.457 25.899a270 270 0 0 1-4.514 12.649c-.78 2.02-1.599 4.024-2.417 6.029-.592 1.453.677-1.539.041-.102-.176.397-.343.798-.517 1.196a247 247 0 0 1-1.592 3.57c-1.143 2.505-2.551 4.985-3.454 7.585-.913 2.626-.49 5.454-.39 8.169.204 5.556 6.347 9.698 11.41 6.548 2.741-1.705 5.547-3.286 7.389-6.035 1.28-1.911 2.213-4.075 3.2-6.156 2.246-4.735 4.318-9.553 6.303-14.403 3.508-8.572 6.542-17.334 9.214-26.202 5.331-17.693 8.924-35.93 12.141-54.108 7-39.558 12.967-79.318 19.375-118.977 6.549-40.529 13.308-81.03 19.422-121.628 5.545-36.814 10.724-77.872-8.216-111.951-14.541-26.163-45.581-45.802-76.019-40.287a50 50 0 0 0-10.172 2.996c-2.732 1.128-4.678 3.635-3.825 6.737.737 2.682 3.943 4.839 6.737 3.825Z"/><path d="M166.582 285.029c5.348-2.465 11.208-5.008 17.181-5.218 6.134-.215 9.866 2.91 13.16 7.785 7.391 10.938 14.296 22.204 21.674 33.155 14.995 22.256 29.294 45.016 43.138 68.003 13.492 22.401 25.782 45.461 38.855 68.099 12.666 21.934 27.35 42.847 48.021 57.927 20.281 14.796 45.87 21.709 70.551 15.55 12.544-3.131 24.447-8.983 35.819-15.022 11.312-6.008 22.406-12.451 33.548-18.769 45.236-25.653 90.015-52.432 130.557-85.173 20.913-16.889 39.805-35.971 59.913-53.767 9.66-8.55 19.637-16.755 29.964-24.487 5.305-3.972 10.698-7.817 16.143-11.595 5.292-3.672 10.446-7.617 16.174-10.605 4.487-2.341 9.534-4.048 14.491-2.925 3.769.854 7.752-1.153 8.81-5.002 1.129-4.11-1.41-7.332-5.002-8.81-13.269-5.458-26.968 2.332-37.961 9.366-11.603 7.424-22.655 15.763-33.464 24.291-21.371 16.863-40.625 36.012-60.879 54.146-38.701 34.649-82.888 62.398-127.882 88.289-11.209 6.45-22.48 12.792-33.762 19.113-10.935 6.126-22.403 13.138-33.587 17.495-5.799 2.259-11.761 4.141-17.872 5.348a67 67 0 0 1-4.073.7c1.315-.176-.382.028-.537.043-.857.085-1.71.193-2.568.269a67 67 0 0 1-9.485.171c-1.254-.067-2.501-.188-3.751-.308-2.978-.287 1.076.197-.685-.095a90 90 0 0 1-2.305-.405 74 74 0 0 1-8.167-2.079 81 81 0 0 1-6.189-2.239c.392.161 1.496.677-.27-.129a102 102 0 0 1-7.603-3.851c-10.546-5.918-17.816-12.011-26.231-21.327-8.085-8.95-14.384-18.256-20.998-29.157-6.549-10.793-12.528-21.917-18.745-32.901-6.754-11.933-13.877-23.666-21.121-35.307-14.229-22.865-29.37-45.061-45.341-66.744-8.147-11.06-16.687-21.869-25.651-32.274-3.985-4.625-7.873-9.753-13.299-12.781-5.393-3.01-11.451-3.366-17.391-1.999-5.875 1.352-11.353 4.505-16.458 7.609-3.637 2.211-.462 7.338 3.281 5.612Z"/><path d="M205.337 293.668c22.532 62.58 80.417 179.724 108.95 239.855 11.701 24.659 24.776 43.437 52.568 50.924 23.042 6.207 48.858 3.506 70.907-5.185 35.323-13.922 63.556-41.047 90.442-67.856 50.537-50.394 133.57-138.819 181.6-191.607-71.457 70.391-176.197 161.453-263.863 193.697-25.018 9.202-52.648 15.751-78.124 7.904-23.075-7.108-41.27-25.213-54.778-45.225-20.669-30.622-56.855-112.444-81.573-140.378"/><path d="M201.042 294.852c3.109 9.62 6.605 19.1 10.01 28.613 1.93 5.391 3.904 10.766 5.909 16.13 1.09 2.914 2.114 5.872 3.279 8.752.196.484.412.958.615 1.439-.06-.141-.309-.733-.008-.014q.47 1.124.937 2.248.947 2.269 1.9 4.534a2630 2630 0 0 0 15.622 36.351 3580 3580 0 0 0 2.883 6.558l.458 1.038q.32.742-.025-.102l.777 1.84c1.333 3.001 2.734 5.974 4.104 8.958q4.2 9.147 8.442 18.276a5688 5688 0 0 0 32.598 69.008c4.714 9.804 9.432 19.605 14.125 29.419 4.876 10.197 9.526 20.548 15.789 29.995 6.875 10.37 15.435 19.535 26.177 25.957 12.856 7.687 27.982 11.085 42.817 11.868 32.149 1.698 62.966-10.343 89.048-28.411 24.002-16.628 44.37-37.726 64.863-58.353 17.792-17.909 35.341-36.058 52.801-54.291a7699 7699 0 0 0 57.89-61.149c17.52-18.7 34.963-37.472 52.282-56.359q5.46-5.955 10.902-11.929c2.793-3.066 3.03-7.834 0-10.864-2.963-2.963-7.897-2.919-10.864 0-31.858 31.346-64.863 61.576-99.398 89.959-18.253 15.001-35.595 28.439-54.96 42.152-18.137 12.844-36.8 24.992-56.193 35.861-8.916 4.997-17.988 9.721-27.245 14.056a341 341 0 0 1-9.8 4.406c-.166.071-2.322.985-.72.312q-.97.406-1.94.807a285 285 0 0 1-14.603 5.557c-11.583 4.047-24.765 7.731-36.111 8.927-12.647 1.333-23.983.692-35.752-3.361a79 79 0 0 1-3.706-1.387c1.182.475-.374-.161-.653-.285a78 78 0 0 1-1.789-.825 83 83 0 0 1-7.61-4.135 92 92 0 0 1-6.551-4.409 79 79 0 0 1-1.268-.949c1.148.881-.897-.727-.893-.724a109 109 0 0 1-3.638-3.09c-8.283-7.355-15.039-15.449-20.752-23.754-8.793-12.783-15.964-26.714-23.217-40.401-9.058-17.094-17.892-34.307-27.192-51.271-8.086-14.749-16.459-29.549-26.62-42.993-2.192-2.901-4.445-5.74-6.847-8.47-2.75-3.125-8.084-2.81-10.894 0-3.102 3.102-2.757 7.762 0 10.894 1.019 1.157 1.982 2.359 2.945 3.563.347.434 1.16 1.161-.208-.276.269.282.487.64.722.953q.812 1.083 1.604 2.182c2.257 3.128 4.401 6.338 6.479 9.587 4.771 7.457 9.182 15.137 13.548 22.836 9.614 16.953 18.59 34.26 27.671 51.501 17.573 33.36 35.322 70.499 69.505 89.879 23.383 13.257 50.299 13.354 75.842 7.065 21.633-5.326 42.458-14.303 62.243-24.436 41.014-21.005 78.759-48.167 114.731-76.806 35.88-28.565 70.046-59.273 102.986-91.169q5.597-5.421 11.148-10.892l-10.864-10.864c-16.084 17.689-32.305 35.253-48.593 52.754a8149 8149 0 0 1-56.611 60.223c-18 18.951-36.089 37.819-54.369 56.501-18.393 18.798-36.82 37.771-56.955 54.724-5.929 4.992-10.46 8.537-16.639 12.95-6 4.286-12.21 8.281-18.655 11.867a164 164 0 0 1-9.83 5.05c-3.746 1.765-5.4 2.475-9.145 3.872a124 124 0 0 1-22.781 6.1c-2.145.36-2.269.385-4.089.595q-3.125.362-6.265.555c-3.878.239-7.768.288-11.65.127a106 106 0 0 1-8.006-.633c.055.006-1.391-.179-.695-.084.617.085-1.361-.212-1.568-.245a94 94 0 0 1-11.011-2.464 76 76 0 0 1-6.353-2.141c-.448-.173-.893-.355-1.339-.534.727.292.624.274-.033-.027-2.703-1.236-5.337-2.595-7.864-4.162a64 64 0 0 1-3.31-2.198c-.535-.379-1.057-.774-1.585-1.162 1.446 1.064-.549-.463-.91-.767a69 69 0 0 1-6.088-5.791 76 76 0 0 1-2.58-2.914c-.49-.581-.946-1.195-1.445-1.767-.596-.684.197.267.256.344a100 100 0 0 1-.791-1.051 104 104 0 0 1-4.866-7.196c-3.219-5.194-6.045-10.623-8.69-16.128-4.336-9.026-8.613-18.08-12.941-27.11-10.465-21.83-21.022-43.614-31.502-65.436a9512 9512 0 0 1-33.758-70.983c-5.186-11.032-10.242-22.116-15.536-33.093-4.849-10.054-9.137-19.273-13.495-29.453a527 527 0 0 1-5.046-12.206c-.891-2.233-2.975-3.798-5.478-3.111-2.246.617-3.853 3.18-3.111 5.478Z"/><path d="M121.007 616.362c22.62-16.136 45.28-32.216 67.948-48.285 22.502-15.952 45.481-31.163 68.507-46.344 13.028-8.589 26.066-17.246 38.685-26.427 1.683-1.224 2.996-2.563 3.568-4.64.512-1.858.281-4.333-.783-5.982-2.092-3.245-7.11-5.341-10.622-2.785-6.043 4.397-11.928 8.992-17.836 13.568l-8.261 6.398-1.967 1.523-.787.609c-.262.203-1.547 1.3-.189.141-1.635 1.395-3.386 2.683-5.065 4.027-10.792 8.636-21.541 17.327-32.376 25.908-21.539 17.06-43.683 33.332-65.699 49.767-12.56 9.376-25.148 18.713-37.735 28.053-1.121.832-1.689 2.241-.928 3.541.657 1.123 2.397 1.744 3.541.928Zm551.131 34.965c-16.127-21.632-33.026-42.704-50.578-63.196-8.665-10.117-17.459-20.151-26.571-29.87-8.115-8.655-16.432-17.136-24.09-26.207a216 216 0 0 1-4.555-5.58c-.211-.269-.416-.544-.632-.808 1.474 1.799.368.477.047.055a147 147 0 0 1-5.548-7.787c-3.569-5.387-6.718-11.048-9.253-16.996l.794 1.883c-1.672-3.973-2.976-8.081-4.895-11.944-1.402-2.822-5.46-4.39-8.428-3.43a8.9 8.9 0 0 0-3.293 1.919c-1.233 1.132-2.372 3.571-2.186 5.277.222 2.033.481 4.02 1.093 5.974.651 2.079 1.481 4.059 2.335 6.063a95 95 0 0 0 4.032 8.329c2.914 5.335 6.315 10.393 10.002 15.222 7.819 10.241 16.663 19.542 25.742 28.664 19.801 19.892 39.462 39.901 57.938 61.045a1097 1097 0 0 1 30.862 36.93c1.418 1.774 4.376 1.616 6.006.358s2.545-4.068 1.178-5.9Z"/><path fill="#ff8345" d="M716.558 150.872c2.015 0 3.945-1.772 3.852-3.852s-1.692-3.852-3.852-3.852c-2.015 0-3.945 1.772-3.852 3.852s1.692 3.852 3.852 3.852m-12.798 41.83c1.952 0 3.822-1.716 3.731-3.731s-1.64-3.731-3.731-3.731c-1.952 0-3.822 1.716-3.731 3.731s1.64 3.731 3.731 3.731m4.266 36.672c4.415 0 4.422-6.861 0-6.861s-4.422 6.861 0 6.861m69.68 8.664c2.235 0 4.376-1.965 4.273-4.273s-1.877-4.273-4.273-4.273c-2.235 0-4.376 1.965-4.273 4.273s1.877 4.273 4.273 4.273m29.704-17.606-.863-.451-.863-.364q-.72-.225-1.44-.064-.49.001-.911.247a2.7 2.7 0 0 0-1.162.747l-.565.731-.364.863q-.226.72-.064 1.44.033.721.429 1.343l.451.863a3.93 3.93 0 0 0 1.403 1.403q.915.531 1.974.534l1.04-.14a3.9 3.9 0 0 0 1.726-1.006q.572-.531.809-1.259.367-.7.337-1.507a3.9 3.9 0 0 0-.534-1.974 3.93 3.93 0 0 0-1.403-1.403Zm18.472-48.526v-2.844a3.1 3.1 0 0 0-.352-1.577 3.1 3.1 0 0 0-.846-1.317 3.1 3.1 0 0 0-1.317-.846 3.1 3.1 0 0 0-1.577-.352l-1.088.146a4.1 4.1 0 0 0-1.806 1.052l-.64.828a4.1 4.1 0 0 0-.559 2.066v2.844a3.1 3.1 0 0 0 .352 1.577q.247.76.846 1.317.556.599 1.317.846a3.1 3.1 0 0 0 1.577.352l1.088-.146a4.1 4.1 0 0 0 1.806-1.052l.64-.828q.555-.957.559-2.066m-24.712-39.641c1.952 0 3.822-1.716 3.731-3.731s-1.64-3.731-3.731-3.731c-1.952 0-3.822 1.716-3.731 3.731s1.64 3.731 3.731 3.731m-40.528-5.748c1.984 0 3.671-1.687 3.671-3.671s-1.68-3.671-3.671-3.671-3.671 1.687-3.671 3.671 1.68 3.671 3.671 3.671m-7.795 34.013a527 527 0 0 0-2.576 29.369 518 518 0 0 0-.837 22.009c-.043 2.565-.345 5.272.369 7.757.833 2.898 5.282 3.059 6.036 0 .622-2.524.266-5.177.19-7.757a518 518 0 0 1-.181-22.009c.127-9.799.536-19.593 1.213-29.369.079-1.136-1.024-2.106-2.106-2.106-1.248 0-1.975.971-2.106 2.106Z"/><path fill="#ff8345" d="M724.392 193.458c17.77 1.971 35.229-2.797 52.87-3.941q3.677-.239 7.362-.317c2.816-.06 6.143.582 8.026-1.97.478-.648.457-1.841 0-2.491-1.625-2.315-4.285-1.973-6.798-1.928q-3.44.06-6.873.261c-4.407.257-8.798.698-13.174 1.279-8.807 1.169-17.544 2.95-26.386 3.834-4.995.5-10.016.681-15.027.339-1.331-.091-2.468 1.199-2.468 2.468 0 1.456 1.137 2.32 2.468 2.468Z"/><path fill="#ff8345" d="M721.473 166.206c4.161 3.022 8.27 6.105 12.35 9.235s8.249 6.106 12.395 9.135c8.217 6.002 16.296 12.186 24.489 18.219q3.141 2.312 6.27 4.643c.979.729 2 1.362 3.049 1.984 1.384.821 2.913 1.745 4.588 1.285 1.511-.415 2.348-1.847 2.187-3.351-.182-1.71-1.557-2.848-2.749-3.94-1.979-1.814-4.164-3.36-6.319-4.955-8.155-6.038-16.505-11.805-24.883-17.528-4.753-3.247-9.475-6.574-14.373-9.597s-9.808-6.032-14.694-9.079c-1.048-.654-2.518-.224-3.129.82-.676 1.156-.182 2.401.82 3.129Z"/><path fill="#ff8345" d="M733.78 214.86a429 429 0 0 1 32.019-36.751c3.207-3.283 6.504-6.475 9.736-9.733 2.469-2.488-1.266-6.177-3.83-3.83-5.959 5.455-11.566 11.334-17.066 17.248a427 427 0 0 0-24.773 29.151c-.916 1.18-1.15 2.765 0 3.915.955.955 2.993 1.188 3.915 0ZM191.142 588.574c-.393 9.933 7.499 19.13 17.087 21.118 10.917 2.264 21.42-3.239 27.724-12.024 1.655-2.307 2.876-4.837 3.923-7.469.96-2.412 1.471-4.916 2.145-7.411 1.202-4.452-3.707-8.103-7.666-5.894-5.864 3.272-9.926 9.293-10.858 15.95-.351 2.511-.627 5.074.682 7.394 1.642 2.91 5.193 4.174 8.366 3.342 1.805-.473 3.43-1.529 5.041-2.439l4.811-2.717-8.365-3.403c2.282 8.975 11.548 12.164 19.5 14.346 9.359 2.567 18.871 4.986 28.464 6.489 2.946.462 5.89.894 8.862 1.159 2.784.248 5.556.095 8.347-.016 4.534-.18 5.319-6.368 1.056-7.802-2.112-.71-4.214-1.587-6.367-2.153-2.248-.59-4.516-1.095-6.788-1.58-4.481-.956-8.97-1.873-13.445-2.856q-6.601-1.45-13.142-3.147a309 309 0 0 1-6.686-1.802 51 51 0 0 1-2.289-.703q-.496-.166-.985-.345c-.199-.073-1.658-.655-.783-.29.866.361-.511-.248-.742-.363a21 21 0 0 1-1.205-.648 21 21 0 0 1-1.134-.719c-1.074-.72.759.733-.146-.123a32 32 0 0 1-.912-.901c-.097-.099-.196-.286-.311-.36.845.54.548.829.237.252-.14-.259-.763-1.466-.372-.585.354.798.103.261.062.075-.07-.321-.171-.634-.238-.957-.792-3.799-5.297-4.964-8.365-3.403-2.284 1.162-4.613 2.264-6.863 3.491-.808.44-.057-.067.32-.081-.165.006-.545.137-.694.214l4.893 2.105.557 1.951c.066-.18-.007-.54-.002-.735.012-.499.134-1.03.108-1.524.015.295-.216 1.191-.037.41.071-.311.125-.625.199-.935q.178-.744.42-1.47c.08-.241.181-.478.256-.72.222-.72-.477.986-.138.311.461-.917.914-1.818 1.488-2.673.142-.212.295-.415.439-.625.421-.617-1.206 1.565.143-.181-.15.195 1.126-1.461.45-.621-.503.625.064-.059.166-.178a18 18 0 0 1 2.327-2.237l-8.909-3.69c-.009.099-.058.775-.076.778-.109.014.241-.997.005-.394-.164.418-.228.907-.351 1.342a34 34 0 0 1-1.003 3.013c-.071.185-.149.368-.219.554-.266.698.389-.82.059-.151-.204.413-.385.839-.589 1.252a31 31 0 0 1-1.43 2.592q-.361.587-.751 1.156c-.148.216-.306.427-.454.643-.415.607.119.112.111-.129.006.219-.761.914-.883 1.053a25 25 0 0 1-2.076 2.095c-.196.176-.398.344-.596.518-.088.077-.603.52-.078.079.548-.461-.561.397-.74.518q-.657.445-1.345.841c-.688.396-.926.515-1.401.748-.178.087-.363.163-.539.255-.67.349.896-.329.186-.073-.934.337-1.858.67-2.823.912a22 22 0 0 1-1.35.292c-.198.036-1.056.158-.255.056.759-.097.081-.013-.062-.002-1.042.08-2.087.14-3.132.105-.457-.015-.909-.066-1.364-.096-.613-.041.427.037.448.061-.05-.058-.64-.115-.774-.143-.924-.192-1.799-.483-2.687-.795-.672-.236.881.441.255.098-.158-.087-.328-.156-.488-.238q-.564-.288-1.105-.619c-.541-.331-.708-.458-1.057-.696-.791-.539.094.119.176.145-.237-.076-.51-.429-.688-.59a18 18 0 0 1-1.399-1.411c-.032-.036-.788-.928-.293-.324.446.544-.041-.068-.142-.214a16 16 0 0 1-1.192-1.999c-.055-.109-.244-.615-.305-.644.176.083.323.895.097.189-.145-.453-.304-.898-.422-1.359a14 14 0 0 1-.16-.693c-.036-.176-.108-1.166-.083-.409.023.68.016.062.012-.066-.014-.361-.033-.717-.035-1.078-.013-2.518-2.205-4.932-4.815-4.815-2.694.121-4.708 2.115-4.815 4.815Zm6.951 45.75a1706 1706 0 0 0 86.402 11.941c1.8.202 3.615.494 5.427.511 2.279.022 4.607.26 6.246-1.648.957-1.114 1.266-2.616.508-3.938-.625-1.091-1.48-1.966-2.721-2.34-.693-.209-1.454-.279-2.164-.415-1.767-.337-3.532-.515-5.322-.664q-4.81-.4-9.617-.827a1678 1678 0 0 1-56.342-5.969 1628 1628 0 0 1-20.753-2.688c-1.673-.228-3.36.403-3.85 2.186-.411 1.496.509 3.574 2.186 3.85Z"/><path fill="#d85bd2" d="M576.472 777.837c-2.298-.665-4.194.113-5.839 1.752a60 60 0 0 0-2.9 3.074c-1.884 2.161-3.527 4.618-4.72 7.23-2.573 5.63-3.788 12.183-1.489 18.135 2.318 6.001 7.014 10.38 13.231 12.166 5.548 1.594 11.956.746 16.914-2.195 10.944-6.49 14.898-21.219 9.79-32.594-1.395-3.105-3.875-5.639-6.727-7.449-3.425-2.174-7.554-2.643-11.471-1.924s-7.459 3.766-9.152 7.318c-1.399 2.935-2.101 6.107-2.959 9.226-1.135 4.127-1.612 8.217-.769 12.439.837 4.191 3.57 8.083 7.179 10.343 4.17 2.612 9.56 2.532 13.817.178 1.98-1.095 3.7-2.748 4.903-4.661 1.194-1.898 2.032-4.593 1.776-6.858-.271-2.403-.8-4.44-2.574-6.213-1.524-1.524-4.024-2.672-6.213-2.574-2.272.102-4.629.848-6.213 2.574-1.464 1.595-2.851 3.958-2.574 6.213a4.6 4.6 0 0 1 .029.87l.314-2.335a4.7 4.7 0 0 1-.195.816l.885-2.097c-.15.355-.328.665-.554.977l1.372-1.775a6 6 0 0 1-.824.816l1.774-1.371c-.411.3-.832.538-1.299.739l2.092-.883a7 7 0 0 1-1.166.32l2.327-.313c-.509.064-.99.067-1.498.001l2.325.312a6 6 0 0 1-.865-.24l2.088.881a7 7 0 0 1-1.457-.857l1.767 1.365a8 8 0 0 1-1.161-1.218l1.364 1.766a9.7 9.7 0 0 1-1.002-1.806l.878 2.081a11.6 11.6 0 0 1-.631-2.376l.311 2.313c-.153-1.244-.093-2.47.072-3.709l-.31 2.308c.305-1.932.851-3.801 1.357-5.687.442-1.648.755-3.335 1.401-4.921l-.87 2.061a8.6 8.6 0 0 1 .979-1.66l-1.347 1.744c.24-.276.474-.516.748-.757l-1.743 1.347a8.6 8.6 0 0 1 1.701-1.011l-2.038.86a8 8 0 0 1 1.607-.44l-2.232.3a9 9 0 0 1 2.042-.003l-2.188-.294a9 9 0 0 1 1.987.543l-1.925-.813c.43.195.801.412 1.18.693l-1.618-1.25a10.7 10.7 0 0 1 1.586 1.605l-1.245-1.612a12.7 12.7 0 0 1 1.491 2.624l-.799-1.893c.472 1.202.785 2.431.978 3.707l-.281-2.093c.222 1.711.224 3.412.017 5.125l.279-2.075a21 21 0 0 1-1.305 4.925l.78-1.848a19.4 19.4 0 0 1-2.323 4.073l1.2-1.553c-.785 1.006-1.659 1.868-2.615 2.709-.589.519 1.68-1.124.531-.435-.255.153-.496.328-.752.48-.526.313-1.07.58-1.631.825l1.809-.763a15.7 15.7 0 0 1-3.857 1.022l1.999-.269c-1.335.15-2.658.138-3.991-.038l1.985.267a17 17 0 0 1-2.272-.467c-.316-.092-.623-.208-.936-.308-1.219-.388 1.67.845.547.226-.623-.343-1.21-.724-1.821-1.085q-.681-.493.816.632a12 12 0 0 1-.493-.433c-.241-.225-.456-.475-.692-.703-.871-.84.955 1.485.218.311-.207-.33-.429-.648-.621-.988-.124-.22-.834-1.763-.32-.553s-.097-.381-.168-.624c-.219-.748-.37-1.513-.522-2.276-.269-1.343.093 1.536.042.246-.018-.462-.058-.922-.061-1.385a19 19 0 0 1 .07-1.774q.11-1.05-.092.534c.283-.712.297-1.627.498-2.382.235-.883.525-1.752.853-2.605.556-1.443-.401.759.142-.338.19-.383.364-.773.555-1.156.826-1.661 1.615-3.331 2.519-4.953.868-1.557 1.601-3.032 1.121-4.87-.39-1.495-1.389-2.865-2.924-3.31Zm104.763-15.945c-2.298-.665-4.194.113-5.839 1.752a60 60 0 0 0-2.9 3.074c-1.884 2.161-3.527 4.618-4.72 7.23-2.573 5.63-3.788 12.183-1.489 18.135 2.318 6.001 7.014 10.38 13.231 12.166 5.548 1.594 11.956.746 16.914-2.195 10.944-6.49 14.898-21.219 9.79-32.594-1.395-3.105-3.875-5.639-6.727-7.449-3.425-2.174-7.554-2.643-11.471-1.924s-7.459 3.766-9.152 7.318c-1.399 2.935-2.101 6.107-2.959 9.226-1.135 4.127-1.612 8.217-.769 12.439.837 4.191 3.57 8.083 7.179 10.343 4.17 2.612 9.56 2.532 13.817.178 1.98-1.095 3.7-2.748 4.903-4.661 1.194-1.898 2.032-4.593 1.776-6.858-.271-2.403-.8-4.44-2.574-6.213-1.524-1.524-4.024-2.672-6.213-2.574-2.272.102-4.629.848-6.213 2.574-1.464 1.595-2.851 3.958-2.574 6.213a4.6 4.6 0 0 1 .029.87l.314-2.335a4.7 4.7 0 0 1-.195.816l.885-2.097c-.15.355-.328.665-.554.977l1.372-1.775a6 6 0 0 1-.824.816l1.774-1.371c-.411.3-.832.538-1.299.739l2.092-.883a7 7 0 0 1-1.166.32l2.327-.313c-.509.064-.99.067-1.498.001l2.325.312a6 6 0 0 1-.865-.24l2.088.881a7 7 0 0 1-1.457-.857l1.767 1.365a8 8 0 0 1-1.161-1.218l1.364 1.766a9.7 9.7 0 0 1-1.002-1.806l.878 2.081a11.6 11.6 0 0 1-.631-2.376l.311 2.313c-.153-1.244-.093-2.47.072-3.709l-.31 2.308c.305-1.932.851-3.801 1.357-5.687.442-1.648.755-3.335 1.401-4.921l-.87 2.061a8.6 8.6 0 0 1 .979-1.66l-1.347 1.744c.24-.276.474-.516.748-.757l-1.743 1.347a8.6 8.6 0 0 1 1.701-1.011l-2.038.86a8 8 0 0 1 1.607-.44l-2.232.3a9 9 0 0 1 2.042-.003l-2.188-.294a9 9 0 0 1 1.987.543l-1.925-.813c.43.195.801.412 1.18.693l-1.618-1.25a10.7 10.7 0 0 1 1.586 1.605l-1.245-1.612a12.7 12.7 0 0 1 1.491 2.624l-.799-1.893c.472 1.202.785 2.431.978 3.707l-.281-2.093c.222 1.711.224 3.412.017 5.125l.279-2.075a21 21 0 0 1-1.305 4.925l.78-1.848a19.4 19.4 0 0 1-2.323 4.073l1.2-1.553c-.785 1.006-1.659 1.868-2.615 2.709-.589.519 1.68-1.124.531-.435-.255.153-.496.328-.752.48-.526.313-1.07.58-1.631.825l1.809-.763a15.7 15.7 0 0 1-3.857 1.022l1.999-.269c-1.335.15-2.658.138-3.991-.038l1.985.267a17 17 0 0 1-2.272-.467c-.316-.092-.623-.208-.936-.308-1.219-.388 1.67.845.547.226-.623-.343-1.21-.724-1.821-1.085q-.681-.493.816.632a12 12 0 0 1-.493-.433c-.241-.225-.456-.475-.692-.703-.871-.84.955 1.485.218.311-.207-.33-.429-.648-.621-.988-.124-.22-.834-1.763-.32-.553s-.097-.381-.168-.624c-.219-.748-.37-1.513-.522-2.276-.269-1.343.093 1.536.042.246-.018-.462-.058-.922-.061-1.385a19 19 0 0 1 .07-1.774q.11-1.05-.092.534c.283-.712.297-1.627.498-2.382.235-.883.525-1.752.853-2.605.556-1.443-.401.759.142-.338.19-.383.364-.773.555-1.156.826-1.661 1.615-3.331 2.519-4.953.868-1.557 1.601-3.032 1.121-4.87-.39-1.495-1.389-2.865-2.924-3.31Zm104.763-15.944c-2.298-.665-4.194.113-5.839 1.752a60 60 0 0 0-2.9 3.074c-1.884 2.161-3.527 4.618-4.72 7.23-2.573 5.63-3.788 12.183-1.489 18.135 2.318 6.001 7.014 10.38 13.231 12.166 5.548 1.594 11.956.746 16.914-2.195 10.944-6.49 14.898-21.219 9.79-32.594-1.395-3.105-3.875-5.639-6.727-7.449-3.425-2.174-7.554-2.643-11.471-1.924-3.924.72-7.459 3.766-9.152 7.318-1.399 2.935-2.101 6.107-2.959 9.226-1.135 4.127-1.612 8.217-.769 12.439.837 4.191 3.57 8.083 7.179 10.343 4.17 2.612 9.56 2.532 13.817.178 1.98-1.095 3.7-2.748 4.903-4.661 1.194-1.898 2.032-4.593 1.776-6.858-.271-2.403-.8-4.44-2.574-6.213-1.524-1.524-4.024-2.672-6.213-2.574-2.272.102-4.629.848-6.213 2.574-1.464 1.595-2.851 3.958-2.574 6.213a4.6 4.6 0 0 1 .029.87l.314-2.335a4.7 4.7 0 0 1-.195.816l.885-2.097c-.15.355-.328.665-.554.977l1.372-1.775a6 6 0 0 1-.824.816l1.774-1.371c-.411.3-.832.538-1.299.739l2.092-.883a7 7 0 0 1-1.166.32l2.327-.313c-.509.064-.99.067-1.498.001l2.325.312a6 6 0 0 1-.865-.24l2.088.881a7 7 0 0 1-1.457-.857l1.767 1.365a8 8 0 0 1-1.161-1.218l1.364 1.766a9.7 9.7 0 0 1-1.002-1.806l.878 2.081a11.6 11.6 0 0 1-.631-2.376l.311 2.313c-.153-1.244-.093-2.47.072-3.709l-.31 2.308c.305-1.932.851-3.801 1.357-5.687.442-1.648.755-3.335 1.401-4.921l-.87 2.061a8.6 8.6 0 0 1 .979-1.66l-1.347 1.744c.24-.276.474-.516.748-.757l-1.743 1.347a8.6 8.6 0 0 1 1.701-1.011l-2.038.86a8 8 0 0 1 1.607-.44l-2.232.3a9 9 0 0 1 2.042-.003l-2.188-.294a9 9 0 0 1 1.987.543l-1.925-.813c.43.195.801.412 1.18.693l-1.618-1.25a10.7 10.7 0 0 1 1.586 1.605l-1.245-1.612a12.7 12.7 0 0 1 1.491 2.624l-.799-1.893c.472 1.202.785 2.431.978 3.707l-.281-2.093c.222 1.711.224 3.412.017 5.125l.279-2.075a21 21 0 0 1-1.305 4.925l.78-1.848a19.4 19.4 0 0 1-2.323 4.073l1.2-1.553c-.785 1.006-1.659 1.868-2.615 2.709-.589.519 1.68-1.124.531-.435-.255.153-.496.328-.752.48-.526.313-1.07.58-1.631.825l1.809-.763a15.7 15.7 0 0 1-3.857 1.022l1.999-.269c-1.335.15-2.658.138-3.991-.038l1.985.267a17 17 0 0 1-2.272-.467c-.316-.092-.623-.208-.936-.308-1.219-.388 1.67.845.547.226-.623-.343-1.21-.724-1.821-1.085q-.681-.493.816.632a12 12 0 0 1-.493-.433c-.241-.225-.456-.475-.692-.703-.871-.84.955 1.485.218.311-.207-.33-.429-.648-.621-.988-.124-.22-.834-1.763-.32-.553s-.097-.381-.168-.624c-.219-.748-.37-1.513-.522-2.276-.269-1.343.093 1.536.042.246-.018-.462-.058-.922-.061-1.385a19 19 0 0 1 .07-1.774q.11-1.05-.092.534c.283-.712.297-1.627.498-2.382.235-.883.525-1.752.853-2.605.556-1.443-.401.759.142-.338.19-.383.364-.773.555-1.156.826-1.661 1.615-3.331 2.519-4.953.868-1.557 1.601-3.032 1.121-4.87-.39-1.495-1.389-2.865-2.924-3.31Z"/><path fill="#ff8345" d="m165.403 483.291-.29-.987-.255-.604a1.9 1.9 0 0 0-.651-.709 1.26 1.26 0 0 0-.558-.325 1.9 1.9 0 0 0-.974-.218l-.672.09-.604.255a1.9 1.9 0 0 0-.709.651 1.9 1.9 0 0 0-.452.86l-.29.987a2.83 2.83 0 0 0 .727 2.752l.572.442q.662.384 1.428.386a2.13 2.13 0 0 0 1.09-.244q.526-.171.91-.585c.704-.704 1.011-1.788.727-2.752Zm10.071-30.11c2.267 0 4.438-1.993 4.333-4.333s-1.904-4.333-4.333-4.333c-2.267 0-4.438 1.993-4.333 4.333s1.904 4.333 4.333 4.333m20.264 36.83c3.563 0 3.569-5.537 0-5.537s-3.569 5.537 0 5.537m24.53-20.532c2.424 0 4.746-2.131 4.634-4.634s-2.036-4.634-4.634-4.634c-2.424 0-4.746 2.131-4.634 4.634s2.036 4.634 4.634 4.634m421.564 26.149c1.025-.769 2.104-1.502 3.028-2.389l.968-.928c.574-.55 1.025-1.193 1.433-1.872l.413-.978.146-1.088-.146-1.088a3.1 3.1 0 0 0-.733-1.392 2.1 2.1 0 0 0-.734-.734 2.04 2.04 0 0 0-.903-.526 2.04 2.04 0 0 0-1.033-.279 3.1 3.1 0 0 0-1.632.073c-.203.054-.407.105-.609.161-.566.156-1.066.418-1.564.705l-1.165.672c-.395.228-.76.468-1.125.742l-1.083.813a3.55 3.55 0 0 0-1.317 1.209 3.53 3.53 0 0 0-.84 1.596 3.55 3.55 0 0 0-.084 1.872q.042.938.557 1.745l.734.95a4.7 4.7 0 0 0 2.071 1.207l1.248.168a4.67 4.67 0 0 0 2.369-.641Zm34.645-32.916c0 1.597-.054 3.204 0 4.799s.319 3.211.481 4.799q-.04 1.056.441 1.971a3.83 3.83 0 0 0 1.058 1.646c.887.887 2.343 1.555 3.617 1.498 1.323-.059 2.695-.494 3.617-1.498l.8-1.035a5.1 5.1 0 0 0 .698-2.582c.163-1.589.428-3.204.481-4.799s0-3.203 0-4.799c0-1.435-.624-2.943-1.639-3.958-.971-.971-2.563-1.702-3.958-1.639-1.448.065-2.949.54-3.958 1.639s-1.639 2.441-1.639 3.958Zm4.531 44.293h2.133a4.44 4.44 0 0 0 2.272-.508 4.4 4.4 0 0 0 1.898-1.22 4.4 4.4 0 0 0 1.22-1.898 4.44 4.44 0 0 0 .508-2.272l-.211-1.568a5.9 5.9 0 0 0-1.517-2.603l-1.194-.922a5.86 5.86 0 0 0-2.977-.805h-2.133a4.44 4.44 0 0 0-2.272.508 4.4 4.4 0 0 0-1.898 1.22 4.4 4.4 0 0 0-1.22 1.898 4.44 4.44 0 0 0-.508 2.272l.211 1.568q.42 1.499 1.517 2.603l1.194.922q1.38.8 2.977.805m37.328-10.665c3.085 0 6.041-2.713 5.898-5.898s-2.591-5.898-5.898-5.898c-3.085 0-6.041 2.713-5.898 5.898s2.591 5.898 5.898 5.898M363.582 191.219a508 508 0 0 1-11.906-24.308 506 506 0 0 1-5.373-12.182c-.124-.291-.255-.582-.372-.876.002.004.524 1.248.228.54l-.638-1.523a244 244 0 0 1-1.325-3.279 505 505 0 0 1-5.052-13.221 68 68 0 0 0-1.999-4.906c-.75-1.643-1.871-2.97-2.99-4.376-.666-.837-2.073-1.518-3.081-1.795-1.521-.419-3.111-.254-4.546.352-2.375 1.002-4.519 3.641-4.292 6.38.13 1.563.193 3.172.692 4.666.535 1.603 1.19 3.159 1.894 4.694a508 508 0 0 0 2.793 5.987c1.924 4.054 3.921 8.071 5.92 12.088a500 500 0 0 0 20.587 37.289c1.489 2.447 4.977 3.587 7.493 1.965 2.589-1.669 3.387-4.773 1.965-7.493Zm78.882-.966a1630 1630 0 0 0-2.878-16.549c-.969-5.411-2.244-10.775-3.351-16.159-2.233-10.853-4.486-21.704-6.601-32.58a1502 1502 0 0 1-2.57-13.55c-.264-1.427-.449-2.592-1.199-3.935-1.229-2.198-3.029-3.417-5.352-4.233-2.647-.929-5.602.203-7.556 1.997-2.763 2.538-2.941 6.215-2.149 9.634a1498 1498 0 0 0 2.936 12.429 1460 1460 0 0 0 3.944 15.98c2.707 10.712 5.552 21.424 8.765 31.997 1.814 5.969 3.992 11.836 6.146 17.688.922 2.504 3.51 4.473 6.293 3.573 2.857-.925 4.051-3.458 3.573-6.293Zm67.952 6.948q.462-3.449.917-6.899c.037-.279.265-1.434.09-.606.118-.559.204-1.128.305-1.69l.607-3.38c.88-4.92 1.782-9.83 2.44-14.785 1.2-9.042 2.322-18.093 3.487-27.139.661-5.138 1.659-10.376 1.84-15.553.147-4.189-3.786-8.193-8.004-8.004-2.07.093-4.217.773-5.66 2.344-1.535 1.672-2.06 3.428-2.344 5.66-.569 4.468-.484 9.078-.682 13.579-.202 4.608-.44 9.214-.691 13.82-.493 9.048-1.01 18.069-1.224 27.128-.123 5.196-.425 10.344-.828 15.525-.198 2.549 2.384 4.986 4.875 4.875 2.932-.131 4.51-2.155 4.875-4.875Zm59.984 17.986c-.205.489.04.131.062-.13.029-.348-.329.231-.099.014q.455-.43.919-.851c.637-.573 1.158-1.237 1.727-1.876.578-.648 1.19-1.26 1.785-1.891.604-.641 1.123-1.369 1.699-2.038a47 47 0 0 1 3.627-3.769c.666-.62 1.371-1.191 2.047-1.798 1.601-1.437 2.542-3.596 2.575-5.743.011-.672-.134-1.554-.282-2.205-.314-1.379-1.104-2.246-1.924-3.298l1.118 1.448-.053-.069-7.737 10.064c.597.086 1.319.25 1.841.25.534 0 1.214-.153 1.801-.25l1.637-.691 1.387-1.071c1.071-1.071 1.685-2.45 1.884-3.934.168-1.253.024-2.384-.468-3.55-.612-1.451-1.512-2.355-2.803-3.276-1.078-.769-2.775-1.122-4.077-1.093-2.548.057-4.694 1.276-6.224 3.255-.752.973-1.398 1.999-2.014 3.062a49 49 0 0 0-2.579 5.139c-.514 1.19-1.164 2.457-1.487 3.728-.231.911-.391 1.849-.544 2.776-.204 1.228-.47 2.497-.398 3.74.005.084.133 1.403.104 1.412.015-.004.156-.701-.031-.091-.088.288-.154.588-.227.879-.445 1.768.572 3.869 2.438 4.294 2.043.465 3.534-.629 4.294-2.438Z"/><path fill="#d85bd2" d="M170.356 710.056c-9.441 8.756-16.035 20.654-19.312 33.056-3.391 12.831-2.76 26.863 1.463 39.443 4.311 12.841 12.454 24.275 23.049 32.707 10.749 8.553 23.321 14.684 36.95 16.892 13.724 2.224 27.765 1.179 40.842-3.698 12.99-4.845 24.837-12.538 34.355-22.653 4.716-5.012 8.877-10.599 12.239-16.607 3.634-6.494 7.113-13.975 6.803-21.599-.199-4.884-1.841-9.342-5.145-12.98-2.774-3.054-6.681-4.851-10.715-5.393-7.228-.971-14.543 1.708-20.555 5.609-5.91 3.836-11.272 8.897-16.197 13.913a120.5 120.5 0 0 0-13.724 16.785c-7.943 11.72-13.423 25.145-15.311 39.199-1.738 12.936-.16 26.46 4.86 38.54 5.265 12.67 13.638 23.818 25.341 31.215 10.414 6.582 23.249 9.398 35.484 8.362 6.211-.526 12.36-1.764 18.173-4.038 6.313-2.469 11.923-5.636 17.17-9.938 10.43-8.552 19.08-22.173 16.915-36.113-1.151-7.413-6.839-13.596-13.991-15.67-6.693-1.941-14.024-.299-20.048 2.893-11.584 6.138-17.777 18.962-19.164 31.53-1.343 12.167 2.098 24.708 8.339 35.118 6.817 11.373 16.934 19.997 28.688 25.983a93 93 0 0 0 4.517 2.147c.997.442 2.003.868 3.01 1.287.368.153.735.313 1.107.454.012.005.626.22.261.088-.241-.087.852.346 1.039.424 3.159 1.319 6.386 2.475 9.648 3.513 6.68 2.126 13.514 3.739 20.391 5.083 3.288.642 6.589 1.223 9.895 1.765 1.807.296 3.613.565 5.431.784 1.475.178 3.616.364 4.709.534 1.829.284 3.689-.465 4.22-2.396.447-1.627-.554-3.934-2.396-4.22-2.331-.362-4.637-.952-6.954-1.401-2.342-.454-4.7-.83-7.044-1.273-4.698-.888-9.379-1.872-14.019-3.026-4.607-1.145-9.175-2.458-13.66-4.014a129 129 0 0 1-6.412-2.424c-.751-.306-.314-.128-.15-.059-.245-.103-.495-.205-.738-.314-.545-.246-1.082-.514-1.622-.774a99 99 0 0 1-3.207-1.618c-4.073-2.149-7.937-4.616-11.639-7.352-1.038-.767.439.36-.172-.13l-.626-.496a96 96 0 0 0-.946-.74c-1.499-1.158.566.546-.452-.398-.869-.805-1.807-1.538-2.679-2.341a53 53 0 0 1-3.998-4.107c-.635-.726-1.24-1.476-1.847-2.225-.43-.53.579.751.162.213l-.103-.135q-1.39-1.766-.399-.549c-.196-.024-.759-1.073-.881-1.252a60 60 0 0 1-4.461-7.691 61 61 0 0 1-.869-1.869c-.077-.172-.582-1.318-.198-.442s-.231-.587-.3-.761a59 59 0 0 1-1.509-4.338c-.56-1.835-1.089-3.682-1.511-5.554a56 56 0 0 1-.556-2.802c-.085-.494-.14-.996-.234-1.487.013.067.187 1.537.077.563-.037-.33-.079-.66-.113-.99a50 50 0 0 1-.27-5.592 46 46 0 0 1 .218-4.062c.026-.269.059-.536.087-.805.107-1.035-.187 1.198-.065.458.305-1.85.654-3.676 1.177-5.479q.356-1.226.792-2.427c.164-.45.347-.892.518-1.339.267-.698-.553 1.231-.233.556.114-.24.216-.486.329-.726a35 35 0 0 1 2.863-5.016c.246-.358.503-.706.756-1.059.245-.341.708-.695-.355.452.146-.157.274-.345.411-.511a34 34 0 0 1 1.989-2.227c.66-.674 1.366-1.286 2.085-1.896.581-.494-1.068.785-.446.342.229-.163.453-.332.684-.492q.626-.435 1.277-.832a27 27 0 0 1 2.542-1.372c.204-.096.418-.181.619-.282-1.476.746-.93.38-.539.231.526-.2 1.052-.396 1.588-.568a24 24 0 0 1 2.58-.675c.267-.054.546-.083.81-.148.764-.187-1.468.15-.686.086.537-.044 1.069-.106 1.608-.125.714-.026 2.036-.221 2.684.097.018.009-1.74-.306-.745-.091.201.043.404.074.606.118q.75.161 1.478.401c.193.064.382.138.575.204.511.176.539.501-.663-.282.334.217.734.36 1.081.562.355.207.691.438 1.03.669.943.643-.959-.892-.446-.294.169.196.387.36.568.546.197.202 1.334 1.447.571.611-.733-.802.247.448.389.695.147.256.273.522.414.78.279.51.012.72-.234-.593.092.494.356.998.487 1.489.021.079.278 1.532.326 1.542-.071-.014-.159-1.814-.107-.714.011.235.037.47.049.706a18 18 0 0 1-.021 2.151q-.028.363-.053.726l.158-1.068-.241 1.797.139-1.07c.028.021-.107.629-.126.728q-.157.825-.367 1.637a29 29 0 0 1-1.046 3.237c-.591 1.528.636-1.383-.042.102a34.4 34.4 0 0 1-2.435 4.424 45 45 0 0 1-1.511 2.18c-.13.177-.27.35-.396.53 1.21-1.732.731-.931.397-.52-.311.383-.621.766-.941 1.142a49 49 0 0 1-4.097 4.258 51 51 0 0 1-1.979 1.73c-.337.28-.688.544-1.023.827 1.925-1.622.431-.334-.093.047a60.6 60.6 0 0 1-9.903 5.859q-.599.28-1.203.546c-1.607.707 1.336-.532.241-.1-.975.385-1.951.762-2.943 1.102a58 58 0 0 1-5.563 1.609 60 60 0 0 1-5.529 1.026l1.953-.262c-4.914.653-9.882.689-14.799.054l1.944.261a53 53 0 0 1-6.759-1.354 49 49 0 0 1-4.375-1.41c-.596-.223-2.824-1.256-.396-.125-2.031-.945-4.023-1.907-5.937-3.077a51 51 0 0 1-2.971-1.963c-.482-.343-.947-.707-1.427-1.053 2.07 1.493.017-.013-.463-.417a54 54 0 0 1-5.083-4.894 57 57 0 0 1-2.297-2.681c-.148-.184-.291-.371-.439-.553 1.452 1.783.577.75.27.338a54 54 0 0 1-1.032-1.437 62 62 0 0 1-3.87-6.372q-.75-1.42-1.428-2.876c-.252-.54-.491-1.086-.733-1.631-.567-1.277.689 1.71.175.41-.132-.333-.268-.665-.398-.999-2.002-5.152-3.354-10.534-4.095-16.01l.26 1.933c-.79-6.081-.806-12.232.007-18.312l-.261 1.941a79 79 0 0 1 3.947-15.894 99 99 0 0 1 1.413-3.65c.181-.446.606-1.177-.282.669.169-.352.312-.72.471-1.076a91 91 0 0 1 4.676-9.067 99 99 0 0 1 4.49-6.959 122 122 0 0 1 2.341-3.19c.709-.941-.384.491-.426.551.23-.321.491-.625.737-.933q.743-.93 1.505-1.843a117 117 0 0 1 11.285-11.713c1.175-1.064 2.401-2.077 3.631-3.077q.845-.687 1.702-1.36c.417-.327 1.325-.951-.428.327.289-.211.568-.434.857-.646a38 38 0 0 1 7.396-4.237l-1.831.773c2.143-.898 4.357-1.581 6.663-1.896l-2.064.277c1.387-.165 2.764-.186 4.149 0l-2.081-.28c.911.145 1.786.377 2.643.717l-1.879-.793c.852.367 1.633.827 2.368 1.393l-1.6-1.237a11.8 11.8 0 0 1 1.829 1.893l-1.243-1.608c.496.688.902 1.398 1.244 2.174l-.805-1.907c.399.994.655 2.009.802 3.068l-.287-2.135c.149 1.341.118 2.667-.038 4.006l.289-2.151c-.344 2.54-1.11 4.976-2.097 7.335l.827-1.959c-2.341 5.437-5.574 10.536-9.165 15.227l1.324-1.713c-4.627 5.987-9.834 11.395-15.828 16.029l1.715-1.325c-5.483 4.2-11.455 7.71-17.814 10.408l2.021-.853c-6.016 2.519-12.314 4.282-18.777 5.177l2.246-.302a71 71 0 0 1-18.669-.008l2.242.301c-6.793-.934-13.414-2.828-19.737-5.47l1.996.842a75 75 0 0 1-16.416-9.539l1.637 1.264c-4.619-3.582-8.785-7.698-12.367-12.319l1.226 1.587a66.6 66.6 0 0 1-8.411-14.401l.758 1.797c-2.236-5.343-3.734-10.949-4.513-16.687l.252 1.879a70 70 0 0 1-.573-10.841c.048-1.801.089-3.603.208-5.401a70 70 0 0 1 .213-2.501q.075-.712.163-1.422c.025-.208.11-.869-.016.111-.141 1.099.007-.007.044-.253a66 66 0 0 1 2.49-10.508c.129-.395.289-.785.4-1.185.239-.857-.789 1.818.063-.2.144-.341.248-.639.375-.971.116-.303.799-1.702.155-.415.214-.428.383-.884.581-1.32a61 61 0 0 1 2.441-4.807 59 59 0 0 1 3.265-5.137c.277-.389.563-.77.845-1.155.113-.154.52-.663-.044.05q.224-.285.449-.568a59 59 0 0 1 2.112-2.484c1.491-1.665 1.765-4.423 0-6.043s-4.29-1.625-6.043 0Z"/></svg>