<?xml version="1.0" encoding="UTF-8"?><svg xmlns="http://www.w3.org/2000/svg" data-name="ARTWORK" viewBox="0 0 1000 1000"><path d="m293.242 698.104-83.354-12.231c-22.66-3.325-45.611-6.658-68.385-4.225-22.773 2.433-45.726 11.302-60.621 28.7-18.233 21.298-21.237 54.304-7.149 78.543 12.989 22.349 37.297 35.363 61.016 45.638 112.7 48.822 239.506 60.919 361.215 44.433 21.331-2.889 42.603-6.644 63.226-12.813 94.299-28.207 167.122-104.481 219.403-187.875"/><path d="M294.426 693.809c-42.787-6.279-84.96-18.201-128.28-20.74-35.991-2.109-76.669 7.728-97.633 39.578-9.099 13.824-13.283 31.323-12.064 47.778 1.333 17.987 8.583 34.319 20.786 47.579 11.617 12.623 26.746 21.704 42.095 29.053 17.265 8.267 35.22 15.279 53.283 21.588 74.285 25.944 153.492 37.179 232.052 36.036 39.766-.579 79.764-4.064 118.92-11.119 36.285-6.537 71.066-18.613 103.02-37.113 29.416-17.03 56.195-38.617 80.149-62.672 12.02-12.071 23.362-24.81 34.085-38.045 10.892-13.444 21.859-27.261 30.786-42.11 2.089-3.475 4.324-6.863 6.465-10.309 2.339-3.764 3.368-8.281 5.703-11.999 4.133-6.58-6.28-12.629-10.395-6.076-2.113 3.364-5.614 6.13-7.945 9.41-2.574 3.622-5.026 7.322-7.717 10.857-4.945 6.498-9.648 13.164-14.525 19.713a522 522 0 0 1-30.702 37.47c-21.624 24.021-45.598 46.1-72.219 64.309-26.951 18.436-56.033 32.871-87.325 41.75-36.876 10.464-75.787 14.645-113.953 16.947-74.896 4.518-150.569-2.027-223.012-21.916a605 605 0 0 1-53.04-17.201c-16.216-6.105-32.5-12.636-47.612-21.176-13.224-7.473-25.694-16.873-33.577-29.944-7.432-12.323-9.881-27.623-7.343-41.322 2.774-14.976 10.203-27.858 22.358-37.307 12.393-9.635 28.139-14.911 43.576-16.928 19.856-2.595 40.238-.51 59.993 1.957 20.303 2.535 40.578 4.881 60.935 6.955 10.286 1.048 20.537 2.087 30.768 3.589 2.399.352 4.758-.597 5.48-3.111.601-2.092-.734-5.131-3.111-5.48Z"/><path fill="#f15c5b" d="M402.499 204.889c-104.22 21.41-193.152 104.586-221.477 207.145-50.04 181.184 52.631 403.995 250.755 429.78 16.227 2.112 32.584 3.198 48.94 3.552 94.99 2.054 184.826-26.058 249.673-98.569 93.997-105.108 89.672-248.03 37.148-371.268-35.647-83.638-111.002-149.303-198.73-173.175-87.808-23.893-185.67-4.853-259.097 48.574"/><path fill="#f45b5b" d="M401.363 200.768a272.5 272.5 0 0 0-51.109 13.904 308 308 0 0 0-24.599 10.574c-7.589 3.662-16.423 8.471-23.043 11.919-7.903 4.117-15.283 9.941-22.358 15.351-7.373 5.638-14.549 11.513-21.424 17.751a305 305 0 0 0-35.729 38.554c-22.267 28.624-39.415 60.96-49.832 95.752-9.014 30.106-13.611 61.718-14.423 93.108s2.331 62.765 9.092 93.331c6.716 30.365 17.186 59.922 31.011 87.779 13.627 27.455 30.844 53.168 51.209 76.087 20.185 22.718 43.804 42.584 69.857 58.26 26.782 16.115 56.378 27.82 86.958 34.294 20.298 4.297 41.088 6.362 61.795 7.278 19.812.876 39.67.596 59.423-1.223 38.209-3.517 75.583-12.447 110.683-28.072 34.814-15.498 66.515-37.981 92.717-65.653 26.984-28.498 48.115-61.968 62.194-98.59 13.292-34.577 19.706-71.697 20.398-108.678.705-37.646-4.7-75.467-14.343-111.814-9.632-36.303-23.032-72.578-42.367-104.884-18.92-31.614-43.59-59.933-72.253-83.069-29.107-23.494-61.975-41.973-97.44-53.976-37.33-12.634-77.371-17.501-116.664-14.872-40.397 2.703-79.952 12.964-116.604 30.143a305 305 0 0 0-24.922 13.113c-4.249 2.494-8.236 5.156-12.141 8.161-3.861 2.972-7.593 6.5-11.442 9.29-3.207 2.324-4.777 6.386-2.635 10.048 1.852 3.166 6.819 4.975 10.048 2.635 7.577-5.493 17.031-9.697 25.283-14.543s16.724-9.295 25.389-13.343c16.678-7.793 34.832-14.177 53.317-18.874 18.943-4.813 36.679-7.605 55.789-8.761 19.236-1.164 38.657-.596 57.761 1.998-1.014-.138.683.101.711.105l1.548.226a294 294 0 0 1 10.806 1.811c4.79.896 9.559 1.913 14.297 3.053a287 287 0 0 1 26.052 7.594c8.638 2.967 16.234 5.981 23.784 9.404a298 298 0 0 1 23.597 11.975c31.179 17.615 57.905 39.657 81.413 67.126 11.109 12.98 21.051 26.931 30.086 42.413a285 285 0 0 1 12.258 23.458c3.792 8.151 6.692 15.327 10.104 24.291 6.581 17.288 12.217 34.942 16.761 52.875a443 443 0 0 1 5.896 26.644 421 421 0 0 1 2.344 13.627c.828 5.339 1.068 7.087 1.66 12.089 2.118 17.903 3.036 35.971 2.593 53.996-.218 8.854-.771 17.7-1.682 26.511a321 321 0 0 1-.945 8.137c-.006.05-.217 1.62-.082.628.151-1.103-.125.873-.158 1.103q-.136.953-.278 1.905a313 313 0 0 1-2.271 13.28c-3.39 17.532-8.314 34.769-14.812 51.404-1.934 4.95-2.593 6.513-4.693 11.166a282.6 282.6 0 0 1-19.568 36.103c-10.383 16.223-21.06 29.654-34.615 43.66a284 284 0 0 1-25.852 23.62c-.908.732-1.823 1.454-2.738 2.178.028-.022-1.261.984-.595.468.511-.396-.858.654-.996.76a280 280 0 0 1-11.253 8.116c-30.398 20.796-61.777 34.047-97.43 42.578a350 350 0 0 1-27.084 5.346q-3.186.5-6.38.946c-.025.004-1.643.222-.679.094 1.081-.144-.956.121-1.174.149q-1.73.22-3.46.424a391 391 0 0 1-13.925 1.384c-19.691 1.603-39.479 1.695-59.203.658a455 455 0 0 1-17.578-1.258 418 418 0 0 1-12.516-1.334q-.937-.115-1.874-.233c-3.943-.491.885.14-.788-.099-7.701-1.102-15.356-2.438-22.95-4.134a274 274 0 0 1-46.116-14.659c1.799.75-.372-.165-1.003-.439a271 271 0 0 1-15.233-7.185 276 276 0 0 1-19.08-10.705 281 281 0 0 1-22.515-15.384c-.573-.433-2.338-1.795-.836-.627q-1.245-.968-2.482-1.947a290 290 0 0 1-8.512-7.022c-11.078-9.495-21.445-19.814-31.047-30.799a320 320 0 0 1-10.354-12.473q-.733-.934-1.464-1.871c1.354 1.731-.534-.706-.875-1.157a333 333 0 0 1-12.815-18.161c-8.113-12.349-15.418-25.226-21.905-38.501a360 360 0 0 1-6.888-14.948q-.479-1.107-.953-2.217c-.731-1.703-.08-.195.054.128l-.618-1.486a373 373 0 0 1-7.978-21.111 380 380 0 0 1-12.054-43.246 383 383 0 0 1-4.078-21.939 445 445 0 0 1-.846-5.62c-.115-.804-.224-1.608-.338-2.412.337 2.379-.102-.807-.177-1.408a383 383 0 0 1-1.254-11.307 375 375 0 0 1-1.611-45.034c.183-7.438.59-14.87 1.226-22.282a359 359 0 0 1 1.493-14.113c.066-.525.442-3.309.13-1.059.26-1.875.526-3.748.812-5.619 2.302-15.072 5.539-30.042 9.898-44.657a273 273 0 0 1 9.7-27.173c.606-1.451-.487 1.128.137-.316l.553-1.282a280 280 0 0 1 2.667-5.942 286 286 0 0 1 5.74-11.69c7.929-15.262 17.212-29.866 27.62-43.556q.422-.556.847-1.109c-.758.985.193-.244.289-.366.577-.733 1.152-1.466 1.734-2.195a303 303 0 0 1 13.008-15.244 305 305 0 0 1 18.047-18.188c6.374-5.906 12.997-11.557 19.866-16.881-.617.479 1.006-.768 1.231-.939q1.3-.987 2.611-1.958a303 303 0 0 1 5.662-4.101c3.354-2.37 7.7-5.257 10.313-7.227 13.686-10.314 29.137-18.534 44.742-25.526 15.116-6.772 30.92-12.082 46.999-16.032 5.429-1.333 3.052-9.146-2.272-8.242Z"/><path fill="#edc84f" d="M753.348 114.098A656.6 656.6 0 0 1 804.858 25l.948 100.418 100.442-23.135c-.193 4.659-3.87 8.328-7.299 11.488l-66.379 61.164a692 692 0 0 1 102.54 15.744c-27.172 20.182-65.654 15.899-95.968 30.955l77.691 44.776c-31.442 3.968-63.209 5.386-94.876 4.151 12.709 17.526 20.275 38.735 21.528 60.348-26.378-6.659-41.817-34.752-66.599-45.978a794 794 0 0 1-61.987 70.507l13.848-87.993-84.714 21.132a456.5 456.5 0 0 0 69.202-61.698c-28.409-17.474-57.333-35.385-78.841-60.876a2053 2053 0 0 1 79.801 10.446c-17.026-24.257-38.71-49.113-59.419-70.312 12.541 1.44 31.908 11.231 38.099 14.134 15.911 7.46 15.245 5.121 30.586 13.692-10.378-30.189-14.298-62.581-11.42-94.375a697 697 0 0 0 62.891 85.199"/><path fill="#edc851" d="M757.247 116.376a606 606 0 0 1 40.301-69.255 667 667 0 0 1 13.103-18.736l-12.501-3.386c-.203 13-.626 25.976-.564 38.978l.187 39.309.105 22.132c.025 5.338 5.03 8.772 10.035 7.644l78.329-17.656c7.419-1.672 14.837-3.318 22.285-4.857l-10.85-8.265c.239-2.595.02-.526-.191.196-.252.862-.588.32.29-.675-.148.168-.248.472-.36.668-.146.256-1.486 2.275-.621 1.031.694-.998.215-.325.002-.095-.36.388-.682.806-1.049 1.189-2.11 2.201-4.541 4.118-6.839 6.115l-3.736 3.247c-.14.121-1.007.802-.996.866l.429-.314q1.602-1.181-1.46 1.145c-.661.577-1.293 1.191-1.941 1.783q-3.89 3.557-7.782 7.113l-30.4 27.785c-5.756 5.261-11.527 10.504-17.263 15.787-2.833 2.609-3.428 7.117-1.992 10.522 1.563 3.704 4.877 5.614 8.802 5.921a703 703 0 0 1 38.479 4.076l-2.563-.344a699 699 0 0 1 64.057 11.695l-2.308-17.656a71 71 0 0 1-8.34 5.29 78 78 0 0 1-4.268 2.137c-.684.317-1.374.618-2.063.923-1.17.518 2.403-.973.687-.292-.468.185-.933.377-1.402.56-6.003 2.343-12.226 4.077-18.496 5.537-12.971 3.02-26.194 4.876-39.077 8.284-7.922 2.096-15.664 4.869-23.022 8.492-6.634 3.267-5.974 13.284 0 16.729 20.182 11.639 40.458 23.113 60.712 34.627l17.197 9.776 4.671-17.246c-24.459 3.219-49.047 4.829-73.719 4.73-7.047-.028-14.121-.093-21.158-.5-6.677-.386-11.809 8.192-7.923 13.807a115 115 0 0 1 7.235 11.914 164 164 0 0 1 3.182 6.373c.486 1.031.946 2.073 1.412 3.112.743 1.656-.801-1.991-.069-.176.213.528.431 1.055.64 1.584a116.2 116.2 0 0 1 7.037 26.94l-.341-2.535q.558 4.237.815 8.503l12.075-9.198a52 52 0 0 1-3.55-1.046 51 51 0 0 1-1.941-.699c-.285-.109-.566-.225-.851-.334-1.071-.414 2.225.977.809.343a64 64 0 0 1-6.86-3.572 82 82 0 0 1-6.47-4.352c-.496-.367-.982-.748-1.478-1.114 2.513 1.857.702.537.106.061a146 146 0 0 1-3.244-2.676c-8.374-7.099-16.126-14.885-24.824-21.605-5.012-3.872-10.22-7.417-15.994-10.064-2.02-.926-3.855-1.441-6.113-1.138-1.886.253-4.279 1.068-5.505 2.637-14.996 19.202-30.855 37.731-47.553 55.474-4.761 5.059-9.461 10.18-14.337 15.13l15.794 9.194 1.2-8.51.6-4.255.277-1.964c.105-.745.71-5.508.482-3.513-.157 1.377.125-.719.179-1.065l.308-1.955.718-4.563 1.334-8.473 5.385-34.22 3.077-19.554c.524-3.33.152-6.397-2.353-8.902-2.35-2.35-5.712-3.149-8.902-2.353-5.519 1.377-10.994 2.919-16.481 4.421s-11.026 2.795-16.569 4.101c-10.973 2.587-21.959 5.099-32.862 7.969a666 666 0 0 1-18.794 4.673l7.025 16.663c20.374-14.265 39.375-30.647 56.952-48.23a462 462 0 0 0 14.165-14.823c4.049-4.427 3.355-11.268-1.865-14.475-11.017-6.767-22.028-13.559-32.705-20.857a370 370 0 0 1-7.926-5.566 312 312 0 0 1-6.615-4.918c-1.11-.85-.286-.34.29.227-1.119-1.103-2.555-2.004-3.78-2.994a239 239 0 0 1-3.934-3.245 215 215 0 0 1-7.215-6.363c-5.341-4.934-10.398-10.166-15.097-15.715l-6.512 15.722c13.22 1.47 26.433 2.999 39.627 4.687q4.866.623 9.73 1.269c.865.115 1.73.227 2.593.346-2.692-.372.308.043.832.114q2.27.308 4.54.621 10.05 1.388 20.088 2.874c3.702.548 7.031-.084 9.456-3.224 2.047-2.649 2.768-7.072.703-9.992-14.269-20.178-30.21-39.178-47.007-57.29a717 717 0 0 0-13.997-14.664l-6.183 14.927c1.304.154-1.187-.144-1.165-.162.099-.084.836.132.993.159q.819.141 1.632.313a62 62 0 0 1 4.055 1.001c2.567.719 5.097 1.567 7.6 2.486q1.914.704 3.808 1.458.993.395 1.982.802l.869.36c1.456.604-1.9-.818-.36-.151a315 315 0 0 1 6.717 2.994c8.368 3.861 16.7 7.63 25.328 10.889.925.349 1.84.721 2.758 1.087 1.108.441-1.275-.55-1.171-.495.288.153.619.268.917.401q.825.367 1.641.752c2.983 1.405 5.888 2.964 8.766 4.57 3.031 1.691 6.751 1.452 9.495-.668 2.566-1.983 4.167-5.755 3.064-8.987a228.7 228.7 0 0 1-9.785-40.165c-.12-.804-.178-1.653-.352-2.446.002.009.226 1.741.1.75-.065-.511-.133-1.021-.196-1.532a228 228 0 0 1-1.75-27.73c-.015-7.004.304-14.003.926-20.979l-16.041 4.345c15.021 23.945 31.503 46.948 49.239 68.958a705 705 0 0 0 14.998 17.984c2.951 3.422 9.187 3.253 12.174 0 3.346-3.645 3.147-8.523 0-12.174a692 692 0 0 1-22.647-27.649c-.252-.324-.509-.646-.755-.974 1.187 1.578.478.62.216.279a697 697 0 0 1-38.359-55.114c-1.957-3.12-6.041-5.147-9.721-3.956-3.847 1.245-5.968 4.355-6.32 8.301-2.269 25.46-.205 51.357 5.804 76.196a229 229 0 0 0 5.979 20.452l12.559-9.655c-4.994-2.778-10.042-5.329-15.346-7.468-1.647-.664-3.316-1.273-4.976-1.904q-1.355-.513-2.699-1.05-.812-.327-1.621-.66c-.519-.212-1.449-.639.881.374-.42-.183-.842-.36-1.262-.543-9.61-4.184-18.871-9.047-28.664-12.833-6.293-2.433-12.607-4.274-19.312-5.103-1.351-.167-3.265.522-4.413 1.194-1.644.962-2.846 2.447-3.578 4.181a8.8 8.8 0 0 0 1.808 9.552 701 701 0 0 1 24.065 26.054 620 620 0 0 1 11.749 13.796 555 555 0 0 1 9.725 12.114c.252.323.496.659.757.974-.342-.413-.956-1.243-.269-.348 4.045 5.279 7.996 10.627 11.806 16.079l10.16-13.216c-27.318-4.193-54.723-7.927-82.192-10.981-1.438-.16-3.426.542-4.648 1.257-1.732 1.013-2.997 2.577-3.768 4.404-1.515 3.59-.549 7.163 1.904 10.061 17.308 20.438 39.389 36.241 61.83 50.558 6.249 3.987 12.561 7.876 18.872 11.764l-1.865-14.475a458.4 458.4 0 0 1-56.457 52.069q-.358.276-.715.555c1.894-1.496.631-.489.204-.161q-1.077.826-2.158 1.645c-.641.485-1.287.965-1.926 1.452-.365.278-3.142 2.845-.943.762-.287.271-.644.496-.958.737a493 493 0 0 1-4.334 3.284c-1.883 1.411-3.637 3.022-4.19 5.448-.464 2.039-.357 4.001.46 5.936 1.755 4.158 6.322 6.461 10.755 5.279 10.999-2.934 22.118-5.355 33.124-8.253 10.883-2.865 21.739-6.025 32.715-8.5 6.301-1.421 12.617-2.784 18.884-4.347l-11.255-11.255-10.771 68.439c-1.024 6.505-2.238 12.986-3.366 19.474-.7 4.026.424 8.601 4.343 10.671 3.716 1.964 8.405 1.589 11.451-1.478 17.19-17.306 33.58-35.281 49.068-54.134a805 805 0 0 0 13.017-16.276l-11.618 1.499c4.883 2.232 9.432 5.093 13.728 8.304l.749.565c.92.69-1.726-1.35-.823-.637.492.389.986.776 1.475 1.17q1.653 1.333 3.271 2.712a284 284 0 0 1 6.227 5.489c8.338 7.533 16.582 15.377 26.149 21.364 5.58 3.492 11.746 6.29 18.128 7.931 5.682 1.461 12.462-2.862 12.075-9.198-1.425-23.307-9.071-46.239-23.145-64.979l-7.923 13.807c12.38.235 24.728.484 37.11.136a665 665 0 0 0 36.725-2.064 591 591 0 0 0 21.041-2.144c2.119-.254 3.865-.641 5.608-1.987 1.529-1.181 2.875-2.869 3.317-4.807.914-4.013-.602-8.318-4.253-10.451l-60.344-35.257c-5.693-3.326-11.415-6.601-17.129-9.892v16.729c1.456-.718 2.93-1.39 4.417-2.039 1.183-.517-2.4.968-.661.286.318-.125.633-.255.951-.38a103 103 0 0 1 2.635-.996 127 127 0 0 1 9.554-3.018c6.337-1.746 12.777-3.088 19.225-4.355 12.924-2.54 26.037-4.738 38.424-9.362 7.57-2.826 14.888-6.309 21.41-11.115 3.212-2.367 5.172-5.459 4.612-9.625-.488-3.633-3.195-7.172-6.919-8.031-27.03-6.235-54.423-10.826-81.993-13.886a702 702 0 0 0-23.115-2.175l6.811 16.442c10.493-9.674 20.919-19.423 31.376-29.137 10.456-9.713 20.994-19.341 31.201-29.312 2.481-2.424 5.045-4.788 7.268-7.459 3.271-3.929 5.354-8.398 5.594-13.554.265-5.694-5.679-9.58-10.85-8.265-25.92 6.592-52.051 12.412-78.086 18.537l-22.185 5.219 10.035 7.644-.55-38.978c-.185-13.096-.12-26.229-.71-39.309-.332-7.378-.652-14.752-.907-22.132-.098-2.847-2.003-5.803-4.925-6.469-3.01-.686-5.891.495-7.576 3.083-14.592 22.411-27.696 45.73-39.707 69.617a667 667 0 0 0-9.909 20.588c-1.019 2.213-.628 4.863 1.62 6.177 1.996 1.168 5.089.573 6.177-1.62Z"/><path d="M185.65 439.998c17.86-8.25 36.374-15.44 55.419-20.466 9.191-2.425 18.708-4.624 28.025-5.681 9.943-1.128 19.979-1.291 29.967-.771 5.09.265 10.18.694 15.255 1.162q3.706.343 7.402.776c1.235.144 2.468.3 3.702.454.186.023 1.737.225.414.05.768.102 1.536.212 2.303.321 10.184 1.449 20.301 3.322 30.418 5.174 20.752 3.799 41.421 7.869 62.387 10.34 20.72 2.442 41.47 3.808 62.34 3.401 19.095-.373 38.45-1.393 57.26-4.855 17.91-3.296 35.234-9.454 50.645-19.244 13.244-8.414 24.755-19.31 34.4-31.65 9.935-12.712 18.175-26.562 25.218-41.061 7.11-14.639 13.661-29.88 18.57-45.407a128 128 0 0 0 2.986-11.157c.977-4.449-5.428-7.703-7.702-3.247-7.226 14.161-12.161 29.381-18.731 43.854-6.538 14.403-13.992 28.469-23.113 41.418-8.304 11.788-19.047 23.345-30.522 31.649-13.861 10.031-29.684 16.205-46.39 19.621-17.448 3.568-35.782 4.095-54.09 3.236a977 977 0 0 1-61.459-4.855 598 598 0 0 1-10.823-1.293c-.627-.08-1.253-.166-1.88-.244q-1.059-.14.237.035l-.938-.128c-5.164-.711-10.329-1.417-15.484-2.194-10.04-1.514-20.041-3.267-30.047-4.983-20.408-3.501-41.006-6.767-61.73-7.528-20.227-.743-40.911 1.936-60.236 7.929-18.727 5.808-36.384 15.186-53.467 24.666-4.177 2.318-8.461 4.438-12.709 6.623-2.718 1.398-.334 5.303 2.37 4.054Zm1.382 208.792c8.79-5.163 17.74-10.057 26.569-15.167s17.692-10.162 26.589-15.155c17.949-10.073 35.824-20.278 53.881-30.156 35.819-19.596 72.066-38.406 108.652-56.527 36.72-18.187 73.969-35.332 111.384-52.037 37.025-16.531 74.039-32.916 111.842-47.61 19.068-7.412 38.137-14.801 57.183-22.269 9.641-3.781 19.625-6.855 29.443-10.147 9.655-3.237 19.579-5.998 29.017-9.819q7.011-2.84 14.054-5.605c2.98-1.169 1.896-5.604-1.344-4.876-5.065 1.138-10.131 2.273-15.194 3.42s-9.98 2.82-14.927 4.375a2306 2306 0 0 0-29.131 9.368c-19.529 6.423-39.279 12.06-58.687 18.865-19.235 6.744-38.324 13.866-57.445 20.923-19.244 7.102-38.507 14.278-57.474 22.096-38.268 15.774-75.809 33.115-112.894 51.488-36.715 18.189-72.894 37.457-108.35 58.001s-70.226 42.298-104.24 65.282c-4.313 2.914-8.416 6.131-12.693 9.105-3.89 2.704-.438 8.915 3.767 6.445Zm132.65 138.881c8.712-4.703 17.179-10.011 25.408-15.514 8.347-5.582 16.3-11.666 23.769-18.377 14.996-13.473 28.08-28.521 40.349-44.484 12.683-16.502 23.921-33.925 35.68-51.073a27205 27205 0 0 1 37.541-54.619 643 643 0 0 1 9.29-13.138 532 532 0 0 1 7.075-9.508l1.029-1.345q.975-1.268.114-.148.388-.501.78-1.001c6.323-8.092 12.917-15.981 19.879-23.531 6.621-7.179 13.575-14.055 20.88-20.539a260 260 0 0 1 10.919-9.175c.489-.388.984-.77 1.472-1.159 1.184-.944-1.767 1.334.172-.133.895-.677 1.788-1.356 2.689-2.025q3-2.226 6.069-4.355c7.842-5.435 16.034-10.332 24.578-14.583a184 184 0 0 1 6.35-3.01c.93-.42 2.038-1.119 3.045-1.34-1.997.438-.567.237.075-.027q1.023-.421 2.051-.829a168 168 0 0 1 13.586-4.734c4.494-1.349 9.051-2.5 13.637-3.488a151 151 0 0 1 6.918-1.322 192 192 0 0 1 3.277-.509c2.414-.36-1.614.184-.063.007.731-.083 1.46-.179 2.192-.26 9.356-1.042 18.805-1.201 28.194-.542q3.475.245 6.934.636c.63.071 4.124.434 1.409.153 1.334.138 2.671.385 3.994.599 4.719.765 9.405 1.727 14.044 2.88 9.16 2.276 18.246 5.211 27.042 8.634 4.447 1.73 8.939 3.316 13.39 5.036a190 190 0 0 1 4.735 1.902c-1.091-.457.075.034.248.11 2.281.998 4.538 2.04 6.799 3.084 4.389 2.027 8.898 3.886 13.108 6.214a192 192 0 0 1 12.281 7.395c3.936 2.576 7.443 5.858 10.909 9.028 1.884 1.723 4.582-.95 2.809-2.809-3.403-3.569-7.08-6.872-10.436-10.473a194 194 0 0 0-10.167-10.135c-3.469-3.211-6.832-6.59-10.54-9.542-4.129-3.288-8.439-6.372-12.832-9.296-16.417-10.927-35.769-17.303-55.121-20.645-20.185-3.487-40.555-3.639-60.718.109-19.679 3.658-38.672 11.556-55.896 21.648-35.753 20.949-64.376 51.17-88.724 84.324-13.222 18.004-25.152 36.818-36.392 56.111-10.912 18.73-22.066 37.246-34.227 55.203-11.167 16.49-23.105 32.079-36.061 47.186-6.586 7.679-13.623 14.895-20.763 22.051-7.053 7.069-14.478 14.074-22.678 19.801a212 212 0 0 1-12.23 7.919c-2.329 1.398-.261 4.928 2.127 3.638Z"/><path d="M385.858 211.676c8.599 4.669 16.594 10.198 24.897 15.344s16.404 10.593 24.271 16.368c15.714 11.536 30.598 23.941 44.223 37.904 27.119 27.792 50.462 59.84 68.524 94.216 10.621 20.213 19.083 41.433 27.116 62.782 8.153 21.67 15.332 43.615 22.434 65.643 7.109 22.048 13.348 44.342 19.549 66.657s12.476 44.578 18.301 66.963c2.864 11.005 4.783 22.285 6.8 33.475 1.943 10.781 3.824 21.591 5.15 32.468 1.341 10.993 2.498 22.067 2.655 33.148.076 5.41.263 10.968.039 16.366-.221 5.315-1.366 10.707-2.356 15.92-1.015 5.343-2.316 10.672-3.605 15.955-.702 2.879 3.295 4.686 4.841 2.041 5.587-9.559 8.584-20.241 10.243-31.142.417-2.739 1.223-5.404 1.636-8.149.444-2.951.631-5.957.815-8.933.341-5.504.431-11.022.335-16.535-.404-23.043-4.712-46.118-8.734-68.755-4.12-23.19-6.891-46.732-12.326-69.677s-11.845-45.51-19.089-67.925c-7.246-22.421-15.526-44.474-24.377-66.309-8.994-22.188-18.53-44.161-29.238-65.579-9.389-18.779-19.782-36.882-31.981-53.989-11.658-16.348-24.774-31.519-39.047-45.637-14.115-13.962-29.324-26.968-45.16-38.939s-32.498-22.836-50.437-31.208c-4.434-2.07-8.895-4.092-13.352-6.112-2.42-1.096-4.555 2.32-2.127 3.638Z"/><path fill="#edc851" d="M314.702 330.148c2.55 0 4.994-2.243 4.876-4.876s-2.142-4.876-4.876-4.876c-2.55 0-4.994 2.243-4.876 4.876s2.142 4.876 4.876 4.876m20.986-29.564 2.399.552c.197.045.392.091.591.128.852.159 1.051.184 1.709.098l1.216-.159 1.04-.14a2.96 2.96 0 0 0 1.331-.7q.441-.261.702-.702.519-.567.7-1.331l.14-1.04-.14-1.04a2.96 2.96 0 0 0-.7-1.331 2.96 2.96 0 0 0-1.098-1.008l-.945-.68c-.515-.371-.796-.528-1.527-.774-.191-.064-.386-.113-.58-.166l-2.373-.646a3.5 3.5 0 0 0-1.848-.083 3.45 3.45 0 0 0-1.723.55q-.81.437-1.3 1.194-.615.672-.83 1.576l-.166 1.232q.005 1.255.633 2.339c.639.991 1.588 1.858 2.77 2.13Zm15.31 42.082c2.362 0 4.624-2.077 4.515-4.515s-1.984-4.515-4.515-4.515c-2.362 0-4.624 2.077-4.515 4.515s1.984 4.515 4.515 4.515m31.613-25.578c2.456 0 4.809-2.16 4.695-4.695s-2.063-4.695-4.695-4.695c-2.456 0-4.809 2.16-4.695 4.695s2.063 4.695 4.695 4.695m197.871-11.527c2.55 0 4.994-2.243 4.876-4.876s-2.142-4.876-4.876-4.876c-2.55 0-4.994 2.243-4.876 4.876s2.142 4.876 4.876 4.876m24.57-36.363 1.229 5.838q.223.94.862 1.638.51.786 1.351 1.24.83.528 1.79.571.96.215 1.92-.086c1.165-.377 2.289-1.099 2.878-2.213l.485-1.15a4.86 4.86 0 0 0 0-2.56l-1.113-5.87a3.7 3.7 0 0 0-.873-1.658 3.7 3.7 0 0 0-1.368-1.256 3.64 3.64 0 0 0-1.813-.579 3.7 3.7 0 0 0-1.944.087c-1.18.382-2.318 1.113-2.914 2.241l-.492 1.165a4.9 4.9 0 0 0 0 2.592Zm8.214 43.836c2.173 0 4.254-1.91 4.154-4.154s-1.825-4.154-4.154-4.154c-2.173 0-4.254 1.91-4.154 4.154s1.825 4.154 4.154 4.154M365.715 610.975l-.871-2.102-.346-.82q-.324-.6-.884-.963a1.7 1.7 0 0 0-.757-.441 2.6 2.6 0 0 0-1.322-.296l-.912.123-.82.346q-.6.323-.963.884-.455.497-.614 1.167l-.871 2.102a4.37 4.37 0 0 0 0 2.304 4.3 4.3 0 0 0 1.115 1.912l.877.678a4.3 4.3 0 0 0 2.188.592 3.26 3.26 0 0 0 1.67-.373 3.26 3.26 0 0 0 1.395-.896 4.33 4.33 0 0 0 1.115-1.912 4.37 4.37 0 0 0 0-2.304Zm10.744-37.188 1.781 1.781c.14.14.278.283.421.42.341.326.798.62 1.186.919l1.001.769.834.352q.696.219 1.392.062.473 0 .881-.238a2.6 2.6 0 0 0 1.124-.722l.546-.707.352-.834q.218-.696.062-1.392a2.6 2.6 0 0 0-.414-1.298l-.748-.974-.187-.243c-.241-.314-.462-.654-.729-.944-.142-.154-.295-.299-.443-.447l-1.781-1.781a2.8 2.8 0 0 0-1.201-.772 2.8 2.8 0 0 0-1.438-.321 2.8 2.8 0 0 0-1.438.321 2.8 2.8 0 0 0-1.201.772l-.584.755a3.7 3.7 0 0 0-.51 1.884l.133.992q.266.948.96 1.647Zm16.689 42.012c1.984 0 3.672-1.688 3.672-3.672 0-1.991-1.68-3.672-3.672-3.672s-3.672 1.688-3.672 3.672c0 1.991 1.68 3.672 3.672 3.672m23.417-32.214c3.951 0 3.957-6.14 0-6.14s-3.957 6.14 0 6.14m26.929-32.97c.697 0 .698-1.084 0-1.084s-.698 1.084 0 1.084m-5.854-2.631c2.582 0 5.055-2.27 4.936-4.936s-2.169-4.936-4.936-4.936c-2.582 0-5.055 2.27-4.936 4.936s2.169 4.936 4.936 4.936m252.272 57.147 1.562-2.797.382-.906a2.87 2.87 0 0 0 .068-1.512 1.9 1.9 0 0 0-.259-.957 2.84 2.84 0 0 0-.784-1.22l-.768-.593-.906-.382a2.87 2.87 0 0 0-1.512-.068 2.8 2.8 0 0 0-1.41.45l-2.797 1.562a4.7 4.7 0 0 0-1.684 1.684 4.7 4.7 0 0 0-.641 2.37l.168 1.248a4.7 4.7 0 0 0 1.207 2.072q.638.686 1.511.971.84.441 1.809.404c1.629 0 3.252-.889 4.054-2.325Zm15.741-28.168 5.902.997a3.5 3.5 0 0 0 1.848.083 3.45 3.45 0 0 0 1.723-.55q.81-.437 1.3-1.194.615-.672.83-1.576c.27-1.187.212-2.518-.467-3.572-.639-.992-1.588-1.856-2.77-2.13l-5.806-1.345c-1.248-.289-2.588-.171-3.711.485a3.64 3.64 0 0 0-1.351 1.24 3.6 3.6 0 0 0-.862 1.638c-.281 1.233-.22 2.617.485 3.711l.753.975a4.8 4.8 0 0 0 2.125 1.238Zm17.631 46.67c.179.074.362.121.552.151.494.078 1.21.23 1.782.185.505-.04 1.022-.115 1.52-.202q.13-.023.258-.059c.947-.265 1.879-.705 2.576-1.415q.09-.091.172-.19c.301-.363.602-.743.872-1.131q.15-.217.256-.459c.198-.439.488-1.009.599-1.528.093-.434.136-.887.186-1.327a2 2 0 0 0 .015-.282 4.1 4.1 0 0 0-.559-2.066 4.1 4.1 0 0 0-1.468-1.468 43 43 0 0 0-.978-.413 4.1 4.1 0 0 0-2.176 0 4.1 4.1 0 0 0-1.806 1.053 2.7 2.7 0 0 1-.385.374l.867-.67a2.7 2.7 0 0 1-.577.331l1.081-.456a3 3 0 0 1-.688.184l1.27-.171c-.46.059-.932.064-1.379.187-.437.12-.837.348-1.253.527l1.15-.485a3 3 0 0 1-.68.189l1.28-.172a2.5 2.5 0 0 1-.655.003l1.28.172a2.3 2.3 0 0 1-.552-.151 3.65 3.65 0 0 0-1.92-.086 3.6 3.6 0 0 0-1.79.571 3.64 3.64 0 0 0-1.351 1.24 3.6 3.6 0 0 0-.862 1.638l-.172 1.28q.004 1.303.657 2.431l.753.975a4.8 4.8 0 0 0 2.125 1.238Zm19.945-19.328c2.645 0 5.179-2.326 5.056-5.056s-2.222-5.056-5.056-5.056c-2.645 0-5.179 2.326-5.056 5.056s2.222 5.056 5.056 5.056m-73.763-60.857c2.047 0 4.007-1.8 3.913-3.913s-1.719-3.913-3.913-3.913c-2.047 0-4.007 1.8-3.913 3.913s1.719 3.913 3.913 3.913"/><path fill="#f45b5b" d="M744.886 137.321c1.903 4 3.876 7.98 5.593 12.064q2.66 6.329 5.269 12.679c3.452 8.402 6.782 16.852 10.277 25.236 6.978 16.739 13.555 33.626 20.129 50.526a1724 1724 0 0 1 8.191 21.481c1.104 2.954 2.133 5.928 4.458 8.148 1.361 1.299 3.325 1.692 5.063.958 1.787-.754 2.694-2.346 2.849-4.236.211-2.578-.626-4.985-1.558-7.351a1674 1674 0 0 0-7.67-19.128c-3.552-8.706-7.278-17.344-11.034-25.963-7.276-16.697-14.799-33.252-22.956-49.538q-3.46-6.91-6.984-13.787c-3.524-6.877-4.523-9.279-6.742-13.944-.656-1.38-2.632-1.74-3.871-1.015-1.412.826-1.674 2.486-1.015 3.871Z"/><path fill="#f45b5b" d="M727.076 240.075a73 73 0 0 1 2.308-2.046q.589-.498 1.188-.983c.072-.058.795-.598.421-.332-.282.2.378-.251.438-.293a90 90 0 0 1 5.317-3.423c3.655-2.183 7.326-4.355 11.048-6.422 8.238-4.576 16.525-9.056 24.738-13.68 16.808-9.462 33.607-18.935 50.361-28.491l12.781-7.29 6.066-3.46c3.158-1.801 7.771-3.569 8.658-7.462.565-2.479.251-5.219-1.623-7.097-2.235-2.241-5.583-3.024-8.532-1.779-2.408 1.016-4.644 2.627-6.887 3.972l-12.405 7.44a10280 10280 0 0 0-49.534 29.906c-8.258 5.016-16.532 10-24.694 15.171-7.476 4.736-14.763 9.582-21.051 15.866-1.503 1.502-3.039 2.958-4.474 4.528-1.466 1.604-1.704 4.31 0 5.874 1.713 1.572 4.166 1.576 5.874 0Z"/><g fill="#ff8345"><path d="M743.229 819.366c-57.776-33.676-125.412-52.81-191.895-45.586s-130.346 35.353-181.45 78.487c.161 8.845 5.698 16.606 11.368 23.397 49.598 59.408 127.502 92.295 204.89 92.848 77.389.553 153.504-29.62 213.913-77.994 4.115-3.295 8.547-7.504 8.22-12.766-.243-3.919-3.11-7.113-5.872-9.904-58.948-59.566-144.039-92.282-227.708-87.549"/><path d="M745.507 815.467c-17.909-10.85-36.714-20.112-56.023-28.194-19.148-8.014-38.854-14.148-59.254-18.036-20.652-3.936-41.685-5.898-62.708-5.123-20.383.752-40.792 3.8-60.635 8.473-38.848 9.147-75.983 25.271-109.305 47.218-8.689 5.723-17.082 11.866-25.262 18.293a336 336 0 0 0-5.751 4.62c-3.399 2.792-6.318 5.323-6.159 10.283.194 6.056 2.288 11.945 5.242 17.179 4.898 8.68 12.148 16.328 19.002 23.506a242 242 0 0 0 20.104 18.778c29.199 24.341 63.357 42.236 99.784 53.038 36.628 10.861 75.391 14.39 113.386 10.535 40.54-4.113 79.701-15.849 116.343-33.569 17.848-8.631 34.98-18.737 51.207-30.124a375 375 0 0 0 11.987-8.773c4.164-3.175 8.619-6.275 12.344-9.976 4.205-4.178 7.482-9.732 7.229-15.844-.268-6.482-4.056-11.643-8.441-16.098-26.704-27.131-59.093-48.956-93.96-64.144-35.558-15.489-73.632-24.604-112.429-26.16a287 287 0 0 0-13.403-.224c-2.883.019-5.683.481-8.515.991q-1.696.306-3.388.632-.678.131-1.355.265c-.099.02-2.327.384-.853.302-3.641.201-7.158 3.068-6.983 6.983.162 3.61 3.077 7.199 6.983 6.983-.241.013-1.824-.3.454.006.557.075 1.104.138 1.661.198.705.076 1.411.144 2.116.22q2.472.266 4.939.575c3.06.383 6.093.279 9.174.304 6.114.05 12.227.295 18.325.732a294 294 0 0 1 15.793 1.561l1.05.134c1.033.132.482.019-.222-.032 6.025.438 12.171 1.864 18.087 3.048a303 303 0 0 1 35.466 9.366 306 306 0 0 1 21.175 7.863c.653.271 1.933.822.519.213.865.372 1.731.741 2.594 1.117a308 308 0 0 1 8.037 3.644 303 303 0 0 1 32.176 17.605 297 297 0 0 1 15.217 10.239 357 357 0 0 1 7.362 5.468c.789.599-.299-.232-.375-.291q.418.325.834.651a283 283 0 0 1 5.502 4.415 287 287 0 0 1 13.788 12.096 282 282 0 0 1 6.599 6.378c1.079 1.077 2.167 2.15 3.177 3.293.234.265.454.542.688.807.654.744-.256-.29-.305-.379.164.301.387.579.564.873.107.177.865 1.508.336.472-.641-1.258.41 1.861.151.384-.213-1.213.057.007-.045.164l-.016.321q-.058 1.023.102-.759c-.047.017-.243.829-.259.908-.197.982.151-.662.28-.63-.054-.013-1.384 2.476-.7 1.312.531-.904-.547.623-.815.911-.465.498-.95.975-1.448 1.44-1.176 1.097-2.429 2.105-3.687 3.106-1.161.924-2.331 1.837-3.501 2.751-1.043.815 1.068-.809.012-.011q-.443.337-.884.676-1.034.787-2.072 1.568a374 374 0 0 1-7.794 5.699c-20.992 14.936-43.532 27.735-67.207 37.909l-1.024.438c-.132.056-1.278.537-.314.134s-.183.075-.316.129l-1.029.426a351 351 0 0 1-13.831 5.365 341 341 0 0 1-17.929 5.964 328 328 0 0 1-37.396 8.959q-4.733.84-9.488 1.537-1.098.16-2.196.313c-1.719.243-.119.032.191-.023-.362.064-.735.096-1.099.143q-2.382.306-4.77.574a303 303 0 0 1-19.163 1.544c-12.351.601-24.738.434-37.065-.561a283 283 0 0 1-13.082-1.362c-.457-.058-.918-.109-1.374-.179.04.006 1.772.248.712.093-.799-.117-1.6-.225-2.399-.343a285 285 0 0 1-52.377-12.874 281 281 0 0 1-14.225-5.405q-.64-.264-1.277-.529c-1.276-.529-.031.219.304.129-.709.189-3.094-1.339-3.801-1.653q-2.21-.98-4.401-2a272 272 0 0 1-8.073-3.916 265 265 0 0 1-30.512-18.063 258 258 0 0 1-7.282-5.193c-.258-.191-3.645-2.497-3.571-2.691 0 0 1.396 1.09.542.418l-.813-.635a247 247 0 0 1-15.425-13.162 239 239 0 0 1-12.66-12.648 235 235 0 0 1-8.9-10.157q-.707-.862-1.403-1.735c-.117-.146-.865-1.155-.174-.219.716.968-.254-.362-.381-.535a53.3 53.3 0 0 1-4.826-7.92c-.805-1.634.404 1.3-.161-.421-.264-.805-.537-1.598-.749-2.42-.182-.703-.307-1.411-.452-2.121-.229-1.122.109.724.109.725-.129-.175-.073-1.362-.077-1.464l-2.783 6.718a359 359 0 0 1 7.41-6.085c1.144-.913 2.269-1.911 3.477-2.738-1.353.926-.235.182.417-.316q1.026-.783 2.059-1.559a346 346 0 0 1 65.264-38.627c2.798-1.264 5.597-2.527 8.418-3.739.747-.321 1.983-.874.477-.208.787-.348 1.59-.663 2.387-.99A337 337 0 0 1 507 791.016a327 327 0 0 1 38.94-7.986c.461-.065 2.965-.39.998-.142 1.593-.201 3.185-.407 4.781-.591q5-.578 10.019-.961a265 265 0 0 1 19.67-.763c13.105-.025 26.188.754 39.188 2.414 1.569.2.598.079.258.032l1.15.16a303 303 0 0 1 7.268 1.115q4.966.824 9.903 1.808c6.464 1.289 12.864 2.842 19.265 4.404 25.695 6.271 50.235 15.669 73.646 27.955a399 399 0 0 1 8.865 4.803c5.083 2.835 9.532-4.783 4.557-7.797Z"/></g><path fill="#edc851" d="M359.953 849.919c3.308-2.387 6.795-4.516 10.052-6.964a291 291 0 0 1 9.369-6.756c6.671-4.613 13.559-8.86 20.515-13.025a304 304 0 0 1 21.034-11.49c7.353-3.649 14.433-6.81 21.153-9.487 14.845-5.913 30.142-10.594 45.689-14.27a306 306 0 0 1 26.592-5.063c.552-.08 3.372-.458 1.516-.219a299 299 0 0 1 18.053-1.826c16.305-1.151 32.684-.92 48.956.609a311 311 0 0 1 8.809.953q.8.098 1.597.199c.256.033 2.479.33 1.138.146-1.17-.16.166.025.337.049l1.588.226q1.587.23 3.172.476c2.113.329 4.225.663 6.334 1.02a349 349 0 0 1 24.333 5.023c16.283 3.963 32.284 9.045 47.943 15.004a464 464 0 0 1 14.64 5.861c-1.811-.757.367.159 1.006.433a496 496 0 0 1 5.941 2.594c7.798 3.465 15.499 7.14 23.135 10.947 15.102 7.527 29.869 15.718 44.342 24.39 14.584 8.738 28.727 18.149 43.033 27.325 1.7 1.09 3.363 2.284 5.109 3.298 2.228 1.293 4.857 2.081 7.264 3.017 3.26 1.268 7.797-.818 9.381-3.818 1.805-3.417 1.242-7.194-1.299-10.067-1.822-2.06-3.503-3.928-5.73-5.586-1.74-1.296-3.509-2.556-5.269-3.826-3.528-2.545-7.07-5.051-10.699-7.451a875 875 0 0 0-21.645-13.876c-14.581-9.04-29.452-17.619-44.662-25.558-30.7-16.024-63.01-29.482-96.492-38.467-32.982-8.851-67.31-13.213-101.463-11.438-33.112 1.721-65.906 8.662-96.714 20.936-31.051 12.371-59.794 29.266-85.099 51.154-2.998 2.593-5.637 5.649-8.358 8.53-3.314 3.509 1.129 10.076 5.398 6.996Z"/><path fill="#edc851" d="M354.001 859.582c4.29 7.695 8.452 15.411 13.99 22.299 5.498 6.837 10.849 13.168 16.8 19.762 11.851 13.13 25.25 24.936 39.345 35.589 29.358 22.19 65.611 34.157 101.401 41.149 36.548 7.14 74.162 8.703 111.116 3.969 35.243-4.515 69.254-14.169 101.619-28.835 30.707-13.915 59.392-32.223 84.247-55.048 2.983-2.74 5.821-5.642 8.641-8.549 3.204-3.303 3.534-9.185 0-12.429-3.759-3.451-8.659-3.166-12.429 0-3.119 2.62-6.309 5.15-9.461 7.728a440 440 0 0 1-4.586 3.716c-.821.654-1.647 1.301-2.473 1.95-.13.102-1.173.914-.268.211 1.036-.804-.691.528-.889.679-6.439 4.908-13.076 9.565-19.74 14.163a343.3 343.3 0 0 1-58.276 32.344c-.372.162-2.903 1.252-1.68.727 1.183-.508-.043.018-.24.1q-1.087.453-2.177.901a341 341 0 0 1-22.463 8.297 335.4 335.4 0 0 1-58.212 13.601c-.316.045-2.146.297-.806.115 1.426-.193-.968.124-1.239.158q-6.678.846-13.382 1.428a351 351 0 0 1-26.883 1.286 344 344 0 0 1-46.342-2.674c-.572-.072-1.152-.133-1.722-.221.377.059 2.023.283.075.009a338 338 0 0 1-55.84-12.62 291 291 0 0 1-13.035-4.464 235 235 0 0 1-6.227-2.405q-.825-.334-1.648-.672c-.311-.127-1.731-.743-.115-.044a262 262 0 0 1-3.261-1.429c-7.896-3.545-15.518-7.664-22.842-12.275-7.118-4.481-14.086-9.172-20.798-14.244q-.65-.492-1.296-.986c-.082-.062-1.149-.888-.362-.277.862.669-.492-.387-.684-.538l-.966-.76a339 339 0 0 1-5.424-4.381c-.738-.609-1.458-1.243-2.203-1.843.004.003-2.902-2.338-1.293-1.021q-.637-.52-1.276-1.039a441 441 0 0 1-5.066-4.207c-6.51-5.485-13.018-10.986-19.47-16.539-6.178-5.317-13.232-10.524-20.077-15.467-3.606-2.604-6.651-5.226-9.173-8.917-1.212-1.774-3.98-.217-2.911 1.701Z"/><path fill="#edc84d" d="M584.765 814.211c-29.11 8.373-51.189 36.879-52.017 67.158-.404 14.781 4.621 30.687 16.795 39.08 14.858 10.244 36.426 5.909 49.755-6.258s19.668-30.299 22.377-48.142c1.364-8.987 1.921-18.287-.415-27.072s-7.929-17.051-16.189-20.847c-10.177-4.676-22.359-1.827-32.189 3.542-11.453 6.256-21.065 15.838-27.356 27.272"/><path fill="#edc851" d="M583.613 810.032a67 67 0 0 0-8.36 2.57q-.913.347-1.819.705l-1.165.492q.934-.377.185-.077-.49.2-.98.403c-1.726.719-3.438 1.466-5.115 2.294-5.435 2.686-10.78 6.076-15.317 10.112-9.3 8.272-16.811 18.828-21.376 30.415-9.342 23.711-6.848 56.163 16.229 71.18 11.248 7.319 26.054 7.993 38.585 3.903 13.555-4.424 24.378-13.846 31.83-25.88 6.992-11.291 10.958-24.53 13.029-37.574 2.412-15.192 2.869-32.056-6.35-45.255-4.541-6.502-10.506-11.439-18.051-14.053-7.405-2.566-15.796-2.126-23.274-.13-13.584 3.626-26.088 12.478-34.876 23.341-2.739 3.386-5.381 6.754-6.722 10.963l.783-1.855c-.931 1.726-1.439 3.65-1.94 5.536-.752 2.832.47 6.332 3.154 7.75 2.642 1.396 6.18 1.209 8.316-1.073 1.354-1.446 2.713-2.751 3.881-4.374l-1.214 1.572c1.964-1.827 3.486-4.094 5.114-6.209l-1.303 1.686c3.861-4.955 8.361-9.304 13.316-13.155l-1.714 1.325c4.316-3.314 8.988-6.173 14.004-8.298l-2 .844c3.541-1.466 7.212-2.552 11.009-3.1l-2.208.297c2.89-.384 5.79-.441 8.684-.068l-2.194-.295c2.192.315 4.312.876 6.365 1.707l-1.965-.829a26.4 26.4 0 0 1 5.821 3.412l-1.66-1.282a30.5 30.5 0 0 1 5.183 5.284l-1.278-1.654a36.2 36.2 0 0 1 4.315 7.458l-.82-1.944c1.474 3.502 2.387 7.172 2.899 10.933l-.289-2.152c.811 6.403.443 12.853-.399 19.233l.286-2.132c-1.254 9.24-3.368 18.354-6.994 26.966l.807-1.912c-2.332 5.465-5.228 10.667-8.837 15.396l1.27-1.643c-2.764 3.574-5.901 6.86-9.466 9.644l1.661-1.283a48 48 0 0 1-10.438 6.085l1.98-.835c-3.834 1.602-7.837 2.727-11.956 3.29l2.216-.298c-3.451.442-6.925.482-10.379.049l2.225.299c-3.055-.413-6.027-1.192-8.873-2.378l2.007.847a32.7 32.7 0 0 1-6.823-3.965l1.706 1.318a35.2 35.2 0 0 1-6.12-6.09l1.322 1.711c-2.305-2.986-4.08-6.26-5.571-9.716l.854 2.023c-1.827-4.33-3.012-8.883-3.659-13.533l.296 2.2c-.737-5.552-.685-11.157.044-16.707l-.287 2.139c.923-6.744 2.886-13.266 5.499-19.542l-.772 1.83a77 77 0 0 1 5.508-10.669 76 76 0 0 1 3.302-4.887c.281-.383.582-.755.855-1.143-1.256 1.785-.32.415.026-.016a77 77 0 0 1 2.075-2.483c2.576-2.955 5.32-5.824 8.23-8.451a72 72 0 0 1 3.24-2.755c.182-.146.382-.284.554-.439-.4.362-.8.61-.142.113a71 71 0 0 1 4.858-3.37 54 54 0 0 1 5.938-3.239q.725-.339 1.457-.66c.136-.06.839-.362.274-.122-.609.259.331-.134.451-.182a70 70 0 0 1 3.371-1.255c2.139-.736 3.779-3.007 3.027-5.331-.744-2.298-2.967-3.591-5.331-3.027Zm-109.579-74.897c-.413-1.69-.87-3.368-1.283-5.058s-.581-3.456-.863-5.172c-.552-3.362-1.122-6.72-1.961-10.023-1.684-6.634-3.672-13.17-5.797-19.675-1.453-4.447-6.107-6.951-10.561-5.071-4.328 1.827-6.05 6.98-3.742 11.101 3.287 5.87 6.267 11.926 9.043 18.053 1.346 2.97 2.804 5.883 4.182 8.838q.539 1.155 1.066 2.316c.343.754.608 1.301.762 1.804.508 1.664 1.01 3.329 1.493 5 .576 1.995 2.827 3.441 4.887 2.775 2.097-.679 3.304-2.723 2.775-4.887Zm63.603-11.385c.38-9.325 1.091-18.616 1.678-27.93s1.023-18.619 1.361-27.938q.142-3.99.268-7.982c.091-2.87.681-6.458-.258-9.198-1.344-3.924-5.517-6.928-9.774-5.55-1.923.622-3.778 1.814-4.749 3.652-1.058 2.002-1.162 3.898-.801 6.123l.049.303-.285-2.119c-.023 4.488.521 9.04.758 13.524q.368 6.983.663 13.969c.387 9.144.754 18.288 1.007 27.437.145 5.247.11 10.462-.031 15.709-.071 2.646 2.377 5.176 5.056 5.056 2.832-.127 4.941-2.222 5.056-5.056Zm59.569-3.544c2.659-5.293 5.314-10.686 8.511-15.678a337 337 0 0 1 4.858-7.371c.804-1.186 1.594-2.388 2.448-3.539.316-.425 1.972-2.518.573-.755q.288-.366.571-.735c.998-1.285 1.624-2.306 2.12-3.831.995-3.057-.633-7.058-3.486-8.565-2.929-1.548-6.818-1.328-9.191 1.186-1.783 1.888-2.461 4.173-3.48 6.508-.372.853.765-1.663.062-.203-.138.288-.269.579-.403.869q-.502 1.088-.997 2.178a349 349 0 0 0-3.652 8.352l-.792 1.878c-.589 1.397.356-.682-.058.107-.332.633-.613 1.298-.916 1.946a349 349 0 0 0-1.893 4.128 394 394 0 0 0-4.068 9.397c-.478 1.139-.106 3.126.54 4.128.641.995 1.467 1.73 2.562 2.192 2.314.977 5.488.2 6.69-2.192Z"/></svg>