<?xml version="1.0" encoding="UTF-8"?><svg xmlns="http://www.w3.org/2000/svg" data-name="ARTWORK" viewBox="0 0 1000 1000"><g fill="#edc851"><path d="M464.412 153.775c-93.713 1.188-184.033 48.701-245.047 119.841-106.006 123.601-144.59 335.572-45.757 476.374 94.918 135.224 284.59 183.391 440.816 152.482 193.417-38.267 351.942-220.451 330.871-422.34-4.728-45.303-18.442-89.382-39.274-129.839-77.501-150.509-277.355-244.578-441.716-204.472"/><path d="M464.412 148.418c-46.2-.085-91.829 10.739-133.802 29.816-42.122 19.145-80.291 47.11-111.835 80.924-28.481 30.531-51.472 66.04-69.236 103.763-18.165 38.576-31.075 79.521-37.98 121.609-7.002 42.683-8.074 85.888-2.086 128.753 5.779 41.373 18.833 81.89 39.436 118.298 20.276 35.832 48.006 67.592 79.894 93.542 32.409 26.374 68.683 46.997 107.399 62.593 38.803 15.63 79.584 25.51 121.039 30.774 40.262 5.112 81.186 5.413 121.496.637 41.386-4.903 81.469-15.019 119.881-31.258 37.771-15.968 72.877-37.348 104.815-63.037 31.735-25.525 59.713-55.539 83.164-88.827 23.282-33.048 41.653-69.682 53.98-108.195 12.522-39.125 18.561-80.557 17.341-121.633-1.524-51.314-14.32-101.649-36.058-148.072-17.486-37.343-41.634-71.253-70.475-100.685-28.582-29.168-61.691-54.1-97.257-74.125-35.796-20.154-74.471-35.644-114.392-45.377-19.996-4.875-40.432-8.498-60.974-9.95-19.664-1.39-39.574-.668-59.213.9-9.754.779-19.573 1.988-29.191 3.805-9.42 1.78-18.498 4.631-27.781 6.879-8.129 1.969-4.686 14.51 3.457 12.538 8.915-2.159 18.445-2.908 27.461-4.015 9.521-1.169 19.098-1.9 28.678-2.362 19.296-.931 38.491.593 57.651 2.917q1.859.226 3.716.468c-1.563-.204 1.017.142 1.459.205 1.812.258 3.624.514 5.44.748l1.592.202c3.393.436-1.038-.149.911.126 4.779.675 9.547 1.421 14.3 2.259a415 415 0 0 1 28.971 6.189c19.299 4.842 38.255 11.039 56.712 18.468q1.515.61 3.026 1.231c.383.158 3.444 1.432 1.984.817a448 448 0 0 1 20.827 9.466 450 450 0 0 1 26.023 13.707 440 440 0 0 1 49.743 32.965c1.427 1.092-.157-.138 1.253.974.989.78 1.981 1.558 2.966 2.344a417 417 0 0 1 17.303 14.574 401 401 0 0 1 21.274 20.372 382 382 0 0 1 19.208 21.347 363 363 0 0 1 6.659 8.228q.49.624.976 1.249.683.878-.067-.088l.641.839a390 390 0 0 1 8.397 11.483c26.218 37.41 44.66 80.088 54.786 124.602 5.082 22.341 7.815 44.574 8.288 67.527a348 348 0 0 1-.681 30.076 351 351 0 0 1-1.268 14.592 387 387 0 0 1-.894 7.516c.225-1.758-.117.847-.192 1.375a362 362 0 0 1-.634 4.266c-2.982 19.246-7.552 38.239-13.59 56.753-3.035 9.306-6.464 18.469-10.187 27.521-.11.267-.814 1.936-.133.329q-.313.736-.629 1.471-.632 1.47-1.276 2.935a389 389 0 0 1-9.61 20.236c-8.911 17.448-19.131 34.222-30.475 50.194-2.791 3.93-5.661 7.8-8.576 11.638-.019.025-1.091 1.421-.445.584.723-.937-.634.811-.782 1.001a421 421 0 0 1-7.055 8.773 425 425 0 0 1-19.219 21.695 432.5 432.5 0 0 1-46.52 42.378c-.429.337-2.31 1.802-1.863 1.457a433 433 0 0 1-42.615 28.837 428 428 0 0 1-25.582 14.023 423 423 0 0 1-25.008 11.611c-1.686.715 1.336-.553-.357.146-18.365 7.585-37.21 13.944-56.472 18.833a412 412 0 0 1-28.966 6.227q-7.056 1.26-14.149 2.301c-1.23.181-2.462.353-3.693.528-2.107.299.815-.092-1.299.174-2.654.334-5.308.665-7.966.965-19.519 2.198-39.17 3.2-58.812 3.06a505 505 0 0 1-60.024-4.016c-.524-.067-3.18-.416-1.42-.178q-1.905-.258-3.807-.533a500 500 0 0 1-22.755-3.811 487 487 0 0 1-29.475-6.593c-19.266-4.945-38.229-11.087-56.697-18.476a434 434 0 0 1-6.562-2.686c1.671.701-1.44-.62-1.874-.807a425 425 0 0 1-17.306-7.94c-8.939-4.347-17.725-9.012-26.323-14s-16.948-10.258-25.108-15.87a372 372 0 0 1-11.828-8.479q-1.509-1.13-3.01-2.272c-1.546-1.172.352.293-1.173-.906a417 417 0 0 1-5.889-4.706c-15.317-12.506-29.594-26.292-42.522-41.256-3.311-3.833-6.511-7.754-9.66-11.72-1.193-1.503.227.325-.937-1.202a320 320 0 0 1-6.793-9.224 293 293 0 0 1-16.368-25.815 302 302 0 0 1-13.32-26.669c-.233-.529-1.372-3.167-1.186-2.728.413.975-.287-.693-.295-.711q-.42-1.018-.836-2.039a318 318 0 0 1-7.742-21.207c-6.279-19.28-10.703-39.112-13.543-59.182-.185-1.31-.01-.041.021.191q-.147-1.101-.284-2.204a380 380 0 0 1-2.395-26.618 402 402 0 0 1-.501-30.774c.219-10.12.81-20.232 1.755-30.31.491-5.24 1.083-10.47 1.759-15.69.17-1.312.011-.093-.022.146q.115-.838.233-1.677.276-1.956.568-3.911.587-3.91 1.241-7.808a458 458 0 0 1 14.438-60.379c3.07-9.847 6.488-19.583 10.164-29.22a440 440 0 0 1 5.62-14.035c-.577 1.369.693-1.604.868-2.008q.665-1.538 1.343-3.071a445 445 0 0 1 3.45-7.622c8.424-18.161 18.057-35.768 28.914-52.591 22.45-34.788 49.772-66.028 83.42-91.979 35.421-27.319 76.011-48.195 119.35-59.517a287.5 287.5 0 0 1 63.659-9.19c6.874-.217 6.922-10.702 0-10.715Z"/></g><path fill="#f15c5b" d="M172.094 373.245c-57.287-21.434-108.645-94.534-118.129-153.947-7.198-45.093 20.094-92.295 66.628-101.106 22.958-4.347 46.752.987 68.528 9.457 30.482 11.856 58.529 29.935 81.913 52.803-4.967-4.857-3.843-35.288-4.184-43.183-2.2-50.874 35.021-97.773 84.767-109.679 26.991-6.46 57.483-.936 78.023 17.728 21.581 19.611 29.468 49.928 33.94 78.744a535 535 0 0 1 5.267 48.371c-77.286 10.872-151.952 39.949-216.237 84.207-40.426 27.832-79.358 66.671-82.751 115.633"/><path fill="#f45b5b" d="M174.524 369.087c-6.671-2.872-13.057-6.361-19.141-10.324-5.655-3.683-12.238-8.361-17.672-12.93-12.143-10.209-23.116-21.925-32.872-34.419-.851-1.09-.199-.26-.028-.036q-.575-.752-1.146-1.507a247 247 0 0 1-12.17-17.685 245 245 0 0 1-11.638-20.731 233 233 0 0 1-4.457-9.46c-.177-.398-.942-2.126-.175-.354-.512-1.182-1.014-2.369-1.524-3.552-.138-.32-1-2.185-.149-.341-.167-.362-.31-.745-.461-1.113a209 209 0 0 1-2.196-5.564c-2.66-7.032-4.94-14.214-6.724-21.519a154 154 0 0 1-2.144-10.252q-.234-1.344-.438-2.693c-.056-.374-.095-.757-.163-1.129.357 1.941.116.893.068.433-.205-1.976-.404-3.947-.51-5.932a93 93 0 0 1 .064-10.98c.109-1.679.278-3.351.463-5.023.162-1.463-.073.293-.074.478.002-.535.161-1.129.243-1.658q.215-1.378.47-2.749a94 94 0 0 1 5.084-17.565c.189-.474.627-2.195.025-.102.148-.516.445-1.029.663-1.516a91 91 0 0 1 4.812-9.274 89 89 0 0 1 4.848-7.31c.144-.195 1.563-1.932.684-.918-.81.934.816-1 1.071-1.307a85 85 0 0 1 5.533-6.057 83 83 0 0 1 6.537-5.837q.32-.258.646-.511.72-.564-.578.448c.874-1.19 3.05-2.216 4.271-3.02a79 79 0 0 1 9.431-5.329c.761-.363 1.534-.698 2.299-1.052 1.115-.516-1.923.761-.159.064.527-.208 1.051-.423 1.58-.626a79 79 0 0 1 10.451-3.2 83 83 0 0 1 6.081-1.171c.42-.065 2.101-.271.417-.07q.752-.092 1.505-.173a90 90 0 0 1 4.147-.345c4.911-.298 9.844-.207 14.746.211q1.703.146 3.4.341c.427.049 2.115.262.409.033.503.067 1.005.142 1.507.217a132 132 0 0 1 7.507 1.355c9.728 2.042 19.222 5.106 28.459 8.757a239 239 0 0 1 4.61 1.877c-1.573-.657-.389-.164-.068-.024 2.171.949 4.339 1.902 6.488 2.902a245 245 0 0 1 45.243 27.35q.424.323.847.649-1.08-.834-.348-.264c3.61 2.888 7.197 5.792 10.671 8.843a249 249 0 0 1 9.896 9.191c3.263 3.196 9.126 3.496 12.336 0 3.248-3.538 3.381-8.82 0-12.336-.989-1.029 1.193 1.99.736.965-.114-.256-.281-.627-.451-.844 1.216 1.556.777 2.024.394.794a20 20 0 0 1-.404-1.53c-.215-.942-.27-1.946-.519-2.874-.006-.023.297 2.54.161 1.174-.027-.274-.064-.547-.093-.821a78 78 0 0 1-.181-1.928c-.432-5.269-.636-10.569-.723-15.856-.164-9.98-.731-20.229.254-30.163.077-.773.167-1.543.257-2.314.084-.718.492-1.266-.099.702.102-.34.116-.809.168-1.149q.37-2.435.858-4.849c.628-3.113 1.4-6.198 2.311-9.24s1.955-6.029 3.131-8.972c.142-.356.291-.711.433-1.067.45-1.126-.745 1.709-.254.601.311-.702.615-1.406.934-2.104a109 109 0 0 1 2.13-4.403 112.3 112.3 0 0 1 10.232-16.337c1.361-1.808-1.082 1.354.324-.419q.627-.792 1.269-1.571a114.5 114.5 0 0 1 10.071-10.748c2.32-2.176 4.759-4.236 7.237-6.244 1.214-.984-.344.264-.498.375.313-.225.615-.47.924-.702q.928-.698 1.871-1.376a114 114 0 0 1 4.314-2.956c5.425-3.537 11.132-6.306 16.966-9.073-.17.081-2.067.841-.592.257.364-.144.726-.294 1.089-.438q1.094-.433 2.195-.841a107 107 0 0 1 4.735-1.631 104 104 0 0 1 9.58-2.568 95 95 0 0 1 5.046-.947q.635-.1 1.271-.194c1.105-.168.312-.467-.564.074.59-.364 2.182-.249 2.877-.315a95 95 0 0 1 15.752-.175 92 92 0 0 1 4.798.473q1.084.136-.893-.122c.587-.184 1.912.291 2.535.398a90 90 0 0 1 7.816 1.702c3.395.902 6.708 2.031 9.975 3.318.757.298 1.118.027-.48-.21.324.048.9.394 1.163.513q1.158.522 2.299 1.08a77 77 0 0 1 4.758 2.54 71 71 0 0 1 4.299 2.703q1.053.714 2.079 1.464c.343.25.68.508 1.021.76.939.693-1.492-1.211-.153-.102 2.807 2.324 5.472 4.782 7.941 7.466a79 79 0 0 1 3.335 3.874c.264.327.512.69.793.999 0 0-1.13-1.516-.522-.662.554.777 1.133 1.536 1.68 2.319a93 93 0 0 1 5.662 9.236q1.214 2.26 2.316 4.577.553 1.163 1.08 2.337c.176.392.347.787.521 1.18.726 1.637-.541-1.346-.089-.221 1.333 3.318 2.586 6.657 3.688 10.06 2.224 6.866 3.978 13.892 5.463 20.952 1.605 7.63 2.85 15.332 3.956 23.049.153 1.07.298 2.142.45 3.212.208 1.468-.21-1.625-.02-.154l.211 1.609q.442 3.42.841 6.846.774 6.65 1.38 13.317c.606 6.667.742 8.893 1.029 13.347l7.023-9.224a506 506 0 0 0-77.037 17.157c-25.725 7.881-50.852 17.812-75.066 29.537-23.524 11.391-46.207 24.583-67.662 39.515-19.81 13.787-38.728 29.448-54.014 48.23-15.124 18.583-27.234 40.276-30.803 64.251-.513 3.446-.94 6.9-1.192 10.375-.354 4.879 4.544 9.545 9.33 9.33 5.358-.24 8.951-4.104 9.33-9.33.1-1.378.222-2.754.375-4.127.04-.358.306-2.443.105-.961-.185 1.369-.035.26.007-.012.08-.52.157-1.039.242-1.558a103 103 0 0 1 1.706-8.29 107 107 0 0 1 3.6-11.6q.38-1.021.779-2.035c.146-.371 1.026-2.483.469-1.191-.566 1.311.25-.57.39-.888a122 122 0 0 1 2.807-5.926 133 133 0 0 1 3.912-7.157c2.89-4.922 6.086-9.663 9.517-14.223.192-.255.389-.508.579-.765.621-.836-.488.625-.491.629.424-.612.924-1.181 1.388-1.763a179 179 0 0 1 2.851-3.482 192 192 0 0 1 5.545-6.31 221 221 0 0 1 12.414-12.453 264 264 0 0 1 13.098-11.358 292 292 0 0 1 3.315-2.654c.593-.468 1.232-.908 1.798-1.408-.011.01-1.447 1.11-.615.475l1.034-.791a325 325 0 0 1 7.037-5.211c20.692-14.905 42.771-28.001 65.553-39.44a509 509 0 0 1 28.267-13.126l1-.426c1.255-.541-1.524.636-.263.11a510 510 0 0 1 41.109-15.228 505 505 0 0 1 74.993-17.996q4.832-.772 9.678-1.453c3.883-.547 7.262-5.449 7.023-9.224-1.193-18.881-3.236-37.746-6.369-56.407-2.622-15.623-6.567-30.835-13.041-45.332-6.532-14.626-16.232-27.501-29.008-37.208s-28.148-14.959-43.896-17.006c-30.168-3.921-60.317 6.866-83.79 25.537-21.552 17.144-37.394 42.436-42.563 69.56-1.388 7.284-2.177 14.731-2.113 22.15.038 4.385.177 8.768.206 13.155.035 5.515.111 11.034.449 16.539q.066 1.074.147 2.147c.061.805.61 5.351.325 2.835-.178-1.569-.061-.463-.008-.072.14 1.019.267 2.04.409 3.06.089.642.181 1.284.284 1.924.339 2.107.743 4.237 1.456 6.254.349.988.79 1.947 1.194 2.909-1.553-3.692-.014.13.428.965.615 1.161 1.43 2.237 2.343 3.177l12.336-12.336c-28.023-27.196-62.785-48.574-100.293-59.796-19.983-5.979-41.486-8.445-61.979-3.577-15.537 3.69-29.939 11.886-41.274 23.103-22.865 22.627-32.468 55.937-27.401 87.41 5.134 31.89 20.277 62.271 39.139 88.205 19.249 26.466 43.856 51.083 74.369 64.075 3.629 1.545 7.299 2.966 11.051 4.185 2.257.733 4.828-.668 5.681-2.788.804-1.998.26-5.053-1.97-6.014Z"/><path d="M441.769 187.798c-41.418-.158-82.328 9.479-119.993 26.491-37.758 17.054-71.977 42.055-100.271 72.286-25.561 27.31-46.186 59.109-62.119 92.895-16.298 34.559-27.887 71.23-34.074 108.947-6.294 38.371-7.247 77.151-1.864 115.684 5.178 37.069 16.901 73.376 35.36 105.996 18.165 32.101 43.012 60.581 71.58 83.83 29.132 23.707 61.693 42.219 96.495 56.237 34.78 14.01 71.321 22.824 108.477 27.542 35.98 4.568 72.55 4.837 108.573.569 37.21-4.408 73.184-13.499 107.722-28.094 33.854-14.306 65.282-33.495 93.904-56.516 28.44-22.875 53.486-49.785 74.501-79.617 20.862-29.613 37.307-62.459 48.35-96.969 11.217-35.055 16.627-72.203 15.531-109.006-1.371-46.069-12.871-91.227-32.388-132.902-15.667-33.453-37.325-63.839-63.164-90.203-25.608-26.129-55.283-48.475-87.147-66.413-32.07-18.053-66.733-31.939-102.498-40.655-17.962-4.377-36.331-7.647-54.788-8.899a251 251 0 0 0-26.538-.384c-8.673.33-16.804.599-26.377 1.377-8.789.714-17.649 1.816-26.31 3.493-8.399 1.626-16.593 4.307-24.786 6.292-8.129 1.969-4.686 14.51 3.457 12.538 7.971-1.931 16.969-2.525 24.356-3.411 8.509-1.021 17.068-1.647 25.628-2.048 8.683-.407 17.259-.377 25.925.268 4.265.317 8.523.912 12.789 1.161-1.972-.115 2.104.2 2.845.276 1.106.114 2.214.215 3.32.331q3.324.348 6.641.759c.605.075 3.468.454 1.502.185q1.413.193 2.825.398c1.718.249 3.436.491 5.158.714l1.422.18c3.041.392-1.239-.19.516.073 4.266.64 8.529 1.27 12.779 2.02a371 371 0 0 1 25.889 5.533c17.246 4.329 34.185 9.868 50.678 16.509q1.354.545 2.704 1.1c.522.214 3.309 1.381 1.503.616q3.136 1.33 6.25 2.714a402 402 0 0 1 35.615 17.998 396 396 0 0 1 44.45 29.461c1.585 1.211-.676-.542.889.693.884.698 1.77 1.392 2.651 2.094a371 371 0 0 1 15.462 13.025 359 359 0 0 1 19.01 18.206 341 341 0 0 1 17.164 19.078 322 322 0 0 1 5.95 7.354q.437.557.873 1.116c.758.971-.871-1.156.334.44 2.555 3.382 5.071 6.791 7.503 10.262 23.669 33.778 39.719 70.988 48.835 111.077 4.626 20.341 6.929 38.995 7.361 60.037a311 311 0 0 1-1.744 39.917c-.242 2.242-.525 4.478-.799 6.716.239-1.954-.02.146-.131.92a307 307 0 0 1-.567 3.812c-2.666 17.199-6.751 34.171-12.148 50.716-2.713 8.317-5.78 16.503-9.105 24.594-.158.386-.824 1.94-.001.015l-.562 1.315a340 340 0 0 1-4.088 9.136 350 350 0 0 1-5.642 11.568c-7.964 15.592-17.098 30.581-27.236 44.853a397 397 0 0 1-7.664 10.4c-.085.112-1.055 1.374-.306.403.814-1.056-.42.537-.607.776q-.886 1.132-1.78 2.256a380 380 0 0 1-21.701 24.971 386.4 386.4 0 0 1-41.571 37.869c-.345.271-2.351 1.831-1.546 1.21.965-.744-.304.231-.412.313q-.766.584-1.535 1.167a389 389 0 0 1-13.676 9.884 386 386 0 0 1-22.341 14.314 382 382 0 0 1-35.045 18.408 377 377 0 0 1-8.83 3.93l-1.334.57c-1.569.672 1.544-.627-.039.012-16.486 6.655-33.221 12.453-50.465 16.83a368 368 0 0 1-25.885 5.564q-6.306 1.125-12.644 2.056c-1.099.162-2.2.316-3.3.472-2.197.31 1.354-.166-.849.114a518 518 0 0 1-7.119.862c-17.443 1.964-35.004 2.86-52.556 2.734a451 451 0 0 1-53.64-3.589c-.77-.098-2.926-.386-.957-.117a445 445 0 0 1-23.736-3.881 435 435 0 0 1-26.34-5.892c-17.217-4.419-34.162-9.908-50.667-16.511a439 439 0 0 1-5.864-2.4c1.953.815-.794-.343-1.394-.603a379 379 0 0 1-15.465-7.095c-7.989-3.885-15.839-8.054-23.523-12.511s-15.145-9.167-22.437-14.182a332 332 0 0 1-10.57-7.577q-1.349-1.01-2.69-2.03c-1.667-1.265.835.667-.81-.626a360 360 0 0 1-5.263-4.206c-13.687-11.176-26.446-23.495-37.999-36.868a318 318 0 0 1-8.633-10.474c-1.295-1.634.611.823-.654-.836a290 290 0 0 1-6.071-8.243 262 262 0 0 1-14.627-23.069 270 270 0 0 1-11.903-23.833q-.394-.902-.786-1.806c-.054-.123-.696-1.627-.214-.491s-.153-.37-.204-.495q-.376-.91-.747-1.822a286 286 0 0 1-6.917-18.951c-5.622-17.264-9.427-34.945-12.102-52.887-.194-1.304.039.317.061.483q-.13-.985-.254-1.969a327 327 0 0 1-1.094-9.879 344 344 0 0 1-1.047-13.909 360 360 0 0 1-.448-27.5c.196-9.044.724-18.08 1.569-27.086.439-4.684.994-9.352 1.572-14.021.162-1.311-.037.268-.062.444l.208-1.499q.246-1.749.508-3.495.524-3.493 1.109-6.978a409 409 0 0 1 12.903-53.957c2.744-8.8 5.8-17.499 9.08-26.112a417 417 0 0 1 5.014-12.544c-.756 1.807.428-.991.655-1.517q.594-1.375 1.198-2.745a404 404 0 0 1 3.079-6.813c7.519-16.234 16.119-31.974 25.812-47.013 4.796-7.441 9.882-14.679 15.193-21.761.669-.892 1.317-1.797 1.988-2.687.27-.358 1.688-2.221 1.216-1.606-.654.852.308-.397.359-.462q.588-.752 1.178-1.502 1.032-1.31 2.078-2.608a320 320 0 0 1 9.384-11.137c12.885-14.596 27.605-28.489 42.663-40.169 31.523-24.451 67.729-43.164 106.352-53.352a255.6 255.6 0 0 1 56.703-8.31c6.872-.23 6.923-10.688 0-10.715Z"/><path d="M416.746 292.858a917 917 0 0 1 6.79 26.449c2.148 8.932 4.156 17.92 6.528 26.795 4.722 17.665 9.414 35.345 14.446 52.924q7.548 26.368 15.29 52.68c7.742 26.312 10.68 34.799 16.134 52.157 5.483 17.447 10.973 34.893 16.773 52.238l2.189 6.537c.808 2.409 2.247 4.52 4.482 5.828 2.09 1.223 5.171 1.741 7.514.983 4.827-1.562 8.516-6.807 6.811-11.996-5.712-17.382-11.534-34.726-17.306-52.088s-11.482-34.75-17.127-52.156c-5.647-17.412-11.583-34.733-17.292-52.126-5.683-17.314-11.508-34.58-17.241-51.877-5.764-17.391-12.394-34.501-17.823-52.001q-1.022-3.293-2.04-6.587c-.65-2.103-2.971-3.659-5.183-2.943-2.178.705-3.563 2.904-2.943 5.183Z"/><g fill="#8170f9"><path d="M482.978 535.192c59.079-32.032 123.546-54.097 189.862-64.985 6.651-1.092 13.621-2.049 20.007.104s11.908 8.421 10.891 15.084c-.947 6.201-6.789 10.275-12.124 13.575-53.333 32.99-108.714 64.374-169.427 80.08-8.665 2.242-17.734 4.163-26.505 2.376s-17.186-8.213-18.594-17.052c-1.844-11.572 8.143-21.297 17.197-28.736"/><path d="M484.952 538.57c3.156-1.532 5.303-2.51 8.532-3.796 3.371-1.342 6.706-2.702 10.013-4.199a599 599 0 0 1 13.418-5.88c1.436-.612-1.179.493.25-.106l1.255-.526q1.255-.524 2.514-1.043a600 600 0 0 1 11.375-4.555c.678-.264 1.359-.523 2.023-.823-1.696.766-.253.113.086-.026q2.316-.95 4.641-1.88a604 604 0 0 1 18.722-7.135c25.001-9.056 50.553-16.678 76.49-22.549 14.535-3.29 29.229-6.208 43.998-8.239l-2.234.3c3.959-.528 7.947-.841 11.927-.365l-2.264-.304c2.02.275 3.999.739 5.889 1.51l-2.047-.864a19.2 19.2 0 0 1 4.093 2.418l-1.742-1.345a18.5 18.5 0 0 1 3.067 3.109l-1.351-1.748c.71.962 1.307 1.973 1.788 3.068l-.874-2.07c.398.979.68 1.975.841 3.019l-.31-2.311c.115.942.122 1.866.019 2.81l.311-2.316a12.8 12.8 0 0 1-.837 3.066l.881-2.088a15.3 15.3 0 0 1-1.778 3.001l1.371-1.774c-1.201 1.532-2.614 2.846-4.139 4.05l1.783-1.378c-3.073 2.373-6.473 4.296-9.79 6.302q-5.632 3.407-11.288 6.773a1261 1261 0 0 1-22.594 13.145c-15.211 8.626-30.629 16.924-46.357 24.571a556 556 0 0 1-26.797 12.186l2.296-.969c-17.637 7.429-35.71 13.772-54.224 18.644-5.429 1.429-10.89 2.819-16.46 3.572l2.694-.362c-4.215.539-8.394.609-12.611.059l2.719.365c-2.425-.35-4.763-.95-7.033-1.875l2.428 1.025a27.7 27.7 0 0 1-5.952-3.422l2.046 1.58a24.6 24.6 0 0 1-4.257-4.259l1.572 2.035c-1.116-1.542-2.074-3.036-2.917-4.745l.977 2.315c-.571-1.619-1.096-3.151-1.328-4.864l.33 2.457a19.6 19.6 0 0 1 .031-4.689l-.314 2.34c.302-2.086 1.029-3.952 1.653-5.944l-.825 1.956c.577-1.049.954-2.197 1.417-3.3l-.809 1.916c.764-1.763 1.736-3.418 2.386-5.231l-1.904 3.267c.704-.908 1.404-1.817 2.08-2.746.86-1.182-1.123 1.38-.184.236.21-.255.415-.515.625-.77a65 65 0 0 1 2.773-3.13c1.842-1.956 3.679-4.183 5.751-5.889 2.587-2.131 2.372-6.846 0-9.024-2.75-2.524-6.264-2.273-9.024 0 1.531-1.261.069-.157-.278.086q-.474.332-.945.668c-1.109.792-2.155 1.68-3.27 2.458 2.135-1.49-.633.508-1.232 1.012q-.458.385-.911.778a69 69 0 0 0-2.216 2.006 55 55 0 0 0-1.959 1.95 46 46 0 0 0-1.443 1.586q1.827-1.265.206-.055c-1.906 1.472-4.049 3.835-5.2 5.916l1.28-1.657c-3.254 4.051-5.216 8.804-5.906 13.941-.726 5.402.301 10.449 2.66 15.335 2.16 4.473 6.099 7.973 10.089 10.783 3.432 2.418 7.55 4.196 11.622 5.178 10.519 2.538 21.399.56 31.673-2.149 8.545-2.253 17.002-4.844 25.363-7.7 17.324-5.919 34.3-12.918 50.883-20.668 16.032-7.492 31.718-15.72 47.088-24.486 15.463-8.82 30.661-18.097 45.74-27.555 7.685-4.82 16.087-10.014 18.787-19.276 2.947-10.112-3.212-20.812-12.281-25.381-9.813-4.943-20.562-3.248-30.927-1.412a599 599 0 0 0-26.144 5.233 605 605 0 0 0-51.497 13.919c-17.407 5.539-34.466 12.019-51.272 19.17a401 401 0 0 0-24.318 11.335c-7.876 3.992-15.966 7.917-23.375 12.729-3.64 2.364-7.265 4.707-10.985 6.943-1.754 1.054-2.559 3.562-1.404 5.353 1.221 1.894 3.379 2.362 5.353 1.404Z"/></g><path fill="#f45b5b" d="M389.385 229.645c-2.69 4.415-3.247 9.571-2.38 14.587.161.929.403 1.845.726 2.731.459 1.26.955 2.626 1.695 3.76s1.626 2.246 2.584 3.215c.949.961 2.091 1.961 3.431 2.266.843.192 1.747.267 2.614.247 3.453-.077 6.003-3.322 5.108-6.705-.393-1.485-.869-2.722-1.993-3.881a20 20 0 0 1-1.367-1.529l.956 1.238c-1.029-1.36-1.968-2.805-2.65-4.372l.594 1.407a17 17 0 0 1-1.15-4.203l.2 1.487a16 16 0 0 1 .011-4.086l-.19 1.413c.089-.593.204-1.181.363-1.76.136-.495.893-2.345.179-.713.565-1.292.9-2.479.51-3.896-.323-1.173-1.23-2.444-2.324-3.022-2.461-1.3-5.447-.6-6.918 1.814Zm199.261 565.994.637 4.408c.104.718.179 1.448.312 2.161.136.732.384 1.459.576 2.178a5.1 5.1 0 0 0 1.207 2.293 5.1 5.1 0 0 0 1.892 1.736l1.611.68a5.1 5.1 0 0 0 2.688.12 3.35 3.35 0 0 0 1.701-.46 5.06 5.06 0 0 0 2.17-1.394c1.141-1.243 2.147-3.016 1.975-4.767-.073-.742-.137-1.485-.225-2.226-.158-1.329-.409-2.578-.693-3.874l-.965-4.408a5 5 0 0 0-1.196-2.272 5.05 5.05 0 0 0-1.875-1.721 4.97 4.97 0 0 0-2.484-.793 5.06 5.06 0 0 0-2.664.119c-1.617.523-3.177 1.525-3.993 3.071l-.674 1.596a6.74 6.74 0 0 0 0 3.553m-358.584-130.09c7.55-3.081 15.528-5.141 23.558-6.516 2.832-.485 4.674-4.117 3.826-6.738-.976-3.015-3.715-4.396-6.738-3.826-8.48 1.6-16.541 4.708-24.171 8.719-2.016 1.06-2.716 3.712-1.872 5.713.8 1.895 3.281 3.512 5.397 2.649Zm541.482-212.663c2.998-.37 5.629-1.08 8.391-2.315 2.373-1.061 4.523-2.585 6.476-4.29 1.892-1.651 3.668-3.688 4.936-5.856 1.462-2.499 2.035-5.499 2.406-8.324.132-1.003-.585-2.489-1.305-3.15-.736-.675-1.563-1.092-2.558-1.225-2.327-.313-4.076 1.091-4.887 3.191q-.091.24-.188.477l.261-.62c-.132.202-.209.461-.315.679a20 20 0 0 1-.713 1.327c-.518.88-1.15 1.675-1.702 2.529-.277.427-.546.856-.842 1.271-.233.326-.845.938.195-.23-.141.158-.266.332-.402.494a22 22 0 0 1-2.117 2.202c-.345.313-.728.589-1.066.907 1.1-1.037.552-.421.221-.18q-.309.225-.627.438a22 22 0 0 1-2.643 1.522c-.096.047-.638.234-.691.32.147-.237 1.23-.491.266-.122a20 20 0 0 1-1.443.493c-.976.293-1.97.503-2.979.647-1.103.157-2.484 1.345-2.986 2.296-.533 1.009-.746 2.05-.593 3.186.297 2.211 2.439 4.637 4.907 4.332ZM627.021 301.909c-.095-.893-.142-1.781-.287-2.671-.053-.326-.124-.642-.187-.965-.045-.228-.167-1.219-.058-.22s.01.009-.009-.216a18 18 0 0 1-.026-2.595c.013-.218.039-.435.05-.653.066-1.221-.276 1.49-.049.303.102-.533.202-1.062.326-1.59.265-1.124.579-2.216.97-3.302.183-.507.645-.967-.199.447.138-.231.229-.5.348-.741q.363-.735.783-1.439c.309-.518.651-1.01.991-1.508.602-.882-.846.961-.318.407.185-.195.349-.42.527-.621.722-.814 1.524-1.548 2.341-2.264.418-.367 1.265-.799-.325.209.228-.145.443-.32.664-.476.852-.6 1.697-1.203 2.436-1.94 1.92-1.916 2.508-5.348.993-7.697-1.577-2.446-4.324-3.573-7.173-2.919-3.55.815-6.531 3.704-8.694 6.503a27.4 27.4 0 0 0-4.478 8.532c-.889 2.795-1.266 5.824-.988 8.749.161 1.694.396 3.415.888 5.049.609 2.025 1.499 3.569 2.841 5.194 1.272 1.54 3.827 1.762 5.524 1.046 1.689-.713 3.318-2.652 3.108-4.621Zm-230.73 487.016c2.654-3.516 5.271-7.028 7.758-10.664l3.653-5.34c1.257-1.838 2.175-3.88 3.181-5.864 1.095-2.16.723-4.695-1.24-6.212-1.788-1.382-4.733-1.432-6.323.376-1.713 1.948-3.499 3.839-4.946 5.998l-3.601 5.37c-2.482 3.702-4.805 7.477-7.11 11.292-1.353 2.239-.569 5.588 1.792 6.836 2.63 1.389 5.148.443 6.836-1.792m348.364-127.166c2.741 2.86 6.155 4.893 9.875 6.202 1.895.667 3.825.999 5.816 1.242.775.095 1.499.13 2.275.033 1.779-.221 3.165-.415 4.551-1.751.24-.231.45-.478.659-.739 1.009-1.257 1.562-2.454 1.341-4.096-.214-1.594-1.04-2.647-2.328-3.562-.918-.653-1.786-1.112-2.958-1.27a16.5 16.5 0 0 0-2.277-.158c-1.101.007-2.175 0-3.27-.134l1.504.202c-1.68-.226-3.3-.692-4.862-1.349l1.304.55a19.8 19.8 0 0 1-4.132-2.423l1.071.827a22 22 0 0 1-1.163-.982c-2.029-1.84-5.429-2.154-7.406 0-1.953 2.127-2.026 5.292 0 7.406ZM244.677 457.074c.894-.24 1.808-.352 2.704-.565-.25.06-1.078.115-.366.064.226-.016.451-.04.678-.054q.682-.043 1.366-.042c.826.002 1.969-.101 2.756.171-.172-.059-1.354-.216-.541-.063.223.042.446.078.669.122.503.099 1.001.222 1.503.327.901.189 1.791.409 2.668.693.439.142.867.316 1.303.465.745.254-1.273-.582-.567-.245.206.099.417.189.623.288a61 61 0 0 1 2.446 1.267c1.016.546 2.012.982 3.152 1.135-.267-.036 2.183.287.638.076-1.174-.161-.052.002.141.035 2.284.388 4.401-.086 5.884-2.006 1.434-1.855 1.46-4.154.438-6.218-.85-1.715-1.957-3.031-3.58-4.096-1.237-.811-2.629-1.353-4.006-1.878-2.4-.914-4.951-1.37-7.502-1.608-2.401-.223-4.985.18-7.32.687-2.378.516-4.682 1.42-6.841 2.533s-2.889 3.971-1.995 6.089c.937 2.221 3.383 3.46 5.752 2.823Zm256.76 87.909a9.7 9.7 0 0 0-1.535.834c-1.419.951-2.37 2.134-3.323 3.547a14.4 14.4 0 0 0-2.082 4.881c-.242 1.11-.472 2.274-.411 3.412.123 2.3.902 4.452 2.607 6.065 2.127 2.012 5.021 2.648 7.854 2.311 1.778-.212 3.527-.427 5.195-1.097 2.268-.912 4.07-1.855 5.884-3.554 1.699-1.591 2.77-3.546 3.536-5.712.364-1.029.462-2.242.575-3.285.058-.539.06-1.064.001-1.603-.188-1.728-.376-2.772-1.023-4.304-.623-1.476-1.205-2.368-2.316-3.658-2.01-2.334-5.056-3.368-8.036-3.532l2.081.28c-2.187-.323-3.789-.493-5.981.117-1.807.502-3.748 1.731-4.997 3.114-1.323 1.467-2.409 3.096-2.9 5.04-.465 1.84-.592 4.247.134 6.039a8.24 8.24 0 0 0 2.121 3.639l1.669 1.29a8.2 8.2 0 0 0 4.162 1.126 6.2 6.2 0 0 0 3.177-.71 6.2 6.2 0 0 0 2.654-1.705 6.2 6.2 0 0 0 1.705-2.654 6.2 6.2 0 0 0 .71-3.177 8.2 8.2 0 0 0-1.126-4.162l-.055-.128.831 1.97a3 3 0 0 1-.167-.643l.294 2.19a3 3 0 0 1 .003-.637l-.294 2.188c.04-.256.107-.496.202-.737l-.829 1.964c.127-.285.281-.541.468-.791l-1.284 1.661c.231-.287.487-.538.775-.767l-1.659 1.281c.505-.376 1.06-.757 1.638-1.008l-1.901.802a4.6 4.6 0 0 1 .646-.204l-2.081.28c.228-.014.45-.006.677.021l-2.073-.279c.275.044.533.116.791.221l-1.854-.783c.305.141.582.311.848.516l-1.563-1.207c.254.21.478.437.685.693l-1.201-1.554c.256.339.464.7.633 1.089l-.769-1.822c.181.448.304.906.378 1.383l-.27-2.011c.077.587.077 1.169.002 1.757l.268-1.992a6.7 6.7 0 0 1-.428 1.556l.748-1.773c-.214.482-.485.92-.805 1.339l1.151-1.489a8.4 8.4 0 0 1-1.332 1.326l1.473-1.138c-.693.532-1.442.957-2.241 1.306l1.713-.723a14.8 14.8 0 0 1-3.556.969l1.865-.251a5 5 0 0 1-1.169.04l1.851.249a3 3 0 0 1-.47-.113l1.659.7a2 2 0 0 1-.411-.232l1.401 1.083a1.4 1.4 0 0 1-.232-.241l1.081 1.399a1.6 1.6 0 0 1-.173-.297l.695 1.647a3 3 0 0 1-.174-.68l.245 1.825a9 9 0 0 1 .024-1.971l-.24 1.787a10.2 10.2 0 0 1 .71-2.603l-.657 1.558c.259-.586.606-1.103.908-1.663.293-.544.531-1.097.875-1.615l.589-1.395a4.4 4.4 0 0 0 .104-2.328c-.165-1.225-.668-2.492-1.606-3.353a6.95 6.95 0 0 0-2.577-1.502 4.4 4.4 0 0 0-2.328-.104 4.34 4.34 0 0 0-2.171.693Zm60.692-32.695c.771 6.531 1.559 13.06 2.309 19.594l1.096 9.552c.399 3.477.662 6.97 1.516 10.368.834 3.318 6.173 2.68 6.03-.816-.14-3.425-.835-6.76-1.424-10.132l-1.698-9.719c-1.132-6.481-2.227-12.97-3.338-19.455-.43-2.511-4.796-1.959-4.493.608Zm19.358-8.758 2.206 18.766 1.074 9.136c.184 1.564.356 3.129.552 4.691.12.954.232 1.98.517 2.906.271.88.801 1.664 1.275 2.442 1.219 1.998 4.447 1.685 5.061-.661.491-1.874.545-3.476.258-5.397-.233-1.557-.539-3.107-.812-4.657l-1.643-9.31-3.286-18.619c-.513-2.904-5.552-2.27-5.203.704Zm24.106-1.264c.562 3.887 1.285 7.75 2.187 11.573.45 1.908.939 3.809 1.479 5.693.27.941.574 1.881.933 2.791.514 1.304 1.366 2.043 2.417 2.896 1.479 1.2 4.031.968 4.527-1.195.282-1.231.652-2.45.372-3.718-.209-.946-.549-1.893-.848-2.815a140 140 0 0 1-1.702-5.632 133 133 0 0 1-2.633-11.45c-.332-1.8-2.608-2.984-4.295-2.439-1.985.642-2.719 2.351-2.439 4.295Zm48.42-10.254-5.836 1.459a4.44 4.44 0 0 0-2.006 1.056 4.46 4.46 0 0 0-1.519 1.655 4.4 4.4 0 0 0-.7 2.193 4.47 4.47 0 0 0 .105 2.352l.595 1.409a5.9 5.9 0 0 0 2.116 2.116l1.409.595a5.94 5.94 0 0 0 3.136 0l5.836-1.459a4.44 4.44 0 0 0 2.006-1.056 4.46 4.46 0 0 0 1.519-1.655 4.4 4.4 0 0 0 .7-2.193 4.47 4.47 0 0 0-.105-2.352l-.595-1.409a5.9 5.9 0 0 0-2.116-2.116l-1.409-.595a5.94 5.94 0 0 0-3.136 0"/><path d="M257.471 806.112c39.639 83.308 126.72 138.031 217.733 153.135 19.497 3.235 39.338 4.861 59.052 3.461 22.224-1.577 43.98-6.964 65.586-12.399 14.246-3.583 28.61-7.243 41.762-13.785 11.212-5.577 21.317-13.142 30.924-21.174 41.23-34.469 75.772-82.066 77.863-135.765-24.501 35.143-60.511 62.121-101.122 75.759-20.024 6.725-40.965 10.257-61.868 13.302a1435 1435 0 0 1-102.058 11.153c-15.766 1.154-31.648 2.045-47.351.225-14.746-1.708-29.101-5.779-43.381-9.835l-81.108-23.036c-12.547-3.563-25.19-7.165-36.781-13.147"/><path d="M253.117 807.313c1.56 4.871 3.15 9.733 5.347 14.35a239 239 0 0 0 6.694 13.022c4.687 8.475 10.102 16.545 15.902 24.304a349 349 0 0 0 7.153 9.217c-1.556-1.935.868 1.09 1.386 1.701.472.556.957 1.102 1.439 1.65a266 266 0 0 0 9.939 10.689c6.825 6.948 14.014 13.574 21.557 19.738 31.214 25.511 67.672 44.774 106.114 56.827 20.717 6.495 42.041 10.83 63.612 13.241 12.666 1.416 25.443 2 38.178 1.357 13.156-.664 26.262-2.633 39.166-5.23 12.264-2.468 24.404-5.522 36.53-8.585 12.262-3.097 24.313-6.588 35.924-11.658 11.561-5.049 21.844-12.232 31.723-19.998a286 286 0 0 0 24.261-21.407c29.922-29.557 54.947-67.184 61.039-109.545.831-5.781 1.458-11.564 1.672-17.402.16-4.353-3.315-9.014-7.608-9.992-4.723-1.076-9 .813-11.702 4.762a139 139 0 0 1-2.966 4.141 273 273 0 0 1-1.646 2.194c-.135.178-.955 1.231-.145.193.842-1.079-.239.297-.395.494a200 200 0 0 1-6.771 8.12 202 202 0 0 1-14.779 15.119 204 204 0 0 1-11.922 10.169c-.409.323-.817.654-1.234.966.054-.04 1.508-1.143.564-.442-.734.545-1.458 1.103-2.193 1.647a204 204 0 0 1-17.959 11.886 202 202 0 0 1-18.758 9.759c-.651.296-4.229 2.345-4.662 2.051-.003-.002 1.866-.767.716-.308-.364.145-.724.298-1.087.446q-1.45.59-2.912 1.156a197 197 0 0 1-10.19 3.633c-16.199 5.282-32.975 8.522-49.785 11.14-8.578 1.336-17.179 2.527-25.781 3.704-1.707.234 1.648-.216-.061.008l-1.454.193-2.909.382a1415 1415 0 0 1-20.385 2.504 1435 1435 0 0 1-52.564 5.098c-17.355 1.361-34.876 2.739-52.254.974-1.113-.113-2.223-.254-3.334-.379-1.26-.142.33.043.485.067-.468-.071-.937-.136-1.405-.207a170 170 0 0 1-6.528-1.124c-4.186-.802-8.344-1.747-12.48-2.776-8.345-2.076-16.604-4.484-24.876-6.829-33.465-9.488-67.033-18.662-100.468-28.235-1.887-.54-3.715-1.246-5.539-1.971-.369-.146-2.397-1.015-1.142-.46-1.112-.492-2.236-.959-3.318-1.511-4.231-2.159-10.054-1.247-12.436 3.261-2.193 4.15-1.261 10.129 3.261 12.436 7.82 3.991 15.856 8.218 24.193 11.038s16.78 5.162 25.204 7.559l51.865 14.756c17.028 4.845 34.039 10.308 51.472 13.524 18.312 3.378 36.648 3.349 55.162 2.111 36.54-2.444 73.017-6.413 109.25-11.733 17.158-2.519 34.324-5.331 51.058-9.961 15.257-4.221 30.103-10.106 44.079-17.547 25.97-13.828 49.205-33.256 67.267-56.484 2.63-3.382 5.161-6.821 7.655-10.303l-19.31-5.23a142 142 0 0 1-.529 7.354c-.115 1.154-.254 2.304-.389 3.456-.298 2.546.274-1.719.009-.099-.145.885-.267 1.774-.414 2.66a143 143 0 0 1-3.123 14.228 153 153 0 0 1-4.649 14.21 165 165 0 0 1-1.266 3.219c-.054.133-1.034 2.477-.349.862s-.318.72-.375.851a173 173 0 0 1-3.255 6.988 204 204 0 0 1-15.414 26.103 221 221 0 0 1-4.121 5.732c-.335.451-2.911 3.891-1.182 1.594-.789 1.048-1.617 2.067-2.438 3.089a249 249 0 0 1-9.996 11.681c-6.886 7.569-14.216 14.73-21.894 21.494a299 299 0 0 1-12.575 10.477c-1.573 1.24-.295.225.022-.015q-.891.677-1.788 1.348a184 184 0 0 1-3.256 2.371 144 144 0 0 1-7.437 4.958 118 118 0 0 1-7.359 4.222 107 107 0 0 1-5.64 2.754c-.438.199-3.43 1.458-1.18.537-5.27 2.157-10.662 3.982-16.119 5.601-11.531 3.421-23.274 6.232-34.97 9.025-5.886 1.405-11.791 2.738-17.726 3.921a317 317 0 0 1-9.384 1.731q-1.88.317-3.766.608c-.942.145-1.886.279-2.829.42-2.318.348 1.557-.172-.992.135-12.199 1.468-24.423 1.977-36.701 1.412a266 266 0 0 1-18.586-1.53q-2.376-.276-4.748-.592c2.094.281-1.281-.191-1.968-.292a325 325 0 0 1-36.685-7.576c-9.303-2.485-18.475-5.411-27.541-8.651a326 326 0 0 1-13.484-5.159c-1.021-.417-2.036-.907-3.077-1.275 2.674.943-1.109-.487-1.651-.723a315 315 0 0 1-6.756-3.043c-17.288-8.029-33.871-17.595-49.387-28.673a290 290 0 0 1-6.797-5.002c-.059-.045-1.981-1.503-.77-.582s-.704-.549-.763-.595c-1.03-.809-2.068-1.608-3.099-2.418 1.906 1.497-1.055-.844-1.517-1.215a280 280 0 0 1-7.886-6.566 270 270 0 0 1-20.541-19.711c-6.463-6.9-12.84-13.822-18.692-21.26q-.448-.57-.893-1.142c.954 1.23-.515-.681-.57-.753-.59-.778-1.178-1.557-1.755-2.343-.433-.589-.833-1.201-1.263-1.792.05.069-1.887-2.371-.93-1.144-.826-1.058-1.597-2.164-2.381-3.253a239 239 0 0 1-7.993-11.84c-2.482-3.927-5.211-7.542-7.842-11.546-2.689-4.092-9.885-1.622-8.252 3.479Z"/><path fill="#8170f9" d="M413.785 881.146c-1.511 4.41-3.336 8.896-4.211 13.487-.492 2.58-.848 5.193-1.137 7.802-.317 2.858-.81 5.798.552 8.462 1.596 3.121 6.366 2.92 8.015 0 1.413-2.501 1.015-5.676 1.187-8.462a92 92 0 0 1 .411-4.684c.019-.163.245-1.969.129-1.08.296-2.258.53-4.949.784-6.613a48 48 0 0 1 1.584-6.896c.58-1.897-.69-4.219-2.649-4.665-2.107-.48-3.976.637-4.665 2.649m37.701 2.024c-.736 1.868-1.605 3.771-2.072 5.725a160 160 0 0 0-1.24 5.689c-.847 4.219-1.516 8.465-2.082 12.729-.454 3.423-1.135 7.125-.83 10.582.224 2.529.867 4.667 2.709 6.523 2.364 2.381 6.241 2.411 8.582.028 1.047-1.065 1.546-2.703 1.099-4.158q-.123-.44.025.357.177.81-.095 1.619c.105-.874.196-1.52.079-2.388a4.2 4.2 0 0 0-.666-2.088l.351.869c.012-.153-.159-.673-.197-.828-.072-.293-.157-.59-.238-.88-.269-.96.053 1.181.057.475.003-.625-.036-1.242-.012-1.869.132-3.474.334-6.954.609-10.419a175 175 0 0 1 .784-7.71l.153-1.2c-.148 1.164.061-.43.076-.531.291-2.05.739-4.103.928-6.165.159-1.737.226-3.485.375-5.224.181-2.113-1.766-3.937-3.706-4.198-2.243-.301-3.897 1.051-4.689 3.061Zm36.326 1.394c-1.648 1.539-1.874 4.022-2.297 6.135-.415 2.071-.5 4.207-.591 6.314-.152 3.52-.125 7.047.079 10.564.225 3.88.603 7.802 1.327 11.622q.482 2.54 1.089 5.055c.298 1.234.712 2.54 1.312 3.66.576 1.074 1.419 1.905 2.267 2.757 2.53 2.541 7.421 1.489 8.25-2.178.25-1.107.57-2.205.562-3.35-.007-1.166-.287-2.506-.556-3.665-.389-1.68-.783-3.356-1.112-5.05s-.668-3.375-.969-5.069q-.225-1.268-.418-2.541c-.058-.383-.138-.771-.17-1.157.124 1.502-.009-.091-.037-.318a105 105 0 0 1-.752-10.33c-.038-1.64.061-3.3-.075-4.933-.174-2.084.146-4.892-1.103-6.639-1.646-2.303-4.625-2.915-6.807-.877Zm39.261 23.588 2.014 1.647 1.007.823c.587.48 1.183 1.036 1.818 1.434.724.453 1.462.883 2.193 1.324l.516.312c.67.405 1.414.605 2.196.635.351.013.704.005 1.055.008.877.006 1.649-.411 2.174-1.091.566-.733.665-1.517.496-2.414-.066-.351-.126-.704-.199-1.054-.201-.966-.877-1.688-1.506-2.406-.569-.65-1.125-1.314-1.71-1.95-.56-.609-1.269-1.117-1.897-1.656l-2.028-1.74c-.885-.76-1.865-1.269-3.065-1.269-1.063 0-2.333.472-3.065 1.269-.758.826-1.321 1.91-1.269 3.065.048 1.081.395 2.35 1.269 3.065Zm66.502-11.166c2.613 0 5.117-2.298 4.996-4.996s-2.195-4.996-4.996-4.996c-2.613 0-5.117 2.298-4.996 4.996s2.195 4.996 4.996 4.996"/><path fill="#edc851" d="M81.928 185.819c2.809-13.983 9.767-26.666 20.023-36.51 1.413-1.357 2.919-2.607 4.352-3.941 1.521-1.415 2.969-2.886 4.466-4.327 2.469-2.378-.668-6.18-3.574-4.633-3.492 1.859-6.467 4.147-9.207 7-2.677 2.788-5.132 5.795-7.375 8.943-4.326 6.07-7.777 12.835-10.268 19.857a72.7 72.7 0 0 0-3.176 12.298c-.22 1.313.346 2.657 1.724 3.036 1.217.334 2.772-.411 3.036-1.724Zm18.669 29.524c1.432-5.367 2.976-10.7 4.421-16.062 1.423-5.284 3.086-10.514 5.181-15.572.29-.7-.167.385.13-.309a82 82 0 0 1 1.228-2.732 80 80 0 0 1 1.692-3.396 91 91 0 0 1 3.528-6.096 70 70 0 0 1 2.88-4.199q.234-.313.471-.625c-.522.688.255-.316.292-.362a58 58 0 0 1 4.561-5.059 53 53 0 0 1 2.858-2.618c.492-.418.994-.822 1.497-1.225.582-.467-.805.573.2-.146.262-.188.519-.381.782-.568 2.147-1.529 4.354-3.047 6.616-4.4a3.926 3.926 0 0 0 1.601-4.886c-.698-1.655-2.785-2.956-4.616-2.265-2.52.951-4.956 1.993-7.179 3.522a58 58 0 0 0-6.169 4.887c-3.726 3.393-6.966 7.327-9.796 11.49-6.175 9.083-9.811 19.726-12.361 30.336-1.55 6.451-2.361 12.983-3.139 19.564-.156 1.319 1.15 2.518 2.349 2.66 1.313.156 2.618-.613 2.972-1.94Zm36.167-9.954 5.471-6.565q.572-.531.809-1.259.367-.7.337-1.507c0-.96-.426-2.106-1.146-2.767-.746-.685-1.725-1.193-2.767-1.146-.982.044-2.111.36-2.767 1.146l-5.471 6.565a2.9 2.9 0 0 0-.809 1.259 2.95 2.95 0 0 0-.337 1.507c0 .96.426 2.106 1.146 2.767.746.685 1.725 1.193 2.767 1.146.982-.044 2.111-.36 2.767-1.146M380.169 40.01c-4.491.523-8.951 1.285-13.329 2.423-4.329 1.125-8.454 2.692-12.523 4.547-8.014 3.654-15.429 8.506-22.132 14.211-6.766 5.759-12.638 12.546-17.425 20.031-2.953 4.617-5.5 9.718-4.623 15.347.891 5.718 5.926 9.24 11.257 10.413 9.591 2.11 22.305 2.07 29.172-6.119 1.802-2.149 2.11-4.526.909-7.042-1.741-3.646-6.045-5.274-9.874-5.107-3.017.131-5.955 1.016-8.754 2.097-5.799 2.24-10.977 5.353-15.725 9.367-8.672 7.331-15.078 17.672-17.93 28.653-.865 3.331-1.479 6.833-1.569 10.275s.421 6.888 1.215 10.233c.665 2.8 3.609 4.506 6.34 4.139 2.702-.363 5.162-2.792 5.011-5.676-.129-2.443.007-4.868.14-7.307.063-1.159.188-2.313.295-3.469.051-.548.409-2.565.012-.364.123-.685.208-1.376.336-2.061a48.3 48.3 0 0 1 2.481-8.699c.084-.217.173-.432.257-.649.47-1.216-.623 1.409-.094.216a56 56 0 0 1 1.67-3.466 52 52 0 0 1 3.783-6.086l.517-.704c.589-.811-.269.351-.328.416.391-.428.728-.916 1.1-1.361a51 51 0 0 1 2.577-2.852 49 49 0 0 1 3.841-3.545c.268-.222.541-.438.811-.657.872-.708-1.102.806-.121.097 1.978-1.43 4.006-2.76 6.171-3.893a45 45 0 0 1 3.139-1.49q-1.247.522-.614.265c1.254-.479 2.505-.943 3.793-1.326a26 26 0 0 1 1.91-.475c1.125-.242-1.196 0-.429.065.353.03.775-.01 1.131-.027.904-.043-.498-.052-.621-.115q.298.05.591.131.865.284-.578-.279c.448.248.404.417-.472-.45.634.628-.716-1.361-.049-.03l.909-7.042c-.55.681-1.161 1.261-1.793 1.862-.532.505.98-.684.371-.277-.14.094-.275.197-.415.291q-.633.424-1.306.777c-.35.185-.719.332-1.07.515 1.503-.782.204-.115-.233.027-.887.288-1.796.511-2.713.681-.232.043-1.636.331-.651.116.968-.212-.423.029-.676.049q-1.45.112-2.906.104c-1.87-.008-3.722-.175-5.58-.37-.75-.079 1.175.182.42.059-.179-.029-.36-.053-.539-.083a24 24 0 0 1-1.437-.277 17 17 0 0 1-1.231-.326c-.229-.07-.452-.165-.682-.228-.628-.172 1.174.638.182.074-.353-.201-.7-.411-1.05-.614-.607-.351.767.751.308.223-.109-.125-.249-.247-.37-.362-.699-.666.238.172.208.292.014-.058-.442-.578-.393-.674.03-.059.386 1.346.134.255-.04-.174-.072-.593-.174-.73.417.562.034.987.078.329.016-.247.008-.521.009-.766.005-.715.272-.092-.063.286.075-.085.09-.47.115-.586q.151-.692.37-1.366c.084-.261.182-.515.27-.774.426-1.246-.333.636.01-.04a65 65 0 0 1 2.978-5.287 85 85 0 0 1 4.1-5.941c.14-.186.358-.405.46-.604-.011.022-.611.774-.241.317.638-.79 1.27-1.583 1.923-2.36a92 92 0 0 1 8.126-8.537 90 90 0 0 1 4.313-3.726c.394-.319.793-.63 1.189-.946.432-.345-.21.162-.244.187l.607-.461a90.7 90.7 0 0 1 12.539-7.924c1.91-.998 3.858-1.906 5.826-2.781.17-.076.802-.337-.035.011l.704-.291a74 74 0 0 0 2.293-.981c.615-.277-.638.259-.009.002l.884-.362q.708-.286 1.421-.559a83 83 0 0 1 12.752-3.763c1.738-.363 2.837-2.298 2.587-3.963-.241-1.603-1.74-3.342-3.547-3.132Z"/><path fill="#f45b5b" d="M691.129 161.958q.568-1.733 1.156-3.46.295-.863.595-1.724l.226-.646q.167-.445-.034.029l.186-.409a402 402 0 0 1 3.072-6.512c2.127-4.423 3.998-8.968 6.155-13.381 4.261-8.716 9.002-17.199 13.975-25.527a286 286 0 0 1 6.536-10.432c.379-.577.741-1.142 1.053-1.759 1.116-2.213 1.405-3.929.89-6.373-.804-3.817-5.139-5.749-8.658-4.916-3.954.935-5.867 5.06-7.718 8.306a291 291 0 0 0-3.533 6.382c-2.343 4.362-4.558 8.777-6.594 13.29-4.214 9.34-8.001 18.877-11.248 28.596-.862 2.581-1.485 5.251-2.14 7.89-.695 2.8-1.66 5.521-2.511 8.277-.687 2.227.815 4.956 3.111 5.48 2.449.558 4.701-.739 5.48-3.111Zm82.821 42.682c3.548-4.411 7.377-8.531 11.233-12.674s7.549-8.407 11.298-12.638a2391 2391 0 0 1 22.702-25.242 1531 1531 0 0 1 9.86-10.713 34 34 0 0 0 2.019-2.392c.864-1.118 1.55-2.076 1.887-3.553.407-1.787.291-3.332-.049-5.151-.342-1.828-1.751-3.49-3.157-4.576-1.602-1.238-3.29-1.774-5.337-1.891-5.33-.305-8.314 4.226-11.267 7.831a1542 1542 0 0 0-5.233 6.425c-3.58 4.42-7.14 8.856-10.669 13.317-3.844 4.857-7.601 9.785-11.359 14.709-3.418 4.479-6.918 8.921-10.126 13.555-3.67 5.301-7.235 10.655-11.16 15.771-.839 1.093-1.009 3.331-.601 4.592s1.086 2.285 2.136 3.096c2.138 1.652 5.961 1.851 7.825-.466Zm66.872 58.285c2.724-1.48 5.032-3.686 7.472-5.595.195-.152 1.034-.802.101-.083-1.026.791.13-.099.267-.203q.767-.585 1.538-1.164a339 339 0 0 0 4.49-3.428l-1.58 1.221c12.132-9.369 25.21-17.161 38.927-23.965a215 215 0 0 1 11.801-5.41l-2.161.912q1.692-.713 3.396-1.397c.833-.334 1.664-.667 2.491-1.016 2.645-1.116 4.568-3.358 5.331-6.142 1.032-3.766-.692-7.884-4.018-9.875-2.234-1.337-5.155-1.791-7.631-.887-1.139.416-2.25.944-3.366 1.416a212 212 0 0 0-11.197 5.119 173 173 0 0 0-13.99 7.738c-9.616 5.903-18.767 12.585-27.399 19.85a119 119 0 0 0-6.683 6.107c-2.467 2.418-5.02 4.791-6.849 7.743-1.486 2.399-1.075 6.087 1.035 8.024 2.222 2.039 5.348 2.49 8.024 1.035Zm43.048 74.016a269 269 0 0 0 16.971-6.209 316 316 0 0 0 9.149-3.872 269 269 0 0 0 4.136-1.87c.72-.333 1.458-.648 2.163-1.012 1.411-.729 2.378-1.851 3.336-3.094 1.293-1.678 1.001-4.487 0-6.198-1.072-1.833-3.153-3.093-5.302-3.041-3.621.088-7.046 2.604-10.219 4.204a265 265 0 0 1-7.921 3.832c-2.578 1.195-5.168 2.445-7.819 3.471 1.176-.456.097-.041-.149.061l-1.104.458q-.995.41-1.992.812a278 278 0 0 1-4.225 1.66c-2.725 1.047-4.904 3.813-3.91 6.886.897 2.771 3.908 4.889 6.886 3.91ZM100.601 699.494c-15.103 17.317-25.315 38.951-29.395 61.555-2.074 11.493-2.831 23.204-1.581 34.83 1.233 11.476 3.807 22.72 8.19 33.413 4.979 12.148 11.571 23.169 19.773 33.417l-1.343-1.739c10.02 13.158 23.321 24.256 37.619 32.49 14.575 8.393 30.841 14.094 47.623 15.661 17.213 1.607 35.327-2.36 48.648-13.764 14.404-12.329 19.199-32.376 20.224-50.527.907-16.07-2.917-34.927-17.546-44.056-8.389-5.235-19.434-5.753-28.521-2.074-5.125 2.075-9.65 4.777-13.676 8.625-3.554 3.397-6.582 7.51-8.967 11.804-4.487 8.076-7.333 17.184-9.011 26.243s-2.44 18.329-1.969 27.548c.942 18.422 5.991 36.581 15.037 52.681 4.378 7.792 9.782 15.185 15.933 21.673 6.015 6.345 13.046 11.905 20.353 16.677 7.34 4.793 15.254 8.634 23.45 11.729 8.216 3.103 16.644 4.848 25.37 5.766a94 94 0 0 0 5.847.439c2.03.087 4.074-.111 6.095-.025 3.591.152 7.023-3.265 6.862-6.862-.172-3.848-3.015-6.699-6.862-6.862 2.533.107-.729-.084-1.264-.153-1.275-.165 1.291.188.406.054-.687-.104-1.374-.203-2.059-.315-.343-.056-.685-.118-1.028-.174a17 17 0 0 0-1.386-.204q-2.024-.262.15-.004c-.603-.236-1.422-.242-2.061-.361a105 105 0 0 1-8.584-1.975 139 139 0 0 1-16.737-5.763l2.046.863a112 112 0 0 1-24.682-14.404l1.847 1.427c-7.642-5.93-14.519-12.883-20.44-20.532l1.489 1.927c-5.431-7.075-9.904-14.822-13.39-23.03l.963 2.282a111.5 111.5 0 0 1-7.635-27.972l.342 2.549c-1.284-9.618-1.323-19.363-.057-28.985l-.344 2.558c1.111-8.178 3.064-16.332 6.256-23.957l-.969 2.297c1.694-3.969 3.761-7.752 6.385-11.185l-1.502 1.944c1.796-2.297 3.808-4.401 6.097-6.211l-1.942 1.501a31.7 31.7 0 0 1 6.832-4.005l-2.291.967a29 29 0 0 1 7.179-1.95l-2.548.342a24.7 24.7 0 0 1 6.103.018l-2.546-.342c1.765.264 3.463.724 5.114 1.401l-2.287-.965a22.3 22.3 0 0 1 4.75 2.783l-1.936-1.496a23.8 23.8 0 0 1 3.997 4.047l-1.495-1.935c1.527 2.014 2.741 4.215 3.723 6.541l-.963-2.283c1.471 3.587 2.367 7.36 2.897 11.195l-.341-2.538c.931 7.073.559 14.188-.386 21.239l.34-2.533c-.9 6.504-2.381 12.931-4.922 19.001l.959-2.271c-1.584 3.702-3.55 7.205-5.995 10.409l1.485-1.922a41.6 41.6 0 0 1-7.111 7.148l1.92-1.484c-3.062 2.361-6.411 4.273-9.97 5.782l2.264-.956c-4.478 1.856-9.178 3.044-13.974 3.715l2.516-.338c-7.076.946-14.245.758-21.313-.169l2.5.336c-9.249-1.255-18.276-3.929-26.876-7.526l2.184.922c-9.819-4.145-19.047-9.572-27.485-16.079l1.79 1.383c-8.634-6.701-16.361-14.501-23.066-23.128l1.326 1.716c-6.017-7.794-11.13-16.277-15.082-25.3q-.16-.366-.317-.731c-.5-1.143.319.764.335.797-.283-.598-.51-1.237-.754-1.852a113 113 0 0 1-3.722-10.976 117 117 0 0 1-3.216-15.165c-.077-.538-.16-1.688.062.501-.029-.282-.073-.565-.108-.846a123 123 0 0 1-.589-5.936c-.195-2.621-.374-5.242-.444-7.871a124.6 124.6 0 0 1 .982-19.294c.154-1.235-.043.429-.058.43.022 0 .136-.95.152-1.058q.172-1.163.365-2.323.632-3.792 1.494-7.537c1.176-5.111 2.654-10.162 4.501-15.071a136 136 0 0 1 1.563-3.944c-.451 1.095-.075.178.043-.096a122 122 0 0 1 1.395-3.115 120 120 0 0 1 3.962-7.779 117 117 0 0 1 4.633-7.63 113 113 0 0 1 4.685-6.568q-.413.535.076-.092c1.453-1.855 1.945-4.6 0-6.385-1.701-1.561-4.727-1.901-6.385 0Z"/></svg>