<?xml version="1.0" encoding="UTF-8"?><svg xmlns="http://www.w3.org/2000/svg" data-name="ARTWORK" viewBox="0 0 1000 1000"><g fill="#55bfbf"><path d="M369.338 90.823C253.157 218.845 116.78 361.994 37.283 515.512c-8.449 16.315-16.81 35.528-9.454 52.364 4.533 10.377 14.158 17.436 23.059 24.435 89.753 70.575 140.353 178.708 213.443 266.426 22.379 26.858 47.363 52.198 77.614 69.723 52.728 30.546 116.218 34.69 177.128 36.502 73.026 2.172 147.115 1.941 217.744-16.745s138.335-57.858 177.885-119.286c44.886-69.717 48.279-157.729 44.748-240.57-2.026-47.531-5.863-94.964-9.699-142.383l-9.748-120.494c-4.465-55.199-13.234-118.093-59.294-148.839-28.141-18.785-63.856-20.662-97.624-22.779a2049 2049 0 0 1-347.432-51.973"/><path d="M366.19 87.675c-15.716 17.315-31.864 34.14-48.134 50.933-16.3 16.824-32.112 34.118-47.932 51.395-32.568 35.57-64.621 71.596-95.326 108.794-30.418 36.85-59.629 74.707-86.473 114.252-13.116 19.322-25.682 39.023-37.506 59.163a890 890 0 0 0-17.046 30.351c-5.497 10.262-11.074 20.648-14.68 31.758-3.772 11.621-4.886 24.498-.231 36.027 4.395 10.884 12.881 18.7 21.891 25.841 16.864 13.367 32.733 27.717 47.541 43.342 29.853 31.499 55.239 66.789 79.804 102.464 24.993 36.297 49.311 73.081 76.517 107.788 28.072 35.813 59.836 70.59 100.753 91.819C387.498 963.46 435.154 970.5 482 973.393c49.907 3.082 100.451 4.052 150.372.922 90.566-5.678 183.623-29.606 251.58-93.043 32.454-30.295 55.552-68.573 68.913-110.81 13.678-43.239 17.621-89.178 17.827-134.325.23-50.514-3.787-101.039-7.82-151.357-4.292-53.55-8.829-107.083-13.383-160.611-3.308-38.876-7.985-79.766-26.954-114.578-9.19-16.866-22.151-31.566-38.339-42-19.436-12.528-42.309-17.586-64.957-20.33-24.584-2.979-49.456-3.664-74.131-5.685a2051 2051 0 0 1-77.564-7.837c-51.947-6.25-103.645-14.585-154.948-24.855-24.89-4.982-49.678-10.448-74.369-16.332-12.121-2.888-17.294 15.789-5.151 18.683 100.18 23.871 202.189 40.174 304.806 48.851 23.952 2.025 47.995 3.013 71.926 5.226 21.414 1.98 43.461 5.846 62.163 17.039 31.774 19.017 45.18 55.405 51.928 90.023 3.654 18.748 5.31 37.798 6.794 56.818l6.077 77.857c4.089 52.388 8.571 104.765 11.316 157.245 4.52 86.42 6.969 181.432-40.926 257.532-44.983 71.473-126.927 109.487-207.464 124.29-48.987 9.004-99.088 10.243-148.769 9.516-46.018-.673-93.003-1.116-138.131-11.099-21.427-4.739-42.381-11.704-61.681-22.248-19.319-10.555-36.426-24.377-52.02-39.841-30.707-30.45-56.169-65.956-80.776-101.366-48.753-70.155-94.955-143.962-163.138-197.228-7.434-5.808-16.329-12.14-19.534-21.441-3.435-9.968-.053-21.004 3.827-30.331 8.607-20.694 20.788-40.451 32.223-59.675 23.47-39.456 49.72-77.156 77.22-113.892 28.194-37.663 58.118-73.978 88.537-109.854 30.184-35.598 61.528-70.18 91.882-105.621 14.181-16.558 28.498-32.924 43.15-49.067 3.844-4.235-2.435-10.552-6.297-6.297Z"/></g><path fill="#edc84f" d="M268.328 748.984c-12.89 19.391-22.669 41.029-28.478 63.583-.83 3.223-1.576 6.658-.574 9.832 1.617 5.124 7.092 7.808 12.032 9.924 72.446 31.033 145.215 61.777 220.499 85.361 37.979 11.898 76.57 21.961 115.731 29.136 29.332 5.374 80.577 21.082 107.466 2.563 25.985-17.899 28.521-56.316 35.91-84.182 11.585-43.694 25.67-86.867 39.388-129.926 28.351-88.99 58.618-177.357 86.869-266.379q4.239-13.35 8.41-26.722c12.902-41.361 25.884-82.698 39.075-123.969-1.586 4.963-32.243 20.23-36.674 24.15a236.4 236.4 0 0 0-24.929 25.7c-15.579 18.698-26.679 39.194-36.927 61.109-23.014 49.214-44.357 98.97-63.739 149.867-25.586 67.188-51.845 137.069-103.328 187.252-10.042 9.788-21.159 18.832-34.156 24.097-12.707 5.147-26.611 6.45-40.303 7.147-86.973 4.433-175.002-13.741-253.109-52.255"/><path fill="#edc851" d="M264.588 746.797c-12.105 16.234-21.367 34.064-28.106 53.166-3.155 8.944-7.697 20.575-1.555 29.224 5.66 7.971 16.576 10.972 25.124 14.712 40.074 17.53 80.258 34.845 120.979 50.831 40.308 15.824 81.165 30.091 122.876 41.771 36.862 10.322 74.383 17.996 111.926 25.373 30.175 5.93 68.853 11.846 92.627-12.728 11.27-11.65 17.25-27.148 21.409-42.54 4.123-15.259 6.771-30.861 10.912-46.124 11.574-42.653 25.297-84.685 38.734-126.776 13.599-42.598 27.625-85.057 41.646-127.518 13.951-42.25 27.86-84.514 41.32-126.924 13.454-42.39 26.48-84.915 39.863-127.327q4.989-15.81 10.014-31.608c1.307-4.109-1.536-8.713-5.578-9.824-4.5-1.236-8.277 1.534-9.824 5.578 1.924-5.031-.354.615.952-1.869.615-1.17.413-.434.015-.084-.396.347-.772.728-1.16 1.086-1.529 1.413 1.175-.768-.74.591a107 107 0 0 1-2.43 1.687c-3.742 2.506-7.63 4.796-11.518 7.065-6.541 3.817-13.807 7.177-19.625 12.093-23.098 19.514-41.123 44.814-54.978 71.499-14.577 28.077-27.103 57.394-39.603 86.44-12.72 29.556-24.72 59.392-36.195 89.452-19.517 51.128-39.725 103.112-72.88 147.211a251 251 0 0 1-26.478 29.894c-9.885 9.523-20.975 18.425-34.179 22.786-14.085 4.652-29.061 5.083-43.76 5.433a510 510 0 0 1-45.123-.933c-59.17-3.844-118.395-17.81-172.853-41.832-6.793-2.996-13.508-6.157-20.17-9.433-4.547-2.235-10.155-1.228-12.843 3.367-2.42 4.137-1.2 10.597 3.367 12.843 56.018 27.539 116.96 45.062 179.103 51.097 30.421 2.954 61.617 3.745 92.052.501 15.761-1.68 30.803-5.521 44.273-14.16 12.408-7.957 23.2-18.395 33.087-29.253 38.622-42.415 62.165-95.493 82.815-148.337 11.225-28.724 21.968-57.619 33.723-86.136 12.533-30.405 25.814-60.5 39.663-90.327 12.748-27.457 27.277-53.49 48.346-75.498a235 235 0 0 1 11.953-11.634c.091-.083 2.015-1.816 2.023-1.806.058.068-2.084 1.446-.633.511a213 213 0 0 1 8.761-5.333c7.605-4.396 15.51-8.518 22.595-13.741 3.416-2.519 6.274-4.865 7.842-8.934l-15.401-4.246c-26.603 82.871-52.382 165.989-79.597 248.664-27.162 82.516-55.037 164.865-80.138 248.04-5.748 19.046-11.665 38.189-16.124 57.586-3.392 14.753-5.838 29.82-11.11 44.066-1.181 3.191-1.891 4.909-3.615 8.31-1.658 3.272-3.539 6.425-5.68 9.404-.992 1.382-3.944 4.711-6.181 6.757-2.546 2.329-4.376 3.661-7.953 5.512a46 46 0 0 1-2.179 1.05c1.628-.737-.829.31-.958.358a53 53 0 0 1-4.754 1.491c-1.65.437-3.32.799-5 1.1-2.723.488-1.886.36-4.671.6-7.472.644-15.006.353-22.461-.374-7.202-.703-14.565-1.941-22.624-3.526-7.468-1.469-14.908-3.063-22.354-4.639-18.112-3.834-36.327-7.032-54.359-11.271-41.303-9.71-81.751-22.427-121.834-36.27-40.07-13.839-79.551-29.318-118.782-45.367a5591 5591 0 0 1-29.679-12.25c-8.737-3.633-18.026-6.765-26.397-11.194-2.632-1.393-5.005-2.785-4.71-6.076.42-4.675 2.265-9.431 3.485-13.948 2.539-9.396 5.919-18.644 9.9-27.521 3.885-8.665 8.111-17.201 12.887-25.415 2.875-4.944-4.23-8.734-7.482-4.373Z"/><g fill="#d85bd2"><path d="M336.12 205.868a2053.3 2053.3 0 0 1 434.35 118.578c19.133 7.564 38.351 15.472 58.654 18.796s42.146 1.669 59.787-8.918c6.537-3.923 12.531-9.205 15.744-16.119 2.539-5.463 3.196-11.583 3.818-17.576l8.673-83.54c.826-7.96 1.641-16.111-.285-23.879-4.38-17.67-21.54-28.917-38.174-36.314-24.436-10.867-50.573-17.282-76.549-23.643-111.734-27.362-224.201-54.838-339.026-61.796-21.21-1.285-42.862-1.821-63.311 3.951-20.45 5.772-39.811 18.782-48.505 38.171-5.058 11.279-6.222 23.856-7.32 36.169l-5.107 57.285"/><path d="M335.048 209.756c5.963.968 11.96 1.805 17.824 3.262s11.685 2.932 17.518 4.436c11.68 3.013 23.576 5.244 35.361 7.859 23.426 5.198 46.824 10.591 70.118 16.356 46.807 11.585 93.366 24.323 139.382 38.743 45.846 14.367 91.294 30.137 136.11 47.453 22.22 8.585 44.242 18.717 67.606 23.834 23.073 5.053 47.407 4.849 69.114-5.279 9.919-4.628 19.678-11.925 24.877-21.781 5.938-11.257 5.936-24.785 7.232-37.171 2.607-24.905 5.528-49.8 7.803-74.737 1.102-12.085.044-24.149-6.257-34.785-5.404-9.122-13.596-16.257-22.426-21.943-9.117-5.87-19.261-10.09-29.344-13.98-11.123-4.291-22.521-7.828-34.008-11-23.374-6.455-47.056-11.875-70.621-17.578-24.228-5.863-48.484-11.614-72.811-17.051-48.203-10.772-96.721-20.318-145.677-26.977-25.193-3.427-50.467-6.2-75.835-7.943-24.439-1.679-49.594-2.939-73.472 3.675-20.123 5.574-38.942 17.277-50.673 34.812-6.422 9.6-9.763 20.861-11.403 32.199-1.832 12.663-2.669 25.471-3.803 38.21q-1.631 18.332-3.265 36.662c-.488 5.47 5.164 10.707 10.47 10.47 6.089-.273 9.947-4.61 10.47-10.47l3.272-36.662 1.636-18.331c.241-2.704.477-5.408.743-8.109q.207-2.12.449-4.235c.081-.705.17-1.409.255-2.114q.144-1.131-.02.15l.155-1.051c.924-5.572 2.045-11.079 3.985-16.399.241-.66.487-1.322.758-1.97-.155.371-.639 1.365.137-.236.443-.913.886-1.823 1.366-2.718a58 58 0 0 1 4.9-7.625c-.236.312-1.297 1.571-.033.092.655-.767 1.302-1.536 1.981-2.282a68 68 0 0 1 5.245-5.164c.87-.77 1.782-1.486 2.664-2.24-1.506 1.287.426-.315 1.009-.734a80 80 0 0 1 6.25-4.06 85 85 0 0 1 5.823-3.113c.925-.45 1.86-.876 2.796-1.302 1.812-.824.29-.126-.073.019.818-.327 1.634-.655 2.458-.966 4.857-1.831 9.871-3.224 14.95-4.286a120 120 0 0 1 5.919-1.083c.223-.035 2.449-.372 1.313-.209-1.007.144.771-.097.776-.098q1.087-.13 2.176-.247 2.726-.288 5.461-.481c5.672-.403 11.362-.515 17.047-.45 23.895.272 47.878 2.617 71.614 5.244 23.71 2.624 45.169 5.71 69.363 9.784 23.802 4.008 47.504 8.589 71.125 13.551 47.301 9.937 94.264 21.393 141.205 32.892 22.323 5.468 44.768 10.807 66.324 18.884a259 259 0 0 1 8.058 3.172c1.116.461.215.086-.007-.008q.997.424 1.99.86 1.873.819 3.725 1.684c4.208 1.973 8.322 4.158 12.248 6.648 1.837 1.165 3.608 2.415 5.363 3.699-1.801-1.317.738.629 1.234 1.056a60 60 0 0 1 2.824 2.584c1.506 1.471 2.891 3.035 4.23 4.657-1.49-1.805.429.68.8 1.248a40 40 0 0 1 1.886 3.209c.257.488.47 1.004.74 1.482.741 1.312-.563-1.631-.064-.202.323.925.68 1.835.961 2.775.371 1.241.638 2.499.91 3.765.054.251.25 2.023.091.449q.136 1.351.201 2.707c.284 5.862-.399 11.718-.998 17.54l-3.771 36.62-3.712 36.048q-.47 4.578-.943 9.155c-.139 1.336-.29 2.67-.437 4.005.022-.204.233-1.466.035-.248-.134.828-.255 1.658-.412 2.482a45 45 0 0 1-.905 3.902c-.182.642-.399 1.269-.597 1.906-.09.289-.765 1.786-.078.317a29 29 0 0 1-1.744 3.196c-.24.38-.535.743-.756 1.133-.548.969.913-.96-.328.431a49 49 0 0 1-5.257 5.086c1.453-1.207-.768.531-1.24.853a58 58 0 0 1-3.548 2.231 65 65 0 0 1-6.954 3.51c1.677-.721-1.128.405-1.602.576q-2.055.747-4.151 1.37a80 80 0 0 1-7.567 1.849c-1.12.217-2.25.374-3.371.582-1.655.308 1.499-.136-.179.029-.814.08-1.625.184-2.44.26-5.234.482-10.504.53-15.75.209-2.461-.151-4.91-.4-7.357-.69-1.681-.2 1.469.268-.193-.037-.659-.121-1.326-.206-1.987-.316q-2.4-.4-4.786-.884c-5.648-1.143-11.225-2.617-16.734-4.303-11.061-3.384-21.833-7.63-32.584-11.878-43.468-17.177-87.442-33.083-132.042-47.076-44.584-13.988-89.673-26.812-135.216-37.303a2061 2061 0 0 0-68.939-14.642c-11.543-2.246-23.149-4.193-34.75-6.115-11.773-1.951-23.539-3.994-35.413-5.137-11.289-1.087-22.449-2.224-33.661-3.948-2.169-.334-4.309.551-4.959 2.816-.551 1.919.671 4.611 2.816 4.959Z"/></g><path d="M303.912 239.265c-32.359 36.222-63.813 73.345-93.969 111.422-30.374 38.351-59.227 78.163-86.159 119.006a2111 2111 0 0 0-57.916 92.992 1295 1295 0 0 0-9.315 16.118c-2.948 5.188-6.018 10.685-7.195 16.593-5.17 25.962 20.307 39.132 39.916 48.169 23.01 10.605 46.826 19.334 70.918 27.128 48.606 15.724 97.883 29.65 146.99 43.716 49.79 14.262 99.8 27.813 150.254 39.537 25.214 5.859 50.536 11.26 75.973 16.06 13.316 2.513 26.412 4.947 39.193-1.005 10.231-4.765 17.961-14.323 25.555-22.373 32.189-34.119 62.513-69.933 91.087-107.128 28.276-36.807 54.798-74.949 79.28-114.384 24.519-39.495 47.142-80.048 66.432-122.358a1112 1112 0 0 0 7-15.613c2.298-5.252 3.442-11.146 5.805-16.289 1.586-3.453.981-7.581-2.526-9.632-3.033-1.774-8.037-.946-9.632 2.526-2.24 4.875-5.805 9.255-8.317 14.034-2.747 5.227-5.385 10.512-8.128 15.741a1353 1353 0 0 1-16.216 29.981c-11.078 19.882-21.716 39.971-33.276 59.588a1370 1370 0 0 1-74.257 112.886c-26.571 36.355-55.157 71.249-85.342 104.686a1358 1358 0 0 1-34.534 36.852c-3.025 3.108-7.238 7.476-9.704 9.055a93 93 0 0 1-3.125 1.892c-2.505 1.469 1.064-.028-1.755.753-2.548.706-3.337.9-6.346.881-5.668-.037-10.582-1.244-16.622-2.382a1749 1749 0 0 1-37.335-7.462c-98.816-20.847-195.732-49.611-292.505-78.253-23.391-6.923-46.764-13.968-69.71-22.272-10.998-3.98-21.91-8.222-32.604-12.964-9.482-4.205-19.23-8.396-27.79-14.314-2.784-1.925 1.182 1.268-1.267-1.011-.802-.746-1.625-1.455-2.39-2.241-.085-.087-2.351-2.741-1.02-.993-.635-.834-1.103-1.753-1.673-2.625-1.447-2.212.092 1.456-.484-1.119-.072-.322-.535-3.497-.371-1.14-.172-2.474.186-4.179 1.415-7.042 1.613-3.758 4.951-8.964 7.338-13.134 3.083-5.386 6.146-10.783 9.25-16.157a2110 2110 0 0 1 36.856-61.376c24.986-40.054 50.951-79.546 78.225-118.081 27.492-38.844 55.506-77.325 85.6-114.207a2163 2163 0 0 1 21.971-26.483c4.391-5.209-2.937-12.763-7.573-7.573Zm45.536-19.917c33.06 5.65 65.842 12.445 98.466 20.219s65.192 15.931 97.715 24.214c32.566 8.294 65.005 17.1 97.428 25.935s64.788 17.941 97.137 27.07c32.895 9.284 65.68 19.297 98.881 27.417 2.098.513 4.202 1.08 6.328 1.463 2.622.473 4.968.164 7.583-.108 6.933-.72 8.807-8.419 3.401-12.558-1.934-1.481-3.65-2.894-5.92-3.827-2.15-.885-4.414-1.542-6.628-2.254-4.122-1.325-8.238-2.671-12.369-3.966-8.089-2.535-16.331-4.654-24.488-6.961l-49.474-13.997c-32.511-9.198-65.021-18.399-97.598-27.361-32.416-8.918-64.92-17.444-97.582-25.416-32.786-8.002-65.792-15.473-99.017-21.443-33.113-5.95-66.357-11.343-99.677-16.004-4.306-.602-8.614-1.186-12.923-1.76-5.264-.701-6.539 8.436-1.264 9.337Z"/><path d="M216.864 681.606c-12.401 21.564-30.502 45.465-29.445 70.318.177 4.161.67 8.615 3.374 11.782 2.216 2.596 5.556 3.892 8.755 5.083a2606 2606 0 0 0 346.525 102.35c20.681 4.577 41.52 8.915 62.672 10.017 4.908.256 10.048.289 14.45-1.897 5.008-2.487 8.254-7.43 11.202-12.182 42.272-68.137 73.022-142.658 103.576-216.793l31.101-75.462c27-65.513 54.044-131.146 74.71-198.924L723.589 570.849c-44.031 71.416-89.906 144.833-158.441 193.226-5.689 4.017-11.651 7.907-18.389 9.664-7.268 1.895-14.933 1.183-22.396.334a678.5 678.5 0 0 1-96.706-18.19c-19.89-5.26-39.528-11.421-59.158-17.58-52.433-16.451-85.485-34.913-137.918-51.364"/><path d="M213.071 679.389c-9.015 13.475-19.337 26.226-25.953 41.141-3.441 7.757-5.988 15.628-7.006 24.073-1.004 8.324-.746 18.096 5.063 24.722 2.88 3.285 6.809 5.116 10.772 6.734 4.385 1.791 8.818 3.474 13.233 5.191 8.646 3.363 17.377 6.523 26.093 9.701 17.429 6.354 34.906 12.61 52.502 18.486a2607 2607 0 0 0 212.6 61.102c18.042 4.366 36.155 8.498 54.319 12.324s36.623 7.22 55.186 7.929c9.541.364 18.718-1.732 25.465-8.908 5.844-6.215 9.965-14.241 14.294-21.522 9.189-15.453 17.836-31.226 26.059-47.214 33.283-64.718 59.867-132.679 87.505-199.923 14.271-34.723 28.351-69.544 42.04-104.501 6.789-17.337 12.724-35.042 18.968-52.585 6.179-17.36 11.434-35.107 18.018-52.307 3.274-8.552 6.238-17.147 8.996-25.88 2.702-8.555-9.552-13.183-14.107-5.948-31.38 49.844-62.288 99.979-93.297 150.055-27.407 44.26-53.941 89.293-84.342 131.6-27.911 38.841-60.65 76.103-99.951 103.102-5.329 3.661-10.31 6.694-16.437 8.139-5.365 1.266-12.742.205-18.731-.515-13.619-1.636-27.37-3.787-41.002-6.333-28.379-5.3-56.223-12.681-83.844-21.03-26.008-7.861-51.767-16.234-77.026-26.27-23.217-9.225-46.17-19.107-69.75-27.396a620 620 0 0 0-19.393-6.454c-5.195-1.636-11.588 1.926-12.805 7.27-1.291 5.669 1.708 11.053 7.27 12.805 24.984 7.869 49.232 17.639 73.469 27.523 24.845 10.132 49.876 19.307 75.494 27.3 27.795 8.672 55.735 16.577 84.305 22.295a690 690 0 0 0 42.913 7.17c14.42 1.951 30.308 5.375 44.702 1.726 13.124-3.327 24.344-13.025 34.765-21.215 9.677-7.606 18.924-15.752 27.761-24.319 18.141-17.586 34.499-36.922 49.824-56.983 31.295-40.966 57.641-85.457 84.589-129.32 31.168-50.731 62.548-101.343 93.318-152.316l11.496-19.044-14.107-5.948a1899 1899 0 0 0-7.746 26.883c-2.398 8.584-5.575 16.918-8.648 25.281a1547 1547 0 0 1-19.326 49.914c-6.893 16.93-14.16 33.729-21.144 50.627-6.905 16.707-13.905 33.375-20.897 50.046-27.349 65.206-52.961 131.286-83.45 195.121-14.918 31.235-31.002 62.096-49.504 91.378-3.584 5.672-5.832 8.491-12.313 8.597-8.221.135-16.733-.938-24.745-2.108-18.005-2.63-35.77-6.762-53.499-10.805-69.867-15.933-139.141-34.317-207.542-55.702-34.174-10.684-68.201-21.901-101.978-33.784-8.255-2.904-16.63-5.579-24.806-8.695-2.294-.875-4.107-1.604-4.892-3.995-1.059-3.224-.927-7.095-.773-10.44.684-14.828 8.274-28.996 14.997-41.887 3.549-6.803 7.182-13.566 10.582-20.457 2.503-5.073-4.428-9.154-7.586-4.434Z"/><path fill="#edc851" d="M342.721 351.743a304 304 0 0 1 6.566-3.141l.829-.38q.885-.399-.11.041c.285-.236.944-.324 1.284-.438a134 134 0 0 1 3.446-1.108c4.474-1.37 9.028-2.463 13.667-3.1l-1.967.264c4.702-.612 9.521-.756 14.233-.157l-2.268-.305a41.8 41.8 0 0 1 10.607 2.895l-2.217-.935a43 43 0 0 1 9.057 5.302l-1.983-1.532a30 30 0 0 1 5.109 5.09l-1.56-2.019a26.5 26.5 0 0 1 3.305 5.658l-1.022-2.422a27.2 27.2 0 0 1 1.776 6.67l-.368-2.741c.317 2.597.285 5.195-.035 7.791l.375-2.792c-.488 3.6-1.537 7.064-2.932 10.412l1.081-2.562c-1.613 3.761-3.766 7.225-6.258 10.465l1.689-2.186c-6.948 8.901-16.097 15.963-24.971 22.833l2.229-1.722c-20.299 15.676-42.193 29.148-65.193 40.483a378 378 0 0 1-19.751 9.031l2.736-1.154a375 375 0 0 1-33.008 12.141c-4.652 1.467-8.654 5.934-8.424 11.064a13.6 13.6 0 0 0 1.567 5.791c1.467 2.776 4.105 4.155 6.857 5.273a3956 3956 0 0 1 49.478 20.483l-2.749-1.16c29.877 12.611 59.564 25.667 89.249 38.721 4.934 2.17 9.866 4.322 14.865 6.34q3.17 1.28 6.337 2.565c2.151.873 4.295 1.278 6.567 1.725 2.172.427 4.157.392 6.229-.482 1.838-.776 3.617-2.101 4.575-3.914a11.35 11.35 0 0 0 1.306-4.829c.094-2.105-1.082-5.415-2.802-6.765-1.095-.859-2.188-1.721-3.286-2.576-1.119-.872-2.179-1.71-3.435-2.359-.725-.374-1.453-.742-2.18-1.113a3622 3622 0 0 0-7.854-3.995c-5.098-2.586-10.376-4.86-15.57-7.248a1859 1859 0 0 0-31.816-14.256 4088 4088 0 0 0-66.46-28.346 3932 3932 0 0 0-36.355-14.92v22.128c15.438-4.89 30.546-10.806 45.272-17.541a358 358 0 0 0 40.522-21.795c13.707-8.546 26.821-18.011 39.38-28.166 5.89-4.763 11.788-9.619 16.999-15.133 6.27-6.635 11.352-14.07 14.458-22.682 1.503-4.166 2.201-8.799 2.358-13.203.155-4.337-.406-8.937-1.831-13.046-2.842-8.199-8.2-14.778-15.447-19.51-1.874-1.223-3.859-2.253-5.968-3.011l2.303.972c-3.795-1.631-7.541-3.009-11.635-3.655-4.017-.634-8.029-1.017-12.092-.68-9.662.804-18.715 4.159-27.311 8.516-2.159 1.094-4.251 2.305-6.45 3.317a300 300 0 0 0-6.773 3.236c-2.691 1.32-3.639 5.357-2.051 7.821 1.778 2.757 4.943 3.463 7.821 2.051m153.55 60.812c2.667-.716 5.333-1.428 7.984-2.2 1.597-.465 3.129-.873 4.655-1.553 1.293-.575 2.591-1.14 3.888-1.706 5.034-2.197 10.099-4.33 15.068-6.67l29.969-14.117 16.9-7.961-14.082-8.081c-.068 1.335-.218 2.662-.39 3.987l.341-2.541c-1.332 9.753-4.247 19.307-8.066 28.358l1.039-2.462c-4.312 10.135-9.684 19.77-14.792 29.514a1033 1033 0 0 0-15.688 31.197c-10.408 21.601-20.052 43.57-28.993 65.818a1033 1033 0 0 0-7.095 18.149 152 152 0 0 0-3.168 9.193c-.467 1.514-.799 3.061-1.054 4.623a81 81 0 0 0-.33 2.254c-.242 1.8-.138 2.533.15 4.552q.152 1.067.309 2.132c.409 2.8 3.323 5.179 5.884 5.884 3.01.829 5.94-.121 8.196-2.166.633-.574 1.319-1.119 1.914-1.732 1.159-1.192 2.034-2.735 2.853-4.18 1.382-2.44 2.38-5.097 3.419-7.693a665 665 0 0 0 4.336-11.077 1032 1032 0 0 1 14.051-35.054l-1.088 2.579a1037 1037 0 0 1 24.878-54.465c8.823-17.923 19.007-35.322 26.015-54.079 1.805-4.832 3.339-9.773 4.425-14.818 1.276-5.927 1.616-11.93 1.572-17.972-.053-7.242-7.867-11.464-14.082-8.081-19.25 10.478-38.671 20.693-57.609 31.727l-4.073 2.373c-.826.481-1.648.927-2.405 1.512l-.682.527q.986-.688.398-.248c-.324.261-.662.507-.992.76a483 483 0 0 0-7.986 6.275c-1.465 1.173-1.676 3.876-.696 5.396 1.077 1.671 3.06 2.575 5.028 2.046Z"/><path fill="#edc851" d="M463.095 542.559a554 554 0 0 0 10.751 9.744c3.969 3.502 8.398 6.588 12.644 9.749 3.954 2.943 7.994 5.722 12.113 8.43a571 571 0 0 0 5.982 3.878c1.064.68 2.114 1.408 3.209 2.036 1.445.829 3.447 1.904 5.015 2.168 1.877.316 3.519.348 5.319-.412 1.569-.662 3.088-1.794 3.906-3.342a9.7 9.7 0 0 0 1.115-4.123c.099-2.221-1.034-4.153-2.393-5.776-1.036-1.239-2.903-2.404-4.349-3.252-1.09-.639-2.237-1.196-3.349-1.798a556 556 0 0 1-6.243-3.431c-4.215-2.352-8.413-4.728-12.643-7.052s-8.327-4.892-12.612-7.074a572 572 0 0 1-12.997-6.833c-1.991-1.079-4.429-.641-5.822 1.162-1.323 1.712-1.303 4.386.353 5.925Zm3.593-392.383c-1.618-.858-3.27-1.706-4.817-2.687a15 15 0 0 1-.973-.688c-.101-.076-1.155-.899-.296-.222a124 124 0 0 1-2.122-1.703 6 6 0 0 0-.809-.667q-1.004-.768-.088-.081c-.359-.152-.742-.63-1.038-.887a82 82 0 0 1-1.891-1.694c-1.293-1.195-2.545-2.435-3.748-3.721s-2.421-2.559-3.579-3.884a59 59 0 0 1-1.993-2.408q1.01 1.316.367.466c-.226-.312-.458-.62-.681-.933a47.7 47.7 0 0 1-5.115-9.141l.766 1.815c-2.424-5.9-3.802-12.105-4.659-18.409l.295 2.198c-1.36-10.273-1.971-20.823-.625-31.13l-.321 2.391c.742-5.436 2.071-10.763 4.182-15.834l-.935 2.217c1.541-3.619 3.452-7.015 5.85-10.136l-1.483 1.919a45 45 0 0 1 7.892-7.857l-1.959 1.513c2.738-2.083 5.693-3.831 8.861-5.174l-2.354.994c2.9-1.196 5.856-2.107 8.97-2.542l-2.623.352a30.2 30.2 0 0 1 7.503-.035l-2.623-.352c2.643.357 5.194 1.076 7.654 2.103l-2.357-.995c2.86 1.235 5.507 2.851 7.979 4.742l-1.997-1.543c2.084 1.625 3.919 3.469 5.832 5.282.909.861 1.773 1.767 2.678 2.632 1.216 1.162 2.459 2.227 4.023 2.887.914.386 1.696.678 2.651.871l-1.955-.825c.535.277 1.08.534 1.618.803 2.672 1.337 5.656 1.308 8.086-.569a6.94 6.94 0 0 0 2.242-2.912c.689-1.633.62-2.985.367-4.741-.088-.609-.173-1.219-.293-1.823l.292 2.175c.207-2.884-.685-5.603-2.337-7.946-1.367-1.938-2.862-3.929-4.545-5.62-2.705-2.718-5.732-5.176-8.915-7.31-6.26-4.198-13.73-6.626-21.27-6.816-13.955-.352-27.459 7.304-35.939 18.099-2.267 2.886-4.373 5.827-5.997 9.127-1.805 3.667-3.331 7.521-4.424 11.462-2.025 7.304-2.802 15.05-2.724 22.616.08 7.733 1.139 15.462 2.545 23.056 1.413 7.627 3.493 15.294 7.516 21.996s9.643 12.73 16.118 17.143c2.909 1.982 5.977 3.806 9.151 5.328 3.218 1.544 6.364 3.18 9.551 4.787 2.077 1.048 4.922.618 6.092-1.597 1.089-2.061.6-4.927-1.597-6.092Z"/><path d="M455.285 169.332a21 21 0 0 0 2.903-.875c.572-.22 1.141-.46 1.7-.705.776-.34-1.117.321-.257.144.451-.093.9-.245 1.337-.388 1.279-.419 2.632-.876 3.724-1.665 1.185-.856 2.355-1.759 3.427-2.756 1.817-1.69 3.409-3.7 4.738-5.788a21.7 21.7 0 0 0 2.043-4.133c.549-1.492 1.053-3.29.924-4.853-.141-1.699-.54-3.146-1.602-4.521-.953-1.233-2.313-2.318-3.876-2.674a8.9 8.9 0 0 0-3.967 0c-1.63.371-3.729 1.892-4.459 3.429a17 17 0 0 0-1.208 3.436c-.152.636-.33 1.263-.477 1.901a22.4 22.4 0 0 1-1.197 3.675l.7-1.659a23.6 23.6 0 0 1-2.958 5.021l.97-1.256c-.719.912-1.512 1.762-2.132 2.748a22 22 0 0 1-1.17 1.676l.811-1.05c-.247.315-.546.596-.792.902q.937-.717.49-.385a22 22 0 0 1-.804.566c-.709.475-1.446.902-2.206 1.29-1.92.98-2.564 3.534-1.773 5.41.856 2.028 2.98 2.995 5.111 2.508Z"/><path fill="#edc851" d="M586.755 162.706c-1.618-.858-3.27-1.706-4.817-2.687a15 15 0 0 1-.973-.688c-.101-.076-1.155-.899-.296-.222a124 124 0 0 1-2.122-1.703 6 6 0 0 0-.809-.667q-1.004-.768-.088-.081c-.359-.152-.742-.63-1.038-.887a82 82 0 0 1-1.891-1.694q-1.942-1.792-3.748-3.721c-1.806-1.929-2.421-2.559-3.579-3.884a59 59 0 0 1-1.993-2.408q1.01 1.316.367.466c-.226-.312-.458-.62-.681-.933a47.7 47.7 0 0 1-5.115-9.141l.766 1.815c-2.424-5.9-3.802-12.105-4.659-18.409l.295 2.198c-1.36-10.273-1.971-20.823-.625-31.13l-.321 2.391c.742-5.436 2.071-10.763 4.182-15.834l-.935 2.217c1.541-3.619 3.452-7.015 5.85-10.136l-1.483 1.919a45 45 0 0 1 7.892-7.857l-1.959 1.513c2.738-2.083 5.693-3.831 8.861-5.174l-2.354.994c2.9-1.196 5.856-2.107 8.97-2.542l-2.623.352a30.2 30.2 0 0 1 7.503-.035l-2.623-.352c2.643.357 5.194 1.076 7.654 2.103l-2.357-.995c2.86 1.235 5.507 2.851 7.979 4.742l-1.997-1.543c2.084 1.625 3.919 3.469 5.832 5.282.909.861 1.773 1.767 2.678 2.632 1.216 1.162 2.459 2.227 4.023 2.887.914.386 1.696.678 2.651.871l-1.955-.825c.535.277 1.08.534 1.618.803 2.672 1.337 5.656 1.308 8.086-.569a6.94 6.94 0 0 0 2.242-2.912c.689-1.633.62-2.985.367-4.741-.088-.609-.173-1.219-.293-1.823l.292 2.175c.207-2.884-.685-5.603-2.337-7.946-1.367-1.938-2.862-3.929-4.545-5.62-2.705-2.718-5.732-5.176-8.915-7.31-6.26-4.198-13.73-6.626-21.27-6.816-13.955-.352-27.459 7.304-35.939 18.099-2.267 2.886-4.373 5.827-5.997 9.127-1.805 3.667-3.331 7.521-4.424 11.462-2.025 7.304-2.802 15.05-2.724 22.616.08 7.733 1.139 15.462 2.545 23.056s3.493 15.294 7.516 21.996 9.643 12.73 16.118 17.143c2.909 1.982 5.977 3.806 9.151 5.328 3.218 1.544 6.364 3.18 9.551 4.787 2.077 1.048 4.922.618 6.092-1.597 1.089-2.061.6-4.927-1.597-6.092Z"/><path d="M575.352 181.862a21 21 0 0 0 2.903-.875c.572-.22 1.141-.46 1.7-.705.776-.34-1.117.321-.257.144.451-.093.9-.245 1.337-.388 1.279-.419 2.632-.876 3.724-1.665 1.185-.856 2.355-1.759 3.427-2.756 1.817-1.69 3.409-3.7 4.738-5.788a21.7 21.7 0 0 0 2.043-4.133c.549-1.492 1.053-3.29.924-4.853-.141-1.699-.54-3.146-1.602-4.521-.953-1.233-2.313-2.318-3.876-2.674a8.9 8.9 0 0 0-3.967 0c-1.63.371-3.729 1.892-4.459 3.429a17 17 0 0 0-1.208 3.436c-.152.636-.33 1.263-.477 1.901a22.4 22.4 0 0 1-1.197 3.675l.7-1.659a23.6 23.6 0 0 1-2.958 5.021l.97-1.256c-.719.912-1.512 1.762-2.132 2.748a22 22 0 0 1-1.17 1.676l.811-1.05c-.247.315-.546.596-.792.902q.937-.717.49-.385a22 22 0 0 1-.804.566c-.709.475-1.446.902-2.206 1.29-1.92.98-2.564 3.534-1.773 5.41.856 2.028 2.98 2.995 5.111 2.508Z"/><path fill="#edc851" d="M694.355 186.685c-1.618-.858-3.27-1.706-4.817-2.687a15 15 0 0 1-.973-.688c-.101-.076-1.155-.899-.296-.222a124 124 0 0 1-2.122-1.703 6 6 0 0 0-.809-.667q-1.004-.768-.088-.081c-.359-.152-.742-.63-1.038-.887a82 82 0 0 1-1.891-1.694q-1.942-1.792-3.748-3.721c-1.806-1.929-2.421-2.559-3.579-3.884a59 59 0 0 1-1.993-2.408q1.01 1.316.367.466c-.226-.312-.458-.62-.681-.933a47.7 47.7 0 0 1-5.115-9.141l.766 1.815c-2.424-5.9-3.802-12.105-4.659-18.409l.295 2.198c-1.36-10.273-1.971-20.823-.625-31.13l-.321 2.391c.742-5.436 2.071-10.763 4.182-15.834l-.935 2.217c1.541-3.619 3.452-7.015 5.85-10.136l-1.483 1.919a45 45 0 0 1 7.892-7.857l-1.959 1.513c2.738-2.083 5.693-3.831 8.861-5.174l-2.354.994c2.9-1.196 5.856-2.107 8.97-2.542l-2.623.352a30.2 30.2 0 0 1 7.503-.035l-2.623-.352c2.643.357 5.194 1.076 7.654 2.103l-2.357-.995c2.86 1.235 5.507 2.851 7.979 4.742l-1.997-1.543c2.084 1.625 3.919 3.469 5.832 5.282.909.861 1.773 1.767 2.678 2.632 1.216 1.162 2.459 2.227 4.023 2.887.914.386 1.696.678 2.651.871l-1.955-.825c.535.277 1.08.534 1.618.803 2.672 1.337 5.656 1.308 8.086-.569a6.94 6.94 0 0 0 2.242-2.912c.689-1.633.62-2.985.367-4.741-.088-.609-.173-1.219-.293-1.823l.292 2.175c.207-2.884-.685-5.603-2.337-7.946-1.367-1.938-2.862-3.929-4.545-5.62-2.705-2.718-5.732-5.176-8.915-7.31-6.26-4.198-13.73-6.626-21.27-6.816-13.955-.352-27.459 7.304-35.939 18.099-2.267 2.886-4.373 5.827-5.997 9.127-1.805 3.667-3.331 7.521-4.424 11.462-2.025 7.304-2.802 15.05-2.724 22.616.08 7.733 1.139 15.462 2.545 23.056s3.493 15.294 7.516 21.996 9.643 12.73 16.118 17.143c2.909 1.982 5.977 3.806 9.151 5.328 3.218 1.544 6.364 3.18 9.551 4.787 2.077 1.048 4.922.618 6.092-1.597 1.089-2.061.6-4.927-1.597-6.092Z"/><path d="M682.952 205.842a21 21 0 0 0 2.903-.875c.572-.22 1.141-.46 1.7-.705.776-.34-1.117.321-.257.144.451-.093.9-.245 1.337-.388 1.279-.419 2.632-.876 3.724-1.665 1.185-.856 2.355-1.759 3.427-2.756 1.817-1.69 3.409-3.7 4.738-5.788a21.7 21.7 0 0 0 2.043-4.133c.549-1.492 1.053-3.29.924-4.853-.141-1.699-.54-3.146-1.602-4.521-.953-1.233-2.313-2.318-3.876-2.674a8.9 8.9 0 0 0-3.967 0c-1.63.371-3.729 1.892-4.459 3.429a17 17 0 0 0-1.208 3.436c-.152.636-.33 1.263-.477 1.901a22.4 22.4 0 0 1-1.197 3.675l.7-1.659a23.6 23.6 0 0 1-2.958 5.021l.97-1.256c-.719.912-1.512 1.762-2.132 2.748a22 22 0 0 1-1.17 1.676l.811-1.05c-.247.315-.546.596-.792.902q.937-.717.49-.385a22 22 0 0 1-.804.566c-.709.475-1.446.902-2.206 1.29-1.92.98-2.564 3.534-1.773 5.41.856 2.028 2.98 2.995 5.111 2.508Z"/><path fill="#edc851" d="M798.81 217.094c-1.618-.858-3.27-1.706-4.817-2.687a15 15 0 0 1-.973-.688c-.101-.076-1.155-.899-.296-.222a124 124 0 0 1-2.122-1.703 6 6 0 0 0-.809-.667q-1.004-.768-.088-.081c-.359-.152-.742-.63-1.038-.887a82 82 0 0 1-1.891-1.694q-1.942-1.792-3.748-3.721c-1.806-1.929-2.421-2.559-3.579-3.884a59 59 0 0 1-1.993-2.408q1.01 1.316.367.466c-.226-.312-.458-.62-.681-.933a47.7 47.7 0 0 1-5.115-9.141l.766 1.815c-2.424-5.9-3.802-12.105-4.659-18.409l.295 2.198c-1.36-10.273-1.971-20.823-.625-31.13l-.321 2.391c.742-5.436 2.071-10.763 4.182-15.834l-.935 2.217c1.541-3.619 3.452-7.015 5.85-10.136l-1.483 1.919a45 45 0 0 1 7.892-7.857l-1.959 1.513c2.738-2.083 5.693-3.831 8.861-5.174l-2.354.994c2.9-1.196 5.856-2.107 8.97-2.542l-2.623.352a30.2 30.2 0 0 1 7.503-.035l-2.623-.352c2.643.357 5.194 1.076 7.654 2.103l-2.357-.995c2.86 1.235 5.507 2.851 7.979 4.742l-1.997-1.543c2.084 1.625 3.919 3.469 5.832 5.282.909.861 1.773 1.767 2.678 2.632 1.216 1.162 2.459 2.227 4.023 2.887.914.386 1.696.678 2.651.871l-1.955-.825c.535.277 1.08.534 1.618.803 2.672 1.337 5.656 1.308 8.086-.569a6.94 6.94 0 0 0 2.242-2.912c.689-1.633.62-2.985.367-4.741-.088-.609-.173-1.219-.293-1.823l.292 2.175c.207-2.884-.685-5.603-2.337-7.946-1.367-1.938-2.862-3.929-4.545-5.62-2.705-2.718-5.732-5.176-8.915-7.31-6.26-4.198-13.73-6.626-21.27-6.816-13.955-.352-27.459 7.304-35.939 18.099-2.267 2.886-4.373 5.827-5.997 9.127-1.805 3.667-3.331 7.521-4.424 11.462-2.025 7.304-2.802 15.05-2.724 22.616.08 7.733 1.139 15.462 2.545 23.056 1.413 7.627 3.493 15.294 7.516 21.996 4.031 6.715 9.643 12.73 16.118 17.143 2.909 1.982 5.977 3.806 9.151 5.328 3.218 1.544 6.364 3.18 9.551 4.787 2.077 1.048 4.922.618 6.092-1.597 1.089-2.061.6-4.927-1.597-6.092Z"/><path d="M787.407 236.25a21 21 0 0 0 2.903-.875c.572-.22 1.141-.46 1.7-.705.776-.34-1.117.321-.257.144.451-.093.9-.245 1.337-.388 1.279-.419 2.632-.876 3.724-1.665 1.185-.856 2.355-1.759 3.427-2.756 1.817-1.69 3.409-3.7 4.738-5.788a21.7 21.7 0 0 0 2.043-4.133c.549-1.492 1.053-3.29.924-4.853-.141-1.699-.54-3.146-1.602-4.521-.953-1.233-2.313-2.318-3.876-2.674a8.9 8.9 0 0 0-3.967 0c-1.63.371-3.729 1.892-4.459 3.429a17 17 0 0 0-1.208 3.436c-.152.636-.33 1.263-.477 1.901a22.4 22.4 0 0 1-1.197 3.675l.7-1.659a23.6 23.6 0 0 1-2.958 5.021l.97-1.256c-.719.912-1.512 1.762-2.132 2.748a22 22 0 0 1-1.17 1.676l.811-1.05c-.247.315-.546.596-.792.902q.937-.717.49-.385a22 22 0 0 1-.804.566c-.709.475-1.446.902-2.206 1.29-1.92.98-2.564 3.534-1.773 5.41.856 2.028 2.98 2.995 5.111 2.508Z"/><path fill="#d85bd2" d="M496.412 802.834a499 499 0 0 0 18.266 23.228c3.03 3.622 6.065 7.266 9.261 10.743 1.778 1.934 3.581 3.819 5.663 5.42a472 472 0 0 0 5.834 4.411c2.889 2.15 6.932-2.061 4.94-4.94a474 474 0 0 1-3.894-5.711c-1.463-2.181-3.254-4.098-4.998-6.057-3.191-3.584-6.498-7.065-9.672-10.666a477 477 0 0 1-18.217-21.969c-1.396-1.789-4.392-1.604-6.004-.358-1.641 1.268-2.538 4.062-1.178 5.899Zm45.348-8.249c5.542 7.109 10.782 14.494 15.852 21.945a309 309 0 0 1 14.482 23.465 402 402 0 0 0 3.903 6.885c1.341 2.3 2.766 4.468 4.29 6.651 1.061 1.519 2.873 2.311 4.659 1.526 1.608-.707 2.77-2.612 2.16-4.401-3.115-9.131-8.29-17.356-13.474-25.443-5.138-8.017-10.561-15.968-16.586-23.35a312 312 0 0 0-10.436-12.129c-1.244-1.374-3.586-1.264-4.85 0-1.443 1.443-1.143 3.384 0 4.85Zm34.544-7.631 19.118 25.1 9.484 12.451c1.606 2.108 3.208 4.219 4.817 6.324 1.74 2.276 3.688 4.392 5.57 6.55 3.118 3.574 9.305-1.133 6.615-5.104-1.606-2.372-3.155-4.794-4.914-7.057q-2.44-3.138-4.885-6.272l-9.617-12.349-19.386-24.893c-1.321-1.696-4.162-1.518-5.688-.339-1.538 1.188-2.427 3.867-1.116 5.589Zm50.493-8.839c2.455 0 4.807-2.159 4.693-4.693s-2.062-4.693-4.693-4.693c-2.455 0-4.807 2.159-4.693 4.693s2.062 4.693 4.693 4.693m-190.871 22.378c2.801 0 5.485-2.463 5.355-5.355s-2.353-5.355-5.355-5.355c-2.801 0-5.485 2.463-5.355 5.355s2.353 5.355 5.355 5.355M227.169 212.96l-11.32-38.186-5.66-19.093-2.83-9.547c-.906-3.058-1.671-6.207-2.75-9.208-1.258-3.498-3.379-6.28-7.107-7.375-3.892-1.143-8.05.647-10.14 4.033-1.614 2.616-1.563 6.324.002 8.935 2.525 4.212 8.395 4.899 11.873 1.491 1.562-1.531 2.172-3.64 1.887-5.762-.298-2.216-1.451-3.761-3.275-5.011l1.194.892 1.823 3.128-.035-.107.257 1.91v-.119l-.259 1.936c.198-.694.235-1.541.319-2.258l-.266 1.978a1.3 1.3 0 0 1 .114-.359l-.761 1.802q.53-.931-.844 1.07l-1.56 1.205q.141-.13.32-.2l-1.866.788.18-.047-2.09.281.187-.003-2.104-.283.192.048-1.904-.803.259.132-1.629-1.259q.24.155.411.384l-1.283-1.661c.49.752 1.081 1.459 1.647 2.157l-1.297-1.679c.263.357.464.723.647 1.127l-.833-1.975c1.876 4.659 3.345 9.525 5 14.268l5.178 14.837 10.191 29.204 5.835 16.721c1.097 3.143 4.415 5.565 7.846 4.455 3.236-1.047 5.47-4.42 4.455-7.846Zm-71.9 61.631-19.897-21.665c-6.573-7.157-13.282-14.214-19.698-21.513l-5.438-6.186c-1.856-2.112-3.635-4.363-5.711-6.265-3.122-2.86-8.4-3.318-11.446 0-1.416 1.542-2.467 3.567-2.37 5.723.101 2.266.944 3.972 2.37 5.723l1.931 2.369c1.255 1.541 2.631 2.332 4.468 3.1 1.371.573 3.754.129 4.961-.649 1.427-.92 2.469-2.196 2.959-3.848.855-2.884-.185-5.986-.792-8.847l-13.527 7.874c1.62 1.885 3.536 3.523 5.347 5.22l5.273 4.941c3.576 3.35 7.062 6.79 10.563 10.218l20.825 20.385 11.926 11.673c2.184 2.138 6.106 2.34 8.254 0 2.214-2.412 2.209-5.849 0-8.254Zm-64.783 69.674a442 442 0 0 1-27.473-10.263c-.334-.138-2.021-.7-.468-.193-.591-.193-1.171-.51-1.741-.761a447 447 0 0 1-9.947-4.524 441 441 0 0 1-6.428-3.086c-1.539-.754-3.057-1.483-4.661-2.103-1.595-.616-3.146-.803-4.84-.704-2.111.124-3.995 1.046-5.092 2.921-.987 1.687-1.2 4.287 0 5.952 1.23 1.706 2.367 3.082 4.231 4.14 1.113.632 2.269 1.124 3.445 1.627a556 556 0 0 0 7.768 3.259c4.618 1.893 9.283 3.652 13.938 5.45a440 440 0 0 0 28.1 9.772c2.976.924 6.629-1.094 7.328-4.161.751-3.295-.996-6.263-4.161-7.328Zm815.815 176.134a94.5 94.5 0 0 1 14.265 8.417q.967.69 1.92 1.404c.171.128 1.437 1.108.316.232q.741.58 1.474 1.171c5.658 4.582 10.817 9.769 15.454 15.379.611.739 1.206 1.49 1.805 2.238 1.06 1.324-.996-1.33.013.015.284.379.572.756.854 1.137 1.133 1.527 2.215 3.088 3.296 4.65a123 123 0 0 1 5.82 9.291 122 122 0 0 1 4.89 9.525c.354.775.683 1.561 1.032 2.337-1.275-2.832-.191-.436.083.252.631 1.587 1.225 3.19 1.814 4.793a105 105 0 0 1 5.495 22.187l-.338-2.513c1.006 7.729 1.123 15.555.116 23.29l.352-2.62c-.862 6.354-2.437 12.64-4.928 18.556l1.011-2.396c-1.863 4.342-4.213 8.438-7.076 12.2l1.576-2.04a54.5 54.5 0 0 1-9.445 9.514l2.05-1.584c-3.837 2.963-8.026 5.385-12.483 7.289l2.432-1.026c-5.464 2.285-11.203 3.754-17.067 4.553l2.723-.366c-7.713 1.003-15.513.851-23.216-.177l2.745.369a107.5 107.5 0 0 1-26.467-7.225l2.485 1.049c-4.569-1.931-8.952-4.257-12.899-7.279l2.099 1.622c-2.434-1.909-4.658-4.049-6.56-6.492l1.619 2.096a31.4 31.4 0 0 1-3.753-6.457l1.043 2.47a29.2 29.2 0 0 1-1.964-7.157l.369 2.746a25 25 0 0 1-.028-5.923l-.369 2.743c.252-1.816.71-3.56 1.405-5.258l-1.039 2.462a20.8 20.8 0 0 1 2.424-4.163l-1.61 2.084a22.5 22.5 0 0 1 3.934-3.906l-2.082 1.609a26.2 26.2 0 0 1 5.227-3.028l-2.455 1.036a29.3 29.3 0 0 1 7.17-1.967l-2.728.367c2.579-.329 5.141-.306 7.72.02l-2.724-.366c3.39.481 6.649 1.444 9.801 2.771l-2.443-1.031c4.437 1.929 8.525 4.503 12.357 7.445l-2.065-1.595c5.481 4.268 10.374 9.212 14.64 14.692l-1.589-2.057a90 90 0 0 1 11.518 19.753l-1.02-2.417a90.3 90.3 0 0 1 6.157 22.509l-.362-2.692c.99 7.432 1.046 14.948.087 22.386l.363-2.698c-1.095 8.134-3.4 16.041-6.566 23.605l1.026-2.43c-4.921 11.605-11.796 22.229-19.481 32.182l1.597-2.067c-6.576 8.477-13.727 16.483-21.019 24.345-7.014 7.562-14.096 15.131-22.247 21.494l2.08-1.607c-5.303 4.095-11.049 7.248-17.019 10.241l2.357-.995c-1.225.476-2.426 1.01-3.632 1.532l2.335-.985c-3.971 1.67-8.229 2.592-12.151 4.349l4.161-1.125-.479.026c-4.299.229-8.45 3.628-8.243 8.243.191 4.27 3.632 8.489 8.243 8.243q-3.036-.441.957.111.474.05.95.088.823.066 1.647.099c1.875.075 3.617-.036 5.489-.4l-2.479.333c11.354-.52 21.219-6.558 29.934-13.324 7.293-5.663 13.726-12.303 20.002-19.049 13.591-14.608 27.113-29.721 37.268-46.99 10.035-17.065 16.474-36.519 15.848-56.478-.587-18.721-6.539-37.586-17.205-53.023-5.657-8.189-12.307-15.354-20.177-21.434-9.019-6.968-19.666-12.162-31.258-12.46-10.213-.262-21.537 3.938-28.002 12.084-2.325 2.929-3.894 5.625-5.263 9.123-1.081 2.762-1.504 5.76-1.735 8.701-.468 5.958 1.134 11.77 3.472 17.173 4.197 9.7 12.87 17.087 22.117 21.828 8.733 4.478 18.285 7.604 27.923 9.417 19.377 3.644 39.847 2.69 57.621-6.503 16.239-8.399 27.728-23.864 32.446-41.376 4.524-16.79 3.025-35.292-1.945-51.802-1.349-4.481-3.055-8.807-4.88-13.112l.91 2.157c-2.324-5.61-5.253-10.933-8.537-16.036a129 129 0 0 0-5.045-7.276 199 199 0 0 0-3.424-4.449c-.442-.558-.88-1.125-1.342-1.666l-.151-.184q1.538 2.022-.591-.749c-.308-.359-.643-.7-.956-1.056-7.861-8.955-17.118-16.848-27.332-23.004-5.925-3.571-12.235-6.506-18.754-8.816-5.094-1.804-8.642 6.44-3.709 8.798Z"/></svg>